<svg width="498" height="332" viewBox="0 0 498 332" fill="none" xmlns="http://www.w3.org/2000/svg">
<path d="M301.456 262.944H416.66C418.862 262.944 420.973 262.07 422.529 260.513C424.086 258.956 424.96 256.845 424.96 254.644V41.5C424.96 39.2987 424.086 37.1876 422.529 35.631C420.973 34.0745 418.862 33.2 416.66 33.2H83.3322C81.1309 33.2 79.0198 34.0745 77.4632 35.631C75.9067 37.1876 75.0322 39.2987 75.0322 41.5V254.644C75.0322 256.845 75.9067 258.956 77.4632 260.513C79.0198 262.07 81.1309 262.944 83.3322 262.944H198.536" stroke="black" stroke-linecap="round" stroke-linejoin="round"/>
<path d="M416.992 42.496H82.3364V238.376H416.992V42.496Z" stroke="black" stroke-linecap="round" stroke-linejoin="round"/>
<path d="M301.456 262.944H198.536V286.151H301.456V262.944Z" stroke="black" stroke-linecap="round" stroke-linejoin="round"/>
<path d="M301.456 286.151H319.384V295.009H180.608V286.151H198.536" stroke="black" stroke-linecap="round" stroke-linejoin="round"/>
<path d="M132.382 104.58H106.32V69.8329H126.798L132.382 75.291V104.58Z" fill="white" stroke="#263238" stroke-linecap="round" stroke-linejoin="round"/>
<path d="M127.501 74.7199V76.1409L132.382 75.2976L127.501 74.7199Z" fill="#263238" stroke="#263238" stroke-linecap="round" stroke-linejoin="round"/>
<path d="M126.797 69.8329V75.2976H132.382L126.797 69.8329Z" fill="white" stroke="#263238" stroke-linecap="round" stroke-linejoin="round"/>
<path d="M109.633 77.3826H129.692" stroke="#263238" stroke-linecap="round" stroke-linejoin="round"/>
<path d="M109.633 82.3493H129.692" stroke="#263238" stroke-linecap="round" stroke-linejoin="round"/>
<path d="M109.633 87.3094H129.692" stroke="#263238" stroke-linecap="round" stroke-linejoin="round"/>
<path d="M109.633 92.2761H129.692" stroke="#263238" stroke-linecap="round" stroke-linejoin="round"/>
<path d="M109.633 97.2361H129.692" stroke="#263238" stroke-linecap="round" stroke-linejoin="round"/>
<path d="M58.7837 146.571H68.1195" stroke="#263238" stroke-linecap="round" stroke-linejoin="round"/>
<path d="M48.4653 146.571H57.0973" stroke="#263238" stroke-linecap="round" stroke-linejoin="round"/>
<path d="M64.5078 149.52H68.12" stroke="#263238" stroke-linecap="round" stroke-linejoin="round"/>
<path d="M48.4653 149.52H62.821" stroke="#263238" stroke-linecap="round" stroke-linejoin="round"/>
<path d="M66.6987 152.468H68.1197" stroke="#263238" stroke-linecap="round" stroke-linejoin="round"/>
<path d="M58.9497 152.468H64.3414" stroke="#263238" stroke-linecap="round" stroke-linejoin="round"/>
<path d="M48.4653 152.468H57.436" stroke="#263238" stroke-linecap="round" stroke-linejoin="round"/>
<path d="M48.4653 155.416H68.1197" stroke="#263238" stroke-linecap="round" stroke-linejoin="round"/>
<path d="M64.8462 158.364H68.1197" stroke="#263238" stroke-linecap="round" stroke-linejoin="round"/>
<path d="M53.5649 158.364H61.4798" stroke="#263238" stroke-linecap="round" stroke-linejoin="round"/>
<path d="M48.4653 158.364H51.2077" stroke="#263238" stroke-linecap="round" stroke-linejoin="round"/>
<path d="M57.436 161.312H68.1198" stroke="#263238" stroke-linecap="round" stroke-linejoin="round"/>
<path d="M48.4653 161.312H55.5834" stroke="#263238" stroke-linecap="round" stroke-linejoin="round"/>
<path d="M62.8208 164.26H68.1195" stroke="#263238" stroke-linecap="round" stroke-linejoin="round"/>
<path d="M57.6021 164.26H61.3072" stroke="#263238" stroke-linecap="round" stroke-linejoin="round"/>
<path d="M48.4653 164.26H55.5834" stroke="#263238" stroke-linecap="round" stroke-linejoin="round"/>
<path d="M118.63 186.199H97.1367V157.541H114.022L118.63 162.036V186.199Z" fill="#42C2C9" stroke="#263238" stroke-linecap="round" stroke-linejoin="round"/>
<path d="M114.6 161.571V162.74L118.63 162.043L114.6 161.571Z" fill="#263238" stroke="#263238" stroke-linecap="round" stroke-linejoin="round"/>
<path d="M114.022 157.541V162.043H118.63L114.022 157.541Z" fill="white" stroke="#263238" stroke-linecap="round" stroke-linejoin="round"/>
<path d="M99.8657 163.762H116.413" stroke="#263238" stroke-linecap="round" stroke-linejoin="round"/>
<path d="M99.8657 167.859H116.413" stroke="#263238" stroke-linecap="round" stroke-linejoin="round"/>
<path d="M99.8657 171.956H116.413" stroke="#263238" stroke-linecap="round" stroke-linejoin="round"/>
<path d="M99.8657 176.046H116.413" stroke="#263238" stroke-linecap="round" stroke-linejoin="round"/>
<path d="M99.8657 180.143H116.413" stroke="#263238" stroke-linecap="round" stroke-linejoin="round"/>
<path d="M96.0342 107.794H69.9722V73.0466H90.4499L96.0342 78.4981V107.794Z" fill="#42C2C9" stroke="#263238" stroke-linecap="round" stroke-linejoin="round"/>
<path d="M91.1475 77.9337V79.3546L96.0345 78.5047L91.1475 77.9337Z" fill="#263238" stroke="#263238" stroke-linecap="round" stroke-linejoin="round"/>
<path d="M90.4502 73.0466V78.5047H96.0344L90.4502 73.0466Z" fill="white" stroke="#263238" stroke-linecap="round" stroke-linejoin="round"/>
<path d="M73.2788 80.5963H93.3449" stroke="#263238" stroke-linecap="round" stroke-linejoin="round"/>
<path d="M73.2788 85.5564H93.3449" stroke="#263238" stroke-linecap="round" stroke-linejoin="round"/>
<path d="M73.2788 90.5231H93.3449" stroke="#263238" stroke-linecap="round" stroke-linejoin="round"/>
<path d="M73.2788 95.4899H93.3449" stroke="#263238" stroke-linecap="round" stroke-linejoin="round"/>
<path d="M73.2788 100.45H93.3449" stroke="#263238" stroke-linecap="round" stroke-linejoin="round"/>
<path d="M151.85 123.69H125.788V88.9362H146.266L151.85 94.3942V123.69Z" fill="#42C2C9" stroke="#263238" stroke-linecap="round" stroke-linejoin="round"/>
<path d="M146.97 93.8232V95.2508L151.85 94.4009L146.97 93.8232Z" fill="#263238" stroke="#263238" stroke-linecap="round" stroke-linejoin="round"/>
<path d="M146.266 88.9362V94.4009H151.85L146.266 88.9362Z" fill="white" stroke="#263238" stroke-linecap="round" stroke-linejoin="round"/>
<path d="M129.102 96.4925H149.161" stroke="#263238" stroke-linecap="round" stroke-linejoin="round"/>
<path d="M129.102 101.453H149.161" stroke="#263238" stroke-linecap="round" stroke-linejoin="round"/>
<path d="M129.102 106.419H149.161" stroke="#263238" stroke-linecap="round" stroke-linejoin="round"/>
<path d="M129.102 111.379H149.161" stroke="#263238" stroke-linecap="round" stroke-linejoin="round"/>
<path d="M129.102 116.346H149.161" stroke="#263238" stroke-linecap="round" stroke-linejoin="round"/>
<path d="M186.816 162.202H160.754V127.448H181.232L186.816 132.906V162.202Z" fill="white" stroke="#263238" stroke-linecap="round" stroke-linejoin="round"/>
<path d="M181.929 132.335V133.763L186.816 132.913L181.929 132.335Z" fill="#263238" stroke="#263238" stroke-linecap="round" stroke-linejoin="round"/>
<path d="M181.232 127.448V132.913H186.816L181.232 127.448Z" fill="white" stroke="#263238" stroke-linecap="round" stroke-linejoin="round"/>
<path d="M164.061 135.005H184.127" stroke="#263238" stroke-linecap="round" stroke-linejoin="round"/>
<path d="M164.061 139.965H184.127" stroke="#263238" stroke-linecap="round" stroke-linejoin="round"/>
<path d="M164.061 144.931H184.127" stroke="#263238" stroke-linecap="round" stroke-linejoin="round"/>
<path d="M164.061 149.891H184.127" stroke="#263238" stroke-linecap="round" stroke-linejoin="round"/>
<path d="M164.061 154.858H184.127" stroke="#263238" stroke-linecap="round" stroke-linejoin="round"/>
<path d="M114.089 98.8298H85.4104C82.253 98.8298 79.6934 101.389 79.6934 104.547V138.637C79.6934 141.794 82.253 144.354 85.4104 144.354H114.089C117.246 144.354 119.806 141.794 119.806 138.637V104.547C119.806 101.389 117.246 98.8298 114.089 98.8298Z" fill="white" stroke="#263238" stroke-linecap="round" stroke-linejoin="round"/>
<path d="M115.344 98.8298H84.1356C82.954 98.8298 81.8207 99.2992 80.9851 100.135C80.1496 100.97 79.6802 102.104 79.6802 103.285V104.248H119.786V103.292C119.788 102.111 119.321 100.978 118.488 100.142C117.655 99.3052 116.524 98.8333 115.344 98.8298Z" fill="#263238" stroke="#263238" stroke-linecap="round" stroke-linejoin="round"/>
<path d="M85.417 112.203H114.069" stroke="#263238" stroke-linecap="round" stroke-linejoin="round"/>
<path d="M85.417 119.201H114.069" stroke="#263238" stroke-linecap="round" stroke-linejoin="round"/>
<path d="M85.417 126.206H114.069" stroke="#263238" stroke-linecap="round" stroke-linejoin="round"/>
<path d="M85.417 133.212H114.069" stroke="#263238" stroke-linecap="round" stroke-linejoin="round"/>
<path d="M109.56 101.379C109.56 101.127 109.485 100.881 109.345 100.671C109.205 100.462 109.006 100.298 108.773 100.202C108.54 100.105 108.284 100.08 108.036 100.129C107.789 100.178 107.562 100.3 107.384 100.478C107.205 100.656 107.084 100.883 107.035 101.131C106.986 101.378 107.011 101.634 107.107 101.867C107.204 102.1 107.367 102.299 107.577 102.44C107.786 102.58 108.033 102.654 108.285 102.654C108.623 102.654 108.948 102.52 109.187 102.281C109.426 102.042 109.56 101.718 109.56 101.379Z" fill="white"/>
<path d="M113.783 101.379C113.783 101.127 113.708 100.881 113.568 100.671C113.428 100.462 113.229 100.298 112.996 100.202C112.763 100.105 112.507 100.08 112.26 100.129C112.012 100.178 111.785 100.3 111.607 100.478C111.429 100.656 111.307 100.883 111.258 101.131C111.209 101.378 111.234 101.634 111.33 101.867C111.427 102.1 111.59 102.299 111.8 102.44C112.01 102.58 112.256 102.654 112.508 102.654C112.846 102.654 113.171 102.52 113.41 102.281C113.649 102.042 113.783 101.718 113.783 101.379Z" fill="white"/>
<path d="M117.973 101.38C117.973 101.127 117.898 100.88 117.757 100.671C117.617 100.461 117.417 100.297 117.184 100.201C116.951 100.105 116.694 100.08 116.447 100.13C116.199 100.179 115.972 100.301 115.794 100.48C115.616 100.659 115.495 100.887 115.447 101.135C115.398 101.383 115.424 101.639 115.522 101.872C115.619 102.105 115.784 102.304 115.994 102.443C116.205 102.582 116.452 102.656 116.704 102.654C116.871 102.654 117.037 102.621 117.191 102.557C117.346 102.493 117.486 102.399 117.604 102.281C117.721 102.162 117.815 102.022 117.878 101.867C117.941 101.712 117.973 101.547 117.973 101.38Z" fill="white"/>
<path d="M86.5989 136.107H70.218C67.0606 136.107 64.501 138.666 64.501 141.824V161.956C64.501 165.114 67.0606 167.673 70.218 167.673H86.5989C89.7563 167.673 92.3159 165.114 92.3159 161.956V141.824C92.3159 138.666 89.7563 136.107 86.5989 136.107Z" fill="white" stroke="#263238" stroke-linecap="round" stroke-linejoin="round"/>
<path d="M89.2217 136.12H67.5886C66.7697 136.12 65.9844 136.445 65.4053 137.024C64.8263 137.603 64.501 138.389 64.501 139.208V139.872H92.296V139.208C92.296 138.391 91.9726 137.608 91.3964 137.029C90.8202 136.45 90.0383 136.124 89.2217 136.12Z" fill="#263238" stroke="#263238" stroke-linecap="round" stroke-linejoin="round"/>
<path d="M68.4717 145.376H88.3386" stroke="#263238" stroke-linecap="round" stroke-linejoin="round"/>
<path d="M68.4717 150.23H88.3386" stroke="#263238" stroke-linecap="round" stroke-linejoin="round"/>
<path d="M68.4717 155.09H88.3386" stroke="#263238" stroke-linecap="round" stroke-linejoin="round"/>
<path d="M68.4717 159.944H88.3386" stroke="#263238" stroke-linecap="round" stroke-linejoin="round"/>
<path d="M84.348 138.749C84.8357 138.749 85.2311 138.354 85.2311 137.866C85.2311 137.379 84.8357 136.983 84.348 136.983C83.8602 136.983 83.4648 137.379 83.4648 137.866C83.4648 138.354 83.8602 138.749 84.348 138.749Z" fill="white"/>
<path d="M87.2562 138.749C87.7439 138.749 88.1393 138.354 88.1393 137.866C88.1393 137.379 87.7439 136.983 87.2562 136.983C86.7684 136.983 86.373 137.379 86.373 137.866C86.373 138.354 86.7684 138.749 87.2562 138.749Z" fill="white"/>
<path d="M91.0475 137.866C91.0475 137.692 90.9957 137.521 90.8987 137.376C90.8016 137.23 90.6637 137.117 90.5023 137.05C90.341 136.984 90.1634 136.966 89.9921 137C89.8208 137.034 89.6634 137.118 89.5399 137.242C89.4164 137.365 89.3323 137.523 89.2982 137.694C89.2641 137.865 89.2816 138.043 89.3485 138.204C89.4153 138.366 89.5285 138.504 89.6737 138.601C89.819 138.698 89.9897 138.749 90.1644 138.749C90.2803 138.749 90.3952 138.727 90.5023 138.682C90.6095 138.638 90.7068 138.573 90.7888 138.491C90.8708 138.409 90.9359 138.311 90.9803 138.204C91.0246 138.097 91.0475 137.982 91.0475 137.866Z" fill="white"/>
<path d="M78.2588 177.175H87.5946" stroke="#263238" stroke-linecap="round" stroke-linejoin="round"/>
<path d="M67.9336 177.175H76.5722" stroke="#263238" stroke-linecap="round" stroke-linejoin="round"/>
<path d="M83.9829 180.123H87.5951" stroke="#263238" stroke-linecap="round" stroke-linejoin="round"/>
<path d="M67.9336 180.123H82.2959" stroke="#263238" stroke-linecap="round" stroke-linejoin="round"/>
<path d="M86.1675 183.071H87.5951" stroke="#263238" stroke-linecap="round" stroke-linejoin="round"/>
<path d="M78.4248 183.071H83.8098" stroke="#263238" stroke-linecap="round" stroke-linejoin="round"/>
<path d="M67.9336 183.071H76.9109" stroke="#263238" stroke-linecap="round" stroke-linejoin="round"/>
<path d="M67.9336 186.02H87.5946" stroke="#263238" stroke-linecap="round" stroke-linejoin="round"/>
<path d="M84.3213 188.968H87.5948" stroke="#263238" stroke-linecap="round" stroke-linejoin="round"/>
<path d="M73.04 188.968H80.9483" stroke="#263238" stroke-linecap="round" stroke-linejoin="round"/>
<path d="M67.9336 188.968H70.6826" stroke="#263238" stroke-linecap="round" stroke-linejoin="round"/>
<path d="M76.9111 191.916H87.5949" stroke="#263238" stroke-linecap="round" stroke-linejoin="round"/>
<path d="M67.9336 191.916H75.0583" stroke="#263238" stroke-linecap="round" stroke-linejoin="round"/>
<path d="M82.2959 194.864H87.5946" stroke="#263238" stroke-linecap="round" stroke-linejoin="round"/>
<path d="M77.0771 194.864H80.7823" stroke="#263238" stroke-linecap="round" stroke-linejoin="round"/>
<path d="M67.9336 194.864H75.0583" stroke="#263238" stroke-linecap="round" stroke-linejoin="round"/>
<path d="M144.254 173.211H153.596" stroke="#263238" stroke-linecap="round" stroke-linejoin="round"/>
<path d="M133.936 173.211H142.574" stroke="#263238" stroke-linecap="round" stroke-linejoin="round"/>
<path d="M149.978 176.166H153.596" stroke="#263238" stroke-linecap="round" stroke-linejoin="round"/>
<path d="M133.936 176.166H148.298" stroke="#263238" stroke-linecap="round" stroke-linejoin="round"/>
<path d="M152.169 179.114H153.597" stroke="#263238" stroke-linecap="round" stroke-linejoin="round"/>
<path d="M144.427 179.114H149.812" stroke="#263238" stroke-linecap="round" stroke-linejoin="round"/>
<path d="M133.936 179.114H142.913" stroke="#263238" stroke-linecap="round" stroke-linejoin="round"/>
<path d="M133.936 182.062H153.597" stroke="#263238" stroke-linecap="round" stroke-linejoin="round"/>
<path d="M150.316 185.01H153.597" stroke="#263238" stroke-linecap="round" stroke-linejoin="round"/>
<path d="M139.035 185.01H146.95" stroke="#263238" stroke-linecap="round" stroke-linejoin="round"/>
<path d="M133.936 185.01H136.678" stroke="#263238" stroke-linecap="round" stroke-linejoin="round"/>
<path d="M142.913 187.958H153.596" stroke="#263238" stroke-linecap="round" stroke-linejoin="round"/>
<path d="M133.936 187.958H141.06" stroke="#263238" stroke-linecap="round" stroke-linejoin="round"/>
<path d="M148.298 190.907H153.597" stroke="#263238" stroke-linecap="round" stroke-linejoin="round"/>
<path d="M143.079 190.907H146.784" stroke="#263238" stroke-linecap="round" stroke-linejoin="round"/>
<path d="M133.936 190.907H141.06" stroke="#263238" stroke-linecap="round" stroke-linejoin="round"/>
<path d="M166.1 106.333H175.435" stroke="#263238" stroke-linecap="round" stroke-linejoin="round"/>
<path d="M155.774 106.333H164.413" stroke="#263238" stroke-linecap="round" stroke-linejoin="round"/>
<path d="M171.823 109.281H175.435" stroke="#263238" stroke-linecap="round" stroke-linejoin="round"/>
<path d="M155.774 109.281H170.137" stroke="#263238" stroke-linecap="round" stroke-linejoin="round"/>
<path d="M174.008 112.229H175.435" stroke="#263238" stroke-linecap="round" stroke-linejoin="round"/>
<path d="M166.266 112.229H171.651" stroke="#263238" stroke-linecap="round" stroke-linejoin="round"/>
<path d="M155.774 112.229H164.752" stroke="#263238" stroke-linecap="round" stroke-linejoin="round"/>
<path d="M155.774 115.177H175.435" stroke="#263238" stroke-linecap="round" stroke-linejoin="round"/>
<path d="M172.162 118.126H175.436" stroke="#263238" stroke-linecap="round" stroke-linejoin="round"/>
<path d="M160.88 118.126H168.789" stroke="#263238" stroke-linecap="round" stroke-linejoin="round"/>
<path d="M155.774 118.126H158.523" stroke="#263238" stroke-linecap="round" stroke-linejoin="round"/>
<path d="M164.751 121.074H175.435" stroke="#263238" stroke-linecap="round" stroke-linejoin="round"/>
<path d="M155.774 121.074H162.899" stroke="#263238" stroke-linecap="round" stroke-linejoin="round"/>
<path d="M170.137 124.022H175.435" stroke="#263238" stroke-linecap="round" stroke-linejoin="round"/>
<path d="M164.917 124.022H168.623" stroke="#263238" stroke-linecap="round" stroke-linejoin="round"/>
<path d="M155.774 124.022H162.899" stroke="#263238" stroke-linecap="round" stroke-linejoin="round"/>
<path d="M63.6709 112.993H73.0067" stroke="#263238" stroke-linecap="round" stroke-linejoin="round"/>
<path d="M53.3457 112.993H61.9843" stroke="#263238" stroke-linecap="round" stroke-linejoin="round"/>
<path d="M69.3945 115.941H73.0067" stroke="#263238" stroke-linecap="round" stroke-linejoin="round"/>
<path d="M53.3457 115.941H67.708" stroke="#263238" stroke-linecap="round" stroke-linejoin="round"/>
<path d="M71.5859 118.889H73.0069" stroke="#263238" stroke-linecap="round" stroke-linejoin="round"/>
<path d="M63.8369 118.889H69.2286" stroke="#263238" stroke-linecap="round" stroke-linejoin="round"/>
<path d="M53.3457 118.889H62.323" stroke="#263238" stroke-linecap="round" stroke-linejoin="round"/>
<path d="M53.3457 121.837H73.0067" stroke="#263238" stroke-linecap="round" stroke-linejoin="round"/>
<path d="M69.7334 124.786H73.0069" stroke="#263238" stroke-linecap="round" stroke-linejoin="round"/>
<path d="M58.4517 124.786H66.3665" stroke="#263238" stroke-linecap="round" stroke-linejoin="round"/>
<path d="M53.3457 124.786H56.0947" stroke="#263238" stroke-linecap="round" stroke-linejoin="round"/>
<path d="M62.3232 127.734H73.007" stroke="#263238" stroke-linecap="round" stroke-linejoin="round"/>
<path d="M53.3457 127.734H60.4704" stroke="#263238" stroke-linecap="round" stroke-linejoin="round"/>
<path d="M67.708 130.682H73.0067" stroke="#263238" stroke-linecap="round" stroke-linejoin="round"/>
<path d="M62.4893 130.682H66.1944" stroke="#263238" stroke-linecap="round" stroke-linejoin="round"/>
<path d="M53.3457 130.682H60.4704" stroke="#263238" stroke-linecap="round" stroke-linejoin="round"/>
<path d="M122.057 136.352V165.648H148.119V130.901H127.648L122.057 136.352Z" fill="white" stroke="#263238" stroke-linecap="round" stroke-linejoin="round"/>
<path d="M126.944 135.788V137.209L122.057 136.366L126.944 135.788Z" fill="#263238" stroke="#263238" stroke-linecap="round" stroke-linejoin="round"/>
<path d="M127.641 130.901V136.366H122.057L127.641 130.901Z" fill="white" stroke="#263238" stroke-linecap="round" stroke-linejoin="round"/>
<path d="M144.812 138.451H124.746" stroke="#263238" stroke-linecap="round" stroke-linejoin="round"/>
<path d="M144.812 143.411H124.746" stroke="#263238" stroke-linecap="round" stroke-linejoin="round"/>
<path d="M144.812 148.377H124.746" stroke="#263238" stroke-linecap="round" stroke-linejoin="round"/>
<path d="M144.812 153.344H124.746" stroke="#263238" stroke-linecap="round" stroke-linejoin="round"/>
<path d="M148.119 157.541H122.057V165.655H148.119V157.541Z" fill="#263238" stroke="#263238" stroke-linecap="round" stroke-linejoin="round"/>
<path d="M152.142 138.63H134.108V147.315H152.142V138.63Z" fill="#263238" stroke="#263238" stroke-linecap="round" stroke-linejoin="round"/>
<path d="M141.512 139.858C142.435 139.858 142.84 140.403 142.84 141.286V141.99C142.869 142.174 142.856 142.363 142.801 142.542C142.745 142.721 142.65 142.884 142.522 143.02C142.394 143.156 142.236 143.261 142.061 143.326C141.886 143.392 141.698 143.416 141.512 143.397H140.934V145.708H140.27V139.858H141.512ZM141.465 142.813C141.95 142.813 142.182 142.587 142.182 142.03V141.253C142.182 140.722 141.99 140.449 141.518 140.449H140.894V142.813H141.465Z" fill="white"/>
<path d="M144.752 139.858C145.662 139.858 146.08 140.409 146.08 141.312V144.261C146.08 145.157 145.662 145.708 144.752 145.708H143.357V139.858H144.752ZM144.752 145.111C145.217 145.111 145.416 144.818 145.416 144.287V141.279C145.416 140.741 145.19 140.449 144.719 140.449H144.015V145.097L144.752 145.111Z" fill="white"/>
<path d="M148.656 142.581V143.172H147.328V145.708H146.664V139.858H148.988V140.449H147.315V142.581H148.656Z" fill="white"/>
<path opacity="0.2" d="M460.205 163.477L455.61 163.364L455.544 165.98C454.413 166.098 453.3 166.343 452.224 166.71L450.929 164.34L446.872 166.544L448.12 168.835C447.195 169.514 446.347 170.291 445.591 171.153L443.286 169.738L440.896 173.663L443.12 174.991C442.657 176.04 442.312 177.138 442.091 178.264L439.389 178.191L439.276 182.793L441.892 182.859C442.01 183.989 442.255 185.103 442.622 186.179L440.232 187.527L442.43 191.571L444.727 190.322C445.402 191.246 446.177 192.093 447.038 192.845L445.63 195.156L449.555 197.553L450.916 195.329C451.964 195.791 453.059 196.136 454.183 196.358L454.116 199.061L458.718 199.173L458.824 196.544C459.955 196.426 461.068 196.181 462.144 195.814L463.432 198.184L467.476 195.986L466.221 193.689C467.147 193.014 467.996 192.239 468.751 191.378L471.055 192.786L473.459 188.861L471.228 187.5C471.693 186.452 472.039 185.353 472.257 184.227L474.959 184.3L475.079 179.698L472.463 179.632C472.341 178.502 472.096 177.389 471.732 176.312L474.096 175.024L471.898 170.98L469.601 172.235C468.93 171.306 468.155 170.457 467.29 169.705L468.704 167.394L464.8 164.984L463.439 167.215C462.393 166.746 461.297 166.399 460.172 166.179L460.205 163.477ZM456.885 192.341C454.695 192.286 452.571 191.584 450.78 190.322C448.99 189.06 447.614 187.295 446.826 185.251C446.038 183.207 445.875 180.976 446.355 178.838C446.836 176.701 447.94 174.755 449.527 173.245C451.114 171.735 453.113 170.729 455.271 170.356C457.429 169.982 459.65 170.257 461.652 171.145C463.655 172.033 465.349 173.495 466.52 175.346C467.691 177.198 468.287 179.354 468.233 181.544C468.158 184.48 466.921 187.266 464.793 189.291C462.665 191.315 459.821 192.412 456.885 192.341Z" stroke="black" stroke-linecap="round" stroke-linejoin="round"/>
<path opacity="0.2" d="M447.211 129.108L442.616 128.995L442.549 131.605C441.419 131.728 440.306 131.975 439.229 132.342L437.901 129.971L433.864 132.169L435.113 134.467C434.188 135.143 433.34 135.917 432.583 136.777L430.272 135.37L427.875 139.294L430.099 140.655C429.637 141.703 429.291 142.798 429.07 143.922L426.368 143.856L426.255 148.457L428.864 148.517C428.986 149.658 429.233 150.783 429.601 151.87L427.231 153.158L429.429 157.195L431.726 155.947C432.4 156.873 433.175 157.722 434.037 158.477L432.629 160.781L436.554 163.185L437.882 160.954C438.928 161.42 440.024 161.765 441.148 161.983L441.082 164.685L445.684 164.805L445.75 162.189C446.881 162.068 447.994 161.821 449.07 161.452L450.358 163.822L454.395 161.624L453.22 159.36C454.146 158.686 454.995 157.911 455.75 157.049L458.054 158.457L460.458 154.533L458.226 153.172C458.693 152.126 459.039 151.029 459.256 149.905L461.958 149.971L462.078 145.376L459.462 145.31C459.342 144.179 459.095 143.065 458.724 141.99L461.095 140.695L458.897 136.658L456.6 137.906C455.926 136.98 455.151 136.131 454.289 135.376L455.697 133.072L451.772 130.675L450.444 132.9C449.397 132.436 448.301 132.09 447.178 131.87L447.211 129.108ZM443.891 157.966C441.701 157.911 439.576 157.208 437.785 155.946C435.995 154.684 434.619 152.919 433.831 150.874C433.044 148.83 432.88 146.598 433.362 144.461C433.843 142.323 434.947 140.377 436.535 138.867C438.122 137.358 440.122 136.353 442.281 135.98C444.44 135.607 446.661 135.882 448.663 136.772C450.665 137.661 452.358 139.124 453.529 140.976C454.699 142.828 455.294 144.986 455.238 147.176C455.164 150.111 453.926 152.897 451.798 154.92C449.67 156.943 446.826 158.039 443.891 157.966Z" stroke="black" stroke-linecap="round" stroke-linejoin="round"/>
<path opacity="0.2" d="M223.396 86.32V81.672H220.78C220.632 80.5383 220.358 79.4247 219.963 78.352L222.3 77.024L219.996 73.04L217.732 74.368C217.034 73.4609 216.239 72.6326 215.362 71.8979L216.69 69.5606L212.706 67.2565L211.378 69.5208C210.309 69.0837 209.196 68.7653 208.058 68.5712V65.8356H203.456V68.4517C202.322 68.5993 201.209 68.8733 200.136 69.2684L198.808 66.9312L194.824 69.2352L196.152 71.4995C195.246 72.1992 194.418 72.9939 193.682 73.87L191.345 72.542L189.047 76.526L191.305 77.854C190.868 78.9225 190.549 80.0359 190.355 81.174H187.653V85.7755H190.269C190.417 86.9091 190.691 88.0227 191.086 89.0955L188.748 90.4235L191.053 94.4075L193.317 93.0795C194.017 93.9851 194.811 94.8132 195.687 95.5496L194.359 97.8868L198.343 100.184L199.671 97.9267C200.74 98.3638 201.853 98.6822 202.991 98.8762V101.592H207.593V98.936C208.726 98.7884 209.84 98.5144 210.913 98.1193L212.241 100.457L216.225 98.1525L214.897 95.8882C215.804 95.1902 216.632 94.3953 217.367 93.5177L219.704 94.8457L222.008 90.8617L219.744 89.5337C220.181 88.4652 220.499 87.3518 220.693 86.2137L223.396 86.32ZM194.459 83.7237C194.459 81.5332 195.108 79.3919 196.325 77.5705C197.542 75.7491 199.272 74.3296 201.296 73.4913C203.32 72.653 205.547 72.4337 207.695 72.861C209.844 73.2884 211.817 74.3432 213.366 75.8922C214.915 77.4411 215.97 79.4146 216.397 81.563C216.824 83.7114 216.605 85.9384 215.767 87.9621C214.929 89.9859 213.509 91.7157 211.688 92.9327C209.866 94.1497 207.725 94.7993 205.534 94.7993C204.078 94.7993 202.635 94.5119 201.29 93.9536C199.944 93.3954 198.722 92.5772 197.693 91.5459C196.665 90.5146 195.849 89.2906 195.294 87.9437C194.739 86.5969 194.455 85.1539 194.459 83.6972V83.7237Z" stroke="black" stroke-linecap="round" stroke-linejoin="round"/>
<path opacity="0.2" d="M257.426 72.4358V67.8342H254.817C254.669 66.7006 254.395 65.587 254 64.5142L256.33 63.1862L254.033 59.2022L251.769 60.5302C251.072 59.6199 250.275 58.7913 249.392 58.0602L250.72 55.7162L246.736 53.4188L245.408 55.6764C244.341 55.2366 243.227 54.9203 242.088 54.7335V51.9846H237.493V54.6007C236.359 54.7464 235.245 55.0204 234.173 55.4174L232.845 53.0802L228.861 55.3776L230.189 57.6418C229.29 58.3405 228.473 59.1379 227.752 60.019L225.415 58.691L223.111 62.675L225.375 64.003C224.93 65.0688 224.611 66.183 224.425 67.323H221.709V71.9245H224.326C224.475 73.0578 224.749 74.1713 225.142 75.2445L222.805 76.5725L225.103 80.5565L227.373 79.2285C228.069 80.1293 228.865 80.949 229.744 81.672L228.416 84.0093L232.4 86.3134L233.728 84.0491C234.794 84.4932 235.908 84.8119 237.048 84.9986V87.7011H241.649V85.085C242.784 84.9405 243.898 84.6665 244.969 84.2682L246.297 86.6055L250.281 84.3081L248.953 82.0438C249.862 81.3452 250.691 80.548 251.423 79.6667L253.767 80.9947L256.065 77.0107L253.807 75.6827C254.247 74.6156 254.563 73.5017 254.75 72.3627L257.426 72.4358ZM228.496 69.8395C228.496 67.649 229.145 65.5076 230.362 63.6863C231.579 61.8649 233.309 60.4454 235.333 59.6071C237.356 58.7688 239.583 58.5495 241.732 58.9768C243.88 59.4042 245.854 60.459 247.403 62.0079C248.952 63.5569 250.006 65.5304 250.434 67.6788C250.861 69.8272 250.642 72.0541 249.804 74.0779C248.965 76.1017 247.546 77.8315 245.724 79.0485C243.903 80.2655 241.762 80.915 239.571 80.915C238.116 80.9159 236.676 80.63 235.332 80.0737C233.987 79.5175 232.766 78.7017 231.738 77.673C230.709 76.6444 229.893 75.4231 229.337 74.079C228.781 72.7348 228.495 71.2942 228.496 69.8395Z" stroke="black" stroke-linecap="round" stroke-linejoin="round"/>
<g opacity="0.2">
<path d="M120.33 219.658C126.821 219.658 132.083 214.396 132.083 207.905C132.083 201.414 126.821 196.152 120.33 196.152C113.839 196.152 108.577 201.414 108.577 207.905C108.577 214.396 113.839 219.658 120.33 219.658Z" stroke="black" stroke-linecap="round" stroke-linejoin="round"/>
<path d="M129.151 209.556C130.067 204.683 126.86 199.99 121.987 199.074C117.115 198.158 112.422 201.365 111.506 206.237C110.589 211.11 113.797 215.803 118.669 216.719C123.542 217.635 128.235 214.428 129.151 209.556Z" stroke="black" stroke-linecap="round" stroke-linejoin="round"/>
<path d="M137.541 215.966L131.2 212.526L130.144 214.472L136.492 217.905C136.352 218.163 136.321 218.466 136.404 218.747C136.488 219.028 136.679 219.265 136.937 219.406L149.028 225.953C149.286 226.092 149.589 226.123 149.87 226.04C150.152 225.957 150.388 225.765 150.529 225.508L151.585 223.562C151.722 223.303 151.751 223 151.667 222.719C151.582 222.438 151.391 222.202 151.133 222.062L139.042 215.514C138.782 215.377 138.48 215.348 138.199 215.432C137.918 215.517 137.682 215.709 137.541 215.966Z" stroke="black" stroke-miterlimit="10"/>
</g>
<path opacity="0.2" d="M318.056 73.04C318.057 75.5802 317.305 78.0636 315.895 80.1763C314.485 82.289 312.48 83.936 310.133 84.909C307.787 85.882 305.205 86.1372 302.713 85.6425C300.222 85.1477 297.933 83.9252 296.136 82.1295C294.34 80.3338 293.116 78.0456 292.62 75.5544C292.124 73.0632 292.378 70.4808 293.349 68.1339C294.321 65.787 295.967 63.781 298.079 62.3696C300.191 60.9582 302.674 60.2049 305.214 60.2049" stroke="black" stroke-linecap="round" stroke-linejoin="round"/>
<path opacity="0.2" d="M318.056 73.04H305.214V60.2049C308.619 60.2049 311.884 61.557 314.292 63.9638C316.7 66.3707 318.054 69.6353 318.056 73.04Z" stroke="black" stroke-linecap="round" stroke-linejoin="round"/>
<path opacity="0.2" d="M316.728 64.1889L323.368 58.8769H332.664" stroke="black" stroke-linecap="round" stroke-linejoin="round"/>
<path opacity="0.2" d="M337.976 58.8769H350.366" stroke="black" stroke-linecap="round" stroke-linejoin="round"/>
<path opacity="0.2" d="M337.976 62.8609H350.366" stroke="black" stroke-linecap="round" stroke-linejoin="round"/>
<path opacity="0.2" d="M337.976 66.8448H350.366" stroke="black" stroke-linecap="round" stroke-linejoin="round"/>
<path opacity="0.2" d="M337.976 70.8289H350.366" stroke="black" stroke-linecap="round" stroke-linejoin="round"/>
<g opacity="0.2">
<path d="M175.442 209.897L174.964 207.56H166.558L167.036 209.897L167.467 211.982L170.323 225.926H192.766L189.486 209.897H175.442Z" stroke="black" stroke-linecap="round" stroke-linejoin="round"/>
<path d="M192.766 225.926L196.903 210.979H189.831" stroke="black" stroke-linecap="round" stroke-linejoin="round"/>
</g>
<g opacity="0.2">
<path d="M206.956 209.897L206.471 207.56H198.071L198.549 209.897L198.981 211.982L201.836 225.926H224.279L220.993 209.897H206.956Z" stroke="black" stroke-linecap="round" stroke-linejoin="round"/>
<path d="M224.28 225.926L228.416 210.979H221.345" stroke="black" stroke-linecap="round" stroke-linejoin="round"/>
</g>
<path d="M254.618 172.593C254.777 172.592 254.935 172.621 255.083 172.681C255.23 172.741 255.365 172.829 255.478 172.94C255.592 173.052 255.682 173.185 255.744 173.332C255.806 173.479 255.838 173.636 255.839 173.795V181.391C255.817 181.701 255.678 181.99 255.45 182.201C255.223 182.412 254.924 182.53 254.614 182.53C254.304 182.53 254.005 182.412 253.778 182.201C253.551 181.99 253.412 181.701 253.389 181.391V173.795C253.391 173.636 253.424 173.478 253.487 173.331C253.549 173.185 253.64 173.052 253.754 172.94C253.869 172.828 254.003 172.74 254.152 172.681C254.3 172.621 254.458 172.592 254.618 172.593Z" fill="#263238"/>
<path d="M251.656 172.593C251.815 172.592 251.974 172.621 252.122 172.681C252.27 172.74 252.405 172.828 252.519 172.94C252.633 173.052 252.724 173.185 252.787 173.331C252.849 173.478 252.883 173.636 252.884 173.795V181.391C252.861 181.701 252.722 181.99 252.495 182.201C252.268 182.412 251.969 182.53 251.659 182.53C251.349 182.53 251.05 182.412 250.823 182.201C250.596 181.99 250.457 181.701 250.434 181.391V173.795C250.438 173.474 250.568 173.168 250.797 172.942C251.026 172.717 251.335 172.592 251.656 172.593Z" fill="#263238"/>
<path d="M248.741 172.593C248.901 172.592 249.059 172.621 249.206 172.681C249.354 172.741 249.489 172.829 249.602 172.94C249.716 173.052 249.806 173.185 249.868 173.332C249.93 173.479 249.962 173.636 249.963 173.795V181.391C249.962 181.551 249.93 181.708 249.868 181.855C249.806 182.002 249.716 182.135 249.602 182.246C249.489 182.358 249.354 182.446 249.206 182.506C249.059 182.565 248.901 182.595 248.741 182.593C248.582 182.595 248.424 182.565 248.276 182.506C248.129 182.446 247.994 182.358 247.881 182.246C247.767 182.135 247.677 182.002 247.615 181.855C247.553 181.708 247.52 181.551 247.52 181.391V173.795C247.52 173.636 247.553 173.479 247.615 173.332C247.677 173.185 247.767 173.052 247.881 172.94C247.994 172.829 248.129 172.741 248.276 172.681C248.424 172.621 248.582 172.592 248.741 172.593Z" fill="#263238"/>
<path d="M245.799 172.593C245.959 172.592 246.117 172.621 246.265 172.681C246.414 172.74 246.548 172.828 246.663 172.94C246.777 173.052 246.868 173.185 246.93 173.331C246.993 173.478 247.026 173.636 247.028 173.795V181.391C247.005 181.701 246.866 181.99 246.639 182.201C246.412 182.412 246.113 182.53 245.803 182.53C245.493 182.53 245.194 182.412 244.967 182.201C244.739 181.99 244.6 181.701 244.578 181.391V173.795C244.581 173.474 244.712 173.168 244.941 172.942C245.169 172.717 245.478 172.592 245.799 172.593Z" fill="#263238"/>
<path d="M242.865 172.593C243.024 172.592 243.182 172.621 243.33 172.681C243.478 172.741 243.612 172.829 243.726 172.94C243.839 173.052 243.929 173.185 243.991 173.332C244.053 173.479 244.086 173.636 244.087 173.795V181.391C244.087 181.715 243.958 182.026 243.729 182.255C243.5 182.485 243.189 182.613 242.865 182.613C242.541 182.613 242.23 182.485 242.001 182.255C241.772 182.026 241.643 181.715 241.643 181.391V173.795C241.644 173.636 241.676 173.479 241.738 173.332C241.8 173.185 241.891 173.052 242.004 172.94C242.118 172.829 242.252 172.741 242.4 172.681C242.548 172.621 242.706 172.592 242.865 172.593Z" fill="#263238"/>
<path d="M239.923 172.593C240.083 172.592 240.241 172.621 240.389 172.681C240.537 172.74 240.672 172.828 240.786 172.94C240.9 173.052 240.991 173.185 241.054 173.331C241.116 173.478 241.15 173.636 241.151 173.795V181.391C241.15 181.551 241.116 181.709 241.054 181.855C240.991 182.002 240.9 182.135 240.786 182.247C240.672 182.358 240.537 182.446 240.389 182.506C240.241 182.565 240.083 182.595 239.923 182.593C239.602 182.595 239.293 182.47 239.064 182.244C238.835 182.019 238.705 181.713 238.701 181.391V173.795C238.705 173.474 238.835 173.168 239.064 172.942C239.293 172.717 239.602 172.592 239.923 172.593Z" fill="#263238"/>
<path d="M236.988 172.593C237.148 172.592 237.306 172.621 237.453 172.681C237.601 172.741 237.736 172.829 237.849 172.94C237.963 173.052 238.053 173.185 238.115 173.332C238.177 173.479 238.209 173.636 238.21 173.795V181.391C238.21 181.715 238.081 182.026 237.852 182.255C237.623 182.485 237.312 182.613 236.988 182.613C236.664 182.613 236.354 182.485 236.124 182.255C235.895 182.026 235.767 181.715 235.767 181.391V173.795C235.767 173.636 235.8 173.479 235.862 173.332C235.924 173.185 236.014 173.052 236.128 172.94C236.241 172.829 236.376 172.741 236.523 172.681C236.671 172.621 236.829 172.592 236.988 172.593Z" fill="#263238"/>
<path d="M234.054 172.593C234.375 172.592 234.683 172.717 234.912 172.942C235.141 173.168 235.272 173.474 235.275 173.795V181.391C235.253 181.701 235.114 181.99 234.886 182.201C234.659 182.412 234.36 182.53 234.05 182.53C233.74 182.53 233.441 182.412 233.214 182.201C232.987 181.99 232.848 181.701 232.825 181.391V173.795C232.827 173.636 232.86 173.478 232.923 173.331C232.985 173.185 233.076 173.052 233.19 172.94C233.305 172.828 233.439 172.74 233.588 172.681C233.736 172.621 233.894 172.592 234.054 172.593Z" fill="#263238"/>
<path d="M231.112 172.593C231.271 172.592 231.429 172.621 231.577 172.681C231.725 172.741 231.859 172.829 231.973 172.94C232.086 173.052 232.177 173.185 232.238 173.332C232.3 173.479 232.333 173.636 232.334 173.795V181.391C232.334 181.715 232.205 182.026 231.976 182.255C231.747 182.485 231.436 182.613 231.112 182.613C230.788 182.613 230.477 182.485 230.248 182.255C230.019 182.026 229.89 181.715 229.89 181.391V173.795C229.891 173.636 229.923 173.479 229.985 173.332C230.047 173.185 230.138 173.052 230.251 172.94C230.365 172.829 230.499 172.741 230.647 172.681C230.795 172.621 230.953 172.592 231.112 172.593Z" fill="#263238"/>
<path d="M228.177 172.593C228.498 172.592 228.807 172.717 229.036 172.942C229.265 173.168 229.395 173.474 229.399 173.795V181.391C229.376 181.701 229.237 181.99 229.01 182.201C228.783 182.412 228.484 182.53 228.174 182.53C227.864 182.53 227.565 182.412 227.338 182.201C227.11 181.99 226.972 181.701 226.949 181.391V173.795C226.95 173.636 226.984 173.478 227.046 173.331C227.109 173.185 227.2 173.052 227.314 172.94C227.428 172.828 227.563 172.74 227.711 172.681C227.859 172.621 228.018 172.592 228.177 172.593Z" fill="#263238"/>
<path d="M225.235 172.593C225.395 172.592 225.553 172.621 225.7 172.681C225.848 172.741 225.983 172.829 226.096 172.94C226.21 173.052 226.3 173.185 226.362 173.332C226.424 173.479 226.456 173.636 226.457 173.795V181.391C226.457 181.715 226.328 182.026 226.099 182.255C225.87 182.485 225.559 182.613 225.235 182.613C224.911 182.613 224.601 182.485 224.372 182.255C224.142 182.026 224.014 181.715 224.014 181.391V173.795C224.015 173.636 224.047 173.479 224.109 173.332C224.171 173.185 224.261 173.052 224.375 172.94C224.488 172.829 224.623 172.741 224.77 172.681C224.918 172.621 225.076 172.592 225.235 172.593Z" fill="#263238"/>
<path d="M223.137 172.594C223.106 172.709 223.106 172.83 223.137 172.945C223.25 173.056 223.34 173.189 223.402 173.335C223.463 173.48 223.495 173.637 223.496 173.795V181.392C223.495 181.55 223.463 181.706 223.402 181.852C223.34 181.998 223.25 182.13 223.137 182.241C222.607 182.493 222.024 182.613 221.438 182.593C220.057 182.593 219.18 182.056 219.479 181.392L222.613 173.795C222.817 173.408 222.993 173.007 223.137 172.594Z" fill="#263238"/>
<path d="M223.137 172.594C222.902 172.979 222.696 173.38 222.52 173.795L218.649 181.392C218.336 182.056 216.969 182.593 215.587 182.593C214.206 182.593 213.642 182.056 214.339 181.392L221.935 173.795L222.805 172.945C223.024 172.726 223.137 172.594 223.137 172.594Z" fill="#263238"/>
<path d="M223.137 172.594C223.013 172.694 222.895 172.803 222.785 172.919L221.935 173.795L214.339 181.392C213.675 182.056 213.137 181.504 213.137 180.064C213.137 178.623 213.675 177.261 214.339 176.963L221.935 173.165C222.35 173.005 222.752 172.814 223.137 172.594Z" fill="#263238"/>
<path d="M223.137 172.593C222.726 172.724 222.324 172.884 221.935 173.072L214.339 176.106C213.675 176.398 213.137 175.495 213.137 174.081C213.136 173.753 213.167 173.426 213.23 173.105C213.259 172.961 213.297 172.819 213.343 172.68C213.354 172.629 213.377 172.581 213.409 172.54L213.489 172.454C213.599 172.339 213.731 172.248 213.877 172.185C214.023 172.122 214.18 172.089 214.339 172.089H221.935C222.094 172.089 222.251 172.122 222.397 172.185C222.543 172.248 222.675 172.339 222.785 172.454L222.858 172.54C222.858 172.58 222.905 172.607 222.931 172.6H223.137V172.593Z" fill="#263238"/>
<path d="M223.137 170.336C223.141 170.497 223.112 170.657 223.054 170.807C222.995 170.957 222.907 171.094 222.796 171.21C222.684 171.326 222.55 171.419 222.403 171.483C222.255 171.547 222.096 171.582 221.935 171.584H214.339C214.023 171.561 213.727 171.419 213.511 171.187C213.295 170.955 213.175 170.65 213.175 170.333C213.175 170.016 213.295 169.71 213.511 169.478C213.727 169.246 214.023 169.104 214.339 169.081H221.935C222.097 169.084 222.256 169.12 222.403 169.185C222.551 169.249 222.684 169.343 222.796 169.459C222.908 169.576 222.995 169.713 223.054 169.864C223.112 170.014 223.141 170.175 223.137 170.336Z" fill="#263238"/>
<path d="M223.137 167.328C223.141 167.489 223.112 167.65 223.054 167.8C222.995 167.951 222.908 168.088 222.796 168.204C222.684 168.321 222.551 168.414 222.403 168.479C222.256 168.544 222.097 168.579 221.935 168.583H214.339C214.023 168.56 213.727 168.418 213.511 168.186C213.295 167.954 213.175 167.648 213.175 167.331C213.175 167.014 213.295 166.709 213.511 166.477C213.727 166.245 214.023 166.103 214.339 166.08H221.935C222.096 166.082 222.255 166.117 222.403 166.181C222.55 166.245 222.684 166.338 222.796 166.454C222.907 166.57 222.995 166.707 223.054 166.857C223.112 167.007 223.141 167.167 223.137 167.328Z" fill="#263238"/>
<path d="M223.137 164.327C223.141 164.488 223.112 164.648 223.054 164.799C222.995 164.949 222.908 165.087 222.796 165.203C222.684 165.32 222.551 165.413 222.403 165.478C222.256 165.543 222.097 165.578 221.935 165.582H214.339C214.023 165.559 213.727 165.417 213.511 165.185C213.295 164.952 213.175 164.647 213.175 164.33C213.175 164.013 213.295 163.708 213.511 163.475C213.727 163.243 214.023 163.101 214.339 163.078H221.935C222.096 163.081 222.255 163.115 222.403 163.18C222.55 163.244 222.684 163.337 222.796 163.453C222.907 163.569 222.995 163.706 223.054 163.856C223.112 164.006 223.141 164.166 223.137 164.327Z" fill="#263238"/>
<path d="M223.137 161.352C223.141 161.513 223.112 161.673 223.054 161.823C222.995 161.973 222.907 162.11 222.796 162.226C222.684 162.342 222.55 162.435 222.403 162.499C222.255 162.563 222.096 162.598 221.935 162.6H214.339C214.023 162.577 213.727 162.435 213.511 162.203C213.295 161.971 213.175 161.666 213.175 161.349C213.175 161.032 213.295 160.726 213.511 160.494C213.727 160.262 214.023 160.12 214.339 160.097H221.935C222.097 160.1 222.256 160.136 222.403 160.201C222.551 160.266 222.684 160.359 222.796 160.476C222.908 160.592 222.995 160.729 223.054 160.88C223.112 161.03 223.141 161.191 223.137 161.352Z" fill="#263238"/>
<path d="M223.137 158.317C223.141 158.479 223.112 158.639 223.054 158.79C222.995 158.94 222.908 159.077 222.796 159.194C222.684 159.31 222.551 159.404 222.403 159.469C222.256 159.534 222.097 159.569 221.935 159.572H214.339C214.023 159.549 213.727 159.408 213.511 159.175C213.295 158.943 213.175 158.638 213.175 158.321C213.175 158.004 213.295 157.698 213.511 157.466C213.727 157.234 214.023 157.092 214.339 157.069H221.935C222.096 157.072 222.255 157.106 222.403 157.17C222.55 157.235 222.684 157.327 222.796 157.443C222.907 157.559 222.995 157.696 223.054 157.846C223.112 157.996 223.141 158.156 223.137 158.317Z" fill="#263238"/>
<path d="M223.137 155.316C223.141 155.477 223.112 155.637 223.054 155.787C222.995 155.937 222.907 156.074 222.796 156.19C222.684 156.306 222.55 156.399 222.403 156.463C222.255 156.528 222.096 156.562 221.935 156.565H214.339C214.023 156.542 213.727 156.4 213.511 156.167C213.295 155.935 213.175 155.63 213.175 155.313C213.175 154.996 213.295 154.691 213.511 154.458C213.727 154.226 214.023 154.084 214.339 154.061H221.935C222.097 154.065 222.256 154.1 222.403 154.165C222.551 154.23 222.684 154.323 222.796 154.44C222.908 154.556 222.995 154.694 223.054 154.844C223.112 154.994 223.141 155.155 223.137 155.316Z" fill="#263238"/>
<path d="M223.137 151.571C223.136 151.899 223.103 152.226 223.038 152.547C223.011 152.691 222.975 152.833 222.931 152.972C222.919 153.022 222.894 153.068 222.858 153.105C222.838 153.139 222.813 153.17 222.785 153.198C222.675 153.313 222.544 153.405 222.398 153.467C222.252 153.53 222.094 153.563 221.935 153.563H214.339C214.18 153.563 214.023 153.53 213.877 153.467C213.731 153.405 213.599 153.313 213.489 153.198L213.41 153.105C213.41 153.072 213.363 153.045 213.343 153.052H213.144C213.558 152.929 213.96 152.769 214.346 152.574L221.942 149.546C222.599 149.247 223.137 150.157 223.137 151.571Z" fill="#263238"/>
<path d="M223.137 145.562C223.137 146.976 222.599 148.364 221.935 148.663L214.339 152.454C213.927 152.629 213.525 152.828 213.137 153.052C213.137 153.052 213.27 152.946 213.489 152.727L214.339 151.857L221.935 144.261C222.599 143.563 223.137 144.148 223.137 145.562Z" fill="#263238"/>
<path d="M220.767 143.059C222.095 143.059 222.626 143.597 221.935 144.261L214.339 151.857L213.463 152.72C213.348 152.829 213.239 152.944 213.137 153.065C213.374 152.682 213.585 152.282 213.768 151.87L217.752 144.274C218.091 143.597 219.439 143.059 220.767 143.059Z" fill="#263238"/>
<path d="M215.096 143.059C216.424 143.059 217.254 143.597 216.942 144.261L213.622 151.857C213.424 152.243 213.251 152.643 213.104 153.052C213.114 152.937 213.114 152.822 213.104 152.707V152.527C213.06 152.463 213.022 152.394 212.991 152.322C212.929 152.175 212.898 152.016 212.898 151.857V144.261C212.898 144.099 212.93 143.939 212.991 143.789C213.021 143.719 213.059 143.652 213.104 143.59C213.19 143.52 213.284 143.46 213.383 143.411C213.918 143.159 214.505 143.039 215.096 143.059Z" fill="#263238"/>
<path d="M211.278 143.059C211.594 143.062 211.896 143.191 212.117 143.416C212.338 143.641 212.462 143.945 212.46 144.261V151.857C212.46 152.17 212.336 152.471 212.114 152.693C211.892 152.914 211.592 153.039 211.278 153.039C210.965 153.039 210.664 152.914 210.442 152.693C210.221 152.471 210.096 152.17 210.096 151.857V144.261C210.094 143.945 210.218 143.641 210.439 143.416C210.661 143.191 210.962 143.062 211.278 143.059Z" fill="#263238"/>
<path d="M208.443 143.059C208.759 143.062 209.06 143.191 209.282 143.416C209.503 143.641 209.626 143.945 209.625 144.261V151.857C209.625 152.17 209.5 152.471 209.278 152.693C209.057 152.914 208.756 153.039 208.443 153.039C208.129 153.039 207.829 152.914 207.607 152.693C207.385 152.471 207.261 152.17 207.261 151.857V144.261C207.259 144.104 207.288 143.949 207.347 143.803C207.405 143.658 207.492 143.526 207.602 143.414C207.712 143.302 207.843 143.213 207.987 143.152C208.131 143.091 208.286 143.06 208.443 143.059Z" fill="#263238"/>
<path d="M205.608 143.059C205.923 143.062 206.225 143.191 206.446 143.416C206.668 143.641 206.791 143.945 206.789 144.261V151.857C206.79 152.013 206.76 152.168 206.702 152.312C206.643 152.457 206.556 152.588 206.446 152.699C206.336 152.81 206.206 152.898 206.062 152.959C205.918 153.02 205.764 153.051 205.608 153.052C205.451 153.052 205.296 153.021 205.151 152.961C205.007 152.901 204.875 152.813 204.765 152.702C204.654 152.59 204.567 152.459 204.508 152.314C204.448 152.169 204.418 152.013 204.419 151.857V144.261C204.418 144.104 204.448 143.948 204.507 143.803C204.567 143.657 204.654 143.525 204.764 143.414C204.875 143.302 205.006 143.213 205.151 143.152C205.295 143.091 205.451 143.06 205.608 143.059Z" fill="#263238"/>
<path d="M203.596 157.68V138.603C205.563 138.603 207.449 139.385 208.84 140.776C210.231 142.167 211.013 144.053 211.013 146.02V150.263C211.013 151.237 210.821 152.202 210.448 153.101C210.075 154.001 209.529 154.819 208.84 155.508C208.152 156.196 207.334 156.743 206.434 157.115C205.534 157.488 204.57 157.68 203.596 157.68Z" fill="white" stroke="#263238" stroke-linecap="round" stroke-linejoin="round"/>
<path d="M184.519 176.079L204.359 166.285C205.296 165.823 206.085 165.108 206.636 164.221C207.188 163.334 207.48 162.31 207.48 161.266V135.37C207.48 134.325 207.188 133.301 206.636 132.414C206.085 131.527 205.296 130.812 204.359 130.35L184.519 120.556V176.079Z" fill="white" stroke="#263238" stroke-linecap="round" stroke-linejoin="round"/>
<path d="M221.617 186.976H236.278" stroke="#263238" stroke-linecap="round" stroke-linejoin="round"/>
<path d="M218.688 189.545H224.552" stroke="#263238" stroke-linecap="round" stroke-linejoin="round"/>
<path d="M227.845 149.021V163.317" stroke="#263238" stroke-linecap="round" stroke-linejoin="round"/>
<path d="M225.282 154.154V145.363" stroke="#263238" stroke-linecap="round" stroke-linejoin="round"/>
<path d="M208.423 172.109V179.439" stroke="#263238" stroke-linecap="round" stroke-linejoin="round"/>
<path d="M210.993 169.546V176.146" stroke="#263238" stroke-linecap="round" stroke-linejoin="round"/>
<path d="M337.073 120.523H340.885" stroke="#263238" stroke-width="9" stroke-linecap="round" stroke-linejoin="round"/>
<path d="M307.824 166.305H323.082V120.523H337.073" stroke="#263238" stroke-width="4" stroke-linecap="round" stroke-linejoin="round"/>
<path d="M337.073 212.938H341.734" stroke="#263238" stroke-width="9" stroke-linecap="round" stroke-linejoin="round"/>
<path d="M304.856 180.296H322.658V212.938H337.073" stroke="#263238" stroke-width="4" stroke-linecap="round" stroke-linejoin="round"/>
<path d="M249.903 122.966H246.098V157.434" stroke="#263238" stroke-width="4" stroke-linecap="round" stroke-linejoin="round"/>
<path d="M252.865 122.966H249.903" stroke="#263238" stroke-width="7" stroke-linecap="round" stroke-linejoin="round"/>
<path d="M286.881 135.901H269.491V154.533H286.881V135.901Z" fill="#263238" stroke="#263238" stroke-linecap="round" stroke-linejoin="round"/>
<path d="M302.91 110.131H285.832V126.904H302.91V110.131Z" fill="#263238" stroke="#263238" stroke-linecap="round" stroke-linejoin="round"/>
<path d="M296.084 126.897H303.647C301.847 131.672 298.722 135.835 294.639 138.897C290.556 141.958 285.685 143.792 280.596 144.183C275.508 144.574 270.414 143.506 265.911 141.104C261.408 138.702 257.684 135.066 255.175 130.622C252.81 126.462 251.612 121.741 251.709 116.957C251.709 116.539 251.709 116.114 251.742 115.695C252.16 109.264 254.877 103.198 259.396 98.6032C263.916 94.0086 269.936 91.1922 276.36 90.668C282.783 90.1437 289.181 91.9467 294.385 95.7477C299.59 99.5487 303.254 105.094 304.71 111.373H296.078C295.058 111.373 294.049 111.573 293.107 111.964C292.165 112.354 291.31 112.925 290.589 113.646C289.868 114.367 289.296 115.223 288.906 116.164C288.516 117.106 288.315 118.116 288.315 119.135C288.315 120.154 288.516 121.164 288.906 122.105C289.296 123.047 289.868 123.903 290.589 124.624C291.31 125.344 292.165 125.916 293.107 126.306C294.049 126.696 295.058 126.897 296.078 126.897H296.084Z" fill="white" stroke="#263238" stroke-linecap="round" stroke-linejoin="round"/>
<path d="M280.553 118.511H288.322" stroke="#263238" stroke-linecap="round" stroke-linejoin="round"/>
<path d="M274.345 91.8046V143.046" stroke="#263238" stroke-linecap="round" stroke-linejoin="round"/>
<path d="M273.721 125.343C277.494 125.343 280.553 122.284 280.553 118.511C280.553 114.737 277.494 111.678 273.721 111.678C269.947 111.678 266.888 114.737 266.888 118.511C266.888 122.284 269.947 125.343 273.721 125.343Z" fill="#263238" stroke="#263238" stroke-linecap="round" stroke-linejoin="round"/>
<path d="M277.14 118.511C277.14 117.834 276.94 117.173 276.564 116.61C276.188 116.048 275.653 115.609 275.028 115.351C274.403 115.092 273.715 115.025 273.051 115.157C272.388 115.29 271.778 115.616 271.301 116.095C270.823 116.574 270.497 117.184 270.366 117.848C270.235 118.511 270.304 119.199 270.563 119.824C270.823 120.449 271.263 120.982 271.826 121.357C272.389 121.732 273.051 121.932 273.728 121.93C274.176 121.93 274.621 121.842 275.035 121.67C275.45 121.498 275.826 121.246 276.143 120.928C276.46 120.611 276.711 120.234 276.883 119.819C277.054 119.404 277.141 118.959 277.14 118.511Z" fill="white" stroke="#263238" stroke-linecap="round" stroke-linejoin="round"/>
<path d="M296.702 121.924C298.587 121.924 300.115 120.396 300.115 118.511C300.115 116.626 298.587 115.098 296.702 115.098C294.817 115.098 293.289 116.626 293.289 118.511C293.289 120.396 294.817 121.924 296.702 121.924Z" fill="#42C2C9"/>
<path d="M260.368 116.957V130.622H255.155C252.79 126.462 251.592 121.741 251.689 116.957H260.368Z" fill="#263238" stroke="#263238" stroke-linecap="round" stroke-linejoin="round"/>
<path d="M278.189 208.164V248.502" stroke="#263238" stroke-width="3" stroke-linecap="round" stroke-linejoin="round"/>
<path d="M278.19 236.059C283.918 236.059 288.561 231.415 288.561 225.687C288.561 219.959 283.918 215.315 278.19 215.315C272.461 215.315 267.818 219.959 267.818 225.687C267.818 231.415 272.461 236.059 278.19 236.059Z" fill="white" stroke="#263238" stroke-linecap="round" stroke-linejoin="round"/>
<path d="M278.189 251.41C280.94 251.41 283.169 249.181 283.169 246.43C283.169 243.68 280.94 241.45 278.189 241.45C275.439 241.45 273.209 243.68 273.209 246.43C273.209 249.181 275.439 251.41 278.189 251.41Z" fill="white" stroke="#263238" stroke-linecap="round" stroke-linejoin="round"/>
<path d="M315.34 161.538L303.886 195.674C300.693 205.183 291.012 211.677 280.036 211.677H276.337C265.361 211.677 255.68 205.183 252.493 195.674L241.032 161.538C239.293 156.352 243.582 151.12 249.565 151.12H306.808C312.797 151.12 317.08 156.352 315.34 161.538Z" fill="white" stroke="#263238" stroke-linecap="round" stroke-linejoin="round"/>
<path d="M310.553 164.738C309.166 164.36 307.687 164.525 306.416 165.198C305.146 165.872 304.18 167.004 303.714 168.364L294.458 195.402C294.007 196.719 294.058 198.157 294.603 199.439C295.147 200.721 296.145 201.756 297.406 202.347L299.398 203.297C301.389 201.086 302.91 198.492 303.866 195.674L313.933 165.668L310.553 164.738Z" fill="white" stroke="#263238" stroke-linecap="round" stroke-linejoin="round"/>
<path d="M252.38 168.364C251.914 167.004 250.948 165.872 249.677 165.198C248.407 164.525 246.928 164.36 245.54 164.738L242.393 165.595L252.493 195.674C253.431 198.454 254.922 201.015 256.875 203.204L258.688 202.347C259.944 201.752 260.937 200.714 261.477 199.433C262.017 198.152 262.066 196.717 261.616 195.402L252.38 168.364Z" fill="white" stroke="#263238" stroke-linecap="round" stroke-linejoin="round"/>
<path d="M296.144 151.12C296.008 152.381 295.411 153.547 294.467 154.394C293.523 155.241 292.299 155.709 291.031 155.708H264.471C263.203 155.709 261.979 155.241 261.036 154.394C260.092 153.547 259.494 152.381 259.358 151.12H296.144Z" fill="white" stroke="#263238" stroke-linecap="round" stroke-linejoin="round"/>
<path d="M278.216 211.484V155.708" stroke="#263238" stroke-linecap="round" stroke-linejoin="round"/>
<path d="M293.302 162.348H263.077C261.221 162.348 259.717 163.852 259.717 165.708V179.479C259.717 181.335 261.221 182.839 263.077 182.839H293.302C295.157 182.839 296.662 181.335 296.662 179.479V165.708C296.662 163.852 295.157 162.348 293.302 162.348Z" fill="#42C2C9" stroke="#263238" stroke-linecap="round" stroke-linejoin="round"/>
<path d="M273.442 164.951C274.365 164.951 274.77 165.509 274.77 166.425V169.413C274.77 170.323 274.351 170.88 273.442 170.88H272.047V164.951H273.442ZM273.442 170.263C273.92 170.263 274.146 169.964 274.146 169.42V166.372C274.146 165.827 273.92 165.535 273.435 165.535H272.725V170.263H273.442Z" fill="#263238"/>
<path d="M276.065 169.685L275.832 170.88H275.228L276.363 164.951H277.32L278.455 170.88H277.791L277.565 169.685H276.065ZM276.151 169.121H277.479L276.815 165.695L276.151 169.121Z" fill="#263238"/>
<path d="M279.504 170.88V165.568H278.409V164.964H281.251V165.568H280.155V170.88H279.504Z" fill="#263238"/>
<path d="M282.047 169.685L281.815 170.88H281.204L282.34 164.951H283.302L284.438 170.88H283.774L283.548 169.685H282.047ZM282.134 169.121H283.462L282.798 165.695L282.134 169.121Z" fill="#263238"/>
<path d="M265.082 175.734V176.325H263.608V178.437H265.387V179.034H262.944V173.105H265.387V173.709H263.608V175.734H265.082Z" fill="#263238"/>
<path d="M267.492 176.478L266.503 179.034H265.879L267.074 175.98L265.952 173.105H266.616L267.526 175.475L268.449 173.105H269.073L267.984 175.96L269.172 179.014H268.475L267.492 176.478Z" fill="#263238"/>
<path d="M270.56 179.034V173.722H269.471V173.118H272.306V173.722H271.218V179.034H270.56Z" fill="#263238"/>
<path d="M274.079 173.105C275.009 173.105 275.407 173.583 275.407 174.433V174.918C275.447 175.175 275.394 175.438 275.26 175.662C275.125 175.885 274.917 176.054 274.67 176.139C275.215 176.299 275.414 176.737 275.414 177.374V178.297C275.393 178.54 275.434 178.785 275.534 179.008H274.87C274.779 178.78 274.743 178.535 274.763 178.291V177.354C274.763 176.69 274.445 176.478 273.893 176.478H273.429V179.008H272.765V173.105H274.079ZM273.907 175.9C274.431 175.9 274.75 175.734 274.75 175.09V174.519C274.75 173.988 274.551 173.709 274.086 173.709H273.422V175.9H273.907Z" fill="#263238"/>
<path d="M276.762 177.839L276.536 179.034H275.925L277.061 173.105H278.017L279.152 179.034H278.488L278.256 177.839H276.762ZM276.848 177.275H278.176L277.512 173.848L276.848 177.275Z" fill="#263238"/>
<path d="M282.28 174.539V175.07H281.649V174.506C281.649 173.968 281.443 173.649 280.985 173.649C280.527 173.649 280.288 173.968 280.288 174.506V177.64C280.288 178.171 280.507 178.496 280.985 178.496C281.463 178.496 281.649 178.171 281.649 177.64V176.87H282.28V177.607C282.28 178.503 281.855 179.094 280.952 179.094C280.048 179.094 279.624 178.503 279.624 177.607V174.539C279.624 173.636 280.048 173.045 280.952 173.045C281.855 173.045 282.28 173.636 282.28 174.539Z" fill="#263238"/>
<path d="M283.734 179.034V173.722H282.645V173.118H285.48V173.722H284.391V179.034H283.734Z" fill="#263238"/>
<path d="M286.589 173.105V179.034H285.925V173.105H286.589Z" fill="#263238"/>
<path d="M287.22 174.539C287.22 173.629 287.665 173.045 288.548 173.045C289.431 173.045 289.876 173.629 289.876 174.539V177.607C289.876 178.503 289.431 179.094 288.548 179.094C287.665 179.094 287.22 178.503 287.22 177.607V174.539ZM287.884 177.64C287.884 178.178 288.109 178.496 288.588 178.496C289.066 178.496 289.291 178.178 289.291 177.64V174.506C289.291 173.968 289.072 173.649 288.588 173.649C288.103 173.649 287.884 173.968 287.884 174.506V177.64Z" fill="#263238"/>
<path d="M291.151 179.034H290.553V173.105H291.397L292.764 177.394V173.105H293.349V179.034H292.685L291.171 174.24L291.151 179.034Z" fill="#263238"/>
<path d="M278.19 193.224C280.39 193.224 282.174 191.44 282.174 189.24C282.174 187.04 280.39 185.256 278.19 185.256C275.989 185.256 274.206 187.04 274.206 189.24C274.206 191.44 275.989 193.224 278.19 193.224Z" fill="#263238" stroke="#263238" stroke-linecap="round" stroke-linejoin="round"/>
<path d="M278.189 190.9C279.106 190.9 279.849 190.157 279.849 189.24C279.849 188.323 279.106 187.58 278.189 187.58C277.273 187.58 276.529 188.323 276.529 189.24C276.529 190.157 277.273 190.9 278.189 190.9Z" fill="#42C2C9"/>
<path d="M439.76 79.8593H347.909C343.142 79.8593 339.277 83.7239 339.277 88.4913V151.85C339.277 156.617 343.142 160.482 347.909 160.482H439.76C444.528 160.482 448.392 156.617 448.392 151.85V88.4913C448.392 83.7239 444.528 79.8593 439.76 79.8593Z" fill="#263238" stroke="#263238" stroke-linecap="round" stroke-linejoin="round"/>
<path d="M437.649 84.7795H350.021C346.625 84.7795 343.872 87.5323 343.872 90.9281V149.407C343.872 152.802 346.625 155.555 350.021 155.555H437.649C441.045 155.555 443.797 152.802 443.797 149.407V90.9281C443.797 87.5323 441.045 84.7795 437.649 84.7795Z" fill="white" stroke="#263238" stroke-linecap="round" stroke-linejoin="round"/>
<path d="M436.029 96.6053H356.8V99.4937H436.029V96.6053Z" fill="#E0E0E0"/>
<path d="M436.029 103.405H356.8V106.293H436.029V103.405Z" fill="#E0E0E0"/>
<path d="M436.029 110.204H356.8V113.092H436.029V110.204Z" fill="#E0E0E0"/>
<path d="M436.029 117.01H356.8V119.898H436.029V117.01Z" fill="#E0E0E0"/>
<path d="M436.029 123.809H356.8V126.698H436.029V123.809Z" fill="#E0E0E0"/>
<path d="M436.029 130.609H356.8V133.497H436.029V130.609Z" fill="#E0E0E0"/>
<path d="M436.029 137.408H356.8V140.297H436.029V137.408Z" fill="#E0E0E0"/>
<path d="M365.027 113.557H357.312V145.429H365.027V113.557Z" fill="#263238"/>
<path d="M376.827 122.495H369.111V145.429H376.827V122.495Z" fill="#42C2C9"/>
<path d="M388.626 116.937H380.91V145.429H388.626V116.937Z" fill="#263238"/>
<path d="M400.432 128.457H392.716V145.436H400.432V128.457Z" fill="#42C2C9"/>
<path d="M412.231 117.535H404.515V145.436H412.231V117.535Z" fill="#263238"/>
<path d="M424.037 110.184H416.321V145.429H424.037V110.184Z" fill="#42C2C9"/>
<path d="M435.836 105.616H428.121V145.429H435.836V105.616Z" fill="#263238"/>
<path d="M350.957 97.1432H353.593" stroke="#263238" stroke-linecap="round" stroke-linejoin="round"/>
<path d="M350.957 100.928H353.593" stroke="#263238" stroke-linecap="round" stroke-linejoin="round"/>
<path d="M350.957 104.719H353.593" stroke="#263238" stroke-linecap="round" stroke-linejoin="round"/>
<path d="M350.957 108.511H353.593" stroke="#263238" stroke-linecap="round" stroke-linejoin="round"/>
<path d="M350.957 112.302H353.593" stroke="#263238" stroke-linecap="round" stroke-linejoin="round"/>
<path d="M350.957 116.087H353.593" stroke="#263238" stroke-linecap="round" stroke-linejoin="round"/>
<path d="M350.957 119.879H353.593" stroke="#263238" stroke-linecap="round" stroke-linejoin="round"/>
<path d="M350.957 123.67H353.593" stroke="#263238" stroke-linecap="round" stroke-linejoin="round"/>
<path d="M350.957 127.461H353.593" stroke="#263238" stroke-linecap="round" stroke-linejoin="round"/>
<path d="M350.957 131.246H353.593" stroke="#263238" stroke-linecap="round" stroke-linejoin="round"/>
<path d="M350.957 135.038H353.593" stroke="#263238" stroke-linecap="round" stroke-linejoin="round"/>
<path d="M350.957 138.829H353.593" stroke="#263238" stroke-linecap="round" stroke-linejoin="round"/>
<path d="M350.957 142.621H353.593" stroke="#263238" stroke-linecap="round" stroke-linejoin="round"/>
<path d="M350.957 146.405H353.593" stroke="#263238" stroke-linecap="round" stroke-linejoin="round"/>
<path d="M436.055 147.494V150.13" stroke="#263238" stroke-linecap="round" stroke-linejoin="round"/>
<path d="M429.761 147.494V150.13" stroke="#263238" stroke-linecap="round" stroke-linejoin="round"/>
<path d="M423.466 147.494V150.13" stroke="#263238" stroke-linecap="round" stroke-linejoin="round"/>
<path d="M417.178 147.494V150.13" stroke="#263238" stroke-linecap="round" stroke-linejoin="round"/>
<path d="M410.883 147.494V150.13" stroke="#263238" stroke-linecap="round" stroke-linejoin="round"/>
<path d="M404.588 147.494V150.13" stroke="#263238" stroke-linecap="round" stroke-linejoin="round"/>
<path d="M398.3 147.494V150.13" stroke="#263238" stroke-linecap="round" stroke-linejoin="round"/>
<path d="M392.005 147.494V150.13" stroke="#263238" stroke-linecap="round" stroke-linejoin="round"/>
<path d="M385.711 147.494V150.13" stroke="#263238" stroke-linecap="round" stroke-linejoin="round"/>
<path d="M379.423 147.494V150.13" stroke="#263238" stroke-linecap="round" stroke-linejoin="round"/>
<path d="M373.128 147.494V150.13" stroke="#263238" stroke-linecap="round" stroke-linejoin="round"/>
<path d="M366.833 147.494V150.13" stroke="#263238" stroke-linecap="round" stroke-linejoin="round"/>
<path d="M360.539 147.494V150.13" stroke="#263238" stroke-linecap="round" stroke-linejoin="round"/>
<path d="M354.25 147.494V150.13" stroke="#263238" stroke-linecap="round" stroke-linejoin="round"/>
<path d="M402.331 90.0251H384.682V92.9201H402.331V90.0251Z" fill="#263238"/>
<path d="M439.76 170.263H347.909C343.142 170.263 339.277 174.128 339.277 178.895V242.254C339.277 247.021 343.142 250.886 347.909 250.886H439.76C444.528 250.886 448.392 247.021 448.392 242.254V178.895C448.392 174.128 444.528 170.263 439.76 170.263Z" fill="#263238" stroke="#263238" stroke-linecap="round" stroke-linejoin="round"/>
<path d="M437.649 175.19H350.021C346.625 175.19 343.872 177.943 343.872 181.338V239.817C343.872 243.213 346.625 245.965 350.021 245.965H437.649C441.045 245.965 443.797 243.213 443.797 239.817V181.338C443.797 177.943 441.045 175.19 437.649 175.19Z" fill="white" stroke="#263238" stroke-linecap="round" stroke-linejoin="round"/>
<path d="M377.059 239.12C370.379 239.119 363.938 236.634 358.99 232.146C354.041 227.659 350.94 221.491 350.289 214.843C349.638 208.195 351.483 201.542 355.467 196.18C359.451 190.818 365.287 187.13 371.84 185.834L373.115 192.354C370.391 192.888 367.807 193.976 365.521 195.551C363.236 197.125 361.298 199.152 359.829 201.506C358.359 203.86 357.389 206.491 356.978 209.236C356.568 211.981 356.725 214.78 357.441 217.462C358.157 220.143 359.417 222.648 361.141 224.823C362.866 226.997 365.019 228.794 367.466 230.102C369.914 231.41 372.604 232.201 375.37 232.426C378.136 232.651 380.919 232.305 383.546 231.411L385.678 237.699C382.902 238.64 379.99 239.12 377.059 239.12Z" fill="#263238"/>
<path d="M396.109 205.335C394.457 200.794 391.239 196.992 387.033 194.613C382.828 192.233 377.911 191.432 373.168 192.354L371.84 185.834C378.146 184.606 384.684 185.671 390.276 188.836C395.867 192.001 400.144 197.059 402.337 203.098L396.109 205.335Z" fill="#42C2C9"/>
<path d="M385.697 237.712L383.566 231.424C386.116 230.556 388.468 229.189 390.483 227.402C392.499 225.615 394.139 223.445 395.307 221.017C396.474 218.59 397.147 215.954 397.284 213.264C397.422 210.573 397.023 207.883 396.109 205.349L402.357 203.091C403.569 206.456 404.099 210.029 403.915 213.601C403.731 217.172 402.838 220.672 401.287 223.895C399.736 227.118 397.559 229.999 394.882 232.372C392.205 234.744 389.083 236.559 385.697 237.712Z" fill="#A8A8A8"/>
<path d="M420.438 191.498H412.975V198.961H420.438V191.498Z" fill="#263238"/>
<path d="M420.438 209.764H412.975V217.228H420.438V209.764Z" fill="#42C2C9"/>
<path d="M420.438 228.037H412.975V235.501H420.438V228.037Z" fill="#A8A8A8"/>
<path d="M424.362 195.428H436.938" stroke="#263238" stroke-linecap="round" stroke-linejoin="round"/>
<path d="M424.362 213.104H436.938" stroke="#263238" stroke-linecap="round" stroke-linejoin="round"/>
<path d="M370.146 212.712H382.723" stroke="#263238" stroke-linecap="round" stroke-linejoin="round"/>
<path d="M424.362 231.57H436.938" stroke="#263238" stroke-linecap="round" stroke-linejoin="round"/>
<path d="M63.7442 295.009H49.1362" stroke="#263238" stroke-width="0.75" stroke-miterlimit="10" stroke-linecap="round"/>
<path d="M433.592 295.009H71.7124" stroke="#263238" stroke-width="0.75" stroke-miterlimit="10" stroke-linecap="round"/>
<path d="M461.48 295.009H438.24" stroke="#263238" stroke-width="0.75" stroke-miterlimit="10" stroke-linecap="round"/>
</svg>
