<svg width="384" height="384" viewBox="0 0 384 384" fill="none" xmlns="http://www.w3.org/2000/svg">
<path d="M315.832 296.026H37.4555C37.4555 296.026 14.4539 300.019 15.5675 312.668C16.6811 325.317 58.322 311.293 64.9883 331.346C71.6545 351.398 127.196 355.853 174.651 339.748C222.106 323.643 239.34 352.512 263.777 352.512C288.215 352.512 288.353 326.83 312.161 331.338C335.969 335.846 346.599 326.784 337.329 317.514L315.832 296.026Z" fill="#47C2C9"/>
<path d="M24.0537 296.026H312.154" stroke="#263238" stroke-linecap="round" stroke-linejoin="round"/>
<path d="M327.537 229.762L341.315 243.533" stroke="#263238" stroke-linecap="round" stroke-linejoin="round"/>
<path d="M363.141 265.367L349.433 251.65" stroke="#263238" stroke-linecap="round" stroke-linejoin="round"/>
<path d="M341.315 249.984L327.537 236.214" stroke="#263238" stroke-linecap="round" stroke-linejoin="round"/>
<path d="M363.141 271.811L349.433 258.102" stroke="#263238" stroke-linecap="round" stroke-linejoin="round"/>
<path d="M341.499 75.6096L328.451 71.04" stroke="#263238" stroke-linecap="round" stroke-linejoin="round"/>
<path d="M363.142 83.205L348.649 78.1208" stroke="#263238" stroke-linecap="round" stroke-linejoin="round"/>
<path d="M341.553 80.7091L328.451 76.1165" stroke="#263238" stroke-linecap="round" stroke-linejoin="round"/>
<path d="M363.141 88.2814L348.657 83.1973" stroke="#263238" stroke-linecap="round" stroke-linejoin="round"/>
<path d="M342.344 163.653L327.537 155.236" stroke="#263238" stroke-linecap="round" stroke-linejoin="round"/>
<path d="M363.141 175.465L347.95 166.833" stroke="#263238" stroke-linecap="round" stroke-linejoin="round"/>
<path d="M342.344 169.021L327.537 160.604" stroke="#263238" stroke-linecap="round" stroke-linejoin="round"/>
<path d="M363.141 180.833L347.904 172.178" stroke="#263238" stroke-linecap="round" stroke-linejoin="round"/>
<path d="M326.055 60.9177V45.166" stroke="#263238" stroke-linecap="round" stroke-linejoin="round"/>
<path d="M326.055 126.274V63.6978" stroke="#263238" stroke-linecap="round" stroke-linejoin="round"/>
<path d="M326.055 151.987V129.293" stroke="#263238" stroke-linecap="round" stroke-linejoin="round"/>
<path d="M326.055 234.831V156.157" stroke="#263238" stroke-linecap="round" stroke-linejoin="round"/>
<path d="M326.055 282.962V239.025" stroke="#263238" stroke-linecap="round" stroke-linejoin="round"/>
<path d="M351.038 310.787L326.055 285.803" stroke="#263238" stroke-linecap="round" stroke-linejoin="round"/>
<path d="M369.693 329.441L354.786 314.534" stroke="#263238" stroke-linecap="round" stroke-linejoin="round"/>
<path d="M342.874 252.426V296.018" stroke="#263238" stroke-linecap="round" stroke-linejoin="round"/>
<path d="M342.874 170.934V242.288" stroke="#263238" stroke-linecap="round" stroke-linejoin="round"/>
<path d="M342.874 82.2297V161.979" stroke="#263238" stroke-linecap="round" stroke-linejoin="round"/>
<path d="M342.874 45.166V74.5958" stroke="#263238" stroke-linecap="round" stroke-linejoin="round"/>
<path d="M347.896 258.102V301.847" stroke="#263238" stroke-linecap="round" stroke-linejoin="round"/>
<path d="M347.896 174.267V249.984" stroke="#263238" stroke-linecap="round" stroke-linejoin="round"/>
<path d="M347.896 84.311V164.69" stroke="#263238" stroke-linecap="round" stroke-linejoin="round"/>
<path d="M347.896 45.166V76.6771" stroke="#263238" stroke-linecap="round" stroke-linejoin="round"/>
<path d="M365.898 281.641V317.506" stroke="#263238" stroke-linecap="round" stroke-linejoin="round"/>
<path d="M365.898 199.258V278.661" stroke="#263238" stroke-linecap="round" stroke-linejoin="round"/>
<path d="M365.898 95.6926V195.494" stroke="#263238" stroke-linecap="round" stroke-linejoin="round"/>
<path d="M365.898 45.166V91.5302" stroke="#263238" stroke-linecap="round" stroke-linejoin="round"/>
<path d="M333.589 247.288V285.711" stroke="#263238" stroke-linecap="round" stroke-linejoin="round"/>
<path d="M333.589 169.021V231.46" stroke="#263238" stroke-linecap="round" stroke-linejoin="round"/>
<path d="M333.589 82.2297V155.236" stroke="#263238" stroke-linecap="round" stroke-linejoin="round"/>
<path d="M333.589 45.166V68.2137" stroke="#263238" stroke-linecap="round" stroke-linejoin="round"/>
<path d="M368.855 349.048L315.833 296.026V45.166" stroke="#263238" stroke-linecap="round" stroke-linejoin="round"/>
<path d="M296.256 37.7395H53.0459V177.523H296.256V37.7395Z" fill="#47C2C9"/>
<mask id="mask0_70_7241" style="mask-type:luminance" maskUnits="userSpaceOnUse" x="53" y="37" width="244" height="141">
<path d="M296.256 37.7395H53.0459V177.523H296.256V37.7395Z" fill="white"/>
</mask>
<g mask="url(#mask0_70_7241)">
<path opacity="0.6" d="M296.256 37.7395H53.0459V177.523H296.256V37.7395Z" fill="white"/>
</g>
<path d="M296.256 37.7395H53.0459V177.523H296.256V37.7395Z" stroke="#263238" stroke-linecap="round" stroke-linejoin="round"/>
<path d="M296.256 37.7395H53.0459V51.8937H296.256V37.7395Z" fill="#263238" stroke="#263238" stroke-linecap="round" stroke-linejoin="round"/>
<path d="M182.569 41.4797H68.022V48.146H182.569V41.4797Z" fill="white" stroke="#263238" stroke-linecap="round" stroke-linejoin="round"/>
<path d="M89.1727 41.4797H68.022V48.146H89.1727V41.4797Z" fill="#47C2C9"/>
<mask id="mask1_70_7241" style="mask-type:luminance" maskUnits="userSpaceOnUse" x="68" y="41" width="22" height="8">
<path d="M89.1727 41.4797H68.022V48.146H89.1727V41.4797Z" fill="white"/>
</mask>
<g mask="url(#mask1_70_7241)">
<path opacity="0.5" d="M89.1727 41.4797H68.022V48.146H89.1727V41.4797Z" fill="white" stroke="#263238" stroke-linecap="round" stroke-linejoin="round"/>
</g>
<path d="M89.1727 41.4797H68.022V48.146H89.1727V41.4797Z" stroke="#263238" stroke-linecap="round" stroke-linejoin="round"/>
<path d="M187.691 122.75H106.752V129.416H187.691V122.75Z" fill="white" stroke="#263238" stroke-linecap="round" stroke-linejoin="round"/>
<path d="M293.353 136.504H229.763V143.171H293.353V136.504Z" fill="white" stroke="#263238" stroke-linecap="round" stroke-linejoin="round"/>
<path d="M293.353 149.891H229.763V156.557H293.353V149.891Z" fill="white" stroke="#263238" stroke-linecap="round" stroke-linejoin="round"/>
<path d="M293.353 163.277H229.763V169.943H293.353V163.277Z" fill="white" stroke="#263238" stroke-linecap="round" stroke-linejoin="round"/>
<path d="M127.903 122.75H106.752V129.416H127.903V122.75Z" fill="#47C2C9" stroke="#263238" stroke-linecap="round" stroke-linejoin="round"/>
<path opacity="0.7" d="M221.299 136.504H106.752V169.943H221.299V136.504Z" fill="white"/>
<path d="M293.115 56.8933H106.752V67.7451H293.115V56.8933Z" fill="white" stroke="#263238" stroke-linecap="round" stroke-linejoin="round"/>
<path opacity="0.5" d="M293.115 72.7373H106.752V115.653H293.115V72.7373Z" fill="white"/>
<path d="M141.166 56.8933H106.752V67.7451H141.166V56.8933Z" fill="#47C2C9" stroke="#263238" stroke-linecap="round" stroke-linejoin="round"/>
<path d="M132.311 76.3545H109.248V83.6275H132.311V76.3545Z" fill="#47C2C9" stroke="#263238" stroke-linecap="round" stroke-linejoin="round"/>
<path d="M252.826 125.775H229.763V133.048H252.826V125.775Z" fill="#47C2C9" stroke="#263238" stroke-linecap="round" stroke-linejoin="round"/>
<path d="M82.4986 106.637H59.4355V113.91H82.4986V106.637Z" fill="#47C2C9" stroke="#263238" stroke-linecap="round" stroke-linejoin="round"/>
<path d="M254.469 87.1064H109.248V90.7391H254.469V87.1064Z" fill="white" stroke="#263238" stroke-linecap="round" stroke-linejoin="round"/>
<path d="M76.0937 117.281H59.7046V120.914H76.0937V117.281Z" fill="white" stroke="#263238" stroke-linecap="round" stroke-linejoin="round"/>
<path d="M82.4986 127.619H59.4355V134.892H82.4986V127.619Z" fill="#47C2C9" stroke="#263238" stroke-linecap="round" stroke-linejoin="round"/>
<path d="M80.2563 138.263H59.7046V141.896H80.2563V138.263Z" fill="white" stroke="#263238" stroke-linecap="round" stroke-linejoin="round"/>
<path d="M77.7603 145.275H59.7046V148.908H77.7603V145.275Z" fill="white" stroke="#263238" stroke-linecap="round" stroke-linejoin="round"/>
<path d="M73.59 152.287H59.7046V155.919H73.59V152.287Z" fill="white" stroke="#263238" stroke-linecap="round" stroke-linejoin="round"/>
<path d="M80.2563 159.299H59.7046V162.931H80.2563V159.299Z" fill="white" stroke="#263238" stroke-linecap="round" stroke-linejoin="round"/>
<path d="M76.0937 166.303H59.7046V169.935H76.0937V166.303Z" fill="white" stroke="#263238" stroke-linecap="round" stroke-linejoin="round"/>
<path d="M266.135 94.2183H109.248V97.8509H266.135V94.2183Z" fill="white" stroke="#263238" stroke-linecap="round" stroke-linejoin="round"/>
<path d="M248.364 101.338H109.248V104.97H248.364V101.338Z" fill="white" stroke="#263238" stroke-linecap="round" stroke-linejoin="round"/>
<path d="M262.249 108.449H109.248V112.082H262.249V108.449Z" fill="white" stroke="#263238" stroke-linecap="round" stroke-linejoin="round"/>
<path d="M293.115 41.4797H286.449V48.146H293.115V41.4797Z" fill="#47C2C9" stroke="#263238" stroke-linecap="round" stroke-linejoin="round"/>
<path d="M276.672 41.4797H270.006V48.146H276.672V41.4797Z" fill="#47C2C9"/>
<mask id="mask2_70_7241" style="mask-type:luminance" maskUnits="userSpaceOnUse" x="270" y="41" width="7" height="8">
<path d="M276.672 41.4797H270.006V48.146H276.672V41.4797Z" fill="white"/>
</mask>
<g mask="url(#mask2_70_7241)">
<path opacity="0.6" d="M276.672 41.4797H270.006V48.146H276.672V41.4797Z" fill="white"/>
</g>
<path d="M276.672 41.4797H270.006V48.146H276.672V41.4797Z" stroke="#263238" stroke-linecap="round" stroke-linejoin="round"/>
<path d="M284.89 41.4797H278.224V48.146H284.89V41.4797Z" fill="#47C2C9"/>
<mask id="mask3_70_7241" style="mask-type:luminance" maskUnits="userSpaceOnUse" x="278" y="41" width="7" height="8">
<path d="M284.89 41.4797H278.224V48.146H284.89V41.4797Z" fill="white"/>
</mask>
<g mask="url(#mask3_70_7241)">
<path opacity="0.4" d="M284.89 41.4797H278.224V48.146H284.89V41.4797Z" fill="white"/>
</g>
<path d="M284.89 41.4797H278.224V48.146H284.89V41.4797Z" stroke="#263238" stroke-linecap="round" stroke-linejoin="round"/>
<path d="M102.536 56.8933H59.4355V99.9935H102.536V56.8933Z" fill="white"/>
<path d="M273.408 303.836C273.595 303.838 273.777 303.771 273.919 303.648C274.06 303.525 274.152 303.354 274.176 303.168C274.214 302.93 277.747 278.815 280.788 246.298C282.363 229.471 286.356 217.69 289.428 210.778C292.754 203.282 295.749 199.718 295.78 199.68C295.913 199.523 295.979 199.32 295.962 199.115C295.946 198.909 295.848 198.719 295.691 198.586C295.535 198.452 295.331 198.387 295.126 198.403C294.921 198.42 294.73 198.517 294.597 198.674C294.09 199.265 282.309 213.412 279.237 246.152C276.165 278.623 272.671 302.707 272.632 302.945C272.616 303.047 272.62 303.151 272.645 303.251C272.669 303.35 272.714 303.444 272.776 303.527C272.837 303.609 272.915 303.678 273.003 303.73C273.092 303.782 273.191 303.815 273.293 303.829L273.408 303.836Z" fill="#47C2C9" stroke="#263238" stroke-linecap="round" stroke-linejoin="round"/>
<path d="M282.816 285.558H282.678C282.551 285.54 282.43 285.497 282.32 285.432C282.211 285.367 282.115 285.281 282.039 285.179C281.962 285.077 281.907 284.961 281.875 284.838C281.844 284.714 281.837 284.586 281.856 284.459C281.856 284.283 284.406 267.064 286.579 243.855C288.776 220.301 297.331 210.063 297.654 209.656C297.827 209.481 298.059 209.378 298.305 209.368C298.551 209.357 298.791 209.44 298.978 209.599C299.166 209.758 299.286 209.982 299.315 210.227C299.345 210.471 299.28 210.717 299.136 210.916C299.051 211.016 290.65 221.161 288.507 244.032C286.333 267.302 283.807 284.567 283.776 284.736C283.741 284.965 283.625 285.174 283.449 285.325C283.272 285.476 283.048 285.558 282.816 285.558Z" fill="#47C2C9" stroke="#263238" stroke-linecap="round" stroke-linejoin="round"/>
<path d="M311.294 192.768C311.619 192.727 311.948 192.811 312.213 193.004C312.478 193.196 312.66 193.483 312.722 193.805C314.012 200.325 319.557 231.706 306.578 227.597C295.78 224.156 296.487 216.261 297.554 212.444C297.605 212.267 297.605 212.078 297.554 211.901C297.502 211.724 297.401 211.565 297.263 211.443C297.125 211.32 296.954 211.24 296.772 211.21C296.59 211.181 296.403 211.204 296.233 211.277C292.024 213.012 282.862 215.754 281.848 207.153C280.666 197.222 305.503 193.536 311.294 192.768Z" fill="#47C2C9"/>
<path opacity="0.2" d="M299.52 207.583C296.84 207.982 288.146 209.411 288.699 206.815C289.252 204.219 300.357 206.047 300.918 205.018C301.479 203.989 295.504 201.224 296.471 199.642C297.439 198.06 302.024 203.781 302.999 203.159C303.975 202.537 307.162 194.934 308.967 196.654C310.771 198.374 304.666 203.259 304.804 204.979C304.942 206.7 310.771 206.285 311.463 208.159C312.154 210.033 304.666 206.415 304.251 207.529C303.836 208.643 311.747 217.943 309.243 219.333C306.739 220.723 301.824 207.245 299.52 207.583Z" fill="black"/>
<path d="M316.662 154.045C317.117 153.986 317.577 154.102 317.95 154.371C318.322 154.639 318.578 155.039 318.666 155.489C320.456 164.605 328.212 208.481 310.034 202.691C294.943 197.891 295.933 186.847 297.431 181.517C297.499 181.269 297.497 181.006 297.424 180.759C297.35 180.513 297.209 180.292 297.016 180.121C296.823 179.951 296.586 179.838 296.333 179.795C296.079 179.753 295.818 179.782 295.58 179.881C289.69 182.315 276.887 186.14 275.474 174.121C273.846 160.274 308.567 155.067 316.662 154.045Z" fill="#47C2C9"/>
<path opacity="0.7" d="M295.35 177.715C291.679 178.069 280.281 176.909 281.848 171.771C283.415 166.633 296.202 173.714 298.276 172.324C300.349 170.934 295.058 163.423 298.391 161.979C301.724 160.535 302.431 168.891 303.675 168.822C304.919 168.753 310.894 158.07 313.398 159.414C315.901 160.758 307.254 169.275 306.731 171.771C306.209 174.267 316.585 172.047 317.284 174.413C317.983 176.778 306.317 174.789 305.764 176.471C305.211 178.153 316.454 187.599 313.543 191.624C310.633 195.648 304.036 176.886 295.35 177.715Z" fill="white"/>
<path d="M280.927 283.592C280.718 283.59 280.516 283.511 280.363 283.369C280.209 283.227 280.115 283.032 280.097 282.824C279.03 273.608 278.054 264.23 277.202 255.037C274.214 223.135 262.495 209.065 262.38 208.957C262.296 208.876 262.23 208.778 262.186 208.67C262.142 208.562 262.122 208.446 262.125 208.33C262.129 208.213 262.157 208.099 262.207 207.994C262.258 207.889 262.33 207.795 262.418 207.72C262.507 207.644 262.61 207.588 262.722 207.554C262.834 207.521 262.951 207.511 263.067 207.526C263.182 207.54 263.294 207.579 263.394 207.639C263.493 207.699 263.58 207.779 263.647 207.874C264.138 208.458 275.827 222.466 278.861 254.914C279.713 264.092 280.689 273.423 281.756 282.662C281.768 282.773 281.757 282.886 281.724 282.993C281.692 283.1 281.638 283.199 281.567 283.285C281.495 283.371 281.407 283.442 281.308 283.493C281.208 283.544 281.1 283.575 280.988 283.584L280.927 283.592Z" fill="#47C2C9" stroke="#263238" stroke-linecap="round" stroke-linejoin="round"/>
<path d="M240.238 198.144C239.881 198.273 239.585 198.53 239.407 198.865C239.228 199.199 239.179 199.588 239.27 199.957C241.26 207.437 251.505 243.08 262.986 232.105C272.517 222.997 267.74 215.102 264.676 211.661C264.533 211.502 264.438 211.306 264.401 211.095C264.364 210.884 264.387 210.668 264.467 210.47C264.547 210.271 264.681 210.099 264.854 209.973C265.026 209.847 265.231 209.772 265.444 209.756C270.735 209.426 281.71 207.606 278.369 198.098C274.545 187.177 246.666 195.978 240.238 198.144Z" fill="#47C2C9"/>
<path opacity="0.5" d="M260.506 213.504C260.751 216.991 261.75 227.589 259.116 226.483C256.481 225.377 258.002 214.126 256.335 212.598C254.669 211.07 251.205 220.654 249.815 218.012C248.425 215.37 253.148 211.185 253.01 209.326C252.872 207.468 244.562 202.883 245.23 201.216C245.898 199.55 253.563 205.24 254.392 203.858C255.222 202.476 256.197 196.078 258.286 196.777C260.375 197.476 258.286 203.297 259.116 204.134C259.945 204.972 268.554 196.078 269.944 200.525C271.288 204.818 259.638 201.285 260.506 213.504Z" fill="white"/>
<path d="M288.353 305.864H276.28C274.019 305.863 271.844 304.994 270.205 303.436C268.566 301.878 267.587 299.751 267.471 297.492L266.235 273.684H298.391L297.162 297.492C297.046 299.751 296.067 301.878 294.428 303.436C292.789 304.994 290.615 305.863 288.353 305.864Z" fill="#263238" stroke="#263238" stroke-linecap="round" stroke-linejoin="round"/>
<path d="M135.867 324.68H144.975V255.383H135.867V324.68Z" fill="#FFBE9D"/>
<mask id="mask4_70_7241" style="mask-type:luminance" maskUnits="userSpaceOnUse" x="135" y="255" width="10" height="70">
<path d="M135.867 324.68H144.975V255.383H135.867V324.68Z" fill="white"/>
</mask>
<g mask="url(#mask4_70_7241)">
<path opacity="0.2" d="M132.272 319.718H139.453V254.745H132.272V319.718Z" fill="black"/>
</g>
<path d="M135.867 324.68H144.975V255.383H135.867V324.68Z" stroke="#263238" stroke-linecap="round" stroke-linejoin="round"/>
<path d="M114.962 316.577H165.888C167.666 316.577 169.371 317.284 170.628 318.541C171.886 319.798 172.592 321.504 172.592 323.282V324.68H108.288V323.282C108.288 321.509 108.99 319.808 110.24 318.552C111.491 317.295 113.189 316.585 114.962 316.577Z" fill="#FFBE9D"/>
<mask id="mask5_70_7241" style="mask-type:luminance" maskUnits="userSpaceOnUse" x="108" y="316" width="65" height="9">
<path d="M114.962 316.577H165.888C167.666 316.577 169.371 317.284 170.628 318.541C171.886 319.798 172.592 321.504 172.592 323.282V324.68H108.288V323.282C108.288 321.509 108.99 319.808 110.24 318.552C111.491 317.295 113.189 316.585 114.962 316.577Z" fill="white"/>
</mask>
<g mask="url(#mask5_70_7241)">
<path opacity="0.2" d="M116.92 318.559H163.922C165.556 318.557 167.125 319.202 168.285 320.353C169.445 321.504 170.102 323.068 170.112 324.703V325.993H110.73V324.703C110.74 323.068 111.397 321.504 112.557 320.353C113.717 319.202 115.286 318.557 116.92 318.559Z" fill="black"/>
</g>
<path d="M114.962 316.577H165.888C167.666 316.577 169.371 317.284 170.628 318.541C171.886 319.798 172.592 321.504 172.592 323.282V324.68H108.288V323.282C108.288 321.509 108.99 319.808 110.24 318.552C111.491 317.295 113.189 316.585 114.962 316.577Z" stroke="#263238" stroke-linecap="round" stroke-linejoin="round"/>
<path d="M138.363 324.68H142.479V318.635C142.479 318.09 142.262 317.566 141.876 317.18C141.49 316.794 140.967 316.577 140.421 316.577C139.875 316.577 139.352 316.794 138.966 317.18C138.58 317.566 138.363 318.09 138.363 318.635V324.68Z" fill="#FFBE9D" stroke="#263238" stroke-linecap="round" stroke-linejoin="round"/>
<path d="M134.991 256.159H140.421H145.851V245.299H134.991V256.159Z" fill="#FFBE9D" stroke="#263238" stroke-linecap="round" stroke-linejoin="round"/>
<path d="M108.626 245.123H117.734V220.739H108.626V245.123Z" fill="#FFBE9D"/>
<mask id="mask6_70_7241" style="mask-type:luminance" maskUnits="userSpaceOnUse" x="108" y="220" width="10" height="26">
<path d="M108.625 245.123H117.734V220.739H108.625V245.123Z" fill="white"/>
</mask>
<g mask="url(#mask6_70_7241)">
<path opacity="0.2" d="M104.716 247.657H111.897V222.735H104.716V247.657Z" fill="black"/>
</g>
<path d="M108.626 245.123H117.734V220.739H108.626V245.123Z" stroke="#263238" stroke-linecap="round" stroke-linejoin="round"/>
<path d="M104.901 249.331C128.486 252.288 152.348 252.288 175.933 249.331C176.398 249.272 176.847 249.121 177.253 248.887C177.66 248.653 178.016 248.341 178.302 247.97C178.587 247.598 178.796 247.173 178.917 246.72C179.038 246.267 179.068 245.794 179.005 245.33L178.429 241.659C178.276 240.74 177.769 239.918 177.016 239.37C176.264 238.821 175.326 238.59 174.405 238.725C151.82 241.521 128.976 241.521 106.391 238.725C105.469 238.59 104.532 238.821 103.779 239.37C103.027 239.918 102.519 240.74 102.366 241.659L101.79 245.33C101.728 245.797 101.759 246.273 101.883 246.728C102.006 247.183 102.218 247.609 102.508 247.982C102.797 248.354 103.158 248.665 103.569 248.897C103.98 249.129 104.432 249.276 104.901 249.331Z" fill="#263238"/>
<mask id="mask7_70_7241" style="mask-type:luminance" maskUnits="userSpaceOnUse" x="101" y="238" width="79" height="14">
<path d="M104.901 249.331C128.486 252.288 152.348 252.288 175.933 249.331C176.398 249.272 176.847 249.121 177.253 248.887C177.66 248.653 178.016 248.341 178.302 247.97C178.587 247.598 178.796 247.173 178.917 246.72C179.038 246.267 179.068 245.794 179.005 245.33L178.429 241.659C178.276 240.74 177.769 239.918 177.016 239.37C176.264 238.821 175.326 238.59 174.405 238.725C151.82 241.521 128.976 241.521 106.391 238.725C105.469 238.59 104.532 238.821 103.779 239.37C103.027 239.918 102.519 240.74 102.366 241.659L101.79 245.33C101.728 245.797 101.759 246.273 101.883 246.728C102.006 247.183 102.218 247.609 102.508 247.982C102.797 248.354 103.158 248.665 103.569 248.897C103.98 249.129 104.432 249.276 104.901 249.331Z" fill="white"/>
</mask>
<g mask="url(#mask7_70_7241)">
<path opacity="0.2" d="M106.414 238.725C128.999 241.521 151.843 241.521 174.428 238.725C175.349 238.59 176.287 238.821 177.04 239.37C177.792 239.918 178.299 240.74 178.452 241.659C178.637 242.826 178.744 243.533 178.898 244.508C155.435 245.804 131.904 244.989 108.587 242.074C107.704 241.957 106.868 241.606 106.166 241.058C105.464 240.51 104.921 239.784 104.594 238.955C105.17 238.72 105.797 238.64 106.414 238.725Z" fill="black"/>
</g>
<path d="M104.901 249.331C128.486 252.288 152.348 252.288 175.933 249.331C176.398 249.272 176.847 249.121 177.253 248.887C177.66 248.653 178.016 248.341 178.302 247.97C178.587 247.598 178.796 247.173 178.917 246.72C179.038 246.267 179.068 245.794 179.005 245.33L178.429 241.659C178.276 240.74 177.769 239.918 177.016 239.37C176.264 238.821 175.326 238.59 174.405 238.725C151.82 241.521 128.976 241.521 106.391 238.725C105.469 238.59 104.532 238.821 103.779 239.37C103.027 239.918 102.519 240.74 102.366 241.659L101.79 245.33C101.728 245.797 101.759 246.273 101.883 246.728C102.006 247.183 102.218 247.609 102.508 247.982C102.797 248.354 103.158 248.665 103.569 248.897C103.98 249.129 104.432 249.276 104.901 249.331Z" stroke="#263238" stroke-linecap="round" stroke-linejoin="round"/>
<path d="M105.116 227.274L126.075 224.256C131.397 223.488 134.914 218.788 134.085 213.896C131.995 201.594 131.345 189.091 132.15 176.64C132.258 174.317 131.483 172.039 129.982 170.262C128.481 168.486 126.363 167.343 124.055 167.063L106.629 164.567C101.622 163.853 96.7294 167.639 95.8769 173.161C93.5688 187.943 93.0248 202.948 94.2564 217.858C94.7403 223.741 99.8398 228.027 105.116 227.274Z" fill="#263238"/>
<mask id="mask8_70_7241" style="mask-type:luminance" maskUnits="userSpaceOnUse" x="93" y="164" width="42" height="64">
<path d="M105.116 227.274L126.075 224.256C131.397 223.488 134.914 218.788 134.085 213.896C131.995 201.594 131.345 189.091 132.15 176.64C132.258 174.317 131.483 172.039 129.982 170.262C128.481 168.486 126.363 167.343 124.055 167.063L106.629 164.567C101.622 163.853 96.7294 167.639 95.8769 173.161C93.5688 187.943 93.0248 202.948 94.2564 217.858C94.7403 223.741 99.8398 228.027 105.116 227.274Z" fill="white"/>
</mask>
<g mask="url(#mask8_70_7241)">
<path opacity="0.2" d="M104.985 177.945C105.838 172.408 110.722 168.63 115.737 169.352L130.913 171.525C131.837 173.05 132.271 174.822 132.157 176.601C131.349 189.071 131.998 201.592 134.092 213.911C134.922 218.803 131.404 223.503 126.082 224.271L105.124 227.274H104.862C104.017 225.86 103.51 224.27 103.38 222.628C102.14 207.723 102.679 192.723 104.985 177.945Z" fill="black"/>
</g>
<path d="M105.116 227.274L126.075 224.256C131.397 223.488 134.914 218.788 134.085 213.896C131.995 201.594 131.345 189.091 132.15 176.64C132.258 174.317 131.483 172.039 129.982 170.262C128.481 168.486 126.363 167.343 124.055 167.063L106.629 164.567C101.622 163.853 96.7294 167.639 95.8769 173.161C93.5688 187.943 93.0248 202.948 94.2564 217.858C94.7403 223.741 99.8398 228.027 105.116 227.274Z" stroke="#263238" stroke-linecap="round" stroke-linejoin="round"/>
<path d="M199.741 285.55V296.072L213.166 309.612C213.166 309.612 219.717 312.806 220.27 315.679C220.823 318.551 217.705 320.724 209.933 318.551C202.16 316.378 201.093 313.751 198.167 312.476C195.241 311.201 187.161 310.295 187.515 306.509C187.868 302.723 191.6 296.993 191.6 296.993L191.132 288.637L199.741 285.55Z" fill="#FFBE9D" stroke="#263238" stroke-linecap="round" stroke-linejoin="round"/>
<path d="M190.794 298.283C192.115 299.428 192.645 301.778 192.645 301.778C192.645 301.778 199.45 305.311 199.557 302.392C199.642 300.418 201.592 299.581 202.836 299.243L213.12 309.611C213.12 309.611 219.671 312.806 220.224 315.679C220.777 318.551 217.659 320.724 209.887 318.551C202.115 316.378 201.047 313.751 198.121 312.476C195.195 311.201 187.115 310.295 187.469 306.509C187.745 303.828 189.696 300.188 190.794 298.283Z" fill="#47C2C9"/>
<mask id="mask9_70_7241" style="mask-type:luminance" maskUnits="userSpaceOnUse" x="187" y="298" width="34" height="22">
<path d="M190.794 298.283C192.115 299.428 192.645 301.778 192.645 301.778C192.645 301.778 199.45 305.311 199.557 302.392C199.642 300.418 201.592 299.581 202.836 299.243L213.12 309.611C213.12 309.611 219.671 312.806 220.224 315.679C220.777 318.551 217.659 320.724 209.887 318.551C202.115 316.378 201.047 313.751 198.121 312.476C195.195 311.201 187.115 310.295 187.469 306.509C187.745 303.828 189.696 300.188 190.794 298.283Z" fill="white"/>
</mask>
<g mask="url(#mask9_70_7241)">
<path opacity="0.3" d="M190.794 298.283C192.115 299.428 192.645 301.778 192.645 301.778C192.645 301.778 199.45 305.311 199.557 302.392C199.642 300.418 201.592 299.581 202.836 299.243L213.12 309.611C213.12 309.611 219.671 312.806 220.224 315.679C220.777 318.551 217.659 320.724 209.887 318.551C202.115 316.378 201.047 313.751 198.121 312.476C195.195 311.201 187.115 310.295 187.469 306.509C187.745 303.828 189.696 300.188 190.794 298.283Z" fill="black"/>
</g>
<path d="M190.794 298.283C192.115 299.428 192.645 301.778 192.645 301.778C192.645 301.778 199.45 305.311 199.557 302.392C199.642 300.418 201.592 299.581 202.836 299.243L213.12 309.611C213.12 309.611 219.671 312.806 220.224 315.679C220.777 318.551 217.659 320.724 209.887 318.551C202.115 316.378 201.047 313.751 198.121 312.476C195.195 311.201 187.115 310.295 187.469 306.509C187.745 303.828 189.696 300.188 190.794 298.283Z" stroke="#263238" stroke-linecap="round" stroke-linejoin="round"/>
<path d="M187.492 306.509C187.492 306.286 187.545 306.056 187.592 305.818C188.293 306.552 189.065 307.215 189.896 307.799C193.559 310.418 199.181 309.896 201.293 311.854C202.845 313.182 204.611 314.239 206.515 314.98C208.466 313.444 211.615 315.517 215.409 315.963C217.003 316.187 218.625 315.815 219.963 314.918C220.095 315.159 220.19 315.418 220.247 315.686C220.8 318.559 217.682 320.732 209.91 318.559C202.137 316.385 201.07 313.759 198.144 312.484C195.218 311.209 187.138 310.272 187.492 306.509Z" fill="#FFBE9D" stroke="#263238" stroke-linecap="round" stroke-linejoin="round"/>
<path d="M220.308 316.961C220.308 316.961 218.542 319.45 208.734 315.963" stroke="#263238" stroke-linecap="round" stroke-linejoin="round"/>
<path d="M136.949 219.924C136.949 219.924 194.549 216.084 197.145 224.194C199.741 232.304 200.985 258.355 201.139 268.685C201.293 279.014 200.448 292.101 200.448 292.101C196.989 293.144 193.3 293.144 189.842 292.101C189.842 292.101 187.315 277.087 185.479 269.783C183.644 262.479 181.716 252.756 182.822 237.373C182.822 237.373 127.657 245.683 127.342 236.037C127.027 226.391 136.949 219.924 136.949 219.924Z" fill="#FFBE9D"/>
<mask id="mask10_70_7241" style="mask-type:luminance" maskUnits="userSpaceOnUse" x="127" y="219" width="75" height="74">
<path d="M136.949 219.924C136.949 219.924 194.549 216.084 197.145 224.194C199.741 232.304 200.985 258.355 201.139 268.685C201.293 279.014 200.448 292.101 200.448 292.101C196.989 293.144 193.3 293.144 189.842 292.101C189.842 292.101 187.315 277.087 185.479 269.783C183.644 262.479 181.716 252.756 182.822 237.373C182.822 237.373 127.657 245.683 127.342 236.037C127.027 226.391 136.949 219.924 136.949 219.924Z" fill="white"/>
</mask>
<g mask="url(#mask10_70_7241)">
<path opacity="0.5" d="M136.949 219.924C136.949 219.924 194.549 216.084 197.145 224.194C199.741 232.304 200.985 258.355 201.139 268.685C201.293 279.014 200.448 292.101 200.448 292.101C196.989 293.144 193.3 293.144 189.842 292.101C189.842 292.101 187.315 277.087 185.479 269.783C183.644 262.479 181.716 252.756 182.822 237.373C182.822 237.373 127.657 245.683 127.342 236.037C127.027 226.391 136.949 219.924 136.949 219.924Z" fill="black"/>
<mask id="mask11_70_7241" style="mask-type:luminance" maskUnits="userSpaceOnUse" x="127" y="219" width="75" height="74">
<path d="M136.949 219.924C136.949 219.924 194.549 216.084 197.145 224.194C199.741 232.304 200.985 258.355 201.139 268.685C201.293 279.014 200.448 292.101 200.448 292.101C196.989 293.144 193.3 293.144 189.842 292.101C189.842 292.101 187.315 277.087 185.479 269.783C183.644 262.479 181.716 252.756 182.822 237.373C182.822 237.373 127.657 245.683 127.342 236.037C127.027 226.391 136.949 219.924 136.949 219.924Z" fill="white"/>
</mask>
<g mask="url(#mask11_70_7241)">
<path opacity="0.3" d="M194.795 291.579C191.324 290.811 188.475 275.673 186.846 259.837C185.218 244.001 191.186 235.906 188.183 233.863C185.18 231.821 159.536 236.114 144.683 236.866C136.335 237.289 130.775 235.33 127.495 233.518C127.37 234.351 127.319 235.194 127.342 236.037C127.657 245.683 182.822 237.373 182.822 237.373C181.716 252.733 183.644 262.487 185.479 269.783C187.315 277.079 189.842 292.101 189.842 292.101C190.724 292.391 191.632 292.599 192.553 292.723C194.619 292.193 195.671 291.771 194.795 291.579Z" fill="black"/>
</g>
</g>
<path d="M136.949 219.924C136.949 219.924 194.55 216.084 197.145 224.194C199.741 232.304 200.985 258.355 201.139 268.685C201.293 279.014 200.448 292.101 200.448 292.101C196.989 293.144 193.3 293.144 189.842 292.101C189.842 292.101 187.315 277.087 185.479 269.783C183.644 262.479 181.716 252.756 182.822 237.373C182.822 237.373 127.657 245.683 127.342 236.037C127.027 226.391 136.949 219.924 136.949 219.924Z" stroke="#263238" stroke-linecap="round" stroke-linejoin="round"/>
<path d="M189.005 232.113C189.005 232.113 188.413 234.785 184.688 237.373" stroke="#263238" stroke-linecap="round" stroke-linejoin="round"/>
<path d="M201.784 288.806L201.392 292.7C201.392 292.7 194.803 296.233 189.012 292.961L187.799 289.121C187.799 289.121 191.723 291.84 201.784 288.806Z" fill="#FFBE9D"/>
<mask id="mask12_70_7241" style="mask-type:luminance" maskUnits="userSpaceOnUse" x="187" y="288" width="15" height="7">
<path d="M201.784 288.806L201.392 292.7C201.392 292.7 194.803 296.233 189.012 292.961L187.799 289.121C187.799 289.121 191.723 291.84 201.784 288.806Z" fill="white"/>
</mask>
<g mask="url(#mask12_70_7241)">
<path opacity="0.3" d="M201.784 288.806L201.392 292.7C201.392 292.7 194.803 296.233 189.012 292.961L187.799 289.121C187.799 289.121 191.723 291.84 201.784 288.806Z" fill="black"/>
</g>
<path d="M201.784 288.806L201.392 292.7C201.392 292.7 194.803 296.233 189.012 292.961L187.799 289.121C187.799 289.121 191.723 291.84 201.784 288.806Z" stroke="#263238" stroke-linecap="round" stroke-linejoin="round"/>
<path d="M152.302 282.363L148.585 288.645L146.872 308.859C146.872 308.859 149.875 317.583 147.802 319.657C145.728 321.731 137.38 318.889 134.83 311.209C132.28 303.529 133.847 301.225 133.294 298.053C132.741 294.881 129.362 288.376 132.703 286.533C136.044 284.69 141.312 283.738 141.312 283.738L144.261 277.386L152.302 282.363Z" fill="#FFBE9D" stroke="#263238" stroke-linecap="round" stroke-linejoin="round"/>
<path d="M133.263 298.061C132.672 294.927 129.331 288.384 132.672 286.541C134.87 285.455 137.19 284.637 139.584 284.106C139.396 284.981 139.033 285.809 138.516 286.541C138.516 286.541 138.386 288.899 139.284 289.943C140.183 290.987 142.556 288.637 145.958 289.943C147.533 290.55 148.124 291.318 148.308 291.971L148.224 293.376L146.911 308.89C146.911 308.89 149.913 317.614 147.84 319.688C145.766 321.761 137.418 318.92 134.868 311.24C132.319 303.56 133.847 301.202 133.263 298.061Z" fill="#47C2C9"/>
<mask id="mask13_70_7241" style="mask-type:luminance" maskUnits="userSpaceOnUse" x="131" y="284" width="18" height="37">
<path d="M133.263 298.061C132.672 294.927 129.331 288.384 132.672 286.541C134.87 285.455 137.19 284.637 139.584 284.106C139.396 284.981 139.033 285.809 138.516 286.541C138.516 286.541 138.386 288.899 139.284 289.943C140.183 290.987 142.556 288.637 145.958 289.943C147.533 290.55 148.124 291.318 148.308 291.971L148.224 293.376L146.911 308.89C146.911 308.89 149.913 317.614 147.84 319.688C145.766 321.761 137.418 318.92 134.868 311.24C132.319 303.56 133.847 301.202 133.263 298.061Z" fill="white"/>
</mask>
<g mask="url(#mask13_70_7241)">
<path opacity="0.3" d="M133.263 298.061C132.672 294.927 129.331 288.384 132.672 286.541C134.87 285.455 137.19 284.637 139.584 284.106C139.396 284.981 139.033 285.809 138.516 286.541C138.516 286.541 138.386 288.899 139.284 289.943C140.183 290.987 142.556 288.637 145.958 289.943C147.533 290.55 148.124 291.318 148.308 291.971L148.224 293.376L146.911 308.89C146.911 308.89 149.913 317.614 147.84 319.688C145.766 321.761 137.418 318.92 134.868 311.24C132.319 303.56 133.847 301.202 133.263 298.061Z" fill="black"/>
</g>
<path d="M133.263 298.061C132.672 294.927 129.331 288.384 132.672 286.541C134.87 285.455 137.19 284.637 139.584 284.106C139.396 284.981 139.033 285.809 138.516 286.541C138.516 286.541 138.386 288.899 139.284 289.943C140.183 290.987 142.556 288.637 145.958 289.943C147.533 290.55 148.124 291.318 148.308 291.971L148.224 293.376L146.911 308.89C146.911 308.89 149.913 317.614 147.84 319.688C145.766 321.761 137.418 318.92 134.868 311.24C132.319 303.56 133.847 301.202 133.263 298.061Z" stroke="#263238" stroke-linecap="round" stroke-linejoin="round"/>
<path d="M134.83 311.217C132.28 303.537 133.847 301.233 133.294 298.061C132.741 294.889 129.362 288.384 132.703 286.541C132.864 286.449 133.041 286.372 133.21 286.287C133.041 287.587 133.025 288.901 133.164 290.204C133.617 293.868 135.644 294.812 135.905 302.769C136.166 310.725 138.394 311.401 138.394 311.401C138.394 311.401 143.631 313.628 146.243 316.378C147.279 317.468 148.024 317.56 148.547 317.292C148.6 318.139 148.343 318.977 147.825 319.649C145.736 321.723 137.38 318.874 134.83 311.217Z" fill="#FFBE9D" stroke="#263238" stroke-linecap="round" stroke-linejoin="round"/>
<path d="M146.603 318.674C146.603 318.674 143.071 318.774 137.771 312.883" stroke="#263238" stroke-linecap="round" stroke-linejoin="round"/>
<path d="M117.12 222.09C117.12 222.09 108.956 238.418 119.386 239.862C129.815 241.306 161.749 239.447 161.749 239.447C157.75 245.86 154.206 252.545 151.142 259.453C147.011 269.238 142.848 279.291 142.848 279.291C142.848 279.291 144.645 284.114 151.941 285.074C151.941 285.074 157.862 275.858 170.811 261.381C183.759 246.904 187.346 232.458 184.589 227.497C181.832 222.536 167.508 219.817 144.369 218.788L117.12 222.09Z" fill="#FFBE9D"/>
<mask id="mask14_70_7241" style="mask-type:luminance" maskUnits="userSpaceOnUse" x="114" y="218" width="72" height="68">
<path d="M117.12 222.09C117.12 222.09 108.956 238.418 119.386 239.862C129.815 241.306 161.749 239.447 161.749 239.447C157.75 245.86 154.206 252.545 151.142 259.453C147.011 269.238 142.848 279.291 142.848 279.291C142.848 279.291 144.645 284.114 151.941 285.074C151.941 285.074 157.862 275.858 170.811 261.381C183.759 246.904 187.346 232.458 184.589 227.497C181.832 222.536 167.508 219.817 144.369 218.788L117.12 222.09Z" fill="white"/>
</mask>
<g mask="url(#mask14_70_7241)">
<path opacity="0.5" d="M117.12 222.09C117.12 222.09 108.956 238.418 119.386 239.862C129.815 241.306 161.749 239.447 161.749 239.447C157.75 245.86 154.206 252.545 151.142 259.453C147.011 269.238 142.848 279.291 142.848 279.291C142.848 279.291 144.645 284.114 151.941 285.074C151.941 285.074 157.862 275.858 170.811 261.381C183.759 246.904 187.346 232.458 184.589 227.497C181.832 222.536 167.508 219.817 144.369 218.788L117.12 222.09Z" fill="black"/>
<mask id="mask15_70_7241" style="mask-type:luminance" maskUnits="userSpaceOnUse" x="114" y="218" width="72" height="68">
<path d="M117.12 222.09C117.12 222.09 108.956 238.418 119.386 239.862C129.815 241.306 161.749 239.447 161.749 239.447C157.75 245.86 154.206 252.545 151.142 259.453C147.011 269.238 142.848 279.291 142.848 279.291C142.848 279.291 144.645 284.114 151.941 285.074C151.941 285.074 157.862 275.858 170.811 261.381C183.759 246.904 187.346 232.458 184.589 227.497C181.832 222.536 167.508 219.817 144.369 218.788L117.12 222.09Z" fill="white"/>
</mask>
<g mask="url(#mask15_70_7241)">
<path opacity="0.3" d="M167.539 234.939C164.306 230.922 134.684 237.573 123.763 236.867C118.003 236.498 115.584 232.681 114.586 229.187C113.526 233.795 113.633 239.086 119.37 239.885C129.807 241.329 161.733 239.47 161.733 239.47C157.735 245.883 154.191 252.568 151.127 259.476C147.011 269.238 142.848 279.291 142.848 279.291C143.457 280.602 144.39 281.736 145.559 282.586C142.656 273.83 170.68 238.848 167.539 234.939Z" fill="black"/>
</g>
</g>
<path d="M117.12 222.09C117.12 222.09 108.956 238.418 119.386 239.862C129.815 241.306 161.748 239.447 161.748 239.447C157.75 245.86 154.206 252.545 151.142 259.453C147.011 269.238 142.848 279.291 142.848 279.291C142.848 279.291 144.645 284.114 151.941 285.074C151.941 285.074 157.862 275.858 170.811 261.381C183.759 246.904 187.346 232.458 184.589 227.497C181.832 222.536 167.508 219.817 144.369 218.788L117.12 222.09Z" stroke="#263238" stroke-linecap="round" stroke-linejoin="round"/>
<path d="M164.244 236.866C165.012 236.214 166.625 234.931 170.834 233.026" stroke="#263238" stroke-linecap="round" stroke-linejoin="round"/>
<path d="M168.192 230.807C168.192 230.807 161.472 236.313 162.816 237.143" stroke="#263238" stroke-linecap="round" stroke-linejoin="round"/>
<path d="M154.445 283.699L151.964 286.725C151.964 286.725 144.53 286.042 141.496 280.12L142.602 276.28C142.602 276.28 144.384 280.666 154.445 283.699Z" fill="#FFBE9D"/>
<mask id="mask16_70_7241" style="mask-type:luminance" maskUnits="userSpaceOnUse" x="141" y="276" width="14" height="11">
<path d="M154.445 283.699L151.964 286.725C151.964 286.725 144.53 286.042 141.496 280.12L142.602 276.28C142.602 276.28 144.384 280.666 154.445 283.699Z" fill="white"/>
</mask>
<g mask="url(#mask16_70_7241)">
<path opacity="0.3" d="M154.445 283.699L151.964 286.725C151.964 286.725 144.53 286.042 141.496 280.12L142.602 276.28C142.602 276.28 144.384 280.666 154.445 283.699Z" fill="black"/>
</g>
<path d="M154.445 283.699L151.964 286.725C151.964 286.725 144.53 286.042 141.496 280.12L142.602 276.28C142.602 276.28 144.384 280.666 154.445 283.699Z" stroke="#263238" stroke-linecap="round" stroke-linejoin="round"/>
<path d="M163.776 205.586L164.905 212.091L159.659 213.757L155.627 206.016C155.627 206.016 160.305 201.984 163.776 205.586Z" fill="#FFBE9D" stroke="#263238" stroke-linecap="round" stroke-linejoin="round"/>
<path d="M172.93 216.361C173.698 217.129 175.549 217.19 174.305 215.524C173.281 214.186 171.899 213.166 170.319 212.582C167.547 211.346 166.479 211.599 163.96 211.046C161.441 210.493 160.988 211.515 160.12 211.991C158.054 213.128 157.555 213.32 157.048 214.456C156.541 215.593 155.95 217.083 157.563 217.083C159.037 217.083 159.099 214.648 160.558 214.779C162.017 214.909 162.685 217.083 163.684 217.083H164.068C164.92 217.083 164.966 216.369 164.444 215.255C163.922 214.141 163.353 213.135 163.353 213.135C164.196 213.578 164.871 214.285 165.273 215.147C165.957 216.599 166.08 217.213 167.339 217.213C168.599 217.213 168.507 216.276 167.255 214.218C167.981 214.65 168.582 215.265 168.998 216C169.613 217.16 169.935 217.083 170.742 217.083C171.794 217.083 171.725 215.339 169.851 214.195C169.843 214.195 170.258 213.688 172.93 216.361Z" fill="#FFBE9D" stroke="#263238" stroke-linecap="round" stroke-linejoin="round"/>
<path d="M165.611 212.198C165.611 212.198 166.379 212.16 166.809 213.404" stroke="#263238" stroke-linecap="round" stroke-linejoin="round"/>
<path d="M145.689 155.228C145.688 155.021 145.736 154.818 145.829 154.633C145.921 154.449 146.056 154.288 146.222 154.166C146.388 154.043 146.581 153.961 146.785 153.927C146.988 153.893 147.197 153.907 147.394 153.968C150.051 154.798 154.844 157.04 154.629 162.04C154.337 168.952 154.629 183.03 154.629 183.03C154.629 183.03 157.278 181.901 160.389 192.645C163.499 203.389 163.921 206.392 163.921 206.392C163.921 206.392 160.204 203.712 156.495 207.698C156.495 207.698 148.047 191.769 146.787 184.903C145.712 179.12 145.674 160.88 145.689 155.228Z" fill="#47C2C9" stroke="#263238" stroke-linecap="round" stroke-linejoin="round"/>
<path d="M164.905 207.698C164.905 207.698 160.581 204.895 156.495 209.388L153.945 206.392C153.945 206.392 157.017 203.674 160.389 203.581C163.76 203.489 164.905 204.703 164.905 204.703V207.698Z" fill="#47C2C9"/>
<mask id="mask17_70_7241" style="mask-type:luminance" maskUnits="userSpaceOnUse" x="153" y="203" width="12" height="7">
<path d="M164.905 207.698C164.905 207.698 160.581 204.895 156.495 209.388L153.945 206.392C153.945 206.392 157.017 203.674 160.389 203.581C163.76 203.489 164.905 204.703 164.905 204.703V207.698Z" fill="white"/>
</mask>
<g mask="url(#mask17_70_7241)">
<path opacity="0.6" d="M164.905 207.698C164.905 207.698 160.581 204.895 156.495 209.388L153.945 206.392C153.945 206.392 157.017 203.674 160.389 203.581C163.76 203.489 164.905 204.703 164.905 204.703V207.698Z" fill="#FFBE9D"/>
</g>
<path d="M164.905 207.698C164.905 207.698 160.581 204.895 156.495 209.388L153.945 206.392C153.945 206.392 157.017 203.674 160.389 203.581C163.76 203.489 164.905 204.703 164.905 204.703V207.698Z" stroke="#263238" stroke-linecap="round" stroke-linejoin="round"/>
<path d="M155.443 192.522C155.251 183.529 157.693 172.47 152.816 166.472C152.816 166.472 153.008 157.102 145.697 153.539C138.386 149.975 120.207 148.293 115.522 152.041C111.582 155.197 117.012 186.601 117.826 209.987C117.972 214.403 116.49 218.534 116.29 222.129C116.29 222.129 117.788 224.94 125.284 222.129C132.779 219.318 154.329 218.481 154.329 218.481C154.329 218.481 155.627 201.516 155.443 192.522Z" fill="#47C2C9"/>
<mask id="mask18_70_7241" style="mask-type:luminance" maskUnits="userSpaceOnUse" x="114" y="149" width="42" height="75">
<path d="M155.443 192.522C155.251 183.529 157.693 172.47 152.816 166.472C152.816 166.472 153.008 157.102 145.697 153.539C138.386 149.975 120.207 148.293 115.522 152.041C111.582 155.197 117.012 186.601 117.826 209.987C117.972 214.403 116.49 218.534 116.29 222.129C116.29 222.129 117.788 224.94 125.284 222.129C132.779 219.318 154.329 218.481 154.329 218.481C154.329 218.481 155.627 201.516 155.443 192.522Z" fill="white"/>
</mask>
<g mask="url(#mask18_70_7241)">
<path opacity="0.3" d="M155.251 202.752C153.63 205.133 150.458 208.719 146.035 208.896C139.338 209.157 145.082 195.886 143.47 194.465C141.857 193.044 136.058 208.627 125.091 206.461C114.124 204.296 123.118 201.654 123.371 193.536C123.624 185.418 125.867 171.679 120.998 171.802C119.024 171.855 117.096 175.496 115.499 179.812C116.413 189.558 117.511 200.425 117.803 209.964C117.949 214.38 116.467 218.511 116.267 222.106C116.267 222.106 117.765 224.916 125.26 222.106C132.756 219.295 154.306 218.458 154.306 218.458C154.306 218.458 154.92 210.632 155.251 202.752Z" fill="black"/>
</g>
<path d="M155.443 192.522C155.251 183.529 157.693 172.47 152.816 166.472C152.816 166.472 153.008 157.102 145.697 153.539C138.386 149.975 120.207 148.293 115.522 152.041C111.582 155.197 117.012 186.601 117.826 209.987C117.972 214.403 116.49 218.534 116.29 222.129C116.29 222.129 117.788 224.94 125.284 222.129C132.779 219.318 154.329 218.481 154.329 218.481C154.329 218.481 155.627 201.516 155.443 192.522Z" stroke="#263238" stroke-linecap="round" stroke-linejoin="round"/>
<path d="M144.384 152.963C145.567 155.267 147.333 159.245 146.688 160.788C145.69 163.039 143.186 158.039 141.811 158.285C140.436 158.531 139.315 161.702 136.689 161.357C134.269 161.05 130.675 153.784 125.123 149.921C131.574 149.814 139.53 151.05 144.384 152.963Z" fill="#47C2C9"/>
<mask id="mask19_70_7241" style="mask-type:luminance" maskUnits="userSpaceOnUse" x="125" y="149" width="22" height="13">
<path d="M144.384 152.963C145.567 155.267 147.333 159.245 146.688 160.788C145.69 163.039 143.186 158.039 141.811 158.285C140.436 158.531 139.315 161.702 136.689 161.357C134.269 161.05 130.675 153.784 125.123 149.921C131.574 149.814 139.53 151.05 144.384 152.963Z" fill="white"/>
</mask>
<g mask="url(#mask19_70_7241)">
<path opacity="0.7" d="M144.384 152.963C145.567 155.267 147.333 159.245 146.688 160.788C145.69 163.039 143.186 158.039 141.811 158.285C140.436 158.531 139.315 161.702 136.689 161.357C134.269 161.05 130.675 153.784 125.123 149.921C131.574 149.814 139.53 151.05 144.384 152.963Z" fill="#FFBE9D"/>
</g>
<path d="M144.384 152.963C145.567 155.267 147.333 159.245 146.688 160.788C145.69 163.039 143.186 158.039 141.811 158.285C140.436 158.531 139.315 161.702 136.689 161.357C134.269 161.05 130.675 153.784 125.123 149.921C131.574 149.814 139.53 151.05 144.384 152.963Z" stroke="#263238" stroke-linecap="round" stroke-linejoin="round"/>
<path d="M127.265 217.444C116.767 218.534 125.069 213.343 125.069 213.343" stroke="#263238" stroke-linecap="round" stroke-linejoin="round"/>
<path d="M144.046 192.806C141.266 200.794 135.79 214.057 129.208 216.922" stroke="#263238" stroke-linecap="round" stroke-linejoin="round"/>
<path d="M146.012 186.624C146.012 186.624 145.658 187.868 145.021 189.865" stroke="#263238" stroke-linecap="round" stroke-linejoin="round"/>
<path d="M147.102 213.757C147.102 213.757 150.681 215.416 151.849 216.008C152.225 216.2 153.945 216.852 152.693 217.444C151.618 217.951 148.224 216.23 148.224 216.23L144.944 215.57L147.102 213.757Z" fill="#FFBE9D"/>
<mask id="mask20_70_7241" style="mask-type:luminance" maskUnits="userSpaceOnUse" x="144" y="213" width="10" height="5">
<path d="M147.102 213.757C147.102 213.757 150.681 215.416 151.849 216.008C152.225 216.2 153.945 216.852 152.693 217.444C151.618 217.951 148.224 216.23 148.224 216.23L144.944 215.57L147.102 213.757Z" fill="white"/>
</mask>
<g mask="url(#mask20_70_7241)">
<path opacity="0.2" d="M147.102 213.757C147.102 213.757 150.681 215.416 151.849 216.008C152.225 216.2 153.945 216.852 152.693 217.444C151.618 217.951 148.224 216.23 148.224 216.23L144.944 215.57L147.102 213.757Z" fill="black"/>
</g>
<path d="M147.102 213.757C147.102 213.757 150.681 215.416 151.849 216.008C152.225 216.2 153.945 216.852 152.693 217.444C151.618 217.951 148.224 216.23 148.224 216.23L144.944 215.57L147.102 213.757Z" stroke="#263238" stroke-linecap="round" stroke-linejoin="round"/>
<path d="M126.428 209.664L136.266 215.193C138.035 216.735 140.294 217.598 142.641 217.628C143.723 217.652 144.794 217.408 145.759 216.918C146.724 216.427 147.552 215.705 148.17 214.817L150.228 215.094C150.228 215.094 152.755 217.436 153.508 216.407V215.808L151.849 214.218L150.981 213.604L152.417 213.872C153.038 214.498 153.811 214.95 154.66 215.186C154.66 215.186 158.784 217.49 159.222 216.054C159.222 216.054 160.474 216.307 160.758 215.685C161.042 215.063 160.259 214.218 160.259 214.218C160.512 214.253 160.771 214.214 161.003 214.105C161.234 213.996 161.43 213.822 161.564 213.604C161.94 212.874 160.028 212.183 159.506 211.807C158.984 211.43 156.257 209.433 154.76 209.311C153.262 209.188 143.017 211.438 141.512 210.685C140.006 209.933 130.391 202.375 130.391 202.375L125.207 208.688L126.428 209.664Z" fill="#FFBE9D" stroke="#263238" stroke-linecap="round" stroke-linejoin="round"/>
<path d="M158.661 215.124C158.661 215.124 153.538 212.006 152.786 211.691C152.033 211.377 149.23 211.691 149.23 211.691" stroke="#263238" stroke-linecap="round" stroke-linejoin="round"/>
<path d="M158.914 213.343C157.582 212.473 156.205 211.674 154.79 210.946C154.509 210.748 154.182 210.623 153.84 210.583C153.498 210.542 153.151 210.588 152.832 210.716" stroke="#263238" stroke-linecap="round" stroke-linejoin="round"/>
<path d="M117.189 152.709C116.643 152.025 116.083 151.749 115.522 152.041C115.522 152.041 112.151 153.17 110.023 162.793C107.896 172.416 106.775 195.778 108.649 198.528C110.523 201.277 126.52 210.271 126.52 210.271C126.52 210.271 127.288 207.275 132.664 204.027C132.664 204.027 122.795 194.404 121.298 194.811C121.298 194.811 122.457 193.521 119.923 193.06C119.923 193.06 120.691 184.942 120.691 180.687C120.691 180.687 122.688 176.939 122.066 170.573" fill="#47C2C9"/>
<path d="M117.189 152.709C116.643 152.025 116.083 151.749 115.522 152.041C115.522 152.041 112.151 153.17 110.023 162.793C107.896 172.416 106.775 195.778 108.649 198.528C110.523 201.277 126.52 210.271 126.52 210.271C126.52 210.271 127.288 207.275 132.664 204.027C132.664 204.027 122.795 194.404 121.298 194.811C121.298 194.811 122.457 193.521 119.923 193.06C119.923 193.06 120.691 184.942 120.691 180.687C120.691 180.687 122.688 176.939 122.066 170.573" stroke="#263238" stroke-linecap="round" stroke-linejoin="round"/>
<path d="M118.809 170.918C119.577 173.56 120.553 177.385 120.023 178.744C119.178 180.902 118.026 174.535 115.991 173.03" stroke="#263238" stroke-linecap="round" stroke-linejoin="round"/>
<path d="M117.957 168.253C117.957 168.253 118.126 168.737 118.372 169.505" stroke="#263238" stroke-linecap="round" stroke-linejoin="round"/>
<path d="M117.189 195.54C116.421 195.871 115.246 196.116 114.777 198.052" stroke="#263238" stroke-linecap="round" stroke-linejoin="round"/>
<path opacity="0.3" d="M113.18 193.928C113.18 193.928 117.396 192.806 117.788 194.488L113.18 193.928Z" fill="black"/>
<path d="M134.976 205.056C134.976 205.056 131.228 206.277 128.886 211.899L125.422 210.862C125.422 210.862 126.075 205.809 132.726 202.153L134.976 205.056Z" fill="#47C2C9"/>
<mask id="mask21_70_7241" style="mask-type:luminance" maskUnits="userSpaceOnUse" x="125" y="202" width="10" height="10">
<path d="M134.976 205.056C134.976 205.056 131.228 206.277 128.886 211.899L125.422 210.862C125.422 210.862 126.075 205.809 132.726 202.153L134.976 205.056Z" fill="white"/>
</mask>
<g mask="url(#mask21_70_7241)">
<path opacity="0.6" d="M134.976 205.056C134.976 205.056 131.228 206.277 128.886 211.899L125.422 210.862C125.422 210.862 126.075 205.809 132.726 202.153L134.976 205.056Z" fill="#FFBE9D"/>
</g>
<path d="M134.976 205.056C134.976 205.056 131.228 206.277 128.886 211.899L125.422 210.862C125.422 210.862 126.075 205.809 132.726 202.153L134.976 205.056Z" stroke="#263238" stroke-linecap="round" stroke-linejoin="round"/>
<path d="M147.379 113.81C147.379 113.81 158.899 114.685 157.002 117.934C155.105 121.183 163.753 122.934 161.249 126.428C158.745 129.922 164.229 135.644 160.927 137.295C157.624 138.946 158.623 142.794 159.874 144.922C161.126 147.049 157.002 149.169 154.007 148.762C151.012 148.354 154.775 152.386 153.508 153.139C152.24 153.892 150.881 150.635 148.569 151.012C146.258 151.388 141.389 148.869 139.952 149.253C138.516 149.637 120.207 148.639 120.176 147.387C120.146 146.135 122.02 146.143 121.774 144.891C121.528 143.639 118.395 144.545 118.087 141.819C117.78 139.092 120.238 138.209 120.176 135.675C120.115 133.14 118.087 134.016 118.057 130.522C118.026 127.027 123.149 126.52 123.517 124.777C123.886 123.034 118.871 123.057 120.683 119.915C122.496 116.774 127.641 117.903 129.016 116.152C130.391 114.401 126.075 114.079 129.139 111.782C132.203 109.486 143.416 109.056 147.379 113.81Z" fill="#263238" stroke="#263238" stroke-linecap="round" stroke-linejoin="round"/>
<path d="M142.126 152.939C143.001 154.007 145.382 157.417 140.014 157.286C134.645 157.156 126.52 149.929 126.52 149.929C126.52 149.929 129.769 148.669 131.896 143.67C132.825 141.488 134.899 134.676 134.899 134.676L143.117 143.547L140.544 150.666C140.544 150.666 141.772 152.509 142.126 152.939Z" fill="#FFBE9D"/>
<mask id="mask22_70_7241" style="mask-type:luminance" maskUnits="userSpaceOnUse" x="126" y="134" width="18" height="24">
<path d="M142.126 152.939C143.001 154.007 145.382 157.417 140.014 157.286C134.645 157.156 126.52 149.929 126.52 149.929C126.52 149.929 129.769 148.669 131.896 143.67C132.825 141.488 134.899 134.676 134.899 134.676L143.117 143.547L140.544 150.666C140.544 150.666 141.772 152.509 142.126 152.939Z" fill="white"/>
</mask>
<g mask="url(#mask22_70_7241)">
<path d="M142.241 149.929C142.241 149.929 134.907 146.15 134.077 139.876C133.248 133.601 134.761 133.862 134.761 133.862L137.656 140.421L141.496 144.537L143.5 147.84L142.241 149.929Z" fill="#263238"/>
</g>
<path d="M142.126 152.939C143.001 154.007 145.382 157.417 140.014 157.286C134.645 157.156 126.52 149.929 126.52 149.929C126.52 149.929 129.769 148.669 131.896 143.67C132.825 141.488 134.899 134.676 134.899 134.676L143.117 143.547L140.544 150.666C140.544 150.666 141.772 152.509 142.126 152.939Z" stroke="#263238" stroke-linecap="round" stroke-linejoin="round"/>
<path d="M154.368 122.68C154.368 122.68 155.988 130.299 154.675 132.802C153.362 135.306 154.552 138.547 151.926 141.55C149.299 144.553 147.387 149.921 144.184 149.168C139.991 148.178 135.268 142.548 134.968 140.298C134.81 138.864 134.81 137.416 134.968 135.982C134.616 136.007 134.262 135.951 133.934 135.818C133.606 135.685 133.314 135.478 133.079 135.214C132.081 134.277 130.775 130.475 133.079 129.216C135.106 128.118 135.928 130.468 135.928 130.468L141.757 122.096L154.368 122.68Z" fill="#FFBE9D" stroke="#263238" stroke-linecap="round" stroke-linejoin="round"/>
<path d="M150.005 136.489C149.629 137.671 151.38 139.607 150.82 140.482C150.259 141.358 148.823 140.92 148.823 141.796" stroke="#263238" stroke-linecap="round" stroke-linejoin="round"/>
<path d="M148.132 143.424C148.132 143.424 145.321 143.792 143.669 141.796" stroke="#263238" stroke-linecap="round" stroke-linejoin="round"/>
<path d="M151.703 135.575C151.511 136.228 151.595 136.835 151.903 136.927C152.21 137.019 152.609 136.558 152.801 135.898C152.993 135.237 152.909 134.638 152.602 134.554C152.294 134.469 151.903 134.922 151.703 135.575Z" fill="#263238"/>
<path d="M145.59 134.4C145.39 135.053 145.482 135.659 145.782 135.752C146.081 135.844 146.488 135.383 146.68 134.723C146.872 134.062 146.788 133.463 146.488 133.371C146.189 133.279 145.782 133.716 145.59 134.4Z" fill="#263238"/>
<path d="M154.007 133.425C154.007 133.425 153.193 131.612 151.196 133.862" stroke="#263238" stroke-linecap="round" stroke-linejoin="round"/>
<path d="M148.569 132.733C148.569 132.733 146.442 129.869 144.199 132.242" stroke="#263238" stroke-linecap="round" stroke-linejoin="round"/>
<path d="M150.251 120.184C150.251 120.184 150.305 125.56 152.602 125.614C154.898 125.668 152.678 129.585 155.889 130.022C159.099 130.46 155.889 123.556 155.889 123.556L153.784 121.029L150.251 120.184Z" fill="#263238" stroke="#263238" stroke-linecap="round" stroke-linejoin="round"/>
<path d="M150.942 120.184C150.942 120.184 149.629 125.053 147.287 125.614C144.944 126.175 143.262 126.551 142.794 128.617C142.325 130.683 139.607 131.051 138.478 132.549C137.349 134.047 139.323 140.175 136.888 141.051C137.219 139.665 137.219 138.22 136.888 136.834C136.327 134.615 134.876 132.457 135.928 128.525C136.98 124.593 141.665 120.184 141.665 120.184L146.38 119.624L150.942 120.184Z" fill="#263238" stroke="#263238" stroke-linecap="round" stroke-linejoin="round"/>
<path d="M133.993 136.266C133.993 136.266 134.93 141.327 133.993 143.247C133.056 145.167 135.675 145.966 134.415 147.464C133.156 148.961 128.002 149.998 126.873 147.464C125.744 144.929 132.641 135.752 133.993 136.266Z" fill="#263238" stroke="#263238" stroke-linecap="round" stroke-linejoin="round"/>
<path d="M156.495 142.702C157.501 145.666 154.913 145.866 152.601 146.381C150.29 146.895 151.196 150.351 151.196 150.351" stroke="#7F7F7F" stroke-width="0.75" stroke-linecap="round" stroke-linejoin="round"/>
<path d="M158.4 136.704C157.263 137.902 156.18 139.584 156.265 141.435" stroke="#7F7F7F" stroke-width="0.75" stroke-linecap="round" stroke-linejoin="round"/>
<path d="M158.73 127.787C158.63 130.483 160.819 134.638 159.498 135.705" stroke="#7F7F7F" stroke-width="0.75" stroke-linecap="round" stroke-linejoin="round"/>
<path d="M155.205 121.029C155.205 121.029 160.873 124.024 159.191 126.274" stroke="#7F7F7F" stroke-width="0.75" stroke-linecap="round" stroke-linejoin="round"/>
<path d="M155.32 118.272C154.944 118.825 154.053 118.771 154.007 119.616" stroke="#7F7F7F" stroke-width="0.75" stroke-linecap="round" stroke-linejoin="round"/>
<path d="M148.132 115.2C148.132 115.2 155.313 115.968 155.474 117.45" stroke="#7F7F7F" stroke-width="0.75" stroke-linecap="round" stroke-linejoin="round"/>
<path d="M120.868 130.038C121.236 131.712 124.139 135.168 122.55 137.794C120.96 140.421 119.931 141.358 122.173 142.295" stroke="#7F7F7F" stroke-width="0.75" stroke-linecap="round" stroke-linejoin="round"/>
<path d="M124.047 121.029C124.331 122.803 127.211 122.903 126.52 125.806C126.036 127.857 123.218 128.294 121.743 128.962" stroke="#7F7F7F" stroke-width="0.75" stroke-linecap="round" stroke-linejoin="round"/>
<path d="M131.236 115.576C130.982 117.757 133.033 118.31 129.953 119.624C128.595 120.189 127.117 120.408 125.652 120.261" stroke="#7F7F7F" stroke-width="0.75" stroke-linecap="round" stroke-linejoin="round"/>
<path d="M145.92 115.2C145.92 115.2 133.747 110.231 131.812 113.887" stroke="#7F7F7F" stroke-width="0.75" stroke-linecap="round" stroke-linejoin="round"/>
<path d="M125.068 142.702C125.452 144.361 123.486 146.381 123.486 146.381" stroke="#7F7F7F" stroke-width="0.75" stroke-linecap="round" stroke-linejoin="round"/>
<path d="M129.024 123.087C128.555 124.961 130.337 125.898 129.684 127.864C129.031 129.83 125.437 129.016 125.076 130.552C124.715 132.088 127.587 134.146 126.528 137.142C125.998 138.678 125.537 139.615 125.26 140.421" stroke="#7F7F7F" stroke-width="0.75" stroke-linecap="round" stroke-linejoin="round"/>
<path d="M134.077 120.184C133.425 121.958 131.773 121.92 130.552 122.097" stroke="#7F7F7F" stroke-width="0.75" stroke-linecap="round" stroke-linejoin="round"/>
<path d="M133.708 116.736C133.767 117.383 133.915 118.018 134.146 118.625" stroke="#7F7F7F" stroke-width="0.75" stroke-linecap="round" stroke-linejoin="round"/>
<path d="M147.402 116.905C147.402 116.905 135.444 112.297 134.077 115.215" stroke="#7F7F7F" stroke-width="0.75" stroke-linecap="round" stroke-linejoin="round"/>
<path d="M130.56 136.934C130.168 138.033 128.816 138.808 128.67 140.421C128.486 142.579 129.239 144.146 128.018 145.981" stroke="#7F7F7F" stroke-width="0.75" stroke-linecap="round" stroke-linejoin="round"/>
<path d="M137.165 121.136C136.918 121.987 136.501 122.778 135.938 123.462C135.376 124.146 134.68 124.709 133.893 125.115C131.919 126.182 132.203 128.77 130.89 130.337C129.577 131.904 129.861 133.77 130.514 135.713" stroke="#7F7F7F" stroke-width="0.75" stroke-linecap="round" stroke-linejoin="round"/>
<path d="M149.445 118.587C149.445 118.587 138.478 116.529 137.641 119.624" stroke="#7F7F7F" stroke-width="0.75" stroke-linecap="round" stroke-linejoin="round"/>
<path d="M152.601 118.31C152.601 118.31 152.271 116.659 149.445 117.419" stroke="#7F7F7F" stroke-width="0.75" stroke-linecap="round" stroke-linejoin="round"/>
<path d="M148.823 121.029C148.307 121.818 147.629 122.489 146.835 122.997C146.041 123.506 145.148 123.84 144.215 123.978C140.974 124.477 140.974 128.102 139.476 129.101C137.979 130.099 136.205 130.337 137.103 134.991" stroke="#7F7F7F" stroke-width="0.75" stroke-linecap="round" stroke-linejoin="round"/>
<path d="M140.544 150.666C140.544 150.666 139.653 152.287 141.527 153.915L140.544 150.666Z" fill="#FFBE9D"/>
<path d="M140.544 150.666C140.544 150.666 139.653 152.287 141.527 153.915" stroke="#263238" stroke-linecap="round" stroke-linejoin="round"/>
<path d="M159.559 217.344L173.829 191.585C174.113 191.074 174.528 190.648 175.032 190.351C175.535 190.054 176.109 189.897 176.694 189.896H177.869V219.51H160.834C160.581 219.509 160.331 219.443 160.111 219.317C159.891 219.191 159.707 219.009 159.579 218.791C159.45 218.572 159.38 218.324 159.377 218.07C159.374 217.816 159.437 217.566 159.559 217.344Z" fill="#263238" stroke="#263238" stroke-linecap="round" stroke-linejoin="round"/>
<path d="M161.848 219.51H190.525C191.025 219.509 191.515 219.374 191.946 219.12C192.377 218.867 192.732 218.503 192.975 218.066L207.682 191.508C207.773 191.343 207.818 191.156 207.815 190.968C207.812 190.779 207.76 190.594 207.664 190.432C207.568 190.269 207.431 190.134 207.268 190.04C207.104 189.946 206.919 189.896 206.73 189.896H177.707C177.122 189.898 176.547 190.056 176.043 190.352C175.538 190.649 175.121 191.075 174.835 191.585L160.573 217.344C160.45 217.566 160.387 217.816 160.391 218.07C160.394 218.324 160.464 218.572 160.592 218.791C160.721 219.009 160.905 219.191 161.125 219.317C161.345 219.443 161.594 219.509 161.848 219.51Z" fill="#FFBE9D"/>
<mask id="mask23_70_7241" style="mask-type:luminance" maskUnits="userSpaceOnUse" x="160" y="189" width="48" height="31">
<path d="M161.848 219.51H190.525C191.025 219.509 191.515 219.374 191.946 219.12C192.377 218.867 192.732 218.503 192.975 218.066L207.682 191.508C207.773 191.343 207.818 191.156 207.815 190.968C207.812 190.779 207.76 190.594 207.664 190.432C207.568 190.269 207.431 190.134 207.268 190.04C207.104 189.946 206.919 189.896 206.73 189.896H177.707C177.122 189.898 176.547 190.056 176.043 190.352C175.538 190.649 175.121 191.075 174.835 191.585L160.573 217.344C160.45 217.566 160.387 217.816 160.391 218.07C160.394 218.324 160.464 218.572 160.592 218.791C160.721 219.009 160.905 219.191 161.125 219.317C161.345 219.443 161.594 219.509 161.848 219.51Z" fill="white"/>
</mask>
<g mask="url(#mask23_70_7241)">
<path opacity="0.2" d="M161.848 219.51H190.525C191.025 219.509 191.515 219.374 191.946 219.12C192.377 218.867 192.732 218.503 192.975 218.066L207.682 191.508C207.773 191.343 207.818 191.156 207.815 190.968C207.812 190.779 207.76 190.594 207.664 190.432C207.568 190.269 207.431 190.134 207.268 190.04C207.104 189.946 206.919 189.896 206.73 189.896H177.707C177.122 189.898 176.547 190.056 176.043 190.352C175.538 190.649 175.121 191.075 174.835 191.585L160.573 217.344C160.45 217.566 160.387 217.816 160.391 218.07C160.394 218.324 160.464 218.572 160.592 218.791C160.721 219.009 160.905 219.191 161.125 219.317C161.345 219.443 161.594 219.509 161.848 219.51Z" fill="black"/>
</g>
<path d="M161.848 219.51H190.525C191.025 219.509 191.515 219.374 191.946 219.12C192.377 218.867 192.732 218.503 192.975 218.066L207.682 191.508C207.773 191.343 207.818 191.156 207.815 190.968C207.812 190.779 207.76 190.594 207.664 190.432C207.568 190.269 207.431 190.134 207.268 190.04C207.104 189.946 206.919 189.896 206.73 189.896H177.707C177.122 189.898 176.547 190.056 176.043 190.352C175.538 190.649 175.121 191.075 174.835 191.585L160.573 217.344C160.45 217.566 160.387 217.816 160.391 218.07C160.394 218.324 160.464 218.572 160.592 218.791C160.721 219.009 160.905 219.191 161.125 219.317C161.345 219.443 161.594 219.509 161.848 219.51Z" stroke="#263238" stroke-linecap="round" stroke-linejoin="round"/>
<path d="M136.888 219.51H158.484C158.721 219.51 158.947 219.416 159.114 219.249C159.281 219.082 159.375 218.855 159.375 218.619V217.444H134.799C134.798 217.717 134.852 217.988 134.957 218.241C135.062 218.494 135.216 218.723 135.41 218.915C135.605 219.108 135.836 219.259 136.089 219.361C136.343 219.463 136.615 219.514 136.888 219.51Z" fill="#FFBE9D"/>
<mask id="mask24_70_7241" style="mask-type:luminance" maskUnits="userSpaceOnUse" x="134" y="217" width="26" height="3">
<path d="M136.888 219.51H158.484C158.721 219.51 158.947 219.416 159.114 219.249C159.281 219.082 159.375 218.855 159.375 218.619V217.444H134.799C134.798 217.717 134.852 217.988 134.957 218.241C135.062 218.494 135.216 218.723 135.41 218.915C135.605 219.108 135.836 219.259 136.089 219.361C136.343 219.463 136.615 219.514 136.888 219.51Z" fill="white"/>
</mask>
<g mask="url(#mask24_70_7241)">
<path opacity="0.4" d="M136.888 219.51H158.484C158.721 219.51 158.947 219.416 159.114 219.249C159.281 219.082 159.375 218.855 159.375 218.619V217.444H134.799C134.798 217.717 134.852 217.988 134.957 218.241C135.062 218.494 135.216 218.723 135.41 218.915C135.605 219.108 135.836 219.259 136.089 219.361C136.343 219.463 136.615 219.514 136.888 219.51Z" fill="black"/>
</g>
<path d="M136.888 219.51H158.484C158.721 219.51 158.947 219.416 159.114 219.249C159.281 219.082 159.375 218.855 159.375 218.619V217.444H134.799C134.798 217.717 134.852 217.988 134.957 218.241C135.062 218.494 135.216 218.723 135.41 218.915C135.605 219.108 135.836 219.259 136.089 219.361C136.343 219.463 136.615 219.514 136.888 219.51Z" stroke="#263238" stroke-linecap="round" stroke-linejoin="round"/>
</svg>
