<svg width="466" height="292" viewBox="0 0 466 292" fill="none" xmlns="http://www.w3.org/2000/svg">
<path d="M16.8441 226.148C18.3353 226.761 21.9888 226.68 21.9888 226.68C21.9888 226.68 21.2059 224.437 21.1375 224.297C20.336 222.72 17.801 220.121 15.7381 220.384C15.3964 220.439 15.0707 220.561 14.7821 220.742C14.4934 220.922 14.2481 221.158 14.062 221.433C13.8759 221.708 13.7531 222.016 13.7015 222.339C13.6499 222.661 13.6706 222.99 13.7623 223.304C14.104 224.624 15.5704 225.623 16.8441 226.148Z" fill="#263238"/>
<path d="M18.0994 236.088C19.6527 236.304 22.9085 235.416 23.1695 235.34C23.7072 237.094 24.3672 238.813 25.1453 240.485C25.5927 241.461 26.0773 242.43 26.5744 243.405C26.2824 242.997 26.009 242.634 25.9531 242.588C24.7415 241.262 21.5664 239.387 19.6465 240.147C19.3342 240.285 19.0558 240.482 18.8292 240.727C18.6027 240.972 18.4328 241.258 18.3305 241.568C18.2282 241.878 18.1957 242.205 18.2351 242.527C18.2745 242.849 18.3848 243.16 18.5592 243.44C19.2675 244.649 20.9575 245.245 22.3307 245.432C23.7038 245.619 26.5185 244.918 27.2579 244.725C27.4505 245.093 27.6431 245.461 27.8419 245.829C28.7863 247.581 29.737 249.333 30.6068 251.085C30.9175 251.704 31.1971 252.323 31.4829 252.942C31.2158 252.574 30.9921 252.27 30.9486 252.23C29.737 250.91 26.562 249.029 24.6483 249.794C24.3362 249.932 24.058 250.129 23.8314 250.373C23.6048 250.617 23.4346 250.903 23.3318 251.212C23.229 251.521 23.1957 251.847 23.234 252.169C23.2724 252.491 23.3816 252.802 23.5547 253.082C24.263 254.291 25.9531 254.887 27.3262 255.079C28.6994 255.272 31.2468 254.63 32.1229 254.402C32.3901 255.044 32.6635 255.681 32.8934 256.318C33.0363 256.75 33.2102 257.159 33.3345 257.608C33.4588 258.058 33.5892 258.478 33.7197 258.905C33.931 259.746 34.1609 260.604 34.3411 261.422C34.4715 262.006 34.5896 262.537 34.7076 263.086C34.4094 262.467 33.7943 261.27 33.7322 261.176C32.7442 259.699 29.9047 257.386 27.8916 257.871C27.561 257.963 27.2544 258.118 26.9911 258.327C26.7278 258.536 26.5137 258.795 26.3624 259.086C26.211 259.377 26.1258 259.694 26.112 260.018C26.0982 260.342 26.1562 260.665 26.2824 260.966C26.7856 262.263 28.3638 263.092 29.6935 263.477C31.1536 263.898 34.3846 263.512 34.7884 263.477C34.9872 264.388 35.1674 265.27 35.3228 266.111C35.4346 266.73 35.5402 267.326 35.6396 267.898H36.9382C36.814 267.262 36.6773 266.596 36.5344 265.901C36.3418 264.972 36.1119 263.991 35.8695 262.981C36.8425 262.611 37.7926 262.19 38.7152 261.72C39.7839 262.806 42.5116 264.056 42.8657 264.237C42.493 265.095 42.1202 265.924 41.7598 266.707L41.2006 267.875H42.5675L42.8968 267.139C43.2758 266.269 43.6673 265.329 44.0525 264.365C44.4439 264.441 47.65 265.054 49.1412 264.739C50.4957 264.447 52.136 263.729 52.7387 262.473C52.8851 262.184 52.9665 261.869 52.978 261.549C52.9894 261.229 52.9307 260.91 52.8054 260.612C52.6801 260.314 52.4909 260.043 52.2497 259.817C52.0084 259.59 51.7201 259.413 51.4029 259.296C49.427 258.671 46.4322 260.779 45.3138 262.187C45.2455 262.269 44.649 263.244 44.2824 263.863C44.4377 263.466 44.5931 263.086 44.7546 262.695C45.0653 261.883 45.3759 261.071 45.668 260.195C45.8047 259.769 45.9414 259.337 46.0843 258.905C46.2272 258.473 46.3266 258.005 46.4508 257.55C46.7242 256.493 46.9355 255.407 47.1281 254.309C47.8799 254.566 50.5703 255.442 51.9559 255.348C53.3414 255.255 55.0625 254.764 55.8827 253.625C56.0779 253.358 56.2117 253.055 56.2755 252.736C56.3394 252.418 56.3319 252.09 56.2536 251.774C56.1752 251.458 56.0278 251.161 55.8206 250.902C55.6134 250.642 55.351 250.426 55.0501 250.267C53.1861 249.374 49.8868 251.027 48.5696 252.259C48.4888 252.335 47.65 253.316 47.2027 253.865C47.3083 253.205 47.4263 252.545 47.5133 251.873C47.7681 249.934 47.9607 247.966 48.1347 245.998C48.1968 245.414 48.2651 244.801 48.3335 244.2C48.6007 244.293 51.7695 245.403 53.3042 245.297C54.6835 245.21 56.4108 244.713 57.2248 243.575C57.4202 243.308 57.5543 243.005 57.6186 242.687C57.683 242.368 57.676 242.041 57.5983 241.725C57.5206 241.409 57.3737 241.112 57.1672 240.852C56.9606 240.592 56.6988 240.376 56.3984 240.217C54.5344 239.323 51.2351 240.976 49.9179 242.208C49.8185 242.302 48.6131 243.715 48.3211 244.089C48.4702 242.769 48.6317 241.455 48.8492 240.164C49.1275 238.418 49.5281 236.692 50.0484 234.996C50.1726 235.042 53.4719 236.21 55.0625 236.105C56.4481 236.018 58.1692 235.521 58.9894 234.383C59.1848 234.115 59.3189 233.813 59.3832 233.494C59.4475 233.176 59.4406 232.848 59.3629 232.532C59.2852 232.217 59.1383 231.919 58.9318 231.66C58.7252 231.4 58.4634 231.184 58.163 231.025C56.299 230.131 52.9935 231.784 51.6763 233.016C51.5768 233.109 50.2783 234.634 50.067 234.931C50.067 234.832 50.1167 234.727 50.1478 234.628C50.7183 232.942 51.446 231.306 52.3224 229.74C52.8009 228.87 53.3042 228.064 53.8136 227.287C54.435 227.567 57.1191 228.805 58.5668 228.858C60.0146 228.91 61.7356 228.618 62.6676 227.55C62.8927 227.304 63.0608 227.017 63.1614 226.707C63.262 226.397 63.2928 226.07 63.2519 225.749C63.211 225.427 63.0993 225.116 62.9238 224.837C62.7483 224.558 62.513 224.316 62.2327 224.127C60.4992 223.047 57.0135 224.344 55.5596 225.436C55.4788 225.494 54.7519 226.177 54.2237 226.685C54.4598 226.341 54.6959 225.979 54.9258 225.652C55.7957 224.419 56.678 223.316 57.4609 222.393C57.9145 221.856 58.3307 221.377 58.7035 220.939C59.4367 220.939 62.3818 220.84 63.6742 220.273C64.9666 219.707 66.3646 218.685 66.669 217.353C66.7485 217.038 66.7574 216.711 66.6952 216.392C66.6329 216.074 66.5009 215.771 66.3075 215.503C66.1142 215.235 65.8636 215.008 65.5718 214.836C65.28 214.664 64.9533 214.55 64.6124 214.503C62.5434 214.293 60.0829 216.956 59.3249 218.55C59.2627 218.69 58.5047 220.956 58.542 220.956H58.5855C58.194 221.377 57.7778 221.827 57.3428 222.329C56.5351 223.263 55.6279 224.326 54.727 225.547C53.7384 226.849 52.8318 228.204 52.0118 229.605C51.089 231.174 50.3136 232.816 49.6942 234.511V234.575C49.6942 233.991 49.6942 232.397 49.6942 232.274C49.4519 230.522 47.911 227.328 45.8668 226.972C45.5252 226.924 45.1769 226.944 44.8439 227.03C44.5109 227.116 44.2007 227.266 43.933 227.471C43.6652 227.676 43.4459 227.931 43.2889 228.22C43.1319 228.509 43.0407 228.826 43.0211 229.15C42.903 230.528 43.9655 231.906 45.0031 232.771C46.1712 233.752 49.4084 234.704 49.6694 234.78C49.0964 236.498 48.6439 238.25 48.3148 240.024C48.116 241.069 47.9545 242.132 47.7991 243.195C47.7991 242.699 47.7991 242.255 47.7991 242.196C47.5568 240.444 46.0159 237.25 43.9655 236.894C43.6244 236.847 43.2767 236.868 42.9445 236.954C42.6123 237.04 42.3028 237.191 42.0358 237.396C41.7688 237.6 41.55 237.855 41.3933 238.144C41.2367 238.433 41.1457 238.749 41.126 239.072C41.008 240.444 42.0704 241.823 43.1081 242.693C44.1457 243.563 46.8982 244.445 47.6314 244.655L47.4636 245.881C47.2151 247.844 46.979 249.8 46.6807 251.721C46.5751 252.399 46.4446 253.059 46.3204 253.719C46.3204 253.281 46.3204 252.913 46.2893 252.854C46.0532 251.102 44.5061 247.908 42.4619 247.552C42.1208 247.505 41.7731 247.526 41.4409 247.612C41.1087 247.698 40.7992 247.849 40.5322 248.054C40.2651 248.258 40.0463 248.513 39.8897 248.802C39.7331 249.091 39.6421 249.407 39.6224 249.73C39.5043 251.102 40.5668 252.481 41.5982 253.351C42.6296 254.221 45.1274 255.009 45.9911 255.272C45.8419 255.95 45.6928 256.621 45.5126 257.269C45.3759 257.707 45.2827 258.14 45.1212 258.572C44.9596 259.004 44.8292 259.436 44.68 259.862C44.3694 260.668 44.0587 261.503 43.7232 262.286C43.5057 262.829 43.282 263.343 43.0584 263.863C43.1702 263.191 43.3628 261.871 43.3628 261.76C43.3403 260.225 42.8997 258.721 42.0829 257.392C42.0893 257.22 42.0768 257.048 42.0456 256.878C41.9989 256.558 41.8819 256.25 41.702 255.974C41.5221 255.698 41.2833 255.461 41.0005 255.276C40.7178 255.092 40.3975 254.964 40.0597 254.902C39.7219 254.84 39.3741 254.845 39.0383 254.916C37.0252 255.418 35.7515 258.735 35.6583 260.481C35.6583 260.581 35.7204 261.708 35.7763 262.415C35.6769 262 35.5837 261.603 35.4781 261.182C35.2668 260.341 35.0245 259.518 34.776 258.624C34.6393 258.198 34.5026 257.766 34.3597 257.328C34.2168 256.89 34.0366 256.452 33.8751 256.008C33.4774 254.986 33.0238 253.97 32.5392 252.954C33.3159 252.779 36.0684 252.119 37.1743 251.319C38.2803 250.518 39.4422 249.228 39.436 247.844C39.4411 247.52 39.3748 247.199 39.241 246.901C39.1073 246.603 38.9092 246.334 38.6592 246.112C38.4092 245.89 38.1127 245.719 37.7887 245.609C37.4646 245.5 37.12 245.456 36.7767 245.479C34.7076 245.689 32.912 248.784 32.533 250.495C32.533 250.6 32.3901 251.856 32.3342 252.551C32.0421 251.967 31.7501 251.33 31.427 250.729C30.5012 248.977 29.5133 247.225 28.5254 245.473L27.6369 243.873C27.9165 243.808 31.2033 243.09 32.446 242.202C33.5458 241.408 34.7139 240.106 34.7014 238.727C34.7075 238.404 34.6417 238.082 34.5084 237.783C34.375 237.484 34.177 237.215 33.9269 236.992C33.6768 236.769 33.3801 236.597 33.0556 236.488C32.7311 236.378 32.386 236.334 32.0421 236.356C29.9731 236.567 28.1774 239.662 27.8046 241.373C27.7736 241.501 27.5996 243.312 27.581 243.773C26.9286 242.605 26.2948 241.437 25.717 240.228C24.9199 238.646 24.2329 237.018 23.6603 235.352C23.7908 235.352 27.2268 234.593 28.4943 233.676C29.5941 232.882 30.7622 231.585 30.756 230.201C30.7611 229.878 30.6947 229.557 30.561 229.259C30.4273 228.96 30.2291 228.692 29.9791 228.469C29.7291 228.247 29.4327 228.076 29.1087 227.967C28.7846 227.858 28.44 227.813 28.0967 227.836C26.0276 228.046 24.232 231.141 23.853 232.852C23.853 232.987 23.6417 234.931 23.6355 235.288C23.5982 235.188 23.5547 235.089 23.5236 234.99C23.0089 233.288 22.6574 231.547 22.4736 229.786C22.3555 228.817 22.3058 227.883 22.2748 226.972C22.8961 226.896 25.922 226.522 27.1584 225.804C28.3949 225.085 29.6438 223.958 29.8115 222.586C29.8549 222.265 29.8267 221.938 29.7288 221.628C29.6308 221.317 29.4653 221.03 29.2427 220.782C29.0201 220.535 28.7453 220.334 28.4357 220.192C28.1261 220.05 27.7885 219.971 27.4443 219.958C25.3628 219.958 23.2192 222.843 22.6414 224.507C22.6414 224.595 22.4052 225.547 22.2623 226.259C22.2623 225.85 22.2623 225.424 22.2623 225.033C22.2623 223.555 22.3618 222.2 22.4612 221.003C22.5233 220.32 22.5916 219.707 22.6662 219.128C23.2875 218.743 25.6735 217.143 26.3942 216.004C27.115 214.865 27.7114 213.283 27.1709 211.998C27.052 211.693 26.8671 211.416 26.6278 211.182C26.3885 210.949 26.1002 210.765 25.7811 210.642C25.462 210.519 25.1192 210.459 24.7744 210.468C24.4296 210.476 24.0904 210.551 23.7784 210.69C21.9144 211.589 21.4484 215.081 21.7528 216.804C21.7528 216.956 22.4736 219.239 22.5109 219.222L22.5419 219.193C22.4612 219.777 22.3804 220.361 22.3058 220.986C22.1816 222.189 22.0511 223.543 22.0138 225.027C21.9523 226.626 21.9938 228.227 22.1381 229.821C22.2855 231.608 22.6016 233.379 23.0825 235.113V235.177C22.7532 234.692 21.7901 233.372 21.7031 233.279C20.4605 231.953 17.3165 230.078 15.4028 230.838C15.0908 230.975 14.8126 231.172 14.586 231.416C14.3593 231.661 14.1892 231.946 14.0864 232.255C13.9835 232.565 13.9502 232.891 13.9886 233.213C14.027 233.534 14.1362 233.845 14.3093 234.126C15.0362 235.305 16.7263 235.901 18.0994 236.088Z" fill="#263238"/>
<path d="M53.7824 226.901C53.7824 226.901 54.4473 224.618 54.4721 224.472C54.7269 222.72 54.1366 219.257 52.2664 218.404C51.9506 218.275 51.6097 218.208 51.2652 218.209C50.9208 218.21 50.5803 218.279 50.2654 218.41C49.9505 218.541 49.668 218.733 49.436 218.972C49.2039 219.211 49.0273 219.493 48.9174 219.8C48.4141 221.097 49.0479 222.691 49.8059 223.783C50.6882 225.068 53.7824 226.901 53.7824 226.901Z" fill="#263238"/>
<path d="M396.74 226.148C398.231 226.761 401.884 226.68 401.884 226.68C401.884 226.68 401.101 224.437 401.033 224.297C400.232 222.72 397.696 220.121 395.634 220.384C395.292 220.439 394.966 220.561 394.678 220.742C394.389 220.922 394.144 221.158 393.958 221.433C393.771 221.708 393.649 222.016 393.597 222.339C393.545 222.661 393.566 222.99 393.658 223.304C394 224.624 395.466 225.623 396.74 226.148Z" fill="#263238"/>
<path d="M397.995 236.088C399.548 236.304 402.804 235.416 403.065 235.34C403.603 237.094 404.263 238.813 405.041 240.485C405.488 241.461 405.973 242.43 406.47 243.405C406.178 242.997 405.904 242.634 405.849 242.588C404.606 241.262 401.462 239.387 399.542 240.147C399.23 240.285 398.951 240.482 398.725 240.727C398.498 240.972 398.328 241.258 398.226 241.568C398.124 241.878 398.091 242.205 398.131 242.527C398.17 242.849 398.28 243.16 398.455 243.44C399.163 244.649 400.853 245.245 402.226 245.432C403.599 245.619 406.414 244.918 407.153 244.725C407.346 245.093 407.539 245.461 407.737 245.829C408.682 247.581 409.601 249.333 410.502 251.085C410.813 251.704 411.093 252.323 411.378 252.942C411.111 252.574 410.888 252.27 410.844 252.23C409.601 250.91 406.457 249.029 404.544 249.794C404.232 249.932 403.954 250.129 403.727 250.373C403.5 250.617 403.33 250.903 403.227 251.212C403.124 251.521 403.091 251.847 403.13 252.169C403.168 252.491 403.277 252.802 403.45 253.082C404.159 254.291 405.849 254.887 407.222 255.079C408.595 255.272 411.142 254.63 412.018 254.402C412.286 255.044 412.559 255.681 412.789 256.318C412.932 256.75 413.106 257.159 413.23 257.608C413.354 258.058 413.485 258.478 413.615 258.905C413.826 259.746 414.056 260.604 414.237 261.422C414.367 262.006 414.485 262.537 414.603 263.086C414.305 262.467 413.69 261.27 413.628 261.176C412.64 259.699 409.8 257.386 407.787 257.871C407.457 257.963 407.15 258.118 406.887 258.327C406.623 258.536 406.409 258.795 406.258 259.086C406.107 259.377 406.021 259.694 406.007 260.018C405.994 260.342 406.052 260.665 406.178 260.966C406.681 262.263 408.259 263.092 409.589 263.477C411.049 263.898 414.28 263.512 414.684 263.477C414.883 264.388 415.063 265.27 415.218 266.111C415.33 266.73 415.436 267.326 415.535 267.898H416.834C416.709 267.262 416.573 266.596 416.43 265.901C416.237 264.972 416.007 263.991 415.765 262.981C416.738 262.611 417.688 262.19 418.611 261.72C419.679 262.806 422.407 264.056 422.761 264.237C422.388 265.095 422.016 265.924 421.655 266.707L421.096 267.875H422.507L422.836 267.139C423.215 266.269 423.606 265.329 423.992 264.365C424.383 264.441 427.589 265.054 429.08 264.739C430.435 264.447 432.075 263.729 432.678 262.473C432.828 262.181 432.912 261.864 432.924 261.54C432.936 261.216 432.877 260.894 432.749 260.593C432.622 260.292 432.43 260.019 432.184 259.792C431.938 259.564 431.645 259.388 431.323 259.273C429.347 258.648 426.353 260.756 425.234 262.163C425.166 262.245 424.569 263.22 424.203 263.839C424.358 263.442 424.513 263.063 424.675 262.671C424.986 261.86 425.296 261.048 425.588 260.172C425.725 259.746 425.862 259.313 426.005 258.881C426.148 258.449 426.247 257.982 426.371 257.526C426.645 256.469 426.856 255.383 427.048 254.285C427.8 254.542 430.491 255.418 431.876 255.325C433.262 255.231 434.983 254.741 435.803 253.602C435.997 253.332 436.128 253.028 436.189 252.707C436.251 252.387 436.24 252.058 436.158 251.742C436.076 251.426 435.925 251.129 435.714 250.871C435.503 250.613 435.237 250.4 434.933 250.244C433.069 249.35 429.77 251.003 428.453 252.235C428.372 252.311 427.533 253.292 427.086 253.841C427.191 253.181 427.309 252.522 427.396 251.85C427.651 249.911 427.844 247.943 428.049 245.975C428.111 245.391 428.179 244.778 428.248 244.176C428.515 244.27 431.684 245.379 433.218 245.274C434.598 245.187 436.325 244.69 437.139 243.551C437.334 243.284 437.468 242.982 437.533 242.663C437.597 242.345 437.59 242.017 437.512 241.701C437.435 241.385 437.288 241.088 437.081 240.829C436.875 240.569 436.613 240.353 436.313 240.193C434.449 239.3 431.143 240.953 429.832 242.185C429.733 242.278 428.527 243.691 428.235 244.065C428.384 242.745 428.546 241.431 428.763 240.141C429.042 238.395 429.442 236.668 429.963 234.972C430.087 235.019 433.386 236.187 434.977 236.082C436.362 235.994 438.083 235.498 438.904 234.359C439.099 234.092 439.233 233.79 439.297 233.471C439.362 233.153 439.355 232.825 439.277 232.509C439.199 232.193 439.052 231.896 438.846 231.636C438.639 231.377 438.378 231.16 438.077 231.001C436.213 230.108 432.908 231.76 431.59 232.993C431.491 233.086 430.192 234.61 429.981 234.908C429.981 234.809 430.031 234.704 430.062 234.604C430.632 232.918 431.36 231.282 432.237 229.716C432.715 228.846 433.218 228.04 433.728 227.264C434.349 227.544 437.033 228.782 438.481 228.835C439.929 228.887 441.65 228.595 442.582 227.526C442.807 227.281 442.975 226.994 443.076 226.684C443.176 226.374 443.207 226.047 443.166 225.725C443.125 225.403 443.013 225.093 442.838 224.814C442.662 224.535 442.427 224.293 442.147 224.104C440.413 223.024 436.928 224.32 435.474 225.412C435.393 225.471 434.666 226.154 434.138 226.662C434.374 226.317 434.61 225.955 434.84 225.628C435.71 224.396 436.592 223.292 437.375 222.37C437.829 221.832 438.245 221.353 438.618 220.915C439.351 220.915 442.296 220.816 443.588 220.25C444.881 219.683 446.279 218.661 446.583 217.33C446.663 217.015 446.672 216.687 446.609 216.369C446.547 216.05 446.415 215.748 446.222 215.48C446.028 215.212 445.778 214.984 445.486 214.812C445.194 214.64 444.867 214.527 444.527 214.48C442.458 214.27 439.997 216.933 439.239 218.527C439.177 218.667 438.419 220.933 438.456 220.933H438.5C438.108 221.353 437.692 221.803 437.257 222.305C436.449 223.24 435.542 224.303 434.641 225.523C433.653 226.825 432.746 228.18 431.926 229.582C431.003 231.151 430.228 232.792 429.608 234.488V234.552C429.608 233.968 429.608 232.374 429.577 232.251C429.335 230.499 427.794 227.304 425.75 226.948C425.408 226.901 425.06 226.92 424.727 227.006C424.394 227.092 424.084 227.243 423.816 227.448C423.548 227.653 423.329 227.908 423.172 228.197C423.015 228.486 422.924 228.802 422.904 229.127C422.786 230.505 423.849 231.883 424.886 232.747C426.048 233.728 429.291 234.68 429.552 234.756C428.97 236.495 428.512 238.269 428.179 240.065C427.98 241.11 427.819 242.173 427.664 243.236C427.664 242.74 427.664 242.296 427.664 242.237C427.421 240.485 425.88 237.291 423.83 236.935C423.489 236.888 423.141 236.908 422.809 236.995C422.477 237.081 422.167 237.232 421.9 237.436C421.633 237.641 421.414 237.896 421.258 238.185C421.101 238.473 421.01 238.789 420.99 239.113C420.872 240.485 421.935 241.864 422.973 242.734C424.01 243.604 426.763 244.486 427.496 244.696L427.328 245.922C427.08 247.885 426.843 249.841 426.545 251.762C426.44 252.44 426.309 253.1 426.185 253.76C426.185 253.322 426.185 252.954 426.185 252.895C425.949 251.143 424.402 247.949 422.357 247.593C422.016 247.546 421.669 247.566 421.336 247.653C421.004 247.739 420.695 247.89 420.428 248.094C420.161 248.299 419.942 248.554 419.785 248.843C419.629 249.131 419.538 249.447 419.518 249.771C419.4 251.143 420.462 252.522 421.494 253.392C422.525 254.262 425.023 255.05 425.887 255.313C425.737 255.991 425.588 256.662 425.408 257.31C425.271 257.748 425.178 258.181 425.017 258.613C424.855 259.045 424.725 259.477 424.576 259.903C424.265 260.709 423.954 261.544 423.619 262.327C423.401 262.87 423.178 263.384 422.954 263.904C423.066 263.232 423.258 261.912 423.258 261.801C423.236 260.266 422.795 258.762 421.978 257.433C421.985 257.261 421.972 257.089 421.941 256.919C421.894 256.599 421.777 256.291 421.598 256.015C421.418 255.739 421.179 255.502 420.896 255.317C420.613 255.133 420.293 255.005 419.955 254.943C419.617 254.881 419.27 254.886 418.934 254.957C416.921 255.459 415.647 258.776 415.554 260.522C415.554 260.622 415.616 261.749 415.672 262.455C415.572 262.041 415.479 261.644 415.374 261.223C415.162 260.382 414.92 259.559 414.672 258.665C414.535 258.239 414.398 257.807 414.255 257.369C414.112 256.931 413.932 256.493 413.771 256.049C413.373 255.027 412.919 254.011 412.435 252.995C413.211 252.819 415.964 252.159 417.07 251.359C418.176 250.559 419.338 249.269 419.332 247.885C419.337 247.561 419.27 247.24 419.137 246.942C419.003 246.644 418.805 246.375 418.555 246.153C418.305 245.931 418.008 245.759 417.684 245.65C417.36 245.541 417.016 245.497 416.672 245.519C414.603 245.73 412.808 248.825 412.428 250.536C412.428 250.641 412.286 251.897 412.23 252.592C411.938 252.008 411.646 251.371 411.323 250.77C410.397 249.018 409.409 247.266 408.421 245.514L407.532 243.913C407.812 243.849 411.099 243.131 412.342 242.243C413.441 241.449 414.609 240.147 414.597 238.768C414.603 238.444 414.537 238.123 414.404 237.824C414.271 237.525 414.073 237.256 413.822 237.033C413.572 236.81 413.276 236.638 412.951 236.529C412.627 236.419 412.281 236.375 411.938 236.397C409.869 236.608 408.073 239.703 407.7 241.414C407.7 241.542 407.495 243.353 407.476 243.814C406.855 242.646 406.19 241.478 405.612 240.269C404.814 238.674 404.127 237.031 403.556 235.352C403.686 235.352 407.122 234.593 408.39 233.676C409.49 232.882 410.658 231.585 410.651 230.201C410.657 229.878 410.59 229.557 410.456 229.259C410.323 228.96 410.125 228.692 409.875 228.469C409.625 228.247 409.328 228.076 409.004 227.967C408.68 227.858 408.336 227.813 407.992 227.836C405.923 228.046 404.127 231.141 403.748 232.852C403.748 232.987 403.537 234.931 403.531 235.288C403.494 235.188 403.45 235.089 403.419 234.99C402.904 233.288 402.553 231.547 402.369 229.786C402.251 228.817 402.201 227.883 402.17 226.972C402.823 226.896 405.817 226.522 407.054 225.804C408.29 225.085 409.539 223.958 409.707 222.586C409.75 222.265 409.722 221.938 409.624 221.628C409.526 221.317 409.361 221.03 409.138 220.782C408.916 220.535 408.641 220.334 408.331 220.192C408.022 220.05 407.684 219.971 407.34 219.958C405.258 219.958 403.115 222.843 402.537 224.507C402.506 224.595 402.301 225.547 402.158 226.259C402.158 225.85 402.158 225.424 402.158 225.033C402.158 223.555 402.257 222.2 402.357 221.003C402.419 220.32 402.487 219.707 402.562 219.128C403.183 218.743 405.569 217.143 406.29 216.004C407.01 214.865 407.607 213.283 407.066 211.998C406.948 211.693 406.763 211.416 406.523 211.182C406.284 210.949 405.996 210.765 405.677 210.642C405.357 210.519 405.015 210.459 404.67 210.468C404.325 210.476 403.986 210.551 403.674 210.69C401.81 211.589 401.344 215.081 401.648 216.804C401.648 216.956 402.369 219.239 402.406 219.222L402.437 219.193C402.357 219.777 402.276 220.361 402.201 220.986C402.077 222.189 401.947 223.543 401.909 225.027C401.848 226.626 401.889 228.227 402.034 229.821C402.181 231.608 402.497 233.379 402.978 235.113V235.177C402.649 234.692 401.686 233.372 401.599 233.279C400.356 231.953 397.212 230.078 395.298 230.838C394.986 230.975 394.708 231.172 394.481 231.416C394.255 231.661 394.085 231.946 393.982 232.255C393.879 232.565 393.846 232.891 393.884 233.213C393.922 233.534 394.032 233.845 394.205 234.126C394.932 235.305 396.622 235.901 397.995 236.088Z" fill="#263238"/>
<path d="M433.691 226.901C433.691 226.901 434.355 224.618 434.38 224.472C434.635 222.72 434.045 219.257 432.175 218.404C431.859 218.275 431.518 218.208 431.173 218.209C430.829 218.21 430.488 218.279 430.174 218.41C429.859 218.541 429.576 218.733 429.344 218.972C429.112 219.211 428.936 219.493 428.826 219.8C428.322 221.097 428.956 222.691 429.714 223.783C430.584 225.068 433.691 226.901 433.691 226.901Z" fill="#263238"/>
<path d="M18.8018 267.781H450.616" stroke="#263238" stroke-miterlimit="10"/>
<g opacity="0.3">
<path d="M236.703 263.729C293.258 263.729 339.105 220.636 339.105 167.48C339.105 114.323 293.258 71.2305 236.703 71.2305C180.148 71.2305 134.301 114.323 134.301 167.48C134.301 220.636 180.148 263.729 236.703 263.729Z" stroke="black" stroke-linecap="round" stroke-linejoin="round"/>
<path d="M236.703 263.01C273.743 263.01 303.77 219.918 303.77 166.761C303.77 113.604 273.743 70.5122 236.703 70.5122C199.664 70.5122 169.637 113.604 169.637 166.761C169.637 219.918 199.664 263.01 236.703 263.01Z" stroke="black" stroke-linecap="round" stroke-linejoin="round"/>
<path d="M236.703 263.01C249.644 263.01 260.134 219.918 260.134 166.761C260.134 113.604 249.644 70.5122 236.703 70.5122C223.763 70.5122 213.273 113.604 213.273 166.761C213.273 219.918 223.763 263.01 236.703 263.01Z" stroke="black" stroke-linecap="round" stroke-linejoin="round"/>
<path d="M183.797 85.1648H289.796" stroke="black" stroke-linecap="round" stroke-linejoin="round"/>
<path d="M144.684 126.103H328.903" stroke="black" stroke-linecap="round" stroke-linejoin="round"/>
<path d="M134.724 167.036H338.863" stroke="black" stroke-linecap="round" stroke-linejoin="round"/>
<path d="M143.814 207.968H329.773" stroke="black" stroke-linecap="round" stroke-linejoin="round"/>
<path d="M182.455 248.907H291.132" stroke="black" stroke-linecap="round" stroke-linejoin="round"/>
</g>
<path d="M438.574 94.8299V71.3823C438.574 70.9053 438.373 70.4478 438.014 70.1104C437.655 69.7731 437.168 69.5836 436.66 69.5836H402.313C401.806 69.5836 401.319 69.7731 400.96 70.1104C400.601 70.4478 400.399 70.9053 400.399 71.3823V94.8299H398.188V95.595C398.188 95.8583 398.299 96.1108 398.497 96.297C398.695 96.4832 398.964 96.5878 399.244 96.5878H439.73C439.868 96.5878 440.005 96.5621 440.133 96.5121C440.261 96.4621 440.377 96.3889 440.475 96.2966C440.572 96.2044 440.649 96.0949 440.702 95.9745C440.754 95.854 440.781 95.7251 440.78 95.595V94.8299H438.574Z" fill="#263238" stroke="#263238" stroke-linecap="round" stroke-linejoin="round"/>
<path d="M404.382 68.912H437.356C437.698 68.912 438.037 68.9753 438.353 69.0983C438.669 69.2212 438.956 69.4015 439.197 69.6287C439.439 69.8559 439.631 70.1257 439.762 70.4225C439.893 70.7194 439.96 71.0376 439.96 71.3589V94.2167H401.779V71.3823C401.776 71.059 401.841 70.7383 401.97 70.4387C402.099 70.1391 402.291 69.8666 402.533 69.6369C402.775 69.4072 403.063 69.2249 403.38 69.1005C403.698 68.976 404.038 68.912 404.382 68.912Z" fill="white" stroke="#263238" stroke-linecap="round" stroke-linejoin="round"/>
<path d="M405.109 69.8289H436.648C437.338 69.8289 438.001 70.0867 438.489 70.5456C438.977 71.0045 439.251 71.6269 439.251 72.2758V93.3466H402.493V72.2758C402.493 71.9535 402.561 71.6344 402.693 71.3367C402.824 71.0391 403.017 70.7688 403.26 70.5414C403.503 70.3141 403.792 70.1341 404.109 70.0118C404.426 69.8895 404.766 69.8273 405.109 69.8289Z" fill="#47C2C9" stroke="#263238" stroke-linecap="round" stroke-linejoin="round"/>
<path d="M399.573 94.1816H442.166V94.608C442.166 94.9642 442.015 95.3058 441.747 95.5577C441.479 95.8096 441.116 95.9512 440.737 95.9512H401.002C400.623 95.9512 400.26 95.8096 399.992 95.5577C399.724 95.3058 399.573 94.9642 399.573 94.608V94.1933V94.1816Z" fill="white" stroke="#263238" stroke-linecap="round" stroke-linejoin="round"/>
<path d="M370.197 24.6973H343.66C341.515 24.6973 339.776 26.3314 339.776 28.3473V79.3363C339.776 81.3521 341.515 82.9863 343.66 82.9863H370.197C372.342 82.9863 374.08 81.3521 374.08 79.3363V28.3473C374.08 26.3314 372.342 24.6973 370.197 24.6973Z" fill="#263238" stroke="#263238" stroke-linecap="round" stroke-linejoin="round"/>
<path d="M372.919 22.1394H346.381C344.237 22.1394 342.498 23.7736 342.498 25.7894V76.7784C342.498 78.7943 344.237 80.4284 346.381 80.4284H372.919C375.063 80.4284 376.802 78.7943 376.802 76.7784V25.7894C376.802 23.7736 375.063 22.1394 372.919 22.1394Z" fill="white" stroke="#263238" stroke-linecap="round" stroke-linejoin="round"/>
<path d="M376.802 29.5796V26.5486C376.802 25.3792 376.308 24.2577 375.428 23.4308C374.548 22.6039 373.355 22.1394 372.111 22.1394H347.189C345.945 22.1394 344.752 22.6039 343.872 23.4308C342.992 24.2577 342.498 25.3792 342.498 26.5486V29.5796H376.802Z" fill="#47C2C9" stroke="#263238" stroke-linecap="round" stroke-linejoin="round"/>
<path d="M342.498 71.7444V76.0193C342.498 77.1887 342.992 78.3102 343.872 79.137C344.752 79.9639 345.945 80.4285 347.189 80.4285H372.111C373.355 80.4285 374.548 79.9639 375.428 79.137C376.308 78.3102 376.802 77.1887 376.802 76.0193V71.7444H342.498Z" fill="#47C2C9" stroke="#263238" stroke-linecap="round" stroke-linejoin="round"/>
<path d="M285.602 30.3971C282.154 30.3849 278.767 31.2594 275.81 32.9258C274.589 33.669 273.417 34.4803 272.299 35.3553C272.011 35.6062 271.659 35.7832 271.277 35.8691C270.895 35.955 270.496 35.947 270.118 35.8458C269.829 35.763 269.564 35.6194 269.343 35.4258C269.122 35.2321 268.95 34.9937 268.842 34.7285C268.733 34.4633 268.691 34.1784 268.717 33.8953C268.743 33.6123 268.838 33.3387 268.994 33.0952C269.234 32.7512 269.527 32.4422 269.864 32.1783C273.548 29.0383 278.21 27.0971 283.16 26.642C290.107 25.9821 296.152 27.9735 301.39 32.2484C301.675 32.4353 301.915 32.6764 302.095 32.9561C302.275 33.2357 302.39 33.5477 302.434 33.8719C302.481 34.242 302.412 34.6171 302.235 34.9506C302.058 35.2842 301.78 35.5614 301.437 35.748C301.093 35.9346 300.699 36.0223 300.303 36.0002C299.907 35.9781 299.527 35.8473 299.209 35.6239C298.799 35.3553 298.445 35.0399 298.054 34.7187C294.706 32.0679 290.5 30.5647 286.124 30.4555L285.602 30.3971Z" fill="#263238"/>
<path d="M295.848 40.8214C295.549 40.8196 295.253 40.7619 294.978 40.6516C294.702 40.5413 294.453 40.3807 294.245 40.179C292.041 38.1683 289.123 36.996 286.054 36.8881C282.984 36.7803 279.981 37.7446 277.624 39.595C277.276 39.8695 276.941 40.179 276.574 40.4068C276.162 40.6968 275.649 40.8297 275.137 40.7788C274.626 40.7279 274.153 40.4969 273.815 40.1323C273.478 39.7759 273.297 39.3127 273.309 38.836C273.32 38.3592 273.523 37.9043 273.877 37.5627C275.522 35.9524 277.543 34.7246 279.78 33.9769C281.849 33.2319 284.058 32.8916 286.272 32.977C288.485 33.0623 290.657 33.5715 292.654 34.4733C294.369 35.2084 295.928 36.2316 297.252 37.4926C297.554 37.7656 297.759 38.12 297.838 38.507C297.917 38.8941 297.867 39.2946 297.693 39.6534C297.549 40.0016 297.295 40.3001 296.965 40.5089C296.635 40.7176 296.245 40.8267 295.848 40.8214Z" fill="#263238"/>
<path d="M285.528 39.4842C286.869 39.4791 288.197 39.736 289.427 40.2387C290.657 40.7414 291.762 41.4788 292.673 42.4042C293.041 42.7518 293.255 43.2185 293.27 43.709C293.285 44.1995 293.1 44.6769 292.754 45.0439C292.389 45.413 291.887 45.6364 291.351 45.6679C290.816 45.6994 290.288 45.5367 289.877 45.2132C289.186 44.6528 288.422 44.1778 287.603 43.8C285.441 42.9707 283.459 43.432 281.737 44.8862C281.472 45.1642 281.139 45.3783 280.767 45.5104C280.395 45.6425 279.995 45.6888 279.6 45.6454C279.258 45.5912 278.937 45.4544 278.669 45.2485C278.4 45.0426 278.193 44.7746 278.067 44.4707C277.942 44.1669 277.903 43.8376 277.954 43.5153C278.005 43.193 278.144 42.8886 278.357 42.632C279.281 41.5655 280.482 40.7409 281.843 40.2376C283.008 39.7643 284.259 39.5085 285.528 39.4842Z" fill="#263238"/>
<path d="M285.62 50.878C285.292 50.8835 284.967 50.8269 284.662 50.7115C284.358 50.596 284.082 50.4242 283.85 50.2061C283.618 49.9881 283.435 49.7284 283.312 49.4425C283.19 49.1565 283.129 48.8503 283.135 48.542C283.135 47.9285 283.392 47.3395 283.85 46.9025C284.308 46.4654 284.931 46.2152 285.583 46.206C286.242 46.1982 286.878 46.4369 287.35 46.8695C287.822 47.3022 288.091 47.8932 288.1 48.5128C288.108 49.1323 287.854 49.7296 287.394 50.1731C286.933 50.6167 286.305 50.8702 285.645 50.878H285.62Z" fill="#263238"/>
<path d="M446.055 135.844H406.892C404.405 135.844 402.388 137.74 402.388 140.078V150.024C402.388 152.362 404.405 154.258 406.892 154.258H446.055C448.543 154.258 450.56 152.362 450.56 150.024V140.078C450.56 137.74 448.543 135.844 446.055 135.844Z" fill="#263238" stroke="#263238" stroke-linecap="round" stroke-linejoin="round"/>
<path d="M447.248 134.559H408.085C405.597 134.559 403.581 136.455 403.581 138.793V148.739C403.581 151.077 405.597 152.973 408.085 152.973H447.248C449.736 152.973 451.753 151.077 451.753 148.739V138.793C451.753 136.455 449.736 134.559 447.248 134.559Z" fill="white" stroke="#263238" stroke-linecap="round" stroke-linejoin="round"/>
<path d="M415.672 140.954C415.672 141.788 415.409 142.603 414.916 143.297C414.423 143.99 413.722 144.531 412.902 144.85C412.083 145.169 411.181 145.252 410.311 145.09C409.44 144.927 408.641 144.525 408.014 143.936C407.386 143.346 406.959 142.595 406.786 141.777C406.613 140.959 406.702 140.111 407.041 139.341C407.381 138.57 407.956 137.912 408.693 137.448C409.431 136.985 410.298 136.738 411.186 136.738C411.775 136.737 412.359 136.846 412.903 137.057C413.448 137.269 413.943 137.579 414.36 137.971C414.776 138.363 415.107 138.828 415.332 139.34C415.557 139.852 415.673 140.4 415.672 140.954Z" fill="#47C2C9" stroke="#263238" stroke-linecap="round" stroke-linejoin="round"/>
<path d="M419.661 139.331H446.372" stroke="#263238" stroke-linecap="round" stroke-linejoin="round"/>
<path d="M419.661 143.547H446.372" stroke="#263238" stroke-linecap="round" stroke-linejoin="round"/>
<path d="M419.661 147.758H446.372" stroke="#263238" stroke-linecap="round" stroke-linejoin="round"/>
<path d="M446.055 162.364H406.892C404.405 162.364 402.388 164.259 402.388 166.598V176.543C402.388 178.882 404.405 180.777 406.892 180.777H446.055C448.543 180.777 450.56 178.882 450.56 176.543V166.598C450.56 164.259 448.543 162.364 446.055 162.364Z" fill="#263238" stroke="#263238" stroke-linecap="round" stroke-linejoin="round"/>
<path d="M447.248 161.085H408.085C405.597 161.085 403.581 162.98 403.581 165.319V175.264C403.581 177.603 405.597 179.498 408.085 179.498H447.248C449.736 179.498 451.753 177.603 451.753 175.264V165.319C451.753 162.98 449.736 161.085 447.248 161.085Z" fill="white" stroke="#263238" stroke-linecap="round" stroke-linejoin="round"/>
<path d="M411.211 171.684C413.685 171.684 415.691 169.799 415.691 167.474C415.691 165.148 413.685 163.263 411.211 163.263C408.737 163.263 406.731 165.148 406.731 167.474C406.731 169.799 408.737 171.684 411.211 171.684Z" fill="#47C2C9" stroke="#263238" stroke-linecap="round" stroke-linejoin="round"/>
<path d="M419.661 165.856H446.372" stroke="#263238" stroke-linecap="round" stroke-linejoin="round"/>
<path d="M419.661 170.067H446.372" stroke="#263238" stroke-linecap="round" stroke-linejoin="round"/>
<path d="M419.661 174.277H446.372" stroke="#263238" stroke-linecap="round" stroke-linejoin="round"/>
<path d="M212.813 14.3662H169.276V40.4593H212.813V14.3662Z" fill="#263238" stroke="#263238" stroke-miterlimit="10"/>
<path d="M215.105 12.2056H171.568V38.2987H215.105V12.2056Z" fill="white" stroke="#263238" stroke-linecap="round" stroke-linejoin="round"/>
<path d="M171.568 12.2056L193.34 25.2521L215.105 12.2056" stroke="#263238" stroke-linecap="round" stroke-linejoin="round"/>
<path d="M212.813 20.0019C216.124 20.0019 218.809 17.4788 218.809 14.3663C218.809 11.2539 216.124 8.73071 212.813 8.73071C209.501 8.73071 206.817 11.2539 206.817 14.3663C206.817 17.4788 209.501 20.0019 212.813 20.0019Z" fill="#263238" stroke="#263238" stroke-miterlimit="10"/>
<path d="M212.776 17.5199C212.374 17.546 211.974 17.4586 211.626 17.2688C211.367 17.0999 211.182 16.849 211.104 16.5622C211.007 16.2155 210.961 15.8578 210.967 15.4993H212.341C212.337 15.6948 212.352 15.8902 212.384 16.0833C212.397 16.207 212.451 16.3236 212.539 16.4162C212.584 16.4526 212.637 16.4797 212.693 16.4958C212.75 16.5119 212.81 16.5166 212.869 16.5096C212.933 16.5124 212.997 16.4979 213.053 16.468C213.109 16.438 213.155 16.3937 213.186 16.3403C213.258 16.1959 213.296 16.0385 213.297 15.8789C213.297 15.6803 213.297 15.4409 213.297 15.1547C213.3 14.9595 213.287 14.7643 213.26 14.5707C213.241 14.4291 213.187 14.2935 213.105 14.1736C213.065 14.1232 213.012 14.0829 212.951 14.0564C212.891 14.0299 212.824 14.018 212.757 14.0218C212.691 14.0209 212.626 14.0336 212.566 14.0588C212.506 14.084 212.452 14.1212 212.409 14.1678C212.301 14.2982 212.232 14.4535 212.21 14.6175H210.967L211.092 10.874H214.36V11.9953H212.278L212.204 13.3327C212.287 13.2381 212.4 13.1706 212.527 13.1399C212.691 13.0818 212.862 13.0444 213.036 13.029C213.348 12.9842 213.667 13.0486 213.931 13.21C214.189 13.3893 214.381 13.6407 214.478 13.9283C214.605 14.3058 214.666 14.7004 214.658 15.0963C214.662 15.4168 214.639 15.737 214.59 16.0541C214.556 16.3188 214.467 16.5747 214.329 16.8075C214.194 17.0204 213.995 17.1911 213.757 17.298C213.452 17.4416 213.116 17.5175 212.776 17.5199Z" fill="#47C2C9"/>
<path d="M126.249 108.42H103.632C103.201 108.419 102.773 108.498 102.375 108.653C101.976 108.807 101.614 109.034 101.308 109.321C101.003 109.607 100.761 109.947 100.596 110.322C100.43 110.696 100.345 111.098 100.345 111.503V126.004C100.345 126.823 100.692 127.609 101.308 128.188C101.924 128.768 102.76 129.093 103.632 129.093H106.739L102.445 138.63L112.269 129.093H126.23C126.661 129.093 127.088 129.013 127.487 128.858C127.885 128.703 128.247 128.475 128.552 128.188C128.857 127.901 129.098 127.56 129.263 127.186C129.427 126.811 129.511 126.409 129.511 126.004V111.503C129.512 110.688 129.17 109.905 128.558 109.327C127.947 108.749 127.116 108.423 126.249 108.42Z" fill="#263238" stroke="#263238" stroke-linecap="round" stroke-linejoin="round"/>
<path d="M128.535 107.614H105.918C105.487 107.613 105.06 107.692 104.662 107.847C104.264 108.001 103.902 108.229 103.597 108.515C103.292 108.802 103.05 109.142 102.886 109.516C102.721 109.891 102.637 110.292 102.638 110.697V125.198C102.637 125.603 102.721 126.004 102.886 126.379C103.05 126.753 103.292 127.093 103.597 127.38C103.902 127.666 104.264 127.894 104.662 128.048C105.06 128.203 105.487 128.282 105.918 128.281H109.025L104.75 137.824L114.58 128.281H128.535C128.966 128.282 129.393 128.203 129.792 128.048C130.191 127.894 130.553 127.667 130.859 127.38C131.164 127.094 131.406 126.754 131.571 126.379C131.737 126.005 131.822 125.603 131.822 125.198V110.697C131.822 110.292 131.737 109.89 131.571 109.516C131.406 109.141 131.164 108.801 130.859 108.515C130.553 108.228 130.191 108.001 129.792 107.847C129.393 107.692 128.966 107.613 128.535 107.614Z" fill="white" stroke="#263238" stroke-linecap="round" stroke-linejoin="round"/>
<path d="M123.956 117.968L123.123 118.751L117.432 124.077L110.951 117.968C110.579 117.618 110.284 117.202 110.083 116.745C109.882 116.288 109.779 115.798 109.779 115.303C109.779 114.808 109.883 114.318 110.085 113.861C110.287 113.404 110.582 112.989 110.955 112.639C111.707 111.933 112.727 111.536 113.79 111.537C114.317 111.537 114.838 111.635 115.324 111.824C115.81 112.014 116.252 112.292 116.624 112.642L117.457 113.424L118.283 112.642C118.655 112.292 119.097 112.014 119.583 111.824C120.07 111.635 120.591 111.537 121.117 111.537C121.644 111.536 122.165 111.634 122.652 111.823C123.138 112.012 123.58 112.289 123.953 112.639C124.325 112.989 124.621 113.404 124.823 113.861C125.024 114.318 125.128 114.808 125.129 115.303C125.129 115.798 125.026 116.288 124.824 116.745C124.623 117.202 124.328 117.618 123.956 117.968Z" fill="#47C2C9" stroke="#263238" stroke-linecap="round" stroke-linejoin="round"/>
<path d="M91.2427 61.6062H86.8933C83.1813 61.5693 79.5961 60.3319 76.7407 58.1022L76.2437 57.7168C76.2052 57.6875 76.175 57.6499 76.1555 57.6071C76.136 57.5644 76.1279 57.5178 76.1318 57.4715L77.2937 42.1882C77.2974 42.1312 77.3188 42.0765 77.3553 42.0308C77.3917 41.9852 77.4416 41.9505 77.4988 41.9312C79.6983 41.1654 81.786 40.1411 83.7121 38.8828C84.8429 38.0593 87.4401 35.7584 86.8933 32.1084C86.6945 30.7243 86.7939 29.8424 87.204 29.4044C87.2942 29.305 87.4067 29.2257 87.5335 29.1721C87.6603 29.1186 87.7982 29.0922 87.9372 29.0949C88.5026 29.0949 89.2233 29.5037 90.0746 30.3038C91.8889 32.0091 92.0193 34.0414 91.9945 35.8168C91.8663 37.768 91.3632 39.6813 90.5095 41.464C92.591 41.5341 99.873 41.8203 100.948 42.2524C101.784 42.7264 102.402 43.4759 102.681 44.3548C103.06 45.147 103.089 46.0479 102.762 46.8602C102.436 47.5025 101.968 48.072 101.389 48.5304C101.597 48.9241 101.709 49.3565 101.717 49.796C101.724 50.2355 101.627 50.6711 101.433 51.0708C101.106 51.6975 100.701 52.2856 100.227 52.8228C100.499 53.1885 100.689 53.6021 100.786 54.0387C100.883 54.4753 100.886 54.9258 100.793 55.3632C100.454 56.3745 99.7841 57.2595 98.8789 57.8919C98.9728 58.2271 98.9801 58.5785 98.9001 58.9168C98.8201 59.2551 98.6552 59.5705 98.4191 59.8367C98.0716 60.3019 97.6225 60.6921 97.1017 60.9811C96.581 61.2702 96.0006 61.4514 95.3994 61.5128C94.0166 61.6143 92.629 61.6455 91.2427 61.6062Z" fill="white"/>
<path d="M87.9494 29.3927C88.4589 29.3927 89.1485 29.8366 89.8693 30.514C91.5282 32.0733 91.7333 33.8895 91.696 35.8167C91.6587 38.5907 90.037 41.7443 90.037 41.7443C90.037 41.7443 99.6615 42.0597 100.823 42.5269C101.985 42.9941 103.141 45.4878 102.482 46.72C102.151 47.4036 101.637 47.995 100.991 48.437C101.226 48.8111 101.362 49.2322 101.39 49.6656C101.419 50.099 101.337 50.5325 101.153 50.9306C100.811 51.6109 100.365 52.2406 99.8292 52.7994C100.123 53.1476 100.333 53.5509 100.447 53.9821C100.561 54.4132 100.575 54.8623 100.488 55.299C100.159 56.7006 98.4996 57.7926 98.4996 57.7926C98.4996 57.7926 98.9967 58.5752 98.1641 59.6673C97.8405 60.1023 97.4211 60.4667 96.9344 60.7358C96.4476 61.0048 95.9049 61.1722 95.3432 61.2266C95.0139 61.2791 93.3363 61.2966 91.2486 61.2966H86.8993C83.2674 61.2653 79.7574 60.0611 76.958 57.8861L76.4609 57.5006L77.6228 42.2115C79.8513 41.4383 81.9662 40.4022 83.9169 39.128C85.5634 37.96 87.7132 35.513 87.2162 32.0791C86.9304 30.1402 87.2845 29.3986 87.9494 29.3986M87.9494 28.8146C87.7687 28.8091 87.5889 28.8408 87.4225 28.9073C87.2562 28.9739 87.1073 29.0738 86.9863 29.2C86.5079 29.7139 86.365 30.6483 86.6073 32.12C87.1106 35.624 84.6314 37.8315 83.5379 38.6199C81.6297 39.8642 79.5605 40.8749 77.3805 41.6275C77.2682 41.6667 77.1704 41.7354 77.0988 41.8255C77.0271 41.9157 76.9847 42.0234 76.9766 42.1356L75.8023 57.4598C75.7954 57.5524 75.8121 57.6452 75.851 57.7305C75.8899 57.8158 75.9499 57.8912 76.026 57.9503L76.523 58.3358C79.4352 60.6071 83.0904 61.8671 86.8745 61.904H91.2238C92.6244 61.9482 94.0265 61.9209 95.424 61.8222C96.0661 61.7558 96.6859 61.5615 97.2419 61.2524C97.7979 60.9433 98.2775 60.5263 98.6487 60.0294C98.8828 59.7482 99.0527 59.4247 99.1478 59.079C99.2429 58.7334 99.2613 58.373 99.2017 58.0204C100.091 57.3633 100.742 56.4637 101.066 55.445C101.258 54.5572 101.083 53.6337 100.575 52.8637C101.003 52.3519 101.373 51.8 101.681 51.2168C101.883 50.8134 101.992 50.3742 102.001 49.9283C102.01 49.4823 101.917 49.0397 101.731 48.6297C102.259 48.1681 102.691 47.6174 103.004 47.0062C103.185 46.5679 103.273 46.1003 103.261 45.6303C103.249 45.1602 103.139 44.697 102.936 44.2672C102.6 43.4029 101.923 42.3517 101.035 41.9955C99.9846 41.5691 93.6221 41.2947 90.938 41.2012C91.7167 39.4977 92.173 37.6795 92.2863 35.8284C92.2863 33.9946 92.1744 31.8922 90.2794 30.1052C89.3536 29.235 88.5769 28.8146 87.9183 28.8146H87.9494Z" fill="#263238"/>
<path d="M77.7535 41.1194H63.9785V60.4615H77.7535V41.1194Z" fill="#263238" stroke="#263238" stroke-linecap="round" stroke-linejoin="round"/>
<path d="M56.7773 95.0227L55.7894 95.9571L49.0417 102.299L41.2999 95.0227C40.8461 94.6085 40.4845 94.1136 40.2361 93.5669C39.9876 93.0202 39.8573 92.4325 39.8527 91.838C39.848 91.2435 39.9692 90.654 40.2091 90.104C40.449 89.5539 40.8029 89.0541 41.2502 88.6337C41.6974 88.2134 42.2291 87.8807 42.8144 87.6552C43.3996 87.4297 44.0268 87.3158 44.6593 87.3202C45.2918 87.3245 45.917 87.447 46.4987 87.6805C47.0804 87.9141 47.6069 88.2539 48.0475 88.6804L49.0417 89.6148L50.0234 88.6804C50.9182 87.8386 52.1321 87.3654 53.3981 87.3648C54.6641 87.3643 55.8785 87.8365 56.7742 88.6775C57.6698 89.5185 58.1733 90.6595 58.1739 91.8495C58.1744 93.0394 57.6721 94.1809 56.7773 95.0227Z" fill="#263238" stroke="#263238" stroke-linecap="round" stroke-linejoin="round"/>
<path d="M130.977 80.9541L129.573 82.2739L119.992 91.2734L109.013 80.9541C107.796 79.7507 107.127 78.148 107.149 76.4877C107.172 74.8274 107.883 73.2411 109.133 72.067C110.382 70.8929 112.069 70.2241 113.836 70.2031C115.602 70.1821 117.307 70.8106 118.588 71.9547L119.992 73.2745L121.396 71.9547C122.666 70.7605 124.388 70.0893 126.184 70.0887C127.981 70.0882 129.704 70.7583 130.974 71.9517C132.245 73.1451 132.959 74.764 132.959 76.4523C132.96 78.1406 132.247 79.7599 130.977 80.9541Z" fill="#47C2C9" stroke="#263238" stroke-linecap="round" stroke-linejoin="round"/>
<path d="M391.912 129.724C394.101 128.071 395.977 126.083 397.461 123.843C399.598 120.421 401.419 116.625 400.704 116.549C399.99 116.473 384.077 114.838 377.976 114.908C371.874 114.978 372.67 114.686 372.67 114.686V117.384C372.67 117.384 380.43 119.393 382.412 119.767C384.394 120.14 390.254 121.472 390.254 121.472L388.271 122.961L391.912 129.724Z" fill="#FFBE9D" stroke="#263238" stroke-linecap="round" stroke-linejoin="round"/>
<path d="M390.253 121.472C391.875 121.161 393.464 120.713 395 120.135L390.253 121.472Z" fill="#FFBE9D"/>
<path d="M390.253 121.472C391.875 121.161 393.464 120.713 395 120.135" stroke="#263238" stroke-linecap="round" stroke-linejoin="round"/>
<path d="M355.403 108.25C355.403 108.25 349.624 110.668 348.568 115.188C347.512 119.708 345.89 126.868 343.535 130.676C341.181 134.484 332.836 135.406 332.519 140.02C332.202 144.633 340.975 147.875 341.734 149.504C342.492 151.133 335.843 153.726 336.061 158.451C336.278 163.175 340.447 164.484 342.895 164.291C345.343 164.098 350.351 161.879 351.029 163.386C351.706 164.892 354.023 169.226 359.908 166.604C365.792 163.981 365.897 159.969 368.681 160.875C371.464 161.78 378.622 161.272 377.883 152.827C377.143 144.382 379.598 137.538 378.1 131.908C376.603 126.278 374.248 126.378 373.067 123.148C371.887 119.919 375.211 118.12 373.285 112.788C371.359 107.456 364.723 106.656 362.368 106.755C359.971 106.869 357.614 107.375 355.403 108.25Z" fill="#263238" stroke="#263238" stroke-linecap="round" stroke-linejoin="round"/>
<path d="M377.224 203.121C377.224 203.121 377.379 211.793 376.304 217.575C375.229 223.357 373.999 223.748 374.154 231.118C374.31 238.488 372.179 255.827 372.179 255.827C372.179 255.827 367.568 261.031 368.333 261.901C369.097 262.771 372.334 263.653 373.713 265.364C375.093 267.075 376.199 268.547 380.324 269.557C384.45 270.567 384.941 269.703 384.015 268.687C383.089 267.671 379.405 261.031 378.479 258.572C377.88 257.18 377.463 255.725 377.236 254.239C377.236 253.806 387.383 221.908 388.464 218.031C389.545 214.153 390.328 203.431 390.328 203.431L377.224 203.121Z" fill="#FFBE9D" stroke="#263238" stroke-linecap="round" stroke-linejoin="round"/>
<path d="M381.723 265.066L379.237 265.51C376.738 263.936 374.638 261.864 373.086 259.442C372.372 258.362 371.843 257.474 371.377 256.75C370.097 258.286 367.755 261.258 368.32 261.901C369.091 262.765 372.322 263.653 373.701 265.364C375.081 267.075 376.187 268.547 380.312 269.557C384.438 270.567 384.929 269.703 384.003 268.687C383.152 267.532 382.39 266.322 381.723 265.066Z" fill="#263238" stroke="#263238" stroke-linecap="round" stroke-linejoin="round"/>
<path d="M363.393 207.904V212.961C363.393 212.961 356.471 217.441 354.011 221.92C351.55 226.399 335.992 249.228 335.408 249.952C334.824 250.676 326.2 260.663 327.878 264.389C329.555 268.114 332.183 265.977 334.029 263.805C335.874 261.632 338.944 251.377 338.944 251.377C338.944 251.377 365.698 224.933 369.849 221.47C373.999 218.007 376.46 215.543 377.224 213.09C377.705 211.526 378.066 209.931 378.305 208.319C378.305 208.319 367.078 209.072 363.393 207.904Z" fill="#FFBE9D" stroke="#263238" stroke-linecap="round" stroke-linejoin="round"/>
<path d="M329.878 260.341L332.252 253.917C329.766 257.345 326.84 262.093 327.902 264.377C329.592 268.138 332.208 265.965 334.054 263.793C334.88 262.823 335.955 260.225 336.887 257.655L333.898 261.918L329.878 260.341Z" fill="#263238" stroke="#263238" stroke-linecap="round" stroke-linejoin="round"/>
<path d="M364.828 158.083L365.332 162.562C365.332 162.562 360.025 168.794 358.919 179.387C357.813 189.981 358.149 207.746 358.149 207.746C358.149 207.746 360.69 209.72 368.538 210.345C373.118 210.734 377.734 210.488 382.238 209.615L383.344 209.411L383.568 206.917C385.855 207.076 388.155 206.936 390.402 206.502C392.98 206.044 395.475 205.24 397.809 204.114C397.809 204.114 397.367 186.974 394.273 177.209C392.254 170.981 389.741 164.904 386.755 159.029L385.432 153.528C385.432 153.528 372.284 157.552 364.828 158.083Z" fill="#47C2C9" stroke="#263238" stroke-linecap="round" stroke-linejoin="round"/>
<path d="M382.12 160.483C382.12 160.483 383.226 167.445 383.562 168.589C383.897 169.734 382.12 171.112 382.12 171.112C382.12 171.112 384.556 191.675 383.45 204.558" stroke="#263238" stroke-linecap="round" stroke-linejoin="round"/>
<path d="M379.809 158.41L381.244 165.471" stroke="#263238" stroke-linecap="round" stroke-linejoin="round"/>
<path d="M385.556 160.6C385.556 160.6 387.321 164.653 388.663 171.819" stroke="#263238" stroke-linecap="round" stroke-linejoin="round"/>
<path d="M372.514 165.576C372.514 165.576 370.085 169.833 370.65 176.999" stroke="#263238" stroke-linecap="round" stroke-linejoin="round"/>
<path d="M373.62 166.201C373.62 166.201 373.067 174.406 372.844 182.611" stroke="#263238" stroke-linecap="round" stroke-linejoin="round"/>
<path d="M370.855 158.93L371.408 162.562" stroke="#263238" stroke-linecap="round" stroke-linejoin="round"/>
<path d="M372.185 158.825L372.732 162.148" stroke="#263238" stroke-linecap="round" stroke-linejoin="round"/>
<path d="M383.121 155.706L383.674 158.72" stroke="#263238" stroke-linecap="round" stroke-linejoin="round"/>
<path d="M384.562 155.087L385.221 158.305" stroke="#263238" stroke-linecap="round" stroke-linejoin="round"/>
<path d="M373.223 132.772C373.223 132.772 374.465 131.885 376.329 130.466C378.193 129.046 390.496 121.198 390.496 121.198L396.666 133.911L384.568 139.699C384.568 139.699 387.737 151.379 387.42 152.95C387.103 154.521 384.649 155.105 379.107 156.816C374.088 158.292 368.893 159.171 363.642 159.432C361.032 159.432 361.66 159.286 360.237 156.384C358.814 153.481 353.191 141.719 355.011 137.03C356.832 132.34 361.461 133.327 362.772 133.678C364.083 134.028 366.587 134.787 366.587 134.787L373.223 132.772Z" fill="#47C2C9" stroke="#263238" stroke-linecap="round" stroke-linejoin="round"/>
<path d="M360.671 129.21C360.671 129.21 362.964 133.789 363.946 135.05C364.928 136.312 364.567 137.304 368.127 137.176C371.688 137.047 373.869 134.887 373.378 133.567C372.487 130.834 371.781 128.05 371.265 125.233C371.265 125.233 370.917 128.077 368.525 129.596C366.133 131.114 360.671 129.21 360.671 129.21Z" fill="#FFBE9D" stroke="#263238" stroke-linecap="round" stroke-linejoin="round"/>
<path d="M361.746 112.782C361.746 112.782 361.902 114.739 359.59 119.732C357.279 124.725 355.974 125.157 355.974 125.157C355.974 125.157 358.894 129.934 361.746 131.161C364.598 132.387 368.904 132.825 370.526 131.237C372.147 129.648 373.142 126.097 373.142 124.433C373.142 122.769 371.215 116.257 371.215 116.257C371.215 116.257 365.599 116.327 361.746 112.782Z" fill="#FFBE9D" stroke="#263238" stroke-linecap="round" stroke-linejoin="round"/>
<path d="M360.46 122.815C360.46 122.815 362.157 121.542 363.567 121.939" stroke="#263238" stroke-linecap="round" stroke-linejoin="round"/>
<path d="M367.575 122.815C367.575 122.815 367.494 123.691 366.811 123.931" stroke="#263238" stroke-linecap="round" stroke-linejoin="round"/>
<path d="M367.917 126.238C367.917 126.238 365.431 127.114 363.424 126.08C363.424 126.08 364.046 128.866 365.543 128.544C367.04 128.223 367.917 126.238 367.917 126.238Z" stroke="#263238" stroke-linecap="round" stroke-linejoin="round"/>
<path d="M359.59 119.72C359.96 119.352 360.412 119.067 360.914 118.884C361.416 118.701 361.955 118.626 362.492 118.663" stroke="#263238" stroke-linecap="round" stroke-linejoin="round"/>
<path d="M366.22 117.717C366.22 117.717 367.575 115.486 369.861 116.999" stroke="#263238" stroke-linecap="round" stroke-linejoin="round"/>
<path d="M369.19 119.446C369.364 119.872 369.277 120.304 368.998 120.409C368.718 120.514 368.339 120.246 368.165 119.825C367.991 119.405 368.072 118.961 368.358 118.862C368.643 118.762 369.016 119.013 369.19 119.446Z" fill="#263238"/>
<path d="M355.975 125.157C355.975 125.157 353.489 124.643 354.278 126.635C355.067 128.626 358.597 128.865 358.597 128.865L355.975 125.157Z" fill="#FFBE9D" stroke="#263238" stroke-linecap="round" stroke-linejoin="round"/>
<path d="M371.98 118.354C371.98 118.354 372.912 117.238 373.08 118.832C373.169 119.899 373.083 120.973 372.825 122.015L371.98 118.354Z" stroke="#263238" stroke-linecap="round" stroke-linejoin="round"/>
<path d="M355.167 141.41L364.828 158.083L373.701 145.13L363.008 134.933" fill="#47C2C9"/>
<path d="M355.167 141.41L364.828 158.083L373.701 145.13L363.008 134.933" stroke="#263238" stroke-linecap="round" stroke-linejoin="round"/>
<path d="M385.073 109.153L378.292 111.789C377.8 111.98 377.567 112.509 377.77 112.971L383.481 125.95C383.684 126.412 384.248 126.632 384.739 126.441L391.52 123.805C392.012 123.614 392.245 123.084 392.042 122.622L386.331 109.643C386.127 109.181 385.564 108.962 385.073 109.153Z" fill="#47C2C9" stroke="#263238" stroke-linecap="round" stroke-linejoin="round"/>
<path d="M380.353 111.94L378.883 112.511L380.251 115.619L381.721 115.048L380.353 111.94Z" fill="#263238"/>
<path d="M373.701 145.13C373.701 145.13 381.064 135.307 381.698 133.45C382.331 131.593 380.828 124.223 380.592 123.399C380.355 122.576 384.152 119.755 385.183 119.159C386.215 118.564 386.532 118.862 386.215 119.381C385.898 119.901 383.599 121.717 383.282 122.214C383.054 122.734 382.919 123.287 382.884 123.849C382.884 123.849 384.711 121.84 385.419 121.466C386.128 121.092 388.352 119.901 388.588 120.199L388.669 120.783C388.669 120.783 389.62 120.713 389.539 121.309C389.458 121.904 388.296 122.944 388.296 122.944L387.507 123.913C387.507 123.913 389.328 122.646 389.483 123.166C389.638 123.685 387.426 125.502 387.109 125.922C386.876 126.289 386.691 126.681 386.556 127.09C386.771 128.475 386.744 129.883 386.476 131.26C386.124 132.286 385.356 133.14 384.338 133.637L378.796 148.599C378.796 148.599 375.31 155.023 374.596 155.969C373.881 156.915 372.931 156.553 372.378 156.267C371.825 155.981 368.184 153.142 368.184 153.142L373.701 145.13Z" fill="#FFBE9D" stroke="#263238" stroke-linecap="round" stroke-linejoin="round"/>
<path d="M93.6412 125.338C93.6412 125.338 96.6796 123.861 95.5549 119.632C94.4303 115.404 89.702 111.597 85.8808 110.434C82.0596 109.272 78.344 109.266 73.6157 112.443C68.8873 115.62 65.296 126.185 67.3216 130.734C68.4647 133.392 70.3732 135.697 72.8328 137.392C72.8328 137.392 69.7945 138.134 70.2418 140.896C70.6892 143.658 73.5038 142.373 76.5422 141.106C79.5805 139.839 79.3568 135.5 78.9032 132.539C78.4496 129.578 78.2322 126.623 78.2322 126.623C78.2322 126.623 80.7175 124.824 82.7306 123.236C83.8952 122.362 84.8199 121.238 85.4272 119.96L90.7148 125.14C90.7148 125.14 90.8266 126.611 93.6412 125.338Z" fill="#263238" stroke="#263238" stroke-linecap="round" stroke-linejoin="round"/>
<path d="M74.4546 241.192L77.524 259.46C77.524 259.46 72.5534 264.406 72.8454 268.249C73.1374 272.091 76.853 270.696 77.8782 269.323C78.9034 267.951 82.8489 263.483 82.1965 259.319C81.9293 257.643 82.3456 240.503 82.3456 240.503L74.4546 241.192Z" fill="#FFBE9D" stroke="#263238" stroke-linecap="round" stroke-linejoin="round"/>
<path d="M81.395 262.029C80.5469 263.694 79.4228 265.222 78.0647 266.555L74.0819 266.035L74.4547 264.552C74.6622 263.724 74.9428 262.913 75.2935 262.129C74.0136 263.881 72.6901 266.217 72.8455 268.266C73.1375 272.115 76.8531 270.713 77.8783 269.341C78.8289 268.062 82.3146 264.137 82.2711 260.242C82.0164 260.739 81.7305 261.323 81.395 262.029Z" fill="#47C2C9" stroke="#263238" stroke-linecap="round" stroke-linejoin="round"/>
<path d="M101.482 241.671L111.107 260.032C111.107 260.032 112.033 265.078 113.698 268.12C115.363 271.163 119.532 271.951 119.911 269.253C120.29 266.555 119.079 264.208 117.134 261.942C115.189 259.676 114.356 258.636 114.356 258.636L110.287 240.888L101.482 241.671Z" fill="#FFBE9D" stroke="#263238" stroke-linecap="round" stroke-linejoin="round"/>
<path d="M119.918 269.253C120.272 266.695 119.209 264.459 117.432 262.304L117.501 262.555L118.122 265.948C118.122 265.948 115.251 267.338 114.232 266.643C113.425 266.088 112.138 263.542 111.654 262.555C112.112 264.481 112.792 266.355 113.679 268.144C115.363 271.163 119.532 271.951 119.918 269.253Z" fill="#47C2C9" stroke="#263238" stroke-linecap="round" stroke-linejoin="round"/>
<path d="M73.3175 166.779C73.3175 166.779 67.7255 179.796 66.8805 189.958C66.0355 200.119 70.6831 220.495 70.6831 220.495C70.6831 220.495 70.6831 232.263 70.5526 238.441C70.4221 244.62 69.9313 243.954 69.9313 243.954L83.3769 243.82C83.3769 243.82 85.2409 225.991 84.6879 218.988C84.135 211.986 84.1039 190.553 84.1039 190.553H85.7069C85.7069 190.553 93.0138 222.282 93.3058 223.929C93.5979 225.576 98.1336 242.991 98.1336 242.991L113.623 242.308C113.045 238.162 111.935 234.097 110.318 230.201C107.541 223.333 106.901 217.885 106.59 217.061C106.279 216.238 105.869 203.816 102.8 190.384C100.849 182.032 97.8914 173.916 93.9831 166.195C87.2045 167.68 80.1788 167.878 73.3175 166.779Z" fill="#FFBE9D" stroke="#263238" stroke-linecap="round" stroke-linejoin="round"/>
<path d="M106.603 217.061C106.31 216.238 105.869 203.834 102.8 190.372C101.523 184.711 99.5522 179.209 96.9284 173.974C87.1796 177.787 76.1634 176.31 70.6584 175.177C69.0864 179.101 67.297 184.562 66.831 189.958C65.9549 200.125 70.6335 220.495 70.6335 220.495C70.6335 220.495 70.6335 232.263 70.5031 238.441C70.3726 244.62 69.8817 243.954 69.8817 243.954L83.3274 243.82C83.3274 243.82 85.1914 225.991 84.6384 218.988C84.0854 211.986 84.0543 190.553 84.0543 190.553H85.6574C85.6574 190.553 92.9643 222.282 93.2563 223.929C93.5483 225.576 98.084 242.991 98.084 242.991L113.574 242.307C112.996 238.161 111.886 234.096 110.268 230.201C107.535 223.333 106.87 217.885 106.603 217.061Z" fill="#263238" stroke="#263238" stroke-linecap="round" stroke-linejoin="round"/>
<path d="M67.4336 197.007L76.2006 197.147L76.6418 200.715L68.3097 200.581" stroke="#FFBE9D" stroke-miterlimit="10"/>
<path d="M76.4924 202.093C76.4924 202.093 76.9335 211.846 76.7906 212.944C76.6477 214.042 70.9438 214.316 70.9438 214.316" stroke="#FFBE9D" stroke-miterlimit="10"/>
<path d="M103.931 197.007L95.1948 197.147L95.5987 200.715L103.9 200.581" stroke="#FFBE9D" stroke-miterlimit="10"/>
<path d="M96.0708 202.093C96.0708 202.093 97.9348 211.846 98.3387 212.944C98.7425 214.042 104.502 214.316 104.502 214.316" stroke="#FFBE9D" stroke-miterlimit="10"/>
<path d="M83.5137 177.326L83.9486 180.345L85.7008 180.485L86.2848 186.938" stroke="#FFBE9D" stroke-miterlimit="10"/>
<path d="M78.2884 138.215C76.8158 138.205 75.3498 138.402 73.9391 138.799C72.1869 139.383 68.7571 140.183 67.3902 142.356C65.0851 146.023 70.3664 157.855 71.2052 160.723C72.044 163.59 73.3177 166.779 73.3177 166.779C73.3177 166.779 80.4568 168.753 86.2352 167.865C92.0136 166.977 94.0143 166.183 94.0143 166.183C94.0143 166.183 95.1949 162.095 96.4562 154.632C97.1086 150.736 99.9419 146.31 99.5069 143.267C98.7551 137.958 88.9443 138.525 87.8134 138.624C86.9001 138.7 81.0223 138.373 78.2884 138.215Z" fill="#47C2C9" stroke="#263238" stroke-linecap="round" stroke-linejoin="round"/>
<path d="M78.7478 133.094C78.6453 134.293 78.4375 135.483 78.1265 136.65C77.6045 138.624 76.8838 139.313 76.8838 139.313C76.8838 139.313 78.2259 141.795 82.0346 142.081C87.2849 142.473 89.2856 138.723 89.2856 138.723C88.1664 137.097 87.5136 135.226 87.3905 133.292L78.7478 133.094Z" fill="#FFBE9D" stroke="#263238" stroke-linecap="round" stroke-linejoin="round"/>
<path d="M84.8246 116.309C84.8246 116.309 82.5132 120.111 80.3199 122.062C78.5224 123.511 76.5446 124.751 74.4297 125.753C74.4297 125.753 75.3555 130.746 76.9709 133.462C78.5864 136.177 81.8236 139.103 85.7442 137.801C89.6648 136.498 91.6344 129.66 91.6344 127.925C91.6344 126.191 91.4045 123.691 91.4045 123.691C91.4045 123.691 87.8256 121.846 84.8246 116.309Z" fill="#FFBE9D" stroke="#263238" stroke-linecap="round" stroke-linejoin="round"/>
<path d="M74.3116 126.623C74.3116 126.623 72.3482 125.648 72.1183 127.791C71.8884 129.934 76.1632 131.482 76.1632 131.482L74.3116 126.623Z" fill="#FFBE9D" stroke="#263238" stroke-linecap="round" stroke-linejoin="round"/>
<path d="M91.7528 125.56C91.7528 125.56 93.3682 124.69 93.2564 126.862C93.2196 127.496 93.0223 128.112 92.6807 128.66C92.3392 129.208 91.8634 129.67 91.293 130.01L91.7528 125.56Z" fill="#FFBE9D" stroke="#263238" stroke-linecap="round" stroke-linejoin="round"/>
<path d="M81.3577 126.95C81.3577 127.487 81.0471 127.925 80.6681 127.925C80.289 127.925 79.9722 127.487 79.9722 126.95C79.9722 126.413 80.2828 125.969 80.6681 125.969C81.0533 125.969 81.3577 126.407 81.3577 126.95Z" fill="#263238"/>
<path d="M87.6082 126.95C87.6082 127.487 87.2976 127.925 86.9123 127.925C86.5271 127.925 86.2227 127.487 86.2227 126.95C86.2227 126.413 86.5333 125.969 86.9123 125.969C87.2913 125.969 87.6082 126.407 87.6082 126.95Z" fill="#263238"/>
<path d="M82.6377 129.987C82.6377 129.987 83.6753 130.962 85.2908 129.876" stroke="#263238" stroke-miterlimit="10"/>
<path d="M78.3564 124.778C78.3564 124.778 79.2822 123.691 81.4631 123.802" stroke="#263238" stroke-miterlimit="10"/>
<path d="M85.7441 123.808C85.7441 123.808 87.8256 123.481 88.9813 124.672" stroke="#263238" stroke-miterlimit="10"/>
<path d="M86.2102 131.721C83.4391 133.135 81.7056 131.721 81.7056 131.721C81.7056 131.721 81.9355 134.437 83.5696 134.548C85.2037 134.659 86.2102 131.721 86.2102 131.721Z" stroke="#263238" stroke-miterlimit="10"/>
<path d="M73.1809 139.021C73.1809 139.021 68.1047 138.723 65.3708 141.982C62.6369 145.241 60.1764 168.104 61.7546 168.992C63.3328 169.88 66.4892 168.677 67.1167 167.982C67.7443 167.287 71.988 150.211 71.988 150.211" fill="#47C2C9"/>
<path d="M73.1809 139.021C73.1809 139.021 68.1046 138.723 65.3708 141.982C62.6369 145.241 60.1764 168.104 61.7546 168.992C63.3328 169.88 66.4892 168.677 67.1167 167.982C67.7443 167.287 71.988 150.211 71.988 150.211" stroke="#263238" stroke-linecap="round" stroke-linejoin="round"/>
<path d="M62.6493 152.541C61.3383 159.111 59.8781 168.367 60.7853 168.893C62.3635 169.781 66.1474 169.191 66.7749 168.496C67.1974 168.034 69.8816 159 70.9627 154.246L62.6493 152.541Z" fill="#FFBE9D" stroke="#263238" stroke-linecap="round" stroke-linejoin="round"/>
<path d="M93.082 139.068C94.3256 138.894 95.5953 138.998 96.7881 139.371C97.9809 139.745 99.0634 140.377 99.9478 141.217C101.072 142.245 102.011 146.677 103.334 150.614C105.751 157.75 107 165.739 106.074 166.428C104.633 167.503 103.104 168.764 102.39 168.18C101.675 167.596 93.3616 149.656 93.3616 149.656" fill="#47C2C9"/>
<path d="M93.082 139.068C94.3256 138.894 95.5953 138.998 96.7881 139.371C97.9809 139.745 99.0634 140.377 99.9478 141.217C101.072 142.245 102.011 146.677 103.334 150.614C105.751 157.75 107 165.739 106.074 166.428C104.633 167.503 103.104 168.764 102.39 168.18C101.675 167.596 93.3616 149.656 93.3616 149.656" stroke="#263238" stroke-linecap="round" stroke-linejoin="round"/>
<path d="M103.334 150.614C105.534 156.968 108.727 166.434 107.876 167.065C106.435 168.139 103.104 168.77 102.39 168.157C101.905 167.748 97.3633 157.867 95.1948 153.423L103.334 150.614Z" fill="#FFBE9D" stroke="#263238" stroke-linecap="round" stroke-linejoin="round"/>
<path d="M99.8922 155.473C99.8922 155.473 98.4755 151.893 97.9536 151.466C97.4317 151.04 92.722 147.962 92.722 147.962L92.6598 148.996L95.1762 150.748L92.6909 150.386L92.7592 151.355L95.7292 152.523L92.6226 152.342V153.37L95.3999 153.796L92.6226 154.526L92.9084 155.14H95.5304C95.5304 155.14 96.2387 157.265 97.1459 157.931C97.8592 158.35 98.6917 158.554 99.5318 158.515C99.5318 158.515 100.476 166.463 102.353 168.163C104.229 169.862 108.746 170.148 108.877 167.415C109.007 164.682 108.485 164.034 106.485 162.399C104.484 160.764 99.8922 155.473 99.8922 155.473Z" fill="#FFBE9D" stroke="#263238" stroke-linecap="round" stroke-linejoin="round"/>
<path d="M92.7406 159.543H86.1172L85.4959 148.132C85.4874 147.968 85.548 147.809 85.6644 147.687C85.7808 147.566 85.9436 147.493 86.1172 147.483L92.1939 147.133C92.284 147.128 92.3742 147.141 92.4588 147.17C92.5435 147.2 92.6209 147.245 92.6861 147.304C92.7514 147.362 92.8032 147.433 92.8382 147.511C92.8732 147.589 92.8908 147.673 92.8898 147.758L92.7406 159.543Z" fill="#263238" stroke="#263238" stroke-linecap="round" stroke-linejoin="round"/>
<path d="M63.3265 162.767L81.165 156.512C81.165 156.512 83.2651 155.029 83.582 154.731C83.8989 154.433 85.7878 153.154 85.7878 153.154V154.632L93.1381 156.705C93.1381 156.705 92.8275 157.499 92.405 157.499C92.405 157.499 93.6476 157.89 93.6476 158.287C93.6818 158.578 93.6435 158.871 93.5356 159.145C93.4277 159.419 93.2533 159.665 93.0263 159.864C92.405 160.361 88.7204 160.758 87.1485 160.758C85.3433 160.613 83.5514 160.347 81.7864 159.963C81.7864 159.963 68.9931 168.805 66.8744 169.594C64.7556 170.382 61.2016 171.375 60.7791 168.905C60.3566 166.434 61.7794 162.235 61.7794 162.235" fill="#FFBE9D"/>
<path d="M63.3265 162.767L81.165 156.512C81.165 156.512 83.2651 155.029 83.582 154.731C83.8989 154.433 85.7878 153.154 85.7878 153.154V154.632L93.1381 156.705C93.1381 156.705 92.8275 157.499 92.405 157.499C92.405 157.499 93.6476 157.89 93.6476 158.287C93.6818 158.578 93.6435 158.871 93.5356 159.145C93.4277 159.419 93.2533 159.665 93.0263 159.864C92.405 160.361 88.7204 160.758 87.1485 160.758C85.3433 160.613 83.5514 160.347 81.7864 159.963C81.7864 159.963 68.9931 168.805 66.8744 169.594C64.7556 170.382 61.2016 171.375 60.7791 168.905C60.3566 166.434 61.7794 162.235 61.7794 162.235" stroke="#263238" stroke-linecap="round" stroke-linejoin="round"/>
<path d="M92.4051 157.487C90.3756 157.344 88.3582 157.077 86.3657 156.687" stroke="#263238" stroke-miterlimit="10"/>
<path d="M93.4366 158.755C93.4366 158.755 88.0745 158.69 86.459 158.206" stroke="#263238" stroke-miterlimit="10"/>
<path d="M86.6514 159.788C86.6514 159.788 90.7832 160.331 92.5292 160.092" stroke="#263238" stroke-miterlimit="10"/>
</svg>
