<svg width="398" height="398" viewBox="0 0 398 398" fill="none" xmlns="http://www.w3.org/2000/svg">
<path d="M196.238 347.104C285.204 347.104 357.324 336.826 357.324 324.147C357.324 311.468 285.204 301.19 196.238 301.19C107.272 301.19 35.1514 311.468 35.1514 324.147C35.1514 336.826 107.272 347.104 196.238 347.104Z" fill="#47C2C9"/>
<path opacity="0.5" d="M196.238 347.104C285.204 347.104 357.324 336.826 357.324 324.147C357.324 311.468 285.204 301.19 196.238 301.19C107.272 301.19 35.1514 311.468 35.1514 324.147C35.1514 336.826 107.272 347.104 196.238 347.104Z" fill="white"/>
<path d="M362.18 237.208C359.48 237.923 357.048 239.412 355.183 241.49C353.553 243.233 352.134 245.162 350.956 247.238C350.16 248.551 349.5 249.912 348.863 251.289C348.449 252.189 348.131 253.311 347.741 254.338C347.175 255.253 346.61 256.193 346.149 257.068C347.836 250.979 353.313 239.771 353.384 236.587C353.496 233.117 350.2 238.275 348.322 245.343C347.271 249.341 346.474 253.4 345.934 257.498C345.743 257.864 345.576 258.206 345.424 258.533C345.082 259.241 344.501 260.443 343.729 262.019C345.424 256.845 346.037 250.708 345.018 249.944C343.538 248.846 343.004 251.536 343.012 256.519C342.867 260.077 342.282 263.604 341.269 267.018C340.338 268.857 339.295 270.887 338.181 273.028C339.351 269.303 340.027 263.938 340.664 259.918C341.596 254.067 341.198 252.244 339.303 255.054C337.409 257.864 337.711 261.94 338.189 266.923C338.349 270.108 337.772 273.287 336.501 276.212C335.076 278.918 333.564 281.72 332.036 284.474C333.332 281.652 334.152 278.634 334.463 275.543C335.124 268.785 334.256 262.576 332.688 264.336C331.12 266.095 332.051 270.799 331.845 276.522C331.731 279.997 331.34 283.458 330.674 286.87L330.197 287.714C330.826 284.808 330.993 281.821 330.69 278.863C331.001 277.732 330.889 277.008 330.515 276.666C330.459 275.392 330.563 273.482 330.022 272.503C328.653 270.059 327.156 273.346 327.14 274.644C327.141 275.637 327.211 276.629 327.347 277.613C326.814 278.108 326.353 278.677 325.978 279.3C325.771 279.651 325.556 280.033 325.325 280.455C325.325 280.049 325.373 279.611 325.389 279.221C325.461 278.118 325.229 277.017 324.72 276.037C325.542 274.396 326.134 272.65 326.479 270.847C326.64 270.251 326.598 269.618 326.36 269.048C326.281 268.872 326.168 268.714 326.027 268.582C325.887 268.449 325.722 268.346 325.541 268.278C325.361 268.21 325.168 268.179 324.976 268.185C324.783 268.191 324.593 268.236 324.418 268.316C324.333 268.356 324.251 268.401 324.171 268.451C321.576 269.828 320.884 273.139 320.581 275.798C320.296 278.091 319.833 280.359 319.196 282.58C318.663 284.578 318.193 286.385 317.891 287.643C317.684 286.301 317.403 284.972 317.047 283.663C316.752 282.572 316.474 281.521 316.203 280.479C315.954 276.791 316.676 273.102 318.297 269.78C321.369 263.46 323.59 260.483 321.481 260.38C319.371 260.276 316.259 263.564 315.821 268.769C315.492 271.924 315.426 275.1 315.622 278.266C314.945 275.878 314.277 273.561 313.584 271.237C313.049 268.67 313.18 266.009 313.966 263.508C315.415 259.217 319.745 251.568 317.469 252.197C315.192 252.825 312.454 257.219 312.144 261.9C312.061 264.345 312.329 266.79 312.94 269.159C312.446 267.536 311.915 265.848 311.348 264.097C311.109 263.301 310.854 262.505 310.607 261.709C310.617 261.565 310.595 261.421 310.544 261.287C310.226 258.869 310.663 256.411 311.793 254.25C313.974 250.334 318.026 246.967 315.638 246.067C313.25 245.168 309.644 251.536 309.429 254.72C309.381 255.932 309.477 257.145 309.716 258.334L309.421 257.594C308.904 255.763 308.402 253.956 307.965 252.356C307.87 249.993 308.345 247.643 309.35 245.502C311.483 240.615 314.189 235.035 311.427 236.452C309.198 237.606 306.794 244.189 307.264 249.753C307.081 249.021 306.906 248.4 306.771 247.89C306.412 244.706 305.728 237.208 306.771 232.766C307.455 229.789 308.577 226.963 308.92 223.899C308.989 223.559 308.964 223.207 308.848 222.88C308.1 221.033 305.664 224.631 305.298 225.22C303.811 227.59 303.05 230.343 303.109 233.14C303.111 235.524 303.394 237.899 303.953 240.217C304.292 241.697 304.704 243.162 305.186 244.611C305.489 245.542 306.03 246.585 306.444 247.596C306.651 248.654 306.882 249.729 307.129 250.692C304.207 245.041 300.506 233.109 298.436 230.681C296.152 228.078 297.258 234.135 300.681 240.543C302.649 244.203 304.845 247.737 307.256 251.122C307.368 251.52 307.479 251.918 307.59 252.228C307.821 252.977 308.219 254.258 308.729 255.938C306.404 251.027 302.695 246.091 301.429 246.227C299.607 246.434 301.055 248.766 304.454 252.404C306.762 255.102 308.727 258.075 310.305 261.255C310.878 263.245 311.507 265.426 312.151 267.75C310.456 264.232 307.288 259.846 304.987 256.479C301.676 251.568 300.14 250.501 300.673 253.844C301.206 257.188 304.223 259.95 307.972 263.285C310.251 265.516 311.988 268.239 313.051 271.245C313.847 274.19 314.643 277.271 315.439 280.335C314.461 277.384 313.004 274.614 311.125 272.136C306.985 266.732 302.114 262.791 302.17 265.14C302.225 267.488 306.11 270.306 309.883 274.604C312.172 277.214 314.241 280.01 316.068 282.962C316.147 283.265 316.219 283.575 316.291 283.877C314.603 280.781 311.905 278.258 309.286 275.917C308.363 275.074 306.97 273.299 305.783 272.917C303.125 272.073 304.271 275.496 305.147 276.451C307.988 279.555 311.992 281.474 314.619 284.745C315.61 285.975 316.497 287.285 317.27 288.661C317.453 289.736 317.588 290.739 317.7 291.678C316.691 290.723 315.63 289.821 314.516 288.972C311.332 286.815 309.445 283.846 306.97 281.012C306.229 280.168 304.972 279.117 303.786 279.062C302.098 278.99 301.597 280.757 302.098 282.15C304.048 287.889 311.387 288.144 315.694 291.129C316.479 291.632 317.206 292.222 317.859 292.888C318.042 294.66 318.09 296.443 318.002 298.221H308.132V302.337H311.061L313.449 316.983H333.182L335.57 302.337H338.499V298.221H323.701C324.378 297.378 325.102 296.534 325.835 295.571L328.955 295.666C328.955 295.666 339.805 296.136 343.785 293.971C347.765 291.806 344.214 289.752 340.402 290.858C336.589 291.965 329.106 295.316 327.451 295.316L326.05 295.276C326.846 294.265 327.642 293.222 328.342 292.156C331.329 291.405 334.267 290.469 337.138 289.354C340.25 288.12 343.896 287.125 346.547 285.032C347.062 284.692 347.453 284.195 347.661 283.615C347.782 283.245 347.752 282.843 347.578 282.495C347.403 282.148 347.098 281.884 346.73 281.76C346.644 281.731 346.556 281.71 346.467 281.696C343.625 280.9 340.855 282.874 338.865 284.61C337.114 286.093 335.251 287.439 333.293 288.638C331.534 289.72 329.958 290.739 328.891 291.431C329.687 290.261 330.404 289.091 331.017 287.953C331.55 286.95 332.067 285.995 332.553 285.063C334.897 282.211 337.941 280.017 341.389 278.695C347.948 276.164 351.585 275.511 350.145 273.991C348.704 272.471 344.143 272.749 340.274 276.26C337.876 278.34 335.655 280.616 333.636 283.066C334.79 280.837 335.872 278.703 336.947 276.538C338.314 274.294 340.232 272.436 342.519 271.141C346.499 269.008 354.873 266.365 352.795 265.275C350.718 264.184 345.703 265.514 342.296 268.73C340.564 270.463 339.089 272.436 337.918 274.588C338.666 273.052 339.43 271.468 340.234 269.812C340.577 269.08 340.951 268.332 341.333 267.551C341.412 267.432 341.5 267.321 341.572 267.193C342.992 265.21 344.991 263.714 347.295 262.911C351.522 261.534 356.847 261.836 355.685 259.528C354.523 257.219 347.55 259.432 345.217 261.621C344.36 262.481 343.601 263.434 342.957 264.463C343.06 264.224 343.164 263.969 343.259 263.715C344.103 262.027 344.947 260.34 345.79 258.939C347.326 257.141 349.277 255.745 351.474 254.871C356.369 252.762 362.164 250.525 359.171 249.673C356.783 248.989 350.495 252.157 347.056 256.551L347.964 254.863C349.874 252.276 354.491 246.33 358.312 243.775C360.843 242.079 363.589 240.758 365.913 238.752C366.168 238.561 366.376 238.313 366.518 238.028C367.139 236.086 362.928 237.073 362.18 237.208ZM318.018 288.415C318.655 287.444 319.777 285.653 321.019 283.352C321.401 284.4 321.837 285.429 322.324 286.433C321.178 288.821 320.127 290.842 319.522 291.368L318.472 292.291C318.4 291.034 318.217 289.744 318.034 288.446L318.018 288.415ZM325.182 295.252C324.412 296.276 323.582 297.254 322.698 298.182H318.878C318.822 296.59 318.711 294.687 318.527 292.61L320.876 290.54C320.876 290.54 321.902 289.696 323.264 288.335C323.931 289.647 324.449 291.03 324.808 292.458C325.061 293.39 325.198 294.35 325.214 295.316L325.182 295.252ZM328.366 287.125C328.254 288.703 328.009 290.269 327.634 291.806C327.037 292.721 326.448 293.549 325.89 294.337C325.843 292.92 325.461 290.357 325.421 290.182C325.158 289.035 325.014 287.864 324.991 286.687C326.115 285.531 327.178 284.317 328.175 283.05C328.401 284.406 328.479 285.784 328.406 287.157L328.366 287.125Z" fill="#263238"/>
<path d="M334.32 81.7971V236.412C334.32 240.392 331.351 243.576 327.665 243.576H47.6166C43.9391 243.576 40.9541 240.392 40.9541 236.412V81.7971C40.9541 77.8171 43.9391 74.6331 47.6166 74.6331H327.689C331.375 74.641 334.32 77.8409 334.32 81.7971Z" fill="white" stroke="#263238" stroke-width="1.06897" stroke-linecap="round" stroke-linejoin="round"/>
<path d="M121.78 101.721H56.5078C53.7426 101.721 51.501 103.963 51.501 106.728V216.791C51.501 219.556 53.7426 221.798 56.5078 221.798H121.78C124.545 221.798 126.787 219.556 126.787 216.791V106.728C126.787 103.963 124.545 101.721 121.78 101.721Z" fill="#47C2C9"/>
<path d="M79.7513 128.387C79.7513 130.671 79.0739 132.904 77.8048 134.804C76.5356 136.703 74.7318 138.183 72.6213 139.058C70.5108 139.932 68.1885 140.161 65.9481 139.715C63.7076 139.269 61.6496 138.169 60.0343 136.554C58.419 134.939 57.319 132.881 56.8733 130.64C56.4276 128.4 56.6564 126.077 57.5306 123.967C58.4047 121.856 59.8851 120.053 61.7845 118.783C63.6839 117.514 65.917 116.837 68.2013 116.837C69.7184 116.836 71.2208 117.134 72.6225 117.714C74.0243 118.294 75.298 119.145 76.3707 120.217C77.4434 121.29 78.2942 122.564 78.8742 123.966C79.4543 125.367 79.7523 126.87 79.7513 128.387Z" fill="white" stroke="#263238" stroke-width="1.06897" stroke-linecap="round" stroke-linejoin="round"/>
<path d="M115.492 121.748H91.3809V124.033H115.492V121.748Z" fill="#263238"/>
<path d="M118.437 127.241H91.3809V129.525H118.437V127.241Z" fill="#263238"/>
<path d="M115.492 132.733H91.3809V135.018H115.492V132.733Z" fill="#263238"/>
<path d="M119.989 138.218H91.3809V140.502H119.989V138.218Z" fill="#263238"/>
<path d="M114.17 153.445H64.0145C61.6625 153.445 59.7559 155.352 59.7559 157.704V168.02C59.7559 170.372 61.6625 172.278 64.0145 172.278H114.17C116.522 172.278 118.429 170.372 118.429 168.02V157.704C118.429 155.352 116.522 153.445 114.17 153.445Z" fill="white" stroke="#263238" stroke-width="1.06897" stroke-linecap="round" stroke-linejoin="round"/>
<path d="M114.17 178.543H64.0145C61.6625 178.543 59.7559 180.45 59.7559 182.802V193.118C59.7559 195.47 61.6625 197.376 64.0145 197.376H114.17C116.522 197.376 118.429 195.47 118.429 193.118V182.802C118.429 180.45 116.522 178.543 114.17 178.543Z" fill="white" stroke="#263238" stroke-width="1.06897" stroke-linecap="round" stroke-linejoin="round"/>
<path d="M245.033 101.379V229.097" stroke="#263238" stroke-width="1.06897" stroke-linecap="round" stroke-linejoin="round"/>
<path d="M334.32 81.3116V91.6596H40.9541V81.3116C40.9541 79.5439 41.6558 77.8484 42.905 76.5977C44.1543 75.3469 45.8489 74.6432 47.6166 74.6411H327.689C329.453 74.6474 331.142 75.3535 332.385 76.6043C333.628 77.855 334.324 79.5481 334.32 81.3116Z" fill="#263238"/>
<path d="M61.0133 85.801C62.486 85.801 63.6799 84.6071 63.6799 83.1344C63.6799 81.6617 62.486 80.4678 61.0133 80.4678C59.5406 80.4678 58.3467 81.6617 58.3467 83.1344C58.3467 84.6071 59.5406 85.801 61.0133 85.801Z" fill="white"/>
<path d="M75.9938 83.1344C75.9938 83.6618 75.8375 84.1773 75.5444 84.6159C75.2514 85.0544 74.835 85.3962 74.3477 85.598C73.8605 85.7998 73.3243 85.8526 72.807 85.7497C72.2897 85.6468 71.8146 85.3929 71.4417 85.0199C71.0687 84.647 70.8148 84.1719 70.7119 83.6546C70.609 83.1373 70.6618 82.6012 70.8636 82.1139C71.0655 81.6267 71.4072 81.2102 71.8458 80.9172C72.2843 80.6242 72.7998 80.4678 73.3273 80.4678C74.0345 80.4678 74.7127 80.7487 75.2128 81.2488C75.7129 81.7489 75.9938 82.4272 75.9938 83.1344Z" fill="white"/>
<path d="M88.1569 83.1344C88.1569 83.6618 88.0005 84.1773 87.7075 84.6159C87.4145 85.0544 86.9981 85.3962 86.5108 85.598C86.0235 85.7998 85.4874 85.8526 84.9701 85.7497C84.4528 85.6468 83.9777 85.3929 83.6048 85.0199C83.2318 84.647 82.9779 84.1719 82.875 83.6546C82.7721 83.1373 82.8249 82.6012 83.0267 82.1139C83.2285 81.6267 83.5703 81.2102 84.0088 80.9172C84.4474 80.6242 84.9629 80.4678 85.4903 80.4678C86.1976 80.4678 86.8758 80.7487 87.3759 81.2488C87.876 81.7489 88.1569 82.4272 88.1569 83.1344Z" fill="white"/>
<path d="M320.429 113.239H256.383V115.364H320.429V113.239Z" fill="#47C2C9"/>
<path d="M287.316 119.87H256.383V121.995H287.316V119.87Z" fill="#47C2C9"/>
<path d="M305.895 126.5H256.383V128.626H305.895V126.5Z" fill="#47C2C9"/>
<path d="M300.609 132.94H256.383V135.248H300.609V132.94Z" fill="#47C2C9"/>
<path d="M299.224 139.762H256.383V141.887H299.224V139.762Z" fill="#47C2C9"/>
<path d="M284.219 146.393H256.383V148.518H284.219V146.393Z" fill="#47C2C9"/>
<path opacity="0.2" d="M320.429 113.239H256.383V115.364H320.429V113.239Z" fill="black"/>
<path opacity="0.2" d="M287.316 119.87H256.383V121.995H287.316V119.87Z" fill="black"/>
<path opacity="0.2" d="M305.895 126.5H256.383V128.626H305.895V126.5Z" fill="black"/>
<path opacity="0.2" d="M300.609 132.94H256.383V135.248H300.609V132.94Z" fill="black"/>
<path opacity="0.2" d="M299.224 139.762H256.383V141.887H299.224V139.762Z" fill="black"/>
<path opacity="0.2" d="M284.219 146.393H256.383V148.518H284.219V146.393Z" fill="black"/>
<path d="M68.201 134.524C71.863 134.524 74.8317 131.555 74.8317 127.893C74.8317 124.231 71.863 121.263 68.201 121.263C64.539 121.263 61.5703 124.231 61.5703 127.893C61.5703 131.555 64.539 134.524 68.201 134.524Z" fill="#263238"/>
<path d="M74.824 137.867C72.8254 139.249 70.4422 139.966 68.0129 139.916C65.5837 139.866 63.232 139.052 61.292 137.589C62.3825 135.4 64.476 132.017 67.1346 132.017C70.4619 131.969 72.7305 133.434 74.824 137.867Z" fill="#263238"/>
<path d="M315.916 79.4487H252.029C250.205 79.4487 248.726 80.9277 248.726 82.7521V83.5163C248.726 85.3407 250.205 86.8197 252.029 86.8197H315.916C317.741 86.8197 319.22 85.3407 319.22 83.5163V82.7521C319.22 80.9277 317.741 79.4487 315.916 79.4487Z" fill="white"/>
<path d="M252.905 80.7065V85.387" stroke="#263238" stroke-width="1.06897" stroke-linecap="round" stroke-linejoin="round"/>
<path d="M114.202 204.413H98.2184C96.4819 204.413 95.0742 205.821 95.0742 207.557V211.593C95.0742 213.329 96.4819 214.737 98.2184 214.737H114.202C115.939 214.737 117.346 213.329 117.346 211.593V207.557C117.346 205.821 115.939 204.413 114.202 204.413Z" fill="#47C2C9"/>
<path d="M321.21 204.564H261.756V173.409" stroke="#263238" stroke-width="1.06897" stroke-linecap="round" stroke-linejoin="round"/>
<path d="M264.161 191.717L266.716 197.424L280.128 179.673L282.93 188.238L288.232 185.261L300.482 197.424L309.628 188.986L313.162 192.704L319.26 180.716" stroke="#263238" stroke-width="1.06897" stroke-linecap="round" stroke-linejoin="round"/>
<path d="M260.363 202.606H256.057V204.556H260.363V202.606Z" fill="#47C2C9"/>
<path d="M260.363 195.474H256.057V197.424H260.363V195.474Z" fill="#47C2C9"/>
<path d="M260.363 188.334H256.057V190.284H260.363V188.334Z" fill="#47C2C9"/>
<path d="M260.363 181.194H256.057V183.144H260.363V181.194Z" fill="#47C2C9"/>
<path d="M260.363 174.062H256.057V176.012H260.363V174.062Z" fill="#47C2C9"/>
<path d="M290.787 206.132V218.43H292.705V206.132H290.787Z" fill="#47C2C9"/>
<path d="M297.616 206.132V218.43H299.535V206.132H297.616Z" fill="#47C2C9"/>
<path d="M304.446 206.14V218.438H306.364V206.14H304.446Z" fill="#47C2C9"/>
<path d="M311.276 206.14V218.438H313.194V206.14H311.276Z" fill="#47C2C9"/>
<path d="M318.105 206.14V218.438H320.024V206.14H318.105Z" fill="#47C2C9"/>
<path d="M283.782 206.14V218.438H285.7V206.14H283.782Z" fill="#47C2C9"/>
<path d="M276.777 206.14V218.438H278.695V206.14H276.777Z" fill="#47C2C9"/>
<path d="M269.764 206.132V218.43H271.683V206.132H269.764Z" fill="#47C2C9"/>
<path d="M262.759 206.14V218.438H264.678V206.14H262.759Z" fill="#47C2C9"/>
<path d="M208.273 106.975C205.094 106.975 202.045 108.238 199.797 110.486C197.549 112.734 196.286 115.783 196.286 118.962C196.286 122.142 197.549 125.191 199.797 127.439C202.045 129.687 205.094 130.95 208.273 130.95C209.848 130.982 211.413 130.704 212.879 130.131C214.346 129.558 215.685 128.701 216.821 127.611C217.957 126.52 218.867 125.216 219.499 123.774C220.13 122.332 220.472 120.779 220.504 119.205C220.536 117.631 220.257 116.066 219.684 114.599C219.111 113.133 218.255 111.793 217.164 110.657C216.074 109.522 214.77 108.612 213.328 107.98C211.886 107.348 210.333 107.006 208.759 106.975H208.273Z" fill="#263238"/>
<path d="M215.875 115.118C215.787 114.78 215.611 114.471 215.365 114.224C215.119 113.976 214.811 113.799 214.474 113.709C213.232 113.374 208.265 113.374 208.265 113.374C208.265 113.374 203.298 113.374 202.064 113.709C201.726 113.798 201.418 113.976 201.17 114.223C200.923 114.471 200.745 114.779 200.656 115.118C200.218 117.665 200.218 120.268 200.656 122.815C200.745 123.153 200.923 123.462 201.17 123.709C201.418 123.957 201.726 124.134 202.064 124.224C203.298 124.558 208.265 124.558 208.265 124.558C208.265 124.558 213.232 124.558 214.474 124.224C214.811 124.132 215.117 123.954 215.363 123.707C215.609 123.459 215.785 123.152 215.875 122.815C216.321 120.268 216.321 117.664 215.875 115.118Z" fill="white"/>
<path d="M206.642 121.326V116.606L210.797 118.962L206.642 121.326Z" fill="#263238"/>
<path d="M161.046 107.006C158.685 107.006 156.376 107.707 154.413 109.019C152.449 110.331 150.919 112.195 150.015 114.377C149.112 116.559 148.875 118.96 149.336 121.276C149.797 123.592 150.934 125.719 152.604 127.389C154.273 129.059 156.401 130.196 158.717 130.657C161.033 131.118 163.434 130.881 165.616 129.977C167.797 129.074 169.662 127.543 170.974 125.58C172.286 123.616 172.986 121.308 172.986 118.946C172.986 115.78 171.728 112.743 169.489 110.503C167.25 108.264 164.213 107.006 161.046 107.006Z" fill="#263238"/>
<path d="M159.033 126.636H162.129V118.883H164.286L164.517 116.288H162.129V114.799C162.129 114.186 162.249 113.947 162.846 113.947H164.517V111.249H162.384C160.083 111.249 159.041 112.268 159.041 114.202V116.272H157.449V118.891H159.041L159.033 126.636Z" fill="white"/>
<path d="M160.975 155.602C158.604 155.602 156.287 156.305 154.316 157.622C152.345 158.939 150.808 160.81 149.901 163C148.993 165.19 148.755 167.6 149.217 169.926C149.679 172.251 150.82 174.387 152.496 176.064C154.171 177.74 156.307 178.883 158.631 179.346C160.956 179.81 163.366 179.573 165.557 178.667C167.748 177.761 169.62 176.226 170.939 174.256C172.257 172.285 172.961 169.968 172.963 167.598C172.963 164.418 171.7 161.368 169.452 159.118C167.204 156.869 164.155 155.604 160.975 155.602Z" fill="#263238"/>
<path d="M160.975 161.867C162.837 161.867 163.06 161.867 163.801 161.867C164.244 161.874 164.683 161.958 165.098 162.114C165.399 162.224 165.671 162.4 165.894 162.631C166.126 162.854 166.305 163.126 166.419 163.427C166.574 163.842 166.654 164.281 166.658 164.724C166.658 165.465 166.658 165.711 166.658 167.542C166.658 169.373 166.658 169.636 166.658 170.368C166.655 170.811 166.574 171.25 166.419 171.666C166.308 171.968 166.129 172.241 165.894 172.462C165.672 172.694 165.4 172.874 165.098 172.987C164.681 173.137 164.243 173.217 163.801 173.226C163.06 173.226 162.837 173.226 160.975 173.226C159.112 173.226 158.889 173.226 158.149 173.226C157.706 173.219 157.268 173.138 156.851 172.987C156.55 172.874 156.278 172.694 156.055 172.462C155.821 172.241 155.641 171.968 155.53 171.666C155.375 171.25 155.294 170.811 155.291 170.368C155.291 169.636 155.244 169.413 155.244 167.542C155.244 165.672 155.244 165.465 155.291 164.724C155.295 164.281 155.376 163.842 155.53 163.427C155.641 163.124 155.821 162.852 156.055 162.631C156.278 162.4 156.55 162.224 156.851 162.114C157.267 161.96 157.706 161.876 158.149 161.867C158.889 161.867 159.104 161.867 160.975 161.867ZM160.975 160.609C159.08 160.609 158.834 160.609 158.093 160.609C157.523 160.615 156.958 160.717 156.422 160.912C155.959 161.091 155.539 161.365 155.188 161.715C154.837 162.066 154.563 162.487 154.384 162.949C154.181 163.492 154.071 164.065 154.058 164.645C154.058 165.393 154.01 165.632 154.01 167.526C154.01 169.421 154.01 169.66 154.058 170.408C154.07 170.987 154.18 171.561 154.384 172.103C154.56 172.572 154.832 172.998 155.183 173.354C155.534 173.711 155.956 173.99 156.422 174.173C156.966 174.372 157.538 174.482 158.117 174.499C158.865 174.499 159.104 174.499 160.999 174.499C162.893 174.499 163.132 174.499 163.88 174.499C164.459 174.482 165.032 174.372 165.576 174.173C166.039 173.992 166.459 173.717 166.81 173.365C167.161 173.012 167.434 172.591 167.613 172.127C167.817 171.585 167.928 171.011 167.94 170.432C167.94 169.691 167.988 169.453 167.988 167.55C167.988 165.648 167.988 165.417 167.94 164.669C167.927 164.092 167.816 163.521 167.613 162.981C167.436 162.517 167.162 162.095 166.811 161.742C166.46 161.39 166.039 161.115 165.576 160.935C165.033 160.733 164.46 160.623 163.88 160.609C163.132 160.609 162.893 160.609 160.999 160.609" fill="white"/>
<path d="M160.975 163.976C160.265 163.975 159.57 164.184 158.979 164.577C158.388 164.97 157.926 165.529 157.653 166.185C157.38 166.84 157.307 167.562 157.444 168.259C157.581 168.955 157.922 169.596 158.423 170.099C158.924 170.602 159.563 170.945 160.259 171.085C160.955 171.226 161.677 171.156 162.333 170.886C162.99 170.616 163.552 170.157 163.947 169.567C164.343 168.978 164.555 168.284 164.557 167.574C164.557 166.624 164.179 165.713 163.508 165.041C162.836 164.369 161.925 163.992 160.975 163.992M160.975 169.89C160.513 169.892 160.062 169.756 159.677 169.501C159.292 169.246 158.992 168.882 158.814 168.456C158.637 168.03 158.589 167.561 158.678 167.108C158.768 166.655 158.989 166.239 159.315 165.912C159.641 165.585 160.056 165.362 160.509 165.271C160.962 165.181 161.431 165.226 161.858 165.403C162.284 165.579 162.649 165.878 162.906 166.262C163.162 166.645 163.299 167.096 163.299 167.558C163.299 168.175 163.055 168.767 162.619 169.204C162.183 169.642 161.592 169.888 160.975 169.89Z" fill="white"/>
<path d="M208.719 178.694C207.219 178.695 205.733 178.4 204.347 177.827C202.96 177.253 201.701 176.412 200.64 175.351C199.579 174.29 198.737 173.03 198.164 171.644C197.59 170.258 197.295 168.772 197.296 167.271C197.296 164.242 198.5 161.337 200.642 159.194C202.784 157.052 205.69 155.849 208.719 155.849C211.748 155.849 214.654 157.052 216.796 159.194C218.938 161.337 220.142 164.242 220.142 167.271C220.143 168.772 219.848 170.258 219.274 171.644C218.701 173.03 217.859 174.29 216.798 175.351C215.737 176.412 214.478 177.253 213.091 177.827C211.705 178.4 210.219 178.695 208.719 178.694Z" fill="#263238" stroke="#263238" stroke-width="1.06897" stroke-linecap="round" stroke-linejoin="round"/>
<path d="M202.638 171.14C203.777 171.874 205.104 172.261 206.458 172.254C207.426 172.262 208.385 172.07 209.275 171.692C210.165 171.313 210.969 170.756 211.635 170.055C212.301 169.353 212.817 168.522 213.149 167.614C213.481 166.705 213.623 165.738 213.567 164.772C214.049 164.413 214.466 163.974 214.801 163.475C214.346 163.678 213.863 163.812 213.368 163.873C213.886 163.558 214.274 163.066 214.458 162.488C213.967 162.783 213.428 162.993 212.866 163.108C212.489 162.711 211.992 162.448 211.451 162.36C210.91 162.273 210.355 162.366 209.872 162.624C209.389 162.883 209.004 163.294 208.777 163.792C208.55 164.291 208.493 164.851 208.616 165.385C207.623 165.334 206.653 165.076 205.767 164.626C204.881 164.176 204.1 163.545 203.473 162.774C203.156 163.327 203.061 163.98 203.209 164.6C203.357 165.22 203.737 165.76 204.269 166.109C203.874 166.096 203.486 165.989 203.139 165.799C203.135 166.378 203.332 166.941 203.696 167.391C204.06 167.841 204.57 168.15 205.137 168.267C204.769 168.358 204.383 168.358 204.015 168.267C204.173 168.763 204.483 169.198 204.902 169.51C205.32 169.821 205.826 169.993 206.347 170.002C205.834 170.426 205.242 170.745 204.606 170.94C203.969 171.136 203.3 171.204 202.638 171.14Z" fill="white"/>
<path d="M208.337 206.698C205.964 206.696 203.644 207.398 201.671 208.715C199.697 210.032 198.158 211.905 197.249 214.097C196.34 216.289 196.101 218.701 196.563 221.029C197.025 223.356 198.167 225.494 199.844 227.173C201.521 228.851 203.659 229.994 205.986 230.458C208.313 230.921 210.726 230.684 212.918 229.777C215.11 228.869 216.984 227.331 218.303 225.359C219.621 223.386 220.325 221.066 220.325 218.693C220.325 215.513 219.062 212.463 216.814 210.214C214.566 207.964 211.517 206.7 208.337 206.698Z" fill="#263238"/>
<path d="M204.834 215.549H202.2V224.066H204.834V215.549Z" fill="white"/>
<path d="M203.505 214.434C203.82 214.434 204.128 214.341 204.39 214.166C204.651 213.991 204.855 213.743 204.976 213.452C205.096 213.161 205.128 212.841 205.067 212.532C205.005 212.223 204.853 211.939 204.631 211.717C204.408 211.494 204.124 211.343 203.816 211.281C203.507 211.22 203.187 211.251 202.896 211.372C202.605 211.492 202.356 211.696 202.181 211.958C202.006 212.22 201.913 212.528 201.913 212.842C201.913 213.265 202.081 213.67 202.379 213.968C202.678 214.267 203.083 214.434 203.505 214.434Z" fill="white"/>
<path d="M209.053 219.601C209.053 218.399 209.603 217.69 210.645 217.69C211.688 217.69 212.078 218.375 212.078 219.601V224.066H214.705V218.693C214.705 216.417 213.407 215.302 211.593 215.302C211.079 215.297 210.573 215.424 210.124 215.673C209.675 215.921 209.298 216.281 209.029 216.719V215.581H206.49V224.098H209.029L209.053 219.601Z" fill="white"/>
<path d="M160.967 230.633C157.788 230.633 154.739 229.37 152.491 227.122C150.242 224.874 148.979 221.825 148.979 218.645C148.979 215.465 150.242 212.415 152.49 210.166C154.738 207.917 157.787 206.652 160.967 206.65C164.149 206.65 167.2 207.913 169.45 210.163C171.699 212.413 172.963 215.464 172.963 218.645C172.961 221.825 171.696 224.875 169.447 227.122C167.197 229.37 164.147 230.633 160.967 230.633Z" fill="#263238"/>
<path d="M159.2 223.191C159.545 223.118 159.87 222.975 160.155 222.769C160.459 222.531 160.705 222.226 160.874 221.878C161.042 221.531 161.128 221.149 161.126 220.763C161.138 220.329 161.025 219.9 160.8 219.529C160.57 219.179 160.228 218.918 159.829 218.789C160.072 218.672 160.291 218.51 160.474 218.311C160.745 217.956 160.88 217.516 160.856 217.069C160.871 216.612 160.737 216.162 160.474 215.788C160.207 215.477 159.87 215.234 159.491 215.079C159.111 214.924 158.701 214.862 158.293 214.896H154.225V223.286H157.998C158.401 223.294 158.804 223.262 159.2 223.191ZM155.905 216.353H157.727C158.064 216.341 158.401 216.387 158.722 216.488C158.877 216.55 159.007 216.662 159.089 216.807C159.172 216.951 159.202 217.12 159.176 217.284C159.191 217.427 159.167 217.571 159.107 217.702C159.047 217.832 158.952 217.943 158.834 218.025C158.561 218.172 158.253 218.244 157.942 218.231H155.905V216.353ZM155.905 221.845V219.601H157.966C158.253 219.595 158.539 219.64 158.81 219.736C158.982 219.814 159.127 219.942 159.223 220.105C159.32 220.267 159.365 220.455 159.351 220.643C159.372 220.854 159.33 221.066 159.231 221.253C159.132 221.44 158.98 221.593 158.794 221.694C158.524 221.803 158.234 221.855 157.942 221.845H155.905Z" fill="white"/>
<path d="M162.519 222.753C163.131 223.269 163.907 223.551 164.708 223.549C165.148 223.583 165.591 223.519 166.004 223.362C166.417 223.206 166.79 222.959 167.096 222.641C167.414 222.347 167.624 221.954 167.693 221.527H166.029C165.949 221.687 165.838 221.83 165.703 221.949C165.444 222.149 165.123 222.251 164.796 222.235C164.48 222.243 164.169 222.163 163.896 222.004C163.685 221.86 163.514 221.662 163.401 221.432C163.288 221.202 163.237 220.947 163.251 220.691H167.781C167.797 220.279 167.781 219.867 167.733 219.457C167.65 218.968 167.454 218.504 167.16 218.104C166.895 217.704 166.522 217.387 166.085 217.189C165.623 216.987 165.124 216.887 164.621 216.894C164.211 216.878 163.803 216.946 163.421 217.094C163.039 217.242 162.692 217.467 162.4 217.754C161.819 218.436 161.533 219.32 161.604 220.213C161.55 220.679 161.605 221.15 161.764 221.59C161.923 222.031 162.181 222.428 162.519 222.753ZM163.681 218.613C163.811 218.492 163.964 218.397 164.13 218.336C164.297 218.274 164.475 218.247 164.652 218.255C165.007 218.246 165.353 218.368 165.623 218.598C165.758 218.723 165.866 218.874 165.94 219.043C166.014 219.211 166.052 219.393 166.053 219.577H163.251C163.29 219.218 163.441 218.882 163.681 218.613Z" fill="white"/>
<path d="M166.372 215.374H162.718V216.226H166.372V215.374Z" fill="white"/>
<path d="M173.926 102.493H148.167C146.184 102.493 144.577 104.1 144.577 106.083V131.842C144.577 133.824 146.184 135.432 148.167 135.432H173.926C175.908 135.432 177.516 133.824 177.516 131.842V106.083C177.516 104.1 175.908 102.493 173.926 102.493Z" stroke="#47C2C9" stroke-width="1.06897" stroke-miterlimit="10"/>
<path d="M221.391 102.493H195.633C193.65 102.493 192.043 104.1 192.043 106.083V131.842C192.043 133.824 193.65 135.432 195.633 135.432H221.391C223.374 135.432 224.981 133.824 224.981 131.842V106.083C224.981 104.1 223.374 102.493 221.391 102.493Z" stroke="#47C2C9" stroke-width="1.06897" stroke-miterlimit="10"/>
<path d="M173.926 150.739H148.167C146.184 150.739 144.577 152.346 144.577 154.328V180.087C144.577 182.07 146.184 183.677 148.167 183.677H173.926C175.908 183.677 177.516 182.07 177.516 180.087V154.328C177.516 152.346 175.908 150.739 173.926 150.739Z" stroke="#47C2C9" stroke-width="1.06897" stroke-miterlimit="10"/>
<path d="M221.391 150.739H195.633C193.65 150.739 192.043 152.346 192.043 154.328V180.087C192.043 182.07 193.65 183.677 195.633 183.677H221.391C223.374 183.677 224.981 182.07 224.981 180.087V154.328C224.981 152.346 223.374 150.739 221.391 150.739Z" stroke="#47C2C9" stroke-width="1.06897" stroke-miterlimit="10"/>
<path d="M173.926 201.372H148.167C146.184 201.372 144.577 202.979 144.577 204.962V230.721C144.577 232.703 146.184 234.311 148.167 234.311H173.926C175.908 234.311 177.516 232.703 177.516 230.721V204.962C177.516 202.979 175.908 201.372 173.926 201.372Z" stroke="#47C2C9" stroke-width="1.06897" stroke-miterlimit="10"/>
<path d="M221.391 201.372H195.633C193.65 201.372 192.043 202.979 192.043 204.962V230.721C192.043 232.703 193.65 234.311 195.633 234.311H221.391C223.374 234.311 224.981 232.703 224.981 230.721V204.962C224.981 202.979 223.374 201.372 221.391 201.372Z" stroke="#47C2C9" stroke-width="1.06897" stroke-miterlimit="10"/>
<path d="M220.508 188.246H197.296V195.291H220.508V188.246Z" fill="#47C2C9"/>
<path d="M220.508 139.921H197.296V146.966H220.508V139.921Z" fill="#47C2C9"/>
<path d="M172.581 139.921H149.369V146.966H172.581V139.921Z" fill="#47C2C9"/>
<path d="M172.581 188.246H149.369V195.291H172.581V188.246Z" fill="#47C2C9"/>
<path d="M220.508 188.246H197.296V195.291H220.508V188.246Z" fill="#263238"/>
<path d="M220.508 139.921H197.296V146.966H220.508V139.921Z" fill="#263238"/>
<path d="M172.581 139.921H149.369V146.966H172.581V139.921Z" fill="#263238"/>
<path d="M172.581 188.246H149.369V195.291H172.581V188.246Z" fill="#263238"/>
<path d="M63.6797 105.247H115.483" stroke="#263238" stroke-width="1.06897" stroke-linecap="round" stroke-linejoin="round"/>
<path d="M131.507 309.835C131.507 309.835 133.362 316.203 132.741 320.095C132.741 320.095 132 326.575 131.149 330.029C130.297 333.484 129.429 335.88 134.293 337.249C139.157 338.618 151.104 335.713 153.906 336.692C156.708 337.671 172.66 335.482 175.04 334.431C177.42 333.381 177.794 326.097 172.652 323.566C167.51 321.035 131.507 309.835 131.507 309.835Z" fill="#FFBE9D"/>
<path d="M132.216 323.176C132.216 323.176 130.831 330.961 130.87 332.378C133.233 331.704 135.667 331.314 138.122 331.216C141.402 331.216 151.232 331.343 155.133 330.754C159.033 330.165 166.531 327.419 170.002 327.403C172.204 327.402 174.401 327.596 176.569 327.984C176.569 327.984 176.975 325.206 171.498 323.757C166.022 322.308 146.066 318.114 146.066 318.114C146.066 318.114 141.609 322.905 132.216 323.176Z" fill="#47C2C9"/>
<path d="M201.738 319.467C201.738 319.467 205.233 317.254 208.52 318.607C211.808 319.96 223.517 319.992 223.517 319.992C223.517 319.992 232.782 318.83 236.73 320.788C240.679 322.746 241.116 325.699 240.806 328C240.495 330.3 234.669 336.437 227.019 336.756C219.37 337.074 218.741 335.355 212.452 335.02C212.452 335.02 204.015 334.487 201.579 333.428C199.143 332.37 195.959 331.494 196.055 326.941C196.15 322.388 201.738 319.467 201.738 319.467Z" fill="white"/>
<path d="M201.738 319.467C201.738 319.467 205.28 317.461 211.537 319.339C217.794 321.218 228.818 318.44 233.594 320.095C238.37 321.751 239.031 324.871 238.418 326.073C237.805 327.275 233.737 332.139 229.216 332.911C224.695 333.683 214.498 333.214 209.826 334.065C209.826 334.065 200.17 334.622 197.09 329.799C194.009 324.975 201.738 319.467 201.738 319.467Z" fill="#47C2C9"/>
<path d="M70.3821 315.98L64.4917 305.003L80.555 288.431L95.0501 290.158L103.257 302.663L101.211 309.835L70.3821 315.98Z" fill="#263238"/>
<path d="M58.2271 312.979C58.2271 312.979 58.6728 333.508 71.9819 335.729C85.291 337.95 132.788 314.842 132.788 314.842C132.788 314.842 150.475 324.028 163.785 325.19C177.094 326.352 196.421 328.828 198.395 331.04C200.369 333.253 207.756 323.972 203.497 318.4C203.497 318.4 189.081 317.485 179.991 312.955C170.901 308.426 141.178 291.232 135.192 290.182C129.206 289.131 94.5963 305.537 94.5963 305.537L84.1687 307.757L58.2271 312.979Z" fill="#263238"/>
<path d="M97.6055 298.317L95.0503 290.158C95.0503 290.158 120.626 261.733 131.507 262.115C142.388 262.497 144.307 272.121 145.039 279.627C145.771 287.133 145.039 298.285 145.039 298.285L120.029 301.413L101.172 309.835L97.5656 298.317" fill="#263238"/>
<path d="M125.354 293.549C125.354 293.995 126.23 280.59 130.074 274.596" stroke="white" stroke-width="1.06897" stroke-linecap="round" stroke-linejoin="round"/>
<path d="M134.158 274.373C133.886 277.021 133.902 279.689 134.206 282.333" stroke="white" stroke-width="1.06897" stroke-linecap="round" stroke-linejoin="round"/>
<path d="M132.327 322.905C132.327 322.905 130.441 332.768 130.958 334.845C131.619 337.48 138.512 337.536 140.47 337.623C144.8 337.806 149.123 337.377 153.453 337.448C156.748 337.504 160.036 337.854 163.339 337.806C166.648 337.876 169.929 337.199 172.939 335.824C175.47 334.559 177.126 332.76 176.808 329.815C176.386 325.93 175.088 324.951 169.723 324.338C164.358 323.725 145.421 318.066 145.421 318.066C145.421 318.066 142.484 323.224 132.327 322.905Z" stroke="#263238" stroke-width="1.06897" stroke-linecap="round" stroke-linejoin="round"/>
<path d="M132.327 322.905C133.065 319.228 133.065 315.439 132.327 311.761C131.069 306.094 140.82 311.029 140.82 311.029L146.066 316.689L145.421 318.058" stroke="#263238" stroke-width="1.06897" stroke-linecap="round" stroke-linejoin="round"/>
<path d="M131.507 335.864C131.484 335.3 131.658 334.745 132 334.295C132.341 333.845 132.828 333.527 133.377 333.397C134.794 333.022 136.514 333.277 137.954 333.317C140.446 333.397 142.937 333.5 145.429 333.524C153.819 333.596 161.962 330.937 170.344 330.619C171.816 330.563 174.451 330.173 175.756 331.088C177.858 332.561 173.981 335.45 172.525 336.039C168.954 337.324 165.173 337.924 161.381 337.806C156.461 337.576 148.756 337.607 145.421 337.647C142.086 337.687 135.829 338.961 131.507 335.864Z" fill="#263238"/>
<path d="M131.197 332.346C133.405 331.501 135.759 331.106 138.122 331.184C146.83 331.144 156.43 331.661 164.74 328.573C168.418 327.204 174.428 326.472 176.617 328.573" stroke="#263238" stroke-width="1.06897" stroke-linecap="round" stroke-linejoin="round"/>
<path d="M196.954 329.305C196.954 329.305 197.265 332.871 203.243 333.715C209.22 334.559 221.288 336.103 225.276 336.652C229.264 337.202 240.702 332.871 240.806 327.26C240.909 321.648 235.982 319.968 232.933 319.865C229.885 319.761 215.421 320.39 211.537 319.339C207.652 318.289 205.447 317.867 203.139 319.236" stroke="#263238" stroke-width="1.06897" stroke-linecap="round" stroke-linejoin="round"/>
<path d="M234.82 320.095C234.82 320.095 238.219 322.698 238.537 325.317C238.856 327.936 232.034 333.078 225.945 333.604C219.855 334.129 212.054 333.054 208.56 334.4" stroke="#263238" stroke-width="1.06897" stroke-linecap="round" stroke-linejoin="round"/>
<path d="M59.1746 235.895C59.1746 235.895 63.8233 239.341 66.068 237.861C68.3127 236.38 73.232 230.776 73.232 230.776L80.3323 234.645L87.7829 258.565L92.7658 279.706L100.726 283.599V286.982C100.726 286.982 96.0454 291.83 91.1738 293.27C86.3023 294.711 80.985 296.112 76.9732 295.173C72.9614 294.233 65.272 267.663 65.272 267.663L45.9292 239.397L59.1746 235.895Z" fill="#263238"/>
<path d="M122.242 291.487L87.7749 282.731L122.242 266.763L155.132 275.153L122.242 291.487Z" fill="white" stroke="#263238" stroke-width="1.06897" stroke-linecap="round" stroke-linejoin="round"/>
<path d="M122.242 291.487L129.947 256.113L162.137 243.831L155.522 275.384L122.242 291.487Z" fill="white"/>
<path d="M87.7749 282.325V284.26L122.449 293.549L155.873 276.801L156.056 274.875L122.449 291.129L87.7749 282.325Z" fill="#263238"/>
<path d="M71.043 233.292C74.9868 238.039 78.0956 243.423 80.2368 249.212C83.3253 258.119 89.1281 276.968 88.6266 284.236L100.909 274.684C99.7009 268.596 99.2543 262.382 99.5796 256.185C100.256 247.11 100.941 232.655 93.0046 231.469C84.7103 229.694 73.6459 226.987 73.6459 226.987L71.043 233.292Z" fill="#47C2C9"/>
<path d="M50.2753 229.741C50.2753 229.741 37.8179 236.412 36.2737 239.102C34.7294 241.793 33.83 240.997 34.411 245.248C34.9921 249.498 38.0806 263.357 38.8288 268.037C39.5771 272.718 42.1163 292.928 42.1163 292.928C44.4037 293.922 46.7709 294.721 49.1928 295.316L32.9146 316.593C32.9146 316.593 39.0517 329.926 50.7768 330.34C62.5019 330.754 67.9386 319.347 73.0091 311.316C78.0796 303.284 81.4785 292.426 81.4785 292.426L83.9381 291.973L83.0228 280.431L81.4785 280.67C81.4785 280.67 81.1522 264.574 74.3145 252.443C67.4769 240.312 50.2753 229.741 50.2753 229.741Z" fill="#47C2C9"/>
<path opacity="0.2" d="M76.6943 229.017C76.6943 229.017 82.1151 231.787 82.6723 235.274C83.2295 238.76 81.4465 243.082 84.0494 244.786C86.6523 246.489 89.7089 246.847 91.2134 251.385C92.7178 255.922 92.2641 276.904 91.2134 280.502C90.1626 284.1 88.6662 280.502 88.6662 280.502L86.9389 271.332L83.3887 258.206L79.8783 248.352L76.6943 241.522L72.8735 233.745L76.6943 229.017Z" fill="black"/>
<path d="M83.723 289.306C83.723 289.306 88.7935 289.975 90.489 289.243C92.1844 288.51 93.673 288.144 94.867 284.801C96.061 281.458 98.2898 280.431 100.686 280.272C103.082 280.113 108.502 279.054 109.442 276.443L107.094 276.276C107.901 276.047 108.647 275.639 109.275 275.082H108.288C108.288 275.082 103.575 272.606 101.171 272.009C98.7674 271.412 96.1963 270.791 93.9277 272.75C91.6591 274.708 90.4412 278.926 89.5178 280.025C88.5945 281.123 86.1508 282.485 82.9429 282.477L83.723 289.306Z" fill="#FFBE9D"/>
<path d="M84.0493 289.33C84.0493 289.33 90.9268 290.532 93.2192 287.834C95.5117 285.135 94.7157 281.314 99.8101 280.431C104.905 279.547 109.219 278.441 109.458 276.451C109.458 276.451 98.9823 275.456 96.7216 277.247" stroke="#263238" stroke-width="1.06897" stroke-linecap="round" stroke-linejoin="round"/>
<path d="M107.46 276.212C108.181 276.055 108.833 275.673 109.322 275.122L104.618 274.222C102.97 273.904 101.323 273.354 99.6192 273.426C98.0861 273.605 96.685 274.38 95.7188 275.583" stroke="#263238" stroke-width="1.06897" stroke-linecap="round" stroke-linejoin="round"/>
<path d="M108.033 274.62L102.58 272.543C100.073 271.587 97.1199 270.664 94.8354 272.073C93.9157 272.714 93.1469 273.548 92.5827 274.517C91.9253 275.537 91.3376 276.601 90.8236 277.701C90.4864 278.543 90.0538 279.345 89.534 280.089C88.0455 281.967 85.7451 282.437 83.3491 282.54" stroke="#263238" stroke-width="1.06897" stroke-linecap="round" stroke-linejoin="round"/>
<path d="M49.3517 229.741C49.3517 229.741 56.269 232.448 59.1425 235.895C59.1425 235.895 66.0757 240.607 68.9572 235.425C71.8387 230.243 72.1412 219.807 72.1412 219.807L74.8237 213.845L73.7889 197.854L66.2906 186.59L59.1743 181.361L51.4452 196.278L42.4663 202.391L43.4931 219.107L49.3517 229.741Z" fill="#FFBE9D"/>
<path d="M63.855 187.856C63.855 187.856 64.1893 200.687 53.7458 205.416C53.7458 205.416 50.705 220.993 60.7744 224.289C60.7744 224.289 62.4779 231.572 55.2422 232.734C45.9052 228.157 47.5529 223.262 47.5529 223.262L44.3291 209.467L43.3022 200.194L55.2422 190.825L63.855 187.856Z" fill="#47C2C9"/>
<path opacity="0.5" d="M63.855 187.856C63.855 187.856 64.1893 200.687 53.7458 205.416C53.7458 205.416 50.705 220.993 60.7744 224.289C60.7744 224.289 62.4779 231.572 55.2422 232.734C45.9052 228.157 47.5529 223.262 47.5529 223.262L44.3291 209.467L43.3022 200.194L55.2422 190.825L63.855 187.856Z" fill="white"/>
<path d="M71.9978 194.614C71.9978 194.614 72.4436 196.063 71.9978 200.393C71.5521 204.723 72.6187 210.255 71.2018 214.14C69.785 218.024 67.3811 223.947 60.7822 224.257C55.7197 224.257 50.4342 217.093 49.7815 212.389C49.7815 212.389 43.6762 209.523 44.4005 205.463C45.1249 201.404 49.0412 202.494 50.0681 205.463" stroke="#263238" stroke-width="1.06897" stroke-linecap="round" stroke-linejoin="round"/>
<path d="M66.5056 202.67C65.9964 205.059 66.0756 207.537 66.7365 209.889C66.96 210.407 67.0021 210.985 66.8559 211.529C66.7429 211.756 66.5754 211.951 66.3683 212.097C66.1613 212.243 65.9213 212.335 65.6698 212.365C65.1674 212.418 64.6596 212.375 64.1733 212.238" stroke="#263238" stroke-width="1.06897" stroke-linecap="round" stroke-linejoin="round"/>
<path d="M63.8549 215.016C63.8549 215.016 61.0052 215.899 59.2222 213.845" stroke="#263238" stroke-width="1.06897" stroke-linecap="round" stroke-linejoin="round"/>
<path d="M50.2754 229.742C52.0425 225.252 48.7471 211.792 48.7471 211.792" stroke="#263238" stroke-width="1.06897" stroke-linecap="round" stroke-linejoin="round"/>
<path d="M61.2916 200.425C61.2916 200.425 57.1763 196.843 55.25 202.144" stroke="#263238" stroke-width="1.06897" stroke-linecap="round" stroke-linejoin="round"/>
<path d="M67.2461 200.194C67.5543 199.522 68.0488 198.953 68.6709 198.554C68.9866 198.363 69.3518 198.271 69.7202 198.288C70.0887 198.305 70.4438 198.431 70.7405 198.65" stroke="#263238" stroke-width="1.06897" stroke-linecap="round" stroke-linejoin="round"/>
<path d="M60.0503 206.928C60.4284 206.928 60.7348 206.237 60.7348 205.384C60.7348 204.531 60.4284 203.84 60.0503 203.84C59.6722 203.84 59.3657 204.531 59.3657 205.384C59.3657 206.237 59.6722 206.928 60.0503 206.928Z" fill="#263238"/>
<path d="M68.6152 204.699C68.6152 205.551 68.3127 206.244 67.9306 206.244C67.5486 206.244 67.2461 205.551 67.2461 204.699C67.2461 203.848 67.5486 203.155 67.9306 203.155C68.3127 203.155 68.6152 203.848 68.6152 204.699Z" fill="#263238"/>
<path d="M64.7226 223.23C64.7226 223.23 63.3057 226.064 65.5663 232.265" stroke="#263238" stroke-width="1.06897" stroke-linecap="round" stroke-linejoin="round"/>
<path d="M48.7469 203.155C48.7469 203.155 64.1256 197.456 63.8709 187.824C63.8709 187.824 66.434 194.041 72.213 197.249C72.213 197.249 70.5573 188.445 68.631 184.616C66.7047 180.788 55.2104 177.779 50.8085 178.71C46.4067 179.641 37.9213 181.408 36.1621 195.593C34.403 209.778 36.1621 220.444 32.0229 226.136C27.8837 231.827 28.5046 241.666 34.5144 243.011C35.1196 241.134 36.1555 239.425 37.5392 238.02C39.7123 235.95 50.4901 229.948 50.4901 229.948C50.4901 229.948 50.9598 219.171 48.7628 211.792C48.7628 211.792 44.1619 210.375 44.4087 205.464C44.8545 201.643 48.7469 203.155 48.7469 203.155Z" fill="#263238"/>
<path d="M68.1055 183.876C70.3518 186.18 72.2648 188.787 73.7889 191.621C77.1241 197.456 80.8096 204.039 82.4812 210.55C83.1305 213.128 83.2587 215.81 82.8582 218.439C82.4577 221.067 81.5366 223.589 80.1489 225.857C79.7051 226.505 79.3164 227.19 78.9868 227.903C78.6654 228.788 78.462 229.711 78.3818 230.649C78.1032 232.774 77.7769 234.979 76.6147 236.786C75.4525 238.593 73.2078 239.875 71.1462 239.254C69.1369 238.44 67.5159 236.888 66.6169 234.915C65.0249 230.577 64.022 227.815 64.7225 223.246C64.7225 223.246 72.0059 216.83 71.9501 209.451C71.8944 202.073 73.2078 196.986 70.2149 193.324C67.2219 189.663 68.1055 183.876 68.1055 183.876Z" fill="#263238"/>
<path d="M50.4744 229.948C50.4744 229.948 40.3811 235.218 36.2737 239.102C32.1664 242.987 35.8837 251.966 37.5871 261.072C39.2906 270.178 40.6119 278.855 42.1164 292.912C56.8742 299.774 70.7724 294.202 83.9382 291.941L83.0228 280.431C81.1044 280.534 71.0828 283.495 62.3268 280.908C57.8055 279.563 54.12 281.521 51.0077 285.064" stroke="#263238" stroke-width="1.06897" stroke-linecap="round" stroke-linejoin="round"/>
<path d="M48.6274 282.007C53.1248 279.794 57.1924 278.823 61.3634 280.67" stroke="#263238" stroke-width="1.06897" stroke-linecap="round" stroke-linejoin="round"/>
<path d="M60.496 280.327C57.8931 273.299 57.2563 265.155 56.0464 257.41" stroke="#263238" stroke-width="1.06897" stroke-linecap="round" stroke-linejoin="round"/>
<path d="M42.1162 245.248C47.6598 248.465 51.971 253.44 54.3667 259.385" stroke="#263238" stroke-width="1.06897" stroke-linecap="round" stroke-linejoin="round"/>
<path d="M52.1538 250.493L54.1836 254.394" stroke="#263238" stroke-width="1.06897" stroke-linecap="round" stroke-linejoin="round"/>
<path d="M50.2754 229.741C50.2754 229.741 70.3266 241.268 76.2329 256.392C82.1393 271.516 81.3353 280.486 81.3353 280.486" stroke="#263238" stroke-width="1.06897" stroke-linecap="round" stroke-linejoin="round"/>
<path d="M50.275 229.741C48.1338 234.342 50.1238 239.715 53.1884 243.377C56.3724 247.198 61.5862 249.267 66.4179 250.024C66.9432 250.103 67.5721 250.23 67.7472 250.732C67.8322 250.99 67.8322 251.269 67.7472 251.528C67.0228 253.916 64.794 255.81 64.8418 258.294C64.9276 259.315 65.2172 260.308 65.6935 261.215C68.3995 267.261 71.4479 273.148 74.8236 278.847" stroke="#263238" stroke-width="1.06897" stroke-linecap="round" stroke-linejoin="round"/>
<path opacity="0.5" d="M51.4455 184.226C50.5326 189.452 48.6422 194.459 45.8735 198.984" stroke="white" stroke-width="1.06897" stroke-linecap="round" stroke-linejoin="round"/>
<path opacity="0.5" d="M42.4667 186.59C39.5852 193.317 40.9543 200.998 40.6518 208.313C40.3661 214.903 38.6782 221.356 35.7007 227.242" stroke="white" stroke-width="1.06897" stroke-linecap="round" stroke-linejoin="round"/>
<path d="M81.4784 292.418C81.4784 292.418 71.3373 319.857 61.5784 326.885C51.8194 333.914 40.9858 330.149 32.9224 316.593L49.1926 295.356" stroke="#263238" stroke-width="1.06897" stroke-linecap="round" stroke-linejoin="round"/>
<path d="M52.1138 296.184C53.6738 302.269 57.2728 307.635 62.3105 311.387" stroke="#263238" stroke-width="1.06897" stroke-linecap="round" stroke-linejoin="round"/>
<path d="M50.148 295.969C49.4108 300.43 49.636 304.998 50.8087 309.365" stroke="#263238" stroke-width="1.06897" stroke-linecap="round" stroke-linejoin="round"/>
<path d="M67.2461 227.409C67.2461 227.409 76.4956 237.28 82.1313 254.394C87.767 271.508 88.6266 280.908 88.6266 280.908" stroke="#263238" stroke-width="1.06897" stroke-linecap="round" stroke-linejoin="round"/>
<path d="M60.0503 236.587C60.0503 236.587 66.0362 240.567 68.9894 235.425C71.9425 230.283 69.7854 228.54 69.7854 228.54" stroke="#263238" stroke-width="1.06897" stroke-linecap="round" stroke-linejoin="round"/>
<path d="M68.4561 226.677C70.3267 226.374 72.2052 227.027 73.9564 227.744C76.0627 228.523 78.0301 229.635 79.7831 231.039C81.5465 232.459 82.7045 234.497 83.0229 236.738C83.2696 239.198 82.2269 241.92 83.5084 244.046C84.9412 246.434 88.4993 246.649 90.1789 248.861C90.9069 249.994 91.3393 251.291 91.4366 252.634C92.5092 260.455 92.544 268.383 91.5401 276.212" stroke="#263238" stroke-width="1.06897" stroke-linecap="round" stroke-linejoin="round"/>
<path d="M90.0752 241.586C92.1847 243.432 93.9476 245.64 95.281 248.105C96.6149 250.599 96.9643 253.502 96.2601 256.24C95.9576 257.227 95.4641 258.159 95.2253 259.154C94.9983 260.11 94.8624 261.085 94.8194 262.067L94.0234 272.415" stroke="#263238" stroke-width="1.06897" stroke-linecap="round" stroke-linejoin="round"/>
<path d="M71.043 225.777C74.9513 226.947 78.804 228.452 82.784 229.304C86.764 230.155 90.529 230.37 94.318 231.859C94.8782 232.061 95.4125 232.328 95.91 232.655C99.1656 234.931 99.1418 239.516 99.5079 243.003C100.622 253.629 97.701 261.573 100.686 271.834" stroke="#263238" stroke-width="1.06897" stroke-linecap="round" stroke-linejoin="round"/>
<path d="M80.5552 295.125C80.5552 295.125 90.5291 296.184 99.7149 287.865" stroke="#263238" stroke-width="1.06897" stroke-linecap="round" stroke-linejoin="round"/>
<path opacity="0.5" d="M74.028 238.084C72.1972 235.409 70.9475 232.169 71.4251 228.969C71.7355 226.892 72.7464 224.989 73.6539 223.111C74.9178 220.679 75.8469 218.087 76.416 215.405C76.9756 212.709 76.7434 209.909 75.7473 207.342C74.8958 205.557 73.8118 203.892 72.5235 202.391" stroke="white" stroke-width="1.06897" stroke-linecap="round" stroke-linejoin="round"/>
<path d="M122.242 291.487L162.137 243.831L155.522 275.384L122.242 291.487Z" fill="#263238"/>
<path opacity="0.8" d="M122.242 291.487L162.137 243.831L155.522 275.384L122.242 291.487Z" fill="white"/>
<path d="M148.366 266.302C147.817 268.451 146.217 269.892 144.792 269.526C143.367 269.16 142.675 267.138 143.2 264.973C143.725 262.807 145.357 261.383 146.774 261.749C148.191 262.115 148.923 264.153 148.366 266.302Z" fill="#263238"/>
<path d="M122.242 291.487L129.947 256.113L162.137 243.831L155.522 275.384L122.242 291.487Z" stroke="#263238" stroke-width="1.06897" stroke-linecap="round" stroke-linejoin="round"/>
<path d="M120.936 290.723L128.482 255.58L161.086 243.321L162.288 243.624L129.947 256.113L122.241 291.487L120.936 290.723Z" fill="#263238"/>
<path opacity="0.2" d="M50.2753 229.741C50.2753 229.741 47.4415 237.55 53.1886 243.377C58.9357 249.204 67.7475 250.74 67.7475 250.74V251.536C67.7475 251.536 63.9267 256.718 65.0013 259.384C66.0759 262.051 75.9463 281.601 75.9463 281.601L81.5183 280.67C81.6242 271.549 79.5271 262.538 75.405 254.402C68.4559 241.188 50.2753 229.741 50.2753 229.741Z" fill="black"/>
<path opacity="0.2" d="M47.5767 297.457C47.5767 297.457 47.9747 303.236 50.1716 306.611C50.1716 306.611 50.4263 302.361 50.7766 298.612C50.7766 298.612 54.0322 306.938 60.4559 309.875C60.4559 309.875 56.667 302.361 55.4411 298.612C55.4411 298.612 68.3284 300.904 80.7778 294.369V292.554C80.7778 292.554 61.5783 298.182 49.1925 295.356L47.5767 297.457Z" fill="black"/>
<path opacity="0.2" d="M56.1817 258.565L64.1417 278.847L73.7574 282.031L63.1865 281.625C63.1865 281.625 58.2752 280.916 52.1221 284.236C52.1221 284.236 52.4007 282.445 54.9479 280.932C54.9479 280.932 54.0325 280.041 50.1719 281.291C52.0166 279.465 54.1733 277.985 56.5399 276.92L56.1817 258.565Z" fill="black"/>
<path opacity="0.2" d="M91.5796 242.78C89.6612 240.711 96.1565 246.171 97.0481 248.846C97.9396 251.52 97.9873 254.418 97.9714 257.227C97.9555 260.037 97.8918 262.919 98.6082 265.649C99.0858 267.472 100.121 270.019 100.686 271.818C100.686 271.818 95.4561 271.094 94.0551 272.359L95.2252 259.13C95.2252 259.13 99.4998 251.377 91.5796 242.78Z" fill="black"/>
<path d="M109.458 276.443L123.046 269.637L125.999 270.298" stroke="#263238" stroke-width="1.06897" stroke-linecap="round" stroke-linejoin="round"/>
<path d="M121.915 288.431L97.8838 282.094L104.785 279.412" stroke="#263238" stroke-width="1.06897" stroke-linecap="round" stroke-linejoin="round"/>
<path d="M125.672 272.184L103.257 283.424" stroke="#263238" stroke-width="1.06897" stroke-linecap="round" stroke-linejoin="round"/>
<path d="M125.33 276.443L108.638 284.817" stroke="#263238" stroke-width="1.06897" stroke-linecap="round" stroke-linejoin="round"/>
<path d="M124.606 280.638L113.494 286.21" stroke="#263238" stroke-width="1.06897" stroke-linecap="round" stroke-linejoin="round"/>
<path d="M101.482 280.128L123.125 285.74" stroke="#263238" stroke-width="1.06897" stroke-linecap="round" stroke-linejoin="round"/>
<path d="M107.627 278.353L124.168 282.652" stroke="#263238" stroke-width="1.06897" stroke-linecap="round" stroke-linejoin="round"/>
<path d="M110.978 275.687L124.606 279.221" stroke="#263238" stroke-width="1.06897" stroke-linecap="round" stroke-linejoin="round"/>
<path d="M115.125 273.609L125.33 276.26" stroke="#263238" stroke-width="1.06897" stroke-linecap="round" stroke-linejoin="round"/>
<path d="M119.376 271.643L125.999 273.354" stroke="#263238" stroke-width="1.06897" stroke-linecap="round" stroke-linejoin="round"/>
<path d="M144.386 294.918C148.78 296.446 152.346 298.102 152.346 298.102" stroke="white" stroke-width="1.06897" stroke-linecap="round" stroke-linejoin="round"/>
<path d="M88.6265 304.868C88.6265 304.868 126.771 291.933 133.998 292.411C135.766 292.557 137.516 292.863 139.228 293.326" stroke="white" stroke-width="1.06897" stroke-linecap="round" stroke-linejoin="round"/>
<path d="M95.0503 302.751C96.6423 300.984 97.6373 300.068 98.5049 298.643" stroke="white" stroke-width="1.06897" stroke-linecap="round" stroke-linejoin="round"/>
</svg>
