<svg width="366" height="366" viewBox="0 0 366 366" fill="none" xmlns="http://www.w3.org/2000/svg">
<path d="M48.0703 48.8025V305.12" stroke="#263238" stroke-miterlimit="10"/>
<path d="M48.0703 38.9204V43.8248" stroke="#263238" stroke-miterlimit="10"/>
<path d="M141.408 38.9204V305.12" stroke="#263238" stroke-miterlimit="10"/>
<path d="M234.745 38.9204V305.12" stroke="#263238" stroke-miterlimit="10"/>
<path d="M328.082 76.8745V305.119" stroke="#263238" stroke-miterlimit="10"/>
<path d="M328.082 38.9204V70.4769" stroke="#263238" stroke-miterlimit="10"/>
<path d="M278.753 75.3008H65.0161V201.973H278.753V75.3008Z" fill="#263238"/>
<path d="M277.545 78.9021H66.2241V198.372H277.545V78.9021Z" fill="white" stroke="#263238" stroke-linecap="round" stroke-linejoin="round"/>
<path d="M279.953 73.134H62.5786V79.927H279.953V73.134Z" fill="#263238"/>
<path d="M174.282 73.0389C177.657 73.0389 180.394 70.3023 180.394 66.9267C180.394 63.551 177.657 60.8145 174.282 60.8145C170.906 60.8145 168.169 63.551 168.169 66.9267C168.169 70.3023 170.906 73.0389 174.282 73.0389Z" fill="white" stroke="#263238" stroke-linecap="round" stroke-linejoin="round"/>
<path d="M177.503 66.9266C177.504 67.5639 177.316 68.1874 176.963 68.718C176.61 69.2486 176.108 69.6626 175.519 69.9075C174.931 70.1524 174.283 70.2172 173.658 70.0937C173.033 69.9703 172.458 69.6641 172.007 69.214C171.556 68.7638 171.248 68.1899 171.123 67.565C170.999 66.94 171.062 66.292 171.306 65.7031C171.549 65.1141 171.962 64.6107 172.492 64.2564C173.022 63.9022 173.645 63.7131 174.282 63.7131C175.135 63.7131 175.953 64.0515 176.557 64.6539C177.161 65.2563 177.501 66.0737 177.503 66.9266Z" fill="#47C2C9" stroke="#263238" stroke-miterlimit="10"/>
<path d="M104.595 156.487H78.4775V130.003H122.895V156.487H109.566" stroke="#263238" stroke-miterlimit="10"/>
<path d="M148.977 169.165H113.526V190.305H148.977V169.165Z" stroke="#263238" stroke-miterlimit="10"/>
<path d="M188.102 130.003H192.574V156.487H148.157V130.003H183.842" stroke="#263238" stroke-miterlimit="10"/>
<path d="M151.853 91.2876H203.986V117.779H136.752V91.2876H146.883" stroke="#263238" stroke-miterlimit="10"/>
<path d="M261.851 130.003H217.433V156.487H261.851V130.003Z" stroke="#263238" stroke-miterlimit="10"/>
<path d="M133.085 104.332C133.085 104.332 109.514 107.604 95.665 127.573" stroke="#263238" stroke-miterlimit="10"/>
<path d="M118.005 159.342L121.124 168.448" stroke="#263238" stroke-miterlimit="10"/>
<path d="M150.199 158.522L147.344 167.079" stroke="#263238" stroke-miterlimit="10"/>
<path d="M117.698 165.447L121.124 168.448L121.98 164.378" stroke="#263238" stroke-miterlimit="10"/>
<path d="M145.946 164.378L147.227 167.804L150.865 165.659" stroke="#263238" stroke-miterlimit="10"/>
<path d="M96.3019 123.51L95.665 127.573L100.152 124.791" stroke="#263238" stroke-miterlimit="10"/>
<path d="M193.877 142.55H216.13" stroke="#263238" stroke-miterlimit="10"/>
<path d="M211.423 139.768L216.35 142.55L211.855 145.331" stroke="#263238" stroke-miterlimit="10"/>
<path d="M123.635 142.55H145.888" stroke="#263238" stroke-miterlimit="10"/>
<path d="M141.181 139.768L146.1 142.55L141.613 145.331" stroke="#263238" stroke-miterlimit="10"/>
<path d="M170.205 119.894V126.665" stroke="#263238" stroke-miterlimit="10"/>
<path d="M172.979 121.951L170.197 126.878L167.423 122.383" stroke="#263238" stroke-miterlimit="10"/>
<path d="M215.918 150.55H194.514" stroke="#263238" stroke-miterlimit="10"/>
<path d="M199.038 147.769L194.309 150.55L198.628 153.332" stroke="#263238" stroke-miterlimit="10"/>
<path d="M150.653 99.5446H190.884" stroke="#263238" stroke-miterlimit="10"/>
<path d="M150.653 103.395H190.884" stroke="#263238" stroke-miterlimit="10"/>
<path d="M150.653 107.245H190.884" stroke="#263238" stroke-miterlimit="10"/>
<path d="M82.606 139.768H118.774" stroke="#263238" stroke-miterlimit="10"/>
<path d="M82.606 143.626H118.774" stroke="#263238" stroke-miterlimit="10"/>
<path d="M82.606 147.476H118.774" stroke="#263238" stroke-miterlimit="10"/>
<path d="M152.797 139.768H188.958" stroke="#263238" stroke-miterlimit="10"/>
<path d="M152.797 143.626H188.958" stroke="#263238" stroke-miterlimit="10"/>
<path d="M152.797 147.476H188.958" stroke="#263238" stroke-miterlimit="10"/>
<path d="M220.412 139.768H256.573" stroke="#263238" stroke-miterlimit="10"/>
<path d="M220.412 143.626H256.573" stroke="#263238" stroke-miterlimit="10"/>
<path d="M220.412 147.476H256.573" stroke="#263238" stroke-miterlimit="10"/>
<path d="M118.13 176.361H145.734" stroke="#263238" stroke-miterlimit="10"/>
<path d="M118.13 180.211H145.734" stroke="#263238" stroke-miterlimit="10"/>
<path d="M118.13 184.069H145.734" stroke="#263238" stroke-miterlimit="10"/>
<path d="M240.535 102.904C240.457 102.903 240.381 102.876 240.319 102.828C240.257 102.78 240.212 102.713 240.191 102.638C240.169 102.563 240.173 102.483 240.201 102.409C240.228 102.336 240.279 102.274 240.345 102.231L240.623 102.055L240.52 102.114C240.439 102.149 240.347 102.154 240.263 102.126C240.178 102.099 240.107 102.042 240.061 101.966C240.015 101.89 239.999 101.8 240.015 101.713C240.031 101.626 240.078 101.547 240.147 101.492L241.611 100.562L240.33 101.294C240.248 101.335 240.153 101.344 240.065 101.319C239.977 101.294 239.902 101.236 239.854 101.158C239.806 101.08 239.789 100.986 239.807 100.896C239.824 100.806 239.875 100.726 239.949 100.672L242.57 98.959L240.088 100.423C240.006 100.469 239.91 100.482 239.818 100.459C239.727 100.436 239.648 100.378 239.598 100.299C239.55 100.217 239.534 100.12 239.555 100.028C239.575 99.9356 239.63 99.8544 239.708 99.8008L243.792 97.0704L239.81 99.3616C239.73 99.4083 239.635 99.4221 239.545 99.4003C239.455 99.3785 239.377 99.3226 239.327 99.2445C239.301 99.2061 239.283 99.1629 239.273 99.1174C239.264 99.0719 239.263 99.025 239.272 98.9794C239.281 98.9338 239.299 98.8904 239.325 98.8517C239.35 98.813 239.384 98.7798 239.422 98.754L245.549 94.362L239.43 97.8976C239.347 97.944 239.251 97.957 239.159 97.9338C239.068 97.9106 238.989 97.8531 238.939 97.7732C238.889 97.6942 238.871 97.5987 238.891 97.5071C238.91 97.4154 238.964 97.3349 239.042 97.2827L243.434 94.2376L239.115 96.7337C239.035 96.7793 238.941 96.7933 238.852 96.773C238.762 96.7526 238.684 96.6994 238.632 96.6239C238.581 96.545 238.564 96.4495 238.583 96.3578C238.602 96.2662 238.656 96.1857 238.734 96.1335L241.223 94.4572L238.873 95.8114C238.791 95.8578 238.694 95.8708 238.603 95.8476C238.512 95.8244 238.433 95.7669 238.383 95.687C238.333 95.6071 238.317 95.511 238.337 95.4193C238.358 95.3276 238.414 95.2476 238.493 95.1965L240.096 94.1132L238.632 94.955C238.552 94.9923 238.461 94.9994 238.376 94.9752C238.291 94.9509 238.218 94.8968 238.17 94.8229C238.122 94.749 238.102 94.6601 238.114 94.5728C238.127 94.4854 238.17 94.4054 238.236 94.3474L242.519 91.1778L238.28 93.6227C238.2 93.6658 238.106 93.6774 238.018 93.6551C237.93 93.6328 237.853 93.5784 237.802 93.5024C237.752 93.4263 237.732 93.3343 237.746 93.2441C237.76 93.154 237.807 93.0724 237.878 93.0152L241.669 90.0872L237.9 92.2319C237.818 92.2772 237.722 92.2903 237.632 92.2687C237.541 92.247 237.462 92.1921 237.409 92.1148C237.358 92.0367 237.34 91.9418 237.357 91.8503C237.375 91.7587 237.428 91.6777 237.504 91.6244L239.356 90.2555L237.643 91.251C237.562 91.2964 237.466 91.3095 237.375 91.2878C237.285 91.2661 237.205 91.2112 237.153 91.1339C237.103 91.0562 237.084 90.9624 237.101 90.8714C237.117 90.7805 237.167 90.699 237.241 90.6435L238.756 89.4942L237.387 90.2848C237.307 90.3315 237.212 90.3453 237.122 90.3235C237.032 90.3017 236.954 90.2458 236.904 90.1677C236.853 90.0917 236.831 89.999 236.845 89.9082C236.859 89.8173 236.906 89.7349 236.977 89.6772L237.709 89.0843L237.124 89.421C237.052 89.4639 236.966 89.4801 236.884 89.4667C236.801 89.4533 236.725 89.4113 236.67 89.3478C236.618 89.2821 236.59 89.2009 236.59 89.1173C236.59 89.0336 236.618 88.9524 236.67 88.8867L237.826 87.4227L236.772 88.0302C236.713 88.0696 236.643 88.0906 236.571 88.0906C236.5 88.0906 236.43 88.0696 236.37 88.0302C236.314 87.9875 236.271 87.9297 236.246 87.8637C236.222 87.7976 236.216 87.7259 236.231 87.6569L236.341 87.2104C236.278 87.2062 236.218 87.1875 236.165 87.1557C236.111 87.1239 236.066 87.0799 236.033 87.0274C235.988 86.9425 235.977 86.8433 236.003 86.7506C236.028 86.6578 236.089 86.5786 236.172 86.5296L236.699 86.2222C236.761 86.1878 236.832 86.1721 236.902 86.177C236.973 86.1819 237.041 86.2072 237.097 86.2498C237.154 86.2924 237.197 86.3505 237.221 86.4171C237.245 86.4836 237.25 86.5558 237.234 86.6248L237.138 86.9981L239.071 85.8855C239.144 85.8449 239.229 85.8308 239.312 85.8455C239.395 85.8603 239.47 85.903 239.525 85.9664C239.58 86.0299 239.611 86.1103 239.614 86.1942C239.616 86.2781 239.59 86.3603 239.539 86.4272L238.39 87.8912L241.852 85.8928C241.932 85.8489 242.026 85.8358 242.115 85.856C242.204 85.8762 242.282 85.9284 242.336 86.0026C242.386 86.0795 242.406 86.1727 242.391 86.2636C242.376 86.3545 242.328 86.4364 242.255 86.493L241.523 87.0933L243.353 86.0319C243.433 85.9888 243.527 85.9772 243.615 85.9995C243.704 86.0217 243.781 86.0762 243.831 86.1522C243.882 86.2282 243.902 86.3203 243.888 86.4104C243.874 86.5006 243.827 86.5822 243.756 86.6394L242.24 87.7887L244.737 86.3247C244.818 86.2794 244.914 86.2662 245.005 86.2879C245.095 86.3096 245.175 86.3645 245.227 86.4418C245.277 86.5195 245.296 86.6133 245.279 86.7043C245.263 86.7952 245.213 86.8767 245.139 86.9322L243.28 88.3011L246.069 86.6907C246.108 86.6642 246.152 86.6458 246.199 86.6365C246.245 86.6271 246.293 86.6271 246.34 86.6362C246.387 86.6454 246.431 86.6637 246.47 86.69C246.51 86.7163 246.544 86.7501 246.57 86.7895C246.597 86.8289 246.615 86.8731 246.624 86.9197C246.634 86.9662 246.634 87.0141 246.625 87.0607C246.615 87.1072 246.597 87.1515 246.571 87.191C246.545 87.2305 246.511 87.2645 246.471 87.2909L242.68 90.2189L247.679 87.2909C247.761 87.2456 247.856 87.2325 247.947 87.2542C248.038 87.2758 248.117 87.3307 248.17 87.408C248.22 87.4858 248.238 87.5795 248.222 87.6705C248.206 87.7615 248.156 87.8429 248.082 87.8985L243.792 91.068L249.077 88.0229C249.158 87.9758 249.255 87.9617 249.346 87.9835C249.437 88.0053 249.517 88.0614 249.568 88.14C249.618 88.2201 249.636 88.3168 249.617 88.4096C249.598 88.5024 249.543 88.5842 249.465 88.6378L247.855 89.7138L249.934 88.5134C250.015 88.4746 250.107 88.467 250.193 88.4918C250.279 88.5167 250.353 88.5723 250.401 88.6482C250.449 88.724 250.468 88.8149 250.453 88.9033C250.438 88.9918 250.391 89.0719 250.322 89.1282L247.84 90.8045L250.768 89.1063C250.849 89.0675 250.941 89.0599 251.028 89.0847C251.114 89.1096 251.188 89.1652 251.236 89.2411C251.284 89.317 251.302 89.4078 251.287 89.4963C251.273 89.5848 251.226 89.6648 251.156 89.7212L246.764 92.7663L251.756 89.8822C251.837 89.8435 251.93 89.8358 252.016 89.8607C252.102 89.8855 252.176 89.9412 252.224 90.017C252.272 90.0929 252.29 90.1837 252.276 90.2722C252.261 90.3607 252.214 90.4407 252.144 90.4971L246.018 94.8891L252.84 90.9436C252.922 90.8972 253.019 90.8842 253.11 90.9074C253.201 90.9306 253.28 90.9881 253.33 91.068C253.356 91.1068 253.374 91.1504 253.383 91.1962C253.392 91.242 253.391 91.2891 253.382 91.3347C253.372 91.3804 253.354 91.4237 253.327 91.4621C253.301 91.5005 253.267 91.5333 253.228 91.5585L249.136 94.3035L253.579 91.7342C253.661 91.693 253.756 91.6842 253.844 91.7095C253.932 91.7347 254.007 91.7921 254.055 91.8703C254.103 91.9486 254.12 92.042 254.102 92.132C254.085 92.222 254.034 92.3021 253.96 92.3564L251.339 94.0692L254.143 92.4515C254.224 92.4032 254.322 92.3892 254.414 92.4125C254.506 92.4358 254.584 92.4946 254.633 92.576C254.659 92.6152 254.676 92.6592 254.684 92.7052C254.693 92.7513 254.692 92.7986 254.682 92.8443C254.671 92.89 254.652 92.9332 254.625 92.9713C254.598 93.0094 254.563 93.0418 254.523 93.0664L253.059 94.0034L254.575 93.125C254.656 93.0767 254.754 93.0626 254.846 93.086C254.937 93.1093 255.016 93.168 255.065 93.2494C255.113 93.3308 255.129 93.4275 255.108 93.5199C255.088 93.6123 255.033 93.6936 254.955 93.7472L254.677 93.9228L254.992 93.7398C255.073 93.7011 255.165 93.6934 255.251 93.7183C255.337 93.7432 255.412 93.7988 255.459 93.8747C255.507 93.9505 255.526 94.0413 255.511 94.1298C255.496 94.2183 255.45 94.2983 255.38 94.3547L251.164 97.3559L255.556 94.8159C255.636 94.7669 255.733 94.7518 255.825 94.7737C255.917 94.7956 255.996 94.8529 256.046 94.933C256.097 95.0131 256.114 95.1097 256.095 95.2026C256.076 95.2954 256.022 95.3772 255.943 95.4307L255.848 95.4893C255.93 95.4429 256.026 95.4294 256.117 95.4518C256.208 95.4741 256.287 95.5305 256.338 95.6093C256.388 95.6881 256.407 95.7834 256.389 95.8755C256.372 95.9676 256.32 96.0494 256.244 96.1042L255.424 96.6825L256.2 96.2433C256.273 96.1958 256.362 96.177 256.449 96.1904C256.536 96.2039 256.614 96.2487 256.67 96.3163C256.726 96.384 256.755 96.4698 256.752 96.5575C256.749 96.6452 256.714 96.7287 256.654 96.7923L255.263 98.3953L256.61 97.6194C256.675 97.5809 256.75 97.5644 256.825 97.5723C256.901 97.5802 256.971 97.6121 257.027 97.6634C257.084 97.7127 257.125 97.7786 257.143 97.852C257.162 97.9254 257.157 98.0027 257.129 98.0733L256.983 98.4173C257.054 98.4094 257.126 98.4225 257.19 98.4551C257.253 98.4876 257.306 98.5381 257.342 98.6003C257.39 98.6839 257.403 98.7831 257.378 98.8763C257.353 98.9695 257.293 99.0492 257.21 99.0981L256.434 99.5446C256.368 99.584 256.292 99.6015 256.216 99.5945C256.14 99.5875 256.068 99.5565 256.011 99.5058C255.954 99.4552 255.914 99.3876 255.898 99.313C255.882 99.2383 255.89 99.1605 255.922 99.0907L256.046 98.7833L253.74 100.116C253.665 100.155 253.579 100.168 253.496 100.151C253.413 100.134 253.338 100.089 253.285 100.024C253.231 99.958 253.202 99.8759 253.203 99.7912C253.203 99.7065 253.232 99.6245 253.286 99.5592L254.677 97.9562L249.341 101.016C249.26 101.061 249.166 101.074 249.076 101.052C248.987 101.03 248.909 100.976 248.858 100.899C248.832 100.86 248.813 100.817 248.804 100.772C248.794 100.726 248.794 100.679 248.803 100.634C248.812 100.588 248.83 100.545 248.855 100.506C248.881 100.467 248.914 100.434 248.953 100.408L249.773 99.8227L246.735 101.572C246.653 101.619 246.556 101.632 246.465 101.608C246.373 101.585 246.294 101.528 246.244 101.448C246.195 101.368 246.179 101.272 246.199 101.18C246.22 101.088 246.275 101.008 246.354 100.957L246.442 100.891L244.414 102.063C244.334 102.109 244.239 102.123 244.149 102.101C244.059 102.08 243.981 102.024 243.931 101.946C243.905 101.907 243.887 101.864 243.877 101.819C243.868 101.773 243.868 101.726 243.877 101.68C243.885 101.635 243.903 101.591 243.929 101.553C243.955 101.514 243.988 101.481 244.027 101.455L248.265 98.4759L240.718 102.831C240.666 102.874 240.602 102.899 240.535 102.904Z" fill="#47C2C9"/>
<path d="M229.255 113.152C227.6 111.745 226.268 109.998 225.349 108.03C224.429 106.062 223.944 103.92 223.926 101.748C223.926 93.1102 231.414 86.1123 240.652 86.1123C249.89 86.1123 257.385 93.1102 257.385 101.748C257.385 110.385 249.897 117.383 240.652 117.383C238.231 117.384 235.837 116.885 233.617 115.919" stroke="#263238" stroke-miterlimit="10"/>
<path d="M209.191 98.3734H219.754" stroke="#263238" stroke-miterlimit="10"/>
<path d="M209.191 102.011H219.754" stroke="#263238" stroke-miterlimit="10"/>
<path d="M209.191 105.657H219.754" stroke="#263238" stroke-miterlimit="10"/>
<path d="M81.5078 160.484H100.086" stroke="#263238" stroke-miterlimit="10"/>
<path d="M81.5078 164.129H100.086" stroke="#263238" stroke-miterlimit="10"/>
<path d="M77.6504 113.123H96.2286" stroke="#263238" stroke-miterlimit="10"/>
<path d="M81.5078 167.767H100.086" stroke="#263238" stroke-miterlimit="10"/>
<path d="M81.5078 175.416H100.086" stroke="#263238" stroke-miterlimit="10"/>
<path d="M81.5078 179.062H100.086" stroke="#263238" stroke-miterlimit="10"/>
<path d="M81.5078 182.707H100.086" stroke="#263238" stroke-miterlimit="10"/>
<path d="M236.202 86.5076L240.718 102.853L257.239 99.0833" stroke="#263238" stroke-miterlimit="10"/>
<path d="M77.8481 90.6948V108.892H107.07" stroke="#263238" stroke-miterlimit="10"/>
<path d="M86.9467 93.1763H80.8784V108.892H86.9467V93.1763Z" fill="#47C2C9" stroke="#263238" stroke-miterlimit="10"/>
<path d="M102.385 96.7556H96.3164V108.885H102.385V96.7556Z" fill="#47C2C9" stroke="#263238" stroke-miterlimit="10"/>
<path d="M94.6694 88.2131H88.6011V108.892H94.6694V88.2131Z" fill="#47C2C9" stroke="#263238" stroke-miterlimit="10"/>
<path d="M42.6679 207.968C42.6679 207.968 42.6679 204.909 38.3857 200.648C34.1035 196.388 31.3512 193.921 31.3512 193.921C31.3512 193.921 29.2064 200.956 33.1885 205.238C36.112 208.251 39.2829 211.012 42.6679 213.495V207.968Z" fill="#47C2C9"/>
<path d="M36.4536 227.074C36.4536 227.074 36.4536 224.014 32.1714 219.754C27.8892 215.493 25.1369 213.012 25.1369 213.012C25.1369 213.012 22.9921 220.046 26.9669 224.329C29.9032 227.341 33.0863 230.103 36.4829 232.586L36.4536 227.074Z" fill="#47C2C9"/>
<path d="M42.3971 213.18C42.3971 213.18 42.7265 210.135 47.4333 206.329C52.14 202.522 55.1412 200.385 55.1412 200.385C55.1412 200.385 56.532 207.602 52.1254 211.445C48.8954 214.13 45.448 216.542 41.8188 218.656L42.3971 213.18Z" fill="#47C2C9"/>
<path d="M34.8944 235.74C34.8944 235.74 35.5312 232.754 40.6186 229.46C45.706 226.166 48.9048 224.336 48.9048 224.336C48.9048 224.336 49.527 231.656 44.7398 235.016C41.255 237.347 37.5823 239.384 33.7598 241.106L34.8944 235.74Z" fill="#47C2C9"/>
<path d="M36.2998 260.343C36.2998 260.343 36.2998 257.283 40.5893 253.023C44.8788 248.763 47.6238 246.296 47.6238 246.296C47.6238 246.296 49.7613 253.331 45.7865 257.613C42.852 260.627 39.6687 263.389 36.2705 265.87L36.2998 260.343Z" fill="#47C2C9"/>
<path d="M36.2339 266.345C36.2339 266.345 36.6657 263.322 33.035 258.469C29.4043 253.616 27.0253 250.812 27.0253 250.812C27.0253 250.812 23.907 257.474 27.2376 262.275C29.7043 265.672 32.4516 268.855 35.4506 271.791L36.2339 266.345Z" fill="#47C2C9"/>
<path d="M32.0102 284.148C32.0102 284.148 32.0102 281.088 36.2924 276.828C40.5746 272.567 43.327 270.093 43.327 270.093C43.327 270.093 45.4717 277.128 41.4896 281.41C38.5558 284.428 35.3725 287.192 31.9736 289.674L32.0102 284.148Z" fill="#47C2C9"/>
<path d="M34.865 300.281C34.865 300.281 34.0964 297.316 37.1489 292.09C40.2013 286.863 42.2729 283.796 42.2729 283.796C42.2729 283.796 46.1232 290.062 43.3635 295.216C41.2931 298.87 38.923 302.347 36.2778 305.61L34.865 300.281Z" fill="#47C2C9"/>
<path d="M43.056 207.156C42.8402 210.347 42.4492 213.524 41.8848 216.672C40.1939 225.456 35.9556 231.063 34.2647 238.961C32.5738 246.86 37.4343 257.042 36.1313 267.187C34.8283 277.333 30.8829 282.984 32.0101 289.755C33.1374 296.526 39.0666 314.862 39.0666 314.862" stroke="#263238" stroke-linecap="round" stroke-linejoin="round"/>
<path d="M42.3608 215.215L46.9724 211.672" stroke="#263238" stroke-linecap="round" stroke-linejoin="round"/>
<path d="M42.5731 211.131L40.6406 207.698" stroke="#263238" stroke-linecap="round" stroke-linejoin="round"/>
<path d="M34.521 238.632C34.521 238.632 38.386 235.704 42.3607 232.842" stroke="#263238" stroke-linecap="round" stroke-linejoin="round"/>
<path d="M36.4536 232.578C36.4536 232.578 33.2328 226.268 29.5874 222.081" stroke="#263238" stroke-linecap="round" stroke-linejoin="round"/>
<path d="M36.4536 264.698C38.6601 260.632 41.4437 256.907 44.7179 253.638" stroke="#263238" stroke-linecap="round" stroke-linejoin="round"/>
<path d="M35.7065 268.988C34.5328 266.229 33.1324 263.573 31.5195 261.046C29.265 257.723 28.9429 257.291 28.9429 257.291" stroke="#263238" stroke-linecap="round" stroke-linejoin="round"/>
<path d="M32.0103 289.769C32.9878 287.337 34.1502 284.983 35.4873 282.728C36.8252 280.64 38.3334 278.667 39.9964 276.828" stroke="#263238" stroke-linecap="round" stroke-linejoin="round"/>
<path d="M36.263 305.61C36.0385 303.288 36.4378 300.948 37.4195 298.832C39.0299 295.721 40.8526 291.636 41.6066 290.048" stroke="#263238" stroke-linecap="round" stroke-linejoin="round"/>
<path d="M14.6398 248.836C14.6398 248.836 14.303 246.918 16.5283 243.771C18.7536 240.623 20.1883 238.786 20.1883 238.786C20.1883 238.786 22.2965 242.965 20.2615 246.106C18.7552 248.313 17.0656 250.389 15.2107 252.313L14.6398 248.836Z" fill="#47C2C9"/>
<path d="M20.5983 260.145C20.5983 260.145 20.2615 258.228 22.4868 255.073C24.7121 251.918 26.1468 250.095 26.1468 250.095C26.1468 250.095 28.2477 254.275 26.22 257.415C24.7127 259.624 23.0232 261.703 21.1692 263.63L20.5983 260.145Z" fill="#47C2C9"/>
<path d="M15.3718 252.079C15.3718 252.079 14.8374 250.205 11.4702 248.331C8.10303 246.457 5.99487 245.403 5.99487 245.403C5.99487 245.403 5.90703 250.088 9.09123 251.991C11.3969 253.352 13.8138 254.515 16.3161 255.468L15.3718 252.079Z" fill="#47C2C9"/>
<path d="M22.5162 265.408C22.5162 265.408 21.7842 263.608 18.2413 262.093C14.6984 260.577 12.4878 259.794 12.4878 259.794C12.4878 259.794 12.8977 264.457 16.2649 266.038C18.7094 267.113 21.2385 267.985 23.8265 268.644L22.5162 265.408Z" fill="#47C2C9"/>
<path d="M24.3023 280.993C24.3023 280.993 23.9729 279.075 20.8179 276.85C17.663 274.624 15.6939 273.395 15.6939 273.395C15.6939 273.395 15.1083 278.043 18.0729 280.297C20.2248 281.869 22.5044 283.257 24.8879 284.448L24.3023 280.993Z" fill="#47C2C9"/>
<path d="M24.9974 284.748C24.9974 284.748 24.3971 282.896 26.1466 279.463C27.8961 276.03 29.0746 274.01 29.0746 274.01C29.0746 274.01 31.7537 277.845 30.1872 281.22C29.0126 283.618 27.6364 285.913 26.0734 288.079L24.9974 284.748Z" fill="#47C2C9"/>
<path d="M30.3704 300.222C30.3704 300.222 30.5973 298.29 33.6131 295.889C36.629 293.488 38.5541 292.148 38.5541 292.148C38.5541 292.148 39.3959 296.753 36.5704 299.168C34.5052 300.863 32.3015 302.381 29.9824 303.707L30.3704 300.222Z" fill="#47C2C9"/>
<path d="M29.5801 295.45C29.5801 295.45 29.28 293.532 26.0958 291.336C22.9116 289.14 20.9718 287.874 20.9718 287.874C20.9718 287.874 20.3935 292.522 23.3581 294.776C25.5173 296.348 27.8043 297.736 30.195 298.927L29.5801 295.45Z" fill="#47C2C9"/>
<path d="M29.5358 305.881C29.5358 305.881 29.7041 303.941 27.2153 300.991C24.7265 298.041 23.1161 296.343 23.1161 296.343C23.1161 296.343 21.3813 300.691 23.6724 303.619C25.3761 305.691 27.2518 307.616 29.2796 309.372L29.5358 305.881Z" fill="#47C2C9"/>
<path d="M14.2959 248.39C14.7771 250.372 15.366 252.327 16.06 254.246C18.073 259.553 21.3377 262.627 23.2629 267.422C25.1881 272.216 23.2629 279.134 25.1515 285.326C27.04 291.519 30.1583 294.659 30.1876 299.029C30.2169 303.399 28.4894 315.492 28.4894 315.492" stroke="#263238" stroke-linecap="round" stroke-linejoin="round"/>
<path d="M15.606 253.345L12.3267 251.625" stroke="#263238" stroke-linecap="round" stroke-linejoin="round"/>
<path d="M15.0278 250.812L15.8696 248.448" stroke="#263238" stroke-linecap="round" stroke-linejoin="round"/>
<path d="M23.0578 267.18C23.0578 267.18 20.3202 265.782 17.5166 264.391" stroke="#263238" stroke-linecap="round" stroke-linejoin="round"/>
<path d="M21.228 263.6C22.032 261.059 23.094 258.606 24.3976 256.28" stroke="#263238" stroke-linecap="round" stroke-linejoin="round"/>
<path d="M24.6828 283.738C22.856 281.429 20.7062 279.395 18.2998 277.699" stroke="#263238" stroke-linecap="round" stroke-linejoin="round"/>
<path d="M25.6196 286.351C26.0541 284.493 26.6417 282.674 27.3764 280.912C28.4305 278.585 28.5842 278.277 28.5842 278.277" stroke="#263238" stroke-linecap="round" stroke-linejoin="round"/>
<path d="M30.0117 302.316C31.0787 300.995 32.2593 299.771 33.54 298.656C34.3696 298.047 35.1482 297.371 35.8677 296.636" stroke="#263238" stroke-linecap="round" stroke-linejoin="round"/>
<path d="M30.1872 298.978C29.3149 297.559 28.3361 296.208 27.2592 294.937C26.1925 293.773 25.0321 292.698 23.7896 291.724" stroke="#263238" stroke-linecap="round" stroke-linejoin="round"/>
<path d="M29.2798 309.372C29.1664 307.891 28.6611 306.466 27.8158 305.244C26.4689 303.472 24.8878 301.108 24.2363 300.178" stroke="#263238" stroke-linecap="round" stroke-linejoin="round"/>
<path d="M344.874 119.495C348.192 105.213 339.304 90.9445 325.021 87.6261C310.739 84.3077 296.47 93.1959 293.152 107.478C289.834 121.761 298.722 136.029 313.004 139.348C327.287 142.666 341.555 133.778 344.874 119.495Z" fill="#263238" stroke="#263238" stroke-miterlimit="10"/>
<path d="M327.784 134.255C339.254 129.399 344.615 116.163 339.758 104.694C334.901 93.2238 321.666 87.863 310.196 92.7198C298.726 97.5766 293.365 110.812 298.222 122.282C303.079 133.751 316.314 139.112 327.784 134.255Z" fill="white" stroke="#263238" stroke-miterlimit="10"/>
<path d="M325.959 99.0104L318.991 113.467H328.946" stroke="#263238" stroke-miterlimit="10"/>
<path d="M321.523 113.46C321.525 113.961 321.378 114.452 321.1 114.869C320.823 115.287 320.428 115.612 319.965 115.805C319.502 115.998 318.993 116.049 318.501 115.952C318.009 115.855 317.557 115.615 317.202 115.261C316.847 114.907 316.606 114.456 316.507 113.964C316.409 113.473 316.459 112.963 316.65 112.5C316.842 112.037 317.166 111.641 317.583 111.362C318 111.083 318.489 110.935 318.991 110.935C319.323 110.934 319.652 110.998 319.959 111.125C320.267 111.251 320.546 111.437 320.781 111.672C321.016 111.906 321.203 112.185 321.331 112.492C321.458 112.799 321.523 113.128 321.523 113.46Z" fill="#47C2C9" stroke="#263238" stroke-miterlimit="10"/>
<path d="M175.431 182.063L172.02 177.1C172.02 177.1 172.694 169.121 171.932 167.877C171.171 166.633 158.844 165.19 158.112 166.113C157.38 167.035 159.971 167.87 159.971 167.87C159.971 167.87 158.215 168.646 158.398 169.531C158.669 170.834 160.916 170.995 160.916 170.995C160.916 170.995 159.13 172.188 159.349 172.964C159.525 173.579 161.311 174.062 161.311 174.062C161.311 174.062 159.503 174.882 160.982 175.929C162.46 176.976 163.712 178.059 163.712 178.059C163.712 178.059 162.687 180.255 165.461 182.166C168.236 184.076 173.03 187.553 173.03 187.553L175.431 182.063Z" fill="#FFBE9D" stroke="#263238" stroke-linecap="round" stroke-linejoin="round"/>
<path d="M158.573 162.79L155.843 162.563V163.404L158.039 164.641C158.164 164.01 158.342 163.39 158.573 162.79Z" fill="#263238" stroke="#263238" stroke-linecap="round" stroke-linejoin="round"/>
<path d="M169.304 168.316C169.182 168.321 169.061 168.303 168.945 168.265L158.112 164.846C157.971 164.809 157.838 164.743 157.723 164.652C157.608 164.562 157.513 164.449 157.442 164.321C157.372 164.193 157.328 164.052 157.314 163.906C157.299 163.76 157.315 163.613 157.359 163.474C157.403 163.334 157.475 163.205 157.57 163.094C157.665 162.983 157.782 162.893 157.913 162.828C158.045 162.763 158.188 162.726 158.334 162.718C158.48 162.71 158.626 162.732 158.763 162.782L169.597 166.201C169.841 166.278 170.049 166.439 170.186 166.655C170.322 166.871 170.378 167.129 170.343 167.382C170.308 167.635 170.184 167.868 169.994 168.039C169.804 168.21 169.56 168.308 169.304 168.316Z" fill="white" stroke="#263238" stroke-linecap="round" stroke-linejoin="round"/>
<path d="M174.948 170.446C174.784 170.447 174.621 170.422 174.465 170.373L168.872 168.609C168.662 168.579 168.46 168.504 168.281 168.389C168.102 168.273 167.95 168.12 167.837 167.94C167.723 167.76 167.65 167.557 167.623 167.346C167.596 167.135 167.615 166.92 167.679 166.717C167.743 166.514 167.851 166.328 167.995 166.171C168.139 166.013 168.315 165.89 168.512 165.808C168.708 165.726 168.92 165.688 169.133 165.696C169.346 165.705 169.554 165.759 169.743 165.857L175.336 167.621C175.698 167.74 175.999 167.996 176.175 168.333C176.351 168.671 176.389 169.064 176.28 169.429C176.189 169.714 176.012 169.965 175.774 170.147C175.536 170.329 175.248 170.433 174.948 170.446Z" fill="#263238" stroke="#263238" stroke-linecap="round" stroke-linejoin="round"/>
<path d="M170.439 172.079C169.935 170.617 169.348 169.185 168.682 167.789C167.913 166.369 166.435 165.147 165.849 163.719C165.264 162.292 163.697 164.502 164.275 165.571C164.854 166.64 166.164 168.228 166.186 168.953C166.208 169.678 166.398 170.212 165.564 172.613C164.729 175.014 164.268 177.737 166.135 179.655" fill="#FFBE9D"/>
<path d="M170.439 172.079C169.935 170.617 169.348 169.185 168.682 167.789C167.913 166.369 166.435 165.147 165.849 163.719C165.264 162.292 163.697 164.502 164.275 165.571C164.854 166.64 166.164 168.228 166.186 168.953C166.208 169.678 166.398 170.212 165.564 172.613C164.729 175.014 164.268 177.737 166.135 179.655" stroke="#263238" stroke-linecap="round" stroke-linejoin="round"/>
<path d="M160 167.87L166.186 168.953" stroke="#263238" stroke-linecap="round" stroke-linejoin="round"/>
<path d="M160.945 171.003C161.677 170.798 165.564 172.584 165.564 172.584" stroke="#263238" stroke-linecap="round" stroke-linejoin="round"/>
<path d="M161.34 174.07L164.554 175.146" stroke="#263238" stroke-linecap="round" stroke-linejoin="round"/>
<path d="M218.744 172.525C218.744 172.525 216.899 171.434 216.087 174.355C215.274 177.276 212.888 182.407 211.834 183.52C210.78 184.632 200.414 194.895 200.414 194.895C200.414 194.895 195.964 191.403 194.917 192.699C194.476 193.341 193.866 193.848 193.153 194.163L175.38 180.218L168.792 190.181C168.792 190.181 192.948 212.258 194.968 212.924C196.989 213.59 198.416 213.363 199.133 212.983C199.851 212.602 213.115 202.618 213.115 202.618C213.115 202.618 221.203 176.515 221.899 175.592C222.594 174.67 218.744 172.525 218.744 172.525Z" fill="#47C2C9" stroke="#263238" stroke-linecap="round" stroke-linejoin="round"/>
<path d="M194.873 194.954C194.873 194.954 198.474 199.111 198.474 204.374L194.873 194.954Z" fill="#47C2C9"/>
<path d="M194.873 194.954C194.873 194.954 198.474 199.111 198.474 204.374" stroke="#263238" stroke-linecap="round" stroke-linejoin="round"/>
<path d="M200.693 196.615C200.693 196.615 201.798 199.39 200.136 205.48L200.693 196.615Z" fill="#47C2C9"/>
<path d="M200.693 196.615C200.693 196.615 201.798 199.39 200.136 205.48" stroke="#263238" stroke-linecap="round" stroke-linejoin="round"/>
<path d="M226.664 140.31C226.664 140.31 218.817 135.186 219.746 130.318C220.676 125.45 238.273 121.534 248.39 124.821C258.506 128.107 260.563 143.245 259.231 152.585C257.898 161.926 257.093 183.242 257.093 183.242L222.77 184.252C222.77 184.252 225.968 159.291 226.635 151.4C227.301 143.509 226.664 140.31 226.664 140.31Z" fill="#263238" stroke="#263238" stroke-linecap="round" stroke-linejoin="round"/>
<path d="M209.096 277.743C209.828 285.202 211.219 318.069 212.024 322.937H247.709C247.636 317.329 247.541 279.456 248.346 276.359C249.363 272.487 250.791 259.575 249.217 252.167C247.643 244.759 245.733 241.187 245.733 241.187L208.693 241.15L208.803 244.188C208.803 244.188 208.108 267.18 209.096 277.743Z" fill="#263238" stroke="#263238" stroke-linecap="round" stroke-linejoin="round"/>
<path d="M217.016 255.373C218.48 256.376 219.944 257.093 219.944 258.542C220.676 271.557 223.56 308.114 224.578 321.282" stroke="#4C4C4C" stroke-linecap="round" stroke-linejoin="round"/>
<path d="M227.652 172.02L245.762 172.693C245.762 172.693 231.224 195.071 231.349 207.368C231.473 219.666 233.911 245.154 233.911 245.154C233.911 245.154 225.947 251.457 217.712 250.278C216.819 250.146 216.343 242.768 216.343 242.768C216.343 242.768 215.816 249.934 215.208 249.824C210.597 248.997 208.803 244.232 208.803 244.232L209.762 219.6C209.762 219.6 209.762 203.445 211.563 198.804C213.364 194.163 225.529 173.55 225.529 173.55L227.652 172.02Z" fill="white" stroke="#263238" stroke-linecap="round" stroke-linejoin="round"/>
<path d="M226.92 186.279C226.92 186.279 221.32 197.918 219.271 204.74C217.221 211.563 216.343 242.739 216.343 242.739" stroke="#263238" stroke-linecap="round" stroke-linejoin="round"/>
<path d="M243.58 172.518C243.58 172.518 230.88 191.462 228.428 198.284C225.976 205.106 224.336 231.224 224.658 242.292C224.98 253.36 228.479 265.57 228.479 265.57C238.776 267.213 249.313 266.49 259.289 263.454C259.289 263.454 254.853 243.815 252.701 237.366C251.357 233.139 250.344 228.815 249.67 224.431C249.67 224.431 264.252 177.935 264.252 177.217C264.252 176.5 263.966 175.753 262.51 175.336C261.053 174.919 243.58 172.518 243.58 172.518Z" fill="#47C2C9" stroke="#263238" stroke-linecap="round" stroke-linejoin="round"/>
<path d="M231.941 244.986L250.79 243.478L251.039 246.494L243.002 247.497" fill="#47C2C9"/>
<path d="M231.941 244.986L250.79 243.478L251.039 246.494L243.002 247.497" stroke="#263238" stroke-linecap="round" stroke-linejoin="round"/>
<path d="M227.484 174.436C227.484 174.436 212.353 201.176 212.017 206.007C211.68 210.838 209.44 233.091 208.196 240.125C206.951 247.16 201.571 260.819 201.571 260.819C201.571 260.819 200.187 254.831 200.59 252.167C200.993 249.502 206.819 234.379 207.442 230.983C208.064 227.586 208.906 215.501 208.759 210.201C208.613 204.902 208.247 201.051 209.345 197.164C210.443 193.277 218.744 172.525 218.744 172.525L230.785 171.932L227.484 174.436Z" fill="#47C2C9" stroke="#263238" stroke-linecap="round" stroke-linejoin="round"/>
<path d="M224.204 172.225L221.686 183.754L228.157 178.732L224.204 172.225Z" fill="white" stroke="#263238" stroke-linecap="round" stroke-linejoin="round"/>
<path d="M231.912 166.633L224.204 172.225L227.11 179.831L226.949 186.279L235.689 173.316L231.912 166.633Z" fill="white" stroke="#263238" stroke-linecap="round" stroke-linejoin="round"/>
<path d="M231.466 163.602C231.466 163.602 230.002 174.384 229.54 177.254C229.079 180.123 226.92 186.279 226.92 186.279C226.92 186.279 240.66 172.994 241.34 171.896C242.021 170.798 244.393 160.184 244.393 160.184C244.393 160.184 235.579 163.485 231.466 163.602Z" fill="#FFBE9D" stroke="#263238" stroke-linecap="round" stroke-linejoin="round"/>
<path d="M231.048 166.625C232.922 167.796 234.379 167.796 236.546 167.46C238.712 167.123 241.67 165.088 243.661 163.485C244.1 161.618 244.393 160.184 244.393 160.184C244.393 160.184 235.55 163.485 231.436 163.602C231.466 163.602 231.312 164.861 231.048 166.625Z" fill="#263238" stroke="#263238" stroke-linecap="round" stroke-linejoin="round"/>
<path d="M235.865 130.918L225.727 138.904C225.727 138.904 224.702 146.627 224.321 152.007C224.119 154.22 224.449 156.45 225.283 158.51C226.117 160.57 227.431 162.401 229.116 163.851C232.044 166.449 233.669 166.581 236.516 166.135C239.364 165.688 243.566 162.35 245.132 160.872C246.699 159.393 249.612 155.016 249.612 155.016C249.612 155.016 251.947 155.484 252.635 154.393C252.979 153.882 253.261 153.331 253.477 152.754C253.477 152.754 243.837 147.315 239.876 140.456C235.916 133.597 235.865 130.918 235.865 130.918Z" fill="#FFBE9D" stroke="#263238" stroke-linecap="round" stroke-linejoin="round"/>
<path d="M232.71 145.141C232.562 146.271 232.231 147.368 231.729 148.391C231.048 149.482 228.384 150.097 229.848 151.319C230.961 152.088 232.287 152.487 233.64 152.461" stroke="#263238" stroke-linecap="round" stroke-linejoin="round"/>
<path d="M229.768 154.533C229.768 154.533 235.199 156.875 238.691 153.727" stroke="#263238" stroke-linecap="round" stroke-linejoin="round"/>
<path d="M231.583 155.374C231.583 155.374 232.388 158.39 234.16 157.797C235.931 157.204 237.468 154.869 237.468 154.869C235.52 155.171 233.554 155.34 231.583 155.374Z" stroke="#263238" stroke-linecap="round" stroke-linejoin="round"/>
<path d="M239.547 146.546C239.547 147.337 239.232 148.01 238.815 148.01C238.398 148.01 237.995 147.396 237.973 146.605C237.951 145.814 238.288 145.141 238.705 145.141C239.122 145.141 239.525 145.763 239.547 146.546Z" fill="#263238"/>
<path d="M231.019 145.551C231.019 146.342 230.704 147.015 230.287 147.015C229.87 147.015 229.467 146.4 229.445 145.61C229.423 144.819 229.76 144.146 230.177 144.146C230.595 144.146 230.997 144.76 231.019 145.551Z" fill="#263238"/>
<path d="M228.15 142.235C228.417 141.955 228.739 141.733 229.096 141.584C229.453 141.434 229.836 141.36 230.223 141.365C230.61 141.371 230.992 141.456 231.344 141.616C231.696 141.775 232.012 142.006 232.271 142.294" stroke="#263238" stroke-linecap="round" stroke-linejoin="round"/>
<path d="M236.392 142.74C236.392 142.74 240.462 141.196 242.175 144.716" stroke="#263238" stroke-linecap="round" stroke-linejoin="round"/>
<path d="M234.137 175.336L226.949 186.279L237.512 180.599L234.137 175.336Z" fill="white" stroke="#263238" stroke-linecap="round" stroke-linejoin="round"/>
<path d="M246.201 165.849L234.138 175.336L237.651 185.247L249.239 171.844L246.201 165.849Z" fill="white" stroke="#263238" stroke-linecap="round" stroke-linejoin="round"/>
<path d="M231.539 222.074C229.91 221.62 228.354 220.935 226.92 220.039C224.219 218.429 221.342 218.992 218.934 219.066C216.526 219.139 214.849 219.673 215.12 220.625C215.391 221.576 217.799 221.511 218.524 221.489C219.249 221.467 220.486 222.638 220.486 222.638L214.461 224.102C214.461 224.102 212.573 225.368 214.059 226.766C215.545 228.164 215.816 227.85 215.816 227.85C215.816 227.85 218.092 231.4 220.508 231.568C222.923 231.737 232.74 229.277 232.74 229.277L231.539 222.074Z" fill="#FFBE9D" stroke="#263238" stroke-linecap="round" stroke-linejoin="round"/>
<path d="M248.609 194.405C248.895 195.869 250.454 217.411 250.454 217.411L230.58 222.096L231.641 233.406C231.641 233.406 267.209 229.219 267.868 227.03C268.527 224.841 266.207 187.041 266.404 184.867C266.602 182.693 269.501 175.351 260.819 175.351" fill="#47C2C9"/>
<path d="M248.609 194.405C248.895 195.869 250.454 217.411 250.454 217.411L230.58 222.096L231.641 233.406C231.641 233.406 267.209 229.219 267.868 227.03C268.527 224.841 266.207 187.041 266.404 184.867C266.602 182.693 269.501 175.351 260.819 175.351" stroke="#263238" stroke-linecap="round" stroke-linejoin="round"/>
<path d="M251.933 190.803C251.933 190.803 257.745 183.322 264.12 183.6L251.933 190.803Z" fill="#47C2C9"/>
<path d="M251.933 190.803C251.933 190.803 257.745 183.322 264.12 183.6" stroke="#263238" stroke-linecap="round" stroke-linejoin="round"/>
<path d="M251.933 193.57C251.933 193.57 256.918 190.803 261.902 190.803L251.933 193.57Z" fill="#47C2C9"/>
<path d="M251.933 193.57C251.933 193.57 256.918 190.803 261.902 190.803" stroke="#263238" stroke-linecap="round" stroke-linejoin="round"/>
<path d="M29.7631 322.936V280.583C29.7631 280.249 29.6305 279.929 29.3944 279.693C29.1583 279.457 28.838 279.324 28.5041 279.324H23.3142C22.9796 279.324 22.6586 279.456 22.4213 279.692C22.1841 279.928 22.0498 280.248 22.0479 280.583V322.936H29.7631Z" fill="#4C4C4C" stroke="#263238" stroke-linecap="round" stroke-linejoin="round"/>
<path d="M23.2997 322.936V280.583C23.2978 280.248 23.1635 279.928 22.9263 279.692C22.689 279.456 22.368 279.324 22.0334 279.324H16.8362C16.5023 279.324 16.182 279.457 15.9459 279.693C15.7098 279.929 15.5771 280.249 15.5771 280.583V322.936H23.2997Z" fill="#263238" stroke="#263238" stroke-linecap="round" stroke-linejoin="round"/>
<path d="M26.2204 322.937H118.87C118.222 321.3 117.126 319.879 115.707 318.837C111.506 316.187 71.4872 309.995 71.4872 309.995L29.9169 309.329L27.9259 309.995C27.9259 309.995 25.7299 313.091 25.9422 314.636C26.052 315.419 26.1032 319.211 26.2204 322.937Z" fill="#263238" stroke="#263238" stroke-linecap="round" stroke-linejoin="round"/>
<path d="M63.9694 229.731C63.9694 229.731 54.2411 235.257 50.9251 238.354C47.6092 241.45 42.0826 251.625 41.6361 257.81C41.1895 263.996 36.3291 287.676 36.3291 287.676C36.3291 287.676 26.3519 307.118 27.9257 309.995C29.4995 312.871 70.3817 309.995 71.487 309.995C72.5923 309.995 70.3817 297.836 70.3817 297.836C70.3817 297.836 85.8562 273.951 86.4857 267.539C87.1152 261.126 82.5036 243.661 81.6179 239.679C80.7322 235.697 65.9604 228.845 63.9694 229.731Z" fill="white" stroke="#263238" stroke-linecap="round" stroke-linejoin="round"/>
<path d="M56.3638 263.52C56.3638 263.52 64.101 270.84 67.3438 273.292" stroke="#263238" stroke-linecap="round" stroke-linejoin="round"/>
<path d="M52.7041 269.208C52.7041 269.208 66.9561 274.09 70.6161 274.5" stroke="#263238" stroke-linecap="round" stroke-linejoin="round"/>
<path d="M94.2595 204.96C94.2595 204.96 95.3648 213.144 95.1452 215.574C94.9256 218.004 92.7149 226.408 92.0488 228.179C91.3827 229.95 90.7239 231.934 88.2937 231.715C86.8782 231.604 85.5113 231.149 84.3116 230.39L81.8813 238.566L65.0453 228.838L67.2413 224.446C67.2413 224.446 64.8111 220.471 64.145 213.832C63.4789 207.193 67.2413 199.682 72.1091 196.813C76.9769 193.943 85.373 195.041 87.8032 197.032C90.2335 199.023 94.2595 204.96 94.2595 204.96Z" fill="#FFBE9D" stroke="#263238" stroke-linecap="round" stroke-linejoin="round"/>
<path d="M64.1891 225.529C65.0748 225.756 84.0921 234.379 84.3117 236.59C84.5313 238.8 85.4171 245.652 85.4171 245.652C81.5153 242.298 77.2933 239.337 72.812 236.809C69.2628 234.937 65.8635 232.793 62.6445 230.397L64.1891 225.529Z" fill="white" stroke="#263238" stroke-linecap="round" stroke-linejoin="round"/>
<path d="M80.9956 186.836C80.9956 186.836 86.7418 184.405 91.3827 185.511C96.0236 186.616 97.795 191.923 97.795 196.344C97.795 200.766 95.3648 206.073 94.4791 206.292C93.5933 206.512 91.3827 195.905 87.159 192.809C84.8173 191.137 82.7397 189.124 80.9956 186.836Z" fill="#47C2C9" stroke="#263238" stroke-linecap="round" stroke-linejoin="round"/>
<path d="M73.9322 188.168C73.9322 188.168 83.0017 183.3 90.9585 190.152C98.9153 197.003 96.2655 203.862 94.494 206.292C92.7226 208.722 92.7299 213.371 91.3977 214.256C90.0654 215.142 89.8532 210.721 88.3086 209.864C86.7641 209.008 86.9618 212.28 85.1976 216.672C83.4335 221.064 75.4694 227.506 71.2897 227.066C67.1099 226.627 62.0006 221.942 59.1238 212.251C56.2471 202.559 58.2454 192.128 63.5158 188.827C65.0611 187.861 66.8223 187.296 68.6407 187.181C70.4591 187.066 72.2776 187.405 73.9322 188.168Z" fill="#47C2C9" stroke="#263238" stroke-linecap="round" stroke-linejoin="round"/>
<path d="M91.4998 192.333C91.4998 192.333 93.2566 197.413 88.7621 203.071C84.2676 208.73 78.2213 211.855 73.7341 209.125C69.247 206.395 69.042 203.269 69.042 203.269" stroke="#263238" stroke-linecap="round" stroke-linejoin="round"/>
<path d="M61.8395 204.228C61.8395 204.228 60.8586 219.476 70.0379 221.064C79.2172 222.652 84.2899 213.012 84.2899 213.012" stroke="#263238" stroke-linecap="round" stroke-linejoin="round"/>
<path d="M64.7452 204.528C69.8148 204.528 73.9245 200.369 73.9245 195.239C73.9245 190.109 69.8148 185.95 64.7452 185.95C59.6756 185.95 55.5659 190.109 55.5659 195.239C55.5659 200.369 59.6756 204.528 64.7452 204.528Z" fill="#47C2C9" stroke="#263238" stroke-linecap="round" stroke-linejoin="round"/>
<path d="M62.813 193.9C62.813 193.9 63.9842 187.846 67.3002 187.063" stroke="#263238" stroke-linecap="round" stroke-linejoin="round"/>
<path d="M62.4248 194.712C62.4248 194.712 69.0567 192.37 72.1824 194.91" stroke="#263238" stroke-linecap="round" stroke-linejoin="round"/>
<path d="M62.0295 195.847C62.0295 195.847 59.1015 197.801 60.0823 202.295" stroke="#263238" stroke-linecap="round" stroke-linejoin="round"/>
<path d="M89.6185 214.915C89.6185 214.915 88.9524 208.283 86.9613 208.503C84.9703 208.722 85.856 218.678 86.9613 220.215C87.0587 220.413 87.2048 220.583 87.3859 220.709C87.567 220.835 87.7771 220.913 87.9966 220.936C88.216 220.958 88.4377 220.925 88.6407 220.839C88.8438 220.752 89.0215 220.616 89.1573 220.442" fill="#FFBE9D"/>
<path d="M89.6185 214.915C89.6185 214.915 88.9524 208.283 86.9613 208.503C84.9703 208.722 85.856 218.678 86.9613 220.215C87.0587 220.413 87.2048 220.583 87.3859 220.709C87.567 220.835 87.7771 220.913 87.9966 220.936C88.216 220.958 88.4377 220.925 88.6407 220.839C88.8438 220.752 89.0215 220.616 89.1573 220.442" stroke="#263238" stroke-linecap="round" stroke-linejoin="round"/>
<path d="M276.498 313.955H71.1724L78.0971 296.526H230.302L276.498 313.955Z" fill="#B5B5B5" stroke="#263238" stroke-linecap="round" stroke-linejoin="round"/>
<path d="M273.68 317.439H73.4487V322.936H273.68V317.439Z" fill="#263238" stroke="#263238" stroke-linecap="round" stroke-linejoin="round"/>
<path d="M276.498 313.955H71.1724V320.426H276.498V313.955Z" fill="#4C4C4C" stroke="#263238" stroke-linecap="round" stroke-linejoin="round"/>
<path d="M148.523 298.759L154.474 308.15H106.271L110.964 298.759H148.523Z" fill="white"/>
<path d="M139.446 301.577L145.397 310.961H97.1875L101.887 301.577H139.446Z" fill="white"/>
<path d="M80.7761 249.854L90.0359 292.968L126.08 298.056C126.08 298.056 136.913 293.664 137.792 293.664C138.67 293.664 140.222 296.314 140.888 297.199C141.554 298.085 142.652 299.395 143.084 300.076C143.516 300.757 143.743 304.051 143.084 304.937C142.425 305.822 141.093 308.252 139.761 308.033C138.428 307.813 139.761 304.278 139.761 304.278C139.761 304.278 132.023 307.367 129.593 307.367C127.163 307.367 122.273 305.171 122.273 305.171C122.273 305.171 81.2519 309.775 78.785 308.904C77.7792 308.593 76.8478 308.079 76.0483 307.395C75.2488 306.71 74.5983 305.868 74.1368 304.922C73.2584 303.158 59.1016 255.834 59.1016 255.834" fill="white"/>
<path d="M80.7761 249.854L90.0359 292.968L126.08 298.056C126.08 298.056 136.913 293.664 137.792 293.664C138.67 293.664 140.222 296.314 140.888 297.199C141.554 298.085 142.652 299.395 143.084 300.076C143.516 300.757 143.743 304.051 143.084 304.937C142.425 305.822 141.093 308.252 139.761 308.033C138.428 307.813 139.761 304.278 139.761 304.278C139.761 304.278 132.023 307.367 129.593 307.367C127.163 307.367 122.273 305.171 122.273 305.171C122.273 305.171 81.2519 309.775 78.785 308.904C77.7792 308.593 76.8478 308.079 76.0483 307.395C75.2488 306.71 74.5983 305.868 74.1368 304.922C73.2584 303.158 59.1016 255.834 59.1016 255.834" stroke="#263238" stroke-linecap="round" stroke-linejoin="round"/>
<path d="M140.917 297.192C140.251 296.306 138.721 293.656 137.821 293.656C136.92 293.656 126.109 298.048 126.109 298.048L105.569 295.12C106.908 298.858 107.248 302.879 106.557 306.789C115.129 305.91 122.346 305.09 122.346 305.09C122.346 305.09 127.214 307.286 129.666 307.286C132.118 307.286 139.812 304.249 139.812 304.249C139.812 304.249 138.487 307.784 139.812 308.004C141.137 308.223 142.469 305.808 143.135 304.907C143.801 304.007 143.574 300.706 143.135 300.047C142.696 299.388 141.576 298.056 140.917 297.192Z" fill="#FFBE9D" stroke="#263238" stroke-linecap="round" stroke-linejoin="round"/>
<path d="M10.0723 322.936H360.144" stroke="#263238" stroke-linecap="round" stroke-linejoin="round"/>
<path d="M202.369 308.443H241.282V307.191L183.352 298.524L184.757 299.776L202.369 308.443Z" fill="white" stroke="#263238" stroke-linecap="round" stroke-linejoin="round"/>
<path d="M202.369 307.191H241.282L220.727 298.729L184.757 298.524L202.369 307.191Z" fill="white" stroke="#263238" stroke-linecap="round" stroke-linejoin="round"/>
<path d="M208.708 300.449H212.353L210.494 299.673L206.922 299.703L208.708 300.449Z" fill="white" stroke="#263238" stroke-width="0.75" stroke-linecap="round" stroke-linejoin="round"/>
<path d="M216.108 303.546L217.975 304.329H221.62L219.754 303.546H216.108Z" fill="white" stroke="#263238" stroke-width="0.75" stroke-linecap="round" stroke-linejoin="round"/>
<path d="M222.865 302.375H218.832L219.9 302.821H223.948L222.865 302.375Z" fill="white" stroke="#263238" stroke-width="0.75" stroke-linecap="round" stroke-linejoin="round"/>
<path d="M214.367 302.821H218.019L216.951 302.375H213.305L214.367 302.821Z" fill="white" stroke="#263238" stroke-width="0.75" stroke-linecap="round" stroke-linejoin="round"/>
<path d="M217.097 301.65H221.101L219.959 301.181H215.977L217.097 301.65Z" fill="white" stroke="#263238" stroke-width="0.75" stroke-linecap="round" stroke-linejoin="round"/>
<path d="M203.174 300.449H206.827L205.078 299.717L201.498 299.754L203.174 300.449Z" fill="white" stroke="#263238" stroke-width="0.75" stroke-linecap="round" stroke-linejoin="round"/>
<path d="M210.443 301.181L211.563 301.65H215.216L214.096 301.181H210.443Z" fill="white" stroke="#263238" stroke-width="0.75" stroke-linecap="round" stroke-linejoin="round"/>
<path d="M228.326 306.349H232.52L229.387 305.061H225.244L228.326 306.349Z" fill="white" stroke="#263238" stroke-width="0.75" stroke-linecap="round" stroke-linejoin="round"/>
<path d="M219.71 305.061L222.792 306.349H226.444L223.363 305.061H219.71Z" fill="white" stroke="#263238" stroke-width="0.75" stroke-linecap="round" stroke-linejoin="round"/>
<path d="M214.176 305.061L217.258 306.349H220.911L217.829 305.061H214.176Z" fill="white" stroke="#263238" stroke-width="0.75" stroke-linecap="round" stroke-linejoin="round"/>
<path d="M212.295 305.061H205.165L207.712 306.349H215.376L212.295 305.061Z" fill="white" stroke="#263238" stroke-width="0.75" stroke-linecap="round" stroke-linejoin="round"/>
<path d="M214.242 300.449H218.188L216.175 299.622L212.339 299.659L214.242 300.449Z" fill="white" stroke="#263238" stroke-width="0.75" stroke-linecap="round" stroke-linejoin="round"/>
<path d="M221.643 303.546L223.509 304.329H227.623L225.72 303.546H221.643Z" fill="white" stroke="#263238" stroke-width="0.75" stroke-linecap="round" stroke-linejoin="round"/>
<path d="M216.094 304.329L214.22 303.546H210.575L212.441 304.329H216.094Z" fill="white" stroke="#263238" stroke-width="0.75" stroke-linecap="round" stroke-linejoin="round"/>
<path d="M201.293 300.449L199.653 299.769L194.8 299.805L196.066 300.449H201.293Z" fill="white" stroke="#263238" stroke-width="0.75" stroke-linecap="round" stroke-linejoin="round"/>
<path d="M211.416 302.375H207.771L208.832 302.821H212.485L211.416 302.375Z" fill="white" stroke="#263238" stroke-width="0.75" stroke-linecap="round" stroke-linejoin="round"/>
<path d="M204.909 301.181L206.029 301.65H209.682L208.562 301.181H204.909Z" fill="white" stroke="#263238" stroke-width="0.75" stroke-linecap="round" stroke-linejoin="round"/>
<path d="M206.951 302.821L205.89 302.375H199.865L200.751 302.821H206.951Z" fill="white" stroke="#263238" stroke-width="0.75" stroke-linecap="round" stroke-linejoin="round"/>
<path d="M198.431 301.65H204.148L203.028 301.181H197.508L198.431 301.65Z" fill="white" stroke="#263238" stroke-width="0.75" stroke-linecap="round" stroke-linejoin="round"/>
<path d="M208.694 303.546H202.186L203.731 304.329H210.56L208.694 303.546Z" fill="white" stroke="#263238" stroke-width="0.75" stroke-linecap="round" stroke-linejoin="round"/>
<path d="M202.369 307.191H200.963L174.048 268.381L175.38 267.978H192.999L202.369 307.191Z" fill="white" stroke="#263238" stroke-linecap="round" stroke-linejoin="round"/>
<path d="M200.963 307.191L183.352 298.524L173.982 267.978H191.594L200.963 307.191Z" fill="white" stroke="#263238" stroke-linecap="round" stroke-linejoin="round"/>
<path d="M354.961 322.936V275.883C354.961 275.548 354.828 275.225 354.59 274.988C354.353 274.75 354.031 274.617 353.695 274.617H336.552C336.216 274.617 335.894 274.75 335.656 274.988C335.419 275.225 335.285 275.548 335.285 275.883V322.936H354.961Z" fill="#263238" stroke="#263238" stroke-linecap="round" stroke-linejoin="round"/>
<path d="M348.762 322.936V275.883C348.763 275.717 348.731 275.552 348.667 275.398C348.604 275.244 348.511 275.104 348.393 274.986C348.275 274.868 348.135 274.775 347.981 274.711C347.827 274.648 347.662 274.616 347.495 274.617H330.359C330.193 274.616 330.027 274.648 329.873 274.711C329.719 274.775 329.579 274.868 329.462 274.986C329.344 275.104 329.251 275.244 329.187 275.398C329.124 275.552 329.092 275.717 329.093 275.883V322.936H348.762Z" fill="#4C4C4C" stroke="#263238" stroke-linecap="round" stroke-linejoin="round"/>
<path d="M280.078 247.921C280.078 247.921 272.524 252.957 271.572 256.054C270.62 259.15 264.984 276.776 264.406 278.131C263.827 279.485 259.179 286.651 259.179 286.651L234.394 287.808C234.394 287.808 223.165 285.297 222.191 285.297C221.218 285.297 211.541 291.687 210.765 293.429C209.989 295.172 208.254 297.69 209.023 298.268C209.791 298.846 210.962 297.88 210.962 297.88C210.962 297.88 211.35 300.588 216.189 299.622C221.027 298.656 225.873 295.172 225.873 295.172C225.873 295.172 231.876 298.1 234.196 297.492L234.394 297.433V300.01C234.394 300.01 267.121 301.752 268.476 301.364C269.83 300.976 276.996 292.266 276.996 292.266L285.319 247.335C285.319 247.335 284.916 243.075 280.078 247.921Z" fill="#47C2C9" stroke="#263238" stroke-linecap="round" stroke-linejoin="round"/>
<path d="M234.913 288.481L234.445 287.808H234.379C234.379 287.808 223.15 285.297 222.177 285.297C221.203 285.297 211.526 291.687 210.75 293.43C209.974 295.172 208.239 297.69 209.008 298.268C209.777 298.846 210.948 297.88 210.948 297.88C210.948 297.88 211.336 300.588 216.174 299.622C221.013 298.656 225.859 295.172 225.859 295.172C225.859 295.172 231.861 298.1 234.181 297.492L234.379 297.434V300.01L234.913 288.481Z" fill="#4C4C4C" stroke="#263238" stroke-linecap="round" stroke-linejoin="round"/>
<path d="M281 322.936H281.769C281.176 321.531 280.656 320.243 280.444 319.54C279.829 317.476 272.392 290.597 271.557 286.673C270.723 282.75 271.14 277.157 273.212 269.303C275.283 261.448 280.078 247.921 280.078 247.921L273.212 257.525C273.212 257.525 267.421 279.851 267.421 282.742C267.421 285.634 270.313 300.31 273.212 307.55C274.888 311.744 278.372 318.222 281 322.936Z" fill="#47C2C9" stroke="#263238" stroke-linecap="round" stroke-linejoin="round"/>
<path d="M283.174 242.497C283.174 242.497 276.015 253.726 274.076 261.478C272.136 269.23 270.591 276.001 270.591 282.969C270.591 289.938 278.336 309.695 279.5 312.213C280.664 314.731 293.247 315.499 297.119 303.495C300.991 291.49 302.733 256.83 300.413 248.887C298.093 240.945 288.02 237.27 283.174 242.497Z" fill="white" stroke="#263238" stroke-linecap="round" stroke-linejoin="round"/>
<path d="M281.161 240.872C280.686 241.604 274.251 245.161 274.251 245.161L274.01 251.83L275.92 248.258L278.892 257.108L282.091 240.63L281.161 240.872Z" fill="#808080" stroke="#263238" stroke-linecap="round" stroke-linejoin="round"/>
<path d="M281.878 322.936H334.582C332.848 318.296 326.143 300.318 325.938 299.512C325.696 298.553 320.221 256.141 314.496 248.272C308.772 240.403 295.464 237.549 292.58 239.218C292.58 239.218 283.064 258.52 279.47 267.575C275.876 276.63 273.512 294.498 273.512 297.119C273.512 299.739 278.519 316.151 278.519 316.151L281.878 322.936Z" fill="#47C2C9" stroke="#263238" stroke-linecap="round" stroke-linejoin="round"/>
<path d="M319.84 308.758L297.053 315.543L298.509 318.449L311.114 314.577" stroke="#263238" stroke-linecap="round" stroke-linejoin="round"/>
<path d="M269.896 207.324C269.896 207.324 268.066 212.975 268.022 214.139C268.004 215.006 268.031 215.874 268.102 216.738C268.125 217.201 268.013 217.661 267.78 218.063C267.4 218.678 263.117 222.799 263.622 223.626C264.127 224.453 267.085 227.74 267.085 227.74C267.085 227.74 269.156 237.614 271.931 238.756C274.705 239.898 278.621 239.196 278.621 239.196L280.034 243.053L297.338 237.38L297.075 231.693C297.075 231.693 298.81 221.562 296.819 214.286C294.828 207.01 277.516 199.104 269.896 207.324Z" fill="#FFBE9D" stroke="#263238" stroke-linecap="round" stroke-linejoin="round"/>
<path d="M270.452 218.934C270.247 219.776 269.815 220.398 269.493 220.317C269.171 220.237 269.069 219.49 269.273 218.648C269.478 217.807 269.903 217.184 270.232 217.265C270.562 217.345 270.65 218.092 270.452 218.934Z" fill="#263238"/>
<path d="M269.222 215.098C269.572 215.002 269.937 214.975 270.296 215.02C270.656 215.065 271.003 215.181 271.318 215.36C271.633 215.54 271.91 215.78 272.131 216.066C272.353 216.353 272.516 216.681 272.611 217.031" fill="white"/>
<path d="M269.222 215.098C269.572 215.002 269.937 214.975 270.296 215.02C270.656 215.065 271.003 215.181 271.318 215.36C271.633 215.54 271.91 215.78 272.131 216.066C272.353 216.353 272.516 216.681 272.611 217.031" stroke="#263238" stroke-linecap="round" stroke-linejoin="round"/>
<path d="M267.531 229.116C267.531 229.116 269.464 231.056 272.853 229.848L267.531 229.116Z" fill="white"/>
<path d="M267.531 229.116C267.531 229.116 269.464 231.056 272.853 229.848" stroke="#263238" stroke-linecap="round" stroke-linejoin="round"/>
<path d="M280.502 193.475C279.952 192.125 279.075 190.932 277.949 190.006C276.823 189.079 275.484 188.448 274.053 188.168C269.12 187.216 265.591 194.097 266.828 196.74C268.066 199.382 268.622 199.982 266.25 200.114C263.879 200.246 259.333 206.417 263.322 210.201C267.312 213.986 272.15 208.576 272.392 210.509C272.633 212.441 271.982 214.169 274.302 214.249C276.623 214.33 280.436 214.088 279.836 215.589C279.236 217.089 279.104 220.566 281.3 221.101C283.496 221.635 284.872 218.905 286.424 219.293C287.976 219.68 290.084 224.621 288.701 227.345C287.317 230.068 286.402 230.075 286.241 230.741C286.08 231.407 290.377 235.953 294.791 235.133C299.205 234.313 304.944 232.893 305.617 228.135C306.291 223.377 304.885 222.338 306.715 220.669C308.545 219 310.295 218.473 309.775 215.779C309.255 213.085 307.579 212.207 308.121 209.989C308.662 207.771 306.459 197.64 296.972 193.248C287.486 188.856 280.502 193.475 280.502 193.475Z" fill="#263238" stroke="#263238" stroke-linecap="round" stroke-linejoin="round"/>
<path d="M299.161 232.029L277.348 244.686L278.914 257.108L302.192 238.603L299.161 232.029Z" fill="white" stroke="#263238" stroke-linecap="round" stroke-linejoin="round"/>
<path d="M242.087 290.911C242.087 290.911 237.695 289.279 234.914 288.481C230.141 287.112 225.668 285.077 224 285.553C222.331 286.029 214.205 291.621 214.205 291.621C214.205 291.621 211.343 298.532 211.585 299.49C211.826 300.449 213.569 298.905 213.569 298.905C213.569 298.905 212.536 300.2 213.488 301.159C214.44 302.118 215.399 300.2 215.399 300.2C215.399 300.2 215.157 302.587 216.584 302.345C216.951 302.331 217.303 302.196 217.586 301.962C217.869 301.728 218.068 301.407 218.151 301.05C218.151 301.05 218.253 302.345 219.446 302.345C220.64 302.345 223.26 297.346 223.26 297.346L227.784 297.58C227.784 297.58 231.363 299.49 233.508 299.725C235.653 299.959 238.274 298.531 238.274 298.531L241.128 299.263L243.515 292.353L242.087 290.911Z" fill="#FFBE9D" stroke="#263238" stroke-linecap="round" stroke-linejoin="round"/>
<path d="M213.568 298.905C213.568 298.905 216.006 293.049 216.394 292.668C216.782 292.288 221.657 289.55 221.657 289.55" stroke="#263238" stroke-linecap="round" stroke-linejoin="round"/>
<path d="M215.398 300.2C215.398 300.2 218.326 294.227 218.641 293.935C218.956 293.642 222.631 291.797 222.631 291.797" stroke="#263238" stroke-linecap="round" stroke-linejoin="round"/>
<path d="M218.136 301.05C218.136 301.05 220.962 295.596 221.452 295.303C221.943 295.011 223.202 294.33 223.202 294.33" stroke="#263238" stroke-linecap="round" stroke-linejoin="round"/>
<path d="M305.244 247.782C305.244 247.782 290.231 257.547 290.472 261.361C290.714 265.174 291.9 265.174 291.9 265.174L284.272 293.766C284.272 293.766 281.893 291.863 281.652 294.249L281.418 296.628L241.619 289.96L237.571 299.966C237.571 299.966 254.012 306.401 265.453 310.448C276.894 314.496 288.803 319.028 289.989 316.883C291.175 314.738 314.76 279.47 316.224 276.85C317.688 274.229 317.688 269.464 317.688 269.464" fill="#47C2C9"/>
<path d="M305.244 247.782C305.244 247.782 290.231 257.547 290.472 261.361C290.714 265.174 291.9 265.174 291.9 265.174L284.272 293.766C284.272 293.766 281.893 291.863 281.652 294.249L281.418 296.628L241.619 289.96L237.571 299.966C237.571 299.966 254.012 306.401 265.453 310.448C276.894 314.496 288.803 319.028 289.989 316.883C291.175 314.738 314.76 279.47 316.224 276.85C317.688 274.229 317.688 269.464 317.688 269.464" stroke="#263238" stroke-linecap="round" stroke-linejoin="round"/>
<path d="M291.885 265.174C291.885 265.174 296.409 255.885 307.374 255.168" stroke="#263238" stroke-linecap="round" stroke-linejoin="round"/>
</svg>
