<svg width="431" height="431" viewBox="0 0 431 431" fill="none" xmlns="http://www.w3.org/2000/svg">
<g filter="url(#filter0_d_70_5817)">
<path d="M145.609 369.35C171.317 369.35 192.157 364.811 192.157 359.213C192.157 353.614 171.317 349.076 145.609 349.076C119.901 349.076 99.061 353.614 99.061 359.213C99.061 364.811 119.901 369.35 145.609 369.35Z" fill="#47C2C9"/>
<path opacity="0.3" d="M145.609 369.35C171.317 369.35 192.157 364.811 192.157 359.213C192.157 353.614 171.317 349.076 145.609 349.076C119.901 349.076 99.061 353.614 99.061 359.213C99.061 364.811 119.901 369.35 145.609 369.35Z" fill="white"/>
<path d="M75.8558 229.645C75.8558 229.645 73.106 232.792 71.5458 239.076C69.9856 245.36 77.0453 250.083 74.6835 256.773C72.3216 263.462 68.003 266.599 69.1839 273.28C70.3648 279.96 75.4765 280.357 71.5458 287.83C67.6151 295.304 64.0722 298.045 65.2532 305.148C66.4341 312.251 81.3726 321.267 81.3726 321.267C81.3726 321.267 91.5873 309.863 91.9838 302.398C92.3803 294.933 82.9414 290.21 84.5189 283.529C86.0963 276.849 90.0184 271.34 89.6219 265.048C89.2254 258.755 81.7605 254.04 81.7605 249.325C81.7605 244.61 84.9068 241.86 84.9068 236.395C84.9068 230.93 77.8298 226.172 77.8298 223.034C77.9811 220.607 78.5134 218.219 79.4072 215.957C79.4072 215.957 71.9337 220.603 75.8558 229.645Z" fill="#47C2C9"/>
<path opacity="0.5" d="M75.8558 229.645C75.8558 229.645 73.106 232.792 71.5458 239.076C69.9856 245.36 77.0453 250.083 74.6835 256.773C72.3216 263.462 68.003 266.599 69.1839 273.28C70.3648 279.96 75.4765 280.357 71.5458 287.83C67.6151 295.304 64.0722 298.045 65.2532 305.148C66.4341 312.251 81.3726 321.267 81.3726 321.267C81.3726 321.267 91.5873 309.863 91.9838 302.398C92.3803 294.933 82.9414 290.21 84.5189 283.529C86.0963 276.849 90.0184 271.34 89.6219 265.048C89.2254 258.755 81.7605 254.04 81.7605 249.325C81.7605 244.61 84.9068 241.86 84.9068 236.395C84.9068 230.93 77.8298 226.172 77.8298 223.034C77.9811 220.607 78.5134 218.219 79.4072 215.957C79.4072 215.957 71.9337 220.603 75.8558 229.645Z" fill="white"/>
<path d="M79.7952 318.88L79.0107 233.973" stroke="#263238" stroke-linecap="round" stroke-linejoin="round"/>
<path d="M87.7256 299.45L80.028 307.148L71.2959 299.45" stroke="#263238" stroke-linecap="round" stroke-linejoin="round"/>
<path d="M85.1569 265.548L79.5108 274.28L74.6318 266.324" stroke="#263238" stroke-linecap="round" stroke-linejoin="round"/>
<path d="M75.916 239.877L79.252 243.98L82.0793 239.102" stroke="#263238" stroke-linecap="round" stroke-linejoin="round"/>
<path d="M69.9683 318.88H89.6477V333.353C89.6477 335.353 88.8531 337.272 87.4386 338.686C86.0241 340.101 84.1056 340.895 82.1052 340.895H77.5366C75.5362 340.895 73.6178 340.101 72.2033 338.686C70.7888 337.272 69.9941 335.353 69.9941 333.353V318.88H69.9683Z" fill="#263238"/>
<path d="M218.569 91.8289V234.059H307.277V91.8289H218.569ZM261.617 95.2769V126.714H221.801V95.2769H261.617ZM221.801 161.194V130.162H261.617V161.194H221.801ZM261.617 164.642V196.389H221.801V164.642H261.617ZM221.801 199.837H261.617V230.594H221.801V199.837ZM304.036 230.594H264.858V199.863H303.786V196.415H264.858V164.642H303.786V161.194H264.858V130.162H303.786V126.714H264.858V95.2769H304.036V230.594Z" fill="#47C2C9"/>
<path d="M59.0127 91.8289V234.059H147.73V91.8289H59.0127ZM102.061 95.2769V126.714H62.2538V95.2769H102.061ZM62.2538 161.194V130.162H102.061V161.194H62.2538ZM102.061 164.642V196.389H62.2538V164.642H102.061ZM62.2538 199.863H102.061V230.619H62.2538V199.863ZM144.489 230.619H105.302V199.863H144.239V196.415H105.302V164.642H144.239V161.194H105.302V130.162H144.239V126.714H105.302V95.2769H144.489V230.619Z" fill="#47C2C9"/>
<path d="M242.506 340.895H187.39V270.84C187.39 266.174 189.244 261.699 192.543 258.4C195.842 255.101 200.317 253.247 204.983 253.247H242.506V340.895Z" fill="#47C2C9"/>
<path d="M242.937 341.352H186.959V270.84C186.966 266.061 188.868 261.479 192.249 258.1C195.629 254.721 200.212 252.821 204.992 252.816H242.92L242.937 341.352ZM187.821 340.49H242.075V253.678H205.009C200.458 253.683 196.095 255.492 192.876 258.709C189.657 261.927 187.845 266.289 187.838 270.84L187.821 340.49Z" fill="#47C2C9"/>
<path opacity="0.5" d="M242.937 341.352H186.959V270.84C186.966 266.061 188.868 261.479 192.249 258.1C195.629 254.721 200.212 252.821 204.992 252.816H242.92L242.937 341.352ZM187.821 340.49H242.075V253.678H205.009C200.458 253.683 196.095 255.492 192.876 258.709C189.657 261.927 187.845 266.289 187.838 270.84L187.821 340.49Z" fill="white"/>
<path d="M220.301 252.816C215.521 252.821 210.939 254.721 207.558 258.1C204.177 261.479 202.275 266.061 202.268 270.84V341.352H258.246V252.816H220.301Z" fill="#47C2C9"/>
<path opacity="0.5" d="M220.301 252.816C215.521 252.821 210.939 254.721 207.558 258.1C204.177 261.479 202.275 266.061 202.268 270.84V341.352H258.246V252.816H220.301Z" fill="white"/>
<path d="M315.578 208.32H271.09C266.485 208.324 262.069 210.156 258.813 213.412C255.557 216.668 253.725 221.084 253.721 225.689V287.537H332.947V225.689C332.943 221.084 331.111 216.668 327.855 213.412C324.598 210.156 320.183 208.324 315.578 208.32Z" fill="#47C2C9"/>
<path opacity="0.5" d="M315.578 208.32H271.09C266.485 208.324 262.069 210.156 258.813 213.412C255.557 216.668 253.725 221.084 253.721 225.689V287.537H332.947V225.689C332.943 221.084 331.111 216.668 327.855 213.412C324.598 210.156 320.183 208.324 315.578 208.32Z" fill="white"/>
<path d="M320.543 287.115H242.187V225.689C242.187 221.199 243.971 216.893 247.146 213.718C250.321 210.543 254.627 208.759 259.117 208.759H303.631C308.118 208.764 312.419 210.549 315.59 213.724C318.762 216.898 320.543 221.202 320.543 225.689V287.115Z" fill="#47C2C9"/>
<path d="M320.991 287.537H241.773V225.689C241.778 221.085 243.608 216.671 246.863 213.415C250.117 210.159 254.53 208.326 259.134 208.32H303.631C308.234 208.326 312.647 210.159 315.902 213.415C319.156 216.671 320.987 221.085 320.991 225.689V287.537ZM242.635 286.675H320.129V225.689C320.125 221.314 318.385 217.119 315.292 214.025C312.2 210.93 308.006 209.188 303.631 209.182H259.134C254.759 209.188 250.565 210.93 247.472 214.025C244.379 217.119 242.64 221.314 242.635 225.689V286.675Z" fill="#47C2C9"/>
<path opacity="0.5" d="M320.991 287.537H241.773V225.689C241.778 221.085 243.608 216.671 246.863 213.415C250.117 210.159 254.53 208.326 259.134 208.32H303.631C308.234 208.326 312.647 210.159 315.902 213.415C319.156 216.671 320.987 221.085 320.991 225.689V287.537ZM242.635 286.675H320.129V225.689C320.125 221.314 318.385 217.119 315.292 214.025C312.2 210.93 308.006 209.188 303.631 209.182H259.134C254.759 209.188 250.565 210.93 247.472 214.025C244.379 217.119 242.64 221.314 242.635 225.689V286.675Z" fill="white"/>
<path d="M312.026 340.904H207.095V291.244C207.095 289.621 207.74 288.064 208.888 286.916C210.035 285.769 211.592 285.124 213.215 285.124H312.026V340.904Z" fill="#47C2C9"/>
<path opacity="0.5" d="M312.458 341.352H206.682V291.235C206.684 289.5 207.374 287.836 208.6 286.609C209.826 285.381 211.489 284.689 213.224 284.684H312.458V341.352ZM207.544 340.49H311.596V285.546H213.224C211.717 285.548 210.272 286.149 209.207 287.216C208.142 288.282 207.544 289.728 207.544 291.235V340.49Z" fill="white"/>
<mask id="mask0_70_5817" style="mask-type:luminance" maskUnits="userSpaceOnUse" x="207" y="285" width="106" height="56">
<mask id="mask1_70_5817" style="mask-type:luminance" maskUnits="userSpaceOnUse" x="207" y="285" width="106" height="56">
<path d="M312.026 340.904H207.095V291.244C207.095 289.621 207.74 288.064 208.888 286.916C210.035 285.769 211.592 285.124 213.215 285.124H312.026V340.904Z" fill="white"/>
</mask>
<g mask="url(#mask1_70_5817)">
<path d="M312.458 341.352H206.682V291.235C206.684 289.5 207.374 287.836 208.6 286.609C209.826 285.381 211.489 284.689 213.224 284.684H312.458V341.352ZM207.544 340.49H311.596V285.546H213.224C211.717 285.548 210.272 286.149 209.207 287.216C208.142 288.282 207.544 289.728 207.544 291.235V340.49Z" fill="white"/>
</g>
</mask>
<g mask="url(#mask0_70_5817)">
<path opacity="0.5" d="M312.026 340.904H207.095V291.244C207.095 289.621 207.74 288.064 208.888 286.916C210.035 285.769 211.592 285.124 213.215 285.124H312.026V340.904Z" fill="white"/>
</g>
<path opacity="0.5" d="M261.85 303.933H208.656V304.795H261.85V303.933Z" fill="white"/>
<path d="M317.242 340.895H262.074V270.84C262.074 266.174 263.927 261.699 267.227 258.4C270.526 255.101 275.001 253.247 279.667 253.247H317.242V340.895Z" fill="#47C2C9"/>
<path d="M317.63 341.352H261.651V270.84C261.658 266.061 263.561 261.479 266.941 258.1C270.322 254.721 274.905 252.821 279.684 252.816H317.612L317.63 341.352ZM262.513 340.49H316.768V253.678H279.702C275.15 253.683 270.787 255.492 267.568 258.709C264.349 261.927 262.537 266.289 262.531 270.84L262.513 340.49Z" fill="#47C2C9"/>
<path opacity="0.5" d="M317.63 341.352H261.651V270.84C261.658 266.061 263.561 261.479 266.941 258.1C270.322 254.721 274.905 252.821 279.684 252.816H317.612L317.63 341.352ZM262.513 340.49H316.768V253.678H279.702C275.15 253.683 270.787 255.492 267.568 258.709C264.349 261.927 262.537 266.289 262.531 270.84L262.513 340.49Z" fill="white"/>
<path d="M294.994 252.816C290.215 252.821 285.633 254.721 282.254 258.1C278.874 261.48 276.974 266.061 276.969 270.84V341.352H332.948V252.816H294.994Z" fill="#47C2C9"/>
<path opacity="0.5" d="M294.994 252.816C290.215 252.821 285.633 254.721 282.254 258.1C278.874 261.48 276.974 266.061 276.969 270.84V341.352H332.948V252.816H294.994Z" fill="white"/>
<path d="M149.747 342.593C149.747 342.593 156.289 347.67 159.099 348.282C161.91 348.894 167.504 348.162 167.099 350.325C166.694 352.489 163.703 353.773 160.694 354.506C157.686 355.239 145.376 353.429 142.79 353.463C140.204 353.497 138.48 353.739 137.618 351.601C136.756 349.463 138.153 343.843 138.153 343.843L149.747 342.593Z" fill="#263238" stroke="#263238" stroke-linecap="round" stroke-linejoin="round"/>
<path d="M149.747 342.593L148.35 342.74L147.979 344.265C147.979 344.265 150.565 346.851 152.91 347.645C153.423 347.8 153.97 347.801 154.484 347.648C154.997 347.494 155.454 347.193 155.798 346.783C153.707 345.496 151.687 344.097 149.747 342.593Z" fill="white" stroke="#263238" stroke-linecap="round" stroke-linejoin="round"/>
<path d="M160.694 354.506C163.702 353.816 166.728 352.48 167.099 350.325C167.12 350.206 167.12 350.083 167.099 349.963C165.403 350.897 163.6 351.621 161.728 352.118C157.651 353.256 152.462 352.256 145.988 351.48C143.15 351.126 140.288 350.991 137.429 351.075C137.464 351.255 137.516 351.431 137.584 351.601C138.446 353.739 140.17 353.506 142.756 353.463C145.342 353.42 157.686 355.196 160.694 354.506Z" fill="white" stroke="#263238" stroke-linecap="round" stroke-linejoin="round"/>
<path d="M114.862 221.965C114.862 221.965 114.724 242.868 114.62 250.842C114.517 258.815 116.551 288.115 116.137 289.192C115.724 290.27 113.103 309.415 114.456 314.139C115.81 318.862 118.094 343.938 118.094 343.938L128.869 343.567C128.869 343.567 130.076 307.131 131.334 304.527C132.593 301.924 133.058 289.201 133.653 285.563C134.248 281.926 136.937 258.79 136.937 258.79C136.937 258.79 140.385 286.546 139.799 293.666C139.213 300.786 136.118 307.51 137.067 313.742C138.015 319.974 138.136 343.912 138.136 343.912L148.867 340.74C148.867 340.74 151.083 329.724 151.048 327.353C151.014 324.983 150.729 319.811 151.117 316.785C151.505 313.759 156.996 290.408 157.151 283.512C157.306 276.616 157.375 223.379 157.375 223.379C157.375 223.379 134.575 229.439 114.862 221.965Z" fill="#263238" stroke="#263238" stroke-linecap="round" stroke-linejoin="round"/>
<path d="M157.341 223.775L155.677 223.698C150.108 224.922 131.412 228.24 114.861 221.974C114.861 221.974 114.861 224.904 114.81 228.99C116.947 230.99 121.585 233.49 131.636 234.662C143.833 236.084 152.858 233.654 157.453 231.904C157.401 227.826 157.358 224.861 157.341 223.775Z" fill="white" stroke="#263238" stroke-linecap="round" stroke-linejoin="round"/>
<path d="M157.892 171.141C157.892 171.141 165.038 173.624 166.357 175.115C167.676 176.606 165.366 196.665 165.383 197.975C165.4 199.286 167.547 214.103 166.504 216.276C165.461 218.448 160.099 220.672 157.746 220.491C155.393 220.31 155.591 205.225 155.936 199.398C156.281 193.571 158.091 185.33 158.048 181.882C158.005 178.434 157.246 171.365 157.892 171.141Z" fill="#47C2C9" stroke="#263238" stroke-linecap="round" stroke-linejoin="round"/>
<path d="M171.029 214.638C170.137 213.64 169.033 212.854 167.798 212.337C166.564 211.819 165.229 211.584 163.892 211.647C161.426 211.621 159.049 212.567 157.274 214.28C155.5 215.993 154.471 218.336 154.41 220.801C154.212 226.465 158.194 227.697 161.883 227.646C165.573 227.594 173.71 224.12 171.029 214.638Z" fill="#47C2C9" stroke="#263238" stroke-linecap="round" stroke-linejoin="round"/>
<path d="M174.055 217.034C174.055 217.034 168.021 215.396 163.927 216.741C159.832 218.086 157.712 219.413 157.332 223.301C156.953 227.189 163.841 226.223 167.504 225.965C171.168 225.706 179.675 218.207 179.675 218.207L174.055 217.034Z" fill="#FFBE9D" stroke="#263238" stroke-linecap="round" stroke-linejoin="round"/>
<path d="M170.394 220.939C169.532 218.586 172.273 216.629 172.273 216.629L170.549 213.422C170.549 213.422 171.817 211.896 173.135 213.819C174.454 215.741 175.558 217.267 176.411 216.577C177.264 215.887 175.713 212.922 175.713 212.922C175.811 212.752 175.953 212.611 176.123 212.513C176.293 212.415 176.486 212.363 176.683 212.363C176.879 212.363 177.072 212.415 177.242 212.513C177.412 212.611 177.554 212.752 177.652 212.922C178.747 214.207 179.204 216.137 180.497 216.37C181.79 216.603 184.962 211.776 185.833 212.414C186.703 213.052 185.833 214.569 184.798 215.663C184.322 216.219 183.735 216.668 183.074 216.982C183.074 216.982 188.246 214.103 190.565 212.991C192.884 211.879 193.772 211.267 194.22 212.508C194.668 213.75 189.1 215.819 186.1 217.155C183.1 218.491 177.325 221.37 174.963 222.266C173.939 222.725 172.852 223.03 171.739 223.171" fill="#FFBE9D"/>
<path d="M170.394 220.939C169.532 218.586 172.273 216.629 172.273 216.629L170.549 213.422C170.549 213.422 171.817 211.896 173.135 213.819C174.454 215.741 175.558 217.267 176.411 216.577C177.264 215.887 175.713 212.922 175.713 212.922C175.811 212.752 175.953 212.611 176.123 212.513C176.293 212.415 176.486 212.363 176.683 212.363C176.879 212.363 177.072 212.415 177.242 212.513C177.412 212.611 177.554 212.752 177.652 212.922C178.747 214.207 179.204 216.137 180.497 216.37C181.79 216.603 184.962 211.776 185.833 212.414C186.703 213.052 185.833 214.569 184.798 215.663C184.322 216.219 183.735 216.668 183.074 216.982C183.074 216.982 188.246 214.103 190.565 212.991C192.884 211.879 193.772 211.267 194.22 212.508C194.668 213.75 189.1 215.819 186.1 217.155C183.1 218.491 177.325 221.37 174.963 222.266C173.939 222.725 172.852 223.03 171.739 223.171" stroke="#263238" stroke-linecap="round" stroke-linejoin="round"/>
<path d="M145.463 237.481C145.463 237.481 139.679 239.714 143.816 242.653C147.954 245.592 144.764 248.687 141.118 250.023" stroke="white" stroke-linecap="round" stroke-linejoin="round"/>
<path d="M130.567 235.533C130.567 235.533 127.541 250.23 116.103 249.325" stroke="white" stroke-linecap="round" stroke-linejoin="round"/>
<path d="M137.153 259.583L142.911 254.755" stroke="white" stroke-linecap="round" stroke-linejoin="round"/>
<path d="M118.034 233.335L117.93 225.801L119.87 226.628L120.197 234.817" fill="#263238"/>
<path d="M118.034 233.335L117.93 225.801L119.87 226.628L120.197 234.817" stroke="#263238" stroke-linecap="round" stroke-linejoin="round"/>
<path d="M153.971 234.619L153.867 227.077L155.583 226.62L156.333 233.964" fill="#263238"/>
<path d="M153.971 234.619L153.867 227.077L155.583 226.62L156.333 233.964" stroke="#263238" stroke-linecap="round" stroke-linejoin="round"/>
<path d="M131.937 236.55L131.713 229.809L133.429 229.352L134.179 236.705" fill="#263238"/>
<path d="M131.937 236.55L131.713 229.809L133.429 229.352L134.179 236.705" stroke="#263238" stroke-linecap="round" stroke-linejoin="round"/>
<path d="M133.351 163.151C133.351 163.151 113.784 168.599 113.784 170.323C113.784 172.047 113.586 217.31 113.638 221.043C113.689 224.775 118.758 227.439 125.542 229.214C132.326 230.99 147.954 230.473 151.255 229.275C154.557 228.077 159.013 226.87 159.53 224.706C160.048 222.542 159.772 201.286 159.867 197.691C159.961 194.096 163.539 183.132 162.332 179.124C161.125 175.115 158.78 171.84 156.298 170.297C153.815 168.754 147.307 164.107 142.833 163.159C139.696 162.622 136.49 162.62 133.351 163.151Z" fill="#47C2C9" stroke="#263238" stroke-linecap="round" stroke-linejoin="round"/>
<path d="M147.402 175.305C147.402 175.305 149.876 189.037 148.703 195.64C147.841 200.225 148.703 215.155 149.565 218.181C150.427 221.206 151.212 227.025 149.195 227.818" stroke="#263238" stroke-linecap="round" stroke-linejoin="round"/>
<path d="M137.661 155.582C137.661 155.582 135.454 155.496 134.739 156.729C134.024 157.961 129.946 164.401 129.946 164.401L135.273 177.072L141.445 171.348L147.385 175.305L149.764 170.004L153.513 175.219C153.513 175.219 151.626 163.358 150.358 160.306C149.091 157.255 142.79 153.798 141.075 154.186C139.881 154.502 138.734 154.971 137.661 155.582Z" fill="#47C2C9" stroke="#263238" stroke-linecap="round" stroke-linejoin="round"/>
<path d="M137.692 146.609C137.692 146.609 136.942 154.367 136.985 157.53C137.028 160.694 140.571 168.392 141.571 169.598C142.571 170.805 147.415 175.27 147.415 175.27C147.415 175.27 148.053 168.521 148.277 166.064C148.502 163.608 148.683 160.297 148.683 160.297C148.683 160.297 143.511 155.987 141.838 153.039C140.166 150.091 137.692 146.609 137.692 146.609Z" fill="#FFBE9D" stroke="#263238" stroke-linecap="round" stroke-linejoin="round"/>
<path d="M158.608 128.576C157.694 124.869 153.66 121.189 148.971 119.62C143.678 117.896 134.317 121.18 130.326 127.731C126.335 134.282 131.774 143.532 131.92 145.118C132.067 146.704 128.766 147.497 128.783 148.841C128.814 150.244 129.347 151.589 130.285 152.633C131.223 153.676 132.503 154.35 133.894 154.531C138.067 155.091 139.273 153.6 139.635 152.858C139.997 152.117 149.747 140.092 151.203 138.963C151.746 138.549 152.522 138.041 153.281 137.575C153.893 140.308 156.169 143.247 156.901 143.049C157.884 142.79 162.875 140.765 163.297 135.851C163.59 131.989 160.082 129.481 158.608 128.576Z" fill="#263238" stroke="#263238" stroke-linecap="round" stroke-linejoin="round"/>
<path d="M156.427 133.696C156.836 132.571 156.971 131.366 156.821 130.178C156.671 128.991 156.241 127.857 155.565 126.869C153.238 123.602 150.065 132.041 150.065 132.041" stroke="white" stroke-linecap="round" stroke-linejoin="round"/>
<path d="M133.489 140.204C133.045 140.137 132.609 140.025 132.188 139.868" stroke="white" stroke-linecap="round" stroke-linejoin="round"/>
<path d="M148.988 127.214C148.988 127.214 146.023 132.326 143.04 136.42C142.233 137.499 141.21 138.397 140.036 139.057C138.862 139.718 137.563 140.126 136.222 140.256" stroke="white" stroke-linecap="round" stroke-linejoin="round"/>
<path d="M148.402 123.076C149.246 122.864 150.121 122.797 150.988 122.878" stroke="white" stroke-linecap="round" stroke-linejoin="round"/>
<path d="M130.067 133.308C133.266 133.445 136.405 132.409 138.894 130.395C141.385 128.317 143.377 125.757 145.79 124.223" stroke="white" stroke-linecap="round" stroke-linejoin="round"/>
<path d="M156.961 135.463C156.961 135.463 161.271 134.601 160.797 137.687C160.323 140.773 159.073 140.756 159.073 140.756" stroke="white" stroke-linecap="round" stroke-linejoin="round"/>
<path d="M157.815 141.368C157.825 141.201 157.825 141.034 157.815 140.868C157.698 138.994 157.085 137.186 156.039 135.627C154.16 132.955 150.6 132.394 149.143 133.903C147.687 135.411 146.066 141.428 141.799 143.204C137.532 144.98 135.532 142.342 135.567 144.514C135.601 146.686 137.162 153.445 139.653 156.229C142.144 159.013 145.385 162.771 147.721 163.228C150.057 163.685 153.755 163.228 153.962 162.366C154.169 161.504 156.307 154.608 157.358 151.29C158.41 147.971 157.815 141.368 157.815 141.368Z" fill="#FFBE9D" stroke="#263238" stroke-linecap="round" stroke-linejoin="round"/>
<path d="M136.933 144.79C136.933 144.79 136.64 141.851 134.563 142.006C132.485 142.161 132.658 146.075 134.037 148.505C135.416 150.936 137.726 149.066 137.726 149.066" fill="#FFBE9D"/>
<path d="M136.933 144.79C136.933 144.79 136.64 141.851 134.563 142.006C132.485 142.161 132.658 146.075 134.037 148.505C135.416 150.936 137.726 149.066 137.726 149.066" stroke="#263238" stroke-linecap="round" stroke-linejoin="round"/>
<path d="M148.531 143.419C148.531 143.419 145.575 142.601 144.221 144.454" stroke="#263238" stroke-linecap="round" stroke-linejoin="round"/>
<path d="M153.057 143.092C153.057 143.092 155.729 141.213 156.746 143.894L153.057 143.092Z" fill="white"/>
<path d="M153.057 143.092C153.057 143.092 155.729 141.213 156.746 143.894" stroke="#263238" stroke-linecap="round" stroke-linejoin="round"/>
<path d="M152.479 145.324C152.479 145.324 153.048 151.074 152.816 151.695C152.583 152.315 150.505 152.953 149.264 152.108" stroke="#263238" stroke-linecap="round" stroke-linejoin="round"/>
<path d="M143.756 152.927C143.756 152.927 144.773 155.358 148.454 155.436" stroke="#263238" stroke-linecap="round" stroke-linejoin="round"/>
<path d="M147.842 146.98C147.842 147.73 147.532 148.333 147.126 148.342C146.721 148.35 146.385 147.747 146.368 147.005C146.351 146.264 146.678 145.652 147.092 145.644C147.506 145.635 147.833 146.238 147.842 146.98Z" fill="#263238"/>
<path d="M154.824 146.393C154.824 147.135 154.513 147.747 154.108 147.747C153.703 147.747 153.358 147.161 153.35 146.411C153.341 145.661 153.66 145.057 154.065 145.057C154.47 145.057 154.815 145.678 154.824 146.393Z" fill="#263238"/>
<path d="M117.37 170.676C116.552 170.084 115.565 169.772 114.556 169.786C113.546 169.8 112.568 170.139 111.767 170.753C108.991 172.952 107.509 205.294 107.138 209.612C106.767 213.931 106.379 216.508 106.379 216.508L122.688 211.974L123.912 206.802C123.912 206.802 126.283 206.802 126.042 205.078C125.8 203.354 125.654 192.803 125.602 189.14C125.55 185.476 120.275 178.434 120.275 178.434" fill="#47C2C9"/>
<path d="M117.37 170.676C116.552 170.084 115.565 169.772 114.556 169.786C113.546 169.8 112.568 170.139 111.767 170.753C108.991 172.952 107.509 205.294 107.138 209.612C106.767 213.931 106.379 216.508 106.379 216.508L122.688 211.974L123.912 206.802C123.912 206.802 126.283 206.802 126.042 205.078C125.8 203.354 125.654 192.803 125.602 189.14C125.55 185.476 120.275 178.434 120.275 178.434" stroke="#263238" stroke-linecap="round" stroke-linejoin="round"/>
<path d="M122.223 205.897C122.223 205.897 118.654 204.173 111.319 205.285L122.223 205.897Z" fill="white"/>
<path d="M122.223 205.897C122.223 205.897 118.654 204.173 111.319 205.285" stroke="#263238" stroke-linecap="round" stroke-linejoin="round"/>
<path d="M116.37 202.854C116.884 202.915 117.391 203.019 117.887 203.165L116.37 202.854Z" fill="white"/>
<path d="M116.37 202.854C116.884 202.915 117.391 203.019 117.887 203.165" stroke="#263238" stroke-linecap="round" stroke-linejoin="round"/>
<path d="M107.259 204.837C109.084 203.912 111.041 203.272 113.06 202.941L107.259 204.837Z" fill="white"/>
<path d="M107.259 204.837C109.084 203.912 111.041 203.272 113.06 202.941" stroke="#263238" stroke-linecap="round" stroke-linejoin="round"/>
<path d="M103.518 212.423C103.518 212.423 105.811 222.301 107.759 222.922C109.707 223.542 123.404 216.672 123.369 214.302C123.335 211.931 126.093 208.871 123.076 208.914C120.059 208.957 105.414 209.164 103.518 212.423Z" fill="#47C2C9" stroke="#263238" stroke-linecap="round" stroke-linejoin="round"/>
<path d="M150.413 210.017C150.413 210.017 122.217 212.784 117.071 214.577C111.925 216.37 106.391 221.197 107.054 222.913C107.718 224.628 112.08 227.369 114.235 227.335C116.39 227.3 119.605 225.964 120.269 225.956C120.933 225.947 148.775 214.75 149.413 214.56C150.051 214.37 154.361 213.836 156.309 212.948C158.257 212.06 161.11 209.216 161.11 209.216C161.11 209.216 171.808 209.216 172.885 208.733C173.963 208.25 174.79 207.009 171.118 206.242C167.446 205.475 165.765 203.966 163.36 204.001C160.955 204.035 150.413 210.017 150.413 210.017Z" fill="#FFBE9D" stroke="#263238" stroke-linecap="round" stroke-linejoin="round"/>
<path d="M159.418 207.251C160.334 206.779 161.372 206.601 162.392 206.742C165.256 207.171 168.096 207.746 170.9 208.466" stroke="#263238" stroke-linecap="round" stroke-linejoin="round"/>
<path d="M161.737 205.156C162.579 204.787 163.522 204.717 164.409 204.958C165.668 205.415 172.917 207.035 173.081 207.544" stroke="#263238" stroke-linecap="round" stroke-linejoin="round"/>
<path d="M210.71 210.362L151.022 211.206L151.052 213.361L210.74 212.517L210.71 210.362Z" fill="white" stroke="#263238" stroke-linecap="round" stroke-linejoin="round"/>
<path d="M218.267 180.951L185.735 181.416L177.977 212.129L210.509 211.673L218.267 180.951Z" fill="white" stroke="#263238" stroke-linecap="round" stroke-linejoin="round"/>
<path d="M139.325 230.24L139.179 234.981L146.506 234.878L146.652 229.921L139.325 230.24Z" fill="white" stroke="#263238" stroke-linecap="round" stroke-linejoin="round"/>
<path d="M118.853 345.403C118.853 345.403 117.879 352.067 117.594 355.747C117.31 359.428 114.517 363.454 116.646 365.229C118.775 367.005 124.947 366.738 128.421 365.721C131.895 364.704 129.412 357.833 129.455 355.678C129.437 352.954 129.195 350.235 128.731 347.55C128.335 345.602 128.136 344.524 128.136 344.524L118.853 345.403Z" fill="#263238" stroke="#263238" stroke-linecap="round" stroke-linejoin="round"/>
<path d="M121.87 347.222C121.87 347.222 119.999 357.023 122.007 356.989C124.016 356.954 125.456 356.946 125.723 355.506C125.99 354.066 125.318 347.179 125.318 347.179L121.87 347.222Z" fill="white" stroke="#263238" stroke-linecap="round" stroke-linejoin="round"/>
<path d="M121.542 364.186C119.64 364.299 117.733 364.116 115.887 363.643C115.9 363.941 115.975 364.233 116.107 364.5C116.24 364.767 116.426 365.004 116.654 365.195C118.775 366.919 124.955 366.703 128.429 365.686C129.653 365.324 130.153 364.221 130.24 362.859C128.662 363.678 126.033 364.117 121.542 364.186Z" fill="white" stroke="#263238" stroke-linecap="round" stroke-linejoin="round"/>
<path d="M116.413 341.455L116.973 347.265C117.008 347.517 117.136 347.746 117.333 347.906C117.53 348.066 117.78 348.145 118.034 348.127L128.852 347.429C129.102 347.412 129.336 347.301 129.509 347.119C129.681 346.937 129.779 346.697 129.783 346.446L129.86 340.085C129.862 339.944 129.834 339.804 129.778 339.675C129.722 339.546 129.639 339.43 129.535 339.335C129.43 339.241 129.307 339.169 129.173 339.126C129.039 339.083 128.897 339.069 128.757 339.085L117.292 340.335C117.16 340.349 117.032 340.389 116.916 340.453C116.799 340.517 116.697 340.604 116.615 340.709C116.533 340.813 116.473 340.933 116.438 341.062C116.404 341.19 116.395 341.324 116.413 341.455Z" fill="white" stroke="#263238" stroke-linecap="round" stroke-linejoin="round"/>
<path d="M149.566 335.533L135.627 340.352C135.487 340.399 135.358 340.473 135.247 340.57C135.136 340.667 135.045 340.785 134.98 340.917C134.916 341.049 134.878 341.193 134.869 341.34C134.86 341.488 134.88 341.635 134.929 341.774L136.55 346.326C136.655 346.611 136.865 346.846 137.138 346.982C137.41 347.118 137.723 347.145 138.015 347.058L150.643 343.343C150.887 343.276 151.101 343.128 151.249 342.922C151.396 342.717 151.469 342.467 151.454 342.214L151.152 336.568C151.139 336.385 151.083 336.208 150.99 336.05C150.897 335.892 150.769 335.758 150.615 335.657C150.462 335.557 150.287 335.494 150.105 335.473C149.923 335.451 149.739 335.472 149.566 335.533Z" fill="white" stroke="#263238" stroke-linecap="round" stroke-linejoin="round"/>
<path d="M264.927 91.8288C265.735 87.5238 265.255 83.076 263.546 79.043C261.837 75.0099 258.975 71.5711 255.32 69.1575C251.665 66.744 247.378 65.4631 242.998 65.4755C238.618 65.4879 234.339 66.793 230.697 69.2272C228.045 62.8111 223.252 57.5126 217.132 54.2341C211.012 50.9557 203.946 49.9 197.135 51.2468C190.324 52.5937 184.191 56.2598 179.78 61.6209C175.369 66.9819 172.953 73.7062 172.943 80.6487C172.943 81.0194 172.943 81.3814 172.943 81.7521C168.628 82.9757 164.865 85.6473 162.287 89.3179C159.709 92.9886 158.473 97.4347 158.787 101.909C159.1 106.384 160.944 110.614 164.008 113.889C167.073 117.165 171.172 119.286 175.615 119.896V120.102H263.97C267.636 120.095 271.156 118.665 273.789 116.114C276.422 113.564 277.962 110.091 278.086 106.427C278.21 102.763 276.908 99.1945 274.453 96.4717C271.999 93.7488 268.584 92.0844 264.927 91.8288Z" fill="#47C2C9" stroke="#263238" stroke-miterlimit="10"/>
<path d="M204.432 61.1503H187.295L195.588 66.6757L204.432 61.1503Z" fill="#263238"/>
<path d="M195.57 67.9429L186.192 61.6934V73.4683H204.966V62.0726L195.57 67.9429Z" fill="#263238"/>
<path d="M192.907 83.8812C193.599 83.8812 194.276 83.6759 194.851 83.2913C195.427 82.9068 195.875 82.3602 196.14 81.7207C196.405 81.0812 196.474 80.3776 196.339 79.6987C196.204 79.0198 195.871 78.3962 195.382 77.9068C194.892 77.4173 194.269 77.084 193.59 76.949C192.911 76.8139 192.207 76.8832 191.568 77.1481C190.928 77.413 190.382 77.8616 189.997 78.4371C189.612 79.0126 189.407 79.6893 189.407 80.3814C189.407 81.3096 189.776 82.1998 190.432 82.8561C191.089 83.5124 191.979 83.8812 192.907 83.8812Z" fill="#263238"/>
<path d="M195.027 84.6226H190.786C189.614 84.6226 188.489 85.0885 187.659 85.9177C186.83 86.747 186.364 87.8718 186.364 89.0446V91.441H199.449V89.0446C199.449 87.8718 198.984 86.747 198.154 85.9177C197.325 85.0885 196.2 84.6226 195.027 84.6226Z" fill="#263238"/>
<path d="M260.902 102.673C260.902 98.1732 255.643 94.5355 249.153 94.5355C242.662 94.5355 237.412 98.1732 237.412 102.673C237.412 106.888 242.032 110.353 247.954 110.767L247.747 110.81L254.006 113.948L253.738 110.172C257.945 108.931 260.902 106.026 260.902 102.673ZM254.635 103.457H243.084V102.518H254.635V103.457ZM254.635 106.043H243.084V105.164H254.635V106.043ZM254.635 100.932H243.084V99.992H254.635V100.932Z" fill="#263238"/>
<path d="M214.354 94.2424C213.45 94.2413 212.555 94.4192 211.72 94.7658C210.885 95.1125 210.127 95.6211 209.49 96.2623C208.853 96.9034 208.349 97.6644 208.008 98.5014C207.666 99.3383 207.494 100.235 207.501 101.138C207.501 104.923 214.354 112.388 214.354 112.388C214.354 112.388 221.25 104.923 221.25 101.138C221.25 99.3095 220.523 97.5555 219.23 96.2622C217.937 94.969 216.183 94.2424 214.354 94.2424ZM214.354 104.586C213.674 104.578 213.011 104.369 212.45 103.985C211.889 103.601 211.453 103.059 211.199 102.428C210.945 101.798 210.882 101.106 211.02 100.44C211.158 99.7738 211.49 99.1634 211.974 98.6855C212.458 98.2076 213.072 97.8835 213.74 97.7539C214.407 97.6243 215.098 97.695 215.726 97.9572C216.353 98.2194 216.889 98.6613 217.266 99.2274C217.643 99.7934 217.845 100.458 217.845 101.138C217.845 101.595 217.754 102.047 217.578 102.468C217.402 102.889 217.144 103.271 216.82 103.592C216.495 103.913 216.11 104.166 215.686 104.336C215.263 104.507 214.81 104.592 214.354 104.586Z" fill="#263238"/>
<path d="M187.666 96.6129H170.952V110.939H187.666V96.6129Z" fill="#47C2C9" stroke="#263238" stroke-miterlimit="10"/>
<path d="M187.666 103.466L184.804 100.914L181.219 106.164L177.159 104.733L170.952 110.948H187.666V103.466Z" fill="#263238"/>
<path d="M175.969 102.112C177.026 102.112 177.882 101.256 177.882 100.199C177.882 99.1419 177.026 98.2852 175.969 98.2852C174.912 98.2852 174.055 99.1419 174.055 100.199C174.055 101.256 174.912 102.112 175.969 102.112Z" fill="#263238"/>
<path d="M192.683 98.2852H175.969V112.612H192.683V98.2852Z" fill="#47C2C9" stroke="#263238" stroke-miterlimit="10"/>
<path d="M192.683 105.129L189.812 102.587L186.235 107.836L182.175 106.405L175.969 112.62H192.683V105.129Z" fill="#263238"/>
<path d="M182.89 101.871C182.897 102.253 182.79 102.628 182.582 102.948C182.374 103.268 182.075 103.519 181.723 103.667C181.372 103.816 180.984 103.856 180.609 103.783C180.234 103.71 179.89 103.526 179.621 103.255C179.352 102.985 179.169 102.64 179.098 102.265C179.026 101.89 179.068 101.502 179.218 101.151C179.369 100.8 179.621 100.502 179.942 100.296C180.263 100.089 180.638 99.9834 181.02 99.9919C181.515 100.001 181.987 100.202 182.336 100.553C182.685 100.903 182.884 101.376 182.89 101.871Z" fill="#263238"/>
<path d="M222.224 67.236V70.7098H226.172L222.224 67.236Z" fill="#263238"/>
<path d="M221.646 67.2791H212.612V86.1138H226.172V71.2011H221.646V67.2791ZM223.103 81.9848H215.5C215.386 81.9848 215.276 81.9394 215.195 81.8585C215.114 81.7777 215.069 81.6681 215.069 81.5538C215.069 81.4395 215.114 81.3298 215.195 81.249C215.276 81.1682 215.386 81.1228 215.5 81.1228H223.086C223.2 81.1228 223.31 81.1682 223.39 81.249C223.471 81.3298 223.517 81.4395 223.517 81.5538C223.517 81.6681 223.471 81.7777 223.39 81.8585C223.31 81.9394 223.2 81.9848 223.086 81.9848H223.103ZM223.103 79.3988H215.5C215.386 79.3988 215.276 79.3534 215.195 79.2725C215.114 79.1917 215.069 79.0821 215.069 78.9678C215.069 78.8535 215.114 78.7438 215.195 78.663C215.276 78.5822 215.386 78.5368 215.5 78.5368H223.086C223.2 78.5368 223.31 78.5822 223.39 78.663C223.471 78.7438 223.517 78.8535 223.517 78.9678C223.517 79.0821 223.471 79.1917 223.39 79.2725C223.31 79.3534 223.2 79.3988 223.086 79.3988H223.103ZM223.103 76.8128H215.5C215.386 76.8128 215.276 76.7674 215.195 76.6865C215.114 76.6057 215.069 76.4961 215.069 76.3818C215.069 76.2675 215.114 76.1578 215.195 76.077C215.276 75.9962 215.386 75.9508 215.5 75.9508H223.086C223.2 75.9508 223.31 75.9962 223.39 76.077C223.471 76.1578 223.517 76.2675 223.517 76.3818C223.517 76.4961 223.471 76.6057 223.39 76.6865C223.31 76.7674 223.2 76.8128 223.086 76.8128H223.103ZM223.103 73.3648C223.217 73.3648 223.327 73.4102 223.408 73.491C223.488 73.5718 223.534 73.6815 223.534 73.7958C223.534 73.9101 223.488 74.0197 223.408 74.1005C223.327 74.1814 223.217 74.2268 223.103 74.2268H215.5C215.386 74.2268 215.276 74.1814 215.195 74.1005C215.114 74.0197 215.069 73.9101 215.069 73.7958C215.069 73.6815 215.114 73.5718 215.195 73.491C215.276 73.4102 215.386 73.3648 215.5 73.3648H223.103Z" fill="#263238"/>
<path d="M197.096 178.468V177.175" stroke="#263238" stroke-miterlimit="10"/>
<path d="M197.096 174.667V125.697" stroke="#263238" stroke-miterlimit="10" stroke-dasharray="2.91 2.91"/>
<path d="M197.096 124.438V123.145" stroke="#263238" stroke-miterlimit="10"/>
<path d="M197.096 120.533L194.019 125.869H200.174L197.096 120.533Z" fill="#263238"/>
<path d="M232.973 123.145V124.438" stroke="#263238" stroke-miterlimit="10"/>
<path d="M232.973 127.024V192.941" stroke="#263238" stroke-miterlimit="10" stroke-dasharray="3 3"/>
<path d="M232.973 194.226V195.519H231.68" stroke="#263238" stroke-miterlimit="10"/>
<path d="M229.206 195.519H220.534" stroke="#263238" stroke-miterlimit="10" stroke-dasharray="2.87 2.87"/>
<path d="M219.293 195.519H218" stroke="#263238" stroke-miterlimit="10"/>
<path d="M215.095 195.467L220.431 198.544V192.39L215.095 195.467Z" fill="#263238"/>
</g>
<defs>
<filter id="filter0_d_70_5817" x="-4" y="0" width="439" height="439" filterUnits="userSpaceOnUse" color-interpolation-filters="sRGB">
<feFlood flood-opacity="0" result="BackgroundImageFix"/>
<feColorMatrix in="SourceAlpha" type="matrix" values="0 0 0 0 0 0 0 0 0 0 0 0 0 0 0 0 0 0 127 0" result="hardAlpha"/>
<feOffset dy="4"/>
<feGaussianBlur stdDeviation="2"/>
<feComposite in2="hardAlpha" operator="out"/>
<feColorMatrix type="matrix" values="0 0 0 0 0 0 0 0 0 0 0 0 0 0 0 0 0 0 0.25 0"/>
<feBlend mode="normal" in2="BackgroundImageFix" result="effect1_dropShadow_70_5817"/>
<feBlend mode="normal" in="SourceGraphic" in2="effect1_dropShadow_70_5817" result="shape"/>
</filter>
</defs>
</svg>
