<svg width="460" height="306" viewBox="0 0 460 306" fill="none" xmlns="http://www.w3.org/2000/svg">
<path d="M362.48 139.597C364.976 140.687 371.067 140.552 371.067 140.552C371.067 140.552 369.754 136.562 369.638 136.317C368.301 133.52 364.056 128.9 360.609 129.365C360.039 129.458 359.494 129.67 359.011 129.987C358.528 130.305 358.117 130.72 357.805 131.206C357.493 131.692 357.287 132.238 357.201 132.808C357.115 133.379 357.15 133.961 357.303 134.518C357.892 136.898 360.346 138.673 362.48 139.597Z" fill="#263238"/>
<path d="M364.584 157.284C367.172 157.657 372.625 156.06 373.06 155.956C373.958 159.069 375.063 162.12 376.366 165.087C377.114 166.819 377.924 168.539 378.758 170.252C378.261 169.53 377.813 168.881 377.74 168.796C375.704 166.452 370.38 163.116 367.191 164.469C366.663 164.707 366.192 165.054 365.808 165.486C365.424 165.918 365.136 166.427 364.963 166.978C364.789 167.529 364.734 168.11 364.801 168.684C364.867 169.258 365.055 169.811 365.351 170.307C366.534 172.462 369.368 173.52 371.668 173.857C373.968 174.194 378.672 172.945 379.905 172.596C380.23 173.251 380.549 173.906 380.88 174.561C382.463 177.7 384.051 180.822 385.511 183.931C386.032 185.032 386.498 186.128 386.971 187.223C386.529 186.58 386.149 186.042 386.087 185.962C384.051 183.618 378.727 180.277 375.538 181.636C375.011 181.874 374.54 182.22 374.156 182.653C373.772 183.085 373.484 183.593 373.31 184.144C373.136 184.695 373.081 185.277 373.148 185.85C373.215 186.424 373.402 186.977 373.698 187.474C374.882 189.622 377.715 190.687 380.015 191.024C382.315 191.36 386.566 190.228 388.032 189.8C388.479 190.938 388.933 192.076 389.32 193.196C389.565 193.973 389.853 194.702 390.056 195.491C390.258 196.281 390.491 197.04 390.669 197.798C391.031 199.286 391.405 200.816 391.718 202.266C391.945 203.282 392.135 204.249 392.331 205.222C391.828 204.127 390.804 201.997 390.693 201.832C389.044 199.206 384.296 195.1 380.923 195.956C380.365 196.114 379.847 196.387 379.403 196.759C378.959 197.13 378.598 197.59 378.344 198.11C378.091 198.63 377.95 199.198 377.931 199.776C377.913 200.354 378.017 200.929 378.237 201.464C379.077 203.772 381.72 205.246 383.941 205.926C386.394 206.672 391.791 205.987 392.472 205.926C392.791 207.535 393.085 209.108 393.355 210.601C393.932 213.882 394.373 216.826 394.705 219.316H396.986C396.588 216.74 396.066 213.668 395.379 210.222C395.06 208.582 394.68 206.838 394.275 205.045C395.906 204.396 397.495 203.65 399.035 202.811C400.82 204.739 405.383 206.991 405.972 207.278C405.358 208.802 404.745 210.277 404.132 211.66C402.868 214.561 401.678 217.132 400.611 219.316H403.064C403.978 217.303 404.978 215.032 406.021 212.462C406.634 210.92 407.309 209.255 407.959 207.566C408.615 207.701 413.969 208.79 416.466 208.221C418.729 207.713 421.477 206.434 422.489 204.2C422.745 203.683 422.89 203.117 422.913 202.541C422.936 201.964 422.837 201.389 422.622 200.853C422.407 200.317 422.082 199.833 421.667 199.431C421.252 199.029 420.756 198.719 420.213 198.521C416.913 197.413 411.878 201.152 410.032 203.649C409.928 203.796 408.922 205.528 408.308 206.63C408.572 205.926 408.836 205.246 409.093 204.518C409.621 203.086 410.105 201.642 410.627 200.093C410.86 199.335 411.087 198.563 411.32 197.792C411.553 197.021 411.731 196.195 411.933 195.387C412.381 193.508 412.743 191.581 413.068 189.628C414.294 190.087 418.815 191.648 421.139 191.464C423.464 191.281 426.365 190.454 427.702 188.404C428.034 187.932 428.263 187.395 428.373 186.829C428.484 186.262 428.474 185.679 428.344 185.117C428.213 184.555 427.966 184.026 427.618 183.565C427.27 183.105 426.828 182.723 426.322 182.443C423.225 180.852 417.68 183.79 415.478 185.975C415.337 186.115 413.939 187.86 413.184 188.833C413.368 187.664 413.559 186.489 413.706 185.295C414.135 181.856 414.46 178.355 414.804 174.891C414.908 173.82 415.024 172.755 415.135 171.691C415.582 171.862 420.876 173.826 423.482 173.643C425.801 173.484 428.702 172.633 430.045 170.583C430.377 170.111 430.605 169.574 430.715 169.008C430.825 168.441 430.814 167.859 430.684 167.297C430.553 166.735 430.305 166.207 429.956 165.747C429.607 165.287 429.165 164.906 428.659 164.628C425.592 163.037 420.023 165.968 417.821 168.159C417.656 168.325 415.638 170.84 415.153 171.507C415.405 169.157 415.675 166.825 416.03 164.53C416.501 161.43 417.171 158.364 418.036 155.35C418.244 155.43 423.764 157.51 426.432 157.321C428.751 157.162 431.652 156.311 432.995 154.261C433.327 153.788 433.555 153.252 433.665 152.686C433.775 152.119 433.764 151.537 433.634 150.975C433.503 150.413 433.255 149.885 432.906 149.425C432.557 148.965 432.115 148.584 431.609 148.306C428.542 146.715 422.973 149.646 420.771 151.837C420.593 152.009 418.428 154.714 418.073 155.234C418.122 155.062 418.152 154.873 418.208 154.701C419.162 151.707 420.381 148.802 421.851 146.023C422.642 144.475 423.488 143.043 424.335 141.666C425.328 142.162 429.855 144.359 432.308 144.457C434.626 144.548 437.607 144.022 439.165 142.131C439.547 141.698 439.834 141.189 440.006 140.638C440.178 140.087 440.232 139.506 440.164 138.933C440.097 138.359 439.909 137.807 439.613 137.311C439.317 136.815 438.92 136.387 438.448 136.054C435.546 134.132 429.708 136.439 427.279 138.373C427.15 138.477 425.923 139.695 425.04 140.595C425.439 139.983 425.831 139.371 426.224 138.759C427.677 136.568 429.143 134.652 430.462 132.969C431.216 132.021 431.916 131.17 432.584 130.387C433.811 130.387 438.717 130.215 440.883 129.205C443.048 128.196 445.384 126.384 445.893 123.991C446.033 123.431 446.053 122.848 445.952 122.28C445.85 121.712 445.63 121.172 445.306 120.694C444.981 120.216 444.559 119.813 444.068 119.509C443.576 119.205 443.026 119.008 442.453 118.93C438.987 118.557 434.878 123.287 433.614 126.121C433.504 126.366 432.235 130.405 432.302 130.405H432.376C431.719 131.146 431.026 131.947 430.284 132.853C428.929 134.512 427.414 136.403 425.905 138.563C424.276 140.84 422.779 143.208 421.421 145.656C419.874 148.439 418.577 151.353 417.545 154.365C417.545 154.402 417.545 154.438 417.545 154.475C417.545 153.459 417.545 150.613 417.49 150.393C417.091 147.333 414.509 141.611 411.087 140.98C410.516 140.89 409.932 140.921 409.373 141.072C408.815 141.222 408.294 141.488 407.846 141.852C407.397 142.216 407.031 142.671 406.77 143.186C406.51 143.701 406.361 144.266 406.333 144.842C406.131 147.29 407.91 149.738 409.639 151.274C411.59 153.018 416.999 154.701 417.447 154.836C416.47 157.927 415.704 161.079 415.153 164.273C414.822 166.109 414.54 168.012 414.294 169.903C414.294 169.022 414.295 168.233 414.245 168.123C413.847 165.063 411.265 159.34 407.842 158.71C407.271 158.62 406.687 158.651 406.129 158.801C405.57 158.951 405.05 159.217 404.601 159.582C404.153 159.946 403.786 160.401 403.526 160.916C403.265 161.431 403.116 161.995 403.089 162.572C402.887 165.02 404.665 167.468 406.395 169.004C408.124 170.54 412.743 172.101 413.963 172.492C413.877 173.214 413.779 173.943 413.693 174.665C413.276 178.153 412.872 181.636 412.375 185.032C412.197 186.256 411.982 187.407 411.761 188.582C411.761 187.798 411.761 187.144 411.719 187.046C411.32 183.986 408.738 178.257 405.315 177.627C404.744 177.538 404.16 177.57 403.601 177.721C403.043 177.872 402.522 178.138 402.074 178.503C401.626 178.868 401.259 179.323 400.999 179.838C400.738 180.354 400.589 180.918 400.562 181.495C400.366 183.943 402.138 186.391 403.874 187.927C405.61 189.463 409.774 190.871 411.234 191.336C410.982 192.56 410.725 193.735 410.424 194.885C410.204 195.663 410.044 196.428 409.774 197.199C409.504 197.97 409.284 198.729 409.038 199.481C408.517 200.92 407.983 202.401 407.437 203.765C407.069 204.732 406.695 205.644 406.321 206.568C406.511 205.344 406.83 203.037 406.836 202.835C406.799 200.108 406.06 197.435 404.69 195.075C404.702 194.77 404.684 194.465 404.634 194.163C404.562 193.591 404.37 193.04 404.07 192.547C403.771 192.053 403.371 191.628 402.896 191.299C402.421 190.97 401.882 190.745 401.314 190.637C400.746 190.529 400.162 190.542 399.599 190.675C396.232 191.568 394.079 197.462 393.944 200.559C393.944 200.742 394.048 202.737 394.147 203.992C393.981 203.264 393.821 202.554 393.637 201.801C393.288 200.32 392.889 198.845 392.472 197.26C392.239 196.509 392.006 195.744 391.773 194.965C391.558 194.194 391.233 193.404 390.963 192.621C390.295 190.785 389.534 188.998 388.725 187.192C390.025 186.88 394.631 185.711 396.483 184.292C398.336 182.872 400.28 180.577 400.261 178.123C400.277 177.546 400.171 176.973 399.95 176.44C399.729 175.907 399.398 175.427 398.978 175.03C398.559 174.634 398.06 174.33 397.515 174.138C396.97 173.947 396.391 173.872 395.815 173.918C392.356 174.292 389.35 179.793 388.719 182.829C388.682 183.019 388.479 185.246 388.387 186.501C387.897 185.418 387.406 184.341 386.866 183.263C385.321 180.154 383.658 177.058 382.015 173.961C381.512 173.012 381.021 172.058 380.524 171.109C380.99 171.005 386.498 169.726 388.571 168.141C390.411 166.733 392.362 164.426 392.349 161.972C392.365 161.395 392.259 160.821 392.037 160.288C391.816 159.755 391.484 159.274 391.064 158.877C390.644 158.481 390.145 158.177 389.599 157.986C389.053 157.794 388.473 157.72 387.897 157.768C384.437 158.141 381.432 163.643 380.807 166.678C380.757 166.905 380.469 170.118 380.432 170.962C379.347 168.869 378.28 166.77 377.311 164.659C375.99 161.817 374.855 158.894 373.913 155.907C374.127 155.858 379.88 154.555 382.003 152.927C383.843 151.519 385.799 149.212 385.781 146.758C385.797 146.181 385.692 145.607 385.471 145.074C385.25 144.541 384.919 144.06 384.5 143.663C384.08 143.266 383.581 142.962 383.035 142.771C382.49 142.58 381.91 142.506 381.334 142.553C377.875 142.927 374.869 148.428 374.244 151.464C374.195 151.703 373.882 155.136 373.87 155.785C373.821 155.613 373.741 155.436 373.692 155.264C372.83 152.24 372.241 149.146 371.932 146.017C371.735 144.297 371.649 142.633 371.6 141.017C372.692 140.889 377.697 140.221 379.77 138.967C381.843 137.712 383.953 135.693 384.204 133.251C384.283 132.68 384.24 132.098 384.079 131.545C383.918 130.991 383.642 130.477 383.269 130.037C382.896 129.597 382.434 129.239 381.914 128.989C381.393 128.738 380.826 128.599 380.248 128.581C376.765 128.581 373.177 133.716 372.214 136.666C372.165 136.825 371.815 138.502 371.6 139.726C371.6 138.991 371.564 138.239 371.6 137.541C371.6 134.915 371.772 132.51 371.938 130.381C372.036 129.157 372.158 128.079 372.275 127.057C373.287 126.366 377.311 123.532 378.549 121.507C379.788 119.481 380.745 116.672 379.844 114.395C379.65 113.851 379.343 113.354 378.944 112.936C378.545 112.518 378.062 112.189 377.527 111.97C376.992 111.75 376.416 111.646 375.838 111.663C375.26 111.68 374.691 111.819 374.17 112.069C371.104 113.661 370.269 119.872 370.779 122.932C370.821 123.196 372.005 127.253 372.042 127.216L372.103 127.174C371.968 128.153 371.833 129.205 371.711 130.356C371.496 132.486 371.281 134.897 371.22 137.535C371.117 140.374 371.185 143.217 371.423 146.048C371.636 149.219 372.133 152.365 372.907 155.448C372.907 155.485 372.907 155.521 372.907 155.558C372.361 154.695 370.748 152.351 370.607 152.18C368.571 149.836 363.247 146.494 360.057 147.853C359.531 148.092 359.06 148.439 358.677 148.872C358.294 149.304 358.006 149.812 357.832 150.363C357.659 150.914 357.603 151.495 357.67 152.068C357.736 152.642 357.923 153.195 358.217 153.692C359.45 155.864 362.284 156.923 364.584 157.284Z" fill="#263238"/>
<path d="M424.267 140.938C424.322 140.974 425.384 136.886 425.42 136.654C425.844 133.594 424.862 127.394 421.74 125.882C421.213 125.646 420.642 125.523 420.064 125.522C419.486 125.521 418.914 125.641 418.386 125.875C417.858 126.109 417.385 126.451 416.998 126.879C416.611 127.308 416.319 127.812 416.141 128.361C415.3 130.668 416.361 133.489 417.625 135.436C419.097 137.7 424.267 140.938 424.267 140.938Z" fill="#263238"/>
<path d="M416.355 252.242H382.959L378.789 215.234H420.532L416.355 252.242Z" fill="white" stroke="#263238" stroke-linecap="round" stroke-linejoin="round"/>
<path d="M379.555 222.009L379.96 225.595H419.36L419.765 222.009H379.555Z" fill="#263238"/>
<path d="M418.471 233.484L418.876 229.898H380.444L380.849 233.484H418.471Z" fill="#263238"/>
<g opacity="0.3">
<path d="M103.586 64.5538V53.8561L92.8831 52.6688C92.3037 50.4384 91.4226 48.2972 90.2642 46.304L97.0109 37.8767L89.4423 30.3308L81.0335 37.0628C79.0431 35.8939 76.9037 34.9984 74.6733 34.4006L73.4834 23.6783H62.7685L61.5786 34.3333C59.344 34.9163 57.1985 35.7973 55.1999 36.9526L46.7543 30.2206L39.1797 37.7666L45.9263 46.1632C44.7533 48.1456 43.8577 50.2788 43.2645 52.5035L32.5066 53.6969V64.3886L43.2093 65.5759C43.7887 67.8043 44.6698 69.9435 45.8282 71.9345L39.0815 80.3679L46.6133 87.9261L55.0221 81.1941C57.0207 82.3609 59.1685 83.2523 61.4069 83.8441L62.5967 94.5663H73.3117L74.5015 83.893C76.737 83.3127 78.8829 82.4315 80.8802 81.2737L89.3258 88.0057L96.9066 80.4842L90.1599 72.0937C91.3319 70.1086 92.2274 67.9735 92.8218 65.7472L103.586 64.5538ZM68.0431 71.8978C65.5136 71.899 63.0406 71.1517 60.9368 69.7503C58.833 68.3489 57.193 66.3565 56.2242 64.025C55.2553 61.6935 55.0012 59.1276 55.494 56.652C55.9867 54.1763 57.2042 51.9021 58.9923 50.117C60.7805 48.3318 63.0591 47.1159 65.5399 46.6231C68.0207 46.1302 70.5923 46.3825 72.9293 47.3482C75.2664 48.3138 77.264 49.9493 78.6694 52.0478C80.0748 54.1463 80.825 56.6136 80.825 59.1376C80.8217 62.5187 79.4738 65.7602 77.0773 68.1504C74.6808 70.5406 71.4315 71.884 68.0431 71.8856V71.8978Z" stroke="black" stroke-miterlimit="10"/>
<path d="M145.679 43.0971L144.495 36.0223L137.276 36.4201C136.64 35.0075 135.815 33.6878 134.823 32.4972L138.362 26.1691L132.517 22.032L127.696 27.4054C126.25 26.84 124.733 26.4735 123.188 26.316L121.207 19.3453L114.117 20.5326L114.515 27.7297C113.1 28.364 111.777 29.1876 110.584 30.1777L104.266 26.6465L100.09 32.485L105.45 37.332C104.896 38.7748 104.541 40.286 104.395 41.8241L97.4094 43.8009L98.5993 50.8756L105.812 50.4839C106.448 51.8946 107.273 53.2123 108.265 54.4007L104.733 60.7288L110.584 64.8965L115.411 59.5231C116.857 60.0751 118.371 60.4312 119.913 60.5819L121.894 67.5465L128.984 66.3653L128.591 59.1621C130.005 58.5277 131.326 57.7041 132.517 56.7141L138.858 60.2453L143.035 54.4007L137.638 49.572C138.19 48.1284 138.547 46.6177 138.699 45.0799L145.679 43.0971ZM122.985 51.8793C121.31 52.1613 119.589 51.9411 118.039 51.2465C116.489 50.552 115.181 49.4143 114.279 47.9775C113.378 46.5406 112.923 44.8692 112.974 43.1748C113.025 41.4803 113.578 39.8389 114.564 38.4584C115.55 37.0778 116.924 36.0201 118.513 35.4191C120.101 34.8182 121.833 34.7009 123.488 35.0822C125.144 35.4635 126.649 36.3262 127.812 37.5612C128.976 38.7961 129.747 40.3479 130.026 42.0199C130.212 43.1303 130.176 44.2661 129.921 45.3626C129.666 46.4591 129.197 47.4948 128.541 48.4104C127.885 49.326 127.054 50.1036 126.097 50.6988C125.139 51.294 124.074 51.6951 122.961 51.8793H122.985Z" stroke="black" stroke-miterlimit="10"/>
</g>
<path d="M95.3792 49.419H374.243C375.943 49.4206 377.572 50.095 378.774 51.294C379.975 52.493 380.651 54.1187 380.653 55.8144V238.337H88.9331V55.8144C88.9339 54.9717 89.1014 54.1374 89.4261 53.3595C89.7508 52.5815 90.2262 51.8752 90.8251 51.281C91.4241 50.6868 92.1346 50.2164 92.9161 49.8969C93.6976 49.5774 94.5347 49.415 95.3792 49.419Z" fill="#47C2C9" stroke="#263238" stroke-linecap="round" stroke-linejoin="round"/>
<path d="M335.714 229.243H135.246V239.096H335.714V229.243Z" fill="#263238" stroke="#263238" stroke-linecap="round" stroke-linejoin="round"/>
<path d="M335.714 233.986H135.246V239.096H335.714V233.986Z" fill="white" stroke="#263238" stroke-linecap="round" stroke-linejoin="round"/>
<path d="M65.375 244.941C65.375 244.941 68.6686 248.956 78.5433 252.242H392.41C392.41 252.242 399.728 250.406 403.021 245.302L65.375 244.941Z" fill="#263238" stroke="#263238" stroke-linecap="round" stroke-linejoin="round"/>
<path d="M402.573 237.75H65.8657C65.2255 237.75 64.7065 238.268 64.7065 238.906V244.268C64.7065 244.906 65.2255 245.424 65.8657 245.424H402.573C403.214 245.424 403.733 244.906 403.733 244.268V238.906C403.733 238.268 403.214 237.75 402.573 237.75Z" fill="#47C2C9" stroke="#263238" stroke-linecap="round" stroke-linejoin="round"/>
<path d="M234.747 57.681C236.16 57.681 237.305 56.5384 237.305 55.1289C237.305 53.7195 236.16 52.5769 234.747 52.5769C233.335 52.5769 232.189 53.7195 232.189 55.1289C232.189 56.5384 233.335 57.681 234.747 57.681Z" fill="#263238"/>
<path d="M368.822 64.1743H100.795V215.314H368.822V64.1743Z" fill="white" stroke="#263238" stroke-linecap="round" stroke-linejoin="round"/>
<path d="M368.822 64.1743H100.795V73.3237H368.822V64.1743Z" fill="#C9C9C9" stroke="#263238" stroke-linecap="round" stroke-linejoin="round"/>
<path d="M14.2417 252.242H441.183" stroke="#263238" stroke-linecap="round" stroke-linejoin="round"/>
<path d="M347.361 142.743H236.661V205.155H347.361V142.743Z" stroke="#263238" stroke-linecap="round" stroke-linejoin="round"/>
<path d="M347.361 197.651H236.661V205.155H347.361V197.651Z" stroke="#263238" stroke-linecap="round" stroke-linejoin="round"/>
<path d="M347.361 200.399H236.661V202.407H347.361V200.399Z" stroke="#263238" stroke-linecap="round" stroke-linejoin="round"/>
<path d="M347.263 84.2969H236.845V136.439H347.263V84.2969Z" stroke="#263238" stroke-linecap="round" stroke-linejoin="round"/>
<path d="M236.845 136.439L276.699 105.429L298.27 117.467L323.864 94.8478L347.263 109.805" stroke="#263238" stroke-linecap="round" stroke-linejoin="round"/>
<path d="M251.473 106.886C255.914 106.886 259.514 103.294 259.514 98.8624C259.514 94.4313 255.914 90.8391 251.473 90.8391C247.032 90.8391 243.432 94.4313 243.432 98.8624C243.432 103.294 247.032 106.886 251.473 106.886Z" stroke="#263238" stroke-linecap="round" stroke-linejoin="round"/>
<path d="M131.18 145.191H123.139V203.563H131.18V145.191Z" stroke="#263238" stroke-linecap="round" stroke-linejoin="round"/>
<path d="M142.882 171.464H134.841V203.57H142.882V171.464Z" stroke="#263238" stroke-linecap="round" stroke-linejoin="round"/>
<path d="M154.578 180.583H146.538V203.57H154.578V180.583Z" stroke="#263238" stroke-linecap="round" stroke-linejoin="round"/>
<path d="M166.281 162.339H158.24V203.563H166.281V162.339Z" stroke="#263238" stroke-linecap="round" stroke-linejoin="round"/>
<path d="M177.977 166.354H169.936V203.563H177.977V166.354Z" stroke="#263238" stroke-linecap="round" stroke-linejoin="round"/>
<path d="M189.679 195.54H181.639V203.563H189.679V195.54Z" stroke="#263238" stroke-linecap="round" stroke-linejoin="round"/>
<path d="M194.801 149.573H217.838" stroke="#263238" stroke-linecap="round" stroke-linejoin="round"/>
<path d="M194.801 157.235H217.838" stroke="#263238" stroke-linecap="round" stroke-linejoin="round"/>
<path d="M194.801 164.891H217.838" stroke="#263238" stroke-linecap="round" stroke-linejoin="round"/>
<path d="M194.801 172.553H217.838" stroke="#263238" stroke-linecap="round" stroke-linejoin="round"/>
<path d="M194.801 180.216H217.838" stroke="#263238" stroke-linecap="round" stroke-linejoin="round"/>
<path d="M194.801 187.878H217.838" stroke="#263238" stroke-linecap="round" stroke-linejoin="round"/>
<path d="M194.801 195.54H217.838" stroke="#263238" stroke-linecap="round" stroke-linejoin="round"/>
<path d="M194.801 203.202H217.838" stroke="#263238" stroke-linecap="round" stroke-linejoin="round"/>
<path d="M127.273 118.532L122.256 87.8036H125.825L129.137 109.885L133.277 87.9199H136.344L140.527 110.001L143.759 87.8036H147.255L142.293 118.532H139.178L134.884 95.7718L130.548 118.532H127.273Z" fill="#263238"/>
<path d="M155.676 89.4009H219.463" stroke="#263238" stroke-linecap="round" stroke-linejoin="round"/>
<path d="M155.676 96.1512H219.463" stroke="#263238" stroke-linecap="round" stroke-linejoin="round"/>
<path d="M155.676 102.902H219.463" stroke="#263238" stroke-linecap="round" stroke-linejoin="round"/>
<path d="M155.676 109.652H219.463" stroke="#263238" stroke-linecap="round" stroke-linejoin="round"/>
<path d="M155.676 116.402H219.463" stroke="#263238" stroke-linecap="round" stroke-linejoin="round"/>
<path d="M355.93 129.132H318.86C316.787 129.132 315.088 131.213 315.088 133.759V158.447C315.088 160.987 316.787 163.067 318.86 163.067H327.741L321.933 175.84L337.419 163.067H355.93C358.003 163.067 359.696 160.987 359.696 158.447V133.765C359.696 131.219 358.003 129.132 355.93 129.132Z" fill="#263238" stroke="#263238" stroke-linecap="round" stroke-linejoin="round"/>
<path d="M330.967 153.93L323.172 148.422V145.509L330.967 139.958V142.902L325.38 146.953L330.967 151.005V153.93Z" fill="#47C2C9"/>
<path d="M333.341 154.909L339.284 132.877H341.817L335.849 154.909H333.341Z" fill="#47C2C9"/>
<path d="M344.19 153.93V151.017L349.809 146.941L344.19 142.914V139.97L352.017 145.478V148.392L344.19 153.93Z" fill="#47C2C9"/>
<path d="M353.513 46.4202H316.48C314.407 46.4202 312.708 48.501 312.708 51.0408V75.7227C312.708 78.2687 314.407 80.3494 316.48 80.3494H325.355L319.547 93.1158L335.039 80.3494H353.544C355.617 80.3494 357.316 78.2687 357.316 75.7227V51.0408C357.285 48.501 355.586 46.4202 353.513 46.4202Z" fill="#263238" stroke="#263238" stroke-linecap="round" stroke-linejoin="round"/>
<path d="M328.557 71.2062L320.755 65.6982V62.7912L328.557 57.2404V60.178L322.969 64.26L328.557 68.3176V71.2062Z" fill="#47C2C9"/>
<path d="M330.93 72.216L336.873 50.184H339.406L333.439 72.216H330.93Z" fill="#47C2C9"/>
<path d="M341.78 71.2062V68.2992L347.398 64.2171L341.78 60.1902V57.2526L349.606 62.7606V65.6737L341.78 71.2062Z" fill="#47C2C9"/>
<path d="M207.853 110.16H170.783C168.71 110.16 167.011 112.241 167.011 114.781V139.475C167.011 142.021 168.71 144.102 170.783 144.102H179.664L173.856 156.868L189.342 144.102H207.853C209.926 144.102 211.618 142.021 211.618 139.475V114.793C211.6 112.253 209.926 110.16 207.853 110.16Z" fill="#263238" stroke="#263238" stroke-linecap="round" stroke-linejoin="round"/>
<path d="M182.89 134.958L175.095 129.45V126.543L182.89 120.992V123.93L177.303 127.981L182.89 132.039V134.958Z" fill="#47C2C9"/>
<path d="M185.264 135.938L191.207 113.906H193.746L187.772 135.938H185.264Z" fill="#47C2C9"/>
<path d="M196.113 134.958V132.051L201.731 127.969L196.113 123.942V121.005L203.939 126.513V129.426L196.113 134.958Z" fill="#47C2C9"/>
<path d="M116.496 235.669H116.411C116.055 235.638 112.915 235.296 112.221 233.221C111.688 231.611 111.676 227.101 112.927 225.675C114.074 224.371 115.84 225.002 116.607 225.516C116.81 225.651 116.952 225.86 117 226.099C117.048 226.338 116.999 226.586 116.864 226.789C116.729 226.992 116.519 227.133 116.28 227.181C116.041 227.229 115.792 227.181 115.589 227.046C115.589 227.046 114.663 226.477 114.307 226.881C113.693 227.566 113.491 231.226 113.963 232.64C114.19 233.313 115.656 233.753 116.576 233.864C116.82 233.875 117.05 233.982 117.214 234.163C117.379 234.343 117.465 234.581 117.453 234.824C117.442 235.068 117.334 235.297 117.153 235.461C116.973 235.625 116.734 235.711 116.49 235.7L116.496 235.669Z" fill="#263238"/>
<path d="M127.015 224.023H115.975V237.554H127.015V224.023Z" fill="#263238" stroke="#263238" stroke-linecap="round" stroke-linejoin="round"/>
<path d="M118.704 222.156C118.345 220.688 118.581 219.137 119.361 217.841C120.667 215.748 123.286 215.357 123.157 211.721" stroke="#263238" stroke-linecap="round" stroke-linejoin="round"/>
<path d="M125.519 216.532C125.013 217.4 124.444 218.228 123.813 219.01C123.166 219.926 122.842 221.03 122.893 222.15" stroke="#263238" stroke-linecap="round" stroke-linejoin="round"/>
<path d="M126.696 214.2C127.205 212.914 127.384 211.521 127.217 210.149" stroke="#263238" stroke-linecap="round" stroke-linejoin="round"/>
<path d="M89.3749 141.299C89.3749 141.299 88.8351 138.955 87.4551 139.12C86.0751 139.285 86.5167 139.732 85.2042 139.389C83.8917 139.046 83.6279 137.933 82.9839 138.9C82.3399 139.866 83.5543 140.478 82.3706 140.362C81.1869 140.246 80.7453 139.542 80.2914 139.977C80.0275 140.219 79.8039 140.502 79.629 140.815L79.4389 141.348C79.5147 141.182 79.6264 141.036 79.7659 140.92C79.9054 140.803 80.0691 140.719 80.2453 140.673C80.4214 140.627 80.6056 140.621 80.7843 140.655C80.9631 140.689 81.132 140.763 81.2789 140.87C82.5055 141.611 83.4194 141.758 83.5973 141.103C83.7751 140.448 85.3023 140.491 85.3453 140.889C85.4349 141.202 85.6014 141.488 85.8298 141.721C85.8298 141.721 82.4319 142.002 81.4322 142.119C80.4325 142.235 79.6965 141.439 78.2551 142.119C76.8138 142.798 75.6178 143.447 75.0842 144.273C74.5506 145.099 75.8141 146.109 75.6362 146.721C75.4583 147.333 72.8885 148.196 72.9989 149.065C73.1093 149.934 74.2623 150.056 73.0847 150.834C71.9071 151.611 70.8706 152.492 71.2079 153.214C71.5453 153.936 72.4346 154.714 72.2445 155.497C72.0543 156.28 70.7357 157.706 71.4533 158.379C72.1709 159.053 72.6063 158.496 72.4775 159.524C72.3487 160.552 71.7109 162.657 72.4775 162.945C73.2442 163.233 74.2133 163.624 74.2071 164.64C74.201 165.656 74.0415 166.433 74.7469 166.984C75.4522 167.535 77.0898 167.462 77.2677 168.961C77.4455 170.46 77.6357 170.944 78.3103 171.244C78.985 171.544 80.0338 170.785 80.5551 171.99C81.0765 173.196 82.6037 173.141 83.3213 172.798C84.0389 172.455 84.6093 171.886 85.2778 173.196C85.9463 174.506 86.7253 174.671 87.6943 174.304C88.6634 173.937 90.0925 174.138 90.6813 174.83C91.2701 175.522 92.6501 175.356 93.3431 174.763C94.0362 174.169 94.5269 172.976 95.1463 173.912C95.7658 174.848 97.2685 175.687 97.8021 174.861C98.3357 174.034 98.6853 172.731 99.5317 173.386C99.7226 173.522 99.9387 173.619 100.168 173.672C100.396 173.725 100.633 173.731 100.865 173.692C101.096 173.653 101.318 173.568 101.516 173.443C101.715 173.318 101.887 173.155 102.022 172.963C102.262 172.55 102.61 172.211 103.03 171.981C103.449 171.751 103.923 171.64 104.402 171.66C105.438 171.795 106.702 171.764 106.677 170.503C106.652 169.242 106.548 168.361 107.579 168.49C108.609 168.618 110.173 168.943 110.148 167.676C110.124 166.409 110.032 165.662 110.762 165.57C111.492 165.479 112.657 164.457 112.442 163.734C112.228 163.012 111.657 160.405 112.038 160.362C112.418 160.32 112.915 159.242 112.387 158.037C111.86 156.831 111.774 155.834 112.105 155.662C112.436 155.491 112.798 154.059 111.927 153.147C111.056 152.235 110.7 151.519 111.406 150.925C111.585 150.765 111.727 150.568 111.822 150.348C111.918 150.128 111.965 149.89 111.961 149.65C111.956 149.411 111.9 149.175 111.795 148.958C111.691 148.742 111.542 148.551 111.357 148.398C110.498 147.614 110.044 147.033 109.971 146.409C109.897 145.785 108.21 144.463 107.664 144.15C107.27 143.859 106.947 143.483 106.719 143.049C106.49 142.616 106.363 142.137 106.346 141.647C106.18 140.27 105.916 140.179 103.543 139.45C102.122 139.064 100.791 138.405 99.6237 137.51C98.6546 136.868 96.2749 137.149 95.3303 137.773C94.3858 138.398 90.7733 138.214 89.3749 141.299Z" fill="#263238" stroke="#263238" stroke-linecap="round" stroke-linejoin="round"/>
<path d="M64.0871 205.326C68.1413 202.193 76.7157 187.988 76.7157 187.988C76.7157 187.988 77.7461 195.24 78.9482 198.704C80.1503 202.168 81.7879 204.439 81.4015 208.417L81.3647 207.805L103.353 208.447C102.678 207.223 102.249 207.015 102.126 206.483C101.764 204.616 103.684 200.473 103.708 198.582C103.733 196.691 105.168 193.074 105.168 193.074C105.168 193.074 111.51 207.095 112.964 208.276C114.417 209.457 118.484 210.112 118.257 205.718C118.03 201.324 110.621 184.328 109.32 181.372C108.02 178.416 106.389 176.366 103.248 176.666C100.108 176.966 99.3783 177.511 97.2378 177.627C95.0973 177.743 96.0418 167.486 96.0418 167.486C94.9663 168.35 93.6811 168.915 92.3164 169.123C90.9518 169.332 89.5561 169.176 88.2709 168.673C88.2709 168.673 88.8229 174.059 87.909 175.748C86.9951 177.437 86.5167 177.97 84.3271 177.211C82.1375 176.452 78.709 173.863 76.6175 174.861C74.5261 175.858 59.8367 200.246 58.6898 202.327C57.9293 203.704 55.8807 207.223 56.4941 208.172L64.0871 205.326Z" fill="#FFBE9D" stroke="#263238" stroke-linecap="round" stroke-linejoin="round"/>
<path d="M81.3771 208.417C81.3771 208.208 81.4139 208.013 81.4201 207.805H81.3403C81.3403 207.805 81.3771 208.429 81.3771 208.417Z" fill="#47C2C9" stroke="#263238" stroke-linecap="round" stroke-linejoin="round"/>
<path d="M76.6175 174.879C74.5261 175.877 59.8367 200.265 58.6898 202.346C57.9293 203.723 55.8807 207.242 56.4941 208.19L64.0871 205.326C68.1413 202.193 76.7157 187.988 76.7157 187.988C76.7157 187.988 77.7461 195.24 78.9482 198.704C80.089 201.984 81.6162 204.212 81.4015 207.817L103.31 208.459C102.635 207.235 102.206 207.027 102.083 206.495C101.721 204.628 103.641 200.485 103.666 198.594C103.69 196.703 105.125 193.086 105.125 193.086C105.125 193.086 111.467 207.107 112.921 208.288C114.374 209.469 118.441 210.124 118.214 205.73C117.987 201.336 110.578 184.341 109.278 181.385C107.977 178.429 106.346 176.378 103.206 176.678C102.082 176.782 100.968 176.962 99.869 177.217L90.7671 188.276L84.2842 177.223C82.1375 176.464 78.709 173.881 76.6175 174.879Z" fill="#263238" stroke="#263238" stroke-linecap="round" stroke-linejoin="round"/>
<path d="M81.6225 206.728C81.6225 206.728 70.0244 216.734 69.7606 226.152C69.6686 229.42 70.2942 236.722 75.894 237.493C81.4937 238.264 106.297 237.493 106.297 237.493C106.297 237.493 108.229 236.911 109.364 230.375C110.498 223.839 102.04 207.119 102.04 207.119L81.6225 206.728Z" fill="#263238" stroke="#263238" stroke-linecap="round" stroke-linejoin="round"/>
<path d="M90.1599 210.712C90.1599 210.712 88.0439 213.331 87.7066 213.459C87.3692 213.588 87.0012 214.61 86.2959 216.14C85.5906 217.67 85.7868 217.805 86.621 217.419C87.4551 217.034 88.2831 215.314 88.2831 215.314L89.8839 214.292C89.8839 214.292 91.4847 210.265 90.1599 210.712Z" fill="white" stroke="#263238" stroke-linecap="round" stroke-linejoin="round"/>
<path d="M111.86 203.692C111.86 203.692 109.879 206.366 105.272 208.411C100.666 210.455 96.1951 209.843 93.6743 209.959C91.1535 210.075 90.7732 209.506 89.6999 211.519C88.6265 213.533 89.5833 219.059 90.1047 219.414C90.626 219.769 90.718 217.217 90.718 217.217C90.718 217.217 91.178 219.665 91.914 219.714C92.65 219.763 92.8831 217.627 92.8831 217.627C92.8831 217.627 93.5332 219.133 94.1097 218.931C94.6863 218.729 94.582 217.095 94.582 217.095C94.582 217.095 95.3057 218.043 95.6615 217.523C96.0172 217.003 95.1647 213.851 95.1647 213.851C95.1647 213.851 98.4276 214.384 99.6236 213.98C100.355 213.719 100.995 213.251 101.464 212.633C104.656 212.649 107.845 212.461 111.013 212.07C114.626 211.458 119.631 207.731 118.471 205.412C117.312 203.092 113.467 202.572 113.467 202.572" fill="#FFBE9D"/>
<path d="M111.86 203.692C111.86 203.692 109.879 206.366 105.272 208.411C100.666 210.455 96.1951 209.843 93.6743 209.959C91.1535 210.075 90.7732 209.506 89.6999 211.519C88.6265 213.533 89.5833 219.059 90.1047 219.414C90.626 219.769 90.718 217.217 90.718 217.217C90.718 217.217 91.178 219.665 91.914 219.714C92.65 219.763 92.8831 217.627 92.8831 217.627C92.8831 217.627 93.5332 219.133 94.1097 218.931C94.6863 218.729 94.582 217.095 94.582 217.095C94.582 217.095 95.3057 218.043 95.6615 217.523C96.0172 217.003 95.1647 213.851 95.1647 213.851C95.1647 213.851 98.4276 214.384 99.6236 213.98C100.355 213.719 100.995 213.251 101.464 212.633C104.656 212.649 107.845 212.461 111.013 212.07C114.626 211.458 119.631 207.731 118.471 205.412C117.312 203.092 113.467 202.572 113.467 202.572" stroke="#263238" stroke-linecap="round" stroke-linejoin="round"/>
<path d="M94.57 217.125C94.57 217.125 93.3862 213.723 93.8524 212.364" stroke="#263238" stroke-linecap="round" stroke-linejoin="round"/>
<path d="M92.8524 217.627C92.8524 217.627 92.0489 214.335 92.2391 212.315" stroke="#263238" stroke-linecap="round" stroke-linejoin="round"/>
<path d="M90.6875 217.217C90.6875 217.217 90.0742 213.619 90.4913 212.817" stroke="#263238" stroke-linecap="round" stroke-linejoin="round"/>
<path d="M111.86 203.692C110.896 204.843 109.761 205.838 108.492 206.642C109.719 207.566 110.995 209.182 111.424 212.009C114.988 211.213 119.569 207.664 118.453 205.436C117.337 203.208 113.467 202.572 113.467 202.572" fill="#263238"/>
<path d="M111.86 203.692C110.896 204.843 109.761 205.838 108.492 206.642C109.719 207.566 110.995 209.182 111.424 212.009C114.988 211.213 119.569 207.664 118.453 205.436C117.337 203.208 113.467 202.572 113.467 202.572" stroke="#263238" stroke-linecap="round" stroke-linejoin="round"/>
<path d="M75.6607 196.195C76.5724 195.971 77.4614 195.664 78.3165 195.277C79.6842 194.665 80.6287 193.282 81.0458 193.808C81.4629 194.334 81.1623 195.289 80.3711 195.962C79.3864 196.655 78.3488 197.268 77.2677 197.798C77.2677 197.798 74.7775 197.309 75.6607 196.195Z" fill="white" stroke="#263238" stroke-linecap="round" stroke-linejoin="round"/>
<path d="M69.92 201.581C69.92 201.581 73.048 193.3 74.4709 193.276C75.8938 193.251 82.6405 194.445 82.3216 195.112C82.0026 195.779 81.193 195.987 80.3834 195.956C79.0916 195.74 77.8136 195.448 76.5562 195.081L75.673 196.189C75.673 196.189 78.7888 197.082 79.2672 197.309C79.7456 197.535 81.5917 199.353 81.1072 200.075C80.6226 200.797 80.4448 200.467 80.4448 200.467C80.5951 200.882 80.5951 201.337 80.4448 201.752C80.1688 202.327 79.8805 202.193 79.8805 202.193C79.8671 202.341 79.8192 202.485 79.7404 202.612C79.6617 202.739 79.5544 202.846 79.427 202.924C79.2996 203.003 79.1556 203.051 79.0065 203.064C78.8574 203.077 78.7072 203.055 78.568 203C77.8688 202.731 77.8565 201.403 76.9978 201.513C76.0226 201.63 75.8632 201.458 75.8632 201.458C74.9334 202.348 73.948 203.178 72.913 203.943C72.0885 204.459 71.1384 204.74 70.1653 204.757C70.1653 204.757 64.4245 209.586 59.5608 210.191C54.145 210.865 55.985 205.051 58.696 202.339C61.4069 199.628 69.92 201.581 69.92 201.581Z" fill="#FFBE9D" stroke="#263238" stroke-linecap="round" stroke-linejoin="round"/>
<path d="M80.4571 200.473C80.4571 200.473 79.4267 198.778 78.752 198.459C77.8156 198.161 76.8553 197.944 75.8816 197.811" stroke="#263238" stroke-linecap="round" stroke-linejoin="round"/>
<path d="M79.8745 202.199C79.8745 202.199 78.2859 199.879 77.7891 199.849C77.2923 199.818 75.667 199.555 75.667 199.555" stroke="#263238" stroke-linecap="round" stroke-linejoin="round"/>
<path d="M60.8733 205.418C61.1684 203.71 61.992 202.137 63.2285 200.92C61.3885 200.993 59.6651 201.36 58.6899 202.346C55.9789 205.057 54.1389 210.871 59.5547 210.197C60.6718 210.035 61.7627 209.726 62.7992 209.279C61.7197 208.392 60.6832 207.082 60.8733 205.418Z" fill="#263238" stroke="#263238" stroke-linecap="round" stroke-linejoin="round"/>
<path d="M102.181 167.309C102.605 169.145 102.286 170.779 101.476 170.981C100.666 171.183 99.636 169.824 99.2373 167.988C98.8387 166.152 99.1331 164.518 99.9488 164.316C100.765 164.114 101.758 165.473 102.181 167.309Z" stroke="white" stroke-linecap="round" stroke-linejoin="round"/>
<path d="M85.4006 168.477C85.4006 170.252 84.7259 171.684 83.9286 171.678C83.1313 171.672 82.5118 170.222 82.5302 168.447C82.5486 166.672 83.2049 165.24 84.0267 165.24C84.8486 165.24 85.419 166.703 85.4006 168.477Z" stroke="white" stroke-linecap="round" stroke-linejoin="round"/>
<path d="M91.0616 152.259C91.0616 152.259 89.2216 152.694 89.2216 154.095C89.2216 155.497 89.4117 155.98 88.3322 156.415C87.2528 156.849 86.6762 157.204 86.8418 158.202C87.0074 159.2 87.4552 159.499 86.0813 159.732C84.7074 159.965 84.8117 159.053 84.5234 160.375C84.2352 161.696 84.18 162.094 83.677 162.18C83.1741 162.266 83.7936 166.629 85.0018 169.23C86.2101 171.831 89.0376 175.699 90.7365 175.925C92.4354 176.152 94.6189 174.089 96.14 172.333C97.5077 170.748 99.5317 165.895 99.5317 165.895L99.9672 165.436C99.9672 165.436 100.734 165.436 100.936 164.377C100.936 164.377 100.789 162.743 99.961 162.376C99.1701 161.92 98.5548 161.214 98.213 160.368C98.1517 159.995 98.5626 159.42 98.0045 159.144C97.4464 158.869 96.508 158.624 96.2381 157.78C95.9682 156.935 96.8944 155.625 95.7965 155.173C94.6986 154.72 94.116 155.075 93.9565 154.206C93.797 153.337 94.2877 152.37 93.4536 151.99C92.6194 151.611 91.0616 152.259 91.0616 152.259Z" fill="#FFBE9D" stroke="#263238" stroke-linecap="round" stroke-linejoin="round"/>
<path d="M88.6266 163.765C88.7554 164.536 88.6267 165.209 88.2832 165.264C87.9397 165.32 87.5962 164.732 87.4674 163.961C87.3386 163.19 87.4674 162.51 87.8109 162.462C88.1544 162.413 88.4917 162.988 88.6266 163.765Z" fill="#263238"/>
<path d="M94.3246 163.845C94.3246 164.628 94.0486 165.265 93.7112 165.258C93.3739 165.252 93.1286 164.646 93.1408 163.832C93.1531 163.018 93.4168 162.413 93.7542 162.413C94.0915 162.413 94.3368 163.055 94.3246 163.845Z" fill="#263238"/>
<path d="M88.9333 169.732C88.9333 169.732 90.16 171.348 93.6192 169.732" stroke="#263238" stroke-linecap="round" stroke-linejoin="round"/>
<path d="M85.3821 161.678C85.3821 161.678 87.1178 159.842 89.1847 161.066" stroke="#263238" stroke-linecap="round" stroke-linejoin="round"/>
<path d="M91.8835 160.956C91.8835 160.956 94.1713 159.383 96.6553 162.021" stroke="#263238" stroke-linecap="round" stroke-linejoin="round"/>
<path d="M89.5958 165.883C89.4825 166.161 89.4242 166.458 89.4241 166.758C89.4994 167.104 89.7016 167.409 89.9909 167.614C90.2803 167.819 90.6359 167.909 90.9881 167.865C91.1988 167.847 91.4019 167.778 91.5798 167.663C91.7578 167.549 91.9053 167.394 92.0096 167.21C92.114 167.026 92.1721 166.82 92.179 166.609C92.1859 166.398 92.1413 166.189 92.0491 165.999" stroke="#263238" stroke-linecap="round" stroke-linejoin="round"/>
<path d="M93.9319 221.299C92.9665 221.442 92.0506 221.818 91.2639 222.395C87.6698 225.02 88.5959 230.963 88.4733 234.867C88.322 239.808 88.1625 244.743 87.9949 249.672C87.7557 256.93 87.6453 264.207 87.1791 271.453C86.8234 277.01 85.2533 285.663 86.4493 291.575C87.6453 297.487 90.7426 296.184 92.417 290.731C94.0914 285.278 91.8037 274.659 91.5951 272.26C91.4357 270.388 100.041 242.064 102.353 229.237C103.206 224.494 98.2805 220.632 93.9319 221.299Z" fill="#FFBE9D" stroke="#263238" stroke-linecap="round" stroke-linejoin="round"/>
<path d="M89.5466 284.77C87.9642 284.409 86.9215 282.462 86.2714 280.633C85.9402 284.47 85.7868 288.411 86.4247 291.575C87.6514 297.481 90.718 296.183 92.3924 290.731C93.0057 288.674 93.0855 285.884 92.9138 283.074C92.1042 284.207 90.9818 285.088 89.5466 284.77Z" fill="#263238" stroke="#263238" stroke-linecap="round" stroke-linejoin="round"/>
<path d="M79.3836 220.859C80.3574 220.821 81.3257 221.021 82.205 221.44C86.2162 223.362 86.4063 229.353 87.2527 233.19C88.3199 238.013 89.3891 242.833 90.4604 247.652C92.0367 254.739 93.4903 261.875 95.2935 268.907C96.6735 274.298 99.8138 282.518 99.7279 288.546C99.642 294.574 96.3484 293.87 93.705 288.815C91.0615 283.76 91.3559 272.903 91.1044 270.51C90.9081 268.674 77.2124 242.389 72.5695 230.21C70.8522 225.706 74.986 221.005 79.3836 220.859Z" fill="#FFBE9D" stroke="#263238" stroke-linecap="round" stroke-linejoin="round"/>
<path d="M95.404 282.438C96.8944 281.789 97.5568 279.684 97.8573 277.768C98.8939 281.477 99.7709 285.327 99.6973 288.546C99.6176 294.574 96.3179 293.87 93.6744 288.815C92.6808 286.912 92.0981 284.182 91.7485 281.391C92.8096 282.346 94.0731 283.013 95.404 282.438Z" fill="#263238" stroke="#263238" stroke-linecap="round" stroke-linejoin="round"/>
<path d="M105.947 197.48H68.1904V220.883H105.947V197.48Z" fill="#C9C9C9" stroke="#263238" stroke-linecap="round" stroke-linejoin="round"/>
<path d="M105.947 220.351H68.1904V221.703H105.947V220.351Z" fill="#C9C9C9" stroke="#263238" stroke-linecap="round" stroke-linejoin="round"/>
</svg>
