<svg width="528" height="378" viewBox="0 0 528 378" fill="none" xmlns="http://www.w3.org/2000/svg">
<path d="M172.498 356.272C210.74 356.272 241.741 354.001 241.741 351.2C241.741 348.398 210.74 346.127 172.498 346.127C134.256 346.127 103.254 348.398 103.254 351.2C103.254 354.001 134.256 356.272 172.498 356.272Z" fill="#47C2C9"/>
<path d="M65.7207 341.032H458.462" stroke="#263238" stroke-width="1.25903" stroke-linecap="round" stroke-linejoin="round"/>
<path d="M423.524 250.818H410.603V249.669C410.602 249.133 410.71 248.603 410.921 248.111C411.132 247.619 411.44 247.175 411.828 246.806C412.215 246.437 412.674 246.152 413.175 245.967C413.677 245.782 414.21 245.701 414.744 245.73L419.805 246.01C420.809 246.064 421.754 246.502 422.446 247.233C423.138 247.964 423.523 248.933 423.524 249.941V250.818Z" fill="#47C2C9"/>
<mask id="mask0_70_5103" style="mask-type:luminance" maskUnits="userSpaceOnUse" x="410" y="245" width="14" height="6">
<path d="M423.524 250.818H410.603V249.669C410.602 249.133 410.71 248.603 410.921 248.111C411.132 247.619 411.44 247.175 411.828 246.806C412.215 246.437 412.674 246.152 413.175 245.967C413.677 245.782 414.21 245.701 414.744 245.73L419.805 246.01C420.809 246.064 421.754 246.502 422.446 247.233C423.138 247.964 423.523 248.933 423.524 249.941V250.818Z" fill="white"/>
</mask>
<g mask="url(#mask0_70_5103)">
<path opacity="0.8" d="M423.524 250.818H410.603V249.669C410.602 249.133 410.71 248.603 410.921 248.111C411.132 247.619 411.44 247.175 411.828 246.806C412.215 246.437 412.674 246.152 413.175 245.967C413.677 245.782 414.21 245.701 414.744 245.73L419.805 246.01C420.809 246.064 421.754 246.502 422.446 247.233C423.138 247.964 423.523 248.933 423.524 249.941V250.818Z" fill="white"/>
</g>
<path d="M423.524 250.818H410.603V249.669C410.602 249.133 410.71 248.603 410.921 248.111C411.132 247.619 411.44 247.175 411.828 246.806C412.215 246.437 412.674 246.152 413.175 245.967C413.677 245.782 414.21 245.701 414.744 245.73L419.805 246.01C420.809 246.064 421.754 246.502 422.446 247.233C423.138 247.964 423.523 248.933 423.524 249.941V250.818Z" stroke="#263238" stroke-width="1.25903" stroke-linecap="round" stroke-linejoin="round"/>
<path d="M388.638 224.048C388.615 223.557 388.403 223.093 388.048 222.754C387.693 222.415 387.221 222.226 386.73 222.226H373.673C373.183 222.227 372.712 222.417 372.357 222.756C372.002 223.095 371.79 223.557 371.765 224.048L374.88 251.325H394.371L388.638 224.048Z" fill="#47C2C9" stroke="#263238" stroke-width="1.25903" stroke-linecap="round" stroke-linejoin="round"/>
<path d="M424.097 182.12H419.232L413.771 233.604H418.629C419.029 233.594 419.413 233.441 419.711 233.172C420.008 232.903 420.2 232.536 420.25 232.137L425.417 183.579C425.443 183.393 425.427 183.204 425.372 183.025C425.316 182.845 425.223 182.68 425.097 182.541C424.971 182.402 424.816 182.292 424.644 182.22C424.471 182.147 424.284 182.113 424.097 182.12Z" fill="#47C2C9" stroke="#263238" stroke-width="1.25903" stroke-linecap="round" stroke-linejoin="round"/>
<path d="M416.577 233.604H343.66C343.474 233.608 343.289 233.571 343.118 233.497C342.947 233.422 342.794 233.311 342.67 233.172C342.546 233.032 342.454 232.868 342.4 232.689C342.345 232.511 342.33 232.322 342.355 232.137L347.514 183.557C347.563 183.16 347.753 182.793 348.05 182.525C348.346 182.257 348.729 182.106 349.128 182.098H422.045C422.231 182.093 422.416 182.128 422.587 182.202C422.758 182.276 422.91 182.386 423.035 182.525C423.159 182.663 423.251 182.828 423.306 183.006C423.36 183.184 423.375 183.372 423.35 183.557L418.191 232.137C418.142 232.535 417.952 232.902 417.656 233.171C417.36 233.441 416.977 233.594 416.577 233.604Z" fill="#47C2C9"/>
<mask id="mask1_70_5103" style="mask-type:luminance" maskUnits="userSpaceOnUse" x="342" y="182" width="82" height="52">
<path d="M416.577 233.604H343.66C343.474 233.608 343.289 233.571 343.118 233.497C342.947 233.422 342.794 233.311 342.67 233.172C342.546 233.032 342.454 232.868 342.4 232.689C342.345 232.511 342.33 232.322 342.355 232.137L347.514 183.557C347.563 183.16 347.753 182.793 348.05 182.525C348.346 182.257 348.729 182.106 349.128 182.098H422.045C422.231 182.093 422.416 182.128 422.587 182.202C422.758 182.276 422.91 182.386 423.035 182.525C423.159 182.663 423.251 182.828 423.306 183.006C423.36 183.184 423.375 183.372 423.35 183.557L418.191 232.137C418.142 232.535 417.952 232.902 417.656 233.171C417.36 233.441 416.977 233.594 416.577 233.604Z" fill="white"/>
</mask>
<g mask="url(#mask1_70_5103)">
<path opacity="0.4" d="M416.577 233.604H343.66C343.474 233.608 343.289 233.571 343.118 233.497C342.947 233.422 342.794 233.311 342.67 233.172C342.546 233.032 342.454 232.868 342.4 232.689C342.345 232.511 342.33 232.322 342.355 232.137L347.514 183.557C347.563 183.16 347.753 182.793 348.05 182.525C348.346 182.257 348.729 182.106 349.128 182.098H422.045C422.231 182.093 422.416 182.128 422.587 182.202C422.758 182.276 422.91 182.386 423.035 182.525C423.159 182.663 423.251 182.828 423.306 183.006C423.36 183.184 423.375 183.372 423.35 183.557L418.191 232.137C418.142 232.535 417.952 232.902 417.656 233.171C417.36 233.441 416.977 233.594 416.577 233.604Z" fill="white"/>
</g>
<path d="M416.577 233.604H343.66C343.474 233.608 343.289 233.571 343.118 233.497C342.947 233.422 342.794 233.311 342.67 233.172C342.546 233.032 342.454 232.868 342.4 232.689C342.345 232.511 342.33 232.322 342.355 232.137L347.514 183.557C347.563 183.16 347.753 182.793 348.05 182.525C348.346 182.257 348.729 182.106 349.128 182.098H422.045C422.231 182.093 422.416 182.128 422.587 182.202C422.758 182.276 422.91 182.386 423.035 182.525C423.159 182.663 423.251 182.828 423.306 183.006C423.36 183.184 423.375 183.372 423.35 183.557L418.191 232.137C418.142 232.535 417.952 232.902 417.656 233.171C417.36 233.441 416.977 233.594 416.577 233.604Z" stroke="#263238" stroke-width="1.25903" stroke-linecap="round" stroke-linejoin="round"/>
<path d="M395.087 249.2H371.109C370.829 249.2 370.56 249.312 370.362 249.51C370.164 249.709 370.053 249.978 370.053 250.259C370.053 250.54 370.164 250.81 370.362 251.01C370.559 251.209 370.828 251.323 371.109 251.325H395.08C395.361 251.323 395.629 251.209 395.827 251.01C396.025 250.81 396.136 250.54 396.136 250.259C396.136 249.979 396.026 249.711 395.829 249.513C395.633 249.315 395.366 249.202 395.087 249.2Z" fill="#47C2C9" stroke="#263238" stroke-width="1.25903" stroke-linecap="round" stroke-linejoin="round"/>
<path d="M415.212 228.871H346.451C346.288 228.875 346.127 228.843 345.978 228.778C345.829 228.714 345.696 228.617 345.588 228.496C345.479 228.374 345.399 228.231 345.351 228.075C345.303 227.919 345.29 227.755 345.312 227.594L349.838 185.205C349.879 184.857 350.045 184.536 350.304 184.301C350.564 184.067 350.899 183.934 351.248 183.927H419.986C420.148 183.925 420.309 183.957 420.457 184.023C420.606 184.088 420.739 184.184 420.847 184.305C420.955 184.427 421.035 184.57 421.083 184.725C421.132 184.88 421.146 185.044 421.125 185.205L416.6 227.594C416.557 227.937 416.394 228.254 416.14 228.488C415.885 228.722 415.557 228.858 415.212 228.871Z" fill="#47C2C9"/>
<mask id="mask2_70_5103" style="mask-type:luminance" maskUnits="userSpaceOnUse" x="345" y="183" width="77" height="46">
<path d="M415.212 228.871H346.451C346.288 228.875 346.127 228.843 345.978 228.778C345.829 228.714 345.696 228.617 345.588 228.496C345.479 228.374 345.399 228.231 345.351 228.075C345.303 227.919 345.29 227.755 345.312 227.594L349.838 185.205C349.879 184.857 350.045 184.536 350.304 184.301C350.564 184.067 350.899 183.934 351.248 183.927H419.986C420.148 183.925 420.309 183.957 420.457 184.023C420.606 184.088 420.739 184.184 420.847 184.305C420.955 184.427 421.035 184.57 421.083 184.725C421.132 184.88 421.146 185.044 421.125 185.205L416.6 227.594C416.557 227.937 416.394 228.254 416.14 228.488C415.885 228.722 415.557 228.858 415.212 228.871Z" fill="white"/>
</mask>
<g mask="url(#mask2_70_5103)">
<path opacity="0.8" d="M415.212 228.871H346.451C346.288 228.875 346.127 228.843 345.978 228.778C345.829 228.714 345.696 228.617 345.588 228.496C345.479 228.374 345.399 228.231 345.351 228.075C345.303 227.919 345.29 227.755 345.312 227.594L349.838 185.205C349.879 184.857 350.045 184.536 350.304 184.301C350.564 184.067 350.899 183.934 351.248 183.927H419.986C420.148 183.925 420.309 183.957 420.457 184.023C420.606 184.088 420.739 184.184 420.847 184.305C420.955 184.427 421.035 184.57 421.083 184.725C421.132 184.88 421.146 185.044 421.125 185.205L416.6 227.594C416.557 227.937 416.394 228.254 416.14 228.488C415.885 228.722 415.557 228.858 415.212 228.871Z" fill="white"/>
</g>
<path d="M415.212 228.871H346.451C346.288 228.875 346.127 228.843 345.978 228.778C345.829 228.714 345.696 228.617 345.588 228.496C345.479 228.374 345.399 228.231 345.351 228.075C345.303 227.919 345.29 227.755 345.312 227.594L349.838 185.205C349.879 184.857 350.045 184.536 350.304 184.301C350.564 184.067 350.899 183.934 351.248 183.927H419.986C420.148 183.925 420.309 183.957 420.457 184.023C420.606 184.088 420.739 184.184 420.847 184.305C420.955 184.427 421.035 184.57 421.083 184.725C421.132 184.88 421.146 185.044 421.125 185.205L416.6 227.594C416.557 227.937 416.394 228.254 416.14 228.488C415.885 228.722 415.557 228.858 415.212 228.871Z" stroke="#263238" stroke-width="1.25903" stroke-linecap="round" stroke-linejoin="round"/>
<path d="M260.093 258.181H265.712V339.897C265.712 340.196 265.594 340.483 265.383 340.694C265.172 340.905 264.886 341.024 264.588 341.024H261.224C260.926 341.024 260.64 340.905 260.429 340.694C260.219 340.483 260.1 340.196 260.1 339.897V258.181H260.093Z" fill="#47C2C9" stroke="#263238" stroke-width="1.25903" stroke-linecap="round" stroke-linejoin="round"/>
<path d="M434.069 250.818H385.357V258.182H434.069V250.818Z" fill="#47C2C9"/>
<mask id="mask3_70_5103" style="mask-type:luminance" maskUnits="userSpaceOnUse" x="385" y="250" width="50" height="9">
<path d="M434.069 250.818H385.357V258.182H434.069V250.818Z" fill="white"/>
</mask>
<g mask="url(#mask3_70_5103)">
<path opacity="0.4" d="M434.069 250.818H385.357V258.182H434.069V250.818Z" fill="white"/>
</g>
<path d="M434.069 250.818H385.357V258.182H434.069V250.818Z" stroke="#263238" stroke-width="1.25903" stroke-linecap="round" stroke-linejoin="round"/>
<path d="M294.926 258.181H300.545V339.897C300.545 340.196 300.427 340.483 300.216 340.694C300.005 340.905 299.719 341.024 299.421 341.024H296.057C295.909 341.025 295.762 340.996 295.625 340.94C295.488 340.884 295.363 340.801 295.258 340.697C295.152 340.592 295.069 340.467 295.012 340.33C294.955 340.193 294.926 340.046 294.926 339.897V258.181Z" fill="#47C2C9" stroke="#263238" stroke-width="1.25903" stroke-linecap="round" stroke-linejoin="round"/>
<path d="M425.206 258.181H430.825V339.897C430.825 340.196 430.707 340.483 430.496 340.694C430.286 340.905 430 341.024 429.702 341.024H426.337C426.039 341.024 425.754 340.905 425.543 340.694C425.332 340.483 425.214 340.196 425.214 339.897V258.181H425.206Z" fill="#47C2C9" stroke="#263238" stroke-width="1.25903" stroke-linecap="round" stroke-linejoin="round"/>
<path d="M399.251 250.818H256.842V258.182H399.251V250.818Z" fill="#47C2C9"/>
<mask id="mask4_70_5103" style="mask-type:luminance" maskUnits="userSpaceOnUse" x="256" y="250" width="144" height="9">
<path d="M399.251 250.818H256.842V258.182H399.251V250.818Z" fill="white"/>
</mask>
<g mask="url(#mask4_70_5103)">
<path opacity="0.7" d="M399.251 250.818H256.842V258.182H399.251V250.818Z" fill="white"/>
</g>
<path d="M399.251 250.818H256.842V258.182H399.251V250.818Z" stroke="#263238" stroke-width="1.25903" stroke-linecap="round" stroke-linejoin="round"/>
<path d="M390.388 258.181H396V339.897C396 340.196 395.882 340.483 395.671 340.694C395.46 340.905 395.174 341.024 394.876 341.024H391.474C391.176 341.024 390.891 340.905 390.68 340.694C390.469 340.483 390.351 340.196 390.351 339.897V258.181H390.388Z" fill="#47C2C9" stroke="#263238" stroke-width="1.25903" stroke-linecap="round" stroke-linejoin="round"/>
<path d="M387.846 247.786H347.19V250.818H387.846V247.786Z" fill="#47C2C9"/>
<mask id="mask5_70_5103" style="mask-type:luminance" maskUnits="userSpaceOnUse" x="347" y="247" width="41" height="4">
<path d="M387.846 247.786H347.19V250.818H387.846V247.786Z" fill="white"/>
</mask>
<g mask="url(#mask5_70_5103)">
<path opacity="0.4" d="M387.846 247.786H347.19V250.818H387.846V247.786Z" fill="white"/>
</g>
<path d="M387.846 247.786H347.19V250.818H387.846V247.786Z" stroke="#263238" stroke-width="1.25903" stroke-linecap="round" stroke-linejoin="round"/>
<path d="M85.2867 341.032H153.037V250.675H85.2867L85.2867 341.032Z" fill="#47C2C9"/>
<mask id="mask6_70_5103" style="mask-type:luminance" maskUnits="userSpaceOnUse" x="85" y="250" width="69" height="92">
<path d="M85.2867 341.032H153.037V250.675H85.2867L85.2867 341.032Z" fill="white"/>
</mask>
<g mask="url(#mask6_70_5103)">
<path opacity="0.7" d="M85.2867 341.032H153.037V250.675H85.2867L85.2867 341.032Z" fill="white"/>
</g>
<path d="M85.2867 341.032H153.037V250.675H85.2867L85.2867 341.032Z" stroke="#263238" stroke-width="1.25903" stroke-linecap="round" stroke-linejoin="round"/>
<path d="M72.3582 341.032H85.2866L85.2866 250.675H72.3582L72.3582 341.032Z" fill="#47C2C9"/>
<mask id="mask7_70_5103" style="mask-type:luminance" maskUnits="userSpaceOnUse" x="72" y="250" width="14" height="92">
<path d="M72.3582 341.032H85.2866L85.2866 250.675H72.3582L72.3582 341.032Z" fill="white"/>
</mask>
<g mask="url(#mask7_70_5103)">
<path opacity="0.3" d="M72.3582 341.032H85.2866L85.2866 250.675H72.3582L72.3582 341.032Z" fill="white"/>
</g>
<path d="M72.3582 341.032H85.2866L85.2866 250.675H72.3582L72.3582 341.032Z" stroke="#263238" stroke-width="1.25903" stroke-linecap="round" stroke-linejoin="round"/>
<path d="M89.6845 279.319H148.292V257.373H89.6845V279.319Z" fill="white" stroke="#263238" stroke-width="1.25903" stroke-linecap="round" stroke-linejoin="round"/>
<path d="M89.6845 303.655H148.292V281.708H89.6845V303.655Z" fill="white" stroke="#263238" stroke-width="1.25903" stroke-linecap="round" stroke-linejoin="round"/>
<path d="M89.6845 327.998H148.292V306.052H89.6845V327.998Z" fill="white" stroke="#263238" stroke-width="1.25903" stroke-linecap="round" stroke-linejoin="round"/>
<path d="M116.544 268.38C116.544 268.865 116.688 269.338 116.956 269.741C117.225 270.144 117.607 270.458 118.053 270.643C118.5 270.828 118.991 270.877 119.465 270.782C119.939 270.688 120.375 270.455 120.716 270.112C121.058 269.77 121.291 269.333 121.385 268.858C121.48 268.383 121.431 267.89 121.246 267.443C121.061 266.995 120.748 266.613 120.346 266.343C119.944 266.074 119.472 265.931 118.988 265.931C118.667 265.931 118.35 265.994 118.053 266.117C117.757 266.24 117.487 266.421 117.26 266.648C117.033 266.876 116.853 267.146 116.73 267.443C116.608 267.74 116.544 268.058 116.544 268.38Z" fill="#47C2C9" stroke="#263238" stroke-width="1.25903" stroke-linecap="round" stroke-linejoin="round"/>
<path d="M116.544 292.686C116.543 293.17 116.685 293.645 116.953 294.048C117.22 294.452 117.601 294.767 118.048 294.954C118.494 295.14 118.986 295.19 119.46 295.096C119.935 295.003 120.371 294.77 120.714 294.428C121.056 294.086 121.29 293.649 121.385 293.174C121.48 292.698 121.432 292.205 121.247 291.757C121.062 291.309 120.749 290.926 120.347 290.657C119.945 290.387 119.472 290.244 118.988 290.244C118.341 290.244 117.721 290.501 117.263 290.958C116.805 291.416 116.546 292.037 116.544 292.686Z" fill="#47C2C9" stroke="#263238" stroke-width="1.25903" stroke-linecap="round" stroke-linejoin="round"/>
<path d="M116.544 317.029C116.544 317.513 116.688 317.987 116.956 318.389C117.225 318.792 117.607 319.106 118.053 319.292C118.5 319.477 118.991 319.525 119.465 319.431C119.939 319.336 120.375 319.103 120.716 318.761C121.058 318.418 121.291 317.982 121.385 317.506C121.48 317.031 121.431 316.539 121.246 316.091C121.061 315.644 120.748 315.261 120.346 314.992C119.944 314.723 119.472 314.579 118.988 314.579C118.667 314.579 118.35 314.642 118.053 314.766C117.757 314.889 117.487 315.069 117.26 315.297C117.033 315.524 116.853 315.794 116.73 316.091C116.608 316.388 116.544 316.707 116.544 317.029Z" fill="#47C2C9" stroke="#263238" stroke-width="1.25903" stroke-linecap="round" stroke-linejoin="round"/>
<path d="M378.787 82.177H356.023V222.082H378.787C380.436 222.083 382.069 221.759 383.593 221.127C385.116 220.495 386.501 219.569 387.667 218.4C388.834 217.232 389.759 215.845 390.39 214.318C391.021 212.792 391.346 211.155 391.346 209.503V94.7568C391.346 93.1042 391.021 91.4677 390.39 89.941C389.759 88.4143 388.834 87.0271 387.667 85.8589C386.501 84.6906 385.116 83.7642 383.593 83.1324C382.069 82.5007 380.436 82.176 378.787 82.177Z" fill="#263238" stroke="#263238" stroke-width="1.25903" stroke-linecap="round" stroke-linejoin="round"/>
<path d="M374.043 82.177H182.884C175.952 82.177 170.333 87.8092 170.333 94.7568V209.51C170.333 216.458 175.952 222.09 182.884 222.09H374.043C380.975 222.09 386.594 216.458 386.594 209.51V94.7568C386.594 87.8092 380.975 82.177 374.043 82.177Z" fill="#47C2C9" stroke="#263238" stroke-width="1.25903" stroke-linecap="round" stroke-linejoin="round"/>
<path d="M369.638 86.9172H367.699C365.866 86.9172 364.38 88.4065 364.38 90.2436V92.1866C364.38 94.0237 365.866 95.513 367.699 95.513H369.638C371.471 95.513 372.957 94.0237 372.957 92.1866V90.2436C372.957 88.4065 371.471 86.9172 369.638 86.9172Z" fill="#999999" stroke="#263238" stroke-width="1.25903" stroke-linecap="round" stroke-linejoin="round"/>
<mask id="mask8_70_5103" style="mask-type:luminance" maskUnits="userSpaceOnUse" x="181" y="86" width="10" height="10">
<path d="M190.306 91.2189C190.306 92.07 190.055 92.902 189.583 93.6095C189.111 94.3171 188.44 94.8684 187.655 95.1938C186.871 95.5192 186.007 95.6039 185.174 95.4373C184.342 95.2707 183.577 94.8603 182.977 94.2579C182.377 93.6556 181.969 92.8884 181.804 92.0534C181.639 91.2185 181.726 90.3534 182.052 89.5675C182.378 88.7816 182.929 88.1103 183.636 87.6385C184.342 87.1668 185.173 86.9157 186.022 86.9172C186.585 86.9172 187.143 87.0286 187.663 87.2448C188.184 87.4611 188.656 87.7781 189.054 88.1776C189.452 88.5772 189.768 89.0514 189.982 89.5733C190.197 90.0951 190.307 90.6543 190.306 91.2189Z" fill="white"/>
</mask>
<g mask="url(#mask8_70_5103)">
<path opacity="0.5" d="M190.306 91.2189C190.306 92.07 190.055 92.902 189.583 93.6095C189.111 94.3171 188.44 94.8684 187.655 95.1938C186.871 95.5192 186.007 95.6039 185.174 95.4373C184.342 95.2707 183.577 94.8603 182.977 94.2579C182.377 93.6556 181.969 92.8884 181.804 92.0534C181.639 91.2185 181.726 90.3534 182.052 89.5675C182.378 88.7816 182.929 88.1103 183.636 87.6385C184.342 87.1668 185.173 86.9157 186.022 86.9172C186.585 86.9172 187.143 87.0286 187.663 87.2448C188.184 87.4611 188.656 87.7781 189.054 88.1776C189.452 88.5772 189.768 89.0514 189.982 89.5733C190.197 90.0951 190.307 90.6543 190.306 91.2189Z" fill="black"/>
</g>
<path d="M190.306 91.2189C190.306 92.07 190.055 92.902 189.583 93.6095C189.111 94.3171 188.44 94.8684 187.655 95.1938C186.871 95.5192 186.007 95.6039 185.174 95.4373C184.342 95.2707 183.577 94.8603 182.977 94.2579C182.377 93.6556 181.969 92.8884 181.804 92.0534C181.639 91.2185 181.726 90.3534 182.052 89.5675C182.378 88.7816 182.929 88.1103 183.636 87.6385C184.342 87.1668 185.173 86.9157 186.022 86.9172C186.585 86.9172 187.143 87.0286 187.663 87.2448C188.184 87.4611 188.656 87.7781 189.054 88.1776C189.452 88.5772 189.768 89.0514 189.982 89.5733C190.197 90.0951 190.307 90.6543 190.306 91.2189Z" stroke="#263238" stroke-width="1.25903" stroke-linecap="round" stroke-linejoin="round"/>
<mask id="mask9_70_5103" style="mask-type:luminance" maskUnits="userSpaceOnUse" x="208" y="86" width="9" height="10">
<path d="M212.671 95.5205C215.042 95.5205 216.963 93.5946 216.963 91.2189C216.963 88.8431 215.042 86.9172 212.671 86.9172C210.301 86.9172 208.379 88.8431 208.379 91.2189C208.379 93.5946 210.301 95.5205 212.671 95.5205Z" fill="white"/>
</mask>
<g mask="url(#mask9_70_5103)">
<path opacity="0.5" d="M212.671 95.5205C215.042 95.5205 216.963 93.5946 216.963 91.2189C216.963 88.8431 215.042 86.9172 212.671 86.9172C210.301 86.9172 208.379 88.8431 208.379 91.2189C208.379 93.5946 210.301 95.5205 212.671 95.5205Z" fill="white" stroke="#263238" stroke-width="1.25903" stroke-linecap="round" stroke-linejoin="round"/>
</g>
<path d="M212.671 95.5205C215.042 95.5205 216.963 93.5946 216.963 91.2189C216.963 88.8431 215.042 86.9172 212.671 86.9172C210.301 86.9172 208.379 88.8431 208.379 91.2189C208.379 93.5946 210.301 95.5205 212.671 95.5205Z" stroke="#263238" stroke-width="1.25903" stroke-linecap="round" stroke-linejoin="round"/>
<path d="M199.343 95.5205C201.713 95.5205 203.635 93.5946 203.635 91.2189C203.635 88.8431 201.713 86.9172 199.343 86.9172C196.972 86.9172 195.051 88.8431 195.051 91.2189C195.051 93.5946 196.972 95.5205 199.343 95.5205Z" stroke="#263238" stroke-width="1.25903" stroke-linecap="round" stroke-linejoin="round"/>
<path d="M374.043 100.261H182.892C179.105 100.261 176.036 103.337 176.036 107.133V209.503C176.036 213.298 179.105 216.375 182.892 216.375H374.043C377.83 216.375 380.9 213.298 380.9 209.503V107.133C380.9 103.337 377.83 100.261 374.043 100.261Z" fill="#47C2C9"/>
<mask id="mask10_70_5103" style="mask-type:luminance" maskUnits="userSpaceOnUse" x="176" y="100" width="205" height="117">
<path d="M374.043 100.261H182.892C179.105 100.261 176.036 103.337 176.036 107.133V209.503C176.036 213.298 179.105 216.375 182.892 216.375H374.043C377.83 216.375 380.9 213.298 380.9 209.503V107.133C380.9 103.337 377.83 100.261 374.043 100.261Z" fill="white"/>
</mask>
<g mask="url(#mask10_70_5103)">
<path opacity="0.3" d="M374.043 100.261H182.892C179.105 100.261 176.036 103.337 176.036 107.133V209.503C176.036 213.298 179.105 216.375 182.892 216.375H374.043C377.83 216.375 380.9 213.298 380.9 209.503V107.133C380.9 103.337 377.83 100.261 374.043 100.261Z" fill="black"/>
</g>
<path d="M374.043 100.261H182.892C179.105 100.261 176.036 103.337 176.036 107.133V209.503C176.036 213.298 179.105 216.375 182.892 216.375H374.043C377.83 216.375 380.9 213.298 380.9 209.503V107.133C380.9 103.337 377.83 100.261 374.043 100.261Z" stroke="#263238" stroke-width="1.25903" stroke-linecap="round" stroke-linejoin="round"/>
<path d="M234.734 105.016H182.884C181.722 105.016 180.78 105.96 180.78 107.125V209.503C180.78 210.668 181.722 211.612 182.884 211.612H234.734C235.896 211.612 236.838 210.668 236.838 209.503V107.125C236.838 105.96 235.896 105.016 234.734 105.016Z" fill="#999999" stroke="#263238" stroke-width="1.25903" stroke-linecap="round" stroke-linejoin="round"/>
<path d="M307.387 105.016H248.884C247.722 105.016 246.78 105.96 246.78 107.125V209.503C246.78 210.668 247.722 211.612 248.884 211.612H307.387C308.549 211.612 309.491 210.668 309.491 209.503V107.125C309.491 105.96 308.549 105.016 307.387 105.016Z" fill="#47C2C9"/>
<mask id="mask11_70_5103" style="mask-type:luminance" maskUnits="userSpaceOnUse" x="246" y="105" width="64" height="107">
<path d="M307.387 105.016H248.884C247.722 105.016 246.78 105.96 246.78 107.125V209.503C246.78 210.668 247.722 211.612 248.884 211.612H307.387C308.549 211.612 309.491 210.668 309.491 209.503V107.125C309.491 105.96 308.549 105.016 307.387 105.016Z" fill="white"/>
</mask>
<g mask="url(#mask11_70_5103)">
<path opacity="0.8" d="M307.387 105.016H248.884C247.722 105.016 246.78 105.96 246.78 107.125V209.503C246.78 210.668 247.722 211.612 248.884 211.612H307.387C308.549 211.612 309.491 210.668 309.491 209.503V107.125C309.491 105.96 308.549 105.016 307.387 105.016Z" fill="white"/>
</g>
<path d="M307.387 105.016H248.884C247.722 105.016 246.78 105.96 246.78 107.125V209.503C246.78 210.668 247.722 211.612 248.884 211.612H307.387C308.549 211.612 309.491 210.668 309.491 209.503V107.125C309.491 105.96 308.549 105.016 307.387 105.016Z" stroke="#263238" stroke-width="1.25903" stroke-linecap="round" stroke-linejoin="round"/>
<path d="M371.041 105.016H323.755C323.246 105.018 322.759 105.222 322.4 105.583C322.04 105.944 321.839 106.434 321.839 106.944V112.75H372.957V106.944C372.957 106.434 372.755 105.944 372.396 105.583C372.037 105.222 371.55 105.018 371.041 105.016Z" fill="#47C2C9" stroke="#263238" stroke-width="1.25903" stroke-linecap="round" stroke-linejoin="round"/>
<path d="M366.508 107.352H371.064" stroke="#263238" stroke-width="1.25903" stroke-linecap="round" stroke-linejoin="round"/>
<path d="M366.508 108.879H371.064" stroke="#263238" stroke-width="1.25903" stroke-linecap="round" stroke-linejoin="round"/>
<path d="M371.064 110.399H366.508" stroke="#263238" stroke-width="1.25903" stroke-linecap="round" stroke-linejoin="round"/>
<path d="M347.402 112.75L346.217 107.934C346.012 107.101 345.534 106.361 344.86 105.832C344.186 105.304 343.355 105.016 342.499 105.016H323.755C323.246 105.018 322.759 105.222 322.4 105.583C322.04 105.944 321.839 106.434 321.839 106.944V135.951C321.839 136.461 322.041 136.949 322.4 137.309C322.759 137.669 323.247 137.872 323.755 137.872H371.041C371.549 137.872 372.036 137.669 372.396 137.309C372.755 136.949 372.957 136.461 372.957 135.951V112.75H347.402Z" fill="#999999" stroke="#263238" stroke-width="1.25903" stroke-linecap="round" stroke-linejoin="round"/>
<path d="M179.98 205.329H199.682C200.127 205.329 200.482 205.14 200.482 204.906V184.418C200.482 184.184 200.127 183.995 199.682 183.995H179.98C179.543 183.995 179.181 184.184 179.181 184.418V204.876C179.181 205.14 179.52 205.329 179.98 205.329Z" fill="#47C2C9"/>
<mask id="mask12_70_5103" style="mask-type:luminance" maskUnits="userSpaceOnUse" x="179" y="183" width="22" height="23">
<path d="M179.98 205.329H199.682C200.127 205.329 200.482 205.14 200.482 204.906V184.418C200.482 184.184 200.127 183.995 199.682 183.995H179.98C179.543 183.995 179.181 184.184 179.181 184.418V204.876C179.181 205.14 179.52 205.329 179.98 205.329Z" fill="white"/>
</mask>
<g mask="url(#mask12_70_5103)">
<path opacity="0.3" d="M179.98 205.329H199.682C200.127 205.329 200.482 205.14 200.482 204.906V184.418C200.482 184.184 200.127 183.995 199.682 183.995H179.98C179.543 183.995 179.181 184.184 179.181 184.418V204.876C179.181 205.14 179.52 205.329 179.98 205.329Z" fill="black"/>
</g>
<path d="M179.98 205.329H199.682C200.127 205.329 200.482 205.14 200.482 204.906V184.418C200.482 184.184 200.127 183.995 199.682 183.995H179.98C179.543 183.995 179.181 184.184 179.181 184.418V204.876C179.181 205.14 179.52 205.329 179.98 205.329Z" stroke="#263238" stroke-width="1.25903" stroke-linecap="round" stroke-linejoin="round"/>
<path d="M204.645 205.329H224.347C224.785 205.329 225.147 205.14 225.147 204.906V184.418C225.147 184.184 224.785 183.995 224.347 183.995H204.645C204.2 183.995 203.846 184.184 203.846 184.418V204.876C203.846 205.14 204.2 205.329 204.645 205.329Z" fill="#47C2C9" stroke="#263238" stroke-width="1.25903" stroke-linecap="round" stroke-linejoin="round"/>
<path d="M189.477 180.472H209.179C209.624 180.472 209.978 180.283 209.978 180.049V159.561C209.978 159.327 209.624 159.138 209.179 159.138H189.477C189.039 159.138 188.677 159.327 188.677 159.561V180.049C188.677 180.283 189.039 180.472 189.477 180.472Z" fill="#47C2C9" stroke="#263238" stroke-width="1.25903" stroke-linecap="round" stroke-linejoin="round"/>
<path d="M214.142 180.472H233.829C234.266 180.472 234.628 180.283 234.628 180.049V159.561C234.628 159.327 234.266 159.138 233.829 159.138H214.142C213.697 159.138 213.342 159.327 213.342 159.561V180.049C213.342 180.283 213.697 180.472 214.142 180.472Z" fill="#47C2C9" stroke="#263238" stroke-width="1.25903" stroke-linecap="round" stroke-linejoin="round"/>
<path d="M187.576 155.615H207.278C207.723 155.615 208.085 155.426 208.085 155.191V134.704C208.085 134.47 207.723 134.281 207.278 134.281H187.576C187.138 134.281 186.776 134.47 186.776 134.704V155.191C186.776 155.426 187.138 155.615 187.576 155.615Z" fill="#47C2C9"/>
<mask id="mask13_70_5103" style="mask-type:luminance" maskUnits="userSpaceOnUse" x="186" y="134" width="23" height="22">
<path d="M187.576 155.615H207.278C207.723 155.615 208.085 155.426 208.085 155.191V134.704C208.085 134.47 207.723 134.281 207.278 134.281H187.576C187.138 134.281 186.776 134.47 186.776 134.704V155.191C186.776 155.426 187.138 155.615 187.576 155.615Z" fill="white"/>
</mask>
<g mask="url(#mask13_70_5103)">
<path opacity="0.5" d="M187.576 155.615H207.278C207.723 155.615 208.085 155.426 208.085 155.191V134.704C208.085 134.47 207.723 134.281 207.278 134.281H187.576C187.138 134.281 186.776 134.47 186.776 134.704V155.191C186.776 155.426 187.138 155.615 187.576 155.615Z" fill="white"/>
</g>
<path d="M187.576 155.615H207.278C207.723 155.615 208.085 155.426 208.085 155.191V134.704C208.085 134.47 207.723 134.281 207.278 134.281H187.576C187.138 134.281 186.776 134.47 186.776 134.704V155.191C186.776 155.426 187.138 155.615 187.576 155.615Z" stroke="#263238" stroke-width="1.25903" stroke-linecap="round" stroke-linejoin="round"/>
<path d="M212.241 155.615H231.943C232.388 155.615 232.742 155.426 232.742 155.191V134.704C232.742 134.47 232.388 134.281 231.943 134.281H212.241C211.796 134.281 211.441 134.47 211.441 134.704V155.191C211.441 155.426 211.796 155.615 212.241 155.615Z" fill="#47C2C9" stroke="#263238" stroke-width="1.25903" stroke-linecap="round" stroke-linejoin="round"/>
<path d="M187.576 130.788H207.278C207.723 130.788 208.085 130.599 208.085 130.365V109.847C208.085 109.612 207.723 109.423 207.278 109.423H187.576C187.138 109.423 186.776 109.612 186.776 109.847V130.334C186.776 130.569 187.138 130.788 187.576 130.788Z" fill="#47C2C9" stroke="#263238" stroke-width="1.25903" stroke-linecap="round" stroke-linejoin="round"/>
<path d="M212.241 130.788H231.943C232.388 130.788 232.742 130.599 232.742 130.365V109.847C232.742 109.612 232.388 109.423 231.943 109.423H212.241C211.796 109.423 211.441 109.612 211.441 109.847V130.334C211.441 130.569 211.796 130.788 212.241 130.788Z" fill="#47C2C9"/>
<mask id="mask14_70_5103" style="mask-type:luminance" maskUnits="userSpaceOnUse" x="211" y="109" width="22" height="22">
<path d="M212.241 130.788H231.943C232.388 130.788 232.742 130.599 232.742 130.365V109.847C232.742 109.612 232.388 109.423 231.943 109.423H212.241C211.796 109.423 211.441 109.612 211.441 109.847V130.334C211.441 130.569 211.796 130.788 212.241 130.788Z" fill="white"/>
</mask>
<g mask="url(#mask14_70_5103)">
<path opacity="0.7" d="M212.241 130.788H231.943C232.388 130.788 232.742 130.599 232.742 130.365V109.847C232.742 109.612 232.388 109.423 231.943 109.423H212.241C211.796 109.423 211.441 109.612 211.441 109.847V130.334C211.441 130.569 211.796 130.788 212.241 130.788Z" fill="white"/>
</g>
<path d="M212.241 130.788H231.943C232.388 130.788 232.742 130.599 232.742 130.365V109.847C232.742 109.612 232.388 109.423 231.943 109.423H212.241C211.796 109.423 211.441 109.612 211.441 109.847V130.334C211.441 130.569 211.796 130.788 212.241 130.788Z" stroke="#263238" stroke-width="1.25903" stroke-linecap="round" stroke-linejoin="round"/>
<path d="M366.862 186.732H319.584C319.075 186.736 318.588 186.94 318.228 187.301C317.868 187.662 317.664 188.15 317.66 188.66V217.728C317.66 217.981 317.71 218.232 317.807 218.466C317.903 218.7 318.045 218.912 318.223 219.091C318.402 219.27 318.614 219.412 318.848 219.509C319.081 219.606 319.331 219.656 319.584 219.656H366.862C367.372 219.654 367.86 219.45 368.22 219.089C368.58 218.728 368.784 218.239 368.786 217.728V188.682C368.788 188.428 368.739 188.175 368.644 187.939C368.548 187.703 368.407 187.488 368.228 187.307C368.049 187.126 367.837 186.982 367.602 186.883C367.368 186.784 367.116 186.733 366.862 186.732Z" fill="#263238" stroke="#263238" stroke-width="1.25903" stroke-linecap="round" stroke-linejoin="round"/>
<path d="M363.679 185.81H316.4C315.892 185.81 315.404 186.012 315.043 186.372C314.683 186.731 314.479 187.22 314.477 187.73V193.536H365.603V187.73C365.601 187.22 365.397 186.731 365.036 186.372C364.676 186.012 364.188 185.81 363.679 185.81Z" fill="#47C2C9" stroke="#263238" stroke-width="1.25903" stroke-linecap="round" stroke-linejoin="round"/>
<path d="M359.146 188.153H363.702" stroke="#263238" stroke-width="1.25903" stroke-linecap="round" stroke-linejoin="round"/>
<path d="M359.146 189.673H363.702" stroke="#263238" stroke-width="1.25903" stroke-linecap="round" stroke-linejoin="round"/>
<path d="M363.702 191.192H359.146" stroke="#263238" stroke-width="1.25903" stroke-linecap="round" stroke-linejoin="round"/>
<path d="M340.04 193.536L338.863 188.728C338.658 187.895 338.18 187.155 337.506 186.626C336.832 186.097 336 185.81 335.144 185.81H316.4C315.892 185.81 315.404 186.012 315.043 186.372C314.683 186.731 314.479 187.22 314.477 187.73V216.738C314.479 217.248 314.682 217.737 315.043 218.098C315.403 218.46 315.891 218.663 316.4 218.665H363.679C364.189 218.665 364.678 218.462 365.039 218.101C365.4 217.739 365.603 217.249 365.603 216.738V193.536H340.04Z" fill="#999999" stroke="#263238" stroke-width="1.25903" stroke-linecap="round" stroke-linejoin="round"/>
<path d="M364.954 142.823H317.668C317.351 142.815 317.038 142.885 316.755 143.028C316.472 143.17 316.228 143.381 316.046 143.64C315.834 143.961 315.722 144.336 315.722 144.721V173.721C315.722 174.231 315.923 174.72 316.282 175.082C316.641 175.443 317.129 175.647 317.638 175.649H364.924C365.433 175.647 365.92 175.443 366.279 175.082C366.638 174.72 366.84 174.231 366.84 173.721V144.751C366.84 144.246 366.642 143.762 366.29 143.401C365.937 143.041 365.457 142.833 364.954 142.823Z" fill="#263238" stroke="#263238" stroke-width="1.25903" stroke-linecap="round" stroke-linejoin="round"/>
<path d="M363.679 141.432H316.4C315.892 141.432 315.404 141.634 315.043 141.994C314.683 142.354 314.479 142.843 314.477 143.353V149.159H365.603V143.353C365.601 142.843 365.397 142.354 365.036 141.994C364.676 141.634 364.188 141.432 363.679 141.432Z" fill="#47C2C9" stroke="#263238" stroke-width="1.25903" stroke-linecap="round" stroke-linejoin="round"/>
<path d="M359.146 143.776H363.702" stroke="#263238" stroke-width="1.25903" stroke-linecap="round" stroke-linejoin="round"/>
<path d="M359.146 145.296H363.702" stroke="#263238" stroke-width="1.25903" stroke-linecap="round" stroke-linejoin="round"/>
<path d="M363.702 146.815H359.146" stroke="#263238" stroke-width="1.25903" stroke-linecap="round" stroke-linejoin="round"/>
<path d="M340.04 149.159L338.863 144.351C338.658 143.518 338.18 142.778 337.506 142.249C336.832 141.72 336 141.433 335.144 141.432H316.4C315.892 141.432 315.404 141.634 315.043 141.994C314.683 142.354 314.479 142.843 314.477 143.353V172.368C314.477 172.879 314.68 173.37 315.04 173.731C315.401 174.093 315.89 174.296 316.4 174.296H363.679C364.189 174.296 364.678 174.093 365.039 173.731C365.4 173.37 365.603 172.879 365.603 172.368V149.159H340.04Z" fill="#999999" stroke="#263238" stroke-width="1.25903" stroke-linecap="round" stroke-linejoin="round"/>
<path d="M186.422 230.807H206.124C206.569 230.807 206.924 230.618 206.924 230.383V209.896C206.924 209.661 206.569 209.472 206.124 209.472H186.422C185.985 209.472 185.623 209.661 185.623 209.896V230.383C185.623 230.618 185.985 230.807 186.422 230.807Z" fill="#47C2C9" stroke="#263238" stroke-width="1.25903" stroke-linecap="round" stroke-linejoin="round"/>
<path d="M338.124 211.362H290.837C290.327 211.362 289.838 211.565 289.477 211.927C289.117 212.288 288.914 212.779 288.914 213.29V219.089H340.04V213.29C340.04 212.78 339.838 212.291 339.479 211.93C339.12 211.568 338.632 211.364 338.124 211.362Z" fill="#47C2C9" stroke="#263238" stroke-width="1.25903" stroke-linecap="round" stroke-linejoin="round"/>
<path d="M333.583 213.706H338.139" stroke="#263238" stroke-width="1.25903" stroke-linecap="round" stroke-linejoin="round"/>
<path d="M333.583 215.226H338.139" stroke="#263238" stroke-width="1.25903" stroke-linecap="round" stroke-linejoin="round"/>
<path d="M338.139 216.745H333.583" stroke="#263238" stroke-width="1.25903" stroke-linecap="round" stroke-linejoin="round"/>
<path d="M314.477 219.089L313.3 214.28C313.095 213.448 312.617 212.708 311.943 212.179C311.269 211.65 310.437 211.363 309.581 211.362H290.837C290.327 211.362 289.838 211.565 289.477 211.927C289.117 212.288 288.914 212.779 288.914 213.29V242.29C288.914 242.802 289.117 243.292 289.477 243.653C289.838 244.015 290.327 244.218 290.837 244.218H338.124C338.632 244.216 339.12 244.012 339.479 243.651C339.838 243.289 340.04 242.8 340.04 242.29V219.089H314.477Z" fill="#999999" stroke="#263238" stroke-width="1.25903" stroke-linecap="round" stroke-linejoin="round"/>
<path d="M372.957 76.7566H376.517" stroke="#263238" stroke-width="1.25903" stroke-linecap="round" stroke-linejoin="round"/>
<path d="M359.146 76.7566H368.786" stroke="#263238" stroke-width="1.25903" stroke-linecap="round" stroke-linejoin="round"/>
<path d="M255.447 76.7566H350.728" stroke="#263238" stroke-width="1.25903" stroke-linecap="round" stroke-linejoin="round"/>
<path d="M244.683 76.7566H250.378" stroke="#263238" stroke-width="1.25903" stroke-linecap="round" stroke-linejoin="round"/>
<path d="M298.471 192.629C298.531 191.873 298.569 191.117 298.569 190.361C298.569 189.605 298.531 188.849 298.471 188.093L291.456 187.185C291.087 184.515 290.252 181.93 288.989 179.55L294.171 174.636C293.366 173.332 292.463 172.091 291.471 170.924L285.256 174.318C283.388 172.379 281.198 170.78 278.784 169.593L280.089 162.623C278.674 162.039 277.217 161.566 275.729 161.209L272.712 167.62C270.065 167.146 267.356 167.146 264.709 167.62L261.692 161.209C260.204 161.566 258.746 162.039 257.332 162.623L258.637 169.593C256.222 170.78 254.033 172.379 252.165 174.318L245.897 170.909C244.896 172.078 243.989 173.325 243.182 174.636L248.326 179.504C247.058 181.883 246.22 184.468 245.852 187.14L238.837 188.047C238.776 188.803 238.739 189.559 238.739 190.315C238.739 191.071 238.776 191.827 238.837 192.583L245.852 193.498C246.221 196.167 247.059 198.749 248.326 201.126L243.182 206.002C243.982 207.307 244.882 208.549 245.874 209.714L252.09 206.312C253.955 208.254 256.145 209.853 258.561 211.037L257.256 218.007C258.671 218.594 260.128 219.069 261.616 219.429L264.633 213.01C267.28 213.484 269.99 213.484 272.636 213.01L275.654 219.429C277.141 219.069 278.599 218.594 280.013 218.007L278.708 211.037C281.124 209.853 283.315 208.254 285.18 206.312L291.395 209.714C292.387 208.547 293.29 207.306 294.096 206.002L288.952 201.126C290.222 198.762 291.069 196.193 291.456 193.536L298.471 192.629ZM268.654 173.199C271.273 173.204 273.857 173.813 276.203 174.98C278.55 176.147 280.597 177.84 282.186 179.928L271.188 185.016C270.397 184.638 269.531 184.441 268.654 184.441C267.777 184.441 266.911 184.638 266.119 185.016L255.122 179.928C256.711 177.841 258.758 176.148 261.105 174.982C263.451 173.815 266.034 173.205 268.654 173.199ZM251.562 190.33C251.561 188.119 251.989 185.929 252.821 183.882L262.77 190.912C262.854 191.758 263.118 192.576 263.545 193.311C263.972 194.045 264.551 194.679 265.244 195.169L266.346 207.265C262.256 206.709 258.505 204.688 255.787 201.575C253.069 198.462 251.568 194.467 251.562 190.33ZM270.962 207.287L272.063 195.191C272.758 194.703 273.338 194.07 273.765 193.335C274.193 192.6 274.456 191.782 274.537 190.935L284.486 183.904C285.474 186.324 285.896 188.938 285.719 191.546C285.542 194.154 284.77 196.687 283.465 198.95C282.159 201.213 280.353 203.146 278.185 204.6C276.018 206.055 273.547 206.992 270.962 207.34V207.287Z" fill="#263238" stroke="#263238" stroke-width="1.25903" stroke-linecap="round" stroke-linejoin="round"/>
<path d="M271.143 190.33C271.144 190.824 271 191.307 270.727 191.719C270.454 192.13 270.066 192.451 269.611 192.641C269.157 192.831 268.656 192.881 268.173 192.786C267.689 192.69 267.245 192.453 266.896 192.105C266.547 191.756 266.31 191.312 266.213 190.828C266.116 190.343 266.165 189.841 266.353 189.385C266.541 188.929 266.86 188.539 267.27 188.264C267.679 187.99 268.161 187.843 268.654 187.843C269.313 187.843 269.945 188.105 270.411 188.571C270.878 189.038 271.141 189.67 271.143 190.33Z" fill="white" stroke="#263238" stroke-width="1.25903" stroke-linecap="round" stroke-linejoin="round"/>
<path d="M298.373 140.941C298.418 140.397 298.441 139.852 298.441 139.293C298.441 138.733 298.441 138.197 298.373 137.652L293.357 137.002C293.094 135.093 292.496 133.245 291.592 131.544L295.273 128.059C294.697 127.127 294.051 126.239 293.342 125.405L288.891 127.839C287.558 126.449 285.99 125.305 284.26 124.46L285.195 119.471C284.191 119.059 283.157 118.722 282.103 118.465L279.931 123.046C278.038 122.704 276.099 122.704 274.206 123.046L272.041 118.465C270.971 118.712 269.922 119.041 268.903 119.448L269.838 124.437C268.111 125.283 266.546 126.427 265.214 127.817L260.772 125.382C260.06 126.215 259.414 127.102 258.841 128.036L262.491 131.544C261.59 133.246 260.993 135.094 260.726 137.002L255.71 137.652C255.673 138.197 255.643 138.741 255.643 139.293C255.643 139.845 255.643 140.397 255.71 140.941L260.726 141.591C260.993 143.5 261.59 145.347 262.491 147.049L258.818 150.535C259.393 151.465 260.039 152.349 260.749 153.181L265.192 150.754C266.527 152.139 268.091 153.283 269.816 154.133L268.88 159.115C269.893 159.535 270.937 159.874 272.003 160.128L274.168 155.547C276.062 155.879 277.999 155.879 279.893 155.547L282.065 160.128C283.128 159.873 284.17 159.534 285.18 159.115L284.245 154.133C285.972 153.283 287.539 152.139 288.876 150.754L293.319 153.181C294.027 152.348 294.672 151.463 295.25 150.535L291.569 147.049C292.474 145.348 293.071 143.501 293.334 141.591L298.373 140.941ZM277.057 127.046C278.927 127.046 280.772 127.478 282.448 128.308C284.125 129.138 285.589 130.343 286.727 131.831L278.867 135.468C278.301 135.199 277.683 135.059 277.057 135.059C276.431 135.059 275.812 135.199 275.246 135.468L267.379 131.831C268.518 130.343 269.983 129.137 271.661 128.307C273.339 127.478 275.185 127.046 277.057 127.046ZM264.83 139.293C264.83 137.711 265.137 136.145 265.735 134.681L272.848 139.709C272.909 140.311 273.098 140.893 273.404 141.415C273.71 141.937 274.125 142.386 274.62 142.733L275.375 151.396C272.457 150.992 269.783 149.544 267.845 147.32C265.907 145.096 264.837 142.245 264.83 139.293ZM278.701 151.389L279.493 142.725C279.986 142.377 280.4 141.927 280.705 141.405C281.011 140.883 281.202 140.303 281.266 139.701L288.371 134.674C289.075 136.403 289.375 138.27 289.248 140.133C289.12 141.996 288.568 143.805 287.635 145.421C286.701 147.037 285.41 148.417 283.862 149.456C282.313 150.494 280.548 151.163 278.701 151.412V151.389Z" fill="#757575" stroke="#263238" stroke-width="1.25903" stroke-linecap="round" stroke-linejoin="round"/>
<path d="M277.056 141.077C278.04 141.077 278.837 140.278 278.837 139.293C278.837 138.308 278.04 137.509 277.056 137.509C276.073 137.509 275.276 138.308 275.276 139.293C275.276 140.278 276.073 141.077 277.056 141.077Z" fill="white" stroke="#263238" stroke-width="1.25903" stroke-linecap="round" stroke-linejoin="round"/>
<path d="M243.687 212.61C243.687 212.247 243.74 211.854 243.74 211.521C243.74 211.189 243.74 210.765 243.687 210.425L240.345 209.987C240.172 208.714 239.773 207.483 239.169 206.35L241.62 204.029C241.238 203.408 240.81 202.816 240.338 202.26L237.374 203.878C236.484 202.949 235.44 202.182 234.289 201.61L234.907 198.291C234.235 198.009 233.541 197.782 232.833 197.611L231.385 200.635C230.755 200.519 230.116 200.461 229.476 200.461C228.836 200.462 228.198 200.52 227.568 200.635L226.127 197.611C225.417 197.783 224.721 198.01 224.045 198.291L224.671 201.61C223.519 202.18 222.475 202.947 221.586 203.878L218.622 202.26C218.148 202.814 217.719 203.406 217.34 204.029L219.791 206.35C219.184 207.482 218.783 208.714 218.607 209.987L215.265 210.425C215.265 210.788 215.22 211.181 215.22 211.521C215.22 211.861 215.22 212.277 215.265 212.61L218.607 213.048C218.783 214.321 219.184 215.553 219.791 216.685L217.332 219.006C217.717 219.627 218.148 220.219 218.622 220.775L221.586 219.157C222.473 220.09 223.517 220.858 224.671 221.425L224.045 224.744C224.721 225.025 225.417 225.252 226.127 225.424L227.568 222.362C228.198 222.477 228.836 222.536 229.476 222.536C230.116 222.536 230.755 222.478 231.385 222.362L232.833 225.424C233.541 225.253 234.235 225.026 234.907 224.744L234.289 221.425C235.442 220.856 236.486 220.088 237.374 219.157L240.338 220.775C240.81 220.219 241.238 219.627 241.62 219.006L239.169 216.685C239.773 215.552 240.172 214.321 240.345 213.048L243.687 212.61ZM229.476 203.364C230.724 203.363 231.954 203.651 233.073 204.204C234.191 204.757 235.167 205.562 235.925 206.554L230.683 208.981C230.306 208.801 229.894 208.707 229.476 208.709C229.059 208.709 228.647 208.802 228.269 208.981L223.027 206.554C223.786 205.563 224.763 204.76 225.881 204.206C226.999 203.653 228.229 203.365 229.476 203.364ZM221.33 211.536C221.33 210.481 221.535 209.436 221.933 208.459L226.67 211.809C226.711 212.213 226.838 212.603 227.042 212.954C227.247 213.305 227.524 213.608 227.854 213.842L228.383 219.618C226.428 219.353 224.636 218.386 223.339 216.897C222.043 215.408 221.329 213.498 221.33 211.521V211.536ZM230.577 219.618L231.105 213.842C231.435 213.607 231.711 213.304 231.914 212.953C232.117 212.603 232.243 212.212 232.282 211.809L237.027 208.459C237.493 209.612 237.691 210.857 237.604 212.098C237.517 213.339 237.149 214.544 236.527 215.621C235.904 216.697 235.045 217.617 234.014 218.31C232.983 219.003 231.807 219.45 230.577 219.618Z" fill="white" stroke="#263238" stroke-width="1.25903" stroke-linecap="round" stroke-linejoin="round"/>
<path d="M230.66 211.521C230.66 211.756 230.591 211.985 230.461 212.181C230.331 212.376 230.146 212.528 229.929 212.618C229.713 212.708 229.475 212.731 229.245 212.685C229.015 212.639 228.804 212.526 228.639 212.36C228.473 212.194 228.36 211.983 228.315 211.753C228.269 211.522 228.293 211.284 228.382 211.067C228.472 210.85 228.624 210.665 228.818 210.534C229.013 210.404 229.242 210.334 229.476 210.334C229.79 210.334 230.092 210.459 230.314 210.682C230.536 210.904 230.66 211.206 230.66 211.521Z" stroke="#263238" stroke-width="1.25903" stroke-linecap="round" stroke-linejoin="round"/>
<path d="M140.177 218.303L175.213 215.4L156.944 288.202L129.3 331.672L118.151 325.836C118.151 325.836 131.14 293.812 140.637 282.071C140.637 282.071 142.658 258.824 144.499 246.653C144.499 246.653 141.051 229.65 140.177 218.303Z" fill="#858585"/>
<mask id="mask15_70_5103" style="mask-type:luminance" maskUnits="userSpaceOnUse" x="118" y="215" width="58" height="117">
<path d="M140.177 218.303L175.213 215.4L156.944 288.202L129.3 331.672L118.151 325.836C118.151 325.836 131.14 293.812 140.637 282.071C140.637 282.071 142.658 258.824 144.499 246.653C144.499 246.653 141.051 229.65 140.177 218.303Z" fill="white"/>
</mask>
<g mask="url(#mask15_70_5103)">
<path d="M164.517 216.284L149.349 217.539C149.349 217.539 148.142 233.287 159.773 245.269L165.189 255.332L170.582 233.831L164.517 216.284Z" fill="#263238" stroke="#263238" stroke-width="1.25903" stroke-linecap="round" stroke-linejoin="round"/>
</g>
<path d="M140.177 218.303L175.213 215.4L156.944 288.202L129.3 331.672L118.151 325.836C118.151 325.836 131.14 293.812 140.637 282.071C140.637 282.071 142.658 258.824 144.499 246.653C144.499 246.653 141.051 229.65 140.177 218.303Z" stroke="#263238" stroke-width="1.25903" stroke-linecap="round" stroke-linejoin="round"/>
<path d="M140.297 287.318C139.641 287.677 139.039 288.128 138.509 288.656" stroke="#263238" stroke-width="1.25903" stroke-linecap="round" stroke-linejoin="round"/>
<path d="M143.012 281.754C143.012 281.754 149.846 280.559 151.257 285.322C152.365 289.049 147.387 285.541 142.469 286.547" stroke="#263238" stroke-width="1.25903" stroke-linecap="round" stroke-linejoin="round"/>
<path d="M151.264 218.25L179.263 214.175L197.532 271.737L212.814 323.568L200.248 328.482C200.248 328.482 185.449 296.412 182.039 278.941C182.039 278.941 168.379 255.626 163.529 244.43C159.68 241.247 156.584 237.247 154.463 232.72C152.342 228.193 151.25 223.251 151.264 218.25Z" fill="#999999" stroke="#263238" stroke-width="1.25903" stroke-linecap="round" stroke-linejoin="round"/>
<path d="M177.129 243.969C178.352 244.108 179.52 244.555 180.523 245.269" stroke="#263238" stroke-width="1.25903" stroke-linecap="round" stroke-linejoin="round"/>
<path d="M174.511 237.331C172.49 239.047 164.381 239.728 166.282 243.046C167.413 245.02 170.566 244.188 173.938 243.939" stroke="#263238" stroke-width="1.25903" stroke-linecap="round" stroke-linejoin="round"/>
<path d="M183.91 277.709C183.91 277.709 188.043 275.086 191.37 277.709" stroke="#263238" stroke-width="1.25903" stroke-linecap="round" stroke-linejoin="round"/>
<path d="M132.882 348.834L108.791 335.15L109.454 333.57L110.412 333.857C110.412 333.857 111.974 331.589 115.851 326.842C116.929 323.468 118.541 320.29 120.625 317.429C120.625 317.429 135.915 322.291 133.448 328.066L130.182 333.774C131.677 336.307 133.313 338.753 135.085 341.1C135.085 341.1 138.675 343.413 139.611 343.61C140.037 343.673 140.445 343.828 140.807 344.063C141.168 344.297 141.476 344.607 141.708 344.971C141.94 345.335 142.092 345.745 142.153 346.172C142.214 346.6 142.183 347.036 142.062 347.45L142.99 347.647L142.401 349.295L132.882 348.834Z" fill="#47C2C9" stroke="#263238" stroke-width="1.25903" stroke-linecap="round" stroke-linejoin="round"/>
<path d="M125.966 319.569C124.225 318.749 122.436 318.034 120.61 317.429C118.526 320.29 116.914 323.468 115.835 326.842C122.285 330.848 125.966 319.569 125.966 319.569Z" fill="#47C2C9"/>
<mask id="mask16_70_5103" style="mask-type:luminance" maskUnits="userSpaceOnUse" x="115" y="317" width="11" height="11">
<path d="M125.966 319.569C124.225 318.749 122.436 318.034 120.61 317.429C118.526 320.29 116.914 323.468 115.835 326.842C122.285 330.848 125.966 319.569 125.966 319.569Z" fill="white"/>
</mask>
<g mask="url(#mask16_70_5103)">
<path opacity="0.5" d="M125.966 319.569C124.225 318.749 122.436 318.034 120.61 317.429C118.526 320.29 116.914 323.468 115.835 326.842C122.285 330.848 125.966 319.569 125.966 319.569Z" fill="black"/>
</g>
<path d="M125.966 319.569C124.225 318.749 122.436 318.034 120.61 317.429C118.526 320.29 116.914 323.468 115.835 326.842C122.285 330.848 125.966 319.569 125.966 319.569Z" stroke="#263238" stroke-width="1.25903" stroke-linecap="round" stroke-linejoin="round"/>
<path d="M131.027 335.067C130.638 335.638 130.103 336.094 129.478 336.386C128.853 336.679 128.161 336.798 127.474 336.73" stroke="#263238" stroke-width="1.25903" stroke-linecap="round" stroke-linejoin="round"/>
<path d="M132.392 337.123C132.392 337.123 132.037 338.779 129.45 339.504" stroke="#263238" stroke-width="1.25903" stroke-linecap="round" stroke-linejoin="round"/>
<path d="M133.772 339.195C133.772 339.195 134.233 340.812 131.449 342.309" stroke="#263238" stroke-width="1.25903" stroke-linecap="round" stroke-linejoin="round"/>
<path d="M135.651 346.853L140.327 347.193" stroke="#263238" stroke-width="1.25903" stroke-linecap="round" stroke-linejoin="round"/>
<path d="M114.84 336.382L132.988 346.656L134.625 344.57" stroke="#263238" stroke-width="1.25903" stroke-linecap="round" stroke-linejoin="round"/>
<path d="M112.072 334.817L113.324 335.528" stroke="#263238" stroke-width="1.25903" stroke-linecap="round" stroke-linejoin="round"/>
<path d="M198.256 326.675C198.256 326.675 211.833 318.147 214.67 323.749L216.887 329.941C216.887 329.941 227.809 331.604 231.136 330.886C231.549 330.775 231.981 330.753 232.403 330.822C232.825 330.89 233.228 331.048 233.584 331.285C233.941 331.521 234.243 331.831 234.471 332.194C234.699 332.557 234.848 332.964 234.907 333.388L235.835 333.192L235.971 334.938L204.042 347.193L203.287 345.681L204.125 345.137C204.125 345.137 203.438 342.491 202.314 336.435C200.447 333.421 199.077 330.126 198.256 326.675Z" fill="#47C2C9" stroke="#263238" stroke-width="1.25903" stroke-linecap="round" stroke-linejoin="round"/>
<path d="M203.348 323.976C201.598 324.773 199.898 325.674 198.256 326.675C199.081 330.121 200.454 333.412 202.322 336.42C209.533 334.099 203.348 323.976 203.348 323.976Z" fill="#47C2C9"/>
<mask id="mask17_70_5103" style="mask-type:luminance" maskUnits="userSpaceOnUse" x="198" y="323" width="8" height="14">
<path d="M203.348 323.976C201.598 324.773 199.898 325.674 198.256 326.675C199.081 330.121 200.454 333.412 202.322 336.42C209.533 334.099 203.348 323.976 203.348 323.976Z" fill="white"/>
</mask>
<g mask="url(#mask17_70_5103)">
<path opacity="0.5" d="M203.348 323.976C201.598 324.773 199.898 325.674 198.256 326.675C199.081 330.121 200.454 333.412 202.322 336.42C209.533 334.099 203.348 323.976 203.348 323.976Z" fill="black"/>
</g>
<path d="M203.348 323.976C201.598 324.773 199.898 325.674 198.256 326.675C199.081 330.121 200.454 333.412 202.322 336.42C209.533 334.099 203.348 323.976 203.348 323.976Z" stroke="#263238" stroke-width="1.25903" stroke-linecap="round" stroke-linejoin="round"/>
<path d="M232.139 334.515L233.632 333.94" stroke="#263238" stroke-width="1.25903" stroke-linecap="round" stroke-linejoin="round"/>
<path d="M211.713 342.347L230.246 335.241" stroke="#263238" stroke-width="1.25903" stroke-linecap="round" stroke-linejoin="round"/>
<path d="M205.437 344.751L208.085 343.738" stroke="#263238" stroke-width="1.25903" stroke-linecap="round" stroke-linejoin="round"/>
<path d="M218.403 330.153C218.584 330.819 218.582 331.521 218.399 332.186C218.216 332.851 217.858 333.454 217.362 333.933" stroke="#263238" stroke-width="1.25903" stroke-linecap="round" stroke-linejoin="round"/>
<path d="M220.847 330.44C220.847 330.44 221.873 331.786 220.757 334.22" stroke="#263238" stroke-width="1.25903" stroke-linecap="round" stroke-linejoin="round"/>
<path d="M223.321 330.727C223.321 330.727 224.83 331.423 224.181 334.507" stroke="#263238" stroke-width="1.25903" stroke-linecap="round" stroke-linejoin="round"/>
<path d="M131.774 140.246C129.02 143.469 127.214 147.394 126.554 151.586C125.37 158.722 119.765 173.941 121.568 175.075C123.371 176.209 140.327 188.683 140.327 188.683L147.764 181.78L137.204 168.293L142.439 145.371L131.774 140.246Z" fill="#47C2C9"/>
<mask id="mask18_70_5103" style="mask-type:luminance" maskUnits="userSpaceOnUse" x="121" y="140" width="27" height="49">
<path d="M131.774 140.246C129.02 143.469 127.214 147.394 126.554 151.586C125.37 158.722 119.765 173.941 121.568 175.075C123.371 176.209 140.327 188.683 140.327 188.683L147.764 181.78L137.204 168.293L142.439 145.371L131.774 140.246Z" fill="white"/>
</mask>
<g mask="url(#mask18_70_5103)">
<path opacity="0.3" d="M131.774 140.246C129.02 143.469 127.214 147.394 126.554 151.586C125.37 158.722 119.765 173.941 121.568 175.075C123.371 176.209 140.327 188.683 140.327 188.683L147.764 181.78L137.204 168.293L142.439 145.371L131.774 140.246Z" fill="black"/>
</g>
<path d="M131.774 140.246C129.02 143.469 127.214 147.394 126.554 151.586C125.37 158.722 119.765 173.941 121.568 175.075C123.371 176.209 140.327 188.683 140.327 188.683L147.764 181.78L137.204 168.293L142.439 145.371L131.774 140.246Z" stroke="#263238" stroke-width="1.25903" stroke-linecap="round" stroke-linejoin="round"/>
<path d="M124.615 172.073C125.752 170.988 127.161 170.232 128.692 169.885C130.223 169.537 131.82 169.612 133.312 170.1" stroke="#263238" stroke-width="1.25903" stroke-linecap="round" stroke-linejoin="round"/>
<path d="M109.085 206.048C111.13 207.971 113.648 209.316 116.381 209.945C119.115 210.574 121.966 210.464 124.643 209.627C127.32 208.789 129.727 207.255 131.619 205.179C133.511 203.104 134.819 200.563 135.409 197.815L257.528 155.577C259.684 157.375 262.277 158.568 265.043 159.032C267.809 159.497 270.649 159.217 273.272 158.221C275.895 157.226 278.207 155.55 279.972 153.365C281.736 151.18 282.891 148.565 283.317 145.787V143.882L271.543 147.957L265.388 142.597L266.708 135.793L278.482 131.725V129.82C276.437 127.895 273.919 126.548 271.184 125.918C268.45 125.288 265.598 125.397 262.919 126.235C260.241 127.072 257.832 128.608 255.94 130.684C254.048 132.761 252.74 135.304 252.15 138.053L130.031 180.291C127.876 178.493 125.282 177.3 122.516 176.836C119.75 176.371 116.91 176.651 114.288 177.647C111.665 178.642 109.353 180.318 107.588 182.503C105.823 184.687 104.668 187.303 104.242 190.081V192.024L116.017 187.949L122.172 193.302L120.859 200.106L109.085 204.12V206.048Z" fill="#CBF2D6" stroke="#263238" stroke-width="1.25903" stroke-linecap="round" stroke-linejoin="round"/>
<path d="M265.079 142.324L266.708 133.903L278.482 129.828C276.437 127.902 273.919 126.556 271.184 125.926C268.45 125.296 265.598 125.405 262.919 126.242C260.241 127.08 257.832 128.615 255.94 130.692C254.048 132.768 252.74 135.311 252.15 138.061L130.031 180.298C127.876 178.5 125.282 177.308 122.516 176.843C119.75 176.379 116.91 176.659 114.288 177.654C111.665 178.65 109.353 180.326 107.588 182.51C105.823 184.695 104.668 187.31 104.242 190.089L116.017 186.021L122.488 191.646L120.859 200.075L109.085 204.12C111.13 206.044 113.648 207.388 116.381 208.017C119.115 208.646 121.966 208.536 124.643 207.699C127.32 206.862 129.727 205.327 131.619 203.252C133.511 201.176 134.819 198.635 135.409 195.887L257.528 153.649C259.686 155.448 262.283 156.64 265.051 157.102C267.82 157.565 270.662 157.282 273.286 156.282C275.909 155.282 278.221 153.601 279.983 151.412C281.746 149.223 282.897 146.603 283.317 143.821L271.543 147.957L265.079 142.324Z" fill="#858585" stroke="#263238" stroke-width="1.25903" stroke-linecap="round" stroke-linejoin="round"/>
<path d="M172.731 116.001C172.731 116.001 170.37 111.298 170.023 109.59C169.774 108.38 170.265 105.855 170.023 104.646C169.443 101.811 165.498 94.001 165.498 94.001C165.337 93.6653 165.092 93.3764 164.789 93.1619L162.435 96.012H156.137L146.527 108.743L151.257 120.204L149.869 121.852C150.721 122.691 151.257 123.175 151.257 123.175L149.869 131.491L163.446 132.867L163.8 127.575H167.926C168.482 127.573 169.014 127.351 169.407 126.957C169.8 126.564 170.021 126.03 170.023 125.473V118.269L171.917 117.732C172.091 117.683 172.254 117.598 172.392 117.481C172.531 117.364 172.643 117.218 172.72 117.054C172.798 116.889 172.839 116.71 172.84 116.528C172.842 116.347 172.805 116.167 172.731 116.001Z" fill="#FFBE9D" stroke="#263238" stroke-width="1.25903" stroke-linecap="round" stroke-linejoin="round"/>
<path d="M151.257 123.152L153.565 118.616C153.565 118.616 148.587 116.84 149.62 112.379C150.654 107.919 154.81 111.707 154.81 111.707H156.137L157.314 106.551C157.314 106.551 160.203 103.443 159.999 102.355C159.843 101.564 159.636 100.783 159.381 100.019C159.381 100.019 168.719 98.5899 167.504 93.0862C166.29 87.5826 153.761 89.6691 153.761 89.6691C153.761 89.6691 150.065 83.0617 140.569 95.9061C140.569 95.9061 133.644 99.8676 138.706 108.184C142.227 113.695 146.446 118.727 151.257 123.152Z" fill="#263238" stroke="#263238" stroke-width="1.25903" stroke-linecap="round" stroke-linejoin="round"/>
<path d="M156.137 101.5C156.137 101.5 148.881 116.016 142.703 117.089L140.689 114.352C140.689 114.352 141.044 112.032 144.959 111.706C144.959 111.706 148.655 110.074 153.03 102.355L156.137 101.5Z" fill="#858585" stroke="#263238" stroke-width="1.25903" stroke-linecap="round" stroke-linejoin="round"/>
<path d="M163.423 117.089C163.93 117.652 164.565 118.084 165.274 118.347C165.984 118.61 166.746 118.698 167.496 118.601" stroke="#263238" stroke-width="1.25903" stroke-linecap="round" stroke-linejoin="round"/>
<path d="M167.497 108.184C167.497 108.826 167.248 109.356 166.946 109.356C166.644 109.356 166.403 108.826 166.403 108.184C166.403 107.541 166.652 107.012 166.946 107.012C167.24 107.012 167.497 107.534 167.497 108.184Z" fill="#263238"/>
<path d="M167.496 103.738C166.744 103.574 165.958 103.681 165.277 104.043C164.596 104.404 164.065 104.995 163.778 105.711" stroke="#263238" stroke-width="1.25903" stroke-linecap="round" stroke-linejoin="round"/>
<path d="M140.546 111.956C140.419 112.126 140.251 112.26 140.058 112.347C139.865 112.434 139.653 112.471 139.442 112.453C139.231 112.436 139.028 112.365 138.852 112.248C138.675 112.131 138.532 111.97 138.434 111.782C136.035 107.178 131.117 94.81 144.31 88.7015C159.991 81.4439 168.394 91.3324 168.394 91.3324L172.565 91.7784L173.674 93.7214L142.296 109.62L140.546 111.956Z" fill="#47C2C9" stroke="#263238" stroke-width="1.25903" stroke-linecap="round" stroke-linejoin="round"/>
<path d="M144.189 133.744C144.85 132.42 145.856 131.299 147.1 130.501C148.344 129.703 149.78 129.256 151.257 129.208C156.469 128.966 164.472 129.684 166.524 134.682C166.524 134.682 177.77 137.94 180.365 145.946C182.959 153.952 179.263 190.837 179.263 190.837C179.263 190.837 182.582 205.594 180.523 215.43C180.523 215.43 169.133 219.346 138.283 219.966C138.283 219.966 136.02 200.862 137.31 194.08C137.31 194.08 128.311 146.384 131.789 140.193C135.266 134.001 144.189 133.744 144.189 133.744Z" fill="#263238" stroke="#263238" stroke-width="1.25903" stroke-miterlimit="10"/>
<path d="M150.057 169.586C140.847 169.374 136.065 171.65 133.795 173.366C134.247 176.39 134.708 179.278 135.145 181.901C136.563 180.722 140.297 179.414 149.823 179.225C160.016 179.047 170.174 180.458 179.935 183.406C180.146 180.843 180.38 177.796 180.591 174.553C175.439 173.177 161.598 169.843 150.057 169.586Z" fill="#47C2C9" stroke="#263238" stroke-width="1.25903" stroke-linecap="round" stroke-linejoin="round"/>
<path d="M179.264 190.852C179.264 190.852 179.331 190.149 179.445 188.917C175.13 187.836 162.979 185.061 151.325 184.797C141.76 184.577 137.793 186.634 136.194 188.048C136.85 191.782 137.295 194.133 137.295 194.133C137.205 194.594 137.137 195.116 137.076 195.645C138.887 194.602 142.786 193.589 151.091 193.423C161.003 193.256 170.884 194.584 180.403 197.361C179.867 193.536 179.264 190.852 179.264 190.852Z" fill="#47C2C9" stroke="#263238" stroke-width="1.25903" stroke-linecap="round" stroke-linejoin="round"/>
<path d="M161.417 133.993C162.066 134.152 162.722 134.334 163.393 134.538" stroke="#7F7F7F" stroke-width="0.944269" stroke-linecap="round" stroke-linejoin="round"/>
<path d="M147.765 133.109C151.631 132.603 155.555 132.748 159.373 133.54" stroke="#7F7F7F" stroke-width="0.944269" stroke-linecap="round" stroke-linejoin="round"/>
<path d="M170.122 164.052C169.635 157.201 170.952 150.343 173.938 144.162C178.947 133.578 182.99 154.882 182.99 154.882C182.99 154.882 188.73 163.954 190.11 170.44C190.11 170.44 195.036 165.64 215.228 164.052L217.596 172.565C217.596 172.565 189.771 186.263 183.91 185.22C179.573 184.509 170.122 164.052 170.122 164.052Z" fill="#47C2C9" stroke="#263238" stroke-width="1.25903" stroke-linecap="round" stroke-linejoin="round"/>
<path d="M180.093 167.076C180.085 167.922 180.155 168.768 180.304 169.601" stroke="#263238" stroke-width="1.25903" stroke-linecap="round" stroke-linejoin="round"/>
<path d="M174.904 164.052C174.904 164.052 178.962 155.131 181.089 155.736C182.598 156.182 180.983 159.728 180.335 164.052" stroke="#263238" stroke-width="1.25903" stroke-linecap="round" stroke-linejoin="round"/>
<path d="M212.814 163.22C212.814 163.22 216.08 168.906 215.922 174.84L219.882 172.686C219.882 172.686 219.489 165.451 216.721 163.016L212.814 163.22Z" fill="#263238" stroke="#263238" stroke-width="1.25903" stroke-linecap="round" stroke-linejoin="round"/>
<path d="M215.922 164.279L222.394 163.22C222.897 162.19 223.683 161.324 224.66 160.724C225.636 160.124 226.762 159.816 227.907 159.834C230.12 159.899 232.325 159.56 234.417 158.836C234.479 158.81 234.546 158.801 234.612 158.808C234.679 158.816 234.742 158.84 234.797 158.878C234.852 158.916 234.896 158.968 234.926 159.028C234.956 159.088 234.97 159.154 234.968 159.221C234.968 160.144 234.274 161.905 229.755 162.313C229.755 162.313 233.836 164.8 234.968 163.825C235.267 163.533 235.641 163.33 236.048 163.238C236.456 163.146 236.88 163.169 237.276 163.304C237.276 163.304 237.411 166.486 235.164 166.615C235.164 166.615 234.636 168.679 232.901 168.641C232.901 168.641 231.709 170.319 230.789 170.055C229.874 170.249 228.928 170.249 228.013 170.055C226.301 169.76 224.453 169.389 224.453 169.389L218.419 171.279L215.922 164.279Z" fill="#263238" stroke="#263238" stroke-width="1.25903" stroke-linecap="round" stroke-linejoin="round"/>
<path d="M234.417 165.042C234.417 165.042 234.5 166.343 233.549 166.554C232.599 166.766 233.791 167.908 230.532 168.898" stroke="#7F7F7F" stroke-width="0.944269" stroke-linecap="round" stroke-linejoin="round"/>
<path d="M190.178 173.026C190.238 174.76 190.024 176.492 189.544 178.159" stroke="#263238" stroke-width="1.25903" stroke-linecap="round" stroke-linejoin="round"/>
<path d="M219.082 167.658C218.797 166.49 218.355 165.366 217.77 164.317" stroke="#7F7F7F" stroke-width="0.944269" stroke-linecap="round" stroke-linejoin="round"/>
<path d="M219.55 169.888C219.49 169.526 219.422 169.132 219.339 168.762" stroke="#7F7F7F" stroke-width="0.944269" stroke-linecap="round" stroke-linejoin="round"/>
</svg>
