<svg width="418" height="418" viewBox="0 0 418 418" fill="none" xmlns="http://www.w3.org/2000/svg">
<g clip-path="url(#clip0_70_4728)">
<path d="M209.008 360.5C295.625 360.5 365.842 356.147 365.842 350.777C365.842 345.408 295.625 341.055 209.008 341.055C122.392 341.055 52.1748 345.408 52.1748 350.777C52.1748 356.147 122.392 360.5 209.008 360.5Z" fill="#47C2C9"/>
<path opacity="0.7" d="M209.008 360.5C295.625 360.5 365.842 356.147 365.842 350.777C365.842 345.408 295.625 341.055 209.008 341.055C122.392 341.055 52.1748 345.408 52.1748 350.777C52.1748 356.147 122.392 360.5 209.008 360.5Z" fill="white"/>
<path d="M243.343 94.6687L242.892 98.4976L244.965 99.2333C244.995 100.546 245.177 101.85 245.508 103.121L243.711 104.425L245.224 107.978L247.406 107.568C248.086 108.689 248.894 109.727 249.814 110.661L248.902 112.701L251.996 115.009L253.668 113.587C254.817 114.221 256.038 114.715 257.304 115.059L257.538 117.274L261.359 117.734L262.103 115.652C263.415 115.622 264.72 115.44 265.99 115.109L267.303 116.898L270.864 115.368L270.471 113.194C271.589 112.514 272.624 111.706 273.556 110.787L275.596 111.698L277.903 108.605L276.474 106.933C277.108 105.787 277.602 104.569 277.945 103.305L280.16 103.07L280.62 99.2416L278.539 98.4976C278.513 97.1875 278.33 95.8853 277.995 94.6185L279.801 93.306L278.279 89.753L276.106 90.1543C275.422 89.0361 274.612 88.0009 273.69 87.0695L274.593 85.038L271.474 82.7641L269.802 84.1936C268.658 83.5675 267.447 83.0738 266.191 82.7223L265.957 80.5069L262.128 80.0554L261.384 82.1287C260.074 82.161 258.772 82.3462 257.505 82.6805L256.192 80.8831L252.639 82.3962L253.041 84.5698C251.927 85.2402 250.895 86.0369 249.964 86.9441L247.933 86.0412L245.617 89.1344L247.047 90.8064C246.414 91.9561 245.92 93.1768 245.575 94.443L243.343 94.6687ZM252.23 97.7368C252.454 95.8543 253.231 94.0805 254.463 92.64C255.696 91.1994 257.328 90.1569 259.153 89.6444C260.978 89.1319 262.915 89.1724 264.717 89.7608C266.519 90.3493 268.106 91.4591 269.277 92.9499C270.448 94.4408 271.151 96.2455 271.296 98.1358C271.441 100.026 271.022 101.917 270.091 103.569C269.161 105.221 267.762 106.56 266.071 107.416C264.379 108.272 262.472 108.607 260.59 108.379C258.071 108.074 255.776 106.782 254.209 104.787C252.642 102.791 251.93 100.256 252.23 97.7368Z" stroke="#263238" stroke-width="1.57112" stroke-linejoin="round"/>
<path d="M143.466 188.886L143.056 192.355L144.937 193.024C144.963 194.212 145.129 195.394 145.43 196.544L143.758 197.731L145.129 200.949L147.102 200.573C147.72 201.587 148.452 202.527 149.284 203.374L148.448 205.221L151.316 207.328L152.829 206.032C153.869 206.609 154.975 207.058 156.123 207.37L156.332 209.376L159.801 209.794L160.47 207.905C161.659 207.88 162.84 207.714 163.99 207.412L165.177 209.042L168.387 207.662L168.036 205.656C169.05 205.039 169.99 204.306 170.836 203.474L172.684 204.31L174.774 201.518L173.478 199.988C174.053 198.95 174.502 197.847 174.816 196.702L176.822 196.485L177.232 193.016L175.351 192.347C175.325 191.158 175.159 189.977 174.858 188.827L176.53 187.64L175.15 184.422L173.186 184.781C172.562 183.772 171.824 182.837 170.987 181.997L171.823 180.15L168.955 178.068L167.434 179.364C166.398 178.792 165.298 178.346 164.157 178.035L163.948 176.028L160.478 175.61L159.81 177.499C158.621 177.525 157.44 177.691 156.29 177.993L155.103 176.396L151.884 177.767L152.244 179.74C151.229 180.357 150.289 181.089 149.443 181.922L147.596 181.086L145.506 183.887L146.801 185.408C146.228 186.45 145.779 187.555 145.464 188.702L143.466 188.886ZM151.516 191.661C151.72 189.957 152.425 188.352 153.541 187.049C154.657 185.745 156.134 184.801 157.786 184.337C159.438 183.873 161.191 183.91 162.823 184.442C164.454 184.974 165.891 185.977 166.952 187.326C168.014 188.675 168.651 190.308 168.784 192.018C168.917 193.729 168.54 195.441 167.701 196.938C166.861 198.434 165.596 199.649 164.067 200.427C162.537 201.205 160.811 201.512 159.107 201.309C156.822 201.035 154.739 199.865 153.316 198.056C151.892 196.247 151.245 193.947 151.516 191.661Z" fill="#263238"/>
<path d="M320.255 273.999V266.132L315.866 265.137C315.494 262.485 314.81 259.887 313.826 257.396L317.17 254.311L313.224 247.456L308.91 248.819C307.259 246.714 305.368 244.809 303.276 243.142L304.638 238.787L297.808 234.849L294.757 238.135C292.274 237.132 289.681 236.428 287.032 236.036L286.029 231.605H278.162L277.159 236.003C274.507 236.371 271.908 237.056 269.418 238.043L266.333 234.699L259.52 238.628L260.849 242.942C258.745 244.59 256.84 246.478 255.172 248.568L250.825 247.222L246.896 254.027L250.19 257.095C249.189 259.575 248.484 262.166 248.091 264.811L243.661 265.823V273.69L248.05 274.693C248.426 277.341 249.111 279.936 250.089 282.426L246.745 285.519L250.683 292.349L254.988 291.02C256.644 293.119 258.541 295.016 260.64 296.671L259.294 301.027L266.132 304.964L269.184 301.62C271.652 302.624 274.231 303.331 276.867 303.727L277.87 308.158H285.745L286.74 303.769C289.394 303.388 291.995 302.698 294.489 301.712L297.574 305.056L304.404 301.119L303.075 296.813C305.181 295.167 307.087 293.279 308.752 291.187L313.099 292.533L317.036 285.695L313.734 282.635C314.735 280.151 315.442 277.559 315.841 274.91L320.255 273.999ZM306.653 269.936C306.653 274.82 305.205 279.595 302.491 283.656C299.778 287.717 295.921 290.883 291.408 292.752C286.896 294.621 281.93 295.11 277.14 294.157C272.35 293.204 267.949 290.852 264.496 287.398C261.042 283.945 258.69 279.544 257.737 274.754C256.784 269.963 257.273 264.998 259.142 260.486C261.011 255.973 264.177 252.116 268.238 249.403C272.299 246.689 277.074 245.241 281.958 245.241C288.507 245.241 294.789 247.842 299.42 252.474C304.051 257.105 306.653 263.386 306.653 269.936Z" fill="white"/>
<path d="M183.569 78.7095H163.304V83.3827H183.569V78.7095Z" fill="#47C2C9"/>
<path d="M176.622 85.4644H163.304V90.1376H176.622V85.4644Z" fill="#47C2C9"/>
<path d="M170.97 92.219H163.304V96.8922H170.97V92.219Z" fill="#47C2C9"/>
<path opacity="0.2" d="M183.569 78.7095H163.304V83.3827H183.569V78.7095Z" fill="black"/>
<path opacity="0.2" d="M176.622 85.4644H163.304V90.1376H176.622V85.4644Z" fill="black"/>
<path opacity="0.2" d="M170.97 92.219H163.304V96.8922H170.97V92.219Z" fill="black"/>
<path d="M134.989 130.474H128.117V144.553H134.989V130.474Z" fill="#47C2C9"/>
<path d="M144.912 135.315H138.041V144.561H144.912V135.315Z" fill="#47C2C9"/>
<path d="M154.844 139.236H147.972V144.561H154.844V139.236Z" fill="#47C2C9"/>
<path opacity="0.2" d="M134.989 130.474H128.117V144.553H134.989V130.474Z" fill="black"/>
<path opacity="0.2" d="M144.912 135.315H138.041V144.561H144.912V135.315Z" fill="black"/>
<path opacity="0.2" d="M154.844 139.236H147.972V144.561H154.844V139.236Z" fill="black"/>
<path d="M209.786 155.212H126.579C125.437 155.214 124.305 154.991 123.25 154.555C122.194 154.12 121.234 153.48 120.426 152.674C119.618 151.867 118.976 150.908 118.539 149.854C118.101 148.799 117.876 147.668 117.876 146.526V77.8316C117.88 75.5292 118.797 73.3225 120.425 71.6945C122.053 70.0665 124.26 69.1499 126.562 69.1455H209.769C210.911 69.1444 212.042 69.3682 213.097 69.8041C214.152 70.2401 215.111 70.8796 215.919 71.6861C216.728 72.4927 217.369 73.4505 217.807 74.505C218.245 75.5594 218.471 76.6898 218.472 77.8316V146.526C218.472 148.829 217.557 151.039 215.928 152.668C214.299 154.297 212.09 155.212 209.786 155.212ZM126.579 69.9397C124.478 69.9441 122.465 70.7805 120.98 72.2659C119.494 73.7512 118.658 75.7644 118.653 77.865V146.559C118.658 148.66 119.494 150.673 120.98 152.158C122.465 153.644 124.478 154.48 126.579 154.484H209.786C211.886 154.48 213.9 153.644 215.385 152.158C216.87 150.673 217.707 148.66 217.711 146.559V77.8316C217.707 75.731 216.87 73.7177 215.385 72.2324C213.9 70.7471 211.886 69.9107 209.786 69.9063L126.579 69.9397Z" fill="#263238"/>
<path d="M208.716 130.859H179.046V131.62H208.716V130.859Z" fill="#263238"/>
<path d="M208.716 134.044H179.046V134.805H208.716V134.044Z" fill="#263238"/>
<path d="M208.716 137.221H179.046V137.982H208.716V137.221Z" fill="#263238"/>
<path d="M208.716 140.398H179.046V141.158H208.716V140.398Z" fill="#263238"/>
<path d="M208.716 143.575H179.046V144.335H208.716V143.575Z" fill="#263238"/>
<path d="M156.875 79.0271H127.206V79.7879H156.875V79.0271Z" fill="#263238"/>
<path d="M156.875 82.2039H127.206V82.9646H156.875V82.2039Z" fill="#263238"/>
<path d="M156.875 85.3806H127.206V86.1414H156.875V85.3806Z" fill="#263238"/>
<path d="M156.875 88.5574H127.206V89.3181H156.875V88.5574Z" fill="#263238"/>
<path d="M156.875 91.7341H127.206V92.4949H156.875V91.7341Z" fill="#263238"/>
<path d="M202.855 104.692L208.172 107.484L207.562 92.4866L194.88 100.512L200.197 103.296L196.192 110.912C195.487 110.911 194.801 111.147 194.244 111.581L187.18 108.312V108.27C187.211 107.418 186.904 106.588 186.327 105.96C185.75 105.332 184.949 104.957 184.098 104.915C183.246 104.873 182.412 105.168 181.776 105.737C181.141 106.305 180.754 107.101 180.701 107.953C180.693 108.058 180.693 108.165 180.701 108.27C180.706 108.734 180.805 109.192 180.994 109.616L171.798 119.648C171.503 119.556 171.196 119.508 170.887 119.506C170.726 119.506 170.567 119.523 170.41 119.556L157.168 102.744C157.47 101.967 157.461 101.103 157.142 100.332C156.822 99.5616 156.218 98.9441 155.454 98.6086C154.69 98.2731 153.827 98.2456 153.043 98.5317C152.26 98.8179 151.617 99.3956 151.249 100.144C151.066 100.549 150.972 100.988 150.973 101.432C150.983 101.764 151.04 102.093 151.14 102.41L136.051 117.876C135.45 117.659 134.799 117.625 134.18 117.778C133.56 117.93 132.999 118.262 132.568 118.733C132.137 119.203 131.854 119.79 131.756 120.421C131.658 121.051 131.748 121.697 132.016 122.276C132.283 122.855 132.716 123.343 133.26 123.676C133.804 124.01 134.434 124.176 135.072 124.152C135.71 124.129 136.326 123.917 136.844 123.544C137.362 123.171 137.757 122.653 137.982 122.056C138.108 121.699 138.173 121.323 138.174 120.944C138.175 120.678 138.138 120.414 138.065 120.158L153.322 104.5C153.622 104.599 153.935 104.65 154.25 104.65C154.45 104.652 154.649 104.632 154.844 104.592L168.011 121.312C167.597 122.075 167.504 122.97 167.751 123.802C167.998 124.634 168.565 125.333 169.327 125.747C170.09 126.16 170.986 126.254 171.818 126.007C172.649 125.76 173.349 125.193 173.762 124.43C173.996 124.006 174.13 123.534 174.155 123.051C174.164 122.942 174.164 122.833 174.155 122.725C174.15 122.387 174.094 122.051 173.988 121.73L183.402 111.481C183.581 111.514 183.763 111.531 183.945 111.531C184.588 111.53 185.217 111.338 185.751 110.979L192.94 114.323C192.953 114.752 193.052 115.175 193.23 115.566C193.408 115.956 193.662 116.308 193.978 116.6C194.293 116.891 194.664 117.117 195.067 117.264C195.471 117.411 195.9 117.476 196.329 117.456C196.758 117.435 197.179 117.329 197.566 117.144C197.954 116.96 198.301 116.699 198.587 116.379C198.873 116.059 199.093 115.684 199.233 115.278C199.373 114.872 199.431 114.442 199.403 114.014C199.371 113.413 199.171 112.834 198.826 112.342L202.855 104.692Z" fill="#263238"/>
<path d="M209.978 164.082C208.669 164.084 207.415 164.605 206.49 165.532C205.565 166.458 205.046 167.713 205.046 169.022V211.834C205.046 213.142 205.566 214.397 206.491 215.322C207.416 216.247 208.67 216.766 209.978 216.766H261.81C263.119 216.766 264.375 216.247 265.301 215.322C266.227 214.397 266.749 213.143 266.751 211.834V168.997C266.749 167.688 266.227 166.434 265.301 165.509C264.375 164.584 263.119 164.065 261.81 164.065L209.978 164.082Z" stroke="#263238" stroke-linejoin="round"/>
<path d="M213.071 169.917H209.134V170.444H213.071V169.917Z" fill="#263238"/>
<path d="M213.071 174.214H209.134V174.741H213.071V174.214Z" fill="#263238"/>
<path d="M213.071 178.511H209.134V179.038H213.071V178.511Z" fill="#263238"/>
<path d="M213.071 182.816H209.134V183.343H213.071V182.816Z" fill="#263238"/>
<path d="M212.921 174.214H208.983V174.741H212.921V174.214Z" fill="#263238"/>
<path d="M213.071 187.114H209.134V187.64H213.071V187.114Z" fill="#263238"/>
<path d="M238.896 210.371C242.632 210.448 246.307 209.415 249.456 207.403C252.604 205.39 255.085 202.489 256.584 199.066C258.084 195.642 258.533 191.851 257.877 188.173C257.221 184.494 255.487 181.092 252.897 178.399C250.307 175.705 246.975 173.841 243.325 173.042C239.674 172.242 235.869 172.544 232.39 173.908C228.911 175.273 225.915 177.639 223.781 180.707C221.647 183.775 220.472 187.407 220.403 191.143C220.309 196.144 222.204 200.978 225.671 204.583C229.138 208.188 233.895 210.27 238.896 210.371ZM239.556 178.152C242.201 178.205 244.771 179.042 246.941 180.556C249.11 182.07 250.782 184.193 251.745 186.657C252.707 189.122 252.918 191.816 252.349 194.4C251.78 196.984 250.458 199.341 248.55 201.173C246.641 203.006 244.233 204.231 241.628 204.694C239.023 205.157 236.339 204.838 233.916 203.776C231.493 202.714 229.439 200.957 228.015 198.728C226.59 196.498 225.858 193.897 225.912 191.252C225.985 187.705 227.463 184.333 230.022 181.876C232.58 179.42 236.01 178.08 239.556 178.152Z" fill="#47C2C9"/>
<path opacity="0.2" d="M238.896 210.371C242.632 210.448 246.307 209.415 249.456 207.403C252.604 205.39 255.085 202.489 256.584 199.066C258.084 195.642 258.533 191.851 257.877 188.173C257.221 184.494 255.487 181.092 252.897 178.399C250.307 175.705 246.975 173.841 243.325 173.042C239.674 172.242 235.869 172.544 232.39 173.908C228.911 175.273 225.915 177.639 223.781 180.707C221.647 183.775 220.472 187.407 220.403 191.143C220.309 196.144 222.204 200.978 225.671 204.583C229.138 208.188 233.895 210.27 238.896 210.371ZM239.556 178.152C242.201 178.205 244.771 179.042 246.941 180.556C249.11 182.07 250.782 184.193 251.745 186.657C252.707 189.122 252.918 191.816 252.349 194.4C251.78 196.984 250.458 199.341 248.55 201.173C246.641 203.006 244.233 204.231 241.628 204.694C239.023 205.157 236.339 204.838 233.916 203.776C231.493 202.714 229.439 200.957 228.015 198.728C226.59 196.498 225.858 193.897 225.912 191.252C225.985 187.705 227.463 184.333 230.022 181.876C232.58 179.42 236.01 178.08 239.556 178.152Z" fill="black"/>
<path d="M225.72 205.004C227.498 206.797 229.611 208.223 231.94 209.2C234.269 210.176 236.768 210.685 239.293 210.695C241.818 210.706 244.321 210.22 246.659 209.263C248.996 208.307 251.122 206.899 252.915 205.121C252.981 205.047 253.017 204.952 253.017 204.853C253.017 204.755 252.981 204.659 252.915 204.586L248.994 200.64C248.96 200.604 248.918 200.574 248.872 200.554C248.826 200.534 248.777 200.524 248.727 200.523C248.625 200.529 248.529 200.567 248.451 200.632C247.218 201.868 245.746 202.84 244.124 203.489C242.503 204.137 240.766 204.448 239.021 204.402H238.093C235.255 204.243 232.548 203.153 230.393 201.3C230.201 201.125 230 200.949 229.816 200.765C227.614 198.566 226.259 195.66 225.992 192.559C225.724 189.459 226.56 186.363 228.353 183.82C228.37 183.796 228.384 183.771 228.395 183.744C228.479 183.627 228.571 183.527 228.671 183.41C229.957 181.781 231.615 180.486 233.507 179.634C235.398 178.781 237.467 178.396 239.539 178.511C239.588 178.512 239.637 178.503 239.684 178.486C239.73 178.468 239.772 178.441 239.807 178.407C239.843 178.373 239.872 178.332 239.892 178.286C239.912 178.241 239.922 178.193 239.923 178.143L240.032 172.6C240.034 172.5 239.997 172.402 239.928 172.329C239.86 172.255 239.765 172.212 239.664 172.208C235.837 172.143 232.078 173.222 228.869 175.307C225.659 177.392 223.144 180.387 221.646 183.909C220.149 187.431 219.736 191.321 220.462 195.079C221.188 198.837 223.018 202.292 225.72 205.004Z" fill="#263238"/>
<path d="M239.673 172.216C244.884 172.222 249.879 174.296 253.561 177.984C257.242 181.671 259.309 186.67 259.306 191.881C259.304 197.092 257.232 202.088 253.546 205.772C249.86 209.455 244.863 211.525 239.652 211.525C234.441 211.525 229.444 209.455 225.758 205.772C222.072 202.088 220 197.092 219.998 191.881C219.995 186.67 222.061 181.671 225.743 177.984C229.425 174.296 234.42 172.222 239.631 172.216H239.673ZM238.904 209.978C242.564 210.054 246.165 209.042 249.25 207.07C252.335 205.099 254.766 202.258 256.236 198.904C257.706 195.551 258.149 191.838 257.508 188.233C256.867 184.628 255.171 181.295 252.636 178.654C250.1 176.013 246.838 174.183 243.263 173.397C239.687 172.61 235.958 172.901 232.548 174.233C229.138 175.566 226.2 177.88 224.105 180.882C222.01 183.885 220.853 187.441 220.779 191.101C220.681 196.008 222.534 200.754 225.933 204.295C229.331 207.836 233.997 209.883 238.904 209.987V209.978ZM239.564 177.759C242.279 177.814 244.916 178.673 247.142 180.227C249.369 181.781 251.084 183.96 252.072 186.489C253.06 189.018 253.275 191.783 252.691 194.435C252.108 197.086 250.75 199.505 248.792 201.386C246.833 203.266 244.361 204.523 241.688 204.998C239.015 205.473 236.261 205.145 233.774 204.055C231.287 202.965 229.18 201.162 227.718 198.874C226.256 196.586 225.505 193.916 225.561 191.202C225.636 187.562 227.153 184.101 229.779 181.58C232.405 179.06 235.925 177.685 239.564 177.759ZM239.021 204.436C241.585 204.488 244.107 203.779 246.268 202.398C248.429 201.017 250.132 199.026 251.161 196.677C252.191 194.328 252.501 191.726 252.052 189.201C251.603 186.676 250.415 184.341 248.639 182.491C246.862 180.641 244.577 179.36 242.073 178.809C239.568 178.257 236.956 178.461 234.567 179.394C232.178 180.328 230.12 181.948 228.652 184.052C227.185 186.155 226.374 188.646 226.322 191.21C226.255 194.646 227.555 197.969 229.936 200.447C232.317 202.925 235.585 204.357 239.021 204.427V204.436Z" fill="#263238"/>
<path d="M141.844 232.517V283.228" stroke="#263238" stroke-width="0.879169" stroke-linecap="round" stroke-linejoin="round"/>
<path d="M149.995 251.653H145.69V280.687H149.995V251.653Z" fill="#263238"/>
<path d="M156.148 263.499H151.843V280.679H156.148V263.499Z" fill="#47C2C9"/>
<path d="M163.38 242.264H159.074V280.687H163.38V242.264Z" fill="white" stroke="#263238" stroke-width="0.879169" stroke-linejoin="round"/>
<path d="M175.384 236.722H171.079V280.679H175.384V236.722Z" fill="#263238"/>
<path d="M181.546 269.811H177.24V280.687H181.546V269.811Z" fill="#47C2C9"/>
<path d="M188.777 254.729H184.472V280.687H188.777V254.729Z" fill="white" stroke="#263238" stroke-width="0.879169" stroke-linejoin="round"/>
<path d="M206.317 258.7H202.011V280.679H206.317V258.7Z" fill="#263238"/>
<path d="M212.478 241.646H208.172V280.679H212.478V241.646Z" fill="#47C2C9"/>
<path d="M219.709 250.265H215.404V280.679H219.709V250.265Z" fill="white" stroke="#263238" stroke-width="0.879169" stroke-linejoin="round"/>
<path d="M137.221 273.966H139.629" stroke="#263238" stroke-width="0.879169" stroke-linecap="round" stroke-linejoin="round"/>
<path d="M137.221 267.704H139.629" stroke="#263238" stroke-width="0.879169" stroke-linecap="round" stroke-linejoin="round"/>
<path d="M137.221 261.451H139.629" stroke="#263238" stroke-width="0.879169" stroke-linecap="round" stroke-linejoin="round"/>
<path d="M137.221 255.189H139.629" stroke="#263238" stroke-width="0.879169" stroke-linecap="round" stroke-linejoin="round"/>
<path d="M137.221 248.927H139.629" stroke="#263238" stroke-width="0.879169" stroke-linecap="round" stroke-linejoin="round"/>
<path d="M137.221 242.666H139.629" stroke="#263238" stroke-width="0.879169" stroke-linecap="round" stroke-linejoin="round"/>
<path d="M137.221 236.404H139.629" stroke="#263238" stroke-width="0.879169" stroke-linecap="round" stroke-linejoin="round"/>
<path d="M138.993 280.687H222.727" stroke="#263238" stroke-width="0.879169" stroke-linecap="round" stroke-linejoin="round"/>
<path opacity="0.3" d="M156.148 263.499H151.843V280.679H156.148V263.499Z" fill="black"/>
<path opacity="0.3" d="M181.546 269.811H177.24V280.687H181.546V269.811Z" fill="black"/>
<path opacity="0.3" d="M212.478 241.646H208.172V280.679H212.478V241.646Z" fill="black"/>
<path d="M133.802 225.477C132.359 225.48 130.976 226.054 129.956 227.074C128.936 228.094 128.362 229.477 128.359 230.92V280.67C128.362 282.114 128.935 283.498 129.955 284.519C130.975 285.541 132.358 286.116 133.802 286.121H226.138C227.582 286.117 228.966 285.541 229.987 284.52C231.009 283.498 231.584 282.114 231.589 280.67V230.903C231.586 229.458 231.011 228.073 229.99 227.051C228.968 226.03 227.583 225.455 226.138 225.452L133.802 225.477Z" stroke="#263238" stroke-linejoin="round"/>
<path d="M613.766 177.845H360.336C351.146 177.845 343.696 185.295 343.696 194.485V346.275C343.696 355.465 351.146 362.915 360.336 362.915H613.766C622.956 362.915 630.406 355.465 630.406 346.275V194.485C630.406 185.295 622.956 177.845 613.766 177.845Z" fill="#47C2C9" stroke="#263238" stroke-width="1.25903" stroke-linecap="round" stroke-linejoin="round"/>
<mask id="mask0_70_4728" style="mask-type:luminance" maskUnits="userSpaceOnUse" x="358" y="184" width="13" height="12">
<path d="M370.176 189.805C370.176 190.931 369.842 192.032 369.216 192.968C368.591 193.904 367.701 194.633 366.661 195.063C365.621 195.494 364.476 195.606 363.372 195.385C362.268 195.165 361.254 194.622 360.459 193.825C359.664 193.029 359.122 192.014 358.904 190.909C358.686 189.805 358.8 188.661 359.232 187.621C359.664 186.582 360.395 185.694 361.332 185.07C362.269 184.446 363.37 184.114 364.496 184.115C365.243 184.115 365.982 184.263 366.672 184.549C367.362 184.835 367.988 185.254 368.516 185.783C369.043 186.311 369.462 186.938 369.746 187.629C370.031 188.319 370.177 189.059 370.176 189.805Z" fill="white"/>
</mask>
<g mask="url(#mask0_70_4728)">
<path opacity="0.5" d="M370.176 189.805C370.176 190.931 369.842 192.032 369.216 192.968C368.591 193.904 367.701 194.633 366.661 195.063C365.621 195.494 364.476 195.606 363.372 195.385C362.268 195.165 361.254 194.622 360.459 193.825C359.664 193.029 359.122 192.014 358.904 190.909C358.686 189.805 358.8 188.661 359.232 187.621C359.664 186.582 360.395 185.694 361.332 185.07C362.269 184.446 363.37 184.114 364.496 184.115C365.243 184.115 365.982 184.263 366.672 184.549C367.362 184.835 367.988 185.254 368.516 185.783C369.043 186.311 369.462 186.938 369.746 187.629C370.031 188.319 370.177 189.059 370.176 189.805Z" fill="black"/>
</g>
<path d="M370.176 189.805C370.176 190.931 369.842 192.032 369.216 192.968C368.591 193.904 367.701 194.633 366.661 195.063C365.621 195.494 364.476 195.606 363.372 195.385C362.268 195.165 361.254 194.622 360.459 193.825C359.664 193.029 359.122 192.014 358.904 190.909C358.686 189.805 358.8 188.661 359.232 187.621C359.664 186.582 360.395 185.694 361.332 185.07C362.269 184.446 363.37 184.114 364.496 184.115C365.243 184.115 365.982 184.263 366.672 184.549C367.362 184.835 367.988 185.254 368.516 185.783C369.043 186.311 369.462 186.938 369.746 187.629C370.031 188.319 370.177 189.059 370.176 189.805Z" stroke="#263238" stroke-width="1.25903" stroke-linecap="round" stroke-linejoin="round"/>
<mask id="mask1_70_4728" style="mask-type:luminance" maskUnits="userSpaceOnUse" x="394" y="184" width="12" height="12">
<path d="M399.826 195.495C402.968 195.495 405.516 192.948 405.516 189.805C405.516 186.663 402.968 184.115 399.826 184.115C396.683 184.115 394.136 186.663 394.136 189.805C394.136 192.948 396.683 195.495 399.826 195.495Z" fill="white"/>
</mask>
<g mask="url(#mask1_70_4728)">
<path opacity="0.5" d="M399.826 195.495C402.968 195.495 405.516 192.948 405.516 189.805C405.516 186.663 402.968 184.115 399.826 184.115C396.683 184.115 394.136 186.663 394.136 189.805C394.136 192.948 396.683 195.495 399.826 195.495Z" fill="white" stroke="#263238" stroke-width="1.25903" stroke-linecap="round" stroke-linejoin="round"/>
</g>
<path d="M399.826 195.495C402.968 195.495 405.516 192.948 405.516 189.805C405.516 186.663 402.968 184.115 399.826 184.115C396.683 184.115 394.136 186.663 394.136 189.805C394.136 192.948 396.683 195.495 399.826 195.495Z" stroke="#263238" stroke-width="1.25903" stroke-linecap="round" stroke-linejoin="round"/>
<path d="M382.156 195.495C385.298 195.495 387.846 192.948 387.846 189.805C387.846 186.663 385.298 184.115 382.156 184.115C379.013 184.115 376.466 186.663 376.466 189.805C376.466 192.948 379.013 195.495 382.156 195.495Z" stroke="#263238" stroke-width="1.25903" stroke-linecap="round" stroke-linejoin="round"/>
<path d="M613.766 201.766H360.346C355.326 201.766 351.256 205.835 351.256 210.856V346.266C351.256 351.286 355.326 355.356 360.346 355.356H613.766C618.786 355.356 622.856 351.286 622.856 346.266V210.856C622.856 205.835 618.786 201.766 613.766 201.766Z" fill="#47C2C9"/>
<mask id="mask2_70_4728" style="mask-type:luminance" maskUnits="userSpaceOnUse" x="351" y="201" width="272" height="155">
<path d="M613.766 201.766H360.346C355.326 201.766 351.256 205.835 351.256 210.856V346.266C351.256 351.286 355.326 355.356 360.346 355.356H613.766C618.786 355.356 622.856 351.286 622.856 346.266V210.856C622.856 205.835 618.786 201.766 613.766 201.766Z" fill="white"/>
</mask>
<g mask="url(#mask2_70_4728)">
<path opacity="0.3" d="M613.766 201.766H360.346C355.326 201.766 351.256 205.835 351.256 210.856V346.266C351.256 351.286 355.326 355.356 360.346 355.356H613.766C618.786 355.356 622.856 351.286 622.856 346.266V210.856C622.856 205.835 618.786 201.766 613.766 201.766Z" fill="black"/>
</g>
<path d="M613.766 201.766H360.346C355.326 201.766 351.256 205.835 351.256 210.856V346.266C351.256 351.286 355.326 355.356 360.346 355.356H613.766C618.786 355.356 622.856 351.286 622.856 346.266V210.856C622.856 205.835 618.786 201.766 613.766 201.766Z" stroke="#263238" stroke-width="1.25903" stroke-linecap="round" stroke-linejoin="round"/>
<path d="M429.076 208.056H360.336C358.795 208.056 357.546 209.305 357.546 210.846V346.266C357.546 347.807 358.795 349.056 360.336 349.056H429.076C430.617 349.056 431.866 347.807 431.866 346.266V210.846C431.866 209.305 430.617 208.056 429.076 208.056Z" fill="#999999" stroke="#263238" stroke-width="1.25903" stroke-linecap="round" stroke-linejoin="round"/>
<path d="M356.486 340.746H382.606C383.196 340.746 383.666 340.496 383.666 340.186V313.086C383.666 312.776 383.196 312.526 382.606 312.526H356.486C355.906 312.526 355.426 312.776 355.426 313.086V340.146C355.426 340.496 355.876 340.746 356.486 340.746Z" fill="#47C2C9"/>
<mask id="mask3_70_4728" style="mask-type:luminance" maskUnits="userSpaceOnUse" x="355" y="312" width="29" height="29">
<path d="M356.486 340.746H382.606C383.196 340.746 383.666 340.496 383.666 340.186V313.086C383.666 312.776 383.196 312.526 382.606 312.526H356.486C355.906 312.526 355.426 312.776 355.426 313.086V340.146C355.426 340.496 355.876 340.746 356.486 340.746Z" fill="white"/>
</mask>
<g mask="url(#mask3_70_4728)">
<path opacity="0.3" d="M356.486 340.746H382.606C383.196 340.746 383.666 340.496 383.666 340.186V313.086C383.666 312.776 383.196 312.526 382.606 312.526H356.486C355.906 312.526 355.426 312.776 355.426 313.086V340.146C355.426 340.496 355.876 340.746 356.486 340.746Z" fill="black"/>
</g>
<path d="M356.486 340.746H382.606C383.196 340.746 383.666 340.496 383.666 340.186V313.086C383.666 312.776 383.196 312.526 382.606 312.526H356.486C355.906 312.526 355.426 312.776 355.426 313.086V340.146C355.426 340.496 355.876 340.746 356.486 340.746Z" stroke="#263238" stroke-width="1.25903" stroke-linecap="round" stroke-linejoin="round"/>
<path d="M389.186 340.746H415.306C415.886 340.746 416.366 340.496 416.366 340.186V313.086C416.366 312.776 415.886 312.526 415.306 312.526H389.186C388.596 312.526 388.126 312.776 388.126 313.086V340.146C388.126 340.496 388.596 340.746 389.186 340.746Z" fill="#47C2C9" stroke="#263238" stroke-width="1.25903" stroke-linecap="round" stroke-linejoin="round"/>
<path d="M369.076 307.866H395.196C395.786 307.866 396.256 307.616 396.256 307.306V280.206C396.256 279.896 395.786 279.646 395.196 279.646H369.076C368.496 279.646 368.016 279.896 368.016 280.206V307.306C368.016 307.616 368.496 307.866 369.076 307.866Z" fill="#47C2C9" stroke="#263238" stroke-width="1.25903" stroke-linecap="round" stroke-linejoin="round"/>
<path d="M401.776 307.866H427.876C428.456 307.866 428.936 307.616 428.936 307.306V280.206C428.936 279.896 428.456 279.646 427.876 279.646H401.776C401.186 279.646 400.716 279.896 400.716 280.206V307.306C400.716 307.616 401.186 307.866 401.776 307.866Z" fill="#47C2C9" stroke="#263238" stroke-width="1.25903" stroke-linecap="round" stroke-linejoin="round"/>
<path d="M366.556 274.986H392.676C393.266 274.986 393.746 274.736 393.746 274.426V247.326C393.746 247.016 393.266 246.766 392.676 246.766H366.556C365.976 246.766 365.496 247.016 365.496 247.326V274.426C365.496 274.736 365.976 274.986 366.556 274.986Z" fill="#47C2C9"/>
<mask id="mask4_70_4728" style="mask-type:luminance" maskUnits="userSpaceOnUse" x="365" y="246" width="29" height="29">
<path d="M366.556 274.986H392.676C393.266 274.986 393.746 274.736 393.746 274.426V247.326C393.746 247.016 393.266 246.766 392.676 246.766H366.556C365.976 246.766 365.496 247.016 365.496 247.326V274.426C365.496 274.736 365.976 274.986 366.556 274.986Z" fill="white"/>
</mask>
<g mask="url(#mask4_70_4728)">
<path opacity="0.5" d="M366.556 274.986H392.676C393.266 274.986 393.746 274.736 393.746 274.426V247.326C393.746 247.016 393.266 246.766 392.676 246.766H366.556C365.976 246.766 365.496 247.016 365.496 247.326V274.426C365.496 274.736 365.976 274.986 366.556 274.986Z" fill="white"/>
</g>
<path d="M366.556 274.986H392.676C393.266 274.986 393.746 274.736 393.746 274.426V247.326C393.746 247.016 393.266 246.766 392.676 246.766H366.556C365.976 246.766 365.496 247.016 365.496 247.326V274.426C365.496 274.736 365.976 274.986 366.556 274.986Z" stroke="#263238" stroke-width="1.25903" stroke-linecap="round" stroke-linejoin="round"/>
<path d="M399.256 274.986H425.376C425.966 274.986 426.436 274.736 426.436 274.426V247.326C426.436 247.016 425.966 246.766 425.376 246.766H399.256C398.666 246.766 398.196 247.016 398.196 247.326V274.426C398.196 274.736 398.666 274.986 399.256 274.986Z" fill="#47C2C9" stroke="#263238" stroke-width="1.25903" stroke-linecap="round" stroke-linejoin="round"/>
<path d="M366.556 242.145H392.676C393.266 242.145 393.746 241.895 393.746 241.585V214.445C393.746 214.135 393.266 213.885 392.676 213.885H366.556C365.976 213.885 365.496 214.135 365.496 214.445V241.545C365.496 241.855 365.976 242.145 366.556 242.145Z" fill="#47C2C9" stroke="#263238" stroke-width="1.25903" stroke-linecap="round" stroke-linejoin="round"/>
<path d="M399.256 242.145H425.376C425.966 242.145 426.436 241.895 426.436 241.585V214.445C426.436 214.135 425.966 213.885 425.376 213.885H399.256C398.666 213.885 398.196 214.135 398.196 214.445V241.545C398.196 241.855 398.666 242.145 399.256 242.145Z" fill="#47C2C9"/>
<mask id="mask5_70_4728" style="mask-type:luminance" maskUnits="userSpaceOnUse" x="398" y="213" width="29" height="30">
<path d="M399.256 242.145H425.376C425.966 242.145 426.436 241.895 426.436 241.585V214.445C426.436 214.135 425.966 213.885 425.376 213.885H399.256C398.666 213.885 398.196 214.135 398.196 214.445V241.545C398.196 241.855 398.666 242.145 399.256 242.145Z" fill="white"/>
</mask>
<g mask="url(#mask5_70_4728)">
<path opacity="0.7" d="M399.256 242.145H425.376C425.966 242.145 426.436 241.895 426.436 241.585V214.445C426.436 214.135 425.966 213.885 425.376 213.885H399.256C398.666 213.885 398.196 214.135 398.196 214.445V241.545C398.196 241.855 398.666 242.145 399.256 242.145Z" fill="white"/>
</g>
<path d="M399.256 242.145H425.376C425.966 242.145 426.436 241.895 426.436 241.585V214.445C426.436 214.135 425.966 213.885 425.376 213.885H399.256C398.666 213.885 398.196 214.135 398.196 214.445V241.545C398.196 241.855 398.666 242.145 399.256 242.145Z" stroke="#263238" stroke-width="1.25903" stroke-linecap="round" stroke-linejoin="round"/>
<path d="M365.026 374.446H391.146C391.736 374.446 392.206 374.196 392.206 373.886V346.786C392.206 346.476 391.736 346.226 391.146 346.226H365.026C364.446 346.226 363.966 346.476 363.966 346.786V373.886C363.966 374.196 364.446 374.446 365.026 374.446Z" fill="#47C2C9" stroke="#263238" stroke-width="1.25903" stroke-linecap="round" stroke-linejoin="round"/>
<path d="M440.946 350.375C440.946 349.895 441.016 349.375 441.016 348.935C441.016 348.495 441.016 347.935 440.946 347.485L436.516 346.905C436.286 345.222 435.757 343.593 434.956 342.095L438.206 339.025C437.7 338.203 437.132 337.421 436.506 336.685L432.576 338.825C431.396 337.596 430.013 336.581 428.486 335.825L429.306 331.435C428.415 331.062 427.495 330.761 426.556 330.535L424.636 334.535C423.801 334.382 422.955 334.305 422.106 334.305C421.258 334.306 420.411 334.383 419.576 334.535L417.666 330.535C416.724 330.763 415.801 331.064 414.906 331.435L415.736 335.825C414.208 336.579 412.824 337.594 411.646 338.825L407.716 336.685C407.087 337.418 406.519 338.201 406.016 339.025L409.266 342.095C408.461 343.593 407.93 345.222 407.696 346.905L403.266 347.485C403.266 347.965 403.206 348.485 403.206 348.935C403.206 349.385 403.206 349.935 403.266 350.375L407.696 350.955C407.93 352.639 408.461 354.268 409.266 355.765L406.006 358.835C406.516 359.658 407.087 360.44 407.716 361.175L411.646 359.035C412.821 360.27 414.206 361.285 415.736 362.035L414.906 366.425C415.801 366.797 416.724 367.098 417.666 367.325L419.576 363.275C420.411 363.428 421.258 363.505 422.106 363.505C422.955 363.506 423.801 363.429 424.636 363.275L426.556 367.325C427.495 367.099 428.415 366.798 429.306 366.425L428.486 362.035C430.015 361.283 431.399 360.267 432.576 359.035L436.506 361.175C437.132 360.44 437.7 359.658 438.206 358.835L434.956 355.765C435.757 354.267 436.286 352.639 436.516 350.955L440.946 350.375ZM422.106 338.145C423.76 338.145 425.391 338.525 426.874 339.257C428.357 339.989 429.651 341.052 430.656 342.365L423.706 345.575C423.207 345.337 422.66 345.214 422.106 345.215C421.553 345.216 421.006 345.339 420.506 345.575L413.556 342.365C414.563 341.054 415.857 339.991 417.34 339.26C418.822 338.528 420.453 338.147 422.106 338.145ZM411.306 348.955C411.307 347.56 411.578 346.177 412.106 344.885L418.386 349.315C418.44 349.85 418.609 350.367 418.879 350.831C419.15 351.295 419.517 351.695 419.956 352.005L420.656 359.645C418.065 359.294 415.69 358.015 413.97 356.046C412.251 354.076 411.304 351.55 411.306 348.935V348.955ZM423.566 359.645L424.266 352.005C424.703 351.695 425.069 351.294 425.338 350.83C425.607 350.366 425.774 349.849 425.826 349.315L432.116 344.885C432.735 346.41 432.996 348.057 432.881 349.698C432.767 351.34 432.278 352.934 431.453 354.358C430.628 355.782 429.489 356.998 428.122 357.915C426.755 358.831 425.197 359.423 423.566 359.645Z" fill="white" stroke="#263238" stroke-width="1.25903" stroke-linecap="round" stroke-linejoin="round"/>
<path d="M60.7355 336.691C60.7355 336.691 62.6666 349.582 57.9934 350.903C53.3201 352.224 50.0765 350.485 49.4913 348.554C48.9061 346.622 53.0443 332.828 53.0443 332.828L60.7355 336.691Z" fill="white"/>
<path d="M142.02 339.541L162.334 344.357C162.334 344.357 163.873 345.193 163.706 346.572C163.538 347.952 154.267 351.488 151.667 351.931C149.067 352.374 134.061 354.33 131.929 352.499C129.797 350.669 134.303 336.072 134.303 336.072L142.02 339.541Z" fill="white"/>
<path d="M105.236 104.433C105.236 104.433 108.095 108.747 108.137 110.929C108.178 113.111 107.911 115.602 109.248 116.89C110.586 118.177 111.614 119.582 111.063 120.234C110.511 120.886 109.449 122.156 109.449 122.156C109.449 122.156 110.829 129.505 109.039 130.834C107.25 132.163 101.875 130.834 101.875 130.834V135.583C101.875 135.583 94.2339 133.075 88.9588 133.543L88.0225 123.369C88.0225 123.369 99.484 101.332 105.236 104.433Z" fill="#FFBE9D"/>
<path d="M152.236 134.496C152.236 134.496 151.55 129.279 154.092 126.136C154.092 126.136 151.048 125.617 151.416 124.514C151.784 123.41 156.432 124.857 156.432 124.857L155.178 122.349C155.178 122.349 150.789 120.894 151.333 119.531C151.876 118.169 158.313 121.521 158.313 121.521C158.313 121.521 154.493 118.328 155.028 116.998C155.563 115.669 159.45 115.694 161.524 122.583L162.577 121.27C162.577 121.27 162.953 113.429 164.032 113.002C164.032 113.002 165.704 113.922 165.704 118.428C165.704 118.428 167.376 120.443 166.314 122.148C165.252 123.853 162.752 127.691 160.629 129.129C158.506 130.567 158.514 136.176 158.514 136.176L152.236 134.496Z" fill="#FFBE9D"/>
<path d="M84.9545 91.6173L85.9159 90.3299C85.9159 90.3299 96.6752 85.5312 96.4077 84.0348C96.1402 82.5383 90.0457 84.6033 88.8837 83.8091C88.8837 83.8091 89.9956 69.6472 88.8837 69.1874C87.7718 68.7276 86.5345 75.8336 86.5345 75.8336C86.5345 75.8336 84.9712 68.5437 83.7674 68.7527C82.5635 68.9617 83.0651 76.2767 83.0651 76.2767C83.0651 76.2767 80.7661 71.5867 79.8716 72.0215C78.9771 72.4562 80.3147 78.1744 80.3147 78.1744C80.3147 78.1744 78.6427 76.2098 77.9739 76.8034C78.1942 79.7571 79.0044 82.6367 80.3565 85.2721L78.0324 89.2013L84.9545 91.6173Z" fill="#FFBE9D"/>
<path d="M151.074 134.529L158.489 135.566C158.489 135.566 153.063 181.546 151.466 187.222C149.87 192.899 148.432 196.978 142.981 197.254C137.53 197.53 118.11 181.203 118.11 181.203L117.207 203.775L118.47 213.138C118.47 213.138 94.7188 225.62 70.5668 214.76L71.1101 203.775L62.4074 153.531L55.5605 129.672L77.656 87.78L85.6649 91.96L71.5365 130.09L75.4908 142.822L79.9132 141.05L84.8038 134.813C84.8038 134.813 93.097 130.508 103.589 136.485L105.261 141.719C105.261 141.719 117.567 142.647 138.341 171.447L151.074 134.529Z" fill="#47C2C9"/>
<path opacity="0.2" d="M98.0627 134.529L98.9991 140.966C98.9991 140.966 105.904 145.548 108.68 147.136C108.68 147.136 115.468 190.006 110.444 198.441L105.152 206.726C105.152 206.726 110.561 206.726 113.052 202.939C113.052 202.939 109.951 213.289 101.908 216.072C101.908 216.072 114.256 214.785 118.503 213.146L117.241 203.783L119.272 151.575C119.272 151.575 121.187 148.081 105.269 141.819L102.92 136.176L98.0627 134.529Z" fill="black"/>
<path d="M105.236 105.018C105.236 105.018 107.827 108.814 108.137 110.929C108.446 113.044 107.526 115.376 109.249 116.89C110.971 118.403 111.757 119.398 111.063 120.234C110.369 121.07 109.449 122.156 109.449 122.156C109.449 122.156 110.151 129.321 109.04 130.834C107.928 132.347 101.875 130.834 101.875 130.834V135.582" stroke="#263238" stroke-linecap="round" stroke-linejoin="round"/>
<path d="M101.875 121.839C101.875 121.839 99.4506 115.577 97.6365 117.09C95.8223 118.603 97.4358 126.88 101.875 125.066" stroke="#263238" stroke-linecap="round" stroke-linejoin="round"/>
<path d="M101.215 120.384C101.215 120.384 104.099 120.15 102.276 113.387C100.454 106.623 104.4 107.535 108.638 105.612C112.877 103.689 113.888 100.161 112.977 98.046C112.066 95.9309 110.553 94.8107 105.202 95.8223C105.202 95.8223 99.3502 89.059 93.6989 96.5329C93.6989 96.5329 80.975 96.3322 77.5474 102.385C74.1198 108.437 78.6592 123.887 85.3222 129.037C91.9851 134.186 98.4975 130.065 99.8518 125.224C99.8518 125.224 95.3124 122.775 97.6364 117.124C97.6364 117.09 99.7515 116.338 101.215 120.384Z" fill="#263238"/>
<path d="M61.7471 149.719C61.7471 149.719 92.5369 127.39 119.373 149.719L117.207 203.741L118.47 213.105C118.47 213.105 95.7806 223.73 70.5669 214.727L71.1103 203.741L61.7471 149.719Z" stroke="#263238" stroke-linecap="round" stroke-linejoin="round"/>
<path d="M79.5037 141.602L84.8039 134.847C84.8039 134.847 95.1954 131.252 103.589 136.519L105.261 141.752" stroke="#263238" stroke-linecap="round" stroke-linejoin="round"/>
<path d="M119.373 149.719L146.183 180.551" stroke="#263238" stroke-linecap="round" stroke-linejoin="round"/>
<path d="M118.135 180.576C118.135 180.576 135.9 197.104 142.981 197.296C150.062 197.488 151.241 188.936 151.241 188.936L158.489 135.599L151.074 134.562L138.316 171.539" stroke="#263238" stroke-linecap="round" stroke-linejoin="round"/>
<path d="M158.364 135.432C158.364 135.432 159.292 129.404 161.708 128.033C164.124 126.662 166.991 121.345 166.072 119.815C165.152 118.286 162.343 123.26 159.81 124.213C157.277 125.166 155.22 129.847 154.869 131.879" stroke="#263238" stroke-linecap="round" stroke-linejoin="round"/>
<path d="M165.294 119.598C165.294 119.598 165.294 112.634 164.015 112.96C162.736 113.286 162.56 122.106 162.56 122.106" stroke="#263238" stroke-linecap="round" stroke-linejoin="round"/>
<path d="M161.624 123.001C161.624 123.001 160.788 119.097 158.489 117.19C156.19 115.284 154.752 116.313 155.011 116.956C155.27 117.6 159.191 122.808 159.099 124.581" stroke="#263238" stroke-linecap="round" stroke-linejoin="round"/>
<path d="M157.644 121.07C157.644 121.07 151.333 118.177 151.316 119.908C151.299 121.638 155.162 122.307 155.162 122.307L156.416 124.815C156.416 124.815 151.099 123.143 151.4 124.472C151.701 125.801 154.075 126.094 154.075 126.094C154.075 126.094 151.492 128.652 152.219 134.454" stroke="#263238" stroke-linecap="round" stroke-linejoin="round"/>
<path d="M114.816 213.732L116.43 225.035C116.43 225.035 131.286 269.602 133.543 278.313C135.8 287.024 137.096 306.737 137.723 315.774C138.35 324.811 143.575 340.018 143.575 340.018C143.575 340.018 142.931 346.154 131.954 345.184C131.954 345.184 127.432 327.102 122.591 316.443C117.751 305.784 117.04 289.616 117.04 289.616L93.4649 246.344C93.4649 246.344 88.6412 271.541 85.3975 280.896C82.0535 290.543 59.2558 344.073 60.8526 340.319C60.8526 340.319 57.6256 342.258 50.8206 337.41C50.8206 337.41 55.661 321.266 56.9484 312.547C58.2359 303.828 65.0242 283.805 65.0242 283.805C65.0242 283.805 66.6377 246.026 69.2042 234.398C69.2042 234.398 67.5322 221.59 71.1019 212.545C85.2509 217.166 100.437 217.578 114.816 213.732Z" fill="#263238"/>
<path d="M80.5486 238.753L91.1323 241.83L92.6706 245.583" stroke="white" stroke-linecap="round" stroke-linejoin="round"/>
<path d="M132.188 343.864C132.188 343.864 130.759 351.028 131.929 352.499C132.548 353.269 134.387 353.126 135.273 353.143C137.313 353.185 139.361 353.051 141.401 352.917C145.481 352.65 149.661 352.692 153.598 351.429C156.916 350.432 160.084 348.996 163.02 347.157C164.625 346.087 163.02 344.357 163.02 344.357L143.583 339.993" stroke="#263238" stroke-linecap="round" stroke-linejoin="round"/>
<path d="M132.088 349.975C132.088 349.975 153.933 353.561 163.02 344.357" stroke="#263238" stroke-linecap="round" stroke-linejoin="round"/>
<path d="M51.6648 336.691C51.6648 336.691 49.1568 345.293 49.5246 348.002C49.8925 350.71 52.6095 351.346 55.7863 351.271C58.9631 351.195 60.2672 349.774 60.7354 347.626C61.2036 345.477 60.7354 338.53 60.7354 338.53" stroke="#263238" stroke-linecap="round" stroke-linejoin="round"/>
<path d="M49.4912 346.689L60.7354 347.626" stroke="#263238" stroke-linecap="round" stroke-linejoin="round"/>
<path d="M78.8432 88.0475C79.7963 86.3086 80.3564 85.2469 80.3564 85.2469C80.3564 85.2469 77.2548 77.748 78.0323 76.8284C78.8098 75.9088 80.6072 78.5004 80.6072 78.5004C80.6072 78.5004 78.768 72.5397 79.93 72.0298C81.0921 71.5198 83.1653 77.0458 83.1653 77.0458C83.1653 77.0458 82.6219 69.062 83.8258 68.6858C85.0296 68.3096 86.4759 76.2766 86.4759 76.2766C86.4759 76.2766 88.0309 69.1874 88.9839 69.1205C89.9369 69.0536 88.9839 83.7421 88.9839 83.7421C90.9067 84.6868 96.5581 82.3794 96.5079 84.2437C96.4577 86.108 85.6399 90.3967 85.6399 90.3967C85.4507 90.6422 85.2855 90.9054 85.1467 91.1825" stroke="#263238" stroke-linecap="round" stroke-linejoin="round"/>
<path d="M61.7469 149.719L55.5605 129.672L77.656 87.8052L85.6649 91.9935L71.5365 130.123L75.4908 142.856" stroke="#263238" stroke-linecap="round" stroke-linejoin="round"/>
<path d="M62.466 126.503C62.466 126.503 70.3913 126.437 71.5366 130.123C68.0649 129.93 64.6258 130.882 61.7471 132.832" stroke="#263238" stroke-linecap="round" stroke-linejoin="round"/>
<path d="M88.6494 133.977V128.167" stroke="#263238" stroke-linecap="round" stroke-linejoin="round"/>
<path opacity="0.2" d="M119.239 165.887L121.22 179.071C121.22 179.071 122.842 170.469 123.853 170.469C124.865 170.469 123.853 180.551 123.853 180.551C123.853 180.551 140.473 195.599 147.663 195.683C147.663 195.683 143.666 198.491 139.662 196.401C135.658 194.311 118.102 180.517 118.102 180.517L119.239 165.887Z" fill="black"/>
<path opacity="0.2" d="M84.2438 91.2495L69.0453 128.167C69.0453 128.167 63.7535 128.084 61.7471 132.832L69.873 131.378L72.6067 143.918L75.4909 142.822L71.5366 130.09L85.665 91.9601L84.2438 91.2495Z" fill="black"/>
<path d="M293.695 156.173L287.71 143.391L264.185 158.932L283.596 193.325L298.736 184.731L293.695 156.173Z" fill="white"/>
<path d="M313.082 266.734C313.082 266.734 316.886 277.293 317.446 282.434C318.006 287.576 316.292 309.228 316.66 315.197C317.028 321.166 320.255 338.981 320.255 338.981C320.255 338.981 304.43 350.485 299.405 346.781C299.405 346.781 310.557 337.752 311.686 334.157L308.075 309.755L304.488 280.896C304.488 280.896 303.577 274.868 302.306 271.767C301.035 268.665 301.228 262.086 301.228 262.086L313.082 266.734Z" fill="#FFBE9D"/>
<path d="M312.748 265.798C312.748 265.798 316.861 276.917 317.822 284.9C318.784 292.884 315.891 310.992 316.844 319.711C317.797 328.431 318.775 333.255 320.464 337.844L319.628 351.312H317.463L316.627 343.671C316.627 343.671 313.233 342.258 311.176 347.149C309.119 352.04 301.52 352.683 297.917 349.849C297.917 349.849 297.917 347.659 300.626 345.728C303.334 343.797 310.407 337.761 311.694 334.157C311.694 334.157 307.832 309.077 306.929 300.952C306.026 292.826 304.613 278.054 302.808 273.288C301.002 268.523 301.01 261.71 301.01 261.71" stroke="#263238" stroke-linecap="round" stroke-linejoin="round"/>
<path d="M319.636 335.32C319.636 335.32 309.027 346.856 300.124 346.781" stroke="#263238" stroke-linecap="round" stroke-linejoin="round"/>
<path d="M299.405 346.781C300.877 346.944 302.366 346.758 303.753 346.238C306.152 345.402 314.788 341.222 319.035 335.947L320.339 337.426L319.653 351.003L317.471 351.312L316.635 343.671C316.635 343.671 313.843 342.392 312.046 345.535C310.248 348.679 308.952 350.836 305.809 351.53C302.666 352.223 297.926 349.858 297.926 349.858C297.926 349.858 297.098 348.612 299.405 346.781Z" fill="#263238"/>
<path d="M320.481 267.093C321.478 270.759 322.689 274.363 324.109 277.886C326.007 282.242 342.401 326.291 342.401 326.291C342.401 326.291 343.647 350.133 350.627 350.058C357.608 349.983 350.351 333.397 350.351 333.397L346.104 324.309C346.104 324.309 344.483 297.616 342.476 287.801L333.932 264.786L320.481 267.093Z" fill="#FFBE9D"/>
<path d="M334.024 265.555C334.024 265.555 341.038 281.515 342.484 287.801C343.931 294.088 345.385 322.37 346.112 324.309C346.84 326.249 358.443 346.789 351.429 350.903C344.415 355.016 342.76 327.21 342.76 327.21C342.76 327.21 326.567 282.233 324.142 277.886C321.718 273.539 319.068 260.957 319.068 260.957L334.024 265.555Z" stroke="#263238" stroke-linecap="round" stroke-linejoin="round"/>
<path d="M352.792 340.361C352.792 340.361 352.307 345.928 350.468 346.714C348.629 347.5 344.566 341.222 344.566 341.222" stroke="#263238" stroke-linecap="round" stroke-linejoin="round"/>
<path d="M344.583 342.183C344.583 342.183 347.091 351.68 350.435 351.279C353.779 350.877 354.38 345.602 352.8 341.531C352.8 341.531 352.24 345.711 350.476 346.714C348.696 346.739 344.583 342.183 344.583 342.183Z" fill="#263238"/>
<path d="M314.98 182.541C314.98 182.541 323.432 194.077 329.292 212.637C335.153 231.196 334.551 266.742 334.551 266.742C334.551 266.742 312.74 273.756 291.597 264.845L295.468 184.756C295.468 184.756 309.07 185.007 314.98 182.541Z" fill="#263238"/>
<path d="M304.062 98.8735C304.062 98.8735 297.491 105.026 296.722 109.056C296.087 111.876 295.069 114.596 293.695 117.14C294.402 118.21 295.438 119.02 296.646 119.448C296.646 119.448 297.073 127.699 299.472 128.334L305.207 126.829L305.817 130.366L314.044 127.239V122.474L320.314 118.377L318.081 107.668L307.882 102.903L304.062 98.8735Z" fill="#FFBE9D"/>
<path d="M295.426 184.112L294.699 172.542C294.699 172.542 289.348 162.51 291.045 158.865C292.918 154.861 304.171 140.03 304.171 140.03L303.067 131.937L318.834 125.183L319.586 131.937L317.68 133.35L319.795 137.881C319.795 137.881 319.929 136.535 323.591 143.366C327.253 150.196 341.047 174.498 342.133 179.163C343.22 183.828 320.682 200.264 313.074 204.143C313.074 204.143 312.196 202.262 303.159 209.159C300.86 208.758 297.683 206.693 297.006 205.414C296.329 204.134 299.606 201.091 299.606 201.091C299.606 201.091 301.579 197.363 305.065 200.347H308.777L330.02 180.576L319.252 164.817L314.98 182.515C314.98 182.515 301.161 186.712 295.426 184.112Z" fill="white"/>
<path d="M303.067 131.937L304.195 140.206L319.586 131.937L318.834 125.183L303.067 131.937Z" stroke="#263238" stroke-linecap="round" stroke-linejoin="round"/>
<path d="M304.196 140.206C304.196 140.206 290.193 157.335 290.569 160.713C290.945 164.09 294.699 172.542 294.699 172.542L295.468 184.748C295.468 184.748 306.796 185.057 314.98 182.541L319.252 164.842" stroke="#263238" stroke-linecap="round" stroke-linejoin="round"/>
<path d="M330.02 180.576L308.326 147.872C308.326 147.872 306.194 140.348 311.327 137.664C316.46 134.98 320.924 138.383 322.521 140.172C324.118 141.961 341.339 175.142 342.142 179.13C342.944 183.117 324.753 199.068 314.228 203.374C314.228 203.374 309.438 206.249 309.438 200.347L330.02 180.576Z" stroke="#263238" stroke-linecap="round" stroke-linejoin="round"/>
<path d="M319.586 137.882L317.555 133.033" stroke="#263238" stroke-linecap="round" stroke-linejoin="round"/>
<path d="M309.437 200.381H305.074C305.074 200.381 301.671 197.338 300.058 200.381C298.444 203.424 296.404 204.026 297.014 205.447C297.625 206.868 301.119 209.702 303.167 209.192C305.216 208.682 310.992 203.984 310.992 203.984" stroke="#263238" stroke-linecap="round" stroke-linejoin="round"/>
<path d="M302.49 101.039C302.49 101.039 297.365 105.52 296.797 108.003C296.228 110.486 296.471 114.691 293.695 117.14C293.695 117.14 293.837 119.147 296.646 119.448C296.646 119.448 298.084 127.364 299.472 128.334C300.86 129.304 309.354 124.923 312.681 123.118C313.53 122.536 314.148 121.675 314.428 120.685" stroke="#263238" stroke-linecap="round" stroke-linejoin="round"/>
<path d="M298.511 121.864C300.082 121.598 301.499 120.762 302.49 119.514" stroke="#263238" stroke-linecap="round" stroke-linejoin="round"/>
<path d="M298.511 110.41C298.511 110.41 300.534 109.232 301.646 111.188" stroke="#263238" stroke-linecap="round" stroke-linejoin="round"/>
<path d="M299.898 114.616C299.898 115.293 299.706 115.844 299.397 115.861C299.088 115.878 298.803 115.343 298.77 114.674C298.736 114.005 298.962 113.437 299.271 113.42C299.581 113.403 299.865 113.938 299.898 114.616Z" fill="#263238"/>
<path d="M305.207 126.83L305.884 130.734" stroke="#263238" stroke-linecap="round" stroke-linejoin="round"/>
<path d="M311.778 114.097C311.778 114.097 313.032 111.664 314.428 113.086C315.824 114.507 318.475 121.078 311.327 119.514C311.327 119.514 310.85 123.527 314.428 124.53C318.006 125.534 324.803 119.999 325.029 110.561C325.255 101.122 316.142 94.7522 311.327 96.5747C311.327 96.5747 304.346 85.6314 297.424 90.2963C290.502 94.9612 295.167 102.142 293.696 103.764C292.224 105.386 289.081 103.865 288.981 108.22C288.88 112.576 296.162 112.133 296.162 112.133L297.04 107.334L303.067 101.039C303.067 101.039 301.646 105.587 304.062 109.541C306.244 113.102 311.778 114.097 311.778 114.097Z" fill="#263238"/>
<path d="M325.029 110.561C325.029 110.561 328.373 111.313 328.005 115.836C327.637 120.359 320.088 131.478 320.657 137.881L340.144 174.197C340.144 174.197 348.913 172.525 348.504 163.497C348.094 154.468 337.393 146.86 339.458 140.206C341.523 133.551 349.632 116.605 338.146 106.891C326.659 97.1766 308.752 112.066 308.752 112.066L317.522 109.24L325.029 110.561Z" fill="#263238"/>
<path d="M292.943 155.429L287.71 143.391L264.185 158.932L283.596 193.325L295.367 186.846" stroke="#263238" stroke-linecap="round" stroke-linejoin="round"/>
<path d="M271.508 175.944C271.508 175.944 270.237 173.319 271.934 171.873C273.632 170.427 279.458 166.138 279.458 167.192C279.497 167.447 279.481 167.708 279.412 167.957C279.343 168.207 279.222 168.438 279.057 168.638C277.385 170.878 273.381 174.49 273.64 174.782C273.64 174.782 280.947 169.934 281.649 170.393C281.824 170.51 281.724 171.137 281.114 171.748C279.111 173.53 276.998 175.183 274.785 176.697C274.785 176.697 282.493 173.712 283.488 174.189C283.772 174.323 283.714 174.757 282.819 175.301C280.581 176.517 278.279 177.611 275.922 178.578L277.853 181.805C277.853 181.805 274.208 182.44 271.508 175.944Z" fill="#FFBE9D" stroke="#263238" stroke-linecap="round" stroke-linejoin="round"/>
<path d="M313.509 121.864L314.044 127.239" stroke="#263238" stroke-linejoin="round"/>
</g>
<defs>
<clipPath id="clip0_70_4728">
<rect width="418" height="418" fill="white"/>
</clipPath>
</defs>
</svg>
