<svg width="428" height="428" viewBox="0 0 428 428" fill="none" xmlns="http://www.w3.org/2000/svg">
<path d="M198.164 382.632C271.526 382.632 330.998 378.332 330.998 373.028C330.998 367.723 271.526 363.423 198.164 363.423C124.802 363.423 65.3298 367.723 65.3298 373.028C65.3298 378.332 124.802 382.632 198.164 382.632Z" fill="#47C2C9"/>
<path opacity="0.5" d="M198.164 382.632C271.526 382.632 330.998 378.332 330.998 373.028C330.998 367.723 271.526 363.423 198.164 363.423C124.802 363.423 65.3298 367.723 65.3298 373.028C65.3298 378.332 124.802 382.632 198.164 382.632Z" fill="white"/>
<path d="M366.368 65.4839H166.338C161.61 65.4839 157.778 69.3163 157.778 74.0439V337.991C157.778 342.719 161.61 346.551 166.338 346.551H366.368C371.095 346.551 374.928 342.719 374.928 337.991V74.0439C374.928 69.3163 371.095 65.4839 366.368 65.4839Z" stroke="#263238" stroke-width="1.0229" stroke-linecap="round" stroke-linejoin="round"/>
<path d="M248.95 142.721V143.594H248.077" stroke="#263238" stroke-width="1.0229" stroke-linecap="round" stroke-linejoin="round"/>
<path d="M246.348 143.594H195.425" stroke="#263238" stroke-width="1.0229" stroke-linecap="round" stroke-linejoin="round" stroke-dasharray="2.02 2.02"/>
<path d="M194.56 143.594H193.678V142.721" stroke="#263238" stroke-width="1.0229" stroke-linecap="round" stroke-linejoin="round"/>
<path d="M193.678 141.034V101.427" stroke="#263238" stroke-width="1.0229" stroke-linecap="round" stroke-linejoin="round" stroke-dasharray="1.97 1.97"/>
<path d="M193.678 100.58V99.7068H194.56" stroke="#263238" stroke-width="1.0229" stroke-linecap="round" stroke-linejoin="round"/>
<path d="M196.281 99.7068H247.213" stroke="#263238" stroke-width="1.0229" stroke-linecap="round" stroke-linejoin="round" stroke-dasharray="2.02 2.02"/>
<path d="M248.077 99.7068H248.95V100.58" stroke="#263238" stroke-width="1.0229" stroke-linecap="round" stroke-linejoin="round"/>
<path d="M248.95 102.266V141.882" stroke="#263238" stroke-width="1.0229" stroke-linecap="round" stroke-linejoin="round" stroke-dasharray="1.97 1.97"/>
<path d="M240.125 106.717H202.504V136.592H240.125V106.717Z" fill="white" stroke="#263238" stroke-width="1.0229" stroke-linecap="round" stroke-linejoin="round"/>
<path d="M200.295 104.5L187.387 94.5452" stroke="#263238" stroke-width="1.0229" stroke-linecap="round" stroke-linejoin="round"/>
<path d="M242.71 138.064L253.778 147.651" stroke="#263238" stroke-width="1.0229" stroke-linecap="round" stroke-linejoin="round"/>
<path d="M186.873 97.8236L186.497 93.5864H190.922" stroke="#263238" stroke-width="1.0229" stroke-linecap="round" stroke-linejoin="round"/>
<path d="M254.078 143.645L254.84 148.268L249.456 148.465" stroke="#263238" stroke-width="1.0229" stroke-linecap="round" stroke-linejoin="round"/>
<path d="M286.717 256.252H268.45V262.843H286.717V256.252Z" fill="#263238"/>
<path d="M294.139 259.539L282.429 252.785V266.301L294.139 259.539Z" fill="#263238"/>
<path d="M255.276 210.79H213.264C209.987 210.79 207.332 213.446 207.332 216.722V310.009C207.332 313.285 209.987 315.941 213.264 315.941H255.276C258.552 315.941 261.208 313.285 261.208 310.009V216.722C261.208 213.446 258.552 210.79 255.276 210.79Z" fill="#263238" stroke="#263238" stroke-width="0.829236" stroke-linecap="round" stroke-linejoin="round"/>
<path d="M258.82 217.929H209.729V309.692H258.82V217.929Z" fill="white" stroke="#263238" stroke-width="0.829236" stroke-linecap="round" stroke-linejoin="round"/>
<path d="M249.721 330.416L253.47 315.864C253.88 314.296 254.087 312.682 254.086 311.062V293.608C254.154 293.383 254.191 293.15 254.198 292.915C254.147 292.137 253.791 291.411 253.207 290.895C252.624 290.378 251.86 290.114 251.082 290.158C250.241 290.142 249.426 290.448 248.805 291.014C248.692 290.286 248.314 289.626 247.743 289.16C247.173 288.694 246.45 288.455 245.715 288.489C245.206 288.479 244.702 288.59 244.245 288.813C243.788 289.037 243.391 289.366 243.087 289.773C242.963 289.055 242.581 288.408 242.014 287.951C241.447 287.494 240.733 287.259 240.005 287.291C239.495 287.283 238.99 287.396 238.532 287.621C238.074 287.845 237.675 288.175 237.369 288.583C237.369 286.272 237.369 275.187 236.983 274.28C235.853 271.361 230.135 272.696 231.154 275.795V301.432C231.154 299.634 229.819 297.263 229.262 295.517C228.706 293.771 228.406 292.093 227.345 290.638C225.581 288.121 222.474 289.508 222.654 292.127C222.799 294.43 224.469 296.244 225.367 298.333C227.028 302.185 226.035 306.217 227.602 310.086C228.902 312.539 230.349 314.911 231.933 317.191C232.787 318.687 233.462 320.279 233.945 321.933L232.489 330.416" fill="white"/>
<path d="M249.721 330.416L253.47 315.864C253.88 314.296 254.087 312.682 254.086 311.062V293.608C254.154 293.383 254.191 293.15 254.198 292.915C254.147 292.137 253.791 291.411 253.207 290.895C252.624 290.378 251.86 290.114 251.082 290.158C250.241 290.142 249.426 290.448 248.805 291.014C248.692 290.286 248.314 289.626 247.743 289.16C247.173 288.694 246.45 288.455 245.715 288.489C245.206 288.479 244.702 288.59 244.245 288.813C243.788 289.037 243.391 289.366 243.087 289.773C242.963 289.055 242.581 288.408 242.014 287.951C241.447 287.494 240.733 287.259 240.005 287.291C239.495 287.283 238.99 287.396 238.532 287.621C238.074 287.845 237.675 288.175 237.369 288.583C237.369 286.272 237.369 275.187 236.983 274.28C235.853 271.361 230.135 272.696 231.154 275.795V301.432C231.154 299.634 229.819 297.263 229.262 295.517C228.706 293.771 228.406 292.093 227.345 290.638C225.581 288.121 222.474 289.508 222.654 292.127C222.799 294.43 224.469 296.244 225.367 298.333C227.028 302.185 226.035 306.217 227.602 310.086C228.902 312.539 230.349 314.911 231.933 317.191C232.787 318.687 233.462 320.279 233.945 321.933L232.489 330.416" stroke="#263238" stroke-width="1.0229" stroke-linecap="round" stroke-linejoin="round"/>
<path d="M234.313 265.446V270.239" stroke="#263238" stroke-width="1.0229" stroke-linecap="round" stroke-linejoin="round"/>
<path d="M239.706 274.725H243.6" stroke="#263238" stroke-width="1.0229" stroke-linecap="round" stroke-linejoin="round"/>
<path d="M223.536 274.725H227.43" stroke="#263238" stroke-width="1.0229" stroke-linecap="round" stroke-linejoin="round"/>
<path d="M228.929 269.64L230.427 272.028" stroke="#263238" stroke-width="1.0229" stroke-linecap="round" stroke-linejoin="round"/>
<path d="M237.908 272.328L240.005 269.64" stroke="#263238" stroke-width="1.0229" stroke-linecap="round" stroke-linejoin="round"/>
<path d="M257.074 253.47H211.561V259.162H257.074V253.47Z" stroke="#263238" stroke-width="1.0229" stroke-linecap="round" stroke-linejoin="round"/>
<path d="M234.92 222.928H213.058V248.976H234.92V222.928Z" stroke="#263238" stroke-width="1.0229" stroke-linecap="round" stroke-linejoin="round"/>
<path d="M213.058 222.928L234.912 248.976" stroke="#263238" stroke-width="1.0229" stroke-linecap="round" stroke-linejoin="round"/>
<path d="M212.459 299.283V262.15H256.774V298.984" stroke="#263238" stroke-width="1.0229" stroke-linecap="round" stroke-linejoin="round"/>
<path d="M345.884 210.79H303.872C300.595 210.79 297.939 213.446 297.939 216.722V310.009C297.939 313.285 300.595 315.941 303.872 315.941H345.884C349.16 315.941 351.816 313.285 351.816 310.009V216.722C351.816 213.446 349.16 210.79 345.884 210.79Z" fill="#263238" stroke="#263238" stroke-width="0.829236" stroke-linecap="round" stroke-linejoin="round"/>
<path d="M349.428 217.929H300.336V309.692H349.428V217.929Z" fill="white" stroke="#263238" stroke-width="0.829236" stroke-linecap="round" stroke-linejoin="round"/>
<path d="M347.202 222.329H302.887V270.838H347.202V222.329Z" stroke="#263238" stroke-width="1.0229" stroke-linecap="round" stroke-linejoin="round"/>
<path d="M302.887 275.324H347.202" stroke="#263238" stroke-width="1.0229" stroke-linecap="round" stroke-linejoin="round"/>
<path d="M302.887 278.919H347.202" stroke="#263238" stroke-width="1.0229" stroke-linecap="round" stroke-linejoin="round"/>
<path d="M302.887 282.514H347.202" stroke="#263238" stroke-width="1.0229" stroke-linecap="round" stroke-linejoin="round"/>
<path d="M302.887 286.109H347.202" stroke="#263238" stroke-width="1.0229" stroke-linecap="round" stroke-linejoin="round"/>
<path d="M302.887 289.696H347.202" stroke="#263238" stroke-width="1.0229" stroke-linecap="round" stroke-linejoin="round"/>
<path d="M302.887 293.291H347.202" stroke="#263238" stroke-width="1.0229" stroke-linecap="round" stroke-linejoin="round"/>
<path d="M302.887 296.886H347.202" stroke="#263238" stroke-width="1.0229" stroke-linecap="round" stroke-linejoin="round"/>
<path d="M302.887 270.838L347.202 222.329" stroke="#263238" stroke-width="1.0229" stroke-linecap="round" stroke-linejoin="round"/>
<path d="M345.884 90.0852H303.872C300.595 90.0852 297.939 92.7411 297.939 96.0173V189.304C297.939 192.58 300.595 195.236 303.872 195.236H345.884C349.16 195.236 351.816 192.58 351.816 189.304V96.0173C351.816 92.7411 349.16 90.0852 345.884 90.0852Z" fill="#263238" stroke="#263238" stroke-width="0.829236" stroke-linecap="round" stroke-linejoin="round"/>
<path d="M349.428 97.2244H300.336V188.988H349.428V97.2244Z" fill="white" stroke="#263238" stroke-width="0.829236" stroke-linecap="round" stroke-linejoin="round"/>
<path d="M243.66 207.657V179.691H283.01" stroke="#263238" stroke-width="1.0229" stroke-linecap="round" stroke-linejoin="round"/>
<path d="M281.727 184.057L289.285 179.691L281.727 175.326V184.057Z" fill="#263238"/>
<path d="M323.885 206.921V185.452" stroke="#263238" stroke-width="1.0229" stroke-linecap="round" stroke-linejoin="round"/>
<path d="M328.25 186.736L323.885 179.169L319.519 186.736H328.25Z" fill="#263238"/>
<path d="M303.598 325.511H323.448" stroke="#263238" stroke-width="1.0229" stroke-linecap="round" stroke-linejoin="round"/>
<path d="M303.598 329.979H323.448" stroke="#263238" stroke-width="1.0229" stroke-linecap="round" stroke-linejoin="round"/>
<path d="M303.598 334.439H323.448" stroke="#263238" stroke-width="1.0229" stroke-linecap="round" stroke-linejoin="round"/>
<path d="M255.464 325.511H275.315" stroke="#263238" stroke-width="1.0229" stroke-linecap="round" stroke-linejoin="round"/>
<path d="M255.464 329.979H275.315" stroke="#263238" stroke-width="1.0229" stroke-linecap="round" stroke-linejoin="round"/>
<path d="M255.464 334.439H275.315" stroke="#263238" stroke-width="1.0229" stroke-linecap="round" stroke-linejoin="round"/>
<path d="M250.003 188.551H269.854" stroke="#263238" stroke-width="1.0229" stroke-linecap="round" stroke-linejoin="round"/>
<path d="M250.003 193.011H269.854" stroke="#263238" stroke-width="1.0229" stroke-linecap="round" stroke-linejoin="round"/>
<path d="M250.003 197.479H269.854" stroke="#263238" stroke-width="1.0229" stroke-linecap="round" stroke-linejoin="round"/>
<path d="M264.889 134.46H284.74" stroke="#263238" stroke-width="1.0229" stroke-linecap="round" stroke-linejoin="round"/>
<path d="M264.889 138.929H284.74" stroke="#263238" stroke-width="1.0229" stroke-linecap="round" stroke-linejoin="round"/>
<path d="M264.889 143.388H284.74" stroke="#263238" stroke-width="1.0229" stroke-linecap="round" stroke-linejoin="round"/>
<path d="M193.43 149.843H213.281" stroke="#263238" stroke-width="1.0229" stroke-linecap="round" stroke-linejoin="round"/>
<path d="M193.43 154.311H213.281" stroke="#263238" stroke-width="1.0229" stroke-linecap="round" stroke-linejoin="round"/>
<path d="M193.43 158.771H213.281" stroke="#263238" stroke-width="1.0229" stroke-linecap="round" stroke-linejoin="round"/>
<path d="M96.5909 215.712C96.5909 215.712 96.5909 212.014 91.4035 206.827C86.2161 201.639 82.8435 198.677 82.8435 198.677C82.8435 198.677 80.2755 207.237 85.0605 212.373C88.6036 216.021 92.4462 219.366 96.5481 222.372L96.5909 215.712Z" fill="#47C2C9"/>
<path d="M89.0667 238.875C89.0667 238.875 89.0667 235.169 83.8793 229.981C78.692 224.794 75.3279 221.832 75.3279 221.832C75.3279 221.832 72.7599 230.392 77.5449 235.528C81.0906 239.173 84.933 242.518 89.0324 245.526L89.0667 238.875Z" fill="#47C2C9"/>
<path d="M96.2656 222.046C96.2656 222.046 96.6594 218.366 102.36 213.76C108.061 209.155 111.691 206.553 111.691 206.553C111.691 206.553 113.403 215.301 108.036 219.949C104.13 223.203 99.9578 226.124 95.5637 228.68L96.2656 222.046Z" fill="#47C2C9"/>
<path d="M87.1751 249.37C87.1751 249.37 87.9455 245.749 94.1087 241.768C100.272 237.788 104.141 235.58 104.141 235.58C104.141 235.58 104.894 244.456 99.0992 248.514C94.8708 251.342 90.4125 253.81 85.7712 255.892L87.1751 249.37Z" fill="#47C2C9"/>
<path d="M88.8784 279.159C88.8784 279.159 88.8784 275.452 94.0658 270.265C99.2531 265.077 102.626 262.116 102.626 262.116C102.626 262.116 105.194 270.676 100.409 275.812C96.8646 279.461 93.0221 282.808 88.9212 285.818L88.8784 279.159Z" fill="#47C2C9"/>
<path d="M88.7928 286.426C88.7928 286.426 89.3235 282.762 84.9236 276.89C80.5238 271.018 77.6476 267.611 77.6476 267.611C77.6476 267.611 73.8727 275.683 77.9044 281.495C80.889 285.612 84.2164 289.47 87.8512 293.026L88.7928 286.426Z" fill="#47C2C9"/>
<path d="M83.6826 307.98C83.6826 307.98 83.6826 304.274 88.87 299.086C94.0573 293.899 97.43 290.937 97.43 290.937C97.43 290.937 99.998 299.454 95.2044 304.633C91.6654 308.282 87.8256 311.627 83.7254 314.631L83.6826 307.98Z" fill="#47C2C9"/>
<path d="M87.1408 327.514C87.1408 327.514 86.2078 323.927 89.88 317.576C93.5523 311.224 96.0604 307.535 96.0604 307.535C96.0604 307.535 100.726 315.119 97.3872 321.351C94.8903 325.777 92.027 329.986 88.8272 333.934L87.1408 327.514Z" fill="#47C2C9"/>
<path d="M97.0617 214.796C96.7969 218.651 96.3226 222.489 95.6408 226.292C93.5864 236.881 88.4675 243.72 86.4131 253.282C84.3587 262.843 90.2479 275.178 88.6729 287.462C87.0979 299.745 82.3128 306.585 83.6824 314.785C85.052 322.986 92.2424 345.19 92.2424 345.19" stroke="#263238" stroke-width="1.03476" stroke-linecap="round" stroke-linejoin="round"/>
<path d="M96.2144 224.511L101.804 220.223" stroke="#263238" stroke-width="1.03476" stroke-linecap="round" stroke-linejoin="round"/>
<path d="M96.4712 219.573L94.1343 215.412" stroke="#263238" stroke-width="1.03476" stroke-linecap="round" stroke-linejoin="round"/>
<path d="M86.7212 252.845C86.7212 252.845 91.4035 249.336 96.2142 245.826" stroke="#263238" stroke-width="1.03476" stroke-linecap="round" stroke-linejoin="round"/>
<path d="M89.0667 245.543C89.0667 245.543 85.1633 237.899 80.7463 232.832" stroke="#263238" stroke-width="1.03476" stroke-linecap="round" stroke-linejoin="round"/>
<path d="M89.0667 284.432C91.7348 279.507 95.1057 274.997 99.0733 271.044" stroke="#263238" stroke-width="1.03476" stroke-linecap="round" stroke-linejoin="round"/>
<path d="M88.168 289.628C86.7445 286.286 85.0466 283.068 83.0919 280.006C80.3698 275.983 79.9761 275.461 79.9761 275.461" stroke="#263238" stroke-width="1.03476" stroke-linecap="round" stroke-linejoin="round"/>
<path d="M83.6826 314.785C84.8669 311.829 86.2748 308.967 87.8941 306.225C89.514 303.696 91.3407 301.305 93.3554 299.078" stroke="#263238" stroke-width="1.03476" stroke-linecap="round" stroke-linejoin="round"/>
<path d="M88.8357 333.96C88.5647 331.151 89.0462 328.32 90.231 325.759C92.1827 321.984 94.3911 317.054 95.3071 315.102" stroke="#263238" stroke-width="1.03476" stroke-linecap="round" stroke-linejoin="round"/>
<path d="M62.6334 265.223C62.6334 265.223 62.2311 262.903 64.9189 259.085C67.6068 255.268 69.3787 253.051 69.3787 253.051C69.3787 253.051 71.9467 258.118 69.4729 261.893C67.6445 264.566 65.5943 267.08 63.3439 269.409L62.6334 265.223Z" fill="#47C2C9"/>
<path d="M69.8581 278.919C69.8581 278.919 69.4643 276.591 72.1522 272.781C74.84 268.972 76.6034 266.747 76.6034 266.747C76.6034 266.747 79.1714 271.806 76.6975 275.581C74.8735 278.252 72.8291 280.766 70.5857 283.096L69.8581 278.919Z" fill="#47C2C9"/>
<path d="M63.5237 269.152C63.5237 269.152 62.8731 266.884 58.7986 264.607C54.724 262.33 52.1646 261.08 52.1646 261.08C52.1646 261.08 52.0619 266.747 55.9139 269.083C58.7151 270.699 61.6473 272.076 64.6793 273.201L63.5237 269.152Z" fill="#47C2C9"/>
<path d="M72.1864 285.296C72.1864 285.296 71.3304 283.105 67.0504 281.273C62.7704 279.441 60.0825 278.491 60.0825 278.491C60.0825 278.491 60.579 284.132 64.6536 286.049C67.6104 287.362 70.6711 288.427 73.8042 289.234L72.1864 285.296Z" fill="#47C2C9"/>
<path d="M74.3522 304.154C74.3522 304.154 73.9499 301.834 70.1321 299.146C66.3144 296.458 63.909 294.96 63.909 294.96C63.909 294.96 63.2071 300.584 66.7852 303.315C69.4023 305.218 72.174 306.899 75.0712 308.34L74.3522 304.154Z" fill="#47C2C9"/>
<path d="M75.1911 308.708C75.1911 308.708 74.472 306.448 76.5864 302.305C78.7007 298.162 80.1388 295.697 80.1388 295.697C80.1388 295.697 83.383 300.345 81.4912 304.436C80.0618 307.338 78.3925 310.116 76.5008 312.739L75.1911 308.708Z" fill="#47C2C9"/>
<path d="M81.7052 327.445C81.7052 327.445 81.9705 325.1 85.6257 322.198C89.2808 319.296 91.6177 317.67 91.6177 317.67C91.6177 317.67 92.6449 323.243 89.2209 326.17C86.7158 328.218 84.0444 330.053 81.2344 331.657L81.7052 327.445Z" fill="#47C2C9"/>
<path d="M80.7378 321.668C80.7378 321.668 80.3354 319.339 76.5262 316.651C72.717 313.964 70.2946 312.44 70.2946 312.44C70.2946 312.44 69.5926 318.064 73.1793 320.795C75.7951 322.699 78.567 324.38 81.4654 325.819L80.7378 321.668Z" fill="#47C2C9"/>
<path d="M80.6865 334.294C80.6865 334.294 80.892 331.94 77.8788 328.379C74.8657 324.818 72.914 322.746 72.914 322.746C72.914 322.746 70.8083 328.01 73.5903 331.563C75.6393 334.065 77.8926 336.393 80.327 338.522L80.6865 334.294Z" fill="#47C2C9"/>
<path d="M62.2312 264.684C62.8195 267.071 63.5338 269.425 64.3712 271.737C66.8108 278.157 70.7655 281.889 73.0853 287.667C75.405 293.445 73.0853 301.808 75.3794 309.341C77.6734 316.874 81.4484 320.64 81.4741 325.93C81.4998 331.22 79.4197 345.927 79.4197 345.927" stroke="#263238" stroke-width="1.03476" stroke-linecap="round" stroke-linejoin="round"/>
<path d="M63.8234 270.684L59.8516 268.604" stroke="#263238" stroke-width="1.03476" stroke-linecap="round" stroke-linejoin="round"/>
<path d="M63.1213 267.62L64.14 264.752" stroke="#263238" stroke-width="1.03476" stroke-linecap="round" stroke-linejoin="round"/>
<path d="M72.8456 287.428C72.8456 287.428 69.5328 285.716 66.1345 284.055" stroke="#263238" stroke-width="1.03476" stroke-linecap="round" stroke-linejoin="round"/>
<path d="M70.5857 283.096C71.5611 280.015 72.8459 277.041 74.4206 274.219" stroke="#263238" stroke-width="1.03476" stroke-linecap="round" stroke-linejoin="round"/>
<path d="M74.8058 307.484C72.606 304.686 70.0108 302.224 67.1018 300.173" stroke="#263238" stroke-width="1.03476" stroke-linecap="round" stroke-linejoin="round"/>
<path d="M75.9443 310.642C76.4698 308.392 77.1828 306.19 78.0758 304.06C79.3512 301.243 79.5395 300.867 79.5395 300.867" stroke="#263238" stroke-width="1.03476" stroke-linecap="round" stroke-linejoin="round"/>
<path d="M81.3198 329.945C82.6134 328.344 84.0456 326.86 85.5998 325.511C86.5881 324.786 87.5156 323.981 88.3733 323.106" stroke="#263238" stroke-width="1.03476" stroke-linecap="round" stroke-linejoin="round"/>
<path d="M81.4741 325.93C80.4143 324.215 79.2238 322.584 77.9132 321.051C76.6235 319.638 75.2176 318.335 73.7102 317.156" stroke="#263238" stroke-width="1.03476" stroke-linecap="round" stroke-linejoin="round"/>
<path d="M80.3269 338.522C80.1922 336.729 79.5837 335.004 78.5636 333.523C76.9286 331.375 75.0026 328.516 74.2236 327.394" stroke="#263238" stroke-width="1.03476" stroke-linecap="round" stroke-linejoin="round"/>
<path d="M68.8308 343.367H102.72V368.885C102.72 369.566 102.449 370.219 101.968 370.7C101.486 371.182 100.833 371.453 100.152 371.453H71.433C70.752 371.453 70.0988 371.182 69.6172 370.7C69.1356 370.219 68.865 369.566 68.865 368.885V343.367H68.8308Z" fill="#263238"/>
<path d="M102.455 347.793H68.8309C68.4817 347.793 68.1359 347.724 67.8134 347.59C67.4909 347.456 67.198 347.26 66.9514 347.013C66.7049 346.765 66.5096 346.472 66.3768 346.149C66.2439 345.826 66.1761 345.48 66.1773 345.131C66.1773 344.427 66.4568 343.752 66.9545 343.254C67.4521 342.757 68.1271 342.477 68.8309 342.477H102.455C103.158 342.477 103.833 342.757 104.331 343.254C104.829 343.752 105.108 344.427 105.108 345.131C105.109 345.48 105.041 345.826 104.909 346.149C104.776 346.472 104.58 346.765 104.334 347.013C104.087 347.26 103.795 347.456 103.472 347.59C103.15 347.724 102.804 347.793 102.455 347.793Z" fill="#263238"/>
<path d="M112.992 362.944C112.992 362.944 111.152 370.032 111.152 371.821C111.152 373.61 110.706 374.808 114.576 375.553C118.445 376.298 120.996 375.852 121.595 374.063C122.194 372.274 122.639 363.303 122.639 363.303L113.223 361.506L112.992 362.944Z" fill="white" stroke="#263238" stroke-width="1.03476" stroke-linecap="round" stroke-linejoin="round"/>
<path d="M121.552 374.072C121.673 373.664 121.759 373.246 121.809 372.822C118.219 372.841 114.633 372.555 111.092 371.966C111.092 373.678 110.758 374.834 114.516 375.553C118.273 376.272 120.978 375.861 121.552 374.072Z" fill="white" stroke="#263238" stroke-width="1.03476" stroke-linecap="round" stroke-linejoin="round"/>
<path d="M203.771 363.612C203.771 363.612 206.758 364.656 211.098 366C215.438 367.344 224.272 368.842 225.128 368.987C225.984 369.133 225.984 370.93 225.274 371.684C224.563 372.437 220.643 374.671 216.012 375.861C211.381 377.051 195.682 378.104 194.338 377.213C193.216 376.46 193.593 369.141 194.038 367.498C194.483 365.854 203.771 363.612 203.771 363.612Z" fill="white" stroke="#263238" stroke-width="1.03476" stroke-linecap="round" stroke-linejoin="round"/>
<path d="M225.29 371.684C225.535 371.399 225.703 371.058 225.781 370.692C225.859 370.325 225.843 369.945 225.736 369.586C222.705 372 216.653 374.654 210.499 375.27C204.912 375.668 199.303 375.64 193.721 375.185C193.832 376.212 194.029 376.991 194.355 377.213C195.699 378.069 211.389 377.059 216.029 375.861C220.668 374.662 224.546 372.428 225.29 371.684Z" fill="white" stroke="#263238" stroke-width="1.03476" stroke-linecap="round" stroke-linejoin="round"/>
<path d="M131.482 233.32C131.482 233.32 128.914 248.95 130.899 257.63C130.899 257.63 127.142 292.059 126.56 307.398C126.56 307.398 118.462 334.311 117.298 342.7C116.201 349.515 114.764 356.272 112.992 362.944C114.793 363.94 116.749 364.626 118.778 364.973C122.836 365.829 123.409 362.653 123.409 362.653C123.409 362.653 145.665 311.438 147.429 303.914C149.192 296.39 154.936 269.494 154.936 269.494L178.904 313.476C178.904 313.476 180.068 328.524 183.535 337.204C187.002 345.884 193.661 369.895 193.661 369.895C196.296 370.041 198.936 369.752 201.477 369.039C204.952 367.883 204.952 366.145 204.952 366.145C204.952 366.145 199.739 346.757 199.739 340.397C199.739 334.037 197.719 312.329 196.272 306.251C194.826 300.173 184.982 268.347 183.535 264.872C182.088 261.397 178.904 250.406 178.904 250.406L176.884 233.328C176.884 233.328 152.026 240.271 131.482 233.32Z" fill="#263238" stroke="#263238" stroke-width="1.03476" stroke-linecap="round" stroke-linejoin="round"/>
<path d="M149.843 159.575C149.843 159.575 148.508 156.691 148.508 154.919C148.508 153.147 147.652 144.724 147.652 144.724C147.652 144.724 160.492 121.466 164.044 117.032C166.361 114.192 168.959 111.594 171.799 109.277C171.799 109.277 180.445 107.505 182.217 107.505C183.989 107.505 185.983 106.649 185.983 105.51C185.983 104.372 183.098 104.654 181.327 104.654C179.555 104.654 177.338 103.105 177.338 103.105C177.338 103.105 180.222 94.8447 181.104 91.5834C181.575 89.8714 183.099 86.2676 181.96 86.2676C180.822 86.2676 180.633 87.1236 179.966 88.4846C179.298 89.8457 176.422 94.2455 176.422 94.2455L177.081 84.4957C177.081 84.4957 176.225 83.1689 175.531 84.7182C174.653 87.1106 173.913 89.5514 173.314 92.0285C173.109 92.8044 172.732 93.524 172.21 94.1342L171.354 86.8668C171.354 86.8668 169.848 85.2661 169.582 88.0395C169.437 89.5803 169.582 94.6906 169.582 95.5723C169.582 96.454 168.726 94.314 168.726 94.314C168.726 94.314 168.204 91.9086 167.622 91.5834C167.04 91.2581 166.518 92.0285 166.766 93.8004C167.014 95.5723 166.543 102.883 166.543 102.883C166.543 102.883 165.217 104.654 163.222 107.094C161.228 109.534 145.246 123.932 139.254 128.588C133.262 133.245 132.612 137.011 131.721 141.659C130.831 146.307 129.949 173.331 129.949 183.098C129.949 192.865 130.805 208.35 131.499 213.452C132.192 218.554 130.968 225.128 130.112 228.706C129.256 232.284 130.112 235.349 132.552 237.12C134.991 238.892 145.392 240.005 154.037 240.005C162.683 240.005 171.542 239.149 174.205 238.233C176.867 237.317 178.904 237.112 178.904 233.577C178.904 230.041 177.132 222.945 177.132 220.951C177.132 218.956 180.685 198.352 180.685 198.352C180.685 198.352 203.283 205.2 207.494 203.668C211.706 202.136 246.93 168.88 246.93 168.88C246.93 168.88 252.469 166.663 255.353 166.218C258.238 165.773 262.664 163.787 262.886 163.119C263.109 162.452 262.441 162.674 260.669 162.674C259.09 162.782 257.527 163.069 256.013 163.53C256.013 163.53 262.064 159.695 263.109 159.319C263.828 159.053 265.069 157.418 263.331 157.769C261.149 158.206 255.799 159.764 255.799 159.764L262.886 155.33C262.886 155.33 263.991 153.558 262.664 153.558C261.337 153.558 254.686 157.547 254.686 157.547L259.822 152.736C260.823 151.812 259.984 150.502 258.803 151.187L252.811 154.611C251.35 155.465 249.8 156.157 248.189 156.674L247.084 157.341C247.305 156.17 247.453 154.987 247.53 153.797C247.53 152.685 246.862 149.808 245.313 149.586C243.763 149.363 245.09 151.58 245.09 152.685C245.09 153.789 242.873 159.533 242.873 160.44V163.102C242.873 163.102 235.34 169.745 228.475 173.297C221.61 176.85 206.091 188.585 206.091 188.585C206.091 188.585 188.371 179.495 184.382 176.173C180.394 172.852 175.959 168.863 171.542 165.319C169.249 163.412 166.804 161.694 164.232 160.183L149.843 159.575Z" fill="#FFBE9D" stroke="#263238" stroke-width="1.03476" stroke-linecap="round" stroke-linejoin="round"/>
<path d="M223.887 176.036C216.363 180.847 206.116 188.603 206.116 188.603C206.116 188.603 188.397 179.512 184.408 176.191C180.419 172.869 175.985 168.88 171.568 165.336C169.275 163.429 166.83 161.711 164.258 160.2L149.86 159.541C149.86 159.541 148.525 156.657 148.525 154.885C148.525 153.113 147.669 144.69 147.669 144.69C147.669 144.69 154.303 132.706 159.353 124.274L158.951 123.863C156.468 121.389 153.036 120.054 150.04 119.326C145.862 123.033 141.711 126.602 139.246 128.52C133.254 133.168 132.603 136.943 131.713 141.591C130.823 146.239 129.941 173.263 129.941 183.03C129.941 192.797 130.797 208.282 131.49 213.384C132.184 218.485 130.968 225.128 130.112 228.706C129.256 232.284 130.112 235.349 132.552 237.121C134.991 238.893 145.392 240.005 154.037 240.005C162.683 240.005 171.542 239.149 174.205 238.233C176.867 237.317 178.904 237.112 178.904 233.577C178.904 230.041 177.132 222.945 177.132 220.951C177.132 218.956 180.685 198.352 180.685 198.352C180.685 198.352 203.283 205.2 207.494 203.668C209.737 202.812 220.848 192.968 230.701 183.98C228.908 180.957 226.602 178.269 223.887 176.036Z" fill="#47C2C9" stroke="#263238" stroke-width="1.03476" stroke-linecap="round" stroke-linejoin="round"/>
<path d="M173.768 169.282C173.768 169.282 164.849 171.714 164.352 178.467" stroke="#263238" stroke-width="1.03476" stroke-linecap="round" stroke-linejoin="round"/>
<path d="M180.616 198.352C180.616 198.352 170.224 195.493 164.823 190.083" stroke="#263238" stroke-width="1.03476" stroke-linecap="round" stroke-linejoin="round"/>
<path d="M174.847 196.88C174.847 196.88 165.927 199.311 157.821 196.075" stroke="#263238" stroke-width="1.03476" stroke-linecap="round" stroke-linejoin="round"/>
<path d="M137.217 182.525C137.217 182.525 140.033 202.213 153.609 212.023" stroke="#263238" stroke-width="1.03476" stroke-linecap="round" stroke-linejoin="round"/>
<path d="M157.889 217.424C158.925 217.706 159.995 217.955 161.099 218.151" stroke="#263238" stroke-width="1.03476" stroke-linecap="round" stroke-linejoin="round"/>
<path d="M137.217 202.187C141.013 207.851 146.261 212.391 152.411 215.335" stroke="#263238" stroke-width="1.03476" stroke-linecap="round" stroke-linejoin="round"/>
<path d="M134.589 158.48C134.589 158.48 143.234 154.2 148.37 158.206" stroke="#263238" stroke-width="1.03476" stroke-linecap="round" stroke-linejoin="round"/>
<path d="M137.02 138.758C137.02 138.758 144.861 141.463 147.018 146.864" stroke="#263238" stroke-width="1.03476" stroke-linecap="round" stroke-linejoin="round"/>
<path d="M142.156 136.866C144.032 138.38 145.36 140.466 145.939 142.806" stroke="#263238" stroke-width="1.03476" stroke-linecap="round" stroke-linejoin="round"/>
<path d="M179.083 124.12C179.083 124.12 180.419 131.653 180.419 133.647C180.419 135.642 178.202 136.309 179.083 138.963C179.965 141.617 181.968 141.848 181.523 144.099C181.078 146.35 178.202 147.643 178.202 147.643C178.202 147.643 176.652 153.849 175.094 156.503C173.537 159.156 167.784 157.17 167.784 157.17L167.339 164.258C167.339 164.258 165.345 167.143 158.034 166.252C153.826 165.788 149.716 164.667 145.854 162.931L144.741 161.382C144.741 161.382 150.502 158.497 150.733 156.503C150.964 154.508 150.733 149.86 150.733 143.209C150.733 136.558 148.738 123.709 159.592 120.388C170.446 117.067 179.083 124.12 179.083 124.12Z" fill="#FFBE9D" stroke="#263238" stroke-width="1.03476" stroke-linecap="round" stroke-linejoin="round"/>
<path d="M165.55 142.31C165.55 142.31 163.051 136.575 160.252 139.853C158.437 141.985 160.697 148.276 161.801 149.158C162.905 150.04 165.345 149.603 165.345 149.603C165.345 149.603 161.801 153.147 158.035 153.147C154.268 153.147 150.947 149.603 148.508 143.397C146.068 137.191 144.296 126.56 146.958 120.131C149.62 113.703 163.359 113.489 166.458 113.489C169.557 113.489 174.213 115.26 174.213 115.26C174.213 115.26 184.186 114.404 184.408 117.7C184.631 120.996 183.073 121.244 183.073 121.244C183.073 121.244 190.169 125.01 186.839 126.56C183.509 128.109 178.425 127.227 175.095 127.227C174.203 127.176 173.315 127.376 172.532 127.806C171.75 128.236 171.104 128.878 170.669 129.658C170.669 129.658 173.768 131.653 172.664 132.543C171.56 133.433 167.528 135.197 167.126 136.755C166.723 138.313 168.675 140.744 167.34 141.891C166.004 143.038 165.55 142.31 165.55 142.31Z" fill="#263238" stroke="#263238" stroke-width="1.03476" stroke-linecap="round" stroke-linejoin="round"/>
<path d="M177.876 139.631C177.876 140.76 177.406 141.676 176.832 141.676C176.259 141.676 175.796 140.76 175.796 139.631C175.796 138.501 176.267 137.585 176.832 137.585C177.397 137.585 177.876 138.501 177.876 139.631Z" fill="#263238"/>
<path d="M174.247 137.02C174.247 137.02 175.677 133.681 177.945 135.471" stroke="#263238" stroke-width="1.03476" stroke-linecap="round" stroke-linejoin="round"/>
<path d="M154.919 269.494L152.89 265.728L142.764 263.126" stroke="white" stroke-width="1.03476" stroke-linecap="round" stroke-linejoin="round"/>
</svg>
