<svg width="554" height="416" viewBox="0 0 554 416" fill="none" xmlns="http://www.w3.org/2000/svg">
<g clip-path="url(#clip0_223_52)">
<path d="M63.0685 278.653C65.6285 278.653 67.6985 276.798 67.6985 274.524C67.6985 272.241 65.6185 270.395 63.0685 270.395C60.5185 270.395 58.4385 272.241 58.4385 274.515C58.4385 276.798 60.5185 278.653 63.0685 278.653Z" fill="#BBB9BA"/>
<path d="M67.6775 291.603C67.9294 289.334 66.0708 287.312 63.5262 287.088C60.9817 286.863 58.7148 288.521 58.4629 290.79C58.211 293.059 60.0696 295.081 62.6141 295.305C65.1587 295.53 67.4256 293.873 67.6775 291.603Z" fill="#BBB9BA"/>
<path d="M67.6746 308.281C67.9265 306.012 66.0679 303.99 63.5233 303.765C60.9788 303.541 58.7118 305.198 58.46 307.467C58.2081 309.737 60.0667 311.758 62.6112 311.983C65.1558 312.208 67.4227 310.55 67.6746 308.281Z" fill="#BBB9BA"/>
<path d="M67.6726 324.958C67.9245 322.689 66.0659 320.667 63.5214 320.442C60.9768 320.218 58.7099 321.875 58.458 324.144C58.2061 326.414 60.0647 328.435 62.6093 328.66C65.1538 328.885 67.4208 327.227 67.6726 324.958Z" fill="#BBB9BA"/>
<path d="M67.6707 341.635C67.9226 339.366 66.064 337.344 63.5194 337.12C60.9749 336.895 58.7079 338.552 58.4561 340.822C58.2042 343.091 60.0628 345.113 62.6073 345.337C65.1519 345.562 67.4188 343.904 67.6707 341.635Z" fill="#BBB9BA"/>
<path d="M145 145.069C173.167 118.54 173.167 75.5285 145 48.9995C116.833 22.4706 71.1665 22.4706 43 48.9995C14.8335 75.5285 14.8335 118.54 43 145.069C71.1665 171.598 116.833 171.598 145 145.069Z" stroke="#47C2C9" stroke-miterlimit="10"/>
<path d="M94.0037 153.923C127.365 153.923 154.41 128.45 154.41 97.0285C154.41 65.6068 127.365 40.1345 94.0037 40.1345C60.6423 40.1345 33.5977 65.6068 33.5977 97.0285C33.5977 128.45 60.6423 153.923 94.0037 153.923Z" stroke="#47C2C9" stroke-miterlimit="10"/>
<path d="M94.003 142.869C120.883 142.869 142.673 122.345 142.673 97.0283C142.673 71.7114 120.883 51.188 94.003 51.188C67.1233 51.188 45.333 71.7114 45.333 97.0283C45.333 122.345 67.1233 142.869 94.003 142.869Z" stroke="#47C2C9" stroke-miterlimit="10"/>
<path d="M120.117 121.632C134.54 108.047 134.54 86.0217 120.117 72.4368C105.693 58.8519 82.308 58.8519 67.8846 72.4368C53.4611 86.0217 53.4611 108.047 67.8846 121.632C82.308 135.217 105.693 135.217 120.117 121.632Z" stroke="#47C2C9" stroke-miterlimit="10"/>
<path d="M111.829 113.827C121.676 104.553 121.676 89.5162 111.829 80.2419C101.982 70.9677 86.0176 70.9677 76.1709 80.2419C66.3241 89.5162 66.3241 104.553 76.1709 113.827C86.0176 123.101 101.982 123.101 111.829 113.827Z" stroke="#47C2C9" stroke-miterlimit="10"/>
<path d="M454.267 370.077C454.267 373.112 386.155 375.557 302.223 375.557C218.29 375.557 150.168 373.112 150.168 370.077C150.168 367.043 218.28 364.608 302.223 364.608C386.166 364.608 454.267 367.054 454.267 370.077Z" fill="#47C2C9"/>
<path opacity="0.6" d="M454.267 370.077C454.267 373.112 386.155 375.557 302.223 375.557C218.29 375.557 150.168 373.112 150.168 370.077C150.168 367.043 218.28 364.608 302.223 364.608C386.166 364.608 454.267 367.054 454.267 370.077Z" fill="white"/>
<path d="M158.403 199.261C158.465 199.261 157.691 195.412 157.608 195.133C156.721 192.388 153.388 187.599 150.147 187.599C149.61 187.616 149.081 187.746 148.597 187.98C148.113 188.213 147.683 188.546 147.336 188.957C146.988 189.368 146.731 189.847 146.581 190.363C146.431 190.879 146.39 191.422 146.463 191.954C146.7 194.225 148.744 196.165 150.591 197.28C152.758 198.631 158.403 199.261 158.403 199.261Z" fill="#47C2C9"/>
<path d="M164.667 173.337C161.623 174.431 160.116 180.066 160.209 182.955C160.209 183.203 160.787 187.083 160.849 187.083H160.911C160.663 187.971 160.405 188.92 160.147 189.973C159.693 191.913 159.198 194.101 158.816 196.537C158.373 199.145 158.084 201.778 157.949 204.421C157.79 207.382 157.89 210.352 158.248 213.296C158.252 213.33 158.252 213.365 158.248 213.399C157.856 212.543 156.659 210.18 156.546 210.004C154.956 207.589 150.477 203.812 147.35 204.71C146.838 204.868 146.364 205.132 145.96 205.484C145.556 205.837 145.231 206.271 145.005 206.757C144.78 207.244 144.659 207.772 144.65 208.308C144.642 208.845 144.746 209.377 144.956 209.87C145.782 212.006 148.259 213.327 150.333 213.926C152.676 214.586 157.898 213.802 158.31 213.74C158.758 216.723 159.399 219.674 160.23 222.574C160.715 224.266 161.262 225.959 161.798 227.641C161.437 226.908 161.097 226.258 161.045 226.176C159.456 223.761 154.977 219.984 151.85 220.881C151.338 221.039 150.864 221.303 150.46 221.656C150.056 222.009 149.731 222.442 149.505 222.929C149.279 223.415 149.158 223.944 149.15 224.48C149.141 225.016 149.245 225.548 149.456 226.041C150.281 228.167 152.758 229.499 154.832 230.087C156.907 230.675 161.406 230.087 162.583 229.942C162.8 230.582 163.016 231.232 163.243 231.872C164.275 234.968 165.39 238.064 166.339 241.098C166.68 242.13 166.969 243.245 167.268 244.318C166.948 243.668 166.659 243.121 166.608 243.049C165.029 240.624 160.539 236.857 157.423 237.755C156.909 237.911 156.435 238.175 156.03 238.527C155.624 238.879 155.298 239.312 155.071 239.799C154.844 240.286 154.723 240.814 154.713 241.351C154.704 241.888 154.808 242.421 155.018 242.915C155.844 245.04 158.331 246.372 160.405 246.96C162.48 247.548 166.535 247.032 167.939 246.836C168.218 247.94 168.496 249.055 168.713 250.139C168.837 250.882 169.012 251.583 169.105 252.347L169.415 254.556C169.559 255.969 169.724 257.425 169.827 258.807C169.91 259.777 169.972 260.696 170.034 261.614C169.714 260.582 169.002 258.446 169.002 258.281C167.859 256.01 166.154 254.07 164.048 252.646C163.931 252.388 163.793 252.139 163.635 251.903C163.341 251.453 162.956 251.07 162.504 250.779C162.052 250.487 161.544 250.294 161.013 250.211C160.482 250.129 159.939 250.159 159.42 250.299C158.902 250.439 158.418 250.687 158.001 251.026C155.555 253.142 156.164 258.942 157.289 261.604C157.351 261.759 158.321 263.389 158.857 264.401L157.547 262.77C156.638 261.666 155.71 260.593 154.719 259.437C154.21 258.9 153.704 258.353 153.202 257.796C152.707 257.239 152.118 256.712 151.571 256.155C150.271 254.906 148.898 253.699 147.443 252.523C148.413 251.728 151.788 248.88 152.758 246.939C153.728 244.999 154.42 242.285 153.408 240.231C153.186 239.743 152.863 239.306 152.462 238.951C152.06 238.595 151.588 238.327 151.076 238.166C150.564 238.004 150.024 237.952 149.49 238.013C148.957 238.074 148.442 238.246 147.98 238.518C145.235 240.231 144.956 246.062 145.668 248.838C145.668 249.014 146.453 250.975 146.876 252.037C146.019 251.325 145.173 250.624 144.285 249.973C141.726 248.002 139.125 246.083 136.442 244.153L134.038 242.368C134.378 242.089 138.465 238.787 139.559 236.609C140.529 234.679 141.22 231.955 140.209 229.911C139.988 229.421 139.666 228.982 139.263 228.624C138.861 228.266 138.388 227.997 137.875 227.834C137.362 227.672 136.82 227.619 136.285 227.68C135.75 227.741 135.234 227.914 134.77 228.188C132.036 229.911 131.757 235.732 132.469 238.508C132.521 238.714 133.584 241.521 133.893 242.223C132.128 240.913 130.384 239.592 128.733 238.219C126.475 236.37 124.338 234.377 122.335 232.254C122.49 232.13 126.772 228.694 127.887 226.475C128.857 224.545 129.548 221.821 128.537 219.767C128.314 219.281 127.991 218.847 127.589 218.493C127.188 218.139 126.717 217.873 126.206 217.713C125.696 217.552 125.157 217.501 124.625 217.561C124.094 217.622 123.581 217.793 123.119 218.064C120.374 219.787 120.106 225.618 120.807 228.384C120.859 228.57 121.664 230.716 122.077 231.717L121.922 231.821C119.962 229.629 118.2 227.266 116.659 224.762C115.802 223.399 115.049 222.037 114.347 220.706C115.214 220.149 119.125 217.61 120.353 215.67C121.581 213.73 122.521 211.222 121.736 209.075C121.568 208.571 121.297 208.107 120.94 207.714C120.583 207.32 120.148 207.005 119.663 206.788C119.178 206.572 118.653 206.459 118.121 206.456C117.59 206.454 117.064 206.562 116.576 206.774C113.666 208.177 112.748 213.998 113.15 216.805C113.15 216.96 113.563 218.518 113.872 219.643C113.563 219.044 113.233 218.415 112.954 217.827C111.922 215.629 111.045 213.544 110.322 211.697C109.92 210.665 109.569 209.633 109.29 208.766C109.848 207.785 112.066 203.771 112.273 201.542C112.479 199.313 112.149 196.598 110.467 195.05C110.083 194.673 109.624 194.381 109.12 194.193C108.616 194.004 108.078 193.924 107.54 193.957C107.003 193.99 106.479 194.136 106.002 194.385C105.524 194.634 105.105 194.98 104.77 195.401C102.84 197.992 104.688 203.533 106.359 205.886C106.504 206.093 109.125 208.982 109.156 208.982V208.921C109.445 209.798 109.755 210.727 110.126 211.748C110.818 213.616 111.612 215.721 112.634 217.94C113.706 220.362 114.919 222.719 116.267 224.999C117.769 227.555 119.496 229.973 121.427 232.223L121.499 232.295C120.694 231.8 118.403 230.489 118.207 230.407C115.555 229.261 109.744 228.621 107.618 231.057C107.277 231.472 107.026 231.954 106.884 232.473C106.741 232.991 106.709 233.534 106.789 234.065C106.87 234.597 107.062 235.106 107.353 235.558C107.643 236.011 108.025 236.397 108.475 236.692C110.333 238.013 113.14 237.724 115.193 237.104C117.515 236.372 121.385 232.832 121.747 232.553C123.765 234.796 125.93 236.903 128.228 238.859C129.559 240.004 130.931 241.119 132.356 242.223C131.643 241.821 131.004 241.459 130.911 241.418C128.258 240.273 122.459 239.633 120.333 242.068C119.989 242.482 119.737 242.964 119.592 243.482C119.447 244 119.414 244.543 119.494 245.075C119.574 245.607 119.765 246.116 120.056 246.569C120.346 247.022 120.729 247.408 121.179 247.703C123.047 249.024 125.844 248.735 127.908 248.116C129.972 247.497 133.388 244.504 134.285 243.709L135.895 244.968C138.496 246.96 141.055 248.931 143.584 250.944C144.461 251.656 145.297 252.378 146.143 253.111C145.514 252.75 144.977 252.45 144.884 252.409C142.232 251.274 136.432 250.624 134.306 253.069C133.962 253.483 133.71 253.965 133.565 254.483C133.421 255.001 133.387 255.544 133.467 256.076C133.547 256.608 133.739 257.117 134.029 257.57C134.319 258.023 134.702 258.41 135.152 258.704C137.02 260.025 139.817 259.736 141.881 259.107C143.945 258.477 147.041 255.784 148.073 254.855C148.909 255.619 149.755 256.393 150.539 257.177C151.055 257.724 151.571 258.209 152.087 258.797L153.563 260.479C154.471 261.573 155.4 262.698 156.257 263.792C156.855 264.556 157.412 265.288 157.98 266.021C157.113 265.309 155.39 263.957 155.225 263.844C152.779 262.306 147.144 260.799 144.667 262.884C144.268 263.243 143.948 263.682 143.729 264.173C143.51 264.664 143.397 265.195 143.397 265.732C143.397 266.269 143.51 266.801 143.729 267.291C143.948 267.782 144.268 268.221 144.667 268.58C146.308 270.17 149.115 270.335 151.251 270.005C153.594 269.643 157.846 266.909 158.372 266.527C159.301 267.744 160.189 268.942 161.014 270.077C163.873 274.029 166.102 277.435 167.629 279.829L167.784 280.077L169.766 279.117L169.456 278.642C167.856 276.259 165.534 272.874 162.552 268.942C161.623 267.693 160.591 266.393 159.528 265.051C160.632 263.846 161.666 262.578 162.624 261.253C164.894 262.141 169.631 262.172 170.24 262.172C170.343 263.709 170.426 265.195 170.478 266.599C170.684 271.48 170.663 275.546 170.622 278.384C170.622 278.498 170.622 278.601 170.622 278.715L172.8 277.683C172.8 274.855 172.686 271.037 172.407 266.516C172.304 264.968 172.17 263.307 172.026 261.604C172.624 261.46 177.547 260.19 179.404 258.704C181.097 257.363 182.872 255.175 182.81 252.894C182.814 252.357 182.705 251.824 182.49 251.332C182.275 250.839 181.958 250.398 181.561 250.035C181.164 249.673 180.695 249.399 180.185 249.23C179.674 249.061 179.134 249.001 178.599 249.055C175.38 249.468 172.696 254.638 172.17 257.486C172.17 257.652 171.995 259.55 171.933 260.675C171.871 259.984 171.809 259.313 171.737 258.611C171.592 257.197 171.406 255.794 171.221 254.277C171.097 253.555 170.973 252.811 170.859 252.068C170.746 251.325 170.55 250.562 170.395 249.808C170.003 248.044 169.528 246.279 169.002 244.514C170.24 244.39 174.637 243.874 176.515 242.791C178.393 241.707 180.467 239.829 180.756 237.559C180.841 237.028 180.813 236.486 180.675 235.967C180.536 235.448 180.29 234.964 179.952 234.547C179.615 234.129 179.193 233.788 178.714 233.544C178.236 233.3 177.712 233.159 177.175 233.131C173.935 233.049 170.488 237.755 169.538 240.489C169.477 240.655 169.012 242.688 168.785 243.812C168.455 242.78 168.145 241.697 167.753 240.634C166.721 237.538 165.555 234.514 164.42 231.449L163.388 228.632C163.832 228.632 169.064 228.095 171.169 226.877C173.037 225.845 175.122 223.915 175.411 221.645C175.497 221.115 175.47 220.572 175.332 220.052C175.195 219.533 174.949 219.048 174.611 218.63C174.273 218.212 173.85 217.87 173.371 217.627C172.892 217.384 172.366 217.244 171.83 217.218C168.589 217.135 165.142 221.851 164.193 224.576C164.12 224.782 163.46 227.672 163.326 228.467C162.583 226.403 161.86 224.339 161.262 222.275C160.4 219.485 159.711 216.645 159.198 213.771C159.404 213.771 164.874 213.255 167.031 212.017C168.899 210.933 170.983 209.044 171.272 206.774C171.357 206.243 171.329 205.7 171.19 205.18C171.051 204.661 170.804 204.176 170.465 203.759C170.126 203.341 169.703 202.999 169.223 202.756C168.744 202.513 168.218 202.373 167.681 202.347C164.451 202.264 161.004 206.98 160.054 209.705C159.992 209.88 159.487 212.12 159.27 213.183H159.084C158.658 210.276 158.492 207.337 158.589 204.4C158.589 202.79 158.744 201.242 158.899 199.746C159.931 199.746 164.626 199.746 166.69 198.859C168.754 197.971 170.942 196.34 171.479 194.122C171.622 193.602 171.654 193.058 171.572 192.525C171.49 191.992 171.297 191.482 171.005 191.029C170.712 190.576 170.328 190.19 169.876 189.896C169.424 189.602 168.915 189.407 168.383 189.323C165.173 188.889 161.231 193.193 159.992 195.793C159.92 195.938 159.394 197.455 159.022 198.57C159.095 197.888 159.167 197.197 159.26 196.506C159.59 194.08 160.034 191.882 160.447 189.932C160.694 188.827 160.932 187.868 161.169 186.908C162.201 186.392 166.246 184.276 167.64 182.553C169.033 180.829 170.251 178.363 169.704 176.144C169.59 175.61 169.363 175.106 169.039 174.667C168.714 174.228 168.3 173.863 167.823 173.597C167.346 173.331 166.818 173.171 166.273 173.126C165.729 173.081 165.182 173.153 164.667 173.337Z" fill="#47C2C9"/>
<path d="M106.173 223.224C108.702 223.121 113.758 220.52 113.769 220.52C113.779 220.52 111.044 217.713 110.848 217.548C108.588 215.752 103.16 213.596 100.466 215.391C100.027 215.701 99.6583 216.099 99.3834 216.561C99.1084 217.022 98.9337 217.536 98.8704 218.069C98.8071 218.603 98.8568 219.143 99.0162 219.656C99.1755 220.169 99.441 220.643 99.7954 221.047C101.251 222.811 104.047 223.307 106.173 223.224Z" fill="#47C2C9"/>
<g opacity="0.5">
<path d="M158.403 199.261C158.465 199.261 157.691 195.412 157.608 195.133C156.721 192.388 153.388 187.599 150.147 187.599C149.61 187.616 149.081 187.746 148.597 187.98C148.113 188.213 147.683 188.546 147.336 188.957C146.988 189.368 146.731 189.847 146.581 190.363C146.431 190.879 146.39 191.422 146.463 191.954C146.7 194.225 148.744 196.165 150.591 197.28C152.758 198.631 158.403 199.261 158.403 199.261Z" fill="white"/>
<path d="M164.667 173.337C161.623 174.431 160.116 180.066 160.209 182.955C160.209 183.203 160.787 187.083 160.849 187.083H160.911C160.663 187.971 160.405 188.92 160.147 189.973C159.693 191.913 159.198 194.101 158.816 196.537C158.373 199.145 158.084 201.778 157.949 204.421C157.79 207.382 157.89 210.352 158.248 213.296C158.252 213.33 158.252 213.365 158.248 213.399C157.856 212.543 156.659 210.18 156.546 210.004C154.956 207.589 150.477 203.812 147.35 204.71C146.838 204.868 146.364 205.132 145.96 205.484C145.556 205.837 145.231 206.271 145.005 206.757C144.78 207.244 144.659 207.772 144.65 208.308C144.642 208.845 144.746 209.377 144.956 209.87C145.782 212.006 148.259 213.327 150.333 213.926C152.676 214.586 157.898 213.802 158.31 213.74C158.758 216.723 159.399 219.674 160.23 222.574C160.715 224.266 161.262 225.959 161.798 227.641C161.437 226.908 161.097 226.258 161.045 226.176C159.456 223.761 154.977 219.984 151.85 220.881C151.338 221.039 150.864 221.303 150.46 221.656C150.056 222.009 149.731 222.442 149.505 222.929C149.279 223.415 149.158 223.944 149.15 224.48C149.141 225.016 149.245 225.548 149.456 226.041C150.281 228.167 152.758 229.499 154.832 230.087C156.907 230.675 161.406 230.087 162.583 229.942C162.8 230.582 163.016 231.232 163.243 231.872C164.275 234.968 165.39 238.064 166.339 241.098C166.68 242.13 166.969 243.245 167.268 244.318C166.948 243.668 166.659 243.121 166.608 243.049C165.029 240.624 160.539 236.857 157.423 237.755C156.909 237.911 156.435 238.175 156.03 238.527C155.624 238.879 155.298 239.312 155.071 239.799C154.844 240.286 154.723 240.814 154.713 241.351C154.704 241.888 154.808 242.421 155.018 242.915C155.844 245.04 158.331 246.372 160.405 246.96C162.48 247.548 166.535 247.032 167.939 246.836C168.218 247.94 168.496 249.055 168.713 250.139C168.837 250.882 169.012 251.583 169.105 252.347L169.415 254.556C169.559 255.969 169.724 257.425 169.827 258.807C169.91 259.777 169.972 260.696 170.034 261.614C169.714 260.582 169.002 258.446 169.002 258.281C167.859 256.01 166.154 254.07 164.048 252.646C163.931 252.388 163.793 252.139 163.635 251.903C163.341 251.453 162.956 251.07 162.504 250.779C162.052 250.487 161.544 250.294 161.013 250.211C160.482 250.129 159.939 250.159 159.42 250.299C158.902 250.439 158.418 250.687 158.001 251.026C155.555 253.142 156.164 258.942 157.289 261.604C157.351 261.759 158.321 263.389 158.857 264.401L157.547 262.77C156.638 261.666 155.71 260.593 154.719 259.437C154.21 258.9 153.704 258.353 153.202 257.796C152.707 257.239 152.118 256.712 151.571 256.155C150.271 254.906 148.898 253.699 147.443 252.523C148.413 251.728 151.788 248.88 152.758 246.939C153.728 244.999 154.42 242.285 153.408 240.231C153.186 239.743 152.863 239.306 152.462 238.951C152.06 238.595 151.588 238.327 151.076 238.166C150.564 238.004 150.024 237.952 149.49 238.013C148.957 238.074 148.442 238.246 147.98 238.518C145.235 240.231 144.956 246.062 145.668 248.838C145.668 249.014 146.453 250.975 146.876 252.037C146.019 251.325 145.173 250.624 144.285 249.973C141.726 248.002 139.125 246.083 136.442 244.153L134.038 242.368C134.378 242.089 138.465 238.787 139.559 236.609C140.529 234.679 141.22 231.955 140.209 229.911C139.988 229.421 139.666 228.982 139.263 228.624C138.861 228.266 138.388 227.997 137.875 227.834C137.362 227.672 136.82 227.619 136.285 227.68C135.75 227.741 135.234 227.914 134.77 228.188C132.036 229.911 131.757 235.732 132.469 238.508C132.521 238.714 133.584 241.521 133.893 242.223C132.128 240.913 130.384 239.592 128.733 238.219C126.475 236.37 124.338 234.377 122.335 232.254C122.49 232.13 126.772 228.694 127.887 226.475C128.857 224.545 129.548 221.821 128.537 219.767C128.314 219.281 127.991 218.847 127.589 218.493C127.188 218.139 126.717 217.873 126.206 217.713C125.696 217.552 125.157 217.501 124.625 217.561C124.094 217.622 123.581 217.793 123.119 218.064C120.374 219.787 120.106 225.618 120.807 228.384C120.859 228.57 121.664 230.716 122.077 231.717L121.922 231.821C119.962 229.629 118.2 227.266 116.659 224.762C115.802 223.399 115.049 222.037 114.347 220.706C115.214 220.149 119.125 217.61 120.353 215.67C121.581 213.73 122.521 211.222 121.736 209.075C121.568 208.571 121.297 208.107 120.94 207.714C120.583 207.32 120.148 207.005 119.663 206.788C119.178 206.572 118.653 206.459 118.121 206.456C117.59 206.454 117.064 206.562 116.576 206.774C113.666 208.177 112.748 213.998 113.15 216.805C113.15 216.96 113.563 218.518 113.872 219.643C113.563 219.044 113.233 218.415 112.954 217.827C111.922 215.629 111.045 213.544 110.322 211.697C109.92 210.665 109.569 209.633 109.29 208.766C109.848 207.785 112.066 203.771 112.273 201.542C112.479 199.313 112.149 196.598 110.467 195.05C110.083 194.673 109.624 194.381 109.12 194.193C108.616 194.004 108.078 193.924 107.54 193.957C107.003 193.99 106.479 194.136 106.002 194.385C105.524 194.634 105.105 194.98 104.77 195.401C102.84 197.992 104.688 203.533 106.359 205.886C106.504 206.093 109.125 208.982 109.156 208.982V208.921C109.445 209.798 109.755 210.727 110.126 211.748C110.818 213.616 111.612 215.721 112.634 217.94C113.706 220.362 114.919 222.719 116.267 224.999C117.769 227.555 119.496 229.973 121.427 232.223L121.499 232.295C120.694 231.8 118.403 230.489 118.207 230.407C115.555 229.261 109.744 228.621 107.618 231.057C107.277 231.472 107.026 231.954 106.884 232.473C106.741 232.991 106.709 233.534 106.789 234.065C106.87 234.597 107.062 235.106 107.353 235.558C107.643 236.011 108.025 236.397 108.475 236.692C110.333 238.013 113.14 237.724 115.193 237.104C117.515 236.372 121.385 232.832 121.747 232.553C123.765 234.796 125.93 236.903 128.228 238.859C129.559 240.004 130.931 241.119 132.356 242.223C131.643 241.821 131.004 241.459 130.911 241.418C128.258 240.273 122.459 239.633 120.333 242.068C119.989 242.482 119.737 242.964 119.592 243.482C119.447 244 119.414 244.543 119.494 245.075C119.574 245.607 119.765 246.116 120.056 246.569C120.346 247.022 120.729 247.408 121.179 247.703C123.047 249.024 125.844 248.735 127.908 248.116C129.972 247.497 133.388 244.504 134.285 243.709L135.895 244.968C138.496 246.96 141.055 248.931 143.584 250.944C144.461 251.656 145.297 252.378 146.143 253.111C145.514 252.75 144.977 252.45 144.884 252.409C142.232 251.274 136.432 250.624 134.306 253.069C133.962 253.483 133.71 253.965 133.565 254.483C133.421 255.001 133.387 255.544 133.467 256.076C133.547 256.608 133.739 257.117 134.029 257.57C134.319 258.023 134.702 258.41 135.152 258.704C137.02 260.025 139.817 259.736 141.881 259.107C143.945 258.477 147.041 255.784 148.073 254.855C148.909 255.619 149.755 256.393 150.539 257.177C151.055 257.724 151.571 258.209 152.087 258.797L153.563 260.479C154.471 261.573 155.4 262.698 156.257 263.792C156.855 264.556 157.412 265.288 157.98 266.021C157.113 265.309 155.39 263.957 155.225 263.844C152.779 262.306 147.144 260.799 144.667 262.884C144.268 263.243 143.948 263.682 143.729 264.173C143.51 264.664 143.397 265.195 143.397 265.732C143.397 266.269 143.51 266.801 143.729 267.291C143.948 267.782 144.268 268.221 144.667 268.58C146.308 270.17 149.115 270.335 151.251 270.005C153.594 269.643 157.846 266.909 158.372 266.527C159.301 267.744 160.189 268.942 161.014 270.077C163.873 274.029 166.102 277.435 167.629 279.829L167.784 280.077L169.766 279.117L169.456 278.642C167.856 276.259 165.534 272.874 162.552 268.942C161.623 267.693 160.591 266.393 159.528 265.051C160.632 263.846 161.666 262.578 162.624 261.253C164.894 262.141 169.631 262.172 170.24 262.172C170.343 263.709 170.426 265.195 170.478 266.599C170.684 271.48 170.663 275.546 170.622 278.384C170.622 278.498 170.622 278.601 170.622 278.715L172.8 277.683C172.8 274.855 172.686 271.037 172.407 266.516C172.304 264.968 172.17 263.307 172.026 261.604C172.624 261.46 177.547 260.19 179.404 258.704C181.097 257.363 182.872 255.175 182.81 252.894C182.814 252.357 182.705 251.824 182.49 251.332C182.275 250.839 181.958 250.398 181.561 250.035C181.164 249.673 180.695 249.399 180.185 249.23C179.674 249.061 179.134 249.001 178.599 249.055C175.38 249.468 172.696 254.638 172.17 257.486C172.17 257.652 171.995 259.55 171.933 260.675C171.871 259.984 171.809 259.313 171.737 258.611C171.592 257.197 171.406 255.794 171.221 254.277C171.097 253.555 170.973 252.811 170.859 252.068C170.746 251.325 170.55 250.562 170.395 249.808C170.003 248.044 169.528 246.279 169.002 244.514C170.24 244.39 174.637 243.874 176.515 242.791C178.393 241.707 180.467 239.829 180.756 237.559C180.841 237.028 180.813 236.486 180.675 235.967C180.536 235.448 180.29 234.964 179.952 234.547C179.615 234.129 179.193 233.788 178.714 233.544C178.236 233.3 177.712 233.159 177.175 233.131C173.935 233.049 170.488 237.755 169.538 240.489C169.477 240.655 169.012 242.688 168.785 243.812C168.455 242.78 168.145 241.697 167.753 240.634C166.721 237.538 165.555 234.514 164.42 231.449L163.388 228.632C163.832 228.632 169.064 228.095 171.169 226.877C173.037 225.845 175.122 223.915 175.411 221.645C175.497 221.115 175.47 220.572 175.332 220.052C175.195 219.533 174.949 219.048 174.611 218.63C174.273 218.212 173.85 217.87 173.371 217.627C172.892 217.384 172.366 217.244 171.83 217.218C168.589 217.135 165.142 221.851 164.193 224.576C164.12 224.782 163.46 227.672 163.326 228.467C162.583 226.403 161.86 224.339 161.262 222.275C160.4 219.485 159.711 216.645 159.198 213.771C159.404 213.771 164.874 213.255 167.031 212.017C168.899 210.933 170.983 209.044 171.272 206.774C171.357 206.243 171.329 205.7 171.19 205.18C171.051 204.661 170.804 204.176 170.465 203.759C170.126 203.341 169.703 202.999 169.223 202.756C168.744 202.513 168.218 202.373 167.681 202.347C164.451 202.264 161.004 206.98 160.054 209.705C159.992 209.88 159.487 212.12 159.27 213.183H159.084C158.658 210.276 158.492 207.337 158.589 204.4C158.589 202.79 158.744 201.242 158.899 199.746C159.931 199.746 164.626 199.746 166.69 198.859C168.754 197.971 170.942 196.34 171.479 194.122C171.622 193.602 171.654 193.058 171.572 192.525C171.49 191.992 171.297 191.482 171.005 191.029C170.712 190.576 170.328 190.19 169.876 189.896C169.424 189.602 168.915 189.407 168.383 189.323C165.173 188.889 161.231 193.193 159.992 195.793C159.92 195.938 159.394 197.455 159.022 198.57C159.095 197.888 159.167 197.197 159.26 196.506C159.59 194.08 160.034 191.882 160.447 189.932C160.694 188.827 160.932 187.868 161.169 186.908C162.201 186.392 166.246 184.276 167.64 182.553C169.033 180.829 170.251 178.363 169.704 176.144C169.59 175.61 169.363 175.106 169.039 174.667C168.714 174.228 168.3 173.863 167.823 173.597C167.346 173.331 166.818 173.171 166.273 173.126C165.729 173.081 165.182 173.153 164.667 173.337Z" fill="white"/>
<path d="M106.173 223.224C108.702 223.121 113.758 220.52 113.769 220.52C113.779 220.52 111.044 217.713 110.848 217.548C108.588 215.752 103.16 213.596 100.466 215.391C100.027 215.701 99.6583 216.099 99.3834 216.561C99.1084 217.022 98.9337 217.536 98.8704 218.069C98.8071 218.603 98.8568 219.143 99.0162 219.656C99.1755 220.169 99.441 220.643 99.7954 221.047C101.251 222.811 104.047 223.307 106.173 223.224Z" fill="white"/>
</g>
<path d="M135.699 286.537C135.699 286.537 151.045 249.55 159.631 251.16C168.217 252.77 144.905 310.129 144.905 310.129C144.905 310.129 171.902 259.199 190.313 259.199C208.723 259.199 183.563 315.485 160.25 334.247C160.25 334.247 197.062 294.576 218.548 303.163C240.034 311.749 175.586 351.945 175.586 351.945C175.586 351.945 213.017 340.15 208.723 349.262C204.43 358.375 192.8 359.985 192.8 359.985L235.112 362.131H87.835L120.972 358.911C120.972 358.911 86.6069 341.759 95.7917 334.783C104.976 327.807 125.245 342.822 125.245 342.822C125.245 342.822 90.2705 304.226 97.0198 289.757C103.769 275.288 133.842 316.021 133.842 316.021C133.842 316.021 109.29 264.029 114.234 254.906C119.177 245.783 135.699 286.537 135.699 286.537Z" fill="#47C2C9"/>
<path opacity="0.4" d="M135.699 286.537C135.699 286.537 151.045 249.55 159.631 251.16C168.217 252.77 144.905 310.129 144.905 310.129C144.905 310.129 171.902 259.199 190.313 259.199C208.723 259.199 183.563 315.485 160.25 334.247C160.25 334.247 197.062 294.576 218.548 303.163C240.034 311.749 175.586 351.945 175.586 351.945C175.586 351.945 213.017 340.15 208.723 349.262C204.43 358.375 192.8 359.985 192.8 359.985L235.112 362.131H87.835L120.972 358.911C120.972 358.911 86.6069 341.759 95.7917 334.783C104.976 327.807 125.245 342.822 125.245 342.822C125.245 342.822 90.2705 304.226 97.0198 289.757C103.769 275.288 133.842 316.021 133.842 316.021C133.842 316.021 109.29 264.029 114.234 254.906C119.177 245.783 135.699 286.537 135.699 286.537Z" fill="white"/>
<path d="M130.797 288.488C144.295 328.375 144.295 356.6 144.295 356.6C144.295 356.6 128.341 357.219 111.767 344.949" stroke="#263238" stroke-linecap="round" stroke-linejoin="round"/>
<path d="M137.547 309.964C140.325 298.04 144.017 286.347 148.589 274.989" stroke="#263238" stroke-linecap="round" stroke-linejoin="round"/>
<path d="M177.433 286.651L143.067 337.58C143.067 337.58 119.744 317.972 111.767 306.898" stroke="#263238" stroke-linecap="round" stroke-linejoin="round"/>
<path d="M143.677 349.85C143.677 349.85 179.879 332.668 194.616 322.853" stroke="#263238" stroke-linecap="round" stroke-linejoin="round"/>
<path d="M445.248 199.261C445.186 199.261 445.97 195.412 446.042 195.133C446.93 192.388 450.273 187.599 453.504 187.599C454.041 187.616 454.569 187.746 455.053 187.98C455.538 188.213 455.968 188.546 456.315 188.957C456.662 189.368 456.919 189.847 457.07 190.363C457.22 190.879 457.26 191.422 457.188 191.954C456.951 194.225 454.907 196.165 453.06 197.28C450.893 198.631 445.248 199.261 445.248 199.261Z" fill="#47C2C9"/>
<path d="M438.983 173.337C442.027 174.431 443.544 180.066 443.441 182.955C443.441 183.203 442.863 187.083 442.812 187.083H442.75C442.987 187.971 443.245 188.92 443.503 189.973C443.957 191.913 444.452 194.101 444.834 196.536C445.277 199.145 445.567 201.778 445.701 204.421C445.866 207.382 445.766 210.353 445.402 213.296C445.398 213.33 445.398 213.365 445.402 213.399C445.804 212.543 447.002 210.179 447.105 210.004C448.694 207.589 453.173 203.812 456.3 204.71C456.813 204.866 457.288 205.13 457.693 205.482C458.098 205.834 458.424 206.268 458.65 206.755C458.876 207.242 458.996 207.771 459.004 208.308C459.012 208.844 458.906 209.377 458.694 209.87C457.868 212.006 455.392 213.327 453.317 213.926C450.975 214.586 445.753 213.802 445.34 213.74C444.898 216.724 444.256 219.675 443.421 222.574C442.939 224.266 442.416 225.955 441.852 227.641C442.213 226.908 442.554 226.258 442.605 226.175C444.194 223.761 448.684 219.983 451.8 220.881C452.314 221.038 452.788 221.301 453.193 221.653C453.598 222.006 453.924 222.44 454.15 222.926C454.376 223.413 454.497 223.942 454.504 224.479C454.512 225.016 454.407 225.548 454.195 226.041C453.369 228.167 450.892 229.499 448.818 230.087C446.744 230.675 442.244 230.087 441.068 229.942L440.417 231.872C439.385 234.968 438.26 238.064 437.321 241.098C436.981 242.13 436.682 243.245 436.382 244.318C436.712 243.668 436.991 243.121 437.043 243.049C438.632 240.623 443.111 236.857 446.228 237.755C446.741 237.911 447.216 238.174 447.621 238.527C448.026 238.879 448.352 239.312 448.579 239.799C448.806 240.286 448.928 240.814 448.937 241.351C448.946 241.888 448.842 242.421 448.632 242.915C447.806 245.04 445.319 246.372 443.245 246.96C441.171 247.548 437.115 247.032 435.711 246.836C435.433 247.94 435.165 249.055 434.948 250.139C434.814 250.882 434.638 251.583 434.545 252.347L434.236 254.555C434.091 255.969 433.926 257.424 433.823 258.807C433.74 259.777 433.678 260.696 433.617 261.614C433.947 260.582 434.648 258.446 434.7 258.281C435.846 256.013 437.551 254.073 439.654 252.646C439.771 252.386 439.912 252.137 440.077 251.903C440.369 251.452 440.753 251.068 441.204 250.776C441.655 250.484 442.162 250.29 442.693 250.207C443.224 250.124 443.766 250.154 444.284 250.295C444.803 250.437 445.286 250.686 445.701 251.026C448.157 253.142 447.538 258.941 446.413 261.604C446.351 261.759 445.433 263.389 444.845 264.401C445.288 263.854 445.701 263.369 446.166 262.77C447.063 261.666 447.992 260.593 448.983 259.437L450.5 257.796C450.995 257.239 451.594 256.712 452.141 256.155C453.431 254.906 454.803 253.699 456.217 252.522C455.258 251.728 451.873 248.88 450.903 246.939C449.932 244.999 449.241 242.285 450.252 240.231C450.474 239.741 450.797 239.304 451.2 238.947C451.603 238.59 452.076 238.322 452.589 238.16C453.102 237.999 453.644 237.947 454.178 238.009C454.713 238.07 455.228 238.244 455.691 238.518C458.426 240.231 458.704 246.062 457.992 248.838C457.992 249.014 457.208 250.974 456.785 252.037C457.641 251.325 458.488 250.624 459.375 249.973C461.935 248.002 464.587 246.083 467.218 244.153L469.623 242.368C469.282 242.089 465.196 238.787 464.102 236.609C463.142 234.679 462.44 231.955 463.452 229.911C463.673 229.42 463.995 228.982 464.397 228.624C464.799 228.266 465.273 227.997 465.786 227.834C466.299 227.672 466.841 227.619 467.376 227.68C467.911 227.741 468.427 227.914 468.89 228.188C471.635 229.911 471.904 235.732 471.192 238.508C471.14 238.714 470.077 241.521 469.778 242.223C471.532 240.912 473.276 239.591 474.938 238.219C477.196 236.37 479.333 234.377 481.336 232.254C481.181 232.13 476.899 228.694 475.784 226.475C474.814 224.545 474.122 221.82 475.134 219.767C475.355 219.277 475.677 218.84 476.078 218.483C476.48 218.126 476.952 217.858 477.464 217.695C477.976 217.533 478.516 217.48 479.05 217.54C479.584 217.6 480.099 217.771 480.562 218.043C483.307 219.767 483.586 225.598 482.874 228.363C482.822 228.549 482.017 230.696 481.615 231.697C481.662 231.737 481.714 231.772 481.77 231.8C483.727 229.608 485.485 227.245 487.022 224.741C487.889 223.379 488.632 222.017 489.334 220.685C488.467 220.128 484.556 217.589 483.328 215.649C482.1 213.709 481.171 211.201 481.945 209.055C482.112 208.544 482.385 208.074 482.745 207.675C483.106 207.277 483.546 206.959 484.038 206.742C484.529 206.525 485.061 206.414 485.598 206.416C486.136 206.417 486.667 206.533 487.157 206.753C490.077 208.157 490.985 213.977 490.583 216.784C490.583 216.939 490.17 218.497 489.871 219.622C490.17 219.024 490.5 218.394 490.779 217.806C491.811 215.608 492.688 213.523 493.411 211.676C493.823 210.644 494.164 209.612 494.443 208.745C493.875 207.765 491.667 203.75 491.45 201.521C491.233 199.292 491.584 196.578 493.266 195.03C493.649 194.653 494.107 194.361 494.611 194.172C495.114 193.984 495.651 193.904 496.187 193.937C496.724 193.97 497.247 194.116 497.724 194.365C498.2 194.613 498.619 194.959 498.952 195.381C500.893 197.971 499.045 203.513 497.373 205.866C497.229 206.072 494.597 208.962 494.566 208.962V208.9C494.277 209.777 493.968 210.706 493.596 211.727C492.915 213.595 492.121 215.701 491.099 217.919C490.019 220.339 488.803 222.696 487.456 224.978C485.953 227.534 484.226 229.952 482.296 232.202L482.224 232.275C483.029 231.779 485.32 230.469 485.516 230.386C488.178 229.241 493.978 228.601 496.104 231.036C496.446 231.451 496.697 231.933 496.841 232.45C496.985 232.968 497.018 233.511 496.938 234.042C496.858 234.574 496.667 235.083 496.378 235.535C496.088 235.988 495.707 236.375 495.258 236.671C493.39 237.992 490.593 237.703 488.529 237.084C486.207 236.351 482.337 232.811 481.986 232.533C479.968 234.775 477.803 236.882 475.505 238.838C474.174 239.984 472.791 241.098 471.377 242.202C472.089 241.8 472.729 241.439 472.822 241.397C475.474 240.252 481.274 239.612 483.4 242.048C483.744 242.461 483.996 242.943 484.141 243.461C484.285 243.98 484.319 244.523 484.239 245.055C484.159 245.587 483.968 246.096 483.677 246.549C483.387 247.001 483.004 247.388 482.554 247.682C480.696 249.003 477.889 248.714 475.836 248.095C473.782 247.476 470.345 244.483 469.458 243.689C468.911 244.112 468.426 244.535 467.838 244.948C465.247 246.939 462.678 248.91 460.149 250.923C459.272 251.635 458.436 252.357 457.59 253.09L458.849 252.388C461.501 251.253 467.301 250.603 469.427 253.049C469.771 253.463 470.023 253.944 470.168 254.463C470.312 254.981 470.346 255.524 470.266 256.056C470.186 256.588 469.994 257.097 469.704 257.55C469.414 258.002 469.031 258.389 468.581 258.683C466.713 260.004 463.916 259.715 461.862 259.086C459.809 258.456 456.702 255.763 455.67 254.834C454.834 255.598 453.988 256.372 453.214 257.156C452.688 257.703 452.182 258.188 451.666 258.776L450.18 260.459C449.282 261.552 448.343 262.677 447.487 263.771C446.888 264.535 446.331 265.268 445.773 266C446.63 265.288 448.364 263.936 448.519 263.823C450.964 262.285 456.609 260.778 459.076 262.863C459.476 263.222 459.795 263.661 460.014 264.152C460.233 264.643 460.346 265.174 460.346 265.711C460.346 266.249 460.233 266.78 460.014 267.271C459.795 267.761 459.476 268.201 459.076 268.56C457.425 270.149 454.618 270.314 452.492 269.984C450.139 269.623 445.887 266.888 445.361 266.506C444.432 267.724 443.544 268.921 442.719 270.056C439.86 274.009 437.631 277.414 436.104 279.809C436.104 279.901 436 279.974 435.949 280.056L433.967 279.096L434.277 278.622C435.877 276.238 438.209 272.853 441.181 268.921C442.12 267.672 443.142 266.372 444.205 265.03C443.099 263.827 442.065 262.559 441.109 261.233C438.828 262.12 434.102 262.151 433.482 262.151C433.389 263.689 433.307 265.175 433.245 266.578C433.039 271.46 433.059 275.526 433.111 278.364V278.694L430.933 277.662C430.933 274.834 431.047 271.016 431.336 266.496C431.429 264.948 431.563 263.286 431.718 261.583C431.109 261.439 426.186 260.17 424.329 258.683C422.646 257.342 420.871 255.154 420.933 252.873C420.927 252.335 421.035 251.802 421.25 251.309C421.465 250.816 421.781 250.373 422.179 250.011C422.576 249.648 423.046 249.374 423.557 249.206C424.068 249.037 424.609 248.979 425.144 249.034C428.353 249.447 431.047 254.617 431.573 257.466C431.573 257.631 431.738 259.53 431.8 260.655C431.872 259.963 431.924 259.292 432.007 258.591C432.141 257.177 432.327 255.773 432.523 254.256C432.636 253.534 432.76 252.791 432.873 252.048C432.987 251.305 433.183 250.541 433.338 249.788C433.73 248.023 434.205 246.258 434.731 244.493C433.493 244.37 429.107 243.854 427.218 242.77C425.33 241.686 423.266 239.808 422.987 237.538C422.901 237.007 422.927 236.465 423.065 235.945C423.203 235.425 423.449 234.941 423.787 234.523C424.125 234.105 424.547 233.763 425.027 233.52C425.506 233.276 426.031 233.137 426.568 233.111C429.798 233.028 433.245 237.734 434.194 240.469C434.256 240.634 434.721 242.667 434.948 243.792C435.278 242.76 435.588 241.676 435.98 240.613C437.012 237.517 438.178 234.493 439.313 231.428C439.664 230.489 439.994 229.55 440.345 228.611C439.901 228.611 434.669 228.074 432.564 226.857C430.696 225.825 428.611 223.895 428.322 221.624C428.238 221.094 428.265 220.552 428.404 220.033C428.542 219.514 428.789 219.03 429.126 218.613C429.464 218.195 429.886 217.853 430.364 217.61C430.843 217.366 431.367 217.225 431.903 217.197C435.144 217.115 438.591 221.831 439.54 224.555C439.612 224.762 440.273 227.651 440.407 228.446C441.15 226.382 441.883 224.318 442.471 222.254C443.343 219.467 444.032 216.627 444.535 213.75C444.329 213.75 438.869 213.234 436.713 211.996C434.834 210.912 432.75 209.024 432.471 206.753C432.385 206.223 432.411 205.68 432.549 205.16C432.687 204.641 432.933 204.156 433.271 203.738C433.609 203.321 434.031 202.979 434.511 202.735C434.99 202.492 435.515 202.352 436.052 202.326C439.282 202.243 442.729 206.96 443.679 209.684C443.74 209.86 444.256 212.099 444.473 213.162H444.649C445.075 210.255 445.241 207.316 445.144 204.38C445.144 202.77 444.989 201.222 444.834 199.725C443.802 199.725 439.117 199.725 437.053 198.838C434.989 197.95 432.791 196.32 432.254 194.101C432.111 193.581 432.079 193.037 432.161 192.504C432.243 191.971 432.436 191.462 432.728 191.009C433.021 190.556 433.405 190.169 433.857 189.875C434.309 189.581 434.818 189.386 435.35 189.302C438.56 188.869 442.502 193.172 443.751 195.773C443.813 195.917 444.349 197.434 444.711 198.549C444.638 197.868 444.566 197.176 444.473 196.485C444.153 194.06 443.699 191.861 443.286 189.911C443.039 188.807 442.801 187.847 442.564 186.887C441.532 186.371 437.487 184.256 436.104 182.532C434.721 180.809 433.482 178.342 434.04 176.123C434.158 175.602 434.384 175.111 434.703 174.683C435.022 174.254 435.428 173.897 435.894 173.634C436.359 173.372 436.875 173.21 437.407 173.159C437.939 173.108 438.476 173.168 438.983 173.337Z" fill="#47C2C9"/>
<path d="M497.477 223.224C494.948 223.121 489.892 220.52 489.892 220.52C489.892 220.52 492.606 217.713 492.802 217.548C495.062 215.752 500.49 213.596 503.184 215.391C503.624 215.7 503.994 216.098 504.27 216.559C504.546 217.02 504.721 217.535 504.785 218.069C504.848 218.603 504.798 219.144 504.638 219.657C504.477 220.17 504.21 220.644 503.855 221.047C502.399 222.811 499.634 223.307 497.477 223.224Z" fill="#47C2C9"/>
<g opacity="0.5">
<path d="M445.248 199.261C445.186 199.261 445.97 195.412 446.042 195.133C446.93 192.388 450.273 187.599 453.504 187.599C454.041 187.616 454.569 187.746 455.053 187.98C455.538 188.213 455.968 188.546 456.315 188.957C456.662 189.368 456.919 189.847 457.07 190.363C457.22 190.879 457.26 191.422 457.188 191.954C456.951 194.225 454.907 196.165 453.06 197.28C450.893 198.631 445.248 199.261 445.248 199.261Z" fill="white"/>
<path d="M438.983 173.337C442.027 174.431 443.544 180.066 443.441 182.955C443.441 183.203 442.863 187.083 442.812 187.083H442.75C442.987 187.971 443.245 188.92 443.503 189.973C443.957 191.913 444.452 194.101 444.834 196.536C445.277 199.145 445.567 201.778 445.701 204.421C445.866 207.382 445.766 210.353 445.402 213.296C445.398 213.33 445.398 213.365 445.402 213.399C445.804 212.543 447.002 210.179 447.105 210.004C448.694 207.589 453.173 203.812 456.3 204.71C456.813 204.866 457.288 205.13 457.693 205.482C458.098 205.834 458.424 206.268 458.65 206.755C458.876 207.242 458.996 207.771 459.004 208.308C459.012 208.844 458.906 209.377 458.694 209.87C457.868 212.006 455.392 213.327 453.317 213.926C450.975 214.586 445.753 213.802 445.34 213.74C444.898 216.724 444.256 219.675 443.421 222.574C442.939 224.266 442.416 225.955 441.852 227.641C442.213 226.908 442.554 226.258 442.605 226.175C444.194 223.761 448.684 219.983 451.8 220.881C452.314 221.038 452.788 221.301 453.193 221.653C453.598 222.006 453.924 222.44 454.15 222.926C454.376 223.413 454.497 223.942 454.504 224.479C454.512 225.016 454.407 225.548 454.195 226.041C453.369 228.167 450.892 229.499 448.818 230.087C446.744 230.675 442.244 230.087 441.068 229.942L440.417 231.872C439.385 234.968 438.26 238.064 437.321 241.098C436.981 242.13 436.682 243.245 436.382 244.318C436.712 243.668 436.991 243.121 437.043 243.049C438.632 240.623 443.111 236.857 446.228 237.755C446.741 237.911 447.216 238.174 447.621 238.527C448.026 238.879 448.352 239.312 448.579 239.799C448.806 240.286 448.928 240.814 448.937 241.351C448.946 241.888 448.842 242.421 448.632 242.915C447.806 245.04 445.319 246.372 443.245 246.96C441.171 247.548 437.115 247.032 435.711 246.836C435.433 247.94 435.165 249.055 434.948 250.139C434.814 250.882 434.638 251.583 434.545 252.347L434.236 254.555C434.091 255.969 433.926 257.424 433.823 258.807C433.74 259.777 433.678 260.696 433.617 261.614C433.947 260.582 434.648 258.446 434.7 258.281C435.846 256.013 437.551 254.073 439.654 252.646C439.771 252.386 439.912 252.137 440.077 251.903C440.369 251.452 440.753 251.068 441.204 250.776C441.655 250.484 442.162 250.29 442.693 250.207C443.224 250.124 443.766 250.154 444.284 250.295C444.803 250.437 445.286 250.686 445.701 251.026C448.157 253.142 447.538 258.941 446.413 261.604C446.351 261.759 445.433 263.389 444.845 264.401C445.288 263.854 445.701 263.369 446.166 262.77C447.063 261.666 447.992 260.593 448.983 259.437L450.5 257.796C450.995 257.239 451.594 256.712 452.141 256.155C453.431 254.906 454.803 253.699 456.217 252.522C455.258 251.728 451.873 248.88 450.903 246.939C449.932 244.999 449.241 242.285 450.252 240.231C450.474 239.741 450.797 239.304 451.2 238.947C451.603 238.59 452.076 238.322 452.589 238.16C453.102 237.999 453.644 237.947 454.178 238.009C454.713 238.07 455.228 238.244 455.691 238.518C458.426 240.231 458.704 246.062 457.992 248.838C457.992 249.014 457.208 250.974 456.785 252.037C457.641 251.325 458.488 250.624 459.375 249.973C461.935 248.002 464.587 246.083 467.218 244.153L469.623 242.368C469.282 242.089 465.196 238.787 464.102 236.609C463.142 234.679 462.44 231.955 463.452 229.911C463.673 229.42 463.995 228.982 464.397 228.624C464.799 228.266 465.273 227.997 465.786 227.834C466.299 227.672 466.841 227.619 467.376 227.68C467.911 227.741 468.427 227.914 468.89 228.188C471.635 229.911 471.904 235.732 471.192 238.508C471.14 238.714 470.077 241.521 469.778 242.223C471.532 240.912 473.276 239.591 474.938 238.219C477.196 236.37 479.333 234.377 481.336 232.254C481.181 232.13 476.899 228.694 475.784 226.475C474.814 224.545 474.122 221.82 475.134 219.767C475.355 219.277 475.677 218.84 476.078 218.483C476.48 218.126 476.952 217.858 477.464 217.695C477.976 217.533 478.516 217.48 479.05 217.54C479.584 217.6 480.099 217.771 480.562 218.043C483.307 219.767 483.586 225.598 482.874 228.363C482.822 228.549 482.017 230.696 481.615 231.697C481.662 231.737 481.714 231.772 481.77 231.8C483.727 229.608 485.485 227.245 487.022 224.741C487.889 223.379 488.632 222.017 489.334 220.685C488.467 220.128 484.556 217.589 483.328 215.649C482.1 213.709 481.171 211.201 481.945 209.055C482.112 208.544 482.385 208.074 482.745 207.675C483.106 207.277 483.546 206.959 484.038 206.742C484.529 206.525 485.061 206.414 485.598 206.416C486.136 206.417 486.667 206.533 487.157 206.753C490.077 208.157 490.985 213.977 490.583 216.784C490.583 216.939 490.17 218.497 489.871 219.622C490.17 219.024 490.5 218.394 490.779 217.806C491.811 215.608 492.688 213.523 493.411 211.676C493.823 210.644 494.164 209.612 494.443 208.745C493.875 207.765 491.667 203.75 491.45 201.521C491.233 199.292 491.584 196.578 493.266 195.03C493.649 194.653 494.107 194.361 494.611 194.172C495.114 193.984 495.651 193.904 496.187 193.937C496.724 193.97 497.247 194.116 497.724 194.365C498.2 194.613 498.619 194.959 498.952 195.381C500.893 197.971 499.045 203.513 497.373 205.866C497.229 206.072 494.597 208.962 494.566 208.962V208.9C494.277 209.777 493.968 210.706 493.596 211.727C492.915 213.595 492.121 215.701 491.099 217.919C490.019 220.339 488.803 222.696 487.456 224.978C485.953 227.534 484.226 229.952 482.296 232.202L482.224 232.275C483.029 231.779 485.32 230.469 485.516 230.386C488.178 229.241 493.978 228.601 496.104 231.036C496.446 231.451 496.697 231.933 496.841 232.45C496.985 232.968 497.018 233.511 496.938 234.042C496.858 234.574 496.667 235.083 496.378 235.535C496.088 235.988 495.707 236.375 495.258 236.671C493.39 237.992 490.593 237.703 488.529 237.084C486.207 236.351 482.337 232.811 481.986 232.533C479.968 234.775 477.803 236.882 475.505 238.838C474.174 239.984 472.791 241.098 471.377 242.202C472.089 241.8 472.729 241.439 472.822 241.397C475.474 240.252 481.274 239.612 483.4 242.048C483.744 242.461 483.996 242.943 484.141 243.461C484.285 243.98 484.319 244.523 484.239 245.055C484.159 245.587 483.968 246.096 483.677 246.549C483.387 247.001 483.004 247.388 482.554 247.682C480.696 249.003 477.889 248.714 475.836 248.095C473.782 247.476 470.345 244.483 469.458 243.689C468.911 244.112 468.426 244.535 467.838 244.948C465.247 246.939 462.678 248.91 460.149 250.923C459.272 251.635 458.436 252.357 457.59 253.09L458.849 252.388C461.501 251.253 467.301 250.603 469.427 253.049C469.771 253.463 470.023 253.944 470.168 254.463C470.312 254.981 470.346 255.524 470.266 256.056C470.186 256.588 469.994 257.097 469.704 257.55C469.414 258.002 469.031 258.389 468.581 258.683C466.713 260.004 463.916 259.715 461.862 259.086C459.809 258.456 456.702 255.763 455.67 254.834C454.834 255.598 453.988 256.372 453.214 257.156C452.688 257.703 452.182 258.188 451.666 258.776L450.18 260.459C449.282 261.552 448.343 262.677 447.487 263.771C446.888 264.535 446.331 265.268 445.773 266C446.63 265.288 448.364 263.936 448.519 263.823C450.964 262.285 456.609 260.778 459.076 262.863C459.476 263.222 459.795 263.661 460.014 264.152C460.233 264.643 460.346 265.174 460.346 265.711C460.346 266.249 460.233 266.78 460.014 267.271C459.795 267.761 459.476 268.201 459.076 268.56C457.425 270.149 454.618 270.314 452.492 269.984C450.139 269.623 445.887 266.888 445.361 266.506C444.432 267.724 443.544 268.921 442.719 270.056C439.86 274.009 437.631 277.414 436.104 279.809C436.104 279.901 436 279.974 435.949 280.056L433.967 279.096L434.277 278.622C435.877 276.238 438.209 272.853 441.181 268.921C442.12 267.672 443.142 266.372 444.205 265.03C443.099 263.827 442.065 262.559 441.109 261.233C438.828 262.12 434.102 262.151 433.482 262.151C433.389 263.689 433.307 265.175 433.245 266.578C433.039 271.46 433.059 275.526 433.111 278.364V278.694L430.933 277.662C430.933 274.834 431.047 271.016 431.336 266.496C431.429 264.948 431.563 263.286 431.718 261.583C431.109 261.439 426.186 260.17 424.329 258.683C422.646 257.342 420.871 255.154 420.933 252.873C420.927 252.335 421.035 251.802 421.25 251.309C421.465 250.816 421.781 250.373 422.179 250.011C422.576 249.648 423.046 249.374 423.557 249.206C424.068 249.037 424.609 248.979 425.144 249.034C428.353 249.447 431.047 254.617 431.573 257.466C431.573 257.631 431.738 259.53 431.8 260.655C431.872 259.963 431.924 259.292 432.007 258.591C432.141 257.177 432.327 255.773 432.523 254.256C432.636 253.534 432.76 252.791 432.873 252.048C432.987 251.305 433.183 250.541 433.338 249.788C433.73 248.023 434.205 246.258 434.731 244.493C433.493 244.37 429.107 243.854 427.218 242.77C425.33 241.686 423.266 239.808 422.987 237.538C422.901 237.007 422.927 236.465 423.065 235.945C423.203 235.425 423.449 234.941 423.787 234.523C424.125 234.105 424.547 233.763 425.027 233.52C425.506 233.276 426.031 233.137 426.568 233.111C429.798 233.028 433.245 237.734 434.194 240.469C434.256 240.634 434.721 242.667 434.948 243.792C435.278 242.76 435.588 241.676 435.98 240.613C437.012 237.517 438.178 234.493 439.313 231.428C439.664 230.489 439.994 229.55 440.345 228.611C439.901 228.611 434.669 228.074 432.564 226.857C430.696 225.825 428.611 223.895 428.322 221.624C428.238 221.094 428.265 220.552 428.404 220.033C428.542 219.514 428.789 219.03 429.126 218.613C429.464 218.195 429.886 217.853 430.364 217.61C430.843 217.366 431.367 217.225 431.903 217.197C435.144 217.115 438.591 221.831 439.54 224.555C439.612 224.762 440.273 227.651 440.407 228.446C441.15 226.382 441.883 224.318 442.471 222.254C443.343 219.467 444.032 216.627 444.535 213.75C444.329 213.75 438.869 213.234 436.713 211.996C434.834 210.912 432.75 209.024 432.471 206.753C432.385 206.223 432.411 205.68 432.549 205.16C432.687 204.641 432.933 204.156 433.271 203.738C433.609 203.321 434.031 202.979 434.511 202.735C434.99 202.492 435.515 202.352 436.052 202.326C439.282 202.243 442.729 206.96 443.679 209.684C443.74 209.86 444.256 212.099 444.473 213.162H444.649C445.075 210.255 445.241 207.316 445.144 204.38C445.144 202.77 444.989 201.222 444.834 199.725C443.802 199.725 439.117 199.725 437.053 198.838C434.989 197.95 432.791 196.32 432.254 194.101C432.111 193.581 432.079 193.037 432.161 192.504C432.243 191.971 432.436 191.462 432.728 191.009C433.021 190.556 433.405 190.169 433.857 189.875C434.309 189.581 434.818 189.386 435.35 189.302C438.56 188.869 442.502 193.172 443.751 195.773C443.813 195.917 444.349 197.434 444.711 198.549C444.638 197.868 444.566 197.176 444.473 196.485C444.153 194.06 443.699 191.861 443.286 189.911C443.039 188.807 442.801 187.847 442.564 186.887C441.532 186.371 437.487 184.256 436.104 182.532C434.721 180.809 433.482 178.342 434.04 176.123C434.158 175.602 434.384 175.111 434.703 174.683C435.022 174.254 435.428 173.897 435.894 173.634C436.359 173.372 436.875 173.21 437.407 173.159C437.939 173.108 438.476 173.168 438.983 173.337Z" fill="white"/>
<path d="M497.477 223.224C494.948 223.121 489.892 220.52 489.892 220.52C489.892 220.52 492.606 217.713 492.802 217.548C495.062 215.752 500.49 213.596 503.184 215.391C503.624 215.7 503.994 216.098 504.27 216.559C504.546 217.02 504.721 217.535 504.785 218.069C504.848 218.603 504.798 219.144 504.638 219.657C504.477 220.17 504.21 220.644 503.855 221.047C502.399 222.811 499.634 223.307 497.477 223.224Z" fill="white"/>
</g>
<path d="M467.951 286.537C467.951 286.537 452.605 249.55 444.019 251.16C435.433 252.77 458.746 310.129 458.746 310.129C458.746 310.129 431.749 259.199 413.338 259.199C394.927 259.199 420.087 315.485 443.41 334.247C443.41 334.247 406.589 294.576 385.113 303.163C363.637 311.749 428.095 351.945 428.095 351.945C428.095 351.945 390.665 340.15 394.958 349.262C399.251 358.375 410.913 359.985 410.913 359.985L368.601 362.131H515.815L482.678 358.911C482.678 358.911 517.043 341.759 507.838 334.783C498.633 327.807 478.385 342.822 478.385 342.822C478.385 342.822 513.359 304.226 506.61 289.757C499.861 275.288 469.788 316.021 469.788 316.021C469.788 316.021 494.339 264.029 489.396 254.906C484.453 245.783 467.951 286.537 467.951 286.537Z" fill="#47C2C9"/>
<path opacity="0.4" d="M467.951 286.537C467.951 286.537 452.605 249.55 444.019 251.16C435.433 252.77 458.746 310.129 458.746 310.129C458.746 310.129 431.749 259.199 413.338 259.199C394.927 259.199 420.087 315.485 443.41 334.247C443.41 334.247 406.589 294.576 385.113 303.163C363.637 311.749 428.095 351.945 428.095 351.945C428.095 351.945 390.665 340.15 394.958 349.262C399.251 358.375 410.913 359.985 410.913 359.985L368.601 362.131H515.815L482.678 358.911C482.678 358.911 517.043 341.759 507.838 334.783C498.633 327.807 478.385 342.822 478.385 342.822C478.385 342.822 513.359 304.226 506.61 289.757C499.861 275.288 469.788 316.021 469.788 316.021C469.788 316.021 494.339 264.029 489.396 254.906C484.453 245.783 467.951 286.537 467.951 286.537Z" fill="white"/>
<path d="M472.864 288.488C459.365 328.375 459.365 356.6 459.365 356.6C459.365 356.6 475.32 357.219 491.884 344.949" stroke="#263238" stroke-linecap="round" stroke-linejoin="round"/>
<path d="M466.114 309.964C463.329 298.04 459.634 286.348 455.062 274.989" stroke="#263238" stroke-linecap="round" stroke-linejoin="round"/>
<path d="M426.228 286.651L460.583 337.58C460.583 337.58 483.906 317.972 491.883 306.898" stroke="#263238" stroke-linecap="round" stroke-linejoin="round"/>
<path d="M459.974 349.85C459.974 349.85 423.772 332.668 409.045 322.853" stroke="#263238" stroke-linecap="round" stroke-linejoin="round"/>
<path d="M230.675 101.489L222.243 88.032H147.98V101.489V106.329V330.211H453.659V101.489H230.675Z" fill="#263238"/>
<path d="M451.647 107.661H150.251V325.33H451.647V107.661Z" fill="white"/>
<mask id="mask0_223_52" style="mask-type:luminance" maskUnits="userSpaceOnUse" x="150" y="107" width="302" height="219">
<path d="M451.647 107.661H150.251V325.33H451.647V107.661Z" fill="white"/>
</mask>
<g mask="url(#mask0_223_52)">
<path opacity="0.17" d="M453.122 105.793H446.125V326.981H453.122V105.793Z" fill="black"/>
<path opacity="0.17" d="M453.122 239.53H446.125V325.186H453.122V239.53Z" fill="black"/>
<path d="M452.039 104.719H149.054V116.557H452.039V104.719Z" fill="#47C2C9" stroke="#263238" stroke-miterlimit="10"/>
</g>
<path d="M451.647 107.661H150.251V325.33H451.647V107.661Z" stroke="#263238" stroke-linecap="round" stroke-linejoin="round"/>
<g opacity="0.17">
<path d="M307.28 127.97H286.196C285.953 127.97 285.711 127.922 285.486 127.829C285.26 127.736 285.055 127.599 284.883 127.426C284.71 127.254 284.574 127.049 284.48 126.824C284.387 126.598 284.339 126.357 284.339 126.113C284.338 125.868 284.385 125.625 284.477 125.399C284.57 125.172 284.707 124.966 284.879 124.793C285.052 124.619 285.257 124.481 285.483 124.387C285.709 124.293 285.952 124.245 286.196 124.245H307.28C307.525 124.245 307.767 124.293 307.994 124.387C308.22 124.481 308.425 124.619 308.597 124.793C308.77 124.966 308.907 125.172 308.999 125.399C309.092 125.625 309.139 125.868 309.138 126.113C309.138 126.357 309.09 126.598 308.996 126.824C308.903 127.049 308.766 127.254 308.594 127.426C308.421 127.599 308.217 127.736 307.991 127.829C307.766 127.922 307.524 127.97 307.28 127.97Z" fill="black"/>
<path d="M349.448 127.97H328.364C327.873 127.968 327.402 127.771 327.054 127.423C326.706 127.076 326.51 126.605 326.507 126.113C326.507 125.619 326.702 125.146 327.05 124.796C327.398 124.446 327.871 124.248 328.364 124.245H349.448C349.944 124.245 350.419 124.442 350.769 124.792C351.119 125.142 351.316 125.617 351.316 126.113C351.313 126.606 351.115 127.079 350.765 127.427C350.415 127.775 349.942 127.97 349.448 127.97Z" fill="black"/>
<path d="M391.625 127.97H370.542C370.048 127.97 369.575 127.775 369.225 127.427C368.875 127.079 368.677 126.606 368.674 126.113C368.674 125.617 368.871 125.142 369.221 124.792C369.571 124.442 370.046 124.245 370.542 124.245H391.625C392.119 124.248 392.592 124.446 392.94 124.796C393.288 125.146 393.483 125.619 393.483 126.113C393.48 126.605 393.284 127.076 392.936 127.423C392.588 127.771 392.117 127.968 391.625 127.97Z" fill="black"/>
<path d="M433.793 127.97H412.709C412.465 127.97 412.224 127.922 411.998 127.829C411.773 127.736 411.568 127.599 411.396 127.426C411.223 127.254 411.086 127.049 410.993 126.824C410.9 126.598 410.852 126.357 410.852 126.113C410.85 125.868 410.897 125.625 410.99 125.399C411.083 125.172 411.219 124.966 411.392 124.793C411.565 124.619 411.77 124.481 411.996 124.387C412.222 124.293 412.464 124.245 412.709 124.245H433.793C434.287 124.248 434.759 124.446 435.107 124.796C435.455 125.146 435.651 125.619 435.651 126.113C435.648 126.605 435.451 127.076 435.103 127.423C434.756 127.771 434.285 127.968 433.793 127.97Z" fill="black"/>
</g>
<path d="M178.734 216.815H210.592" stroke="#263238" stroke-width="3" stroke-linecap="round" stroke-linejoin="round"/>
<path d="M210.024 221.779H213.502" stroke="#263238" stroke-linecap="round" stroke-linejoin="round"/>
<path d="M190.076 221.779H207.919" stroke="#263238" stroke-linecap="round" stroke-linejoin="round"/>
<path d="M176.299 221.779H188.187" stroke="#263238" stroke-linecap="round" stroke-linejoin="round"/>
<path d="M198.889 226.743H213.502" stroke="#263238" stroke-linecap="round" stroke-linejoin="round"/>
<path d="M190.912 226.743H196.588" stroke="#263238" stroke-linecap="round" stroke-linejoin="round"/>
<path d="M176.299 226.743H188.394" stroke="#263238" stroke-linecap="round" stroke-linejoin="round"/>
<path d="M184.193 231.697H213.502" stroke="#263238" stroke-linecap="round" stroke-linejoin="round"/>
<path d="M176.299 231.697H181.469" stroke="#263238" stroke-linecap="round" stroke-linejoin="round"/>
<path d="M206.247 236.661H213.502" stroke="#263238" stroke-linecap="round" stroke-linejoin="round"/>
<path d="M192.388 236.661H203.719" stroke="#263238" stroke-linecap="round" stroke-linejoin="round"/>
<path d="M176.299 236.661H190.076" stroke="#263238" stroke-linecap="round" stroke-linejoin="round"/>
<path d="M188.394 241.625H213.502" stroke="#263238" stroke-linecap="round" stroke-linejoin="round"/>
<path d="M176.299 241.625H186.082" stroke="#263238" stroke-linecap="round" stroke-linejoin="round"/>
<path d="M251.387 216.815H283.245" stroke="#263238" stroke-width="3" stroke-linecap="round" stroke-linejoin="round"/>
<path d="M282.677 221.779H286.155" stroke="#263238" stroke-linecap="round" stroke-linejoin="round"/>
<path d="M262.729 221.779H280.572" stroke="#263238" stroke-linecap="round" stroke-linejoin="round"/>
<path d="M248.951 221.779H260.84" stroke="#263238" stroke-linecap="round" stroke-linejoin="round"/>
<path d="M271.542 226.743H286.155" stroke="#263238" stroke-linecap="round" stroke-linejoin="round"/>
<path d="M263.564 226.743H269.24" stroke="#263238" stroke-linecap="round" stroke-linejoin="round"/>
<path d="M248.951 226.743H261.046" stroke="#263238" stroke-linecap="round" stroke-linejoin="round"/>
<path d="M256.846 231.697H286.155" stroke="#263238" stroke-linecap="round" stroke-linejoin="round"/>
<path d="M248.951 231.697H254.121" stroke="#263238" stroke-linecap="round" stroke-linejoin="round"/>
<path d="M278.9 236.661H286.155" stroke="#263238" stroke-linecap="round" stroke-linejoin="round"/>
<path d="M265.04 236.661H276.371" stroke="#263238" stroke-linecap="round" stroke-linejoin="round"/>
<path d="M248.951 236.661H262.728" stroke="#263238" stroke-linecap="round" stroke-linejoin="round"/>
<path d="M261.047 241.625H286.155" stroke="#263238" stroke-linecap="round" stroke-linejoin="round"/>
<path d="M248.951 241.625H258.735" stroke="#263238" stroke-linecap="round" stroke-linejoin="round"/>
<path d="M324.04 216.815H355.898" stroke="#263238" stroke-width="3" stroke-linecap="round" stroke-linejoin="round"/>
<path d="M355.33 221.779H358.808" stroke="#263238" stroke-linecap="round" stroke-linejoin="round"/>
<path d="M335.381 221.779H353.224" stroke="#263238" stroke-linecap="round" stroke-linejoin="round"/>
<path d="M321.604 221.779H333.493" stroke="#263238" stroke-linecap="round" stroke-linejoin="round"/>
<path d="M344.194 226.743H358.807" stroke="#263238" stroke-linecap="round" stroke-linejoin="round"/>
<path d="M336.217 226.743H341.893" stroke="#263238" stroke-linecap="round" stroke-linejoin="round"/>
<path d="M321.604 226.743H333.7" stroke="#263238" stroke-linecap="round" stroke-linejoin="round"/>
<path d="M329.499 231.697H358.808" stroke="#263238" stroke-linecap="round" stroke-linejoin="round"/>
<path d="M321.604 231.697H326.775" stroke="#263238" stroke-linecap="round" stroke-linejoin="round"/>
<path d="M351.553 236.661H358.808" stroke="#263238" stroke-linecap="round" stroke-linejoin="round"/>
<path d="M337.693 236.661H349.025" stroke="#263238" stroke-linecap="round" stroke-linejoin="round"/>
<path d="M321.604 236.661H335.382" stroke="#263238" stroke-linecap="round" stroke-linejoin="round"/>
<path d="M333.699 241.625H358.808" stroke="#263238" stroke-linecap="round" stroke-linejoin="round"/>
<path d="M321.604 241.625H331.388" stroke="#263238" stroke-linecap="round" stroke-linejoin="round"/>
<path d="M396.692 216.815H428.55" stroke="#263238" stroke-width="3" stroke-linecap="round" stroke-linejoin="round"/>
<path d="M427.982 221.779H431.46" stroke="#263238" stroke-linecap="round" stroke-linejoin="round"/>
<path d="M408.034 221.779H425.877" stroke="#263238" stroke-linecap="round" stroke-linejoin="round"/>
<path d="M394.257 221.779H406.145" stroke="#263238" stroke-linecap="round" stroke-linejoin="round"/>
<path d="M416.848 226.743H431.461" stroke="#263238" stroke-linecap="round" stroke-linejoin="round"/>
<path d="M408.87 226.743H414.546" stroke="#263238" stroke-linecap="round" stroke-linejoin="round"/>
<path d="M394.257 226.743H406.352" stroke="#263238" stroke-linecap="round" stroke-linejoin="round"/>
<path d="M402.151 231.697H431.46" stroke="#263238" stroke-linecap="round" stroke-linejoin="round"/>
<path d="M394.257 231.697H399.427" stroke="#263238" stroke-linecap="round" stroke-linejoin="round"/>
<path d="M424.206 236.661H431.461" stroke="#263238" stroke-linecap="round" stroke-linejoin="round"/>
<path d="M410.346 236.661H421.677" stroke="#263238" stroke-linecap="round" stroke-linejoin="round"/>
<path d="M394.257 236.661H408.034" stroke="#263238" stroke-linecap="round" stroke-linejoin="round"/>
<path d="M406.352 241.625H431.46" stroke="#263238" stroke-linecap="round" stroke-linejoin="round"/>
<path d="M394.257 241.625H404.04" stroke="#263238" stroke-linecap="round" stroke-linejoin="round"/>
<path d="M441.275 200.83H160.571V142.924H441.275V200.83Z" fill="#47C2C9"/>
<path opacity="0.7" d="M441.275 200.83H160.571V142.924H441.275V200.83Z" fill="white"/>
<path d="M370.243 200.83H231.655V142.924H370.243V200.83Z" fill="#47C2C9"/>
<path opacity="0.92" d="M370.243 200.83H231.655V142.924H370.243V200.83Z" fill="white"/>
<path d="M341.924 159.704H351.367" stroke="#263238" stroke-linecap="round" stroke-linejoin="round"/>
<path d="M287.868 159.704H336.238" stroke="#263238" stroke-linecap="round" stroke-linejoin="round"/>
<path d="M250.53 159.704H282.739" stroke="#263238" stroke-linecap="round" stroke-linejoin="round"/>
<path d="M311.77 164.668H351.367" stroke="#263238" stroke-linecap="round" stroke-linejoin="round"/>
<path d="M290.139 164.668H305.505" stroke="#263238" stroke-linecap="round" stroke-linejoin="round"/>
<path d="M250.53 164.668H283.317" stroke="#263238" stroke-linecap="round" stroke-linejoin="round"/>
<path d="M271.934 169.632H351.367" stroke="#263238" stroke-linecap="round" stroke-linejoin="round"/>
<path d="M250.53 169.632H264.535" stroke="#263238" stroke-linecap="round" stroke-linejoin="round"/>
<path d="M331.687 174.596H351.367" stroke="#263238" stroke-linecap="round" stroke-linejoin="round"/>
<path d="M294.122 174.596H324.855" stroke="#263238" stroke-linecap="round" stroke-linejoin="round"/>
<path d="M250.53 174.596H287.868" stroke="#263238" stroke-linecap="round" stroke-linejoin="round"/>
<path d="M283.317 179.55H351.367" stroke="#263238" stroke-linecap="round" stroke-linejoin="round"/>
<path d="M250.53 179.55H277.053" stroke="#263238" stroke-linecap="round" stroke-linejoin="round"/>
<path d="M441.275 324.608H160.571V266.702H441.275V324.608Z" fill="#47C2C9"/>
<path opacity="0.7" d="M441.275 324.608H160.571V266.702H441.275V324.608Z" fill="white"/>
<mask id="mask1_223_52" style="mask-type:luminance" maskUnits="userSpaceOnUse" x="381" y="243" width="63" height="82">
<path d="M443.442 243.193H381.119V324.969H443.442V243.193Z" fill="white"/>
</mask>
<g mask="url(#mask1_223_52)">
<path d="M408.054 288.735C408.054 288.735 391.615 295.34 389.035 296.155C386.455 296.971 386.3 298.085 386.3 301.625C386.3 305.165 386.785 321.13 386.785 322.42C386.785 323.71 386.62 326.125 386.62 326.125H440.48C440.48 326.125 436.93 311.677 434.835 304.855C432.74 298.034 433.71 297.435 430.005 295.185C426.3 292.936 416.589 289.705 414.525 289.22C412.385 288.885 410.221 288.722 408.054 288.735Z" fill="#263238" stroke="#263238" stroke-linecap="round" stroke-linejoin="round"/>
<path d="M408.859 286.96C408.859 286.96 404.989 286.64 403.379 289.871C401.769 293.101 397.899 300.624 397.899 300.624L402.574 303.524L397.136 306.3C398.044 310.281 399.174 314.209 400.521 318.065C401.457 320.595 402.532 323.072 403.741 325.485C403.741 325.485 411.584 316.62 414.68 313.875C416.721 311.922 418.411 309.632 419.675 307.105L415.65 303.4L422.585 302.595C422.585 302.595 420.81 293.575 418.55 289.871C416.29 286.166 408.859 286.96 408.859 286.96Z" fill="#263238" stroke="#263238" stroke-linecap="round" stroke-linejoin="round"/>
<path d="M400.944 318.168C401.233 318.973 401.543 319.737 401.842 320.407" stroke="#FFBE9D" stroke-width="0.5" stroke-linecap="round" stroke-linejoin="round"/>
<path d="M401.532 293.885L397.9 300.624L402.575 303.524L397.569 306.362C397.569 306.362 398.735 311.45 400.201 316.011" stroke="#FFBE9D" stroke-width="0.5" stroke-linecap="round" stroke-linejoin="round"/>
<path d="M419.84 290.83L422.554 302.595L415.619 303.4L419.644 307.105C419.644 307.105 411.904 316.176 408.694 319.84" stroke="#FFBE9D" stroke-width="0.5" stroke-linecap="round" stroke-linejoin="round"/>
<path d="M429.974 308.88L427.074 326.775" stroke="#FFBE9D" stroke-width="0.5" stroke-linecap="round" stroke-linejoin="round"/>
<path d="M390.169 305.66C390.169 305.66 389.849 316.455 390.004 319.84C390.132 321.986 390.567 324.102 391.294 326.125" stroke="#FFBE9D" stroke-width="0.5" stroke-linecap="round" stroke-linejoin="round"/>
<path d="M419.984 313.235L422.719 309.53L424.979 313.235H419.984Z" fill="#FFBE9D" stroke="#263238" stroke-miterlimit="10"/>
<path d="M423.204 277.776C423.204 277.776 425.939 277.456 426.589 281.491C427.239 285.526 425.299 290.676 418.849 290.676C412.399 290.676 412.894 285.835 413.049 282.296C413.204 278.756 423.204 277.776 423.204 277.776Z" fill="#263238" stroke="#263238" stroke-miterlimit="10"/>
<path d="M407.249 284.391C407.249 284.391 407.084 289.055 406.764 294.38C406.444 299.706 403.864 306.95 403.864 313.07C403.842 316.461 404.004 319.851 404.349 323.225C404.349 323.225 409.664 312.905 412.079 306.95C414.494 300.996 417.239 283.74 417.239 283.74L407.249 284.391Z" fill="#FFBE9D" stroke="#263238" stroke-miterlimit="10"/>
<path d="M423.039 273.792C424.239 271.442 424.902 268.855 424.979 266.217C424.979 262.192 424.174 256.712 419.499 254.287C414.825 251.862 405.794 253.482 403.545 258.157C402.026 261.146 401.314 264.479 401.481 267.827C401.643 269.637 402.021 271.421 402.606 273.142C402.606 273.142 403.256 270.046 407.601 268.477C411.945 266.908 416.63 265.247 418.88 266.413C421.13 267.579 423.039 273.792 423.039 273.792Z" fill="#263238" stroke="#263238" stroke-linecap="round" stroke-linejoin="round"/>
<path d="M402.739 272.141C402.739 272.141 400.799 269.241 399.994 271.336C399.189 273.431 400.324 276.496 401.604 277.136C402.884 277.775 403.544 277.456 403.544 277.456L402.739 272.141Z" fill="#FFBE9D" stroke="#263238" stroke-linecap="round" stroke-linejoin="round"/>
<path d="M423.039 272.626C423.039 272.626 425.299 270.366 425.299 272.461C425.186 274.405 424.464 276.264 423.235 277.775C422.265 279.065 421.78 278.426 421.78 278.426L423.039 272.626Z" fill="#FFBE9D" stroke="#263238" stroke-linecap="round" stroke-linejoin="round"/>
<path d="M419.211 263.348L420.81 258.838C420.873 258.662 420.863 258.467 420.783 258.298C420.703 258.129 420.559 257.998 420.382 257.935C420.205 257.872 420.011 257.882 419.842 257.962C419.672 258.043 419.542 258.187 419.479 258.364L418.137 262.13C416.726 261.797 415.261 261.754 413.832 262.006C412.404 262.258 411.042 262.799 409.83 263.596C405.64 266.341 402.255 268.756 402.255 268.756C402.255 268.756 402.42 277.941 404.185 281.326C405.949 284.711 409.025 288.735 411.605 288.735C414.185 288.735 418.695 283.101 420.47 281.326C422.245 279.551 423.37 272.626 423.37 270.366C423.37 268.746 420.707 265.216 419.211 263.348Z" fill="#FFBE9D" stroke="#263238" stroke-miterlimit="10"/>
<path d="M412.863 304.752C410.245 304.989 407.608 304.636 405.144 303.72C404.406 306.81 403.977 309.967 403.864 313.142C403.842 316.533 404.004 319.923 404.349 323.297C404.349 323.297 409.664 312.977 412.079 307.022C412.337 306.321 412.616 305.547 412.863 304.752Z" fill="#47C2C9" stroke="#263238" stroke-miterlimit="10"/>
</g>
<mask id="mask2_223_52" style="mask-type:luminance" maskUnits="userSpaceOnUse" x="308" y="243" width="63" height="82">
<path d="M370.397 243.193H308.074V324.969H370.397V243.193Z" fill="white"/>
</mask>
<g mask="url(#mask2_223_52)">
<path d="M336.692 280.18C332.581 280.646 328.499 281.335 324.463 282.244C319.746 283.462 317.476 283.988 317.476 286.258C317.476 288.529 316.95 298.312 315.412 302.688C313.874 307.064 312.089 313.348 312.089 315.619C312.089 317.889 315.412 327.497 315.412 327.497H321.521C321.521 327.497 319.251 316.31 319.251 315.268C319.251 314.226 322.399 304.948 322.399 304.948L322.574 327.838H354.566L354.225 305.99C354.225 305.99 357.012 314.907 357.012 316.475C357.012 318.044 355.98 328.364 355.98 328.364H362.048C362.048 328.364 365.02 317.012 364.845 312.987C364.669 308.962 361.749 296.207 361.357 292.347C360.964 288.488 363.276 286.403 359.086 283.782C354.896 281.16 345.278 279.592 343.183 279.416C341 279.459 338.826 279.715 336.692 280.18Z" fill="#47C2C9" stroke="#263238" stroke-miterlimit="10"/>
<path d="M322.367 304.999L322.894 296.258L320.964 289.623" stroke="#263238" stroke-linecap="round" stroke-linejoin="round"/>
<path d="M354.174 294.865V306.042" stroke="#263238" stroke-linecap="round" stroke-linejoin="round"/>
<path d="M354.339 298.013L357.136 293.812" stroke="#263238" stroke-linecap="round" stroke-linejoin="round"/>
<path d="M339.663 292.069L338.621 327.538" stroke="#263238" stroke-linecap="round" stroke-linejoin="round"/>
<path d="M339.137 275.99C337.582 276.075 336.104 276.691 334.947 277.734C333.028 279.489 332.326 286.3 332.326 286.3C332.326 286.3 338.446 284.556 339.488 284.236C340.531 283.916 349.808 285.98 349.808 285.98C349.808 285.98 348.941 279.87 346.496 277.249C344.05 274.628 339.137 275.99 339.137 275.99Z" fill="#263238" stroke="#263238" stroke-linecap="round" stroke-linejoin="round"/>
<path d="M336.691 270.396C336.691 270.396 338.095 272.46 338.095 278.652C338.095 284.844 338.786 291.233 339.664 292.068C340.541 292.904 344.204 283.812 344.204 279.684C344.274 276.955 344.932 274.272 346.134 271.821C346.134 271.821 341.759 268.848 339.488 268.498C338.868 268.401 338.235 268.543 337.715 268.896C337.196 269.248 336.83 269.785 336.691 270.396Z" fill="#FFBE9D" stroke="#263238" stroke-linecap="round" stroke-linejoin="round"/>
<path d="M338.374 285.464C338.653 288.859 339.127 291.532 339.664 292.068C340.201 292.605 341.883 289.199 343.039 285.546C341.489 285.765 339.915 285.737 338.374 285.464Z" fill="#263238" stroke="#263238" stroke-linecap="round" stroke-linejoin="round"/>
<path d="M347.352 253.626C347.352 253.626 348.384 253.977 350.324 252.223C352.265 250.469 351.356 247.156 350.5 247.858C349.953 248.304 349.479 248.833 349.096 249.426C348.758 248.404 348.134 247.499 347.298 246.819C346.463 246.139 345.45 245.711 344.38 245.587C340.717 245.236 336.341 250.303 336.341 250.303C336.341 250.303 328.312 256.248 329.179 260.964C330.046 265.68 334.597 269.87 336.692 270.396C338.787 270.923 342.636 267.084 341.934 263.761C341.233 260.438 340.717 255.505 341.934 255.02C343.713 254.454 345.522 253.989 347.352 253.626Z" fill="#263238" stroke="#263238" stroke-linecap="round" stroke-linejoin="round"/>
<path d="M336.341 267.6C336.341 267.6 333.379 265.536 332.678 267.084C331.976 268.632 333.555 271.449 335.474 272.316C337.394 273.183 339.138 270.396 339.138 270.396C339.138 270.396 345.258 275.288 349.458 275.464C353.658 275.639 353.834 272.316 353.132 266.031C352.43 259.746 350.335 254.844 348.767 253.1C347.198 251.356 341.078 252.925 339.148 254.493C337.218 256.062 336.052 257.465 337.931 257.816C339.809 258.167 341.594 258.848 339.85 260.789C338.106 262.729 337.229 262.006 337.786 263.41C338.343 264.813 340.583 266.207 338.488 266.908L336.341 267.6Z" fill="#FFBE9D" stroke="#263238" stroke-linecap="round" stroke-linejoin="round"/>
</g>
<mask id="mask3_223_52" style="mask-type:luminance" maskUnits="userSpaceOnUse" x="226" y="242" width="63" height="83">
<path d="M288.621 242.801H226.299V324.979H288.621V242.801Z" fill="white"/>
</mask>
<g mask="url(#mask3_223_52)">
<path d="M259.55 276.888C259.55 276.888 237.527 279.509 236.846 281.429C236.165 283.348 228.115 302.069 229.333 303.792C230.551 305.516 233.007 305.856 234.927 305.856C236.286 305.735 237.572 305.185 238.601 304.288L233.007 328.024H273.544L274.772 311.419C274.772 311.419 279.488 313.483 282.636 313.173C285.784 312.863 285.082 310.376 284.38 305.66C283.678 300.944 283.348 288.88 282.11 286.609C280.871 284.339 266.031 278.044 266.031 278.044L259.55 276.888Z" fill="#263238" stroke="#263238" stroke-linecap="round" stroke-linejoin="round"/>
<path d="M275.103 305.351V294.515L275.969 292.42" stroke="#FFBE9D" stroke-linecap="round" stroke-linejoin="round"/>
<path d="M239.798 296.259L241.552 288.921L241.201 287.353" stroke="#FFBE9D" stroke-linecap="round" stroke-linejoin="round"/>
<path d="M244.4 328.767C244.4 328.767 247.713 314.432 249.292 305.526C250.871 296.62 257.445 276.888 257.445 276.888L267.589 279.685C267.589 279.685 260.768 299.602 259.024 308.168C257.28 316.733 255.814 328.87 255.814 328.87L244.4 328.767Z" fill="#47C2C9" stroke="#263238" stroke-miterlimit="10"/>
<path d="M258.849 274.824C258.849 274.824 255.876 274.824 254.824 276.888C253.771 278.952 252.378 287.022 252.378 287.022C252.378 287.022 258.673 284.225 259.199 284.225C259.726 284.225 262.172 284.401 263.389 285.794C264.607 287.187 267.239 290.51 267.239 290.51C267.239 290.51 271.253 284.05 270.211 279.86C269.854 278.479 269.07 277.246 267.971 276.336C266.872 275.426 265.515 274.886 264.091 274.793L258.849 274.824Z" fill="#47C2C9" stroke="#263238" stroke-miterlimit="10"/>
<path d="M257.816 270.221C257.816 270.221 257.465 282.461 257.816 285.949C258.167 289.437 258.693 290.314 258.693 290.314C258.693 290.314 261.665 285.423 262.532 283.678C263.399 281.934 266.031 280.005 267.259 278.436C268.487 276.867 269.323 270.923 269.323 270.923C269.323 270.923 264.782 274.421 262.336 273.544C260.606 272.779 259.063 271.645 257.816 270.221Z" fill="#FFBE9D" stroke="#263238" stroke-linecap="round" stroke-linejoin="round"/>
<path d="M265.041 248.105C262.069 248.539 259.169 250.025 258.333 252.925C257.631 255.371 257.301 263.41 257.115 267.425C256.929 271.439 259.035 276.516 260.779 277.043C262.234 277.559 263.801 277.68 265.319 277.394C266.197 277.043 270.221 271.625 271.264 270.572C272.306 269.52 275.454 259.736 275.454 256.248C275.531 254.527 275.044 252.829 274.068 251.409C273.092 249.99 271.68 248.928 270.046 248.384C268.416 247.941 266.71 247.846 265.041 248.105Z" fill="#FFBE9D" stroke="#263238" stroke-linecap="round" stroke-linejoin="round"/>
<path d="M273.699 264.504C273.699 264.504 276.495 262.048 275.763 265.195C275.538 266.136 275.108 267.015 274.506 267.772C273.903 268.528 273.141 269.142 272.274 269.571L273.699 264.504Z" fill="#FFBE9D" stroke="#263238" stroke-linecap="round" stroke-linejoin="round"/>
<path d="M257.445 261.14C257.445 261.14 255.381 259.22 255.381 261.842C255.461 263.558 256.074 265.207 257.135 266.558L257.445 261.14Z" fill="#FFBE9D" stroke="#263238" stroke-linecap="round" stroke-linejoin="round"/>
<path d="M273.699 264.504C274.605 261.831 275.191 259.059 275.443 256.248C275.52 254.527 275.033 252.829 274.057 251.409C273.082 249.99 271.669 248.928 270.035 248.384C268.405 247.941 266.699 247.846 265.03 248.105C262.058 248.539 259.158 250.025 258.322 252.925C257.784 255.817 257.47 258.746 257.383 261.687C258.27 260.995 260.118 259.303 259.725 257.29C259.199 254.669 258.146 253.451 260.066 252.223C261.986 250.995 264.266 252.75 267.414 253.802C270.561 254.855 273.699 253.451 274.576 254.318C275.453 255.185 271.779 258.869 272.306 260.262C272.832 261.656 274.05 263.235 273.699 264.463V264.504Z" fill="#263238" stroke="#263238" stroke-linecap="round" stroke-linejoin="round"/>
<path d="M248.528 298.013C248.528 298.013 245.907 294.339 244.163 294.164C242.419 293.988 238.219 298.013 238.219 298.013H248.528Z" fill="#FFBE9D" stroke="#263238" stroke-linecap="round" stroke-linejoin="round"/>
<path d="M265.133 298.354H267.589L268.105 303.256L265.484 302.554L265.133 298.354Z" fill="#FFBE9D" stroke="#263238" stroke-linecap="round" stroke-linejoin="round"/>
<path d="M267.59 298.354L271.955 300.283L272.998 305.701L268.106 303.256L267.59 298.354Z" fill="#FFBE9D" stroke="#263238" stroke-linecap="round" stroke-linejoin="round"/>
<path d="M281.553 307.848L256.568 298.065C255.128 298.773 253.777 299.649 252.543 300.676C251.814 301.408 251.276 302.308 250.975 303.297C250.975 303.297 262.853 311.863 268.622 314.484C274.391 317.105 282.781 317.982 284.174 316.548C285.567 315.113 285.206 309.737 284.35 308.859C283.886 308.382 283.358 307.972 282.781 307.642" fill="#263238"/>
<path d="M281.553 307.848L256.568 298.065C255.128 298.773 253.777 299.649 252.543 300.676C251.814 301.408 251.276 302.308 250.975 303.297C250.975 303.297 262.853 311.863 268.622 314.484C274.391 317.105 282.781 317.982 284.174 316.548C285.567 315.113 285.206 309.737 284.35 308.859C283.886 308.382 283.358 307.972 282.781 307.642" stroke="#263238" stroke-linecap="round" stroke-linejoin="round"/>
<path d="M265.133 297.528L265.484 302.595C265.484 302.595 247.135 306.785 240.324 308.013C233.513 309.241 229.839 308.354 228.797 305.216C227.754 302.079 231.242 298.219 232.811 297.353C234.38 296.486 265.133 297.528 265.133 297.528Z" fill="#263238" stroke="#263238" stroke-linecap="round" stroke-linejoin="round"/>
</g>
<mask id="mask4_223_52" style="mask-type:luminance" maskUnits="userSpaceOnUse" x="163" y="243" width="56" height="82">
<path d="M218.755 243.193H163.574V324.969H218.755V243.193Z" fill="white"/>
</mask>
<g mask="url(#mask4_223_52)">
<path d="M197.641 285.546C197.641 285.546 204.638 287.29 207.435 288.168C210.231 289.045 211.098 290.087 211.098 292.182C211.098 294.277 209.53 303.534 209.53 304.938V314.38C209.53 317.002 212.151 326.61 212.151 326.61H178.095C178.095 326.61 174.256 311.935 171.635 303.906C169.013 295.877 168.662 293.07 171.284 291.842C177.515 289.558 183.872 287.636 190.324 286.083C192.748 285.733 195.192 285.554 197.641 285.546Z" fill="#47C2C9" stroke="#263238" stroke-miterlimit="10"/>
<path d="M207.786 297.074C207.786 297.074 209.85 306.692 209.179 310.18C208.508 313.668 203.761 326.96 203.761 326.96" stroke="#263238" stroke-linecap="round" stroke-linejoin="round"/>
<path d="M171.263 291.831C171.263 291.831 168.167 292.357 168.992 296.382C169.818 300.407 165.845 326.424 165.845 326.424H173.533C173.533 326.424 178.776 312.616 179.643 309.303C180.509 305.99 181.222 303.358 179.643 300.562" fill="#47C2C9"/>
<path d="M171.263 291.831C171.263 291.831 168.167 292.357 168.992 296.382C169.818 300.407 165.845 326.424 165.845 326.424H173.533C173.533 326.424 178.776 312.616 179.643 309.303C180.509 305.99 181.222 303.358 179.643 300.562" stroke="#263238" stroke-miterlimit="10"/>
<path d="M203.822 268.529L204.968 304.122H194.638V271.594L203.822 268.529Z" fill="#263238" stroke="#263238" stroke-linecap="round" stroke-linejoin="round"/>
<path d="M190.479 294.112C190.479 294.112 193.451 307.528 194.679 311.584C195.907 315.639 196.072 325 195.711 326.259C195.35 327.518 200.076 326.259 200.076 326.259C200.076 326.259 201.304 316.971 202.006 311.584C202.708 306.197 200.603 296.031 200.603 296.031L198.332 287.115L189.767 288.694L190.479 294.112Z" fill="#FFBE9D" stroke="#263238" stroke-linecap="round" stroke-linejoin="round"/>
<path d="M197.96 279.426C197.473 282.208 197.533 285.058 198.136 287.817C199.168 291.666 201.985 298.653 199.539 300.572C197.093 302.492 193.77 301.449 192.026 297.951C190.282 294.452 188.703 285.722 188.703 278.56C188.703 271.398 189.405 270.169 191.851 270.169C194.297 270.169 197.96 279.426 197.96 279.426Z" fill="#FFBE9D" stroke="#263238" stroke-linecap="round" stroke-linejoin="round"/>
<path d="M192.924 276.114C191.353 277.48 189.504 278.49 187.506 279.076C184.885 279.602 183.492 272.615 183.141 265.66C182.79 258.704 184.544 254.824 188.208 253.08C191.871 251.335 200.788 252.202 204.286 253.596C207.785 254.989 211.975 257.269 211.975 260.933C211.975 264.597 207.248 267.6 205.855 268.425C204.462 269.251 201.139 270.489 199.044 272.615C197.234 274.144 195.16 275.33 192.924 276.114Z" fill="#263238" stroke="#263238" stroke-linecap="round" stroke-linejoin="round"/>
<path d="M192.925 276.114C192.925 276.114 194.989 281.356 198.869 281.521C202.749 281.687 207.125 272.791 207.259 268.941C207.393 265.092 203.41 258.456 203.41 258.456C203.41 258.456 196.599 274.009 192.925 276.114Z" fill="#FFBE9D" stroke="#263238" stroke-linecap="round" stroke-linejoin="round"/>
<path d="M191.882 268.25L192.222 305.99H180.52L183.141 262.13" fill="#263238"/>
<path d="M191.882 268.25L192.222 305.99H180.52L183.141 262.13" stroke="#263238" stroke-linecap="round" stroke-linejoin="round"/>
</g>
<g clip-path="url(#clip1_223_52)">
<path d="M532 160.62C532 159.173 530.838 158 529.406 158C527.974 158 526.812 159.173 526.812 160.62C526.812 162.067 527.974 163.24 529.406 163.24C530.838 163.24 532 162.067 532 160.62Z" fill="#BBB9BA"/>
<path d="M514.635 160.62C514.635 159.173 513.474 158 512.042 158C510.609 158 509.448 159.173 509.448 160.62C509.448 162.067 510.609 163.24 512.042 163.24C513.474 163.24 514.635 162.067 514.635 160.62Z" fill="#BBB9BA"/>
<path d="M497.27 160.62C497.27 159.173 496.109 158 494.677 158C493.244 158 492.083 159.173 492.083 160.62C492.083 162.067 493.244 163.24 494.677 163.24C496.109 163.24 497.27 162.067 497.27 160.62Z" fill="#BBB9BA"/>
<path d="M477.323 163.24C478.761 163.24 479.917 162.061 479.917 160.62C479.917 159.167 478.75 158 477.323 158C475.885 158 474.73 159.179 474.73 160.62C474.718 162.073 475.885 163.24 477.323 163.24Z" fill="#BBB9BA"/>
<path d="M459.959 163.24C461.397 163.24 462.552 162.061 462.552 160.62C462.552 159.167 461.385 158 459.959 158C458.521 158 457.365 159.179 457.365 160.62C457.365 162.073 458.521 163.24 459.959 163.24Z" fill="#BBB9BA"/>
<path d="M445.187 160.62C445.187 159.173 444.026 158 442.594 158C441.161 158 440 159.173 440 160.62C440 162.067 441.161 163.24 442.594 163.24C444.026 163.24 445.187 162.067 445.187 160.62Z" fill="#BBB9BA"/>
<path d="M532 174.77C532 173.323 530.838 172.15 529.406 172.15C527.974 172.15 526.812 173.323 526.812 174.77C526.812 176.217 527.974 177.39 529.406 177.39C530.838 177.39 532 176.217 532 174.77Z" fill="#BBB9BA"/>
<path d="M514.635 174.77C514.635 173.323 513.474 172.15 512.042 172.15C510.609 172.15 509.448 173.323 509.448 174.77C509.448 176.217 510.609 177.39 512.042 177.39C513.474 177.39 514.635 176.217 514.635 174.77Z" fill="#BBB9BA"/>
<path d="M497.27 174.77C497.27 173.323 496.109 172.15 494.677 172.15C493.244 172.15 492.083 173.323 492.083 174.77C492.083 176.217 493.244 177.39 494.677 177.39C496.109 177.39 497.27 176.217 497.27 174.77Z" fill="#BBB9BA"/>
<path d="M477.323 177.39C478.761 177.39 479.917 176.211 479.917 174.77C479.917 173.317 478.75 172.15 477.323 172.15C475.885 172.15 474.73 173.329 474.73 174.77C474.718 176.223 475.885 177.39 477.323 177.39Z" fill="#BBB9BA"/>
<path d="M459.959 177.39C461.397 177.39 462.552 176.211 462.552 174.77C462.552 173.317 461.385 172.15 459.959 172.15C458.521 172.15 457.365 173.329 457.365 174.77C457.365 176.223 458.521 177.39 459.959 177.39Z" fill="#BBB9BA"/>
<path d="M445.187 174.77C445.187 173.323 444.026 172.15 442.594 172.15C441.161 172.15 440 173.323 440 174.77C440 176.217 441.161 177.39 442.594 177.39C444.026 177.39 445.187 176.217 445.187 174.77Z" fill="#BBB9BA"/>
<path d="M529.406 191.552C530.844 191.552 532 190.372 532 188.931C532 187.478 530.833 186.311 529.406 186.311C527.968 186.311 526.813 187.49 526.813 188.931C526.801 190.372 527.968 191.552 529.406 191.552Z" fill="#BBB9BA"/>
<path d="M512.042 191.552C513.48 191.552 514.635 190.372 514.635 188.931C514.635 187.478 513.468 186.311 512.042 186.311C510.604 186.311 509.448 187.49 509.448 188.931C509.448 190.372 510.604 191.552 512.042 191.552Z" fill="#BBB9BA"/>
<path d="M494.677 191.552C496.115 191.552 497.27 190.372 497.27 188.931C497.27 187.478 496.103 186.311 494.677 186.311C493.238 186.311 492.083 187.49 492.083 188.931C492.083 190.372 493.25 191.552 494.677 191.552Z" fill="#BBB9BA"/>
<path d="M477.323 191.552C478.761 191.552 479.917 190.372 479.917 188.931C479.917 187.478 478.75 186.311 477.323 186.311C475.885 186.311 474.73 187.49 474.73 188.931C474.718 190.372 475.885 191.552 477.323 191.552Z" fill="#BBB9BA"/>
<path d="M459.959 191.552C461.397 191.552 462.552 190.372 462.552 188.931C462.552 187.478 461.385 186.311 459.959 186.311C458.521 186.311 457.365 187.49 457.365 188.931C457.365 190.372 458.521 191.552 459.959 191.552Z" fill="#BBB9BA"/>
<path d="M442.594 191.552C444.032 191.552 445.187 190.372 445.187 188.931C445.187 187.478 444.02 186.311 442.594 186.311C441.167 186.311 440 187.478 440 188.919C440 190.372 441.167 191.552 442.594 191.552Z" fill="#BBB9BA"/>
<path d="M532 203.069C532 201.622 530.838 200.448 529.406 200.448C527.974 200.448 526.812 201.622 526.812 203.069C526.812 204.516 527.974 205.689 529.406 205.689C530.838 205.689 532 204.516 532 203.069Z" fill="#BBB9BA"/>
<path d="M514.635 203.069C514.635 201.622 513.474 200.448 512.042 200.448C510.609 200.448 509.448 201.622 509.448 203.069C509.448 204.516 510.609 205.689 512.042 205.689C513.474 205.689 514.635 204.516 514.635 203.069Z" fill="#BBB9BA"/>
<path d="M497.27 203.069C497.27 201.622 496.109 200.448 494.677 200.448C493.244 200.448 492.083 201.622 492.083 203.069C492.083 204.516 493.244 205.689 494.677 205.689C496.109 205.689 497.27 204.516 497.27 203.069Z" fill="#BBB9BA"/>
<path d="M477.323 205.701C478.761 205.701 479.917 204.522 479.917 203.081C479.917 201.628 478.75 200.46 477.323 200.46C475.885 200.46 474.73 201.639 474.73 203.081C474.718 204.522 475.885 205.701 477.323 205.701Z" fill="#BBB9BA"/>
<path d="M459.959 205.701C461.397 205.701 462.552 204.522 462.552 203.081C462.552 201.628 461.385 200.46 459.959 200.46C458.521 200.46 457.365 201.639 457.365 203.081C457.365 204.522 458.521 205.701 459.959 205.701Z" fill="#BBB9BA"/>
<path d="M445.187 203.069C445.187 201.622 444.026 200.448 442.594 200.448C441.161 200.448 440 201.622 440 203.069C440 204.516 441.161 205.689 442.594 205.689C444.026 205.689 445.187 204.516 445.187 203.069Z" fill="#BBB9BA"/>
<path d="M532 217.23C532 215.783 530.838 214.61 529.406 214.61C527.974 214.61 526.812 215.783 526.812 217.23C526.812 218.677 527.974 219.851 529.406 219.851C530.838 219.851 532 218.677 532 217.23Z" fill="#BBB9BA"/>
<path d="M514.635 217.23C514.635 215.783 513.474 214.61 512.042 214.61C510.609 214.61 509.448 215.783 509.448 217.23C509.448 218.677 510.609 219.851 512.042 219.851C513.474 219.851 514.635 218.677 514.635 217.23Z" fill="#BBB9BA"/>
<path d="M497.27 217.23C497.27 215.783 496.109 214.61 494.677 214.61C493.244 214.61 492.083 215.783 492.083 217.23C492.083 218.677 493.244 219.851 494.677 219.851C496.109 219.851 497.27 218.677 497.27 217.23Z" fill="#BBB9BA"/>
<path d="M477.323 219.851C478.761 219.851 479.917 218.671 479.917 217.23C479.917 215.777 478.75 214.61 477.323 214.61C475.885 214.61 474.73 215.789 474.73 217.23C474.718 218.671 475.885 219.851 477.323 219.851Z" fill="#BBB9BA"/>
<path d="M459.959 219.851C461.397 219.851 462.552 218.671 462.552 217.23C462.552 215.777 461.385 214.61 459.959 214.61C458.521 214.61 457.365 215.789 457.365 217.23C457.365 218.671 458.521 219.851 459.959 219.851Z" fill="#BBB9BA"/>
<path d="M445.187 217.23C445.187 215.783 444.026 214.61 442.594 214.61C441.161 214.61 440 215.783 440 217.23C440 218.677 441.161 219.851 442.594 219.851C444.026 219.851 445.187 218.677 445.187 217.23Z" fill="#BBB9BA"/>
</g>
</g>
<defs>
<clipPath id="clip0_223_52">
<rect width="554" height="416" fill="white"/>
</clipPath>
<clipPath id="clip1_223_52">
<rect width="72" height="92" fill="white" transform="matrix(0 -1 1 0 440 228)"/>
</clipPath>
</defs>
</svg>
