<svg width="56" height="68" viewBox="0 0 56 68" fill="none" xmlns="http://www.w3.org/2000/svg">
<path d="M16.5962 1.42099L19.5052 6.71009C13.9517 9.48686 10.1171 14.776 10.1171 20.9907H45.8185C45.8185 14.776 41.9839 9.48686 36.4304 6.71009L39.3394 1.42099C39.3394 1.42099 39.6038 1.15653 39.0749 1.0243C38.8105 0.759849 38.6782 1.28876 38.6782 1.28876L35.5048 6.57786C32.9924 5.52004 30.3479 4.8589 27.7033 4.8589C25.0588 4.8589 22.282 5.38781 19.9019 6.57786L16.7285 1.28876C16.7285 1.28876 16.464 1.0243 16.3318 1.0243C16.464 1.15653 16.5962 1.42099 16.5962 1.42099ZM19.6375 11.7347C20.5631 11.7347 21.2242 12.5281 21.3564 13.4537C21.3564 14.3793 20.5631 15.0404 19.6375 15.1726C18.7119 15.1726 17.9185 14.5115 17.9185 13.5859C17.9185 12.5281 18.5797 11.7347 19.6375 11.7347ZM36.5626 11.7347C37.4882 11.7347 38.1493 12.5281 38.2815 13.4537C38.2815 14.3793 37.4882 15.0404 36.5626 15.1726C35.637 15.1726 34.8436 14.5115 34.8436 13.5859C34.8436 12.5281 35.637 11.7347 36.5626 11.7347ZM9.98486 22.9741V50.2129C9.98486 51.5352 11.7038 53.3864 12.8939 53.3864H17.1252V62.7746C17.1252 65.1547 18.8441 67.0058 20.9597 67.0058C23.0754 67.0058 24.7943 65.1547 24.7943 62.7746V53.3864H31.009V62.7746C31.009 65.1547 32.728 67.0058 34.8436 67.0058C36.9593 67.0058 38.6782 65.1547 38.6782 62.7746V53.3864H42.9095C44.2318 53.3864 45.8185 51.6674 45.8185 50.2129V22.9741H9.98486Z" fill="#A4C639"/>
<path d="M4.03455 22.4452C6.15019 22.4452 7.86915 24.2964 7.86915 26.6765V42.8082C7.86915 45.1883 6.15019 47.0395 4.03455 47.0395C1.91891 47.0395 0.199951 45.1883 0.199951 42.8082V26.6765C0.199951 24.2964 1.91891 22.4452 4.03455 22.4452Z" fill="#A4C639"/>
<path d="M52.1654 22.4452C54.281 22.4452 56 24.2964 56 26.6765V42.8082C56 45.1883 54.281 47.0395 52.1654 47.0395C50.0498 47.0395 48.3308 45.1883 48.3308 42.8082V26.6765C48.3308 24.2964 49.9175 22.4452 52.1654 22.4452Z" fill="#A4C639"/>
</svg>
