<svg width="424" height="424" viewBox="0 0 424 424" fill="none" xmlns="http://www.w3.org/2000/svg">
<g clip-path="url(#clip0_70_9676)">
<path d="M32.8091 361.96H397.491" stroke="#263238" stroke-linecap="round" stroke-linejoin="round"/>
<path d="M48 151C66.2254 132.774 66.2254 103.225 48 84.9998C29.7746 66.7744 0.225393 66.7744 -18 84.9998C-36.2254 103.225 -36.2254 132.774 -18 151C0.225393 169.225 29.7746 169.225 48 151Z" stroke="#47C2C9" stroke-miterlimit="10"/>
<path d="M15.0023 157.082C36.589 157.082 54.0885 139.582 54.0885 117.996C54.0885 96.4089 36.589 78.9094 15.0023 78.9094C-6.58448 78.9094 -24.084 96.4089 -24.084 117.996C-24.084 139.582 -6.58448 157.082 15.0023 157.082Z" stroke="#47C2C9" stroke-miterlimit="10"/>
<path d="M15.0026 149.488C32.3953 149.488 46.4949 135.388 46.4949 117.996C46.4949 100.603 32.3953 86.5032 15.0026 86.5032C-2.39015 86.5032 -16.4897 100.603 -16.4897 117.996C-16.4897 135.388 -2.39015 149.488 15.0026 149.488Z" stroke="#47C2C9" stroke-miterlimit="10"/>
<path d="M31.8989 134.898C41.2317 125.566 41.2317 110.434 31.8989 101.101C22.5661 91.7683 7.43455 91.7683 -1.89829 101.101C-11.2311 110.434 -11.2311 125.566 -1.89829 134.898C7.43455 144.231 22.5661 144.231 31.8989 134.898Z" stroke="#47C2C9" stroke-miterlimit="10"/>
<path d="M26.5361 129.536C32.9076 123.165 32.9076 112.835 26.5361 106.463C20.1647 100.092 9.83463 100.092 3.46322 106.463C-2.90819 112.835 -2.90819 123.165 3.46322 129.536C9.83463 135.908 20.1647 135.908 26.5361 129.536Z" stroke="#47C2C9" stroke-miterlimit="10"/>
<path d="M313.463 238.941V239.034C313.463 239.187 313.497 239.348 313.565 239.518C313.944 241.376 314.227 243.252 314.413 245.14C314.574 246.759 314.701 248.608 314.735 250.669C314.815 255.431 314.489 260.191 313.76 264.898C313.573 266.136 313.353 267.442 313.09 268.748C312.674 270.902 312.165 273.158 311.538 275.49C311.258 276.575 310.936 277.686 310.597 278.805L310.198 280.171C310.045 280.722 309.893 281.273 309.749 281.867C308.774 285.634 307.996 289.45 307.417 293.298C306.696 298.089 306.246 302.846 306.001 307.349C305.67 313.353 305.687 318.899 305.831 323.461C305.827 323.537 305.827 323.614 305.831 323.69C305.984 328.329 306.272 331.967 306.467 334.036C306.577 335.248 306.653 335.935 306.662 335.978" stroke="#263238" stroke-linecap="round" stroke-linejoin="round"/>
<path d="M313.489 239.06C312.219 237.931 310.689 237.136 309.037 236.745L313.489 239.06Z" fill="white"/>
<path d="M313.489 239.06C312.219 237.931 310.689 237.136 309.037 236.745" stroke="#263238" stroke-linecap="round" stroke-linejoin="round"/>
<path d="M314.438 245.165L316.694 243.122" stroke="#263238" stroke-linecap="round" stroke-linejoin="round"/>
<path d="M311.564 275.498C311.445 274.903 311.269 274.321 311.038 273.76C310.704 272.937 310.249 272.168 309.69 271.479C309.272 270.961 308.797 270.491 308.273 270.08" stroke="#263238" stroke-linecap="round" stroke-linejoin="round"/>
<path d="M309.757 281.858C310.077 281.066 310.556 280.348 311.164 279.749C311.772 279.149 312.497 278.681 313.293 278.373" stroke="#263238" stroke-linecap="round" stroke-linejoin="round"/>
<path d="M305.839 313.404C306.594 312.488 307.162 309.02 307.468 307.154C307.544 306.713 307.603 306.306 307.663 306.06" fill="white"/>
<path d="M305.839 313.404C306.594 312.488 307.162 309.02 307.468 307.154C307.544 306.713 307.603 306.306 307.663 306.06" stroke="#263238" stroke-linecap="round" stroke-linejoin="round"/>
<path d="M300.031 319.696C300.282 319.671 300.535 319.671 300.785 319.696C301.896 319.804 302.957 320.212 303.853 320.877C304.749 321.542 305.448 322.438 305.873 323.47" fill="white"/>
<path d="M300.031 319.696C300.282 319.671 300.535 319.671 300.785 319.696C301.896 319.804 302.957 320.212 303.853 320.877C304.749 321.542 305.448 322.438 305.873 323.47" stroke="#263238" stroke-linecap="round" stroke-linejoin="round"/>
<path d="M313.115 268.816C313.115 268.816 313.514 255.053 305.958 250.058" stroke="#263238" stroke-linecap="round" stroke-linejoin="round"/>
<path d="M313.76 298.318C314.752 301.532 307.824 307.646 307.824 307.646C307.824 307.646 298.674 306.501 297.648 303.296C296.622 300.09 298.971 294.816 303.414 293.459C307.858 292.102 312.802 295.104 313.76 298.318Z" fill="#47C2C9"/>
<path d="M321.468 259.369C320.62 262.761 314.04 265.195 314.04 265.195C314.04 265.195 309.52 259.912 310.368 256.503C311.216 253.094 314.871 249.346 317.94 250.135C321.01 250.923 322.35 255.96 321.468 259.369Z" fill="#47C2C9"/>
<path d="M295.188 310.309C299.301 311.903 301.82 319.179 301.82 319.179C301.82 319.179 295.036 322.834 290.931 321.231C286.827 319.628 282.452 315.117 283.639 312.107C284.826 309.096 291.076 308.672 295.188 310.309Z" fill="#47C2C9"/>
<path d="M304.203 270.283C305.035 270.983 305.99 271.524 307.018 271.877C307.535 272.045 308.087 272.066 308.615 271.941C309.143 271.815 309.626 271.547 310.012 271.165C310.86 270.156 310.656 268.621 310.105 267.358C309.003 264.941 304.949 260.828 301.837 262.007C297.343 263.728 302.202 268.816 304.203 270.283Z" fill="#47C2C9"/>
<path d="M313.404 276.448C312.81 277.177 312.183 278.102 312.513 278.992C312.698 279.366 313.001 279.669 313.375 279.853C313.749 280.037 314.174 280.092 314.583 280.01C315.396 279.817 316.155 279.443 316.804 278.916C318.39 277.813 321.646 275.524 319.569 273.344C317.491 271.165 314.608 274.913 313.404 276.448Z" fill="#47C2C9"/>
<path d="M300.132 245.691C299.79 245.711 299.463 245.838 299.196 246.054C298.93 246.27 298.738 246.564 298.648 246.895C298.513 247.684 299.166 248.371 299.793 248.854C301.371 250.075 306.111 253.348 307.162 250.185C308.163 247.2 302.219 245.462 300.132 245.691Z" fill="#47C2C9"/>
<path d="M308.859 235.295C307.883 235.388 306.908 235.032 305.924 235.091C304.941 235.151 303.864 235.939 304.076 236.906C304.288 237.873 305.382 238.085 306.281 238.136C307.828 238.235 309.382 238.129 310.902 237.822C311.262 237.788 311.596 237.618 311.835 237.347C312.234 236.762 311.606 235.982 310.928 235.778C310.231 235.685 309.546 235.521 308.884 235.286L308.859 235.295Z" fill="#47C2C9"/>
<path d="M318.407 242.019C319.382 242.019 320.332 241.629 321.315 241.621C322.299 241.612 323.435 242.333 323.274 243.317C323.113 244.3 322.062 244.58 321.163 244.69C319.626 244.894 318.069 244.894 316.533 244.69C316.169 244.682 315.822 244.533 315.566 244.275C315.133 243.724 315.71 242.901 316.363 242.647C317.054 242.518 317.729 242.31 318.373 242.028L318.407 242.019Z" fill="#47C2C9"/>
<path d="M317.44 314.286C317.665 314.052 317.965 313.904 318.288 313.87C318.506 313.891 318.71 313.987 318.865 314.142C319.019 314.297 319.115 314.5 319.136 314.718C319.183 315.137 319.131 315.561 318.983 315.956C318.314 318.187 310.851 334.29 309.13 331.399C308.121 329.703 310.614 324.029 311.351 322.427C312.759 319.299 314.838 316.52 317.44 314.286Z" fill="#47C2C9"/>
<path d="M313.802 239.984C313.802 239.984 313.353 236.075 314.294 235.744" stroke="#263238" stroke-linecap="round" stroke-linejoin="round"/>
<path d="M312.971 235.905C313.452 234.525 314.282 233.292 315.38 232.327C316.558 231.479 318.449 231.411 319.306 232.59C320.264 233.904 319.306 235.897 317.839 236.601C316.372 237.304 314.642 237.092 313.031 236.863C313.031 236.626 313.031 236.389 313.031 236.151L312.971 235.905Z" fill="#47C2C9"/>
<path d="M316.991 361.765C308.997 363.114 300.834 363.114 292.84 361.765L283.444 334.044H326.387L316.991 361.765Z" fill="white" stroke="#263238" stroke-linecap="round" stroke-linejoin="round"/>
<path d="M153.106 161.485V161.578C153.14 161.731 153.174 161.892 153.208 162.061C153.592 163.919 153.875 165.795 154.056 167.684C154.217 169.303 154.336 171.152 154.378 173.212C154.465 177.963 154.147 182.712 153.428 187.408C153.242 188.646 153.021 189.952 152.758 191.258C152.343 193.412 151.826 195.668 151.207 198C150.918 199.085 150.605 200.196 150.265 201.315C150.13 201.773 149.994 202.223 149.867 202.68C149.74 203.138 149.553 203.783 149.409 204.376C148.435 208.144 147.656 211.959 147.077 215.808C146.356 220.599 145.915 225.356 145.669 229.859C145.338 235.863 145.347 241.409 145.5 245.971V246.2C145.661 250.838 145.941 254.476 146.144 256.554C146.246 257.758 146.331 258.445 146.331 258.487" stroke="#263238" stroke-linecap="round" stroke-linejoin="round"/>
<path d="M153.123 161.603C152.515 161.071 151.849 160.607 151.139 160.221C150.355 159.808 149.524 159.495 148.663 159.288" fill="white"/>
<path d="M153.123 161.603C152.515 161.071 151.849 160.607 151.139 160.221C150.355 159.808 149.524 159.495 148.663 159.288" stroke="#263238" stroke-linecap="round" stroke-linejoin="round"/>
<path d="M154.073 167.709L156.337 165.665" stroke="#263238" stroke-linecap="round" stroke-linejoin="round"/>
<path d="M151.206 198.042C151.085 197.447 150.906 196.864 150.672 196.304C150.338 195.481 149.884 194.712 149.324 194.022C148.906 193.504 148.431 193.035 147.908 192.623" stroke="#263238" stroke-linecap="round" stroke-linejoin="round"/>
<path d="M149.4 204.368C149.717 203.576 150.194 202.857 150.801 202.257C151.408 201.658 152.132 201.19 152.928 200.883" stroke="#263238" stroke-linecap="round" stroke-linejoin="round"/>
<path d="M145.474 235.948C146.229 235.032 146.805 231.564 147.111 229.698C147.179 229.257 147.246 228.85 147.297 228.604" fill="white"/>
<path d="M145.474 235.948C146.229 235.032 146.805 231.564 147.111 229.698C147.179 229.257 147.246 228.85 147.297 228.604" stroke="#263238" stroke-linecap="round" stroke-linejoin="round"/>
<path d="M139.666 242.206C139.919 242.18 140.175 242.18 140.429 242.206C141.539 242.317 142.598 242.726 143.494 243.39C144.39 244.055 145.089 244.949 145.517 245.979" fill="white"/>
<path d="M139.666 242.206C139.919 242.18 140.175 242.18 140.429 242.206C141.539 242.317 142.598 242.726 143.494 243.39C144.39 244.055 145.089 244.949 145.517 245.979" stroke="#263238" stroke-linecap="round" stroke-linejoin="round"/>
<path d="M152.75 191.326C152.75 191.326 153.157 177.563 145.593 172.568" stroke="#263238" stroke-linecap="round" stroke-linejoin="round"/>
<path d="M153.437 220.862C154.42 224.076 147.501 230.19 147.501 230.19C147.501 230.19 138.342 229.045 137.325 225.839C136.307 222.634 138.656 217.359 143.091 216.003C147.526 214.646 152.445 217.656 153.437 220.862Z" fill="#47C2C9"/>
<path d="M161.12 181.913C160.272 185.305 153.691 187.739 153.691 187.739C153.691 187.739 149.121 182.456 150.003 179.047C150.885 175.638 154.497 171.89 157.567 172.678C160.637 173.467 161.968 178.504 161.12 181.913Z" fill="#47C2C9"/>
<path d="M134.832 232.852C138.945 234.455 141.472 241.723 141.472 241.723C141.472 241.723 134.688 245.377 130.575 243.775C126.462 242.172 122.095 237.661 123.291 234.65C124.486 231.64 130.711 231.25 134.832 232.852Z" fill="#47C2C9"/>
<path d="M143.846 192.827C144.676 193.527 145.627 194.067 146.653 194.421C147.169 194.588 147.722 194.61 148.25 194.485C148.778 194.359 149.261 194.091 149.647 193.709C150.495 192.7 150.291 191.165 149.74 189.901C148.637 187.484 144.592 183.372 141.472 184.55C136.986 186.255 141.836 191.343 143.846 192.827Z" fill="#47C2C9"/>
<path d="M153.039 199C152.453 199.729 151.826 200.696 152.148 201.544C152.333 201.918 152.635 202.221 153.01 202.405C153.384 202.589 153.808 202.644 154.217 202.562C155.031 202.37 155.791 201.996 156.439 201.468C158.025 200.374 161.281 198.076 159.204 195.896C157.126 193.717 154.285 197.457 153.039 199Z" fill="#47C2C9"/>
<path d="M139.767 168.235C139.425 168.256 139.098 168.383 138.832 168.599C138.566 168.815 138.374 169.109 138.283 169.439C138.148 170.228 138.8 170.914 139.436 171.398C141.014 172.619 145.746 175.892 146.806 172.729C147.798 169.744 141.862 168.006 139.767 168.235Z" fill="#47C2C9"/>
<path d="M148.493 157.838C147.518 157.932 146.542 157.576 145.567 157.635C144.592 157.694 143.498 158.483 143.719 159.45C143.939 160.416 145.016 160.628 145.923 160.679C147.468 160.778 149.019 160.673 150.537 160.365C150.899 160.332 151.235 160.162 151.478 159.891C151.868 159.305 151.24 158.525 150.57 158.322C149.871 158.229 149.183 158.065 148.518 157.83L148.493 157.838Z" fill="#47C2C9"/>
<path d="M158.041 164.563C159.025 164.563 159.975 164.173 160.95 164.164C161.925 164.156 163.07 164.877 162.917 165.86C162.765 166.844 161.696 167.124 160.797 167.234C159.261 167.438 157.704 167.438 156.167 167.234C155.803 167.226 155.457 167.077 155.201 166.819C154.768 166.267 155.345 165.445 156.006 165.19C156.697 165.059 157.371 164.851 158.016 164.571L158.041 164.563Z" fill="#47C2C9"/>
<path d="M157.075 236.83C157.301 236.596 157.6 236.449 157.923 236.414C158.139 236.439 158.34 236.537 158.494 236.691C158.648 236.845 158.746 237.046 158.771 237.262C158.815 237.682 158.76 238.106 158.61 238.5C157.948 240.73 150.478 256.834 148.765 253.942C147.747 252.246 150.24 246.573 150.978 244.97C152.388 241.842 154.47 239.063 157.075 236.83Z" fill="#47C2C9"/>
<path d="M153.437 162.545C153.437 162.545 152.987 158.635 153.937 158.305" stroke="#263238" stroke-linecap="round" stroke-linejoin="round"/>
<path d="M152.64 158.449C153.114 157.065 153.945 155.831 155.048 154.87C156.227 154.022 158.109 153.954 158.966 155.133C159.924 156.448 158.966 158.44 157.499 159.144C156.032 159.848 154.31 159.636 152.699 159.407C152.699 159.17 152.699 158.932 152.699 158.695L152.64 158.449Z" fill="#47C2C9"/>
<path d="M45.665 255.223V171.432" stroke="#263238" stroke-linecap="round" stroke-linejoin="round"/>
<path d="M307.273 255.222H296.919" stroke="#263238" stroke-linecap="round" stroke-linejoin="round"/>
<path d="M388.469 255.222H367.379" stroke="#263238" stroke-linecap="round" stroke-linejoin="round"/>
<path d="M295.969 127.929H333.341V92.3301" stroke="#263238" stroke-linecap="round" stroke-linejoin="round"/>
<path d="M78.1519 117.058H117.855V146.017H161.375" stroke="#263238" stroke-linecap="round" stroke-linejoin="round"/>
<path d="M54.73 215.129V151.139" stroke="#263238" stroke-linecap="round" stroke-linejoin="round"/>
<path d="M72.4702 123.367V173.518" stroke="#263238" stroke-linecap="round" stroke-linejoin="round"/>
<path d="M90.2021 123.367V167.7" stroke="#263238" stroke-linecap="round" stroke-linejoin="round"/>
<path d="M107.934 123.367V200.917" stroke="#263238" stroke-linecap="round" stroke-linejoin="round"/>
<path d="M192.878 112.368V61.3782H265.068V112.368" stroke="#263238" stroke-linecap="round" stroke-linejoin="round"/>
<path d="M198.169 86.7079V67.4329H211.517" stroke="#263238" stroke-linecap="round" stroke-linejoin="round"/>
<path d="M214.451 86.7079V67.4329H227.799" stroke="#263238" stroke-linecap="round" stroke-linejoin="round"/>
<path d="M230.732 86.7079V67.4329H244.08" stroke="#263238" stroke-linecap="round" stroke-linejoin="round"/>
<path d="M247.014 86.7079V67.4329H260.362" stroke="#263238" stroke-linecap="round" stroke-linejoin="round"/>
<path d="M198.169 112.368V93.0933H211.517" stroke="#263238" stroke-linecap="round" stroke-linejoin="round"/>
<path d="M214.451 112.368V93.0933H227.799" stroke="#263238" stroke-linecap="round" stroke-linejoin="round"/>
<path d="M230.732 112.368V93.0933H244.08" stroke="#263238" stroke-linecap="round" stroke-linejoin="round"/>
<path d="M247.014 112.368V93.0933H260.362" stroke="#263238" stroke-linecap="round" stroke-linejoin="round"/>
<path d="M339.124 96.7397V160.637" stroke="#263238" stroke-linecap="round" stroke-linejoin="round"/>
<path d="M365.335 250.542H367.379" stroke="#263238" stroke-linecap="round" stroke-linejoin="round"/>
<path d="M354.837 115.091V186.628" stroke="#263238" stroke-linecap="round" stroke-linejoin="round"/>
<path d="M370.559 232.276V250.542H383.101" stroke="#263238" stroke-linecap="round" stroke-linejoin="round"/>
<path d="M370.559 138.41V186.992" stroke="#263238" stroke-linecap="round" stroke-linejoin="round"/>
<path d="M386.273 175.273V250.541H389.131" stroke="#263238" stroke-linecap="round" stroke-linejoin="round"/>
<path d="M194.777 256.757H32.8091V361.96H194.777V256.757Z" fill="white" stroke="#263238" stroke-linecap="round" stroke-linejoin="round"/>
<path d="M32.8091 256.757L113.793 309.359L194.777 256.757H32.8091Z" fill="white" stroke="#263238" stroke-linecap="round" stroke-linejoin="round"/>
<path d="M89.447 293.543L32.8091 361.96" stroke="#263238" stroke-linecap="round" stroke-linejoin="round"/>
<path d="M138.58 293.543L195.218 361.96" stroke="#263238" stroke-linecap="round" stroke-linejoin="round"/>
<path d="M281.451 122.519H243.8C242.716 122.52 241.652 122.812 240.718 123.364C239.784 123.915 239.016 124.707 238.492 125.656C237.566 127.326 236.211 128.718 234.566 129.687C232.922 130.656 231.047 131.167 229.138 131.167C227.229 131.167 225.355 130.656 223.71 129.687C222.065 128.718 220.71 127.326 219.785 125.656C219.265 124.695 218.495 123.892 217.556 123.332C216.617 122.772 215.544 122.476 214.451 122.476H176.842C175.81 122.463 174.785 122.653 173.826 123.036C172.867 123.418 171.993 123.986 171.254 124.707C170.514 125.427 169.924 126.286 169.517 127.235C169.109 128.184 168.893 129.203 168.879 130.236V342.592C168.908 344.676 169.763 346.664 171.256 348.118C172.749 349.573 174.758 350.376 176.842 350.351H281.451C283.536 350.376 285.546 349.573 287.041 348.119C288.535 346.664 289.391 344.677 289.423 342.592V130.278C289.394 128.192 288.538 126.204 287.043 124.749C285.548 123.294 283.537 122.492 281.451 122.519Z" fill="#47C2C9"/>
<path d="M293.094 127.929C293.099 126.499 292.821 125.081 292.277 123.759C291.732 122.436 290.932 121.233 289.922 120.22C288.912 119.207 287.712 118.403 286.391 117.855C285.07 117.306 283.654 117.024 282.223 117.024H176.079C174.652 117.023 173.238 117.303 171.919 117.848C170.6 118.394 169.402 119.194 168.392 120.203C167.383 121.211 166.582 122.409 166.035 123.728C165.489 125.046 165.208 126.46 165.208 127.887V351.072C165.208 353.953 166.352 356.716 168.389 358.753C170.426 360.79 173.189 361.935 176.07 361.935H282.223C285.105 361.935 287.869 360.791 289.907 358.754C291.946 356.717 293.092 353.954 293.094 351.072V127.929ZM289.423 342.592C289.391 344.677 288.535 346.664 287.04 348.119C285.546 349.573 283.536 350.376 281.451 350.351H176.842C174.758 350.376 172.749 349.573 171.256 348.118C169.763 346.664 168.908 344.676 168.879 342.592V130.278C168.893 129.246 169.109 128.226 169.516 127.278C169.924 126.329 170.514 125.47 171.254 124.749C171.993 124.029 172.867 123.461 173.826 123.078C174.785 122.696 175.81 122.506 176.842 122.519H214.468C215.56 122.519 216.632 122.814 217.569 123.374C218.507 123.934 219.276 124.737 219.793 125.699C220.719 127.369 222.074 128.76 223.719 129.73C225.363 130.699 227.238 131.21 229.147 131.21C231.056 131.21 232.93 130.699 234.575 129.73C236.22 128.76 237.575 127.369 238.5 125.699C239.023 124.748 239.791 123.956 240.725 123.404C241.659 122.852 242.724 122.561 243.809 122.561H281.46C282.492 122.548 283.517 122.738 284.476 123.121C285.435 123.503 286.309 124.071 287.048 124.792C287.788 125.512 288.378 126.371 288.785 127.32C289.193 128.269 289.409 129.288 289.423 130.321V342.592Z" fill="#263238"/>
<path opacity="0.2" d="M257.029 117.058L186.518 361.952L214.519 361.926L282.418 117.058H257.029Z" fill="white"/>
<path opacity="0.2" d="M246.514 117.058L171.966 361.96L176.045 361.935L249.194 117.058H246.514Z" fill="white"/>
<path d="M248.167 299.115C248.22 301.542 247.785 303.956 246.89 306.213C245.995 308.47 244.658 310.525 242.957 312.257C241.255 313.989 239.224 315.364 236.984 316.299C234.743 317.234 232.338 317.712 229.91 317.703C224.956 317.684 220.205 315.73 216.672 312.257C213.139 308.784 211.104 304.068 211 299.115C210.949 296.688 211.384 294.276 212.279 292.02C213.175 289.764 214.512 287.71 216.214 285.978C217.915 284.247 219.945 282.874 222.185 281.939C224.425 281.004 226.83 280.527 229.257 280.535C234.21 280.552 238.961 282.504 242.494 285.976C246.027 289.447 248.063 294.163 248.167 299.115Z" fill="white" stroke="#263238" stroke-linecap="round" stroke-linejoin="round"/>
<path d="M223.491 312.988C221.765 312.35 220.182 311.376 218.835 310.122C217.477 308.817 216.426 307.227 215.757 305.466C214.995 303.493 214.618 301.392 214.646 299.276C214.635 297.472 214.954 295.682 215.587 293.993C216.163 292.433 217.026 290.995 218.131 289.753C220.311 287.369 223.127 285.656 226.247 284.818C227.778 284.405 229.358 284.197 230.945 284.199C232.262 284.193 233.575 284.349 234.854 284.665C236.088 284.968 237.269 285.457 238.356 286.115C239.433 286.762 240.398 287.578 241.214 288.532C242.065 289.561 242.715 290.74 243.13 292.009C243.606 293.456 243.841 294.971 243.826 296.495C243.808 299.439 242.747 302.281 240.832 304.517C240.009 305.45 239.034 306.239 237.949 306.849C237.014 307.385 235.958 307.677 234.879 307.697C234.135 307.707 233.408 307.471 232.81 307.027C232.51 306.805 232.266 306.516 232.097 306.183C231.928 305.851 231.838 305.483 231.835 305.11C231.279 305.956 230.515 306.646 229.617 307.113C228.719 307.581 227.717 307.811 226.705 307.782C225.908 307.817 225.115 307.674 224.381 307.363C223.647 307.052 222.992 306.581 222.465 305.984C221.406 304.753 220.846 303.171 220.896 301.549C220.903 300.213 221.135 298.889 221.583 297.631C222.028 296.363 222.66 295.169 223.457 294.086C224.251 293.023 225.263 292.141 226.425 291.5C227.586 290.844 228.898 290.502 230.232 290.508C231.16 290.498 232.075 290.72 232.895 291.152C233.691 291.577 234.337 292.237 234.744 293.043L234.913 292.475C235.048 292.077 235.336 291.749 235.713 291.563C236.09 291.377 236.525 291.348 236.923 291.483C237.077 291.535 237.223 291.61 237.355 291.703C237.482 291.804 237.582 291.934 237.649 292.081C237.715 292.229 237.745 292.39 237.737 292.551C237.737 292.71 237.712 292.868 237.661 293.018L234.913 302.159C234.671 302.856 234.514 303.579 234.447 304.313C234.422 304.45 234.43 304.591 234.473 304.724C234.515 304.857 234.589 304.977 234.689 305.074C234.789 305.172 234.911 305.243 235.045 305.282C235.178 305.32 235.32 305.326 235.456 305.297C236.428 305.235 237.339 304.8 238 304.084C238.916 303.179 239.62 302.081 240.061 300.87C240.587 299.548 240.857 298.138 240.858 296.715C240.869 295.462 240.686 294.215 240.315 293.018C240.003 291.986 239.509 291.018 238.856 290.16C238.238 289.379 237.489 288.71 236.643 288.184C235.8 287.652 234.878 287.254 233.913 287.006C232.922 286.745 231.901 286.614 230.877 286.615C229.577 286.617 228.284 286.8 227.035 287.158C225.749 287.523 224.523 288.074 223.397 288.795C222.262 289.511 221.234 290.385 220.345 291.39C219.428 292.448 218.715 293.667 218.242 294.985C217.709 296.42 217.442 297.94 217.453 299.471C217.425 301.284 217.754 303.085 218.42 304.771C218.994 306.231 219.9 307.537 221.065 308.587C222.192 309.565 223.492 310.321 224.898 310.817C226.382 311.342 227.946 311.606 229.52 311.598C231.202 311.598 232.875 311.343 234.481 310.843C234.641 310.785 234.811 310.756 234.981 310.758C235.14 310.756 235.298 310.787 235.444 310.85C235.59 310.912 235.721 311.005 235.829 311.123C235.937 311.235 236.022 311.368 236.079 311.514C236.136 311.659 236.163 311.814 236.16 311.971C236.18 312.217 236.111 312.463 235.964 312.662C235.818 312.862 235.604 313.002 235.363 313.056C233.361 313.668 231.282 313.988 229.189 314.006C227.245 314.003 225.316 313.659 223.491 312.988ZM230.495 304.194C231.334 303.593 231.955 302.736 232.267 301.752L234.04 295.519L233.921 295.265C233.811 295.061 233.677 294.87 233.523 294.697C233.31 294.452 233.077 294.225 232.827 294.018C232.509 293.765 232.151 293.567 231.767 293.433C230.764 293.083 229.665 293.122 228.689 293.544C228.154 293.77 227.663 294.089 227.239 294.485C226.798 294.897 226.405 295.358 226.069 295.859C225.732 296.38 225.448 296.934 225.221 297.512C224.982 298.09 224.798 298.689 224.669 299.302C224.541 299.884 224.476 300.478 224.474 301.074C224.467 301.457 224.49 301.839 224.542 302.219C224.581 302.556 224.655 302.889 224.763 303.211C224.856 303.511 224.99 303.796 225.161 304.059C225.315 304.296 225.51 304.503 225.738 304.669C225.981 304.845 226.254 304.975 226.543 305.051C226.882 305.15 227.234 305.196 227.587 305.187C228.647 305.2 229.683 304.86 230.529 304.22L230.495 304.194Z" fill="#47C2C9" stroke="#263238" stroke-linecap="round" stroke-linejoin="round"/>
<path d="M247.752 235.405C247.803 237.831 247.368 240.244 246.472 242.5C245.577 244.756 244.239 246.81 242.538 248.541C240.837 250.273 238.806 251.646 236.566 252.581C234.326 253.516 231.922 253.993 229.494 253.984C224.541 253.968 219.791 252.015 216.257 248.544C212.724 245.072 210.688 240.357 210.584 235.405C210.531 232.977 210.964 230.563 211.859 228.306C212.753 226.048 214.091 223.992 215.792 222.26C217.494 220.528 219.525 219.153 221.766 218.218C224.007 217.284 226.413 216.807 228.841 216.817C233.795 216.835 238.546 218.79 242.079 222.263C245.612 225.735 247.648 230.452 247.752 235.405Z" fill="white" stroke="#263238" stroke-linecap="round" stroke-linejoin="round"/>
<path d="M240.832 233.709C235.007 229.893 223.584 229.893 218.03 233.709C217.014 233.899 216.1 234.448 215.456 235.256C214.811 236.064 214.479 237.077 214.519 238.11C214.604 240.577 224.856 240.577 224.771 238.11C224.721 237.078 224.327 236.093 223.652 235.311C227.497 234.48 231.475 234.48 235.32 235.311C234.695 236.107 234.37 237.098 234.404 238.11C234.489 240.577 244.742 240.577 244.648 238.11C244.6 237.054 244.197 236.045 243.505 235.246C242.812 234.448 241.871 233.906 240.832 233.709Z" fill="#47C2C9" stroke="#263238" stroke-linecap="round" stroke-linejoin="round"/>
<path d="M247.752 173.518C247.854 178.088 245.36 182.176 241.358 184.898V195.998L233.395 188.027C232.108 188.257 230.802 188.371 229.494 188.366C219.234 188.366 210.762 181.718 210.584 173.518C210.406 165.318 218.572 158.678 228.841 158.678C239.111 158.678 247.616 165.36 247.752 173.518Z" fill="white" stroke="#263238" stroke-linecap="round" stroke-linejoin="round"/>
<path d="M221.252 173.518C221.253 173.994 221.114 174.461 220.85 174.858C220.586 175.255 220.211 175.565 219.771 175.749C219.331 175.932 218.846 175.981 218.379 175.889C217.911 175.797 217.481 175.569 217.143 175.232C216.806 174.896 216.576 174.467 216.482 173.999C216.388 173.532 216.436 173.047 216.618 172.607C216.8 172.166 217.108 171.789 217.505 171.524C217.901 171.259 218.367 171.118 218.843 171.118C219.481 171.118 220.092 171.37 220.543 171.82C220.995 172.27 221.249 172.881 221.252 173.518Z" fill="#47C2C9" stroke="#263238" stroke-linecap="round" stroke-linejoin="round"/>
<path d="M231.555 173.518C231.557 173.994 231.417 174.461 231.153 174.858C230.89 175.255 230.514 175.565 230.074 175.749C229.634 175.932 229.15 175.981 228.682 175.889C228.214 175.797 227.784 175.569 227.447 175.232C227.109 174.896 226.879 174.467 226.785 173.999C226.692 173.532 226.739 173.047 226.921 172.607C227.103 172.166 227.411 171.789 227.808 171.524C228.204 171.259 228.67 171.118 229.147 171.118C229.784 171.118 230.395 171.37 230.847 171.82C231.298 172.27 231.553 172.881 231.555 173.518Z" fill="#47C2C9" stroke="#263238" stroke-linecap="round" stroke-linejoin="round"/>
<path d="M241.858 173.518C241.86 173.994 241.72 174.461 241.456 174.858C241.193 175.255 240.817 175.565 240.377 175.749C239.937 175.932 239.453 175.981 238.985 175.889C238.517 175.797 238.088 175.569 237.75 175.232C237.412 174.896 237.182 174.467 237.088 173.999C236.995 173.532 237.042 173.047 237.224 172.607C237.406 172.166 237.715 171.789 238.111 171.524C238.507 171.259 238.973 171.118 239.45 171.118C240.087 171.118 240.698 171.37 241.15 171.82C241.601 172.27 241.856 172.881 241.858 173.518Z" fill="#47C2C9" stroke="#263238" stroke-linecap="round" stroke-linejoin="round"/>
<path d="M125.334 207.361C125.033 207.921 124.599 208.399 124.071 208.752C120.159 211.873 116.156 214.866 112.063 217.732C110.562 218.784 109.002 219.869 107.552 221.048C98.8343 226.882 104.16 228.307 98.8343 240.654C97.5792 243.605 97.8082 258.063 97.8082 258.063H97.3757C96.3549 257.056 95.2701 256.115 94.1279 255.248C93.9701 255.142 93.8058 255.045 93.636 254.96C93.4768 254.878 93.3047 254.823 93.1272 254.799C92.2792 254.748 89.0484 255.138 85.7836 254.926L84.9356 254.858C84.4607 254.807 83.9943 254.748 83.5279 254.663C83.0615 254.578 82.612 254.485 82.1796 254.366C79.0813 253.373 76.0432 252.2 73.0805 250.855L71.605 250.219L70.8757 249.906L70.2143 249.617L69.7394 249.414L69.2815 249.219C68.5098 248.896 67.789 248.6 67.1276 248.371C66.8244 248.262 66.5159 248.169 66.2032 248.091C66.2032 248.786 66.093 249.499 65.9997 250.194C65.5927 253.51 64.6853 256.571 63.0657 256.978C63.0323 256.987 62.9973 256.987 62.9639 256.978C62.8212 257.005 62.6765 257.019 62.5314 257.02H62.4042C62.0454 257.013 61.6902 256.947 61.3527 256.825C59.8827 256.198 58.6815 255.072 57.9607 253.645C57.6386 253.044 57.4587 252.377 57.4349 251.695C57.4349 249.227 56.748 234.667 56.748 230.427C56.748 226.187 57.5961 218.767 59.7076 216.011C60.5328 214.843 61.5749 213.844 62.7773 213.068C64.3245 211.779 66.099 210.789 68.0095 210.151C70.2652 209.414 75.3108 207.531 78.83 206.2L73.513 208.252C74.8613 210.558 77.753 214.188 82.9682 214.654C87.8696 215.07 90.9055 210.635 92.4573 207.395C92.593 207.446 101.124 205.827 103.1 205.92C109.536 206.2 114.785 202.714 117.16 201.332C117.876 200.904 118.679 200.644 119.51 200.57C120.342 200.496 121.178 200.611 121.959 200.906C122.739 201.202 123.443 201.669 124.017 202.275C124.591 202.88 125.021 203.607 125.275 204.402V204.478C125.646 205.4 125.667 206.425 125.334 207.361Z" fill="#47C2C9" stroke="#263238" stroke-linecap="round" stroke-linejoin="round"/>
<path d="M92.3642 207.446L91.9741 207.311" stroke="#263238" stroke-linecap="round" stroke-linejoin="round"/>
<path d="M99.5975 261.795C99.6016 261.828 99.6016 261.862 99.5975 261.896C99.5631 261.978 99.5107 262.051 99.4442 262.11C99.3777 262.169 99.2988 262.213 99.2134 262.237C99.1279 262.261 99.038 262.266 98.9504 262.251C98.8628 262.236 98.7797 262.202 98.7071 262.151C98.3171 261.93 97.715 260.514 97.715 260.514L97.0451 259.819L96.6041 259.352C96.6719 259.522 97.2062 260.819 96.9263 261.421C96.9121 261.463 96.8889 261.5 96.8585 261.532C96.6711 261.782 96.4279 261.985 96.1482 262.125C95.8685 262.265 95.56 262.338 95.2473 262.337C94.8826 262.337 93.8142 262.464 92.8814 262.524H92.7796C92.4972 262.539 92.2141 262.539 91.9316 262.524C91.1787 262.427 90.4524 262.182 89.7946 261.803C88.3029 261.584 86.8331 261.235 85.402 260.76L85.1476 260.624L84.9186 260.489C84.7681 260.398 84.6287 260.29 84.5031 260.166C83.9864 259.736 83.5475 259.219 83.2057 258.64C83.2057 258.64 79.7628 258.496 75.1412 258.14C73.4452 258.012 71.6135 257.851 69.714 257.665C66.7969 257.368 64.3886 257.385 62.4975 257.122H62.3619C61.9887 257.071 61.6411 257.003 61.3103 256.927C60.5032 256.769 59.757 256.387 59.157 255.825C58.5571 255.262 58.1278 254.542 57.9183 253.747C57.8073 253.371 57.7167 252.988 57.647 252.602L59.1225 250.058C59.8915 249.441 60.7492 248.944 61.6665 248.583C63.0897 247.987 64.6612 247.842 66.1694 248.167C66.482 248.245 66.7905 248.338 67.0937 248.447C67.7551 248.701 68.4759 248.998 69.2476 249.295L69.714 249.49L70.1889 249.694L70.8503 249.982C74.6239 251.542 79.1268 253.552 82.1372 254.4C83.0414 254.637 83.963 254.801 84.8932 254.892L85.7412 254.96C89.006 255.172 92.2284 254.782 93.0849 254.832C93.9414 254.883 96.0359 256.876 97.3758 258.106C97.7404 258.445 98.0626 258.725 98.2831 258.894L98.3849 258.979L98.4612 259.047C98.9469 259.545 99.287 260.167 99.4449 260.845C99.5116 261.072 99.5571 261.305 99.5806 261.54C99.596 261.624 99.6017 261.709 99.5975 261.795Z" fill="white" stroke="#263238" stroke-linecap="round" stroke-linejoin="round"/>
<path d="M99.5973 261.795C99.6014 261.828 99.6014 261.863 99.5973 261.896C99.5621 261.978 99.509 262.05 99.4422 262.108C99.3753 262.166 99.2963 262.208 99.2109 262.232C99.1255 262.256 99.036 262.26 98.9488 262.244C98.8615 262.229 98.7789 262.194 98.707 262.142C98.2876 261.656 97.9523 261.102 97.7148 260.506L97.0449 259.819L96.6039 259.361C96.6633 259.497 97.2145 260.819 96.9346 261.43C96.9204 261.471 96.8972 261.509 96.8668 261.54C96.7728 261.665 96.6646 261.779 96.5445 261.879C96.1789 262.173 95.7246 262.335 95.2556 262.337C94.8825 262.337 93.8225 262.456 92.8982 262.524H92.7794C92.497 262.54 92.2139 262.54 91.9314 262.524C91.1831 262.424 90.4607 262.182 89.803 261.812C88.3112 261.588 86.8415 261.236 85.4103 260.76L85.1644 260.641L84.9354 260.506C84.7888 260.409 84.6499 260.301 84.5199 260.183C83.9956 259.749 83.5508 259.227 83.2055 258.64C83.2055 258.64 79.8644 258.496 75.3361 258.148C73.6401 258.021 71.6812 257.851 69.7138 257.656C67.0341 257.393 64.8209 257.317 63.0316 257.037L62.4804 256.936L61.8444 256.791C61.6978 255.752 61.8054 254.693 62.1582 253.705C62.4869 252.871 62.9966 252.12 63.6507 251.507C64.3047 250.894 65.0867 250.434 65.9402 250.16C66.9995 249.771 68.0847 249.456 69.1881 249.219L69.646 249.414L70.1209 249.617L70.7823 249.906C74.6238 251.559 79.0757 253.561 82.0946 254.383C82.9981 254.621 83.9201 254.783 84.8506 254.866L85.6986 254.934C88.9634 255.155 92.1858 254.765 93.0423 254.816C93.8988 254.866 95.9849 256.851 97.2823 258.08C97.5767 258.362 97.8852 258.628 98.2066 258.877L98.3084 258.954L98.3847 259.022C98.8797 259.513 99.2214 260.138 99.3684 260.819C99.4351 261.046 99.4805 261.279 99.5041 261.515C99.5475 261.603 99.5788 261.698 99.5973 261.795Z" fill="white" stroke="#263238" stroke-linecap="round" stroke-linejoin="round"/>
<path d="M89.4468 259.539C89.4468 259.539 91.3717 260.54 92.1349 260.887C92.8981 261.235 92.8303 262.634 92.8303 262.634" fill="white"/>
<path d="M89.4468 259.539C89.4468 259.539 91.3717 260.54 92.1349 260.887C92.8981 261.235 92.8303 262.634 92.8303 262.634" stroke="#263238" stroke-linecap="round" stroke-linejoin="round"/>
<path d="M91.5078 258.182C92.7188 259.046 93.8849 259.972 95.0016 260.955C95.1647 261.147 95.271 261.38 95.3085 261.629C95.3459 261.877 95.3131 262.132 95.2136 262.363" fill="white"/>
<path d="M91.5078 258.182C92.7188 259.046 93.8849 259.972 95.0016 260.955C95.1647 261.147 95.271 261.38 95.3085 261.629C95.3459 261.877 95.3131 262.132 95.2136 262.363" stroke="#263238" stroke-linecap="round" stroke-linejoin="round"/>
<path d="M96.5784 259.344C95.5751 258.269 94.5135 257.25 93.3984 256.291L96.5784 259.344Z" fill="white"/>
<path d="M96.5784 259.344C95.5751 258.269 94.5135 257.25 93.3984 256.291" stroke="#263238" stroke-linecap="round" stroke-linejoin="round"/>
<path d="M92.3558 207.463C90.8209 210.694 87.7766 215.095 82.8751 214.714C77.6854 214.273 74.7682 210.618 73.4199 208.303C75.2855 207.59 77.1766 206.861 78.7284 206.251C78.7284 204.673 78.6775 202.782 78.5079 200.908C78.5079 200.501 78.4231 200.06 78.3807 199.679C78.3383 199.297 78.2874 199.026 78.2366 198.712H88.0988C88.0988 198.712 88.0394 199.102 87.9631 199.755C87.9038 200.34 87.8274 201.12 87.7681 202.002C87.6918 203.172 87.6409 204.546 87.6748 205.844C88.1497 206.005 88.633 206.183 89.1164 206.369L90.0492 206.692C90.4223 206.827 90.787 206.946 91.177 207.073L92.025 207.328C92.138 207.366 92.2485 207.411 92.3558 207.463Z" fill="white" stroke="#263238" stroke-linecap="round" stroke-linejoin="round"/>
<path d="M78.3804 199.645C78.3804 199.645 80.2205 204.428 82.8917 205.242C85.5629 206.056 87.9797 199.755 87.9797 199.755C87.9797 199.755 84.2146 203.775 82.8154 203.147C81.4162 202.519 78.3973 199.679 78.3973 199.679" fill="#263238"/>
<path d="M76.7948 173.23C74.3027 175.473 72.3267 178.23 71.0029 181.311C69.7903 183.855 68.7642 186.781 69.697 189.443C70.2552 190.765 71.0449 191.977 72.029 193.022C73.8607 195.218 76.4301 201.349 78.2618 203.546C78.3805 199.636 75.1073 193.319 75.4549 190.037C75.876 187.502 76.7096 185.052 77.9226 182.787C79.1562 179.815 80.7695 177.016 82.7223 174.459C83.8332 173.119 87.4033 170.736 83.7993 170.448C81.4079 170.253 78.601 171.746 76.7948 173.23Z" fill="#263238" stroke="#263238" stroke-linecap="round" stroke-linejoin="round"/>
<path d="M74.4882 186.56C74.4882 186.56 73.2247 184.109 71.8933 186.433C70.9351 188.129 72.3173 190.8 72.9109 191.792C73.1079 192.075 73.3747 192.301 73.6853 192.45C73.9959 192.598 74.3397 192.664 74.6832 192.64L74.4882 186.56Z" fill="white" stroke="#263238" stroke-linecap="round" stroke-linejoin="round"/>
<path d="M91.0921 195.413C90.2818 197.015 89.226 198.48 87.963 199.755L87.1998 200.544C85.6225 202.104 83.9181 203.342 82.7987 203.088C81.8235 202.893 80.5515 201.892 79.3049 200.611C78.9912 200.298 78.6859 199.958 78.3806 199.619C77.0234 198.134 75.8581 196.485 74.9123 194.709C74.6496 194.043 74.4812 193.344 74.412 192.632C74.198 190.508 74.1244 188.372 74.1915 186.238C74.1915 185.483 74.1915 184.881 74.1915 184.542C74.1915 183.066 79.7205 177.936 79.7205 177.936C79.8695 177.881 80.0296 177.864 80.1869 177.885C81.1378 178.058 82.0543 178.385 82.9005 178.852C86.2501 180.48 90.9225 183.711 91.2617 184.94C91.779 186.73 91.584 193.819 91.0921 195.413Z" fill="white" stroke="#263238" stroke-linecap="round" stroke-linejoin="round"/>
<path d="M80.1106 188.612C80.1106 189.206 79.8901 189.689 79.6442 189.689C79.3983 189.689 79.1523 189.223 79.1523 188.612C79.1523 188.002 79.3728 187.518 79.6442 187.518C79.9155 187.518 80.1106 188.019 80.1106 188.612Z" fill="#263238"/>
<path d="M86.4279 187.527C86.6992 187.527 86.9197 188.01 86.9197 188.612C86.9197 189.214 86.6992 189.689 86.4279 189.689C86.1565 189.689 85.936 189.206 85.936 188.612C85.936 188.019 86.1565 187.527 86.4279 187.527Z" fill="#263238"/>
<path d="M76.9561 185.941C76.9561 185.941 77.8041 184.245 80.806 184.762" stroke="#263238" stroke-linecap="round" stroke-linejoin="round"/>
<path d="M89.2181 185.941C89.2181 185.941 88.3701 184.245 85.3682 184.762" stroke="#263238" stroke-linecap="round" stroke-linejoin="round"/>
<path d="M83.6636 192.759C83.9686 192.74 84.2593 192.623 84.4929 192.426C84.7266 192.229 84.8907 191.962 84.961 191.665C84.961 191.665 83.3159 189.121 83.8162 186.628" stroke="#263238" stroke-linecap="round" stroke-linejoin="round"/>
<path d="M73.42 180.624C72.7367 181.551 72.2202 182.59 71.8936 183.694" stroke="white" stroke-linecap="round" stroke-linejoin="round"/>
<path d="M80.5089 173.84C80.5089 173.84 79.5676 175.4 75.4209 178.58C75.1537 178.773 74.8988 178.983 74.6577 179.208" stroke="white" stroke-linecap="round" stroke-linejoin="round"/>
<path d="M67.2126 223.558C66.6473 231.62 66.0819 239.687 65.5166 247.76V247.141" fill="#263238"/>
<path d="M67.2126 223.558C66.6473 231.62 66.0819 239.687 65.5166 247.76V247.141" stroke="#263238" stroke-linecap="round" stroke-linejoin="round"/>
<path d="M120.781 196.94C121.547 196.64 122.375 196.533 123.193 196.628C124.01 196.722 124.792 197.016 125.47 197.482C126.823 198.44 127.807 199.832 128.26 201.426C128.801 203.013 128.746 204.743 128.107 206.293C127.777 207.057 127.245 207.717 126.568 208.203C125.892 208.688 125.096 208.981 124.266 209.049C123.029 209.033 121.834 208.6 120.874 207.819C117.702 205.445 116.117 198.949 120.781 196.94Z" fill="white" stroke="#263238" stroke-linecap="round" stroke-linejoin="round"/>
<path d="M127.802 169.863C127.802 169.965 127.802 170.635 127.861 170.753C128.158 172.059 128.786 175.324 127.2 175.986C127.802 178.131 129.277 192.148 129.082 199.297C129.031 201.434 128.658 203.97 126.742 204.885C123.511 206.42 120.441 202.681 120.806 199.755C121.374 195.761 121.179 191.69 121.654 187.654C122.171 183.465 123.121 179.174 122.078 175.078C121.823 174.798 120.195 171.567 119.661 170.677C119.421 170.297 119.233 169.886 119.101 169.456C118.893 167.993 118.791 166.516 118.796 165.038C119.279 164.122 119.907 164.97 120.238 165.572C120.507 166.306 120.6 167.093 120.509 167.87C120.478 168.06 120.504 168.255 120.585 168.43C120.657 168.53 120.753 168.609 120.865 168.66C120.976 168.71 121.099 168.73 121.221 168.718C122.264 168.566 122.222 167.692 122.205 167.022C122.205 164.775 122.205 162.528 122.205 160.298C122.205 159.924 122.324 158.915 122.68 158.881C123.036 158.847 123.57 159.136 123.621 160.331C123.681 161.68 123.681 165.835 123.681 165.835C123.714 165.869 123.756 165.894 123.802 165.907C123.848 165.921 123.897 165.922 123.943 165.911C124.028 165.911 124.062 165.759 124.096 165.674C124.596 163.588 125.105 161.502 125.606 159.416C125.665 159.17 126.03 158.661 126.292 158.661C126.92 158.661 126.937 159.39 126.971 159.602C127.191 160.722 125.623 165.335 125.36 166.386C125.36 166.573 125.36 166.853 125.555 166.802L128.014 161.841C128.128 161.551 128.307 161.292 128.538 161.083C128.769 160.874 129.045 160.721 129.345 160.637C129.387 160.624 129.431 160.624 129.472 160.637C129.517 160.662 129.552 160.701 129.574 160.747C129.812 161.171 129.574 161.756 129.439 162.222C129.303 162.689 127.463 166.115 126.81 167.497C126.716 167.692 126.564 168.133 126.75 168.345C126.937 168.557 127.276 168.15 127.412 167.87C127.827 167.022 128.217 166.225 128.599 165.394C128.718 165.148 128.896 164.8 129.176 164.86C130.829 165.216 128.48 168.684 127.802 169.863Z" fill="white" stroke="#263238" stroke-linecap="round" stroke-linejoin="round"/>
<path d="M123.24 169.134C124.093 169.81 124.835 170.617 125.436 171.525C125.733 171.982 125.931 172.495 126.018 173.032C126.106 173.569 126.081 174.119 125.945 174.646C125.904 174.783 125.85 174.917 125.784 175.044" fill="white"/>
<path d="M123.24 169.134C124.093 169.81 124.835 170.617 125.436 171.525C125.733 171.982 125.931 172.495 126.018 173.032C126.106 173.569 126.081 174.119 125.945 174.646C125.904 174.783 125.85 174.917 125.784 175.044" stroke="#263238" stroke-linecap="round" stroke-linejoin="round"/>
<path d="M99.3516 222.108C100.249 223.918 100.853 225.858 101.141 227.858C101.387 229.859 101.463 231.428 100.098 237.05" stroke="#263238" stroke-linecap="round" stroke-linejoin="round"/>
<path d="M80.2122 176.664C80.0961 177.011 80.0669 177.38 80.1274 177.741C80.2882 178.195 80.5842 178.588 80.9754 178.869C83.6857 181.244 86.7175 183.225 89.9811 184.754C90.3905 184.86 90.7452 185.116 90.9759 185.47C91.2065 185.825 91.2963 186.253 91.2277 186.67V193.225C91.2694 193.901 91.2035 194.58 91.0326 195.235C90.5578 196.762 89.5062 197.991 88.743 199.399C87.9672 200.734 87.574 202.256 87.6067 203.8C87.3947 202.18 93.0594 199.043 94.5942 192.666C94.8062 191.767 99.2158 186.416 96.5701 180.132C94.0261 174.103 90.0235 171.508 88.6752 171.194C87.76 170.927 86.7942 170.881 85.8578 171.061C84.9214 171.241 84.0413 171.641 83.2904 172.229C81.8086 173.332 80.7277 174.89 80.2122 176.664Z" fill="#263238" stroke="#263238" stroke-linecap="round" stroke-linejoin="round"/>
<path d="M85.7664 195.04C85.283 195.142 84.7912 195.235 84.2993 195.295C82.6033 195.507 80.7886 195.244 79.6777 194.006C79.7625 195.116 80.5257 199.314 82.8069 199.433C85.088 199.552 85.7664 195.04 85.7664 195.04Z" stroke="#263238" stroke-linecap="round" stroke-linejoin="round"/>
<path d="M83.562 174.103C84.5401 176.323 86.0985 178.239 88.0734 179.649C89.5065 180.675 91.1431 181.413 92.4575 182.583C94.1535 184.135 95.2644 186.594 94.6115 188.824" stroke="white" stroke-linecap="round" stroke-linejoin="round"/>
<path d="M101.285 208.362C99.6512 209.673 98.5754 211.555 98.2746 213.628C97.9821 215.419 98.2026 217.257 98.9106 218.928" stroke="#263238" stroke-linecap="round" stroke-linejoin="round"/>
<path d="M69.6971 222.354C69.5614 224.576 68.1792 226.501 66.8394 228.29L69.6971 222.354Z" fill="#263238"/>
<path d="M69.6971 222.354C69.5614 224.576 68.1792 226.501 66.8394 228.29" stroke="#263238" stroke-linecap="round" stroke-linejoin="round"/>
<path d="M66.3896 239.34C67.0632 240.467 67.9647 241.442 69.0365 242.201C70.1083 242.961 71.3267 243.488 72.614 243.749" stroke="#263238" stroke-linecap="round" stroke-linejoin="round"/>
<path d="M98.8341 240.662C98.8341 240.662 96.553 244.054 88.8022 244.767" stroke="#263238" stroke-linecap="round" stroke-linejoin="round"/>
<path d="M325.886 210.94C325.886 210.94 296.333 220.098 290.771 212.865L291.525 175.969H296.011L301.286 201.96L325.505 197.525C325.505 197.525 328.608 207.141 325.886 210.94Z" fill="white"/>
<mask id="mask0_70_9676" style="mask-type:luminance" maskUnits="userSpaceOnUse" x="290" y="175" width="38" height="41">
<path d="M325.886 210.94C325.886 210.94 296.333 220.098 290.771 212.865L291.525 175.969H296.011L301.286 201.96L325.505 197.525C325.505 197.525 328.608 207.141 325.886 210.94Z" fill="white"/>
</mask>
<g mask="url(#mask0_70_9676)">
<path d="M313.437 212.229C311.743 212.903 310.125 213.755 308.612 214.773C310.614 215.409 312.751 214.603 314.752 213.967C317.395 213.156 320.089 212.521 322.816 212.068C322.944 211.313 321.968 209.592 321.587 208.922C320.891 207.751 320.739 207.65 319.568 208.226C317.44 209.295 315.625 211.152 313.437 212.229Z" fill="#47C2C9"/>
</g>
<path d="M325.886 210.94C325.886 210.94 296.333 220.098 290.771 212.865L291.525 175.969H296.011L301.286 201.96L325.505 197.525C325.505 197.525 328.608 207.141 325.886 210.94Z" stroke="#263238" stroke-linecap="round" stroke-linejoin="round"/>
<path d="M322.986 211.907L328.176 243.859C328.04 264.567 337.919 261.455 344.779 261.396C352.708 261.328 364.741 253.467 358.839 241.23L361.112 196.939L347.298 195.888C342.744 195.532 324.088 196.117 322.604 198.5C318.754 204.682 322.986 211.907 322.986 211.907Z" fill="white"/>
<mask id="mask1_70_9676" style="mask-type:luminance" maskUnits="userSpaceOnUse" x="320" y="195" width="42" height="67">
<path d="M322.986 211.907L328.176 243.859C328.04 264.567 337.919 261.455 344.779 261.396C352.708 261.328 364.741 253.467 358.839 241.23L361.112 196.939L347.298 195.888C342.744 195.532 324.088 196.117 322.604 198.5C318.754 204.682 322.986 211.907 322.986 211.907Z" fill="white"/>
</mask>
<g mask="url(#mask1_70_9676)">
<path d="M323.8 214.544C326.882 226.204 334.274 236.259 344.483 242.681C343.378 242.506 342.298 242.195 341.269 241.756C340.234 241.31 339.073 241.247 337.996 241.578C337.735 241.672 337.496 241.816 337.292 242.003C337.087 242.189 336.922 242.414 336.804 242.664C336.687 242.915 336.62 243.186 336.608 243.462C336.595 243.739 336.638 244.015 336.732 244.275C336.98 244.672 337.316 245.006 337.716 245.25C339.399 246.434 341.241 247.375 343.185 248.048C341.48 247.873 339.756 248.006 338.097 248.439C337.792 249.914 339.437 250.983 340.735 251.703C342.805 252.924 344.577 254.589 345.924 256.579C341.371 256.589 336.822 256.85 332.297 257.359C331.701 257.493 331.077 257.434 330.516 257.19C329.929 256.753 329.534 256.106 329.414 255.384C328.406 251.856 327.819 248.221 327.667 244.555C327.582 242.494 327.667 240.416 327.396 238.373C327.177 236.762 326.877 235.162 326.497 233.582C325.18 227.465 324.17 221.3 323.469 215.087C323.156 215.112 323.8 214.544 323.8 214.544Z" fill="#47C2C9"/>
<path d="M358.831 212C357.687 211.633 356.621 211.058 355.685 210.304C355.948 211.576 357.847 213.772 358.958 214.451C359.187 214.595 359.518 214.714 359.722 214.519C359.925 214.323 360.061 213.823 360.264 213.671L358.831 212Z" fill="#47C2C9"/>
</g>
<path d="M322.986 211.907L328.176 243.859C328.04 264.567 337.919 261.455 344.779 261.396C352.708 261.328 364.741 253.467 358.839 241.23L361.112 196.939L347.298 195.888C342.744 195.532 324.088 196.117 322.604 198.5C318.754 204.682 322.986 211.907 322.986 211.907Z" stroke="#263238" stroke-linecap="round" stroke-linejoin="round"/>
<path d="M333.086 195.235C331.599 197.957 330.884 201.032 331.017 204.131C331.015 204.401 331.067 204.669 331.169 204.919C331.551 205.674 332.594 205.674 333.433 205.767C336.698 206.183 338.725 209.626 341.803 210.779C341.911 210.846 342.031 210.89 342.157 210.909C342.282 210.928 342.41 210.921 342.533 210.889C342.655 210.858 342.77 210.801 342.871 210.724C342.971 210.647 343.055 210.55 343.118 210.44C344.457 208.744 344.932 206.361 346.764 205.267C347.561 204.792 348.57 204.597 349.121 203.851C349.749 203.003 349.469 201.782 349.164 200.747C348.663 199.051 348.104 197.287 346.806 196.109C345.424 195.03 343.726 194.434 341.973 194.413C339.407 194.203 336.824 194.444 334.341 195.125C334.375 195.447 333.086 195.235 333.086 195.235Z" fill="#47C2C9" stroke="#263238" stroke-linecap="round" stroke-linejoin="round"/>
<path d="M374.129 216.918C372.056 213.901 370.529 210.542 369.618 206.997C369.285 205.221 368.768 203.484 368.074 201.815C367.42 200.527 366.474 199.408 365.313 198.547C364.152 197.686 362.807 197.107 361.383 196.855C360.776 196.721 360.144 196.75 359.552 196.939C358.322 197.406 357.779 198.822 357.534 200.111C357.001 202.88 357.159 205.736 357.991 208.43C358.56 210.262 365.386 223.541 369.863 228.689C369.473 226.094 372.458 217.419 374.129 216.918Z" fill="white"/>
<mask id="mask2_70_9676" style="mask-type:luminance" maskUnits="userSpaceOnUse" x="357" y="196" width="18" height="33">
<path d="M374.129 216.918C372.056 213.901 370.529 210.542 369.618 206.997C369.285 205.221 368.768 203.484 368.074 201.815C367.42 200.527 366.474 199.408 365.313 198.547C364.152 197.686 362.807 197.107 361.383 196.855C360.776 196.721 360.144 196.75 359.552 196.939C358.322 197.406 357.779 198.822 357.534 200.111C357.001 202.88 357.159 205.736 357.991 208.43C358.56 210.262 365.386 223.541 369.863 228.689C369.473 226.094 372.458 217.419 374.129 216.918Z" fill="white"/>
</mask>
<g mask="url(#mask2_70_9676)">
<path d="M360.739 214.315L364.928 222.21C365.53 223.338 366.208 224.542 367.379 225.034C366.642 222.425 366.224 219.738 366.132 217.029C366.178 215.668 366.021 214.307 365.666 212.992C365.496 213.136 365.318 212.526 365.318 212.526C365.131 212.874 364.64 212.882 364.258 212.806C361.519 212.229 359.636 209.787 358.008 207.514C357.796 208.275 357.763 209.075 357.91 209.852C358.057 210.628 358.381 211.36 358.856 211.992C358.856 211.992 360.603 214.052 360.739 214.315Z" fill="#47C2C9"/>
</g>
<path d="M374.129 216.918C372.056 213.901 370.529 210.542 369.618 206.997C369.285 205.221 368.768 203.484 368.074 201.815C367.42 200.527 366.474 199.408 365.313 198.547C364.152 197.686 362.807 197.107 361.383 196.855C360.776 196.721 360.144 196.75 359.552 196.939C358.322 197.406 357.779 198.822 357.534 200.111C357.001 202.88 357.159 205.736 357.991 208.43C358.56 210.262 365.386 223.541 369.863 228.689C369.473 226.094 372.458 217.419 374.129 216.918Z" stroke="#263238" stroke-linecap="round" stroke-linejoin="round"/>
<path d="M368.244 226.416C363.682 217.673 365.886 197.525 365.751 194.285L371.771 193.963C372.374 193.963 375.163 211.144 377.063 218.275C378.759 224.771 377.131 231.343 374.129 231.343C371.636 231.343 369.202 228.256 368.244 226.416Z" fill="white" stroke="#263238" stroke-linecap="round" stroke-linejoin="round"/>
<path d="M313.878 203.715C318.118 197.525 326.437 197.033 326.437 197.033" stroke="#263238" stroke-linecap="round" stroke-linejoin="round"/>
<path d="M297.521 207.183C298.803 206.005 299.808 204.557 300.463 202.943L297.521 207.183Z" fill="white"/>
<path d="M297.521 207.183C298.803 206.005 299.808 204.557 300.463 202.943" stroke="#263238" stroke-linecap="round" stroke-linejoin="round"/>
<path d="M329.024 236.439C331.441 240.4 347.095 244.631 353.336 243.724" stroke="#263238" stroke-linecap="round" stroke-linejoin="round"/>
<path d="M333.45 247.616C337.959 248.392 342.581 248.215 347.018 247.099" stroke="#263238" stroke-linecap="round" stroke-linejoin="round"/>
<path d="M354.218 209.193L357.203 213.238C357.61 213.789 358.178 214.408 358.848 214.256" stroke="#263238" stroke-linecap="round" stroke-linejoin="round"/>
<path d="M376.402 362.63C376.139 363.707 376.054 364.988 376.826 365.793C377.597 366.599 378.717 366.582 379.76 366.565L383.347 366.497C384.73 366.566 386.113 366.35 387.409 365.861C388.057 365.609 388.612 365.164 388.999 364.586C389.385 364.008 389.585 363.325 389.571 362.63C389.483 362.092 389.311 361.572 389.062 361.087C388.74 360.391 388.418 359.688 388.104 358.992C384.144 350.266 378.098 355.575 376.402 362.63Z" fill="white" stroke="#263238" stroke-linecap="round" stroke-linejoin="round"/>
<path d="M371.347 352.344C371.473 356.349 371.137 360.355 370.347 364.284C370.16 365.174 370.347 366.522 371.195 366.438C371.527 366.387 371.829 366.214 372.043 365.954C375.159 362.88 377.389 359.022 378.496 354.786C378.663 354.346 378.74 353.877 378.724 353.407C378.708 352.937 378.599 352.475 378.403 352.047C378.17 351.704 377.884 351.4 377.555 351.148C374.68 348.85 371.085 346.569 371.347 352.344Z" fill="white" stroke="#263238" stroke-linecap="round" stroke-linejoin="round"/>
<path d="M361.502 249.846C361.502 249.846 365.971 257.614 366.929 259.42C367.887 261.226 388.129 287.828 392.013 307.196C392.742 310.877 377.809 352.039 377.809 352.039L374.417 350.122C374.417 350.122 376.774 312.581 376.198 309.461C375.621 306.34 360.722 283.308 360.722 283.308C360.722 283.308 352.403 277.194 348.977 270.088L361.502 249.846Z" fill="#263238"/>
<path d="M361.986 269.308C361.986 269.308 359.442 274.973 359.442 275.787C359.442 276.601 373.434 320.815 377.547 331.042C380.147 337.628 382.44 344.367 384.424 351.259C384.424 351.259 386.018 353.353 384.814 355.499C383.61 357.644 378.819 359.052 377.835 357.135C376.851 355.219 367.159 345.263 363.071 335.359C358.984 325.454 353.234 308.901 349.961 302.736C345.674 294.858 341.868 286.728 338.564 278.39C334.451 267.866 330.245 256.52 330.245 256.52C331.953 256.674 333.67 256.722 335.384 256.664C339.421 256.527 343.418 255.819 347.256 254.561C356.194 251.559 360.061 245.81 360.061 245.81C360.061 245.81 362.274 251.805 362.851 252.967L361.986 269.308Z" fill="#263238"/>
<path d="M390.521 310.987C389.645 312.488 388.467 313.79 387.061 314.812" stroke="white" stroke-linecap="round" stroke-linejoin="round"/>
<path d="M391.615 308.519C391.487 308.933 391.334 309.338 391.157 309.732" stroke="white" stroke-linecap="round" stroke-linejoin="round"/>
<path d="M353.904 256.096C356.16 259.98 358.271 265.568 357.932 270.046C357.751 270.859 357.466 271.645 357.084 272.386" stroke="white" stroke-linecap="round" stroke-linejoin="round"/>
<path d="M340.251 260.412C340.497 262.575 340.828 266.17 340.353 268.29C339.952 270.459 338.708 272.38 336.893 273.633" stroke="white" stroke-linecap="round" stroke-linejoin="round"/>
<path d="M359.484 252.229C359.977 252.843 360.376 253.526 360.671 254.256C361.245 255.304 362.035 256.22 362.988 256.941C363.94 257.663 365.035 258.176 366.2 258.445" stroke="white" stroke-linecap="round" stroke-linejoin="round"/>
<path d="M352.284 260.896C355.278 267.442 357.567 274.006 362.214 285.132" stroke="white" stroke-linecap="round" stroke-linejoin="round"/>
<path d="M350.69 257.546C350.944 258.055 351.19 258.564 351.436 259.073" stroke="white" stroke-linecap="round" stroke-linejoin="round"/>
<path d="M375.604 307.629C376.977 310.273 378.722 312.706 380.786 314.854" stroke="white" stroke-linecap="round" stroke-linejoin="round"/>
<path d="M377.021 310.071C377.919 314.221 379.559 318.174 381.863 321.74" stroke="white" stroke-linecap="round" stroke-linejoin="round"/>
<path d="M355.939 310.283C349.333 296.19 342.286 282.206 333.628 260.896" stroke="white" stroke-linecap="round" stroke-linejoin="round"/>
<path d="M357.432 314.379C357.271 313.887 357.101 313.395 356.923 312.895" stroke="white" stroke-linecap="round" stroke-linejoin="round"/>
<path d="M380.268 357.712C378.572 355.499 366.209 338.208 363.139 330.372C361.095 325.149 359.552 321.46 358.051 316.253" stroke="white" stroke-linecap="round" stroke-linejoin="round"/>
<path d="M375.604 324.436L381.481 341.71" stroke="white" stroke-linecap="round" stroke-linejoin="round"/>
<path d="M371.644 193.972L369.864 194.116C367.607 194.517 365.29 194.409 363.08 193.802C361.664 193.454 358.382 192.437 357.992 192.369C357.017 192.16 356.032 192.002 355.041 191.894C352.047 191.716 353.565 190.596 354.812 190.647C356.457 190.724 357.008 190.69 358.271 190.783C358.119 190.698 357.652 190.605 357.644 190.24C357.644 189.35 358.814 189.392 358.814 189.392C358.814 189.392 357.534 188.85 357.712 188.18C357.89 187.51 358.746 187.332 359.289 187.383C359.289 187.383 358.568 187.035 358.602 186.662C358.755 185.22 361.714 185.118 361.714 185.118C360.999 184.799 360.328 184.385 359.722 183.889C359.5 183.65 359.345 183.358 359.272 183.041C359.256 182.89 359.281 182.737 359.344 182.599C359.408 182.461 359.507 182.342 359.632 182.255C359.757 182.169 359.902 182.117 360.054 182.106C360.206 182.095 360.357 182.125 360.493 182.193C361.259 182.703 361.998 183.252 362.707 183.838C363.622 184.491 364.682 184.906 365.649 185.492C366.591 186.298 367.351 187.295 367.879 188.417C368.032 188.655 371.644 193.972 371.644 193.972Z" fill="white" stroke="#263238" stroke-linecap="round" stroke-linejoin="round"/>
<path d="M291.525 175.968V171.296C291.514 168.951 291.857 166.618 292.543 164.376C292.933 163.138 293.391 162.061 293.806 161.9C294.578 161.62 294.917 164.749 294.917 164.749C294.337 162.24 293.966 159.688 293.806 157.117C293.806 154.395 297.47 165.699 297.47 165.699L296.011 175.968H291.525Z" fill="white" stroke="#263238" stroke-linecap="round" stroke-linejoin="round"/>
<path d="M295.952 168.37C296.395 168.028 296.725 167.562 296.901 167.031L295.952 168.37Z" fill="white"/>
<path d="M295.952 168.37C296.395 168.028 296.725 167.562 296.901 167.031" stroke="#263238" stroke-linecap="round" stroke-linejoin="round"/>
<path d="M331.466 185.712C333.05 188.378 333.925 191.406 334.01 194.506C334.162 199.662 340.132 206.878 341.837 207.226C343.541 207.573 345.119 199.085 345.042 196.516C344.966 193.946 344.016 186.848 344.016 186.848C344.016 186.848 335.85 180.675 331.466 185.712Z" fill="white" stroke="#263238" stroke-linecap="round" stroke-linejoin="round"/>
<path d="M333.866 192.538C333.866 192.538 341.693 203.215 344.763 192.36C347.832 181.506 336.155 195.328 333.866 192.538Z" fill="#263238"/>
<path d="M347.078 184.864C346.662 191.199 343.771 194.76 340.438 195.388C337.394 195.947 332.942 192.844 330.72 188.239C330.55 188.129 327.845 186.255 327.201 185.797C326.864 185.561 326.59 185.248 326.4 184.883C326.211 184.518 326.114 184.113 326.115 183.702C326.137 183.308 326.276 182.929 326.515 182.615C326.754 182.301 327.081 182.065 327.455 181.938H327.531C327.913 181.855 328.311 181.885 328.676 182.023C328.117 179.861 327.659 177.664 327.311 175.451C327.472 170.363 329.16 166.208 334.587 165.801C340.014 165.394 344.551 168.43 344.763 170.618C344.915 172.314 345.467 176.8 345.958 181.438C346.094 182.642 347.171 183.439 347.078 184.864Z" fill="white" stroke="#263238" stroke-linecap="round" stroke-linejoin="round"/>
<path d="M344.762 177.537C344.762 177.537 341.269 175.934 341.862 181.141C341.981 182.167 343.889 183.685 343.889 183.685C343.889 183.685 343.397 185.22 342.49 185.22" fill="white"/>
<path d="M344.762 177.537C344.762 177.537 341.269 175.934 341.862 181.141C341.981 182.167 343.889 183.685 343.889 183.685C343.889 183.685 343.397 185.22 342.49 185.22" stroke="#263238" stroke-linecap="round" stroke-linejoin="round"/>
<path d="M338.012 179.318C338.012 179.318 336.232 178.233 335.011 178.903C334.374 179.18 333.831 179.636 333.45 180.217" fill="white"/>
<path d="M338.012 179.318C338.012 179.318 336.232 178.233 335.011 178.903C334.374 179.18 333.831 179.636 333.45 180.217" stroke="#263238" stroke-linecap="round" stroke-linejoin="round"/>
<path d="M336.995 182.32C337.131 182.948 336.995 183.507 336.63 183.584C336.266 183.66 335.909 183.202 335.782 182.574C335.655 181.947 335.782 181.387 336.155 181.311C336.528 181.235 336.868 181.684 336.995 182.32Z" fill="#263238"/>
<path d="M343.881 180.488C344.016 181.116 343.881 181.676 343.516 181.752C343.151 181.828 342.795 181.37 342.668 180.751C342.541 180.132 342.668 179.556 343.033 179.488C343.397 179.42 343.754 179.869 343.881 180.488Z" fill="#263238"/>
<path d="M326.904 168.879C326.284 169.487 325.854 170.262 325.666 171.109C325.158 172.902 325.011 174.778 325.234 176.629C325.456 178.479 326.044 180.266 326.963 181.888C327.528 181.818 328.101 181.841 328.659 181.955C329.253 182.108 330.016 183.126 330.296 183.651C330.541 184.212 330.682 184.813 330.711 185.424C330.576 183.813 330.448 182.21 330.313 180.599C330.222 179.954 330.251 179.299 330.398 178.665C330.813 177.342 330.355 174.222 330.474 171.432C333.993 175.731 339.107 174.968 340.803 174.824C343.347 174.612 345.517 172.008 345.382 170.151C345.246 168.294 344.746 163.511 336.359 163.02C334.511 162.823 332.649 163.211 331.034 164.13C330.522 164.468 330.087 164.91 329.758 165.427C329.429 165.944 329.214 166.526 329.126 167.132C329.007 167.912 329.304 167.98 328.71 168.362C328.116 168.744 327.489 168.379 326.904 168.879Z" fill="#263238" stroke="#263238" stroke-linecap="round" stroke-linejoin="round"/>
<path d="M338.013 188.205C338.013 188.205 339.259 189.579 341.863 188.671L338.013 188.205Z" fill="white"/>
<path d="M338.013 188.205C338.013 188.205 339.259 189.579 341.863 188.671" stroke="#263238" stroke-linecap="round" stroke-linejoin="round"/>
<g clip-path="url(#clip1_70_9676)">
<path d="M388 7.76986C388 6.32272 386.839 5.14958 385.407 5.14958C383.974 5.14958 382.813 6.32272 382.813 7.76986C382.813 9.217 383.974 10.3901 385.407 10.3901C386.839 10.3901 388 9.217 388 7.76986Z" fill="#BBB9BA"/>
<path d="M370.635 7.76986C370.635 6.32272 369.474 5.14958 368.041 5.14958C366.609 5.14958 365.448 6.32272 365.448 7.76986C365.448 9.217 366.609 10.3901 368.041 10.3901C369.474 10.3901 370.635 9.217 370.635 7.76986Z" fill="#BBB9BA"/>
<path d="M353.27 7.76986C353.27 6.32272 352.109 5.14958 350.677 5.14958C349.244 5.14958 348.083 6.32272 348.083 7.76986C348.083 9.217 349.244 10.3901 350.677 10.3901C352.109 10.3901 353.27 9.217 353.27 7.76986Z" fill="#BBB9BA"/>
<path d="M333.324 10.3901C334.762 10.3901 335.917 9.21101 335.917 7.76986C335.917 6.31679 334.75 5.14958 333.324 5.14958C331.885 5.14958 330.73 6.3287 330.73 7.76986C330.718 9.22292 331.885 10.3901 333.324 10.3901Z" fill="#BBB9BA"/>
<path d="M315.958 10.3901C317.397 10.3901 318.552 9.21101 318.552 7.76986C318.552 6.31679 317.385 5.14958 315.958 5.14958C314.52 5.14958 313.365 6.3287 313.365 7.76986C313.365 9.22292 314.52 10.3901 315.958 10.3901Z" fill="#BBB9BA"/>
<path d="M301.187 7.76986C301.187 6.32272 300.026 5.14958 298.594 5.14958C297.161 5.14958 296 6.32272 296 7.76986C296 9.217 297.161 10.3901 298.594 10.3901C300.026 10.3901 301.187 9.217 301.187 7.76986Z" fill="#BBB9BA"/>
<path d="M385.407 24.5515C386.845 24.5515 388 23.3724 388 21.9312C388 20.4782 386.833 19.311 385.407 19.311C383.968 19.311 382.813 20.4901 382.813 21.9312C382.801 23.3724 383.968 24.5515 385.407 24.5515Z" fill="#BBB9BA"/>
<path d="M368.041 24.5515C369.48 24.5515 370.635 23.3724 370.635 21.9312C370.635 20.4782 369.468 19.311 368.041 19.311C366.603 19.311 365.448 20.4901 365.448 21.9312C365.448 23.3724 366.603 24.5515 368.041 24.5515Z" fill="#BBB9BA"/>
<path d="M350.677 24.5515C352.115 24.5515 353.27 23.3724 353.27 21.9312C353.27 20.4782 352.103 19.311 350.677 19.311C349.238 19.311 348.083 20.4901 348.083 21.9312C348.083 23.3724 349.25 24.5515 350.677 24.5515Z" fill="#BBB9BA"/>
<path d="M333.324 24.5515C334.762 24.5515 335.917 23.3724 335.917 21.9312C335.917 20.4782 334.75 19.311 333.324 19.311C331.885 19.311 330.73 20.4901 330.73 21.9312C330.718 23.3724 331.885 24.5515 333.324 24.5515Z" fill="#BBB9BA"/>
<path d="M315.958 24.5515C317.397 24.5515 318.552 23.3724 318.552 21.9312C318.552 20.4782 317.385 19.311 315.958 19.311C314.52 19.311 313.365 20.4901 313.365 21.9312C313.365 23.3724 314.52 24.5515 315.958 24.5515Z" fill="#BBB9BA"/>
<path d="M298.594 24.5515C300.032 24.5515 301.187 23.3724 301.187 21.9312C301.187 20.4782 300.02 19.311 298.594 19.311C297.167 19.311 296 20.4782 296 21.9193C296 23.3724 297.167 24.5515 298.594 24.5515Z" fill="#BBB9BA"/>
<path d="M388 36.0687C388 34.6215 386.839 33.4484 385.407 33.4484C383.974 33.4484 382.813 34.6215 382.813 36.0687C382.813 37.5158 383.974 38.689 385.407 38.689C386.839 38.689 388 37.5158 388 36.0687Z" fill="#BBB9BA"/>
<path d="M370.635 36.0687C370.635 34.6215 369.474 33.4484 368.041 33.4484C366.609 33.4484 365.448 34.6215 365.448 36.0687C365.448 37.5158 366.609 38.689 368.041 38.689C369.474 38.689 370.635 37.5158 370.635 36.0687Z" fill="#BBB9BA"/>
<path d="M353.27 36.0687C353.27 34.6215 352.109 33.4484 350.677 33.4484C349.244 33.4484 348.083 34.6215 348.083 36.0687C348.083 37.5158 349.244 38.689 350.677 38.689C352.109 38.689 353.27 37.5158 353.27 36.0687Z" fill="#BBB9BA"/>
<path d="M333.324 38.7009C334.762 38.7009 335.917 37.5218 335.917 36.0807C335.917 34.6276 334.75 33.4604 333.324 33.4604C331.885 33.4604 330.73 34.6395 330.73 36.0807C330.718 37.5218 331.885 38.7009 333.324 38.7009Z" fill="#BBB9BA"/>
<path d="M315.958 38.7009C317.397 38.7009 318.552 37.5218 318.552 36.0807C318.552 34.6276 317.385 33.4604 315.958 33.4604C314.52 33.4604 313.365 34.6395 313.365 36.0807C313.365 37.5218 314.52 38.7009 315.958 38.7009Z" fill="#BBB9BA"/>
<path d="M301.187 36.0687C301.187 34.6215 300.026 33.4484 298.594 33.4484C297.161 33.4484 296 34.6215 296 36.0687C296 37.5158 297.161 38.689 298.594 38.689C300.026 38.689 301.187 37.5158 301.187 36.0687Z" fill="#BBB9BA"/>
<path d="M388 50.2303C388 48.7832 386.839 47.61 385.407 47.61C383.974 47.61 382.813 48.7832 382.813 50.2303C382.813 51.6774 383.974 52.8506 385.407 52.8506C386.839 52.8506 388 51.6774 388 50.2303Z" fill="#BBB9BA"/>
<path d="M370.635 50.2303C370.635 48.7832 369.474 47.61 368.041 47.61C366.609 47.61 365.448 48.7832 365.448 50.2303C365.448 51.6774 366.609 52.8506 368.041 52.8506C369.474 52.8506 370.635 51.6774 370.635 50.2303Z" fill="#BBB9BA"/>
<path d="M353.27 50.2303C353.27 48.7832 352.109 47.61 350.677 47.61C349.244 47.61 348.083 48.7832 348.083 50.2303C348.083 51.6774 349.244 52.8506 350.677 52.8506C352.109 52.8506 353.27 51.6774 353.27 50.2303Z" fill="#BBB9BA"/>
<path d="M333.324 52.8506C334.762 52.8506 335.917 51.6715 335.917 50.2303C335.917 48.7772 334.75 47.61 333.324 47.61C331.885 47.61 330.73 48.7892 330.73 50.2303C330.718 51.6715 331.885 52.8506 333.324 52.8506Z" fill="#BBB9BA"/>
<path d="M315.958 52.8506C317.397 52.8506 318.552 51.6715 318.552 50.2303C318.552 48.7772 317.385 47.61 315.958 47.61C314.52 47.61 313.365 48.7892 313.365 50.2303C313.365 51.6715 314.52 52.8506 315.958 52.8506Z" fill="#BBB9BA"/>
<path d="M301.187 50.2303C301.187 48.7832 300.026 47.61 298.594 47.61C297.161 47.61 296 48.7832 296 50.2303C296 51.6774 297.161 52.8506 298.594 52.8506C300.026 52.8506 301.187 51.6774 301.187 50.2303Z" fill="#BBB9BA"/>
<path d="M385.407 67C386.845 67 388 65.8209 388 64.3797C388 62.9267 386.833 61.7594 385.407 61.7594C383.968 61.7594 382.813 62.9386 382.813 64.3797C382.801 65.8209 383.968 67 385.407 67Z" fill="#BBB9BA"/>
<path d="M368.041 67C369.48 67 370.635 65.8209 370.635 64.3797C370.635 62.9267 369.468 61.7594 368.041 61.7594C366.603 61.7594 365.448 62.9386 365.448 64.3797C365.448 65.8209 366.603 67 368.041 67Z" fill="#BBB9BA"/>
<path d="M350.677 67C352.115 67 353.27 65.8209 353.27 64.3797C353.27 62.9267 352.103 61.7594 350.677 61.7594C349.238 61.7594 348.083 62.9386 348.083 64.3797C348.083 65.8209 349.25 67 350.677 67Z" fill="#BBB9BA"/>
<path d="M333.324 67C334.762 67 335.917 65.8209 335.917 64.3797C335.917 62.9267 334.75 61.7594 333.324 61.7594C331.885 61.7594 330.73 62.9386 330.73 64.3797C330.718 65.8209 331.885 67 333.324 67Z" fill="#BBB9BA"/>
<path d="M315.958 67C317.397 67 318.552 65.8209 318.552 64.3797C318.552 62.9267 317.385 61.7594 315.958 61.7594C314.52 61.7594 313.365 62.9386 313.365 64.3797C313.365 65.8209 314.52 67 315.958 67Z" fill="#BBB9BA"/>
<path d="M298.594 67C300.032 67 301.187 65.8209 301.187 64.3797C301.187 62.9267 300.02 61.7594 298.594 61.7594C297.167 61.7594 296 62.9267 296 64.3797C296 65.8209 297.167 67 298.594 67Z" fill="#BBB9BA"/>
</g>
</g>
<defs>
<clipPath id="clip0_70_9676">
<rect width="424" height="424" fill="white"/>
</clipPath>
<clipPath id="clip1_70_9676">
<rect width="76" height="92" fill="white" transform="matrix(0 -1 1 0 296 67)"/>
</clipPath>
</defs>
</svg>
