<svg width="52" height="64" viewBox="0 0 52 64" fill="none" xmlns="http://www.w3.org/2000/svg">
<mask id="mask0_42_2442" style="mask-type:luminance" maskUnits="userSpaceOnUse" x="0" y="0" width="52" height="64">
<path d="M51.995 29.538L34.7899 46.7481L51.995 63.9583H32.3334L15.1233 46.7481L32.3334 29.538H51.995ZM32.3384 0.0405884L0.379517 31.9994L10.2153 41.8352L52 0.0455512C51.995 0.0405887 32.3384 0.0405884 32.3384 0.0405884Z" fill="white"/>
</mask>
<g mask="url(#mask0_42_2442)">
<path d="M24.959 56.5839L52 29.538H32.3383L15.1282 46.7481L24.959 56.5839Z" fill="#39CEFD"/>
</g>
<mask id="mask1_42_2442" style="mask-type:luminance" maskUnits="userSpaceOnUse" x="0" y="0" width="52" height="64">
<path d="M51.995 29.538L34.7899 46.7481L51.995 63.9583H32.3334L15.1233 46.7481L32.3334 29.538H51.995ZM32.3384 0.0405884L0.379517 31.9994L10.2153 41.8352L52 0.0455512C51.995 0.0405887 32.3384 0.0405884 32.3384 0.0405884Z" fill="white"/>
</mask>
<g mask="url(#mask1_42_2442)">
<path d="M0.379517 31.9994L32.3384 0.0405884H52L10.2153 41.8303L0.379517 31.9994Z" fill="#39CEFD"/>
</g>
<mask id="mask2_42_2442" style="mask-type:luminance" maskUnits="userSpaceOnUse" x="0" y="0" width="52" height="64">
<path d="M51.995 29.538L34.7899 46.7481L51.995 63.9583H32.3334L15.1233 46.7481L32.3334 29.538H51.995ZM32.3384 0.0405884L0.379517 31.9994L10.2153 41.8352L52 0.0455512C51.995 0.0405887 32.3384 0.0405884 32.3384 0.0405884Z" fill="white"/>
</mask>
<g mask="url(#mask2_42_2442)">
<path d="M32.3384 63.9583H52.0001L34.7949 46.7531L24.9591 56.5889L32.3384 63.9583Z" fill="#03569B"/>
</g>
<mask id="mask3_42_2442" style="mask-type:luminance" maskUnits="userSpaceOnUse" x="0" y="0" width="52" height="64">
<path d="M51.995 29.538L34.7899 46.7481L51.995 63.9583H32.3334L15.1233 46.7481L32.3334 29.538H51.995ZM32.3384 0.0405884L0.379517 31.9994L10.2153 41.8352L52 0.0455512C51.995 0.0405887 32.3384 0.0405884 32.3384 0.0405884Z" fill="white"/>
</mask>
<g mask="url(#mask3_42_2442)">
<path d="M34.7899 46.7481L24.9541 56.5839L39.539 51.532L34.7899 46.7481Z" fill="url(#paint0_linear_42_2442)"/>
</g>
<mask id="mask4_42_2442" style="mask-type:luminance" maskUnits="userSpaceOnUse" x="0" y="0" width="52" height="64">
<path d="M51.995 29.538L34.7899 46.7481L51.995 63.9583H32.3334L15.1233 46.7481L32.3334 29.538H51.995ZM32.3384 0.0405884L0.379517 31.9994L10.2153 41.8352L52 0.0455512C51.995 0.0405887 32.3384 0.0405884 32.3384 0.0405884Z" fill="white"/>
</mask>
<g mask="url(#mask4_42_2442)">
<path d="M15.1282 46.7482L24.964 36.9124L34.7997 46.7482L24.964 56.5839L15.1282 46.7482Z" fill="#16B9FD"/>
</g>
<path d="M51.995 29.538L34.7899 46.7481L51.995 63.9583H32.3334L15.1233 46.7481L32.3334 29.538H51.995ZM32.3384 0.0405884L0.379517 31.9994L10.2153 41.8352L52 0.0455512C51.995 0.0405887 32.3384 0.0405884 32.3384 0.0405884Z" fill="url(#paint1_radial_42_2442)"/>
<defs>
<linearGradient id="paint0_linear_42_2442" x1="27.8269" y1="58.4807" x2="28.1112" y2="58.1964" gradientUnits="userSpaceOnUse">
<stop stop-color="#1A237E" stop-opacity="0.4"/>
<stop offset="1" stop-color="#1A237E" stop-opacity="0"/>
</linearGradient>
<radialGradient id="paint1_radial_42_2442" cx="0" cy="0" r="1" gradientUnits="userSpaceOnUse" gradientTransform="translate(-31.7379 -101.679) scale(3.03554)">
<stop stop-color="white" stop-opacity="0.1"/>
<stop offset="1" stop-color="white" stop-opacity="0"/>
</radialGradient>
</defs>
</svg>
