<svg width="327" height="107" viewBox="0 0 327 107" fill="none" xmlns="http://www.w3.org/2000/svg">
<path d="M16.9142 1.17358V27.8679C16.7991 27.891 16.661 27.891 16.546 27.891C16.3849 27.914 16.2008 27.9139 16.0167 27.9139C14.6589 27.9139 13.2782 27.7529 11.9665 27.4307C10.7929 27.1546 9.66527 26.7173 8.56067 26.257C7.96235 26.0039 7.4101 25.6358 6.88081 25.2906C6.32852 24.9454 5.79923 24.6002 5.29296 24.232C4.30342 23.5416 3.35987 22.7592 2.43937 21.9308C2.00214 21.5166 1.56493 21.1023 1.17372 20.642C0.966611 20.4119 0.759525 20.1588 0.552414 19.9057C0.460364 19.7676 0.345291 19.6295 0.253242 19.5144C0.23023 19.4684 0.161198 19.4224 0.115173 19.3533V1.21965H16.9142V1.17358Z" fill="white"/>
<path d="M326.568 39.6963V76.0098H309.746V71.6145C317.041 66.8279 322.058 60.0623 324.658 51.4096C325.855 47.4055 326.499 43.5164 326.568 39.6963Z" fill="white"/>
<path d="M326.568 1.19661V37.8553C326.407 32.5164 325.142 27.3617 322.748 22.414C319.78 16.2927 315.43 11.4601 309.723 8.00825V1.19661H326.568Z" fill="white"/>
<path d="M78.6793 76.0098H55.7821L29.7781 50.0058C28.4894 48.6251 27.4999 47.2213 26.7865 45.8176C26.1882 47.1063 25.3827 48.2339 24.3701 49.1774L16.8911 56.7024V75.9868H0.0690918V48.0958L6.8117 41.8825C11.2991 43.1251 15.9707 43.3323 20.8033 42.5498C26.6484 41.6063 32.1253 39.259 37.165 35.6001C38.5227 36.3135 39.8805 37.28 41.1922 38.5227L78.6793 76.0098Z" fill="white"/>
<path d="M135.865 50.6042C132.919 53.5497 130.733 55.6668 129.375 56.8865C128.11 58.0141 125.993 59.1648 123.116 60.3154C120.24 61.443 116.926 62.0183 113.221 62.0183C108.779 62.0183 104.315 60.2233 100.012 56.7255C95.7084 53.2276 93.108 48.8782 92.2565 43.8385C92.1645 43.3092 92.0264 42.803 91.8423 42.3197C93.131 42.5958 94.6268 42.7339 96.2607 42.7339H149.949V41.5373C149.949 29.3868 146.451 19.3533 139.524 11.6672C132.574 3.95806 123.415 0.04599 112.323 0.04599C101.231 0.04599 92.0265 3.79702 84.9847 11.207C77.9659 18.594 74.399 27.8449 74.399 38.7298C74.399 49.4305 78.3801 58.6815 86.2273 66.2065C94.0515 73.7316 103.141 77.5516 113.221 77.5516C120.194 77.5516 126.545 76.2629 132.091 73.7316C137.637 71.2002 143.39 66.4367 149.235 59.579L150.133 58.5204L136.532 49.9828L135.865 50.6042ZM128.386 27.6608H96.1226C95.4092 27.6608 94.6959 27.6839 94.0055 27.7529C94.3507 27.2927 94.6499 26.8323 94.926 26.3261C98.9992 19.2383 104.683 15.7864 112.323 15.7864C120.033 15.7864 125.671 19.2383 129.56 26.3261C129.859 26.8323 130.158 27.3156 130.503 27.7759C129.813 27.6838 129.099 27.6608 128.386 27.6608Z" fill="white"/>
<path d="M309.7 40.7778C309.516 43.4243 308.918 46.1398 307.951 48.6021C305.719 54.1941 301.485 58.6125 296.008 60.8907C294.995 61.3049 294.006 61.6501 293.039 61.9262C291.613 65.0099 289.38 67.8635 286.32 70.3948C283.374 72.8571 279.853 74.6981 275.78 75.8717C276.47 76.1479 277.207 76.378 277.92 76.6081C287.194 79.5537 296.629 78.6102 305.972 73.8236C307.284 73.1563 308.55 72.4199 309.746 71.6374V40.4097C309.723 40.5018 309.7 40.6858 309.7 40.7778Z" fill="#49C2C9"/>
<path d="M326.568 37.8553V39.6963C326.499 43.5164 325.855 47.4054 324.658 51.3866C322.035 60.0392 317.018 66.8049 309.746 71.5914V8.00826C315.453 11.4831 319.803 16.2927 322.771 22.414C325.165 27.3617 326.43 32.5164 326.568 37.8553Z" fill="#2F7376"/>
<path d="M196.203 31.8491C178.829 27.1086 177.471 23.9098 177.471 23.0584C177.471 21.4015 178.714 19.7216 181.176 18.0417C183.777 16.2467 186.976 15.3492 190.681 15.3492C196.94 15.3492 203.683 17.6735 210.678 22.276L211.599 22.8973L221.609 10.0794L220.413 9.38901C216.086 6.88067 211.138 4.67147 205.708 2.83048C200.208 0.966474 195.145 0.0229645 190.681 0.0229645C181.015 0.0229645 173.375 2.39326 168.036 7.08778C162.628 11.8283 159.89 17.5584 159.89 24.1169C159.89 28.7194 161.8 32.7235 165.574 36.0373C169.256 39.259 175.907 42.1586 185.894 44.9201C202.67 49.5226 204.488 53.0204 204.488 54.3091C204.488 55.851 203.13 57.5079 200.438 59.2338C194.961 62.7777 187.689 63.0768 178.507 59.2798C174.089 57.4618 170.637 55.5288 168.267 53.5267L167.369 52.7903L156.323 64.8718L157.382 65.6772C161.225 68.5998 166.402 71.3383 172.777 73.8006C179.174 76.2629 185.112 77.5286 190.381 77.5286C200.047 77.5286 207.802 75.1353 213.463 70.4178C219.17 65.6312 222.069 59.8781 222.069 53.2966C222.069 48.7171 220.136 44.5749 216.339 41.031C212.588 37.4871 206.007 34.5185 196.203 31.8491Z" fill="white"/>
<path d="M24.3701 25.7278L16.5459 32.9537L6.83468 41.9055C4.51043 41.2611 2.20919 40.3406 0 39.144V19.1693C0 19.2153 0.0460444 19.2843 0.0920691 19.3304C0.138094 19.3994 0.207125 19.4684 0.230138 19.4914C0.322187 19.6295 0.43726 19.7676 0.52931 19.8826C0.736421 20.1358 0.943507 20.3889 1.15062 20.6191C1.54183 21.0793 1.97911 21.4935 2.41634 21.9077C3.31382 22.7362 4.28032 23.5186 5.26985 24.209C5.79914 24.5772 6.32843 24.9223 6.85771 25.2675C7.41001 25.6127 7.96226 25.9809 8.53757 26.2341C9.64216 26.6943 10.7698 27.1315 11.9434 27.4077C13.2551 27.7298 14.6129 27.891 15.9936 27.891C16.1777 27.891 16.3618 27.891 16.5229 27.8679C16.6379 27.8679 16.776 27.8449 16.8911 27.8449C19.5835 27.7298 22.1149 26.9705 24.3701 25.7278Z" fill="#2F7376"/>
<path d="M37.349 35.485C37.303 35.5311 37.2339 35.5771 37.1879 35.6001C32.1482 39.259 26.6713 41.6063 20.8262 42.5498C15.9936 43.3323 11.322 43.1021 6.83459 41.8825L28.3742 22.0228L49.3384 1.15062H72.0056L47.0142 26.142C46.4849 26.7864 45.9556 27.4307 45.4033 28.052C43.8845 29.801 42.3196 31.3659 40.6858 32.7926L37.349 35.485Z" fill="#49C2C9"/>
<path d="M294.903 53.2506C294.903 56.3342 294.282 59.2108 293.016 61.9033C291.59 64.9869 289.357 67.8404 286.297 70.3718C283.351 72.8341 279.83 74.6751 275.757 75.8487C272.029 76.9533 267.841 77.4826 263.215 77.4826C257.946 77.4826 252.008 76.2399 245.611 73.7546C239.236 71.2923 234.059 68.5538 230.216 65.6312L229.157 64.8258L240.203 52.7443L241.077 53.5037C243.448 55.5058 246.9 57.4389 251.318 59.2568C252.952 59.9242 254.54 60.4764 256.058 60.9137C263.031 62.8237 268.738 62.1103 273.249 59.2108C273.755 58.8886 274.192 58.5664 274.606 58.2673C276.401 56.8865 277.299 55.5288 277.299 54.2862C277.299 53.2046 276.033 50.6272 265.977 47.1293C264.159 46.4849 262.065 45.8406 259.625 45.1503C259.326 45.0582 259.027 44.9891 258.728 44.8971C248.741 42.1356 242.09 39.2361 238.408 36.0143C234.634 32.7236 232.724 28.7194 232.724 24.0939C232.724 17.5123 235.462 11.7823 240.87 7.06474C246.209 2.37022 253.826 0 263.514 0C267.979 0 273.042 0.94344 278.542 2.80744C279.14 3.01455 279.738 3.22173 280.336 3.45185C285.077 5.15477 289.426 7.15682 293.247 9.38901L294.443 10.0794L288.253 17.9956L284.433 22.8973L283.512 22.2989C282.684 21.7466 281.855 21.2404 281.05 20.7571C274.929 17.1672 269.06 15.3492 263.514 15.3492C263.307 15.3492 263.1 15.3492 262.893 15.3722C259.441 15.4643 256.45 16.3388 254.01 18.0417C251.548 19.7216 250.282 21.4015 250.282 23.0584C250.282 23.6337 250.858 25.1525 255.943 27.4537C258.728 28.6964 262.87 30.1922 269.014 31.8491C278.795 34.4955 285.399 37.4871 289.15 40.962C290.646 42.3657 291.866 43.8616 292.763 45.4494C294.19 47.8657 294.903 50.4661 294.903 53.2506Z" fill="white"/>
<path d="M86.0203 95.4783V97.2963H82.9366V105.788H80.7734V97.2963H77.6667V95.4783H86.0203Z" fill="white"/>
<path d="M104.384 97.3192H98.9302V99.5054H103.947V101.3H98.9302V103.947H104.637V105.811H96.8129V95.4783H104.384V97.3192Z" fill="white"/>
<path d="M116.765 96.5599C117.593 95.7084 118.652 95.2942 119.94 95.2942C121.666 95.2942 122.909 95.8695 123.714 96.9971C124.152 97.6415 124.382 98.2858 124.428 98.9302H122.265C122.127 98.4239 121.942 98.0557 121.735 97.8026C121.344 97.3653 120.792 97.1352 120.032 97.1352C119.273 97.1352 118.652 97.4574 118.214 98.0787C117.777 98.7 117.547 99.5975 117.547 100.771C117.547 101.945 117.777 102.796 118.26 103.372C118.721 103.947 119.319 104.246 120.055 104.246C120.792 104.246 121.367 103.993 121.758 103.51C121.965 103.233 122.15 102.842 122.288 102.313H124.428C124.244 103.441 123.76 104.361 123.001 105.051C122.242 105.765 121.275 106.11 120.078 106.11C118.606 106.11 117.455 105.627 116.604 104.683C115.752 103.717 115.338 102.405 115.338 100.748C115.338 98.9302 115.798 97.5494 116.765 96.5599Z" fill="white"/>
<path d="M135.589 105.811V95.4783H137.729V99.4134H141.733V95.4783H143.873V105.811H141.733V101.208H137.729V105.811H135.589Z" fill="white"/>
<path d="M169.785 102.497C169.808 103.072 169.946 103.556 170.176 103.924C170.614 104.614 171.396 104.936 172.524 104.936C173.03 104.936 173.49 104.867 173.904 104.706C174.71 104.407 175.101 103.901 175.101 103.141C175.101 102.589 174.94 102.175 174.595 101.945C174.25 101.715 173.72 101.507 172.984 101.346L171.626 101.024C170.752 100.817 170.13 100.587 169.762 100.334C169.118 99.8966 168.819 99.2523 168.819 98.4008C168.819 97.4803 169.141 96.7209 169.762 96.1226C170.383 95.5243 171.258 95.2251 172.409 95.2251C173.467 95.2251 174.342 95.4782 175.078 96.0075C175.814 96.5368 176.183 97.3653 176.183 98.4929H174.871C174.802 97.9406 174.664 97.5264 174.434 97.2272C174.019 96.6979 173.329 96.4218 172.363 96.4218C171.58 96.4218 171.005 96.6058 170.66 96.951C170.314 97.2962 170.153 97.6875 170.153 98.1477C170.153 98.654 170.36 99.0221 170.775 99.2523C171.051 99.3903 171.649 99.5975 172.593 99.8046L173.996 100.127C174.664 100.288 175.193 100.495 175.561 100.771C176.206 101.254 176.505 101.945 176.505 102.865C176.505 103.993 176.091 104.821 175.285 105.305C174.48 105.788 173.536 106.041 172.478 106.041C171.235 106.041 170.245 105.719 169.555 105.051C168.842 104.407 168.496 103.533 168.52 102.405H169.785V102.497Z" fill="white"/>
<path d="M196.365 96.9971C197.055 97.9176 197.377 99.0682 197.377 100.495C197.377 102.037 196.986 103.302 196.203 104.315C195.283 105.512 193.994 106.11 192.291 106.11C190.704 106.11 189.461 105.581 188.563 104.545C187.758 103.533 187.344 102.267 187.344 100.725C187.344 99.3444 187.689 98.1477 188.379 97.1581C189.277 95.8925 190.588 95.2481 192.314 95.2481C194.155 95.2481 195.49 95.8235 196.365 96.9971ZM195.145 103.556C195.697 102.681 195.973 101.669 195.973 100.518C195.973 99.2983 195.651 98.3318 195.03 97.5954C194.386 96.859 193.534 96.4908 192.43 96.4908C191.371 96.4908 190.496 96.859 189.829 97.5954C189.162 98.3318 188.817 99.4134 188.817 100.84C188.817 101.991 189.116 102.934 189.691 103.717C190.266 104.499 191.21 104.89 192.498 104.89C193.695 104.867 194.593 104.43 195.145 103.556Z" fill="white"/>
<path d="M208.515 95.5243H209.919V104.591H215.073V105.811H208.515V95.5243Z" fill="white"/>
<path d="M227.454 95.5243V101.876C227.454 102.612 227.592 103.233 227.868 103.74C228.282 104.476 228.996 104.867 229.985 104.867C231.182 104.867 231.988 104.453 232.425 103.648C232.655 103.21 232.77 102.612 232.77 101.876V95.5243H234.174V101.3C234.174 102.566 234.013 103.533 233.667 104.223C233.046 105.466 231.849 106.087 230.124 106.087C228.375 106.087 227.201 105.466 226.58 104.223C226.234 103.533 226.073 102.566 226.073 101.3V95.5243H227.454Z" fill="white"/>
<path d="M253.251 95.5243V96.7439H249.776V105.811H248.373V96.7439H244.898V95.5243H253.251Z" fill="white"/>
<path d="M264.32 95.5243H265.724V105.811H264.32V95.5243Z" fill="white"/>
<path d="M285.929 96.9971C286.619 97.9176 286.941 99.0682 286.941 100.495C286.941 102.037 286.55 103.302 285.767 104.315C284.847 105.512 283.558 106.11 281.855 106.11C280.267 106.11 279.025 105.581 278.127 104.545C277.322 103.533 276.908 102.267 276.908 100.725C276.908 99.3444 277.253 98.1477 277.943 97.1581C278.841 95.8925 280.152 95.2481 281.878 95.2481C283.696 95.2481 285.054 95.8235 285.929 96.9971ZM284.686 103.556C285.238 102.681 285.514 101.669 285.514 100.518C285.514 99.2983 285.192 98.3318 284.571 97.5954C283.926 96.859 283.075 96.4908 281.97 96.4908C280.912 96.4908 280.037 96.859 279.37 97.5954C278.703 98.3318 278.357 99.4134 278.357 100.84C278.357 101.991 278.657 102.934 279.232 103.717C279.807 104.499 280.751 104.89 282.039 104.89C283.259 104.867 284.156 104.43 284.686 103.556Z" fill="white"/>
<path d="M298.079 95.5243H299.713L304.845 103.832V95.5243H306.18V105.811H304.615L299.414 97.5034V105.811H298.079V95.5243Z" fill="white"/>
<path d="M318.813 102.497C318.836 103.072 318.974 103.556 319.204 103.924C319.642 104.614 320.424 104.936 321.552 104.936C322.058 104.936 322.518 104.867 322.932 104.706C323.738 104.407 324.129 103.901 324.129 103.141C324.129 102.589 323.968 102.175 323.623 101.945C323.278 101.715 322.748 101.507 322.012 101.346L320.654 101.024C319.78 100.817 319.158 100.587 318.79 100.334C318.146 99.8966 317.847 99.2523 317.847 98.4008C317.847 97.4803 318.169 96.7209 318.79 96.1226C319.412 95.5243 320.286 95.2251 321.437 95.2251C322.495 95.2251 323.37 95.4782 324.106 96.0075C324.842 96.5368 325.211 97.3653 325.211 98.4929H323.899C323.83 97.9406 323.692 97.5264 323.462 97.2272C323.048 96.6979 322.357 96.4218 321.391 96.4218C320.608 96.4218 320.033 96.6058 319.688 96.951C319.343 97.2962 319.181 97.6875 319.181 98.1477C319.181 98.654 319.389 99.0221 319.803 99.2523C320.079 99.3903 320.677 99.5975 321.621 99.8046L323.025 100.127C323.692 100.288 324.221 100.495 324.589 100.771C325.234 101.254 325.533 101.945 325.533 102.865C325.533 103.993 325.119 104.821 324.313 105.305C323.508 105.788 322.564 106.041 321.506 106.041C320.263 106.041 319.274 105.719 318.583 105.051C317.87 104.407 317.525 103.533 317.548 102.405H318.813V102.497Z" fill="white"/>
</svg>
