<svg width="500" height="500" viewBox="0 0 500 500" fill="none" xmlns="http://www.w3.org/2000/svg">
<g clip-path="url(#clip0_25_172)">
<path d="M43.22 408.51H456.78" stroke="#263238" stroke-linecap="round" stroke-linejoin="round"/>
<path d="M209 176C236.614 148.386 236.614 103.614 209 76C181.386 48.3858 136.614 48.3858 109 76C81.3858 103.614 81.3858 148.386 109 176C136.614 203.614 181.386 203.614 209 176Z" stroke="#47C2C9" stroke-miterlimit="10"/>
<path d="M159.004 185.215C191.711 185.215 218.225 158.7 218.225 125.993C218.225 93.2861 191.711 66.7717 159.004 66.7717C126.297 66.7717 99.7822 93.2861 99.7822 125.993C99.7822 158.7 126.297 185.215 159.004 185.215Z" stroke="#47C2C9" stroke-miterlimit="10"/>
<path d="M159.004 173.709C185.356 173.709 206.719 152.346 206.719 125.993C206.719 99.6409 185.356 78.2778 159.004 78.2778C132.651 78.2778 111.288 99.6409 111.288 125.993C111.288 152.346 132.651 173.709 159.004 173.709Z" stroke="#47C2C9" stroke-miterlimit="10"/>
<path d="M184.604 151.604C198.745 137.463 198.745 114.537 184.604 100.396C170.463 86.2554 147.537 86.2554 133.396 100.396C119.256 114.537 119.256 137.463 133.396 151.604C147.537 165.745 170.463 165.745 184.604 151.604Z" stroke="#47C2C9" stroke-miterlimit="10"/>
<path d="M176.479 143.479C186.133 133.826 186.133 118.174 176.479 108.521C166.826 98.8669 151.174 98.8669 141.521 108.521C131.867 118.174 131.867 133.826 141.521 143.479C151.174 153.133 166.826 153.133 176.479 143.479Z" stroke="#47C2C9" stroke-miterlimit="10"/>
<g clip-path="url(#clip1_25_172)">
<path d="M478 211.62C478 210.173 476.839 209 475.406 209C473.974 209 472.813 210.173 472.813 211.62C472.813 213.067 473.974 214.24 475.406 214.24C476.839 214.24 478 213.067 478 211.62Z" fill="#BBB9BA"/>
<path d="M460.635 211.62C460.635 210.173 459.474 209 458.042 209C456.609 209 455.448 210.173 455.448 211.62C455.448 213.067 456.609 214.24 458.042 214.24C459.474 214.24 460.635 213.067 460.635 211.62Z" fill="#BBB9BA"/>
<path d="M443.27 211.62C443.27 210.173 442.109 209 440.677 209C439.244 209 438.083 210.173 438.083 211.62C438.083 213.067 439.244 214.24 440.677 214.24C442.109 214.24 443.27 213.067 443.27 211.62Z" fill="#BBB9BA"/>
<path d="M423.323 214.24C424.762 214.24 425.917 213.061 425.917 211.62C425.917 210.167 424.75 209 423.323 209C421.885 209 420.73 210.179 420.73 211.62C420.718 213.073 421.885 214.24 423.323 214.24Z" fill="#BBB9BA"/>
<path d="M405.959 214.24C407.397 214.24 408.552 213.061 408.552 211.62C408.552 210.167 407.385 209 405.959 209C404.52 209 403.365 210.179 403.365 211.62C403.365 213.073 404.52 214.24 405.959 214.24Z" fill="#BBB9BA"/>
<path d="M391.187 211.62C391.187 210.173 390.026 209 388.594 209C387.161 209 386 210.173 386 211.62C386 213.067 387.161 214.24 388.594 214.24C390.026 214.24 391.187 213.067 391.187 211.62Z" fill="#BBB9BA"/>
<path d="M478 225.77C478 224.323 476.839 223.15 475.406 223.15C473.974 223.15 472.813 224.323 472.813 225.77C472.813 227.217 473.974 228.39 475.406 228.39C476.839 228.39 478 227.217 478 225.77Z" fill="#BBB9BA"/>
<path d="M460.635 225.77C460.635 224.323 459.474 223.15 458.042 223.15C456.609 223.15 455.448 224.323 455.448 225.77C455.448 227.217 456.609 228.39 458.042 228.39C459.474 228.39 460.635 227.217 460.635 225.77Z" fill="#BBB9BA"/>
<path d="M443.27 225.77C443.27 224.323 442.109 223.15 440.677 223.15C439.244 223.15 438.083 224.323 438.083 225.77C438.083 227.217 439.244 228.39 440.677 228.39C442.109 228.39 443.27 227.217 443.27 225.77Z" fill="#BBB9BA"/>
<path d="M423.323 228.39C424.762 228.39 425.917 227.211 425.917 225.77C425.917 224.317 424.75 223.15 423.323 223.15C421.885 223.15 420.73 224.329 420.73 225.77C420.718 227.223 421.885 228.39 423.323 228.39Z" fill="#BBB9BA"/>
<path d="M405.959 228.39C407.397 228.39 408.552 227.211 408.552 225.77C408.552 224.317 407.385 223.15 405.959 223.15C404.52 223.15 403.365 224.329 403.365 225.77C403.365 227.223 404.52 228.39 405.959 228.39Z" fill="#BBB9BA"/>
<path d="M391.187 225.77C391.187 224.323 390.026 223.15 388.594 223.15C387.161 223.15 386 224.323 386 225.77C386 227.217 387.161 228.39 388.594 228.39C390.026 228.39 391.187 227.217 391.187 225.77Z" fill="#BBB9BA"/>
<path d="M475.406 242.552C476.845 242.552 478 241.372 478 239.931C478 238.478 476.833 237.311 475.406 237.311C473.968 237.311 472.813 238.49 472.813 239.931C472.801 241.372 473.968 242.552 475.406 242.552Z" fill="#BBB9BA"/>
<path d="M458.042 242.552C459.48 242.552 460.635 241.372 460.635 239.931C460.635 238.478 459.468 237.311 458.042 237.311C456.603 237.311 455.448 238.49 455.448 239.931C455.448 241.372 456.603 242.552 458.042 242.552Z" fill="#BBB9BA"/>
<path d="M440.677 242.552C442.115 242.552 443.27 241.372 443.27 239.931C443.27 238.478 442.103 237.311 440.677 237.311C439.238 237.311 438.083 238.49 438.083 239.931C438.083 241.372 439.25 242.552 440.677 242.552Z" fill="#BBB9BA"/>
<path d="M423.323 242.552C424.762 242.552 425.917 241.372 425.917 239.931C425.917 238.478 424.75 237.311 423.323 237.311C421.885 237.311 420.73 238.49 420.73 239.931C420.718 241.372 421.885 242.552 423.323 242.552Z" fill="#BBB9BA"/>
<path d="M405.959 242.552C407.397 242.552 408.552 241.372 408.552 239.931C408.552 238.478 407.385 237.311 405.959 237.311C404.52 237.311 403.365 238.49 403.365 239.931C403.365 241.372 404.52 242.552 405.959 242.552Z" fill="#BBB9BA"/>
<path d="M388.594 242.552C390.032 242.552 391.187 241.372 391.187 239.931C391.187 238.478 390.02 237.311 388.594 237.311C387.167 237.311 386 238.478 386 239.919C386 241.372 387.167 242.552 388.594 242.552Z" fill="#BBB9BA"/>
<path d="M478 254.069C478 252.622 476.839 251.448 475.406 251.448C473.974 251.448 472.813 252.622 472.813 254.069C472.813 255.516 473.974 256.689 475.406 256.689C476.839 256.689 478 255.516 478 254.069Z" fill="#BBB9BA"/>
<path d="M460.635 254.069C460.635 252.622 459.474 251.448 458.042 251.448C456.609 251.448 455.448 252.622 455.448 254.069C455.448 255.516 456.609 256.689 458.042 256.689C459.474 256.689 460.635 255.516 460.635 254.069Z" fill="#BBB9BA"/>
<path d="M443.27 254.069C443.27 252.622 442.109 251.448 440.677 251.448C439.244 251.448 438.083 252.622 438.083 254.069C438.083 255.516 439.244 256.689 440.677 256.689C442.109 256.689 443.27 255.516 443.27 254.069Z" fill="#BBB9BA"/>
<path d="M423.323 256.701C424.762 256.701 425.917 255.522 425.917 254.081C425.917 252.628 424.75 251.46 423.323 251.46C421.885 251.46 420.73 252.639 420.73 254.081C420.718 255.522 421.885 256.701 423.323 256.701Z" fill="#BBB9BA"/>
<path d="M405.959 256.701C407.397 256.701 408.552 255.522 408.552 254.081C408.552 252.628 407.385 251.46 405.959 251.46C404.52 251.46 403.365 252.639 403.365 254.081C403.365 255.522 404.52 256.701 405.959 256.701Z" fill="#BBB9BA"/>
<path d="M391.187 254.069C391.187 252.622 390.026 251.448 388.594 251.448C387.161 251.448 386 252.622 386 254.069C386 255.516 387.161 256.689 388.594 256.689C390.026 256.689 391.187 255.516 391.187 254.069Z" fill="#BBB9BA"/>
<path d="M478 268.23C478 266.783 476.839 265.61 475.406 265.61C473.974 265.61 472.813 266.783 472.813 268.23C472.813 269.677 473.974 270.851 475.406 270.851C476.839 270.851 478 269.677 478 268.23Z" fill="#BBB9BA"/>
<path d="M460.635 268.23C460.635 266.783 459.474 265.61 458.042 265.61C456.609 265.61 455.448 266.783 455.448 268.23C455.448 269.677 456.609 270.851 458.042 270.851C459.474 270.851 460.635 269.677 460.635 268.23Z" fill="#BBB9BA"/>
<path d="M443.27 268.23C443.27 266.783 442.109 265.61 440.677 265.61C439.244 265.61 438.083 266.783 438.083 268.23C438.083 269.677 439.244 270.851 440.677 270.851C442.109 270.851 443.27 269.677 443.27 268.23Z" fill="#BBB9BA"/>
<path d="M423.323 270.851C424.762 270.851 425.917 269.671 425.917 268.23C425.917 266.777 424.75 265.61 423.323 265.61C421.885 265.61 420.73 266.789 420.73 268.23C420.718 269.671 421.885 270.851 423.323 270.851Z" fill="#BBB9BA"/>
<path d="M405.959 270.851C407.397 270.851 408.552 269.671 408.552 268.23C408.552 266.777 407.385 265.61 405.959 265.61C404.52 265.61 403.365 266.789 403.365 268.23C403.365 269.671 404.52 270.851 405.959 270.851Z" fill="#BBB9BA"/>
<path d="M391.187 268.23C391.187 266.783 390.026 265.61 388.594 265.61C387.161 265.61 386 266.783 386 268.23C386 269.677 387.161 270.851 388.594 270.851C390.026 270.851 391.187 269.677 391.187 268.23Z" fill="#BBB9BA"/>
<path d="M475.406 285C476.845 285 478 283.821 478 282.38C478 280.927 476.833 279.759 475.406 279.759C473.968 279.759 472.813 280.939 472.813 282.38C472.801 283.821 473.968 285 475.406 285Z" fill="#BBB9BA"/>
<path d="M458.042 285C459.48 285 460.635 283.821 460.635 282.38C460.635 280.927 459.468 279.759 458.042 279.759C456.603 279.759 455.448 280.939 455.448 282.38C455.448 283.821 456.603 285 458.042 285Z" fill="#BBB9BA"/>
<path d="M440.677 285C442.115 285 443.27 283.821 443.27 282.38C443.27 280.927 442.103 279.759 440.677 279.759C439.238 279.759 438.083 280.939 438.083 282.38C438.083 283.821 439.25 285 440.677 285Z" fill="#BBB9BA"/>
<path d="M423.323 285C424.762 285 425.917 283.821 425.917 282.38C425.917 280.927 424.75 279.759 423.323 279.759C421.885 279.759 420.73 280.939 420.73 282.38C420.718 283.821 421.885 285 423.323 285Z" fill="#BBB9BA"/>
<path d="M405.959 285C407.397 285 408.552 283.821 408.552 282.38C408.552 280.927 407.385 279.759 405.959 279.759C404.52 279.759 403.365 280.939 403.365 282.38C403.365 283.821 404.52 285 405.959 285Z" fill="#BBB9BA"/>
<path d="M388.594 285C390.032 285 391.187 283.821 391.187 282.38C391.187 280.927 390.02 279.759 388.594 279.759C387.167 279.759 386 280.927 386 282.38C386 283.821 387.167 285 388.594 285Z" fill="#BBB9BA"/>
</g>
<path d="M114 294.51C120 299.51 118 328.91 136.76 316.26C155.52 303.61 123.56 296.12 125.38 288.95C127.94 278.95 170.15 290.95 163.07 271.75C155.99 252.55 130.75 281.43 124.12 274.28C118.02 267.7 148.4 243.92 134.24 239.88C120.08 235.84 123.09 270.23 114 270.23C106.9 270.23 108.23 237.35 95.18 248.98C82.13 260.61 110.65 272.08 106.92 279.3C104.08 284.79 81.63 271.24 82.64 283.89C83.65 296.54 107.6 289.22 114 294.51Z" fill="#47C2C9"/>
<path d="M118 279.47C118 279.47 104.36 296 105.88 341.05" stroke="#263238" stroke-linecap="round" stroke-linejoin="round"/>
<path d="M144.63 302.9C142.21 298.03 122.14 294.7 133.63 284.13C145.12 273.56 145.08 296.22 150.19 296.13C157.34 296.01 155.95 265.71 167.75 273.53C179.55 281.35 156.09 293.72 159.85 299.31C163.3 304.46 184.12 287.82 184.59 297.99C185.06 308.16 162.41 300.63 160.96 306.76C159.83 311.53 182.15 315.87 172.25 322.76C162.35 329.65 159.18 308.69 153.74 310.05C149.59 311.05 155.13 328.34 146.79 325.64C138.45 322.94 147.17 308 144.63 302.9Z" fill="#47C2C9"/>
<path opacity="0.3" d="M144.63 302.9C142.21 298.03 122.14 294.7 133.63 284.13C145.12 273.56 145.08 296.22 150.19 296.13C157.34 296.01 155.95 265.71 167.75 273.53C179.55 281.35 156.09 293.72 159.85 299.31C163.3 304.46 184.12 287.82 184.59 297.99C185.06 308.16 162.41 300.63 160.96 306.76C159.83 311.53 182.15 315.87 172.25 322.76C162.35 329.65 159.18 308.69 153.74 310.05C149.59 311.05 155.13 328.34 146.79 325.64C138.45 322.94 147.17 308 144.63 302.9Z" fill="black"/>
<path d="M155 303.11C155 303.11 116.13 299.06 112.29 341.05" stroke="#263238" stroke-linecap="round" stroke-linejoin="round"/>
<path d="M80.84 298.56C74.84 303.56 76.84 332.96 58.08 320.31C39.32 307.66 71.29 300.16 69.46 293C66.91 283 24.69 295 31.78 275.8C38.87 256.6 64.09 285.49 70.78 278.33C76.87 271.76 46.5 247.98 60.66 243.93C74.82 239.88 71.77 274.29 80.89 274.29C87.99 274.29 86.67 241.4 99.72 253.04C112.77 264.68 84.24 276.14 87.98 283.36C90.81 288.85 113.27 275.3 112.26 287.94C111.25 300.58 87.21 293.27 80.84 298.56Z" fill="#47C2C9"/>
<path opacity="0.3" d="M80.84 298.56C74.84 303.56 76.84 332.96 58.08 320.31C39.32 307.66 71.29 300.16 69.46 293C66.91 283 24.69 295 31.78 275.8C38.87 256.6 64.09 285.49 70.78 278.33C76.87 271.76 46.5 247.98 60.66 243.93C74.82 239.88 71.77 274.29 80.89 274.29C87.99 274.29 86.67 241.4 99.72 253.04C112.77 264.68 84.24 276.14 87.98 283.36C90.81 288.85 113.27 275.3 112.26 287.94C111.25 300.58 87.21 293.27 80.84 298.56Z" fill="#FFBE9D"/>
<path d="M76.54 283.52C76.54 283.52 94.24 307.16 98.29 346.61" stroke="#263238" stroke-linecap="round" stroke-linejoin="round"/>
<path d="M89.21 408.34H116.81C119.372 408.351 121.844 407.396 123.733 405.665C125.622 403.933 126.789 401.553 127 399L131.34 348C131.453 346.599 131.275 345.19 130.817 343.861C130.359 342.533 129.631 341.314 128.678 340.28C127.726 339.247 126.569 338.422 125.282 337.857C123.995 337.293 122.605 337.001 121.2 337H84.87C83.465 337.001 82.0754 337.293 80.7889 337.857C79.5024 338.422 78.3468 339.247 77.395 340.281C76.4433 341.314 75.716 342.534 75.259 343.862C74.802 345.191 74.6253 346.6 74.74 348L79.08 399C79.2883 401.544 80.4456 403.917 82.3222 405.647C84.1988 407.377 86.6575 408.338 89.21 408.34Z" fill="#47C2C9" stroke="#263238" stroke-linecap="round" stroke-linejoin="round"/>
<path d="M295.88 335.1C286.65 335.1 260.01 329.1 260.01 329.1H331.75C331.75 329.1 305.1 335.1 295.88 335.1Z" fill="#263238" stroke="#263238" stroke-linecap="round" stroke-linejoin="round"/>
<path d="M304.1 332.09H287.66V343.36H304.1V332.09Z" fill="#858585" stroke="#263238" stroke-linecap="round" stroke-linejoin="round"/>
<path d="M306.53 343.36H285.23V391.81H306.53V343.36Z" fill="#999999" stroke="#263238" stroke-linecap="round" stroke-linejoin="round"/>
<path d="M335.89 314.71H322C323.54 305.17 324.68 295.45 325.38 285.82H339.22C338.56 295.45 337.43 305.17 335.89 314.71Z" fill="#858585" stroke="#263238" stroke-linecap="round" stroke-linejoin="round"/>
<path d="M356.92 200.48H297.24C290.24 200.48 285.63 206.41 286.99 213.39C290.801 234.713 293.08 256.281 293.81 277.93C293.803 279.407 294.09 280.87 294.654 282.236C295.217 283.601 296.047 284.84 297.093 285.882C298.14 286.924 299.383 287.748 300.751 288.305C302.118 288.863 303.583 289.143 305.06 289.13H355.3C358.422 289.099 361.431 287.953 363.783 285.899C366.136 283.846 367.677 281.02 368.13 277.93C370.552 256.507 371.428 234.938 370.75 213.39C370.42 206.41 363.93 200.48 356.92 200.48Z" fill="#858585" stroke="#263238" stroke-linecap="round" stroke-linejoin="round"/>
<path d="M360.17 213.39C360.848 234.938 359.972 256.507 357.55 277.93C357.097 281.02 355.556 283.846 353.203 285.899C350.851 287.953 347.842 289.099 344.72 289.13H305.06C303.583 289.143 302.118 288.863 300.751 288.305C299.383 287.748 298.14 286.924 297.093 285.882C296.047 284.84 295.217 283.601 294.654 282.236C294.09 280.87 293.803 279.407 293.81 277.93C293.084 256.282 290.808 234.713 287 213.39C285.64 206.39 290.23 200.48 297.25 200.48H346.34C353.35 200.48 359.84 206.41 360.17 213.39Z" fill="#999999" stroke="#263238" stroke-linecap="round" stroke-linejoin="round"/>
<path d="M331.75 400.51C331.75 400.776 331.691 401.039 331.576 401.279C331.461 401.519 331.294 401.73 331.087 401.897C330.879 402.064 330.637 402.182 330.378 402.244C330.119 402.305 329.85 402.307 329.59 402.25C323.06 400.83 303.51 396.71 295.88 396.71C288.25 396.71 268.69 400.83 262.16 402.25C261.901 402.307 261.632 402.305 261.373 402.244C261.115 402.183 260.873 402.064 260.667 401.897C260.46 401.73 260.294 401.519 260.18 401.278C260.066 401.038 260.008 400.776 260.01 400.51C260.009 399.441 260.375 398.404 261.047 397.572C261.718 396.74 262.655 396.164 263.7 395.94C271.34 394.3 288.77 390.73 295.88 390.73C302.99 390.73 320.42 394.3 328.06 395.94C329.104 396.166 330.04 396.743 330.711 397.574C331.383 398.405 331.749 399.441 331.75 400.51Z" fill="#263238" stroke="#263238" stroke-linecap="round" stroke-linejoin="round"/>
<path d="M260 396.91C258.785 396.908 257.596 397.267 256.585 397.941C255.574 398.614 254.785 399.573 254.319 400.696C253.853 401.818 253.731 403.053 253.968 404.245C254.204 405.437 254.789 406.532 255.648 407.392C256.508 408.251 257.603 408.836 258.795 409.072C259.987 409.309 261.222 409.187 262.344 408.721C263.467 408.255 264.426 407.466 265.099 406.455C265.773 405.444 266.132 404.255 266.13 403.04C266.127 401.415 265.481 399.857 264.332 398.708C263.183 397.559 261.625 396.913 260 396.91ZM260 406.37C259.341 406.372 258.696 406.178 258.147 405.814C257.598 405.449 257.17 404.93 256.916 404.321C256.663 403.713 256.596 403.043 256.723 402.396C256.85 401.75 257.167 401.156 257.632 400.689C258.097 400.222 258.691 399.904 259.337 399.775C259.983 399.645 260.653 399.711 261.262 399.962C261.871 400.214 262.392 400.641 262.758 401.189C263.125 401.737 263.32 402.381 263.32 403.04C263.32 403.921 262.971 404.767 262.348 405.391C261.726 406.015 260.882 406.367 260 406.37Z" fill="#858585" stroke="#263238" stroke-linecap="round" stroke-linejoin="round"/>
<path d="M295.88 396.91C294.663 396.906 293.472 397.264 292.458 397.939C291.445 398.613 290.655 399.574 290.189 400.698C289.722 401.823 289.601 403.06 289.839 404.254C290.078 405.448 290.666 406.544 291.529 407.402C292.392 408.261 293.491 408.844 294.686 409.077C295.881 409.309 297.118 409.182 298.24 408.71C299.362 408.238 300.319 407.443 300.988 406.427C301.658 405.41 302.01 404.217 302 403C301.987 401.384 301.337 399.838 300.191 398.698C299.045 397.558 297.496 396.915 295.88 396.91ZM295.88 406.37C295.223 406.372 294.58 406.179 294.031 405.816C293.483 405.453 293.055 404.936 292.8 404.33C292.546 403.724 292.476 403.057 292.6 402.411C292.724 401.766 293.037 401.171 293.498 400.703C293.959 400.235 294.549 399.913 295.193 399.78C295.836 399.646 296.505 399.706 297.115 399.951C297.724 400.197 298.248 400.617 298.619 401.16C298.99 401.702 299.192 402.343 299.2 403C299.205 403.44 299.123 403.876 298.959 404.284C298.795 404.692 298.551 405.064 298.242 405.377C297.934 405.69 297.566 405.939 297.161 406.11C296.755 406.28 296.32 406.369 295.88 406.37Z" fill="#858585" stroke="#263238" stroke-linecap="round" stroke-linejoin="round"/>
<path d="M331 396.91C329.785 396.91 328.598 397.27 327.588 397.945C326.578 398.62 325.791 399.58 325.327 400.703C324.862 401.825 324.741 403.06 324.979 404.251C325.217 405.443 325.802 406.537 326.662 407.395C327.522 408.253 328.617 408.837 329.808 409.073C331 409.309 332.235 409.186 333.357 408.72C334.478 408.253 335.437 407.465 336.11 406.454C336.784 405.443 337.142 404.255 337.14 403.04C337.14 402.234 336.981 401.436 336.673 400.692C336.364 399.947 335.911 399.271 335.341 398.702C334.771 398.132 334.094 397.681 333.349 397.374C332.604 397.066 331.806 396.909 331 396.91ZM331 406.37C330.341 406.37 329.698 406.175 329.15 405.809C328.602 405.443 328.176 404.923 327.924 404.314C327.672 403.706 327.606 403.036 327.734 402.39C327.863 401.744 328.18 401.151 328.645 400.685C329.111 400.22 329.704 399.902 330.35 399.774C330.996 399.645 331.666 399.711 332.274 399.963C332.883 400.215 333.403 400.642 333.769 401.19C334.135 401.737 334.33 402.381 334.33 403.04C334.33 403.923 333.979 404.77 333.355 405.395C332.73 406.019 331.883 406.37 331 406.37Z" fill="#858585" stroke="#263238" stroke-linecap="round" stroke-linejoin="round"/>
<path d="M314.06 312.77C290.118 313.53 266.152 312.47 242.37 309.6C241.272 309.402 240.144 309.451 239.068 309.744C237.992 310.036 236.994 310.566 236.148 311.293C235.302 312.02 234.629 312.927 234.178 313.947C233.727 314.967 233.509 316.075 233.54 317.19V318.36C233.598 320.817 234.512 323.176 236.124 325.031C237.736 326.886 239.945 328.12 242.37 328.52C266.152 331.385 290.118 332.445 314.06 331.69V312.77Z" fill="#999999" stroke="#263238" stroke-linecap="round" stroke-linejoin="round"/>
<path d="M351.66 328.21C336.8 330.07 322.07 331.3 307.11 331.94C306.248 331.967 305.39 331.82 304.586 331.507C303.783 331.195 303.05 330.723 302.433 330.121C301.816 329.519 301.327 328.798 300.995 328.002C300.662 327.207 300.494 326.352 300.5 325.49V319.74C300.518 317.983 301.217 316.302 302.45 315.05C303.683 313.798 305.354 313.074 307.11 313.03C322.11 312.38 336.8 311.15 351.66 309.29C352.474 309.137 353.312 309.169 354.112 309.382C354.912 309.596 355.654 309.986 356.283 310.524C356.912 311.063 357.413 311.735 357.748 312.492C358.084 313.25 358.245 314.072 358.22 314.9V320.65C358.172 322.475 357.491 324.226 356.295 325.605C355.098 326.984 353.46 327.905 351.66 328.21Z" fill="#858585" stroke="#263238" stroke-linecap="round" stroke-linejoin="round"/>
<path d="M252.17 406C252.17 402.66 251.44 396 247.5 387.35L242.37 368.85L226.37 375.68L230.87 389.85C230.87 389.85 217.12 396.41 212.04 398.18C208.66 399.36 198.54 401.68 199.04 406.02C199.04 406.326 199.1 406.629 199.217 406.911C199.335 407.194 199.506 407.451 199.723 407.667C199.939 407.884 200.196 408.055 200.478 408.172C200.761 408.29 201.064 408.35 201.37 408.35H249.83C250.139 408.351 250.444 408.291 250.729 408.173C251.015 408.056 251.274 407.883 251.491 407.664C251.709 407.445 251.881 407.186 251.998 406.9C252.114 406.614 252.173 406.308 252.17 406Z" fill="#FFBE9D" stroke="#263238" stroke-linecap="round" stroke-linejoin="round"/>
<path d="M243.36 395.17C240.86 397.01 227.53 399.34 230.87 396.67C234.21 394 230.87 389.84 230.87 389.84C230.87 389.84 217.12 396.4 212.04 398.17C208.66 399.35 198.54 401.67 199.04 406.01C199.04 406.316 199.1 406.619 199.217 406.901C199.335 407.184 199.506 407.441 199.723 407.657C199.939 407.874 200.196 408.045 200.478 408.162C200.761 408.28 201.064 408.34 201.37 408.34H249.83C250.138 408.341 250.443 408.281 250.728 408.163C251.013 408.045 251.271 407.872 251.488 407.653C251.705 407.435 251.876 407.175 251.991 406.889C252.107 406.604 252.164 406.298 252.16 405.99C251.996 400.924 250.961 395.924 249.1 391.21C246.35 391.24 245.86 393.34 243.36 395.17Z" fill="#47C2C9" stroke="#263238" stroke-linecap="round" stroke-linejoin="round"/>
<path d="M263.74 408.34H299.24C299.595 408.339 299.939 408.215 300.213 407.989C300.486 407.763 300.673 407.448 300.74 407.1C301.28 404.28 301.16 397.97 297.96 389.59L297.64 372.59L279.46 375.68L281.76 390.18C281.76 390.18 274.44 398.24 270.96 399.68C268.52 400.68 262.96 400.8 262.22 406.68C262.201 406.891 262.225 407.104 262.293 407.305C262.361 407.505 262.469 407.69 262.613 407.846C262.756 408.003 262.93 408.127 263.124 408.212C263.318 408.297 263.528 408.341 263.74 408.34Z" fill="#FFBE9D" stroke="#263238" stroke-linecap="round" stroke-linejoin="round"/>
<path d="M292 395.24C288.25 397.86 285.48 398.17 287.23 394.24C288.98 390.31 281.8 390.17 281.8 390.17C281.8 390.17 274.48 398.23 271 399.67C268.56 400.67 263 400.79 262.26 406.67C262.235 406.884 262.255 407.101 262.32 407.307C262.385 407.513 262.492 407.702 262.636 407.863C262.78 408.024 262.956 408.152 263.154 408.24C263.351 408.327 263.564 408.371 263.78 408.37H299.28C299.635 408.369 299.979 408.245 300.253 408.019C300.526 407.793 300.713 407.479 300.78 407.13C301.32 404.31 301.2 398 298 389.62C295.22 390.26 295.72 392.61 292 395.24Z" fill="#47C2C9" stroke="#263238" stroke-linecap="round" stroke-linejoin="round"/>
<path d="M260.21 278.51C260.21 278.51 256.63 282.17 242 284.51C227.37 286.85 197 294.17 197.37 306.17C197.74 318.17 225.71 382.17 225.71 382.17C225.71 382.17 239.71 379.51 246.21 375.51C246.21 375.51 234.94 329.84 226.49 317.84C226.49 317.84 264.42 313.17 285.4 304.51C306.38 295.85 294.04 276.11 294.04 276.11L260.21 278.51Z" fill="#263238" stroke="#263238" stroke-linecap="round" stroke-linejoin="round"/>
<path d="M284 276.82C284 276.82 289.38 285.82 285.36 290.82C281.34 295.82 258.51 305.15 261.09 316.49C263.67 327.83 272.19 343.82 277.74 381.82C277.74 381.82 290.67 379.82 299.33 376.15C299.33 376.15 300.77 337.49 290.72 320.82C290.72 320.82 319.5 315.49 322.42 305.82C325.34 296.15 319.88 281.37 319.77 276.09L284 276.82Z" fill="#263238" stroke="#263238" stroke-linecap="round" stroke-linejoin="round"/>
<path d="M266.7 291.14C266.034 291.09 265.366 291.09 264.7 291.14" stroke="#7F7F7F" stroke-width="0.75" stroke-linecap="round" stroke-linejoin="round"/>
<path d="M268 285.17C268 285.17 273.91 286.91 276.23 294.62C276.26 294.747 276.25 294.879 276.2 295C276.15 295.12 276.064 295.222 275.954 295.291C275.843 295.359 275.713 295.391 275.584 295.382C275.454 295.373 275.33 295.323 275.23 295.24C273.646 293.61 271.695 292.383 269.54 291.66" stroke="#7F7F7F" stroke-width="0.75" stroke-linecap="round" stroke-linejoin="round"/>
<path d="M223.71 317.42C223.71 314.17 209.71 312.42 213.46 309.42C217.21 306.42 225.71 316.17 225.71 316.17" stroke="#7F7F7F" stroke-width="0.75" stroke-linecap="round" stroke-linejoin="round"/>
<path d="M292.5 330.42C292.5 326.7 279.12 324.67 279.79 320.67C280.46 316.67 288.96 324.55 288.96 324.55" stroke="#7F7F7F" stroke-width="0.75" stroke-linecap="round" stroke-linejoin="round"/>
<path d="M224.23 382.4L225.7 385.8C225.781 385.988 225.926 386.142 226.108 386.235C226.291 386.328 226.5 386.355 226.7 386.31C229.93 385.58 243.41 382.4 248.14 379C248.277 378.899 248.381 378.76 248.438 378.599C248.496 378.439 248.503 378.265 248.46 378.1L247.54 374.31C247.509 374.179 247.448 374.057 247.362 373.954C247.276 373.85 247.167 373.768 247.044 373.714C246.921 373.66 246.787 373.635 246.653 373.641C246.519 373.647 246.388 373.684 246.27 373.75C244.14 374.91 238.21 377.68 224.82 381.2C224.698 381.233 224.584 381.292 224.486 381.372C224.389 381.452 224.309 381.553 224.254 381.666C224.198 381.78 224.167 381.904 224.163 382.031C224.159 382.157 224.182 382.283 224.23 382.4Z" fill="#999999" stroke="#263238" stroke-linecap="round" stroke-linejoin="round"/>
<path d="M276.15 379.6C276.133 379.483 276.147 379.363 276.189 379.253C276.232 379.142 276.303 379.044 276.394 378.969C276.486 378.894 276.595 378.843 276.711 378.822C276.828 378.801 276.948 378.811 277.06 378.85C278.685 379.357 280.422 379.381 282.06 378.92C285.77 378.08 296.38 374.72 299.54 373.71C299.644 373.677 299.754 373.669 299.861 373.686C299.969 373.704 300.07 373.746 300.158 373.811C300.246 373.875 300.317 373.959 300.366 374.057C300.415 374.154 300.44 374.261 300.44 374.37V378.79C300.441 378.924 300.403 379.055 300.33 379.167C300.257 379.279 300.153 379.367 300.03 379.42C297.55 380.53 284.26 386.22 277.31 384.67C277.174 384.638 277.052 384.566 276.959 384.462C276.866 384.358 276.807 384.228 276.79 384.09L276.15 379.6Z" fill="#999999" stroke="#263238" stroke-linecap="round" stroke-linejoin="round"/>
<path d="M286.85 287C286.753 288.382 286.249 289.705 285.4 290.8C282.46 294.45 269.53 300.4 263.74 307.8" stroke="#7F7F7F" stroke-linecap="round" stroke-linejoin="round"/>
<path d="M286.22 282C286.444 282.737 286.614 283.489 286.73 284.25" stroke="#7F7F7F" stroke-linecap="round" stroke-linejoin="round"/>
<path d="M209.64 400.42C210.456 401.908 211.046 403.508 211.39 405.17H247.5C247.634 403.596 248.346 402.128 249.5 401.05" stroke="#263238" stroke-linecap="round" stroke-linejoin="round"/>
<path d="M272.39 400.42C272.39 400.42 277.39 400.8 279.26 405.17H298.14C298.71 403.865 299.048 402.471 299.14 401.05" stroke="#263238" stroke-linecap="round" stroke-linejoin="round"/>
<path d="M242.79 222C243.25 223.76 243.73 225.51 244.21 227.22C249.21 245.22 255.71 279.47 255.71 279.47C287.71 286.22 321.46 279.47 321.46 279.47C321.64 272.01 320.73 262.16 319.72 251.81C324.96 250.36 328.72 245.52 328.96 237.47C329.21 227.72 327.44 210.17 326.46 201.97C325.59 194.76 326.21 190.47 315.04 184.97C309.44 181.74 300.14 180.21 288.71 178.68C266.21 175.68 249.97 180.23 244.21 182.68C239.64 181.48 238.37 186.84 238.37 186.84C235.84 184.93 232.9 193.03 232.9 193.03C225.5 202.47 219.68 218.37 217.74 224.03C217.311 225.267 216.524 226.35 215.48 227.14C210.23 231.14 213.15 236.09 213.15 236.09L223.9 239.38C223.9 239.38 229.11 240.74 233.09 233.89C236.41 228.17 241.85 218.46 242.79 222Z" fill="#47C2C9"/>
<mask id="mask0_25_172" style="mask-type:luminance" maskUnits="userSpaceOnUse" x="212" y="177" width="117" height="106">
<path d="M242.79 222C243.25 223.76 243.73 225.51 244.21 227.22C249.21 245.22 255.71 279.47 255.71 279.47C287.71 286.22 321.46 279.47 321.46 279.47C321.64 272.01 320.73 262.16 319.72 251.81C324.96 250.36 328.72 245.52 328.96 237.47C329.21 227.72 327.44 210.17 326.46 201.97C325.59 194.76 326.21 190.47 315.04 184.97C309.44 181.74 300.14 180.21 288.71 178.68C266.21 175.68 249.97 180.23 244.21 182.68C239.64 181.48 238.37 186.84 238.37 186.84C235.84 184.93 232.9 193.03 232.9 193.03C225.5 202.47 219.68 218.37 217.74 224.03C217.311 225.267 216.524 226.35 215.48 227.14C210.23 231.14 213.15 236.09 213.15 236.09L223.9 239.38C223.9 239.38 229.11 240.74 233.09 233.89C236.41 228.17 241.85 218.46 242.79 222Z" fill="white"/>
</mask>
<g mask="url(#mask0_25_172)">
<path opacity="0.3" d="M225.88 234.87C225.88 234.87 225.63 229.87 221.63 229C217.63 228.13 222.75 226.63 225.88 227.38C229.01 228.13 228.28 225.38 230.96 220.88C233.64 216.38 234.96 212.82 237.22 215.41C239.48 218 241.83 218.41 242.79 221.95C243.75 225.49 239 233.95 239 233.95L231.54 239.74L227.75 241.86H222.1L220.16 236.97L225.88 234.87Z" fill="black"/>
</g>
<path d="M242.79 222C243.25 223.76 243.73 225.51 244.21 227.22C249.21 245.22 255.71 279.47 255.71 279.47C287.71 286.22 321.46 279.47 321.46 279.47C321.64 272.01 320.73 262.16 319.72 251.81C324.96 250.36 328.72 245.52 328.96 237.47C329.21 227.72 327.44 210.17 326.46 201.97C325.59 194.76 326.21 190.47 315.04 184.97C309.44 181.74 300.14 180.21 288.71 178.68C266.21 175.68 249.97 180.23 244.21 182.68C239.64 181.48 238.37 186.84 238.37 186.84C235.84 184.93 232.9 193.03 232.9 193.03C225.5 202.47 219.68 218.37 217.74 224.03C217.311 225.267 216.524 226.35 215.48 227.14C210.23 231.14 213.15 236.09 213.15 236.09L223.9 239.38C223.9 239.38 229.11 240.74 233.09 233.89C236.41 228.17 241.85 218.46 242.79 222Z" stroke="#263238" stroke-linecap="round" stroke-linejoin="round"/>
<path opacity="0.3" d="M321.46 279.42C321.486 272.994 321.168 266.572 320.51 260.18C321.6 275.41 289.89 280.18 288.89 271.92C287.89 263.66 319.72 251.76 302.4 255.92C287.29 259.55 258 256.08 250.8 255.14C253.57 268.14 255.71 279.42 255.71 279.42C287.71 286.17 321.46 279.42 321.46 279.42Z" fill="black"/>
<path opacity="0.3" d="M306.92 202.92C306.92 202.92 302.39 216.17 302.4 223.17C302.41 230.17 289.71 234.87 289.68 234.87C296.49 233.49 303.11 231.66 306.27 230.74C306.814 230.586 307.288 230.247 307.609 229.782C307.93 229.316 308.079 228.753 308.03 228.19C307.223 219.791 306.853 211.357 306.92 202.92Z" fill="black"/>
<path d="M238.6 199.59C238.643 205.833 239.77 212.022 241.93 217.88C241.993 218.052 241.999 218.239 241.948 218.414C241.897 218.59 241.791 218.745 241.646 218.856C241.502 218.968 241.325 219.03 241.142 219.034C240.959 219.039 240.78 218.984 240.63 218.88C238.91 217.65 236.48 215.15 234.29 210.11" stroke="#263238" stroke-width="0.75" stroke-linecap="round" stroke-linejoin="round"/>
<path d="M323.46 240.42C320.82 231.67 316.25 229.48 312.71 229.26C312.601 229.244 312.498 229.197 312.416 229.123C312.334 229.05 312.275 228.953 312.247 228.847C312.219 228.74 312.224 228.627 312.26 228.523C312.296 228.418 312.362 228.327 312.45 228.26C314.51 227.15 318.52 226.26 323.45 231.72" stroke="#263238" stroke-width="0.75" stroke-linecap="round" stroke-linejoin="round"/>
<path d="M272.73 215.38C272.688 215.748 272.511 216.088 272.235 216.334C271.958 216.58 271.601 216.717 271.23 216.717C270.86 216.717 270.502 216.58 270.226 216.334C269.949 216.088 269.773 215.748 269.73 215.38C269.706 215.169 269.726 214.954 269.79 214.751C269.855 214.548 269.961 214.361 270.103 214.202C270.244 214.043 270.418 213.916 270.612 213.829C270.807 213.742 271.017 213.697 271.23 213.697C271.443 213.697 271.654 213.742 271.848 213.829C272.042 213.916 272.216 214.043 272.357 214.202C272.499 214.361 272.606 214.548 272.67 214.751C272.734 214.954 272.755 215.169 272.73 215.38Z" fill="#999999" stroke="#263238" stroke-width="0.75" stroke-linecap="round" stroke-linejoin="round"/>
<path d="M274.76 232.4C274.76 232.697 274.672 232.987 274.507 233.233C274.342 233.48 274.108 233.672 273.834 233.786C273.56 233.899 273.258 233.929 272.967 233.871C272.676 233.813 272.409 233.67 272.199 233.461C271.99 233.251 271.847 232.984 271.789 232.693C271.731 232.402 271.761 232.1 271.874 231.826C271.988 231.552 272.18 231.318 272.427 231.153C272.673 230.988 272.963 230.9 273.26 230.9C273.658 230.9 274.039 231.058 274.321 231.339C274.602 231.621 274.76 232.002 274.76 232.4Z" fill="#999999" stroke="#263238" stroke-width="0.75" stroke-linecap="round" stroke-linejoin="round"/>
<path d="M279.79 273.42C279.792 273.719 279.705 274.012 279.54 274.262C279.376 274.511 279.141 274.706 278.865 274.822C278.589 274.938 278.285 274.969 277.992 274.912C277.698 274.855 277.428 274.712 277.216 274.501C277.004 274.29 276.859 274.021 276.8 273.728C276.741 273.435 276.77 273.131 276.884 272.854C276.998 272.578 277.192 272.341 277.44 272.175C277.689 272.009 277.981 271.92 278.28 271.92C278.679 271.92 279.061 272.078 279.344 272.359C279.627 272.64 279.787 273.021 279.79 273.42Z" fill="#999999" stroke="#263238" stroke-linecap="round" stroke-linejoin="round"/>
<path d="M251.07 243.55C251.07 243.55 246.16 248.23 248.5 248.31C250.84 248.39 253.79 245.17 256.5 244.8C259.21 244.43 254.83 242.8 254.83 242.8L251.07 243.55Z" fill="#FFBE9D" stroke="#263238" stroke-linecap="round" stroke-linejoin="round"/>
<path d="M279.74 238.28C279.52 238.083 279.262 237.933 278.981 237.84C278.701 237.747 278.404 237.713 278.11 237.74C275.71 237.94 268.81 238.46 266.21 238.3C261.59 238.01 247.98 235.13 247.98 235.13C247.667 235.077 247.346 235.094 247.04 235.18L238.61 237.66C238.303 237.749 238.022 237.91 237.79 238.13L232.69 242.81C232.522 242.967 232.381 243.149 232.27 243.35L231.21 245.29C230.991 245.688 230.909 246.148 230.976 246.597C231.042 247.047 231.255 247.462 231.58 247.78L240 248C240.52 248.025 241.03 247.845 241.42 247.5L243.92 245.36C244.087 245.215 244.232 245.047 244.35 244.86C244.96 243.86 247.35 240.56 251.05 240.86C251.05 240.86 243.05 245.11 244.56 246.86C246.07 248.61 252.19 243.61 254.19 244.11C256.19 244.61 256.32 249.52 267.19 247.74C267.676 247.658 268.174 247.682 268.65 247.81L278.55 250.58C278.844 250.661 279.15 250.683 279.452 250.644C279.755 250.606 280.046 250.507 280.31 250.354C280.573 250.202 280.803 249.998 280.987 249.755C281.171 249.512 281.305 249.235 281.38 248.94C282.15 246.1 282.83 241.1 279.74 238.28Z" fill="#FFBE9D" stroke="#263238" stroke-linecap="round" stroke-linejoin="round"/>
<path d="M249.16 236.92L247.04 237.28C246.006 237.455 245.041 237.912 244.25 238.6L242 240.53C241.617 240.875 241.281 241.268 241 241.7L239.55 243.91C239.393 244.154 239.215 244.385 239.02 244.6C238.16 245.6 235.79 248.37 238.35 247.99" fill="#FFBE9D"/>
<path d="M249.16 236.92L247.04 237.28C246.006 237.455 245.041 237.912 244.25 238.6L242 240.53C241.617 240.875 241.281 241.268 241 241.7L239.55 243.91C239.393 244.154 239.215 244.385 239.02 244.6C238.16 245.6 235.79 248.37 238.35 247.99" stroke="#263238" stroke-linecap="round" stroke-linejoin="round"/>
<path d="M243.19 237.67L241 238.27C240.316 238.437 239.688 238.782 239.18 239.27L237.47 240.91C237.302 241.059 237.151 241.227 237.02 241.41L234.21 245.14C234.21 245.14 232.71 247.78 234.21 247.83" fill="#FFBE9D"/>
<path d="M243.19 237.67L241 238.27C240.316 238.437 239.688 238.782 239.18 239.27L237.47 240.91C237.302 241.059 237.151 241.227 237.02 241.41L234.21 245.14C234.21 245.14 232.71 247.78 234.21 247.83" stroke="#263238" stroke-linecap="round" stroke-linejoin="round"/>
<path d="M307 200.8C306.788 209.942 307.121 219.088 308 228.19C308.049 228.753 307.9 229.316 307.579 229.782C307.258 230.247 306.784 230.586 306.24 230.74C298.289 233.091 290.192 234.911 282 236.19" stroke="#263238" stroke-linecap="round" stroke-linejoin="round"/>
<path d="M307.48 194.6C307.35 195.6 307.24 196.69 307.16 197.8" stroke="#263238" stroke-width="0.75" stroke-linecap="round" stroke-linejoin="round"/>
<path d="M310.83 185.24C309.69 186.24 308.83 188.05 308.24 190.45" stroke="#263238" stroke-width="0.75" stroke-linecap="round" stroke-linejoin="round"/>
<path d="M260.76 179.3C260.76 179.3 261.39 177.3 264.76 176.17C268.13 175.04 279.82 173.25 285.83 176.17C291.84 179.09 280.33 194.98 280.33 194.98L275 202.36L270.25 205.92L268.13 199.59L265.38 196.73C265.38 196.73 259.44 191.86 259.94 187.05C260.44 182.24 260.76 179.3 260.76 179.3Z" fill="#FFBE9D"/>
<path d="M290.27 178.88C289.33 175.59 285.04 174.67 285.04 174.67C264.54 171.17 260.21 178.67 260.21 178.67C257.696 185.444 257.696 192.896 260.21 199.67C260.21 199.67 266.04 197.25 267.04 199.67C268.04 202.09 269.87 207.25 269.87 207.25C272.653 205.681 275.081 203.553 277 201C280.17 196.83 287.61 201 287.61 201C292.43 192.67 290.27 178.88 290.27 178.88ZM285.27 178.64C277.33 203.56 270.33 204.64 270.33 204.64C268 195.48 266 197.48 262.83 191.75C260.29 187.15 261.15 181.33 261.59 179.2C261.642 178.946 261.749 178.706 261.905 178.499C262.061 178.291 262.26 178.121 262.49 178C270.37 174 280.01 175.47 283.98 176.34C284.226 176.391 284.458 176.493 284.661 176.64C284.865 176.787 285.035 176.975 285.16 177.192C285.286 177.409 285.364 177.65 285.39 177.9C285.416 178.149 285.389 178.402 285.31 178.64H285.27Z" fill="#47C2C9"/>
<mask id="mask1_25_172" style="mask-type:luminance" maskUnits="userSpaceOnUse" x="258" y="173" width="33" height="35">
<path d="M290.27 178.88C289.33 175.59 285.04 174.67 285.04 174.67C264.54 171.17 260.21 178.67 260.21 178.67C257.696 185.444 257.696 192.896 260.21 199.67C260.21 199.67 266.04 197.25 267.04 199.67C268.04 202.09 269.87 207.25 269.87 207.25C272.653 205.681 275.081 203.553 277 201C280.17 196.83 287.61 201 287.61 201C292.43 192.67 290.27 178.88 290.27 178.88ZM285.27 178.64C277.33 203.56 270.33 204.64 270.33 204.64C268 195.48 266 197.48 262.83 191.75C260.29 187.15 261.15 181.33 261.59 179.2C261.642 178.946 261.749 178.706 261.905 178.499C262.061 178.291 262.26 178.121 262.49 178C270.37 174 280.01 175.47 283.98 176.34C284.226 176.391 284.458 176.493 284.661 176.64C284.865 176.787 285.035 176.975 285.16 177.192C285.286 177.409 285.364 177.65 285.39 177.9C285.416 178.149 285.389 178.402 285.31 178.64H285.27Z" fill="white"/>
</mask>
<g mask="url(#mask1_25_172)">
<path opacity="0.4" d="M290.27 178.88C289.33 175.59 285.04 174.67 285.04 174.67C264.54 171.17 260.21 178.67 260.21 178.67C257.696 185.444 257.696 192.896 260.21 199.67C260.21 199.67 266.04 197.25 267.04 199.67C268.04 202.09 269.87 207.25 269.87 207.25C272.653 205.681 275.081 203.553 277 201C280.17 196.83 287.61 201 287.61 201C292.43 192.67 290.27 178.88 290.27 178.88ZM285.27 178.64C277.33 203.56 270.33 204.64 270.33 204.64C268 195.48 266 197.48 262.83 191.75C260.29 187.15 261.15 181.33 261.59 179.2C261.642 178.946 261.749 178.706 261.905 178.499C262.061 178.291 262.26 178.121 262.49 178C270.37 174 280.01 175.47 283.98 176.34C284.226 176.391 284.458 176.493 284.661 176.64C284.865 176.787 285.035 176.975 285.16 177.192C285.286 177.409 285.364 177.65 285.39 177.9C285.416 178.149 285.389 178.402 285.31 178.64H285.27Z" fill="#FFBE9D"/>
</g>
<path d="M290.27 178.88C289.33 175.59 285.04 174.67 285.04 174.67C264.54 171.17 260.21 178.67 260.21 178.67C257.696 185.444 257.696 192.896 260.21 199.67C260.21 199.67 266.04 197.25 267.04 199.67C268.04 202.09 269.87 207.25 269.87 207.25C272.653 205.681 275.081 203.553 277 201C280.17 196.83 287.61 201 287.61 201C292.43 192.67 290.27 178.88 290.27 178.88ZM285.27 178.64C277.33 203.56 270.33 204.64 270.33 204.64C268 195.48 266 197.48 262.83 191.75C260.29 187.15 261.15 181.33 261.59 179.2C261.642 178.946 261.749 178.706 261.905 178.499C262.061 178.291 262.26 178.121 262.49 178C270.37 174 280.01 175.47 283.98 176.34C284.226 176.391 284.458 176.493 284.661 176.64C284.865 176.787 285.035 176.975 285.16 177.192C285.286 177.409 285.364 177.65 285.39 177.9C285.416 178.149 285.389 178.402 285.31 178.64H285.27Z" stroke="#263238" stroke-linecap="round" stroke-linejoin="round"/>
<path d="M256.8 140.8C256.8 140.8 239.13 144.34 248.86 155.8C259.65 168.57 256.8 140.8 256.8 140.8Z" fill="#263238" stroke="#263238" stroke-linecap="round" stroke-linejoin="round"/>
<path d="M249.83 168.84C249.83 168.84 245.63 151.84 253.63 143.67C261.63 135.5 270.3 133.84 276.8 137.84C283.3 141.84 286 151.84 285 157C284 162.16 284.48 180.66 275.57 188.33C266.66 196 261.18 194.11 255.29 183.66C251.38 176.81 249.53 174.84 249.83 168.84Z" fill="#FFBE9D" stroke="#263238" stroke-linecap="round" stroke-linejoin="round"/>
<path d="M280.8 165.51C280.8 165.51 274.08 158.84 272.02 151.01C269.96 143.18 268.8 141.84 261.13 145.67C253.46 149.5 241.5 144.35 244.63 134.67C247.92 124.51 257.97 137.67 267.63 134.34C277.29 131.01 284.16 137.01 284.17 145.84C284.17 145.84 290.01 151.51 284.17 166.17L280.8 165.51Z" fill="#263238" stroke="#263238" stroke-linecap="round" stroke-linejoin="round"/>
<path d="M278.69 164.39C278.69 164.39 280.39 155.07 285.11 155.93C289.83 156.79 286.46 170.55 280.9 169.05" fill="#FFBE9D"/>
<path d="M278.69 164.39C278.69 164.39 280.39 155.07 285.11 155.93C289.83 156.79 286.46 170.55 280.9 169.05" stroke="#263238" stroke-linecap="round" stroke-linejoin="round"/>
<path d="M256.22 167.55C256.22 167.55 254.36 176.2 254.97 177.68C255.58 179.16 261.29 178.03 261.29 178.03" fill="#FFBE9D"/>
<path d="M256.22 167.55C256.22 167.55 254.36 176.2 254.97 177.68C255.58 179.16 261.29 178.03 261.29 178.03" stroke="#263238" stroke-linecap="round" stroke-linejoin="round"/>
<path d="M262.09 181.8C262.09 181.8 266.57 183.57 270.52 177.68L262.09 181.8Z" fill="#FFBE9D"/>
<path d="M262.09 181.8C262.09 181.8 266.57 183.57 270.52 177.68" stroke="#263238" stroke-linecap="round" stroke-linejoin="round"/>
<path d="M253.15 168.27C253.31 169.07 253.1 169.8 252.68 169.89C252.26 169.98 251.77 169.4 251.6 168.59C251.43 167.78 251.6 167.06 252.07 166.97C252.54 166.88 253 167.46 253.15 168.27Z" fill="#263238"/>
<path d="M264.11 167.39C264.28 168.19 264.11 168.92 263.64 169.01C263.17 169.1 262.74 168.51 262.57 167.71C262.4 166.91 262.57 166.18 263.04 166.09C263.51 166 264 166.58 264.11 167.39Z" fill="#263238"/>
<path d="M255.45 167.89C255.68 170.16 253.45 172.24 250.37 172.54C247.29 172.84 244.69 171.26 244.46 168.99C244.23 166.72 246.62 165.73 249.66 165.42C252.7 165.11 255.23 165.63 255.45 167.89Z" stroke="#263238" stroke-linecap="round" stroke-linejoin="round"/>
<path d="M269.6 166.48C269.83 168.74 267.55 170.83 264.52 171.13C261.49 171.43 258.84 169.84 258.61 167.58C258.38 165.32 260.77 164.31 263.81 164.01C266.85 163.71 269.38 164.21 269.6 166.48Z" stroke="#263238" stroke-linecap="round" stroke-linejoin="round"/>
<path d="M255.45 167.89L258.61 167.58" stroke="#263238" stroke-linecap="round" stroke-linejoin="round"/>
<path d="M269.22 165.34L280.84 158.49" stroke="#263238" stroke-linecap="round" stroke-linejoin="round"/>
<path d="M282.83 176.01L283.38 177.34" stroke="#263238" stroke-linecap="round" stroke-linejoin="round"/>
<path d="M248.9 164.24C248.9 164.24 250.67 161.99 252.84 163.07L248.9 164.24Z" fill="#FFBE9D"/>
<path d="M248.9 164.24C248.9 164.24 250.67 161.99 252.84 163.07" stroke="#263238" stroke-linecap="round" stroke-linejoin="round"/>
<path d="M267 163.23C267 163.23 263.89 160.23 260.89 162.35L267 163.23Z" fill="#FFBE9D"/>
<path d="M267 163.23C267 163.23 263.89 160.23 260.89 162.35" stroke="#263238" stroke-linecap="round" stroke-linejoin="round"/>
<path d="M252.83 135.8C257.56 137.3 265.52 139.14 272.02 137.17C282.02 134.17 278.59 145.37 280.84 148.46" stroke="#7F7F7F" stroke-linecap="round" stroke-linejoin="round"/>
<path d="M248.73 134.3C248.73 134.3 249.52 134.65 250.87 135.13" stroke="#7F7F7F" stroke-linecap="round" stroke-linejoin="round"/>
<path d="M260.68 141.37C261.21 141.21 261.76 141.02 262.34 140.8" stroke="#7F7F7F" stroke-linecap="round" stroke-linejoin="round"/>
<path d="M249.83 140.05C249.83 140.05 251.95 143.32 258.77 141.87" stroke="#7F7F7F" stroke-linecap="round" stroke-linejoin="round"/>
<path d="M275.23 146.46C275.758 150.32 277.213 153.995 279.47 157.17" stroke="#7F7F7F" stroke-linecap="round" stroke-linejoin="round"/>
<path d="M275 142.92C274.986 143.517 275.006 144.115 275.06 144.71" stroke="#7F7F7F" stroke-linecap="round" stroke-linejoin="round"/>
<path opacity="0.3" d="M283.86 250.2C283.677 250.352 283.546 250.557 283.484 250.787C283.422 251.017 283.432 251.26 283.513 251.484C283.594 251.707 283.741 251.901 283.936 252.038C284.13 252.175 284.362 252.249 284.6 252.25C291.36 252.25 309.6 252.33 316.6 251.92C325.35 251.42 318.67 241.92 311.6 245.54C305.19 248.89 291.55 243.31 283.86 250.2Z" fill="black"/>
<path d="M207.71 240.82C207.71 240.82 211.8 229.93 222.06 231.66C232.32 233.39 224.48 241.98 219.54 242.74C219.54 242.74 218.79 239.75 207.71 240.82Z" fill="#FFBE9D" stroke="#263238" stroke-linecap="round" stroke-linejoin="round"/>
<path d="M199 247C197.65 248.35 194.4 248.47 196.59 245.54C198.381 243.183 200.811 241.389 203.59 240.37C208.45 238.2 210.35 238.64 214.75 237.67C219.15 236.7 219.98 238.5 221.5 239.33C225.13 241.33 226 241.67 226.92 243.67C227.84 245.67 228.84 248.27 226 248.27C223.42 248.27 223.25 244 220.75 244.17C218.25 244.34 217 248.27 215.25 248.27H214.59C213.09 248.27 213.01 247.02 213.92 245.06C214.83 243.1 215.84 241.33 215.84 241.33C214.355 242.112 213.168 243.359 212.46 244.88C211.26 247.43 211.04 248.5 208.83 248.5C206.62 248.5 206.83 246.86 208.97 243.24C207.699 244.001 206.648 245.08 205.92 246.37C204.84 248.37 204.27 248.27 202.86 248.27C201 248.27 201.13 245.21 204.42 243.21C204.44 243.21 203.71 242.31 199 247Z" fill="#FFBE9D" stroke="#263238" stroke-linecap="round" stroke-linejoin="round"/>
<path d="M211.88 239.69C211.88 239.69 210.59 239.63 209.77 241.81L211.88 239.69Z" fill="#FFBE9D"/>
<path d="M211.88 239.69C211.88 239.69 210.59 239.63 209.77 241.81" stroke="#263238" stroke-width="0.75" stroke-linecap="round" stroke-linejoin="round"/>
<path d="M376.2 145.54C382.657 150.614 388.805 156.071 394.61 161.88" stroke="#263238" stroke-width="0.75" stroke-linecap="round" stroke-linejoin="round"/>
<path d="M369.22 140.29C370.44 141.17 371.66 142.06 372.86 142.97" stroke="#263238" stroke-width="0.75" stroke-linecap="round" stroke-linejoin="round"/>
<path d="M362.25 135.5C363.503 136.32 364.75 137.16 365.99 138.02" stroke="#263238" stroke-width="0.75" stroke-linecap="round" stroke-linejoin="round"/>
<path d="M311.09 111.3C327.649 116.451 343.479 123.707 358.19 132.89" stroke="#263238" stroke-width="0.75" stroke-linecap="round" stroke-linejoin="round"/>
<path d="M300.17 108.22C302.17 108.733 304.187 109.273 306.22 109.84" stroke="#263238" stroke-width="0.75" stroke-linecap="round" stroke-linejoin="round"/>
<path d="M288.93 105.73C291.13 106.15 293.323 106.61 295.51 107.11" stroke="#263238" stroke-width="0.75" stroke-linecap="round" stroke-linejoin="round"/>
<path d="M278.92 104.06C280.82 104.333 282.713 104.627 284.6 104.94" stroke="#263238" stroke-width="0.75" stroke-linecap="round" stroke-linejoin="round"/>
<path d="M218.61 104.46C237.144 101.573 255.985 101.237 274.61 103.46" stroke="#263238" stroke-width="0.75" stroke-linecap="round" stroke-linejoin="round"/>
<path d="M210.36 105.91C212.06 105.58 213.77 105.26 215.47 104.97" stroke="#263238" stroke-width="0.75" stroke-linecap="round" stroke-linejoin="round"/>
<path d="M202.35 107.66C204.06 107.25 205.76 106.87 207.48 106.51" stroke="#263238" stroke-width="0.75" stroke-linecap="round" stroke-linejoin="round"/>
<path d="M192.51 110.28C194.25 109.77 195.99 109.28 197.74 108.82" stroke="#263238" stroke-width="0.75" stroke-linecap="round" stroke-linejoin="round"/>
<path d="M133 138.89C149.558 127.283 167.759 118.219 187 112" stroke="#263238" stroke-width="0.75" stroke-linecap="round" stroke-linejoin="round"/>
<path d="M125 144.82C126.56 143.613 128.137 142.427 129.73 141.26" stroke="#263238" stroke-width="0.75" stroke-linecap="round" stroke-linejoin="round"/>
<path d="M116.9 151.42C118.61 149.94 120.35 148.5 122.1 147.09" stroke="#263238" stroke-width="0.75" stroke-linecap="round" stroke-linejoin="round"/>
<path d="M105.64 161.88C107.987 159.533 110.373 157.257 112.8 155.05" stroke="#263238" stroke-width="0.75" stroke-linecap="round" stroke-linejoin="round"/>
<path d="M183.18 131.135C186.366 117.769 178.114 104.35 164.748 101.163C151.382 97.9764 137.963 106.229 134.776 119.595C131.59 132.961 139.842 146.38 153.208 149.566C166.574 152.753 179.993 144.501 183.18 131.135Z" fill="#47C2C9"/>
<mask id="mask2_25_172" style="mask-type:luminance" maskUnits="userSpaceOnUse" x="134" y="100" width="50" height="51">
<path d="M183.18 131.135C186.366 117.769 178.114 104.35 164.748 101.163C151.382 97.9764 137.963 106.229 134.776 119.595C131.59 132.961 139.842 146.38 153.208 149.566C166.574 152.753 179.993 144.501 183.18 131.135Z" fill="white"/>
</mask>
<g mask="url(#mask2_25_172)">
<path opacity="0.3" d="M183.18 131.135C186.366 117.769 178.114 104.35 164.748 101.163C151.382 97.9764 137.963 106.229 134.776 119.595C131.59 132.961 139.842 146.38 153.208 149.566C166.574 152.753 179.993 144.501 183.18 131.135Z" fill="#FFBE9D"/>
</g>
<path d="M183.18 131.135C186.366 117.769 178.114 104.35 164.748 101.163C151.382 97.9764 137.963 106.229 134.776 119.595C131.59 132.961 139.842 146.38 153.208 149.566C166.574 152.753 179.993 144.501 183.18 131.135Z" stroke="#263238" stroke-width="0.75" stroke-linecap="round" stroke-linejoin="round"/>
<path d="M110.76 157.11H96.41C89.8046 157.11 84.45 162.465 84.45 169.07V183.42C84.45 190.025 89.8046 195.38 96.41 195.38H110.76C117.365 195.38 122.72 190.025 122.72 183.42V169.07C122.72 162.465 117.365 157.11 110.76 157.11Z" fill="#47C2C9" stroke="#263238" stroke-width="0.75" stroke-linecap="round" stroke-linejoin="round"/>
<path d="M356.133 124.55C358.802 113.133 351.711 101.714 340.294 99.0442C328.877 96.3748 317.457 103.466 314.788 114.883C312.118 126.3 319.21 137.72 330.627 140.389C342.044 143.059 353.463 135.967 356.133 124.55Z" fill="#47C2C9"/>
<mask id="mask3_25_172" style="mask-type:luminance" maskUnits="userSpaceOnUse" x="314" y="98" width="43" height="43">
<path d="M356.133 124.55C358.802 113.133 351.711 101.714 340.294 99.0442C328.877 96.3748 317.457 103.466 314.788 114.883C312.118 126.3 319.21 137.72 330.627 140.389C342.044 143.059 353.463 135.967 356.133 124.55Z" fill="white"/>
</mask>
<g mask="url(#mask3_25_172)">
<path opacity="0.2" d="M356.133 124.55C358.802 113.133 351.711 101.714 340.294 99.0442C328.877 96.3748 317.457 103.466 314.788 114.883C312.118 126.3 319.21 137.72 330.627 140.389C342.044 143.059 353.463 135.967 356.133 124.55Z" fill="black"/>
</g>
<path d="M356.133 124.55C358.802 113.133 351.711 101.714 340.294 99.0442C328.877 96.3748 317.457 103.466 314.788 114.883C312.118 126.3 319.21 137.72 330.627 140.389C342.044 143.059 353.463 135.967 356.133 124.55Z" stroke="#263238" stroke-width="0.75" stroke-linecap="round" stroke-linejoin="round"/>
<path d="M254.07 78.24H234.88C227.369 78.24 221.28 84.3289 221.28 91.84V111.03C221.28 118.541 227.369 124.63 234.88 124.63H254.07C261.581 124.63 267.67 118.541 267.67 111.03V91.84C267.67 84.3289 261.581 78.24 254.07 78.24Z" fill="#47C2C9" stroke="#263238" stroke-width="0.75" stroke-linecap="round" stroke-linejoin="round"/>
<path d="M412.223 169.549C414.936 158.171 407.911 146.748 396.532 144.035C385.154 141.322 373.731 148.347 371.018 159.725C368.305 171.104 375.33 182.527 386.708 185.24C398.087 187.953 409.51 180.928 412.223 169.549Z" fill="#47C2C9"/>
<mask id="mask4_25_172" style="mask-type:luminance" maskUnits="userSpaceOnUse" x="370" y="143" width="43" height="43">
<path d="M412.223 169.549C414.936 158.171 407.911 146.748 396.532 144.035C385.154 141.322 373.731 148.347 371.018 159.725C368.305 171.104 375.33 182.527 386.708 185.24C398.087 187.953 409.51 180.928 412.223 169.549Z" fill="white"/>
</mask>
<g mask="url(#mask4_25_172)">
<path opacity="0.3" d="M412.223 169.549C414.936 158.171 407.911 146.748 396.532 144.035C385.154 141.322 373.731 148.347 371.018 159.725C368.305 171.104 375.33 182.527 386.708 185.24C398.087 187.953 409.51 180.928 412.223 169.549Z" fill="#FFBE9D"/>
</g>
<path d="M412.223 169.549C414.936 158.171 407.911 146.748 396.532 144.035C385.154 141.322 373.731 148.347 371.018 159.725C368.305 171.104 375.33 182.527 386.708 185.24C398.087 187.953 409.51 180.928 412.223 169.549Z" stroke="#263238" stroke-width="0.75" stroke-linecap="round" stroke-linejoin="round"/>
<path d="M141.23 408.51H137.52L136.52 261.25H141.23V408.51Z" fill="#858585" stroke="#263238" stroke-linecap="round" stroke-linejoin="round"/>
<path d="M144.93 408.51H141.23V261.25H145.93L144.93 408.51Z" fill="#999999" stroke="#263238" stroke-linecap="round" stroke-linejoin="round"/>
<path d="M352.99 252.24H98.78V261.26H352.99V252.24Z" fill="#263238" stroke="#263238" stroke-linecap="round" stroke-linejoin="round"/>
<path d="M406.11 252.24H349.19V261.26H406.11V252.24Z" fill="#858585" stroke="#263238" stroke-linecap="round" stroke-linejoin="round"/>
<path d="M364.52 261.25H111.8V276.11H364.52V261.25Z" fill="#47C2C9" stroke="#263238" stroke-miterlimit="10"/>
<path d="M364.52 276.12H393.95V261.26H364.52V276.12Z" fill="#47C2C9"/>
<mask id="mask5_25_172" style="mask-type:luminance" maskUnits="userSpaceOnUse" x="364" y="261" width="30" height="16">
<path d="M364.52 276.12H393.95V261.26H364.52V276.12Z" fill="white"/>
</mask>
<g mask="url(#mask5_25_172)">
<path opacity="0.3" d="M364.52 276.12H393.95V261.26H364.52V276.12Z" fill="black"/>
</g>
<path d="M364.52 276.12H393.95V261.26H364.52V276.12Z" stroke="#263238" stroke-miterlimit="10"/>
<path d="M364.52 408.51H360.82L359.82 261.25H364.52V408.51Z" fill="#858585" stroke="#263238" stroke-linecap="round" stroke-linejoin="round"/>
<path d="M368.23 408.51H364.52V261.25H369.23L368.23 408.51Z" fill="#999999" stroke="#263238" stroke-linecap="round" stroke-linejoin="round"/>
<path d="M111.8 408.51H108.09L107.09 261.25H111.8V408.51Z" fill="#858585" stroke="#263238" stroke-linecap="round" stroke-linejoin="round"/>
<path d="M115.5 408.51H111.8V261.25H116.5L115.5 408.51Z" fill="#999999" stroke="#263238" stroke-linecap="round" stroke-linejoin="round"/>
<path d="M393.95 408.51H390.24L389.24 261.25H393.95V408.51Z" fill="#858585" stroke="#263238" stroke-linecap="round" stroke-linejoin="round"/>
<path d="M397.65 408.51H393.95V261.25H398.65L397.65 408.51Z" fill="#999999" stroke="#263238" stroke-linecap="round" stroke-linejoin="round"/>
<path d="M263.05 251.24H233.26C232.967 251.237 232.688 251.119 232.482 250.911C232.276 250.703 232.16 250.423 232.16 250.13V247.67L264.16 248.67V250.13C264.16 250.424 264.043 250.707 263.835 250.915C263.627 251.123 263.344 251.24 263.05 251.24Z" fill="#858585" stroke="#263238" stroke-linecap="round" stroke-linejoin="round"/>
<path d="M228.83 251.24H168.94C168.447 251.222 167.972 251.051 167.58 250.752C167.188 250.453 166.898 250.04 166.75 249.57L153.89 207.83C153.794 207.586 153.76 207.323 153.79 207.063C153.821 206.802 153.917 206.554 154.067 206.34C154.218 206.126 154.42 205.952 154.654 205.835C154.888 205.718 155.148 205.662 155.41 205.67H215.3C215.792 205.686 216.267 205.855 216.659 206.152C217.051 206.449 217.341 206.861 217.49 207.33L230.35 249.07C230.446 249.314 230.48 249.578 230.449 249.839C230.418 250.099 230.323 250.348 230.172 250.563C230.022 250.778 229.82 250.952 229.586 251.07C229.352 251.188 229.092 251.247 228.83 251.24Z" fill="#999999" stroke="#263238" stroke-linecap="round" stroke-linejoin="round"/>
<path d="M233 249.07L220.14 207.33C219.991 206.861 219.701 206.449 219.309 206.152C218.917 205.855 218.442 205.686 217.95 205.67H215.3C215.792 205.686 216.267 205.855 216.659 206.152C217.051 206.449 217.341 206.861 217.49 207.33L230.35 249.07C230.446 249.314 230.48 249.578 230.449 249.839C230.418 250.099 230.323 250.348 230.172 250.563C230.022 250.777 229.82 250.952 229.586 251.07C229.352 251.188 229.092 251.246 228.83 251.24H231.52C231.779 251.24 232.034 251.177 232.263 251.056C232.491 250.935 232.687 250.76 232.833 250.546C232.979 250.332 233.07 250.086 233.1 249.829C233.129 249.571 233.094 249.311 233 249.07Z" fill="#858585" stroke="#263238" stroke-linecap="round" stroke-linejoin="round"/>
<path d="M195.83 228.45C195.903 228.915 195.874 229.39 195.743 229.842C195.612 230.294 195.384 230.712 195.074 231.066C194.764 231.42 194.38 231.702 193.949 231.891C193.518 232.08 193.05 232.172 192.58 232.16C191.56 232.134 190.581 231.747 189.82 231.068C189.058 230.389 188.562 229.461 188.42 228.45C188.346 227.986 188.376 227.511 188.507 227.059C188.637 226.607 188.866 226.19 189.176 225.837C189.487 225.484 189.871 225.203 190.302 225.015C190.733 224.827 191.2 224.737 191.67 224.75C192.688 224.777 193.664 225.164 194.426 225.841C195.187 226.518 195.684 227.442 195.83 228.45Z" fill="#FFBE9D" stroke="#263238" stroke-linecap="round" stroke-linejoin="round"/>
<path d="M394.676 165.358C394.676 165.142 394.676 164.925 394.676 164.723L396 164.204C395.989 163.607 395.911 163.012 395.767 162.431L394.312 162.272C394.188 161.869 394.027 161.478 393.831 161.104L394.719 159.994C394.403 159.48 394.037 158.997 393.628 158.552L392.318 159.114C392.001 158.827 391.66 158.566 391.299 158.336L391.503 156.894C390.979 156.6 390.422 156.367 389.843 156.202L388.999 157.341L388.519 157.327H387.893L387.354 156C386.756 156.019 386.162 156.096 385.579 156.231L385.419 157.673C385.006 157.797 384.606 157.961 384.225 158.163L383.104 157.269C382.582 157.583 382.094 157.95 381.649 158.365L382.217 159.662C381.932 159.977 381.674 160.315 381.445 160.672L379.99 160.455C379.708 160.98 379.479 161.531 379.306 162.099L380.455 162.95C380.455 163.152 380.368 163.354 380.339 163.57C380.325 163.781 380.325 163.993 380.339 164.204L379 164.723C379.011 165.321 379.089 165.916 379.233 166.497L380.688 166.656C380.818 167.057 380.979 167.447 381.169 167.824L380.281 168.934C380.597 169.448 380.963 169.931 381.372 170.376L382.697 169.813C383.006 170.104 383.342 170.365 383.701 170.592L383.497 172.034C384.023 172.321 384.58 172.548 385.157 172.712L386.001 171.573L386.641 171.688H387.282L387.806 173C388.404 172.989 389 172.912 389.581 172.769L389.741 171.327C390.154 171.203 390.554 171.039 390.935 170.837L392.056 171.717C392.581 171.413 393.07 171.05 393.511 170.635L392.943 169.338C393.229 169.023 393.487 168.686 393.715 168.328L395.17 168.545C395.452 168.02 395.681 167.469 395.854 166.901L394.705 166.05C394.603 165.776 394.646 165.56 394.676 165.358ZM387.063 167.218C386.487 167.154 385.942 166.921 385.5 166.548C385.058 166.175 384.739 165.68 384.583 165.126C384.427 164.572 384.442 163.985 384.625 163.44C384.809 162.894 385.153 162.415 385.614 162.065C386.074 161.715 386.629 161.509 387.209 161.474C387.788 161.438 388.365 161.576 388.865 161.868C389.365 162.16 389.765 162.593 390.015 163.112C390.265 163.631 390.352 164.213 390.265 164.781C390.153 165.519 389.757 166.185 389.16 166.639C388.563 167.093 387.812 167.301 387.063 167.218Z" fill="white"/>
<g opacity="0.5">
<path d="M400.674 161.016C399.84 161.019 399.03 160.74 398.373 160.226C397.716 159.711 397.252 158.99 397.055 158.18C396.859 157.369 396.941 156.516 397.288 155.757C397.636 154.999 398.229 154.38 398.971 154V156.343C398.976 156.797 399.159 157.231 399.481 157.552C399.797 157.868 400.227 158.046 400.674 158.047C401.126 158.047 401.559 157.867 401.879 157.548C402.198 157.228 402.378 156.795 402.378 156.343V154C403.12 154.38 403.713 154.999 404.061 155.757C404.408 156.516 404.49 157.369 404.294 158.18C404.097 158.99 403.633 159.711 402.976 160.226C402.319 160.74 401.509 161.019 400.674 161.016Z" fill="white"/>
<path d="M398.986 170.288V159.982C398.984 159.759 399.026 159.538 399.11 159.332C399.194 159.125 399.319 158.937 399.475 158.779C399.632 158.621 399.819 158.495 400.025 158.409C400.231 158.323 400.452 158.279 400.675 158.279C400.898 158.279 401.118 158.323 401.324 158.409C401.53 158.495 401.717 158.621 401.874 158.779C402.031 158.937 402.155 159.125 402.239 159.332C402.323 159.538 402.365 159.759 402.363 159.982V170.288C402.363 170.51 402.319 170.729 402.235 170.934C402.15 171.139 402.025 171.325 401.869 171.482C401.712 171.639 401.526 171.763 401.321 171.848C401.116 171.933 400.896 171.976 400.675 171.976C400.453 171.976 400.233 171.933 400.028 171.848C399.824 171.763 399.637 171.639 399.481 171.482C399.324 171.325 399.2 171.139 399.115 170.934C399.03 170.729 398.986 170.51 398.986 170.288Z" fill="white"/>
</g>
<path d="M385 112H457" stroke="#525252" stroke-miterlimit="10"/>
<path d="M385 105.449H457" stroke="#525252" stroke-miterlimit="10"/>
<path d="M385 98.9082H457" stroke="#525252" stroke-miterlimit="10"/>
<path d="M385 92.3574H457" stroke="#525252" stroke-miterlimit="10"/>
<path d="M385 85.8164H457" stroke="#525252" stroke-miterlimit="10"/>
<path d="M385 79.2754H457" stroke="#525252" stroke-miterlimit="10"/>
<path d="M385 72.7246H457" stroke="#525252" stroke-miterlimit="10"/>
<path d="M385 66.1836H457" stroke="#525252" stroke-miterlimit="10"/>
<path d="M385 59.6328H457" stroke="#525252" stroke-miterlimit="10"/>
<path d="M385 53.0916H457" stroke="#525252" stroke-miterlimit="10"/>
<path d="M385 46.5413H457" stroke="#525252" stroke-miterlimit="10"/>
<path d="M385 40H457" stroke="#525252" stroke-miterlimit="10"/>
<g opacity="0.5">
<path d="M239.716 111.241C239.716 111.817 239.557 112.38 239.259 112.859C238.96 113.337 238.537 113.711 238.041 113.931C237.545 114.151 236.999 114.209 236.473 114.097C235.946 113.984 235.463 113.707 235.083 113.3C234.704 112.893 234.445 112.374 234.34 111.809C234.236 111.244 234.289 110.659 234.495 110.127C234.7 109.595 235.048 109.14 235.494 108.82C235.941 108.5 236.465 108.329 237.002 108.329C237.359 108.327 237.713 108.401 238.043 108.546C238.373 108.692 238.673 108.906 238.926 109.177C239.178 109.448 239.378 109.77 239.514 110.124C239.649 110.478 239.718 110.858 239.716 111.241Z" fill="white"/>
<path d="M250.25 111.241C250.25 111.817 250.091 112.38 249.792 112.859C249.494 113.337 249.07 113.711 248.574 113.931C248.079 114.151 247.533 114.209 247.006 114.097C246.48 113.984 245.997 113.707 245.617 113.3C245.237 112.893 244.979 112.374 244.874 111.809C244.77 111.244 244.823 110.659 245.029 110.127C245.234 109.595 245.582 109.14 246.028 108.82C246.475 108.5 246.999 108.329 247.536 108.329C247.893 108.327 248.247 108.401 248.577 108.546C248.907 108.692 249.207 108.906 249.46 109.177C249.712 109.448 249.912 109.77 250.047 110.124C250.183 110.478 250.252 110.858 250.25 111.241Z" fill="white"/>
</g>
<path d="M249.8 106.847H234.031C233.877 106.844 233.727 106.79 233.604 106.691C233.48 106.592 233.388 106.454 233.341 106.296L230.033 94.529C229.999 94.4129 229.991 94.2897 230.011 94.1697C230.03 94.0498 230.076 93.9366 230.145 93.8399C230.213 93.7436 230.3 93.6654 230.4 93.6116C230.501 93.5578 230.611 93.5298 230.723 93.5298H253.108C253.223 93.5297 253.336 93.5576 253.439 93.6114C253.542 93.6651 253.632 93.7432 253.702 93.8399C253.768 93.9384 253.812 94.0515 253.832 94.1708C253.851 94.29 253.845 94.4125 253.815 94.529L250.491 106.296C250.446 106.455 250.355 106.595 250.23 106.694C250.106 106.793 249.955 106.847 249.8 106.847ZM234.577 105.297H249.27L252.145 95.0803H231.687L234.577 105.297Z" fill="white"/>
<path d="M253.108 95.0806H252.915C252.823 95.0528 252.737 95.0058 252.663 94.9421C252.588 94.8784 252.525 94.7994 252.479 94.7097C252.432 94.62 252.403 94.5213 252.393 94.4193C252.382 94.3174 252.391 94.2142 252.418 94.1158L253.686 89.3779C253.853 88.7576 254.203 88.2123 254.684 87.8239C255.165 87.4355 255.75 87.2251 256.352 87.2244H258.857C259.049 87.2244 259.232 87.3061 259.368 87.4514C259.503 87.5968 259.58 87.794 259.58 87.9996C259.58 88.2053 259.503 88.4025 259.368 88.5479C259.232 88.6932 259.049 88.7749 258.857 88.7749H256.352C256.065 88.7777 255.786 88.8798 255.558 89.0661C255.329 89.2523 255.163 89.5128 255.083 89.8086L253.815 94.5465C253.764 94.7038 253.669 94.8401 253.542 94.936C253.415 95.0319 253.263 95.0824 253.108 95.0806Z" fill="white"/>
<path d="M159.015 110.828C156.442 110.825 153.927 111.641 151.787 113.172C149.647 114.704 147.978 116.882 146.992 119.431C146.007 121.98 145.748 124.786 146.249 127.493C146.75 130.2 147.989 132.687 149.808 134.638C151.627 136.59 153.944 137.919 156.467 138.456C158.99 138.994 161.606 138.716 163.982 137.659C166.358 136.601 168.388 134.811 169.815 132.515C171.243 130.219 172.003 127.52 172 124.76C171.992 121.068 170.622 117.529 168.188 114.918C165.755 112.307 162.456 110.836 159.015 110.828ZM156.95 112.388C155.686 113.739 154.661 115.325 153.925 117.069H149.81C151.576 114.612 154.132 112.949 156.979 112.404L156.95 112.388ZM148.923 118.379H153.372C152.73 120.168 152.342 122.051 152.224 123.965V124.292H147.352C147.418 122.218 147.958 120.193 148.923 118.395V118.379ZM149.185 131.562C148.119 129.793 147.484 127.766 147.338 125.665H152.253C152.441 127.701 152.932 129.692 153.707 131.562H149.185ZM150.144 132.935H154.318C155.114 134.549 156.178 135.992 157.459 137.195C154.616 136.795 152.012 135.284 150.144 132.951V132.935ZM158.375 136.227C157.357 135.286 156.488 134.174 155.801 132.935H158.433L158.375 136.227ZM158.375 131.547H155.103C154.272 129.692 153.745 127.697 153.547 125.649H158.433L158.375 131.547ZM158.375 124.277H153.503C153.588 122.241 154.011 120.239 154.754 118.364H158.433L158.375 124.277ZM158.375 116.991H155.35C156.098 115.415 157.126 114.01 158.375 112.856V116.991ZM170.72 124.277H165.834V123.949C165.723 122.035 165.335 120.151 164.686 118.364H169.135C170.12 120.171 170.665 122.215 170.72 124.308V124.277ZM168.219 116.991H164.119C163.372 115.249 162.343 113.665 161.079 112.31C163.922 112.874 166.468 114.554 168.219 117.022V116.991ZM159.654 112.872C160.907 114.017 161.935 115.417 162.679 116.991H159.654V112.872ZM159.654 118.364H163.275C164.021 120.238 164.449 122.241 164.54 124.277H159.654V118.364ZM159.654 125.649H164.482C164.29 127.698 163.764 129.694 162.926 131.547H159.654V125.649ZM159.654 136.212V132.951H162.228C161.549 134.196 160.679 135.309 159.654 136.243V136.212ZM160.57 137.179C161.851 135.976 162.915 134.533 163.711 132.92H167.885C166.024 135.27 163.419 136.799 160.57 137.21V137.179ZM168.845 131.547H164.337C165.111 129.677 165.602 127.686 165.791 125.649H170.706C170.565 127.763 169.924 129.803 168.845 131.578V131.547Z" fill="white"/>
<path opacity="0.6" d="M94 175.656H90V186.385H94V175.656Z" fill="white"/>
<path opacity="0.6" d="M108 172.438H103V186.385H108V172.438Z" fill="white"/>
<path d="M101 169.219H96V186.385H101V169.219Z" fill="white"/>
<path d="M115 166H110V186.385H115V166Z" fill="white"/>
<path d="M348.999 123.464C348.999 123.895 348.999 125.418 348.918 125.849H336.404V119.252H338.108L334.586 115.343L331.047 119.252H332.751V125.849H321C321 125.634 321 124.307 321 124.056C321.001 122.332 321.583 120.669 322.634 119.393C323.684 118.117 325.127 117.319 326.681 117.154V116.885C326.667 114.936 327.287 113.045 328.429 111.558C329.57 110.071 331.157 109.086 332.901 108.782C334.644 108.478 336.429 108.875 337.93 109.902C339.43 110.928 340.548 112.516 341.078 114.375C341.519 114.386 341.959 114.434 342.393 114.519C344.272 114.911 345.965 116.024 347.173 117.661C348.382 119.297 349.029 121.353 348.999 123.464Z" fill="white"/>
</g>
<defs>
<clipPath id="clip0_25_172">
<rect width="500" height="500" fill="white"/>
</clipPath>
<clipPath id="clip1_25_172">
<rect width="76" height="92" fill="white" transform="matrix(0 -1 1 0 386 285)"/>
</clipPath>
</defs>
</svg>
