<svg width="392" height="384" viewBox="0 0 392 384" fill="none" xmlns="http://www.w3.org/2000/svg">
<path d="M20.5132 358.932H374.938" stroke="#263238" stroke-miterlimit="10" stroke-linecap="round"/>
<path d="M285.404 49.0215C285.406 47.4609 284.944 45.9349 284.078 44.6366C283.212 43.3384 281.98 42.3263 280.539 41.7283C279.097 41.1304 277.511 40.9736 275.98 41.2776C274.449 41.5817 273.043 42.3331 271.94 43.4366C270.836 44.5402 270.085 45.9462 269.781 47.477C269.476 49.0077 269.633 50.5942 270.231 52.0357C270.829 53.4773 271.841 54.709 273.14 55.5751C274.438 56.4412 275.964 56.9027 277.524 56.9012C279.614 56.8991 281.617 56.0683 283.094 54.591C284.571 53.1138 285.402 51.1107 285.404 49.0215Z" stroke="black" stroke-miterlimit="10"/>
<path d="M295.819 51.2717V46.7635H290.558C290.227 44.8273 289.466 42.99 288.331 41.3875L292.048 37.6704L288.868 34.4832L285.143 38.2003C283.538 37.0695 281.702 36.3089 279.767 35.9731V30.72H275.259V35.9808C273.325 36.318 271.489 37.0786 269.883 38.208L266.158 34.4909L262.979 37.6781L266.696 41.3952C265.567 43.0012 264.806 44.837 264.469 46.7712H259.208V51.2793H264.469C264.805 53.214 265.565 55.05 266.696 56.6553L262.979 60.3801L266.158 63.5597L269.883 59.8425C271.486 60.9783 273.323 61.7394 275.259 62.0697V67.3305H279.767V62.0544C281.704 61.7259 283.542 60.9646 285.143 59.8272L288.868 63.5443L292.048 60.3648L288.331 56.64C289.468 55.0383 290.229 53.2007 290.558 51.264L295.819 51.2717Z" stroke="black" stroke-miterlimit="10"/>
<path d="M303.698 77.7293C303.698 76.1708 303.236 74.6474 302.37 73.3516C301.504 72.0558 300.273 71.0458 298.834 70.4494C297.394 69.853 295.809 69.697 294.281 70.001C292.752 70.3051 291.348 71.0555 290.246 72.1575C289.144 73.2595 288.394 74.6635 288.09 76.192C287.786 77.7206 287.942 79.3049 288.538 80.7447C289.135 82.1845 290.145 83.4152 291.44 84.281C292.736 85.1468 294.26 85.609 295.818 85.609C297.908 85.609 299.912 84.7788 301.39 83.3011C302.868 81.8233 303.698 79.8191 303.698 77.7293Z" stroke="black" stroke-miterlimit="10"/>
<path d="M314.112 79.9795V75.4791H308.851C308.52 73.5431 307.759 71.7061 306.624 70.1031L310.349 66.3859L307.2 63.1987L303.475 66.9235C301.874 65.7862 300.036 65.0249 298.099 64.6963V59.4355H293.599V64.6963C291.662 65.0264 289.825 65.7876 288.223 66.9235L284.506 63.1987L281.318 66.3859L285.036 70.1031C283.906 71.7084 283.148 73.5447 282.816 75.4791H277.555V79.9795H282.816C283.148 81.9139 283.906 83.7502 285.036 85.3555L281.288 89.088L284.475 92.2752L288.192 88.5504C289.794 89.6864 291.632 90.4476 293.568 90.7776V96H298.068V90.7392C300.005 90.4107 301.843 89.6494 303.444 88.512L307.169 92.2368L310.349 89.088L306.624 85.3709C307.759 83.7679 308.52 81.9308 308.851 79.9949L314.112 79.9795Z" stroke="black" stroke-miterlimit="10"/>
<path d="M76.0319 214.464H42.0249V239.193H76.0319V214.464Z" stroke="black" stroke-miterlimit="10"/>
<path d="M76.0319 228.787L70.3027 221.491L61.1788 230.769L53.5219 226.545L42.0249 239.194H76.0319V228.787Z" stroke="black" stroke-miterlimit="10"/>
<path d="M49.2672 223.91C51.1716 223.91 52.7155 222.366 52.7155 220.462C52.7155 218.558 51.1716 217.014 49.2672 217.014C47.3627 217.014 45.8188 218.558 45.8188 220.462C45.8188 222.366 47.3627 223.91 49.2672 223.91Z" stroke="black" stroke-miterlimit="10"/>
<path d="M54.674 184.688H20.667V209.418H54.674V184.688Z" stroke="black" stroke-miterlimit="10"/>
<path d="M54.6664 199.012L48.9448 191.716L39.8132 200.993L32.164 196.769L20.667 209.426H54.6664V199.012Z" stroke="black" stroke-miterlimit="10"/>
<path d="M31.3498 190.687C31.3498 190.005 31.1475 189.338 30.7686 188.771C30.3897 188.204 29.8512 187.762 29.2211 187.501C28.591 187.24 27.8976 187.171 27.2287 187.305C26.5598 187.438 25.9454 187.766 25.4631 188.248C24.9809 188.731 24.6524 189.345 24.5194 190.014C24.3863 190.683 24.4546 191.376 24.7156 192.006C24.9766 192.636 25.4186 193.175 25.9857 193.554C26.5527 193.933 27.2194 194.135 27.9014 194.135C28.816 194.135 29.6931 193.772 30.3398 193.125C30.9865 192.478 31.3498 191.601 31.3498 190.687Z" stroke="black" stroke-miterlimit="10"/>
<path d="M352.305 114.286H311.762V122.396H352.305V114.286Z" stroke="black" stroke-miterlimit="10"/>
<path d="M352.305 124.424H311.762V132.534H352.305V124.424Z" stroke="black" stroke-miterlimit="10"/>
<path d="M352.305 134.569H311.762V142.679H352.305V134.569Z" stroke="black" stroke-miterlimit="10"/>
<path d="M352.305 144.707H311.762V152.817H352.305V144.707Z" stroke="black" stroke-miterlimit="10"/>
<path d="M352.305 154.844H311.762V162.954H352.305V154.844Z" stroke="black" stroke-miterlimit="10"/>
<path d="M340.355 118.572C340.356 118.276 340.27 117.987 340.107 117.741C339.944 117.495 339.711 117.303 339.439 117.189C339.166 117.075 338.866 117.045 338.576 117.102C338.286 117.159 338.02 117.302 337.811 117.51C337.603 117.719 337.461 117.985 337.403 118.275C337.346 118.565 337.376 118.865 337.49 119.138C337.604 119.41 337.796 119.643 338.042 119.806C338.288 119.969 338.577 120.055 338.873 120.054C339.266 120.054 339.643 119.898 339.921 119.62C340.199 119.342 340.355 118.965 340.355 118.572Z" stroke="black" stroke-miterlimit="10"/>
<path d="M345.547 118.572C345.547 118.278 345.46 117.992 345.297 117.748C345.134 117.504 344.902 117.314 344.632 117.202C344.361 117.09 344.063 117.061 343.775 117.118C343.488 117.175 343.223 117.316 343.016 117.523C342.809 117.731 342.668 117.995 342.611 118.282C342.553 118.57 342.583 118.868 342.695 119.139C342.807 119.41 342.997 119.641 343.241 119.804C343.485 119.967 343.771 120.054 344.064 120.054C344.259 120.055 344.452 120.017 344.633 119.943C344.813 119.869 344.977 119.76 345.115 119.622C345.252 119.484 345.362 119.32 345.436 119.14C345.51 118.96 345.548 118.767 345.547 118.572Z" stroke="black" stroke-miterlimit="10"/>
<path d="M338.872 129.946C339.691 129.946 340.355 129.282 340.355 128.463C340.355 127.645 339.691 126.981 338.872 126.981C338.054 126.981 337.39 127.645 337.39 128.463C337.39 129.282 338.054 129.946 338.872 129.946Z" stroke="black" stroke-miterlimit="10"/>
<path d="M344.064 129.946C344.883 129.946 345.546 129.282 345.546 128.463C345.546 127.645 344.883 126.981 344.064 126.981C343.246 126.981 342.582 127.645 342.582 128.463C342.582 129.282 343.246 129.946 344.064 129.946Z" stroke="black" stroke-miterlimit="10"/>
<path d="M338.872 139.845C339.691 139.845 340.355 139.181 340.355 138.363C340.355 137.544 339.691 136.881 338.872 136.881C338.054 136.881 337.39 137.544 337.39 138.363C337.39 139.181 338.054 139.845 338.872 139.845Z" stroke="black" stroke-miterlimit="10"/>
<path d="M344.064 139.845C344.883 139.845 345.546 139.181 345.546 138.363C345.546 137.544 344.883 136.881 344.064 136.881C343.246 136.881 342.582 137.544 342.582 138.363C342.582 139.181 343.246 139.845 344.064 139.845Z" stroke="black" stroke-miterlimit="10"/>
<path d="M340.355 148.224C340.356 147.929 340.27 147.639 340.107 147.393C339.944 147.147 339.711 146.955 339.439 146.841C339.166 146.727 338.866 146.697 338.576 146.755C338.286 146.812 338.02 146.954 337.811 147.163C337.603 147.372 337.461 147.638 337.403 147.927C337.346 148.217 337.376 148.517 337.49 148.79C337.604 149.062 337.796 149.295 338.042 149.458C338.288 149.621 338.577 149.708 338.873 149.706C339.266 149.706 339.643 149.55 339.921 149.272C340.199 148.994 340.355 148.617 340.355 148.224Z" stroke="black" stroke-miterlimit="10"/>
<path d="M345.547 148.224C345.536 147.933 345.44 147.652 345.271 147.416C345.102 147.179 344.867 146.997 344.595 146.893C344.324 146.789 344.027 146.768 343.744 146.831C343.46 146.894 343.201 147.039 342.999 147.248C342.797 147.458 342.661 147.722 342.608 148.008C342.555 148.294 342.587 148.589 342.701 148.857C342.814 149.124 343.004 149.353 343.247 149.513C343.489 149.674 343.773 149.76 344.064 149.76C344.264 149.761 344.462 149.722 344.646 149.644C344.829 149.567 344.996 149.453 345.134 149.309C345.273 149.166 345.381 148.995 345.452 148.809C345.523 148.622 345.555 148.423 345.547 148.224Z" stroke="black" stroke-miterlimit="10"/>
<path d="M338.872 159.629C339.691 159.629 340.355 158.965 340.355 158.147C340.355 157.328 339.691 156.664 338.872 156.664C338.054 156.664 337.39 157.328 337.39 158.147C337.39 158.965 338.054 159.629 338.872 159.629Z" stroke="black" stroke-miterlimit="10"/>
<path d="M344.064 159.629C344.883 159.629 345.546 158.965 345.546 158.147C345.546 157.328 344.883 156.664 344.064 156.664C343.246 156.664 342.582 157.328 342.582 158.147C342.582 158.965 343.246 159.629 344.064 159.629Z" stroke="black" stroke-miterlimit="10"/>
<path d="M338.727 248.771C356.541 248.771 370.983 234.329 370.983 216.515C370.983 198.7 356.541 184.259 338.727 184.259C320.912 184.259 306.471 198.7 306.471 216.515C306.471 234.329 320.912 248.771 338.727 248.771Z" stroke="black" stroke-miterlimit="10"/>
<path d="M338.727 248.771C346.786 248.771 353.319 234.329 353.319 216.515C353.319 198.7 346.786 184.259 338.727 184.259C330.668 184.259 324.135 198.7 324.135 216.515C324.135 234.329 330.668 248.771 338.727 248.771Z" stroke="black" stroke-miterlimit="10"/>
<path d="M315.326 195.118H362.32" stroke="black" stroke-miterlimit="10"/>
<path d="M315.326 238.049H362.32" stroke="black" stroke-miterlimit="10"/>
<path d="M306.624 216.3H371.021" stroke="black" stroke-miterlimit="10"/>
<path d="M61.5475 312.576C65.9969 312.576 69.6038 303.117 69.6038 291.448C69.6038 279.78 65.9969 270.321 61.5475 270.321C57.0981 270.321 53.4912 279.78 53.4912 291.448C53.4912 303.117 57.0981 312.576 61.5475 312.576Z" fill="#47C2C9" stroke="#263238" stroke-miterlimit="10"/>
<path d="M86.572 278.439C89.0911 270.512 88.3381 263.198 84.89 262.102C81.4419 261.006 76.6044 266.544 74.0853 274.471C71.5661 282.398 72.3192 289.712 75.7673 290.808C79.2154 291.904 84.0528 286.366 86.572 278.439Z" fill="#47C2C9" stroke="#263238" stroke-miterlimit="10"/>
<path d="M27.4636 326.215C19.2614 324.825 13.1097 320.839 13.7087 317.238C14.3078 313.636 21.4579 311.9 29.6524 313.29C37.847 314.68 44.014 318.666 43.4073 322.268C42.8006 325.87 35.6659 327.606 27.4636 326.215Z" fill="#47C2C9" stroke="#263238" stroke-miterlimit="10"/>
<path d="M94.155 306.691C101.004 299.899 104.016 291.832 100.883 288.673C97.75 285.514 89.6582 288.458 82.8094 295.25C75.9607 302.041 72.9485 310.108 76.0815 313.268C79.2144 316.427 87.3062 313.482 94.155 306.691Z" fill="#47C2C9" stroke="#263238" stroke-miterlimit="10"/>
<path d="M51.392 310.658C55.5791 307.771 53.6049 297.643 46.9823 288.036C40.3598 278.429 31.5968 272.981 27.4097 275.868C23.2225 278.754 25.1967 288.882 31.8193 298.489C38.4418 308.096 47.2048 313.544 51.392 310.658Z" fill="#47C2C9" stroke="#263238" stroke-miterlimit="10"/>
<path d="M62.1079 311.531L62.7377 340.577" stroke="#263238" stroke-miterlimit="10" stroke-linecap="round"/>
<path d="M61.3633 283.592L62.1082 311.531" stroke="#263238" stroke-miterlimit="10" stroke-linecap="round"/>
<path d="M61.417 279.037L61.3633 281.18" stroke="#263238" stroke-miterlimit="10" stroke-linecap="round"/>
<path d="M51.3408 309.304C55.9634 318.846 58.6668 329.202 59.2973 339.786" stroke="#263238" stroke-miterlimit="10" stroke-linecap="round"/>
<path d="M37.5093 288.13C43.035 294.545 47.6837 301.665 51.3333 309.304" stroke="#263238" stroke-miterlimit="10" stroke-linecap="round"/>
<path d="M33.1543 283.53C33.1543 283.53 33.9837 284.298 35.3585 285.75" stroke="#263238" stroke-miterlimit="10" stroke-linecap="round"/>
<path d="M76.5848 312.284C70.9364 320.208 66.5334 328.949 63.5288 338.204" stroke="#263238" stroke-miterlimit="10" stroke-linecap="round"/>
<path d="M85.8547 301.632C82.4445 304.891 79.3415 308.456 76.585 312.284" stroke="#263238" stroke-miterlimit="10" stroke-linecap="round"/>
<path d="M95.7542 294.09C93.2366 295.514 90.8716 297.192 88.6963 299.097" stroke="#263238" stroke-miterlimit="10" stroke-linecap="round"/>
<path d="M76.2471 288.822C71.785 302.868 65.7946 323.62 62.9761 341.637" stroke="#263238" stroke-miterlimit="10" stroke-linecap="round"/>
<path d="M78.9658 280.497C78.1978 282.862 77.2455 285.673 76.2471 288.822" stroke="#263238" stroke-miterlimit="10" stroke-linecap="round"/>
<path d="M81.7535 272.433C81.7535 272.433 80.9855 274.583 79.7183 278.269" stroke="#263238" stroke-miterlimit="10" stroke-linecap="round"/>
<path d="M43.0078 320.325C46.1998 321.443 49.0924 323.279 51.4626 325.692C53.8327 328.105 55.6171 331.03 56.6782 334.241" stroke="#263238" stroke-miterlimit="10" stroke-linecap="round"/>
<path d="M32.6938 318.228C36.2178 318.405 39.695 319.111 43.0081 320.325" stroke="#263238" stroke-miterlimit="10" stroke-linecap="round"/>
<path d="M26.02 318.397C26.02 318.397 27.0107 318.251 28.6466 318.19" stroke="#263238" stroke-miterlimit="10" stroke-linecap="round"/>
<path d="M97.636 326.215C105.838 324.825 111.998 320.839 111.391 317.238C110.784 313.636 103.649 311.9 95.4472 313.29C87.2449 314.68 81.0933 318.666 81.7 322.268C82.3067 325.87 89.4414 327.606 97.636 326.215Z" fill="#47C2C9" stroke="#263238" stroke-miterlimit="10"/>
<path d="M82.2835 320.256C76.6464 322.352 71.1168 326.438 68.4595 334.241" stroke="#263238" stroke-miterlimit="10" stroke-linecap="round"/>
<path d="M93.2738 318.19C89.5247 318.298 85.8159 318.995 82.2837 320.256" stroke="#263238" stroke-miterlimit="10" stroke-linecap="round"/>
<path d="M99.0719 318.397C99.0719 318.397 98.4191 318.297 97.2979 318.228" stroke="#263238" stroke-miterlimit="10" stroke-linecap="round"/>
<path d="M82.1758 358.932C84.6633 353.737 85.9745 348.057 86.0158 342.297C86.0155 338.85 85.4977 335.423 84.4798 332.129H41.5409C40.5229 335.423 40.0052 338.85 40.0049 342.297C40.0462 348.057 41.3573 353.737 43.8449 358.932H82.1758Z" fill="#263238"/>
<path d="M40.4429 336.883C40.32 337.651 40.2278 338.457 40.1587 339.264H85.8393C85.7702 338.457 85.678 337.666 85.5552 336.883H40.4429Z" fill="#7A7A7A"/>
<path d="M85.3557 349.033C85.5016 348.265 85.6245 347.451 85.7166 346.652H40.2817C40.3739 347.42 40.4968 348.242 40.6427 349.033H85.3557Z" fill="#7A7A7A"/>
<path d="M45.5655 342.428C45.5655 342.794 45.457 343.152 45.2536 343.456C45.0502 343.761 44.7612 343.998 44.423 344.138C44.0847 344.278 43.7126 344.315 43.3536 344.243C42.9945 344.172 42.6647 343.996 42.4059 343.737C42.147 343.478 41.9708 343.148 41.8993 342.789C41.8279 342.43 41.8646 342.058 42.0047 341.72C42.1447 341.382 42.382 341.092 42.6864 340.889C42.9907 340.686 43.3486 340.577 43.7146 340.577C44.2055 340.577 44.6763 340.772 45.0234 341.119C45.3705 341.466 45.5655 341.937 45.5655 342.428Z" fill="#8C8C8C"/>
<path d="M54.8121 342.428C54.8121 342.795 54.7027 343.154 54.4979 343.459C54.2932 343.764 54.0022 344.002 53.6623 344.141C53.3223 344.28 52.9485 344.315 52.5887 344.241C52.2288 344.167 51.8991 343.987 51.6416 343.726C51.384 343.464 51.2102 343.131 51.1423 342.77C51.0743 342.409 51.1154 342.036 51.2602 341.698C51.405 341.361 51.647 341.074 51.9554 340.874C52.2638 340.674 52.6246 340.571 52.9919 340.577C53.4775 340.585 53.9404 340.784 54.2809 341.13C54.6214 341.476 54.8122 341.942 54.8121 342.428Z" fill="#8C8C8C"/>
<path d="M64.0587 342.428C64.0587 342.794 63.9501 343.152 63.7468 343.456C63.5434 343.761 63.2543 343.998 62.9161 344.138C62.5779 344.278 62.2058 344.315 61.8467 344.243C61.4877 344.172 61.1579 343.996 60.899 343.737C60.6402 343.478 60.4639 343.148 60.3925 342.789C60.3211 342.43 60.3577 342.058 60.4978 341.72C60.6379 341.382 60.8751 341.092 61.1795 340.889C61.4839 340.686 61.8417 340.577 62.2078 340.577C62.6987 340.577 63.1695 340.772 63.5166 341.119C63.8637 341.466 64.0587 341.937 64.0587 342.428Z" fill="#8C8C8C"/>
<path d="M73.298 342.428C73.298 342.794 73.1892 343.153 72.9855 343.457C72.7818 343.762 72.4922 343.999 72.1536 344.139C71.8149 344.279 71.4424 344.315 71.0832 344.243C70.7239 344.171 70.3941 343.994 70.1356 343.734C69.877 343.474 69.7014 343.144 69.6308 342.784C69.5603 342.425 69.598 342.052 69.7393 341.714C69.8806 341.376 70.119 341.088 70.4244 340.885C70.7298 340.683 71.0884 340.576 71.4548 340.577C71.9443 340.579 72.4131 340.775 72.7586 341.122C73.104 341.469 73.298 341.938 73.298 342.428Z" fill="#8C8C8C"/>
<path d="M82.5445 342.428C82.5445 342.794 82.436 343.152 82.2326 343.456C82.0292 343.761 81.7402 343.998 81.402 344.138C81.0637 344.278 80.6916 344.315 80.3326 344.243C79.9735 344.172 79.6437 343.996 79.3849 343.737C79.126 343.478 78.9498 343.148 78.8783 342.789C78.8069 342.43 78.8436 342.058 78.9837 341.72C79.1238 341.382 79.361 341.092 79.6654 340.889C79.9697 340.686 80.3276 340.577 80.6937 340.577C81.1845 340.577 81.6553 340.772 82.0024 341.119C82.3495 341.466 82.5445 341.937 82.5445 342.428Z" fill="#8C8C8C"/>
<path d="M126.659 211.745H318.313C320.908 211.745 323.397 212.776 325.232 214.611C327.067 216.446 328.097 218.935 328.097 221.53V348.841H116.897V221.522C116.899 218.932 117.928 216.449 119.758 214.617C121.587 212.784 124.069 211.751 126.659 211.745Z" fill="#263238" stroke="#263238" stroke-linecap="round" stroke-linejoin="round"/>
<path d="M295.549 342.244H150.39V349.394H295.549V342.244Z" fill="#263238" stroke="#263238" stroke-linecap="round" stroke-linejoin="round"/>
<path d="M295.549 345.685H150.39V349.394H295.549V345.685Z" fill="white" stroke="#263238" stroke-linecap="round" stroke-linejoin="round"/>
<path d="M99.7939 353.633C99.7939 353.633 102.175 356.544 109.333 358.932H336.607C336.607 358.932 341.898 357.604 344.287 353.894L99.7939 353.633Z" fill="#263238" stroke="#263238" stroke-linecap="round" stroke-linejoin="round"/>
<path d="M342.013 353.979H102.098C101.732 353.98 101.37 353.909 101.032 353.769C100.693 353.63 100.386 353.426 100.127 353.167C99.8681 352.909 99.6626 352.602 99.5224 352.264C99.3822 351.927 99.3101 351.564 99.3101 351.199C99.3101 350.459 99.6038 349.75 100.127 349.227C100.649 348.705 101.359 348.411 102.098 348.411H342.013C342.752 348.413 343.46 348.707 343.982 349.23C344.505 349.752 344.799 350.46 344.801 351.199C344.799 351.937 344.505 352.644 343.982 353.165C343.459 353.686 342.751 353.979 342.013 353.979Z" fill="white" stroke="#263238" stroke-linecap="round" stroke-linejoin="round"/>
<path d="M224.294 215.893C224.296 215.525 224.188 215.165 223.985 214.858C223.781 214.551 223.492 214.312 223.152 214.17C222.813 214.028 222.439 213.99 222.078 214.061C221.717 214.132 221.385 214.308 221.124 214.568C220.864 214.828 220.686 215.159 220.613 215.52C220.541 215.88 220.577 216.254 220.718 216.594C220.858 216.934 221.097 217.225 221.402 217.43C221.708 217.634 222.068 217.743 222.436 217.743C222.927 217.743 223.399 217.549 223.747 217.202C224.096 216.855 224.292 216.384 224.294 215.893Z" fill="#949494"/>
<path d="M118.863 250.322C118.723 250.322 118.588 250.266 118.489 250.167C118.389 250.067 118.333 249.933 118.333 249.792V234.432C118.333 234.291 118.389 234.157 118.489 234.057C118.588 233.958 118.723 233.902 118.863 233.902C119.004 233.902 119.139 233.958 119.238 234.057C119.338 234.157 119.393 234.291 119.393 234.432V249.792C119.394 249.862 119.381 249.931 119.355 249.996C119.329 250.061 119.29 250.12 119.24 250.169C119.191 250.218 119.132 250.257 119.067 250.284C119.003 250.31 118.933 250.323 118.863 250.322Z" fill="#263238" stroke="white" stroke-width="0.691688" stroke-linejoin="round"/>
<path d="M319.527 222.451H125.445V332.129H319.527V222.451Z" fill="white" stroke="#263238" stroke-linecap="round" stroke-linejoin="round"/>
<path d="M168.077 305.941H214.602" stroke="#263238" stroke-linecap="round" stroke-linejoin="round"/>
<path d="M168.077 312.323H214.602" stroke="#263238" stroke-linecap="round" stroke-linejoin="round"/>
<path d="M168.077 318.712H214.602" stroke="#263238" stroke-linecap="round" stroke-linejoin="round"/>
<path d="M168.077 325.094H214.602" stroke="#263238" stroke-linecap="round" stroke-linejoin="round"/>
<path d="M269.138 304.489H221.43V326.584H269.138V304.489Z" fill="white" stroke="#263238" stroke-linecap="round" stroke-linejoin="round"/>
<path d="M269.138 317.284L261.097 310.764L248.294 319.05L242.266 314.78L221.43 326.584H269.138V317.284Z" fill="white" stroke="#263238" stroke-linecap="round" stroke-linejoin="round"/>
<path d="M228.833 314.534C230.568 314.534 231.975 313.128 231.975 311.393C231.975 309.659 230.568 308.252 228.833 308.252C227.099 308.252 225.692 309.659 225.692 311.393C225.692 313.128 227.099 314.534 228.833 314.534Z" fill="white" stroke="#263238" stroke-linecap="round" stroke-linejoin="round"/>
<path d="M319.527 222.451H125.445V297.953H319.527V222.451Z" fill="white" stroke="#263238" stroke-linecap="round" stroke-linejoin="round"/>
<path d="M319.527 222.451H125.445V230.746H319.527V222.451Z" fill="#949494" stroke="#263238" stroke-linecap="round" stroke-linejoin="round"/>
<path d="M319.519 230.461H313.275V332.137H319.519V230.461Z" fill="#949494" stroke="#263238" stroke-linecap="round" stroke-linejoin="round"/>
<path d="M319.519 247.964H313.275V278.193H319.519V247.964Z" fill="#696969" stroke="#263238" stroke-linecap="round" stroke-linejoin="round"/>
<path d="M128.793 295.504L180.541 263.9L236.029 294.451L277.732 260.106L313.121 290.596" stroke="#263238" stroke-miterlimit="10"/>
<path d="M157.916 277.624L167.186 275.029L174.236 279.844L182.392 274.66L189.066 277.993L193.52 274.66L200.486 274.898" stroke="#263238" stroke-miterlimit="10"/>
<path d="M261.75 273.546L271.019 277.624L276.58 271.688L282.509 276.511L289.19 270.206" stroke="#263238" stroke-miterlimit="10"/>
<path d="M145.812 259.054H181.394C181.394 259.054 181.394 256.896 180.311 256.09C180.09 255.942 179.842 255.841 179.581 255.79C178.579 255.592 177.634 255.171 176.815 254.56C175.997 253.949 175.325 253.162 174.85 252.257C174.556 251.635 174.113 251.094 173.562 250.682C173.01 250.27 172.367 249.998 171.686 249.892C167.378 249.085 167.915 252.856 165.489 253.125C163.062 253.394 161.441 248.517 157.401 248.517C153.362 248.517 152.025 254.991 152.025 254.991C152.025 254.991 149.33 252.027 146.903 255.26C144.476 258.493 145.812 259.054 145.812 259.054Z" fill="white" stroke="#263238" stroke-miterlimit="10"/>
<path d="M221.76 259.054H238.364C238.364 259.054 238.364 258.048 237.857 257.672C237.755 257.603 237.64 257.556 237.519 257.533C237.051 257.441 236.609 257.245 236.226 256.959C235.843 256.673 235.529 256.305 235.308 255.882C235.17 255.592 234.964 255.339 234.707 255.147C234.45 254.954 234.15 254.827 233.833 254.776C231.821 254.4 232.074 256.159 230.938 256.312C229.801 256.466 229.056 254.17 227.167 254.17C225.278 254.17 224.648 257.196 224.648 257.196C224.503 257.012 224.315 256.866 224.102 256.769C223.889 256.673 223.656 256.629 223.422 256.641C223.188 256.653 222.96 256.72 222.758 256.838C222.556 256.956 222.385 257.121 222.259 257.318C221.13 258.816 221.76 259.054 221.76 259.054Z" fill="white" stroke="#263238" stroke-miterlimit="10"/>
<path d="M132.726 259.054H149.33C149.33 259.054 149.33 258.048 148.823 257.672C148.721 257.603 148.606 257.556 148.485 257.533C148.017 257.441 147.575 257.245 147.192 256.959C146.809 256.673 146.495 256.305 146.273 255.882C146.136 255.592 145.93 255.339 145.673 255.147C145.416 254.954 145.116 254.827 144.799 254.776C142.787 254.4 143.04 256.159 141.904 256.312C140.767 256.466 140.022 254.17 138.133 254.17C136.243 254.17 135.614 257.196 135.614 257.196C135.468 257.012 135.281 256.866 135.068 256.769C134.855 256.673 134.621 256.629 134.388 256.641C134.154 256.653 133.926 256.72 133.724 256.838C133.522 256.956 133.351 257.121 133.225 257.318C132.096 258.816 132.726 259.054 132.726 259.054Z" fill="white" stroke="#263238" stroke-miterlimit="10"/>
<path d="M267.341 270.774C267.341 280.366 264.722 288.146 261.496 288.146C258.271 288.146 255.652 280.366 255.652 270.774C255.652 261.182 258.271 243.986 261.496 243.986C264.722 243.986 267.341 261.182 267.341 270.774Z" fill="#47C2C9" stroke="#263238" stroke-miterlimit="10"/>
<path d="M260.56 297.6L261.258 255.898L262.664 297.953L260.56 297.6Z" fill="#263238"/>
<path d="M212.06 277.747C212.06 284.882 210.109 290.657 207.713 290.657C205.317 290.657 203.366 284.882 203.366 277.747C203.366 270.613 205.317 257.833 207.713 257.833C210.109 257.833 212.06 270.613 212.06 277.747Z" fill="#47C2C9" stroke="#263238" stroke-miterlimit="10"/>
<path d="M207.014 297.692L207.536 266.688L208.581 297.953L207.014 297.692Z" fill="#263238"/>
<path d="M307.354 277.747C307.354 284.882 305.411 290.657 303.014 290.657C300.618 290.657 298.667 284.882 298.667 277.747C298.667 270.613 300.61 257.833 303.014 257.833C305.418 257.833 307.354 270.613 307.354 277.747Z" fill="#47C2C9" stroke="#263238" stroke-miterlimit="10"/>
<path d="M302.315 297.692L302.838 266.688L303.874 297.953L302.315 297.692Z" fill="#263238"/>
<path d="M319.527 230.461H125.445V239.624H319.527V230.461Z" fill="#47C2C9" stroke="#263238" stroke-miterlimit="10"/>
<path d="M148.37 239.816V230.508" stroke="#263238" stroke-miterlimit="10"/>
<path d="M173.015 239.816V230.508" stroke="#263238" stroke-miterlimit="10"/>
<path d="M197.668 239.816V230.508" stroke="#263238" stroke-miterlimit="10"/>
<path d="M222.313 239.816V230.508" stroke="#263238" stroke-miterlimit="10"/>
<path d="M246.966 239.816V230.508" stroke="#263238" stroke-miterlimit="10"/>
<path d="M271.619 239.816V230.508" stroke="#263238" stroke-miterlimit="10"/>
<path d="M296.264 239.816V230.508" stroke="#263238" stroke-miterlimit="10"/>
<path d="M210.601 224.141H139.945V227.973H210.601V224.141Z" fill="white" stroke="#263238" stroke-linecap="round" stroke-linejoin="round"/>
<path d="M302.485 226.053C302.485 226.357 302.395 226.654 302.226 226.906C302.057 227.159 301.817 227.356 301.536 227.472C301.256 227.588 300.947 227.619 300.649 227.56C300.351 227.5 300.077 227.354 299.862 227.139C299.648 226.924 299.501 226.651 299.442 226.353C299.383 226.055 299.413 225.746 299.53 225.465C299.646 225.185 299.843 224.945 300.095 224.776C300.348 224.607 300.645 224.517 300.949 224.517C301.356 224.517 301.747 224.679 302.035 224.967C302.323 225.255 302.485 225.646 302.485 226.053Z" fill="white" stroke="#263238" stroke-linecap="round" stroke-linejoin="round"/>
<path d="M309.097 226.053C309.097 226.357 309.007 226.654 308.838 226.906C308.669 227.159 308.429 227.356 308.149 227.472C307.868 227.588 307.559 227.619 307.261 227.56C306.963 227.5 306.69 227.354 306.475 227.139C306.26 226.924 306.114 226.651 306.054 226.353C305.995 226.055 306.026 225.746 306.142 225.465C306.258 225.185 306.455 224.945 306.708 224.776C306.96 224.607 307.257 224.517 307.561 224.517C307.968 224.517 308.359 224.679 308.647 224.967C308.935 225.255 309.097 225.646 309.097 226.053Z" fill="white" stroke="#263238" stroke-linecap="round" stroke-linejoin="round"/>
<path d="M315.709 226.053C315.709 226.357 315.619 226.654 315.45 226.906C315.282 227.159 315.042 227.356 314.761 227.472C314.48 227.588 314.171 227.619 313.874 227.56C313.576 227.5 313.302 227.354 313.087 227.139C312.872 226.924 312.726 226.651 312.667 226.353C312.607 226.055 312.638 225.746 312.754 225.465C312.87 225.185 313.067 224.945 313.32 224.776C313.572 224.607 313.869 224.517 314.173 224.517C314.581 224.517 314.971 224.679 315.259 224.967C315.547 225.255 315.709 225.646 315.709 226.053Z" fill="white" stroke="#263238" stroke-linecap="round" stroke-linejoin="round"/>
<path d="M270.828 156.956V149.483L262.287 148.585C261.921 147.222 261.389 145.91 260.705 144.676L266.151 137.948L260.867 132.672L254.193 138.048C252.971 137.346 251.669 136.794 250.314 136.404L249.408 127.803H241.92L241.022 136.335C239.657 136.7 238.344 137.234 237.112 137.925L230.385 132.472L225.101 137.756L230.477 144.43C229.775 145.638 229.223 146.928 228.833 148.27L220.224 149.176V156.649L228.764 157.547C229.131 158.91 229.662 160.222 230.346 161.456L224.901 168.176L230.177 173.46L236.851 168.084C238.074 168.789 239.38 169.341 240.737 169.728L241.644 178.337H249.109L250.007 169.805C251.37 169.437 252.683 168.903 253.916 168.215L260.644 173.66L265.92 168.384L260.544 161.71C261.249 160.487 261.801 159.182 262.188 157.824L270.828 156.956ZM245.553 164.959C243.206 164.96 240.911 164.265 238.958 162.963C237.006 161.66 235.484 159.807 234.585 157.639C233.686 155.471 233.45 153.085 233.907 150.783C234.364 148.481 235.493 146.366 237.152 144.705C238.811 143.045 240.925 141.914 243.227 141.456C245.529 140.997 247.915 141.232 250.084 142.13C252.253 143.028 254.106 144.549 255.41 146.5C256.715 148.451 257.411 150.746 257.411 153.093C257.411 156.239 256.162 159.255 253.938 161.48C251.714 163.706 248.698 164.957 245.553 164.959Z" fill="#263238"/>
<path d="M300.18 131.766V126.259L293.883 125.591C293.611 124.588 293.219 123.621 292.715 122.711L296.732 117.75L292.838 113.856L287.915 117.842C287.014 117.322 286.052 116.914 285.051 116.628L284.383 110.277H278.876L278.208 116.575C277.204 116.847 276.237 117.239 275.328 117.742L270.336 113.725L266.496 117.619L270.482 122.542C269.959 123.442 269.551 124.405 269.268 125.407L262.917 126.075V131.581L269.215 132.25C269.466 133.265 269.842 134.246 270.336 135.168L266.319 140.129L270.213 144.023L275.136 140.037C276.036 140.56 276.999 140.967 278.001 141.251L278.669 147.602H284.175L284.843 141.304C285.847 141.032 286.814 140.64 287.723 140.137L292.685 144.154L296.578 140.26L292.608 135.299C293.131 134.398 293.538 133.436 293.821 132.434L300.18 131.766ZM281.533 137.672C279.802 137.672 278.109 137.158 276.669 136.196C275.229 135.234 274.107 133.867 273.445 132.267C272.782 130.667 272.609 128.907 272.946 127.208C273.284 125.51 274.118 123.95 275.342 122.726C276.567 121.501 278.127 120.667 279.825 120.329C281.524 119.992 283.284 120.165 284.884 120.828C286.484 121.49 287.851 122.613 288.813 124.052C289.775 125.492 290.289 127.185 290.289 128.916C290.29 130.066 290.064 131.205 289.624 132.268C289.184 133.331 288.54 134.296 287.726 135.11C286.913 135.923 285.948 136.568 284.885 137.007C283.822 137.447 282.683 137.673 281.533 137.672Z" fill="#263238"/>
<path d="M213.88 96.115H215.032" stroke="#263238" stroke-miterlimit="10"/>
<path d="M217.306 96.115H252.457" stroke="#263238" stroke-miterlimit="10" stroke-dasharray="2.95 2.95"/>
<path d="M253.594 96.1074H254.746V97.2594" stroke="#263238" stroke-miterlimit="10"/>
<path d="M254.746 99.6633V132.073" stroke="#263238" stroke-miterlimit="10" stroke-dasharray="3.13 3.13"/>
<path d="M254.746 133.279V134.431" stroke="#263238" stroke-miterlimit="10"/>
<path d="M254.746 179.589V180.741" stroke="#263238" stroke-miterlimit="10"/>
<path d="M254.746 183.337V197.66" stroke="#263238" stroke-miterlimit="10" stroke-dasharray="3.39 3.39"/>
<path d="M254.746 198.958V200.11" stroke="#263238" stroke-miterlimit="10"/>
<path d="M254.807 208.166L262.518 194.811H247.096L254.807 208.166Z" fill="#263238"/>
<path d="M209.08 45.312H81.3926V199.549H209.08V45.312Z" fill="#263238"/>
<path d="M209.08 45.312H81.3926V54.0058H209.08V45.312Z" fill="#263238"/>
<path opacity="0.3" d="M209.08 45.312H81.3926V54.0058H209.08V45.312Z" fill="white"/>
<path d="M96.0459 57.6692H83.228V147.372H96.0459V57.6692Z" fill="#263238"/>
<path opacity="0.3" d="M96.0459 57.6692H83.228V147.372H96.0459V57.6692Z" fill="white"/>
<path opacity="0.3" d="M207.559 54.9351H199.688V197.891H207.559V54.9351Z" fill="white"/>
<path d="M182.584 62.0698H104.924V173.937H182.584V62.0698Z" fill="white"/>
<path d="M182.584 62.0698H104.924V98.1044H182.584V62.0698Z" fill="white" stroke="#263238" stroke-miterlimit="10"/>
<path d="M182.584 95.3704H104.924V98.1044H182.584V95.3704Z" fill="#263238"/>
<path d="M116.298 104.832H134.423" stroke="#263238" stroke-miterlimit="10"/>
<path d="M116.298 109.286H134.423" stroke="#263238" stroke-miterlimit="10"/>
<path d="M116.298 113.741H134.423" stroke="#263238" stroke-miterlimit="10"/>
<path d="M116.298 118.188H134.423" stroke="#263238" stroke-miterlimit="10"/>
<path d="M116.298 122.642H134.423" stroke="#263238" stroke-miterlimit="10"/>
<path d="M116.298 127.089H134.423" stroke="#263238" stroke-miterlimit="10"/>
<path d="M116.298 131.543H134.423" stroke="#263238" stroke-miterlimit="10"/>
<path d="M116.298 135.998H134.423" stroke="#263238" stroke-miterlimit="10"/>
<path d="M113.218 158.554H131.351" stroke="#263238" stroke-miterlimit="10"/>
<path d="M113.218 163H131.351" stroke="#263238" stroke-miterlimit="10"/>
<path d="M113.218 167.455H131.351" stroke="#263238" stroke-miterlimit="10"/>
<path d="M134.692 158.554H152.824" stroke="#263238" stroke-miterlimit="10"/>
<path d="M134.692 163H152.824" stroke="#263238" stroke-miterlimit="10"/>
<path d="M134.692 167.455H152.824" stroke="#263238" stroke-miterlimit="10"/>
<path d="M156.165 158.554H174.298" stroke="#263238" stroke-miterlimit="10"/>
<path d="M156.165 163H174.298" stroke="#263238" stroke-miterlimit="10"/>
<path d="M156.165 167.455H174.298" stroke="#263238" stroke-miterlimit="10"/>
<path d="M182.584 62.0698H104.924V65.065H182.584V62.0698Z" fill="#47C2C9" stroke="#263238" stroke-miterlimit="10"/>
<path d="M114.908 62.3154V64.9036" stroke="#263238" stroke-miterlimit="10"/>
<path d="M124.447 62.3154V64.9036" stroke="#263238" stroke-miterlimit="10"/>
<path d="M133.978 62.3154V64.9036" stroke="#263238" stroke-miterlimit="10"/>
<path d="M143.516 62.3154V64.9036" stroke="#263238" stroke-miterlimit="10"/>
<path d="M153.055 62.3154V64.9036" stroke="#263238" stroke-miterlimit="10"/>
<path d="M162.593 62.3154V64.9036" stroke="#263238" stroke-miterlimit="10"/>
<path d="M172.132 62.3154V64.9036" stroke="#263238" stroke-miterlimit="10"/>
<path d="M104.924 95.3702L182.584 65.0649" stroke="#263238" stroke-miterlimit="10"/>
<path d="M104.924 65.0649L182.584 95.3702" stroke="#263238" stroke-miterlimit="10"/>
<path d="M165.028 101.553H136.973V116.583H165.028V101.553Z" fill="white" stroke="#263238" stroke-miterlimit="10"/>
<path d="M165.028 118.433H136.973V133.463H165.028V118.433Z" fill="white" stroke="#263238" stroke-miterlimit="10"/>
<path d="M165.028 135.306H136.973V150.336H165.028V135.306Z" fill="white" stroke="#263238" stroke-miterlimit="10"/>
<path d="M136.973 101.553L165.02 116.583" stroke="#263238" stroke-miterlimit="10"/>
<path d="M165.02 101.553L136.973 116.583" stroke="#263238" stroke-miterlimit="10"/>
<path d="M136.973 118.433L165.02 133.455" stroke="#263238" stroke-miterlimit="10"/>
<path d="M165.02 118.433L136.973 133.455" stroke="#263238" stroke-miterlimit="10"/>
<path d="M136.973 135.306L165.02 150.336" stroke="#263238" stroke-miterlimit="10"/>
<path d="M165.02 135.306L136.973 150.336" stroke="#263238" stroke-miterlimit="10"/>
<path d="M202.038 81.8381H170.458V109.755H202.038V81.8381Z" fill="#263238"/>
<path opacity="0.3" d="M190.963 81.8381V85.0561H170.458V109.755H202.038V81.8381H190.963Z" fill="white"/>
<path opacity="0.18" d="M190.955 81.8381H170.458V85.0561H190.955V81.8381Z" fill="white"/>
<path d="M174.958 86.7302H171.586V90.1017H174.958V86.7302Z" fill="white"/>
<path d="M178.644 86.7302H175.273V90.1017H178.644V86.7302Z" fill="#263238"/>
<path d="M182.331 86.7302H178.959V90.1017H182.331V86.7302Z" fill="white"/>
<path d="M186.01 86.7302H182.638V90.1017H186.01V86.7302Z" fill="#263238"/>
<path d="M189.696 86.7302H186.324V90.1017H189.696V86.7302Z" fill="white"/>
<path d="M193.382 86.7302H190.011V90.1017H193.382V86.7302Z" fill="#47C2C9"/>
<path d="M197.061 86.7302H193.689V90.1017H197.061V86.7302Z" fill="white"/>
<path d="M174.958 90.478H171.586V93.8495H174.958V90.478Z" fill="white"/>
<path d="M178.644 90.478H175.273V93.8495H178.644V90.478Z" fill="#47C2C9"/>
<path d="M182.331 90.478H178.959V93.8495H182.331V90.478Z" fill="white"/>
<path d="M186.01 90.478H182.638V93.8495H186.01V90.478Z" fill="#47C2C9"/>
<path d="M189.696 90.478H186.324V93.8495H189.696V90.478Z" fill="white"/>
<path d="M193.382 90.478H190.011V93.8495H193.382V90.478Z" fill="white"/>
<path d="M197.061 90.478H193.689V93.8495H197.061V90.478Z" fill="white"/>
<path d="M174.958 94.2258H171.586V97.5973H174.958V94.2258Z" fill="#263238"/>
<path d="M178.644 94.2258H175.273V97.5973H178.644V94.2258Z" fill="white"/>
<path d="M182.331 94.2258H178.959V97.5973H182.331V94.2258Z" fill="#263238"/>
<path d="M186.01 94.2258H182.638V97.5973H186.01V94.2258Z" fill="white"/>
<path d="M189.696 94.2258H186.324V97.5973H189.696V94.2258Z" fill="#47C2C9"/>
<path d="M193.382 94.2258H190.011V97.5973H193.382V94.2258Z" fill="white"/>
<path d="M197.061 94.2258H193.689V97.5973H197.061V94.2258Z" fill="#263238"/>
<path d="M174.958 97.9661H171.586V101.338H174.958V97.9661Z" fill="white"/>
<path d="M178.644 97.9661H175.273V101.338H178.644V97.9661Z" fill="#263238"/>
<path d="M182.331 97.9661H178.959V101.338H182.331V97.9661Z" fill="white"/>
<path d="M186.01 97.9661H182.638V101.338H186.01V97.9661Z" fill="#47C2C9"/>
<path d="M189.696 97.9661H186.324V101.338H189.696V97.9661Z" fill="white"/>
<path d="M193.382 97.9661H190.011V101.338H193.382V97.9661Z" fill="#263238"/>
<path d="M197.061 97.9661H193.689V101.338H197.061V97.9661Z" fill="white"/>
<path d="M174.958 101.714H171.586V105.085H174.958V101.714Z" fill="#263238"/>
<path d="M178.644 101.714H175.273V105.085H178.644V101.714Z" fill="white"/>
<path d="M182.331 101.714H178.959V105.085H182.331V101.714Z" fill="white"/>
<path d="M186.01 101.714H182.638V105.085H186.01V101.714Z" fill="white"/>
<path d="M189.696 101.714H186.324V105.085H189.696V101.714Z" fill="white"/>
<path d="M193.382 101.714H190.011V105.085H193.382V101.714Z" fill="white"/>
<path d="M197.061 101.714H193.689V105.085H197.061V101.714Z" fill="#47C2C9"/>
<path d="M201.331 86.6919H199.004V105.377H201.331V86.6919Z" fill="#263238"/>
<path d="M77.568 96.1152H76.416" stroke="#263238" stroke-miterlimit="10"/>
<path d="M74.2196 96.1152H57.769" stroke="#263238" stroke-miterlimit="10" stroke-dasharray="2.86 2.86"/>
<path d="M56.671 96.1073H55.519V94.9553" stroke="#263238" stroke-miterlimit="10"/>
<path d="M55.519 92.6283V84.4875" stroke="#263238" stroke-miterlimit="10" stroke-dasharray="3.03 3.03"/>
<path d="M55.519 83.3202V82.1682" stroke="#263238" stroke-miterlimit="10"/>
<path d="M78.8892 95.854L65.5337 88.1433V103.565L78.8892 95.854Z" fill="#263238"/>
<path d="M56.2178 70.4409H26.3887V30.6738H52.5007L56.2178 35.973V70.4409Z" fill="white" stroke="#263238" stroke-linecap="round" stroke-linejoin="round"/>
<path d="M52.5005 30.6738V36.4415H56.2176L52.5005 30.6738Z" fill="white" stroke="#263238" stroke-linecap="round" stroke-linejoin="round"/>
<path d="M30.9658 42.0557H51.8017" stroke="#263238" stroke-linecap="round" stroke-linejoin="round"/>
<path d="M30.9658 47.6772H51.8017" stroke="#263238" stroke-linecap="round" stroke-linejoin="round"/>
<path d="M30.9658 53.2915H51.8017" stroke="#263238" stroke-linecap="round" stroke-linejoin="round"/>
<path d="M30.9658 58.9131H51.8017" stroke="#263238" stroke-linecap="round" stroke-linejoin="round"/>
<path d="M56.0182 41.5872H39.8672V70.3795H56.0182V41.5872Z" fill="#263238" stroke="#263238" stroke-linecap="round" stroke-linejoin="round"/>
<path d="M72.8297 79.5725H43.0083V39.8054H69.1203L72.8297 45.1046V79.5725Z" fill="white" stroke="#263238" stroke-linecap="round" stroke-linejoin="round"/>
<path d="M69.1201 39.8054V45.5731H72.8296L69.1201 39.8054Z" fill="white" stroke="#263238" stroke-linecap="round" stroke-linejoin="round"/>
<path d="M47.5854 51.187H68.4213" stroke="#263238" stroke-linecap="round" stroke-linejoin="round"/>
<path d="M47.5854 56.8088H68.4213" stroke="#263238" stroke-linecap="round" stroke-linejoin="round"/>
<path d="M47.5854 62.4229H68.4213" stroke="#263238" stroke-linecap="round" stroke-linejoin="round"/>
<path d="M47.5854 68.0371H68.4213" stroke="#263238" stroke-linecap="round" stroke-linejoin="round"/>
</svg>
