<svg width="106" height="35" viewBox="0 0 106 35" fill="none" xmlns="http://www.w3.org/2000/svg">
<g id="Logo">
<path id="Vector" d="M5.47981 0.380371V9.01937C5.43958 9.02246 5.39626 9.02865 5.35913 9.02865C5.30343 9.03175 5.24465 9.03174 5.18586 9.03174C4.74339 9.03174 4.30401 8.98224 3.87701 8.87394C3.49952 8.78421 3.13131 8.64188 2.77547 8.49026C2.58363 8.40672 2.40417 8.28605 2.22781 8.17775C2.05144 8.06945 1.88125 7.95497 1.71107 7.83429C1.38927 7.60842 1.08296 7.35779 0.789006 7.08859C0.643579 6.95554 0.507434 6.81939 0.377478 6.67087C0.306311 6.59352 0.241332 6.51307 0.17326 6.43262C0.142318 6.3893 0.108284 6.34598 0.0742478 6.30266C0.0649652 6.29029 0.043303 6.27172 0.027832 6.24697V0.380371H5.47981Z" fill="#212222"/>
<path id="Vector_2" d="M105.701 12.8472V24.5958H100.249V23.1694C102.61 21.6223 104.231 19.4285 105.079 16.6314C105.472 15.3442 105.679 14.0818 105.701 12.8472Z" fill="#212222"/>
<path id="Vector_3" d="M105.701 0.386719V12.253C105.651 10.5264 105.24 8.85863 104.466 7.25893C103.504 5.27865 102.093 3.71608 100.249 2.59288V0.386719H105.701Z" fill="#212222"/>
<path id="Vector_4" d="M25.4683 24.599H18.0608L9.64771 16.1859C9.23309 15.7372 8.91439 15.2886 8.68232 14.8337C8.48739 15.2514 8.22437 15.6166 7.89948 15.9198L5.47673 18.3549V24.599H0.0309448V15.5732L2.21545 13.562C3.66662 13.9612 5.1766 14.0354 6.74535 13.7817C8.63591 13.4723 10.4058 12.7204 12.0395 11.5322C12.482 11.7643 12.9183 12.0799 13.3453 12.479L25.4683 24.599Z" fill="#212222"/>
<path id="Vector_5" d="M43.9778 16.3776C43.0248 17.3306 42.3193 18.0144 41.8769 18.4074C41.4653 18.7756 40.7846 19.1469 39.8533 19.5151C38.925 19.8802 37.8482 20.0659 36.6508 20.0659C35.2089 20.0659 33.7732 19.4872 32.3746 18.3486C30.9822 17.213 30.1375 15.8113 29.8652 14.1807C29.8342 14.0105 29.7909 13.8465 29.7352 13.6887C30.156 13.7754 30.6356 13.8218 31.1647 13.8218H48.5418V13.4319C48.5418 9.50228 47.4062 6.25028 45.1691 3.76254C42.9196 1.26553 39.9554 0 36.363 0C32.7706 0 29.794 1.21602 27.5167 3.61093C25.2425 5.99965 24.0883 8.99792 24.0883 12.516C24.0883 15.9784 25.3755 18.9705 27.9127 21.4087C30.4469 23.8439 33.3864 25.0785 36.6508 25.0785C38.9095 25.0785 40.9641 24.6607 42.7556 23.8408C44.5471 23.0177 46.4129 21.4799 48.3035 19.2645L48.5975 18.921L44.1975 16.1579L43.9778 16.3776ZM41.5582 8.94841H31.1183C30.8863 8.94841 30.6573 8.96079 30.4345 8.98245C30.5459 8.83702 30.6449 8.68231 30.7347 8.52451C32.0497 6.22862 33.8907 5.11161 36.363 5.11161C38.86 5.11161 40.6856 6.22552 41.9418 8.52451C42.0378 8.6916 42.1368 8.84631 42.2451 8.99173C42.0192 8.96389 41.7871 8.94841 41.5582 8.94841Z" fill="#212222"/>
<path id="Vector_6" d="M100.236 13.1975C100.181 14.0515 99.9827 14.9364 99.6671 15.7286C98.9492 17.5417 97.5723 18.9713 95.7994 19.7015C95.4745 19.8345 95.1558 19.949 94.8371 20.0326C94.376 21.032 93.6489 21.951 92.6649 22.7771C91.7119 23.5754 90.5702 24.1695 89.2551 24.547C89.481 24.6336 89.7162 24.711 89.9513 24.7853C92.9527 25.7383 96.0067 25.435 99.0328 23.8818C99.4598 23.6621 99.8651 23.43 100.252 23.1701V13.0737C100.246 13.1078 100.24 13.1666 100.236 13.1975Z" fill="#49C2C9"/>
<path id="Vector_7" d="M105.701 12.2532V12.8473C105.676 14.0819 105.469 15.3443 105.079 16.6346C104.231 19.4317 102.61 21.6255 100.249 23.1726V2.59619C102.093 3.71629 103.504 5.28195 104.466 7.26224C105.24 8.85885 105.651 10.5266 105.701 12.2532Z" fill="#2F7376"/>
<path id="Vector_8" d="M63.5053 10.3092C57.88 8.77449 57.4407 7.74103 57.4407 7.46255C57.4407 6.93035 57.846 6.38267 58.6412 5.8381C59.4859 5.25948 60.5194 4.96863 61.7169 4.96863C63.7466 4.96863 65.925 5.72361 68.1899 7.21502L68.49 7.41304L71.7297 3.26373L71.3429 3.03785C69.9474 2.22717 68.3446 1.51241 66.5809 0.912136C64.7987 0.308768 63.1618 0.00244141 61.7169 0.00244141C58.5855 0.00244141 56.1194 0.772901 54.3867 2.28906C52.6385 3.82068 51.7504 5.6741 51.7504 7.80291C51.7504 9.29431 52.3693 10.5908 53.5915 11.6583C54.7858 12.701 56.9363 13.6417 60.1698 14.5328C65.6001 16.0242 66.1849 17.1567 66.1849 17.5713C66.1849 18.0695 65.7424 18.6047 64.8729 19.1679C63.0999 20.3127 60.7453 20.4118 57.7748 19.1834C56.3422 18.5924 55.2283 17.9673 54.461 17.3207L54.1732 17.0793L50.6056 20.9873L50.946 21.2472C52.1867 22.1971 53.8638 23.079 55.9245 23.8742C57.9976 24.6725 59.9129 25.0778 61.624 25.0778C64.7523 25.0778 67.2647 24.3012 69.0903 22.7726C70.9406 21.2255 71.8782 19.3597 71.8782 17.2278C71.8782 15.7426 71.2532 14.409 70.0217 13.2611C68.8057 12.1348 66.6768 11.1663 63.5053 10.3092Z" fill="#212222"/>
<path id="Vector_9" d="M7.89329 8.32363L5.35606 10.6597L2.21544 13.5559C1.46046 13.3486 0.717853 13.0485 0 12.6617V6.19482C0 6.2072 0.0154681 6.22886 0.0309391 6.25052C0.0464101 6.27527 0.0711665 6.29384 0.0773549 6.30622C0.108297 6.34953 0.142331 6.39285 0.176367 6.43617C0.241345 6.51971 0.309418 6.59707 0.380585 6.67443C0.510541 6.82295 0.646691 6.95909 0.792118 7.09214C1.08607 7.36133 1.39239 7.61197 1.71418 7.83784C1.88127 7.95852 2.05455 8.073 2.23092 8.1813C2.40729 8.28959 2.58675 8.41336 2.77859 8.49381C3.13442 8.64543 3.50263 8.78776 3.88012 8.87749C4.30712 8.98269 4.7465 9.03529 5.18897 9.03529C5.24776 9.03529 5.30655 9.0353 5.36224 9.0322C5.40247 9.0322 5.44578 9.02911 5.48291 9.02292C6.3431 8.97651 7.16306 8.72897 7.89329 8.32363Z" fill="#2F7376"/>
<path id="Vector_10" d="M12.0922 11.4884C12.0767 11.5038 12.0581 11.5193 12.0365 11.5286C10.4027 12.7168 8.63285 13.4717 6.7423 13.7781C5.17664 14.0318 3.66358 13.9575 2.2124 13.5584L9.18671 7.13483L15.9723 0.383301H23.3055L15.2142 8.46843C15.0409 8.67884 14.8708 8.88615 14.6913 9.08727C14.1993 9.65041 13.6919 10.161 13.1628 10.622L12.0922 11.4884Z" fill="#49C2C9"/>
<path id="Vector_11" d="M95.4528 17.2316C95.4528 18.2279 95.2486 19.1624 94.8402 20.0318C94.3791 21.0313 93.652 21.9502 92.668 22.7764C91.715 23.5747 90.5732 24.1688 89.2582 24.5463C88.0515 24.9021 86.6993 25.0785 85.2017 25.0785C83.4937 25.0785 81.5753 24.6762 79.5053 23.8748C77.4415 23.0765 75.7644 22.1947 74.5237 21.2448L74.1833 20.9879L77.7602 17.0769L78.0448 17.3182C78.8122 17.9618 79.9292 18.5868 81.3587 19.1778C81.8909 19.3975 82.4015 19.5739 82.8934 19.7131C85.1522 20.3351 86.9995 20.103 88.4537 19.1624C88.6177 19.0602 88.7631 18.955 88.8962 18.8529C89.4748 18.4043 89.7688 17.9711 89.7688 17.5688C89.7688 17.2223 89.3634 16.3807 86.1021 15.2513C85.5173 15.044 84.8366 14.8336 84.0476 14.6108C83.9486 14.5829 83.8527 14.5551 83.7536 14.5272C80.5233 13.6361 78.3697 12.6986 77.1723 11.6558C75.9532 10.5883 75.3312 9.29187 75.3312 7.80047C75.3312 5.67166 76.2193 3.81824 77.9675 2.28661C79.6971 0.770455 82.1632 0 85.2976 0C86.7426 0 88.3795 0.303232 90.1617 0.909694C90.3566 0.974672 90.5516 1.04584 90.7434 1.117C92.2781 1.66777 93.6829 2.31136 94.9206 3.03541L95.3074 3.25819L93.3054 5.82018L92.0677 7.40751L91.7676 7.21257C91.5015 7.0362 91.2323 6.86912 90.9693 6.7175C88.989 5.55718 87.0861 4.96619 85.2945 4.96619C85.2296 4.96619 85.1615 4.96619 85.0965 4.97547C83.9826 5.00332 83.0141 5.29107 82.222 5.83875C81.4237 6.38333 81.0184 6.9279 81.0184 7.4632C81.0184 7.64576 81.2009 8.13774 82.8501 8.88653C83.7536 9.28878 85.0934 9.76838 87.083 10.313C90.2515 11.17 92.3864 12.1385 93.5963 13.2617C94.0821 13.7135 94.4719 14.1993 94.769 14.7129C95.2207 15.4895 95.4528 16.3343 95.4528 17.2316Z" fill="#212222"/>
<g id="Group">
<path id="Vector_12" d="M27.8478 30.9016V31.4926H26.8483V34.2402H26.1459V31.4926H25.1434V30.9016H27.8478Z" fill="black"/>
<path id="Vector_13" d="M33.7886 31.4958H32.0218V32.2044H33.6431V32.7861H32.0218V33.6462H33.8721V34.2465H31.3411V30.9048H33.7917V31.4958H33.7886Z" fill="black"/>
<path id="Vector_14" d="M37.7957 31.2509C38.0649 30.9755 38.4083 30.8394 38.8229 30.8394C39.3799 30.8394 39.7852 31.025 40.0421 31.3932C40.1844 31.6005 40.2617 31.8078 40.271 32.0152H39.5717C39.5284 31.8543 39.4696 31.7336 39.4016 31.6531C39.2778 31.5077 39.0921 31.4365 38.8477 31.4365C38.6002 31.4365 38.4021 31.5386 38.2598 31.7429C38.1175 31.9471 38.0432 32.2379 38.0432 32.6123C38.0432 32.9867 38.1175 33.2683 38.2691 33.454C38.4207 33.6396 38.6125 33.7324 38.8477 33.7324C39.086 33.7324 39.2685 33.652 39.3954 33.4911C39.4634 33.4044 39.5222 33.2745 39.5686 33.1043H40.2617C40.203 33.4694 40.0482 33.7634 39.8038 33.9923C39.5594 34.2213 39.2438 34.3358 38.8601 34.3358C38.3836 34.3358 38.0123 34.1811 37.74 33.8748C37.4677 33.5653 37.3315 33.1414 37.3315 32.6C37.3315 32.0182 37.4863 31.5665 37.7957 31.2509Z" fill="black"/>
<path id="Vector_15" d="M43.8881 34.2433V30.9016H44.5812V32.1764H45.8807V30.9016H46.5738V34.2433H45.8807V32.7519H44.5812V34.2433H43.8881Z" fill="black"/>
<path id="Vector_16" d="M54.953 33.1696C54.9622 33.3584 55.0056 33.5131 55.0829 33.6306C55.2283 33.8503 55.4821 33.9617 55.8441 33.9617C56.0081 33.9617 56.1566 33.937 56.2897 33.8906C56.5496 33.7977 56.6795 33.6306 56.6795 33.3862C56.6795 33.2037 56.6238 33.0768 56.5155 32.9994C56.4041 32.9252 56.2309 32.8571 55.9926 32.8014L55.5563 32.6993C55.2717 32.6343 55.0705 32.5601 54.9499 32.4796C54.7457 32.3404 54.6435 32.1331 54.6435 31.8577C54.6435 31.5575 54.7457 31.3131 54.9468 31.1213C55.1479 30.9294 55.4326 30.8335 55.8039 30.8335C56.1442 30.8335 56.432 30.917 56.6702 31.0872C56.9085 31.2543 57.0261 31.5266 57.0261 31.8948H56.6022C56.5805 31.7153 56.5341 31.5792 56.4629 31.4833C56.3299 31.31 56.1071 31.2234 55.7915 31.2234C55.5378 31.2234 55.3521 31.2791 55.2407 31.3904C55.1293 31.5018 55.0736 31.6318 55.0736 31.7803C55.0736 31.9443 55.1386 32.0619 55.2717 32.1392C55.3583 32.1888 55.5532 32.2475 55.8565 32.3218L56.3082 32.427C56.5279 32.4796 56.695 32.5477 56.8126 32.6374C57.0168 32.7921 57.1189 33.018 57.1189 33.315C57.1189 33.6832 56.9889 33.9463 56.7259 34.1072C56.466 34.265 56.1597 34.3454 55.8131 34.3454C55.4109 34.3454 55.0922 34.2402 54.8663 34.0267C54.6374 33.8163 54.526 33.5316 54.5291 33.1727H54.953V33.1696Z" fill="black"/>
<path id="Vector_17" d="M63.5609 31.3907C63.7806 31.6846 63.892 32.0621 63.892 32.5201C63.892 33.0182 63.7652 33.4298 63.5145 33.7609C63.2175 34.1476 62.7967 34.3426 62.249 34.3426C61.7354 34.3426 61.3331 34.1724 61.0423 33.8351C60.7792 33.5102 60.6493 33.0956 60.6493 32.5974C60.6493 32.1457 60.7607 31.762 60.9835 31.4402C61.2712 31.0287 61.6951 30.8245 62.2583 30.8245C62.8431 30.8245 63.2794 31.0132 63.5609 31.3907ZM63.1618 33.5133C63.3381 33.2287 63.4279 32.9007 63.4279 32.5294C63.4279 32.1364 63.3258 31.8239 63.1216 31.5825C62.9173 31.3443 62.6358 31.2236 62.283 31.2236C61.9396 31.2236 61.658 31.3412 61.4414 31.5794C61.2248 31.8146 61.1165 32.1642 61.1165 32.6253C61.1165 32.9935 61.2093 33.306 61.395 33.5597C61.5806 33.8135 61.8839 33.9403 62.3016 33.9403C62.6976 33.9403 62.9854 33.798 63.1618 33.5133Z" fill="black"/>
<path id="Vector_18" d="M67.4937 30.9138H67.9455V33.8471H69.6163V34.2432H67.4937V30.9138Z" fill="black"/>
<path id="Vector_19" d="M73.6233 30.9138V32.9715C73.6233 33.2128 73.6697 33.4139 73.7594 33.5748C73.8956 33.8162 74.1245 33.9369 74.4432 33.9369C74.83 33.9369 75.0899 33.8069 75.2292 33.5439C75.3034 33.4016 75.3405 33.2097 75.3405 32.9715V30.9138H75.7954V32.7827C75.7954 33.1911 75.7397 33.5068 75.6283 33.7265C75.4241 34.1287 75.0404 34.3298 74.4773 34.3298C73.9141 34.3298 73.5304 34.1287 73.3293 33.7265C73.2179 33.5068 73.1622 33.1911 73.1622 32.7827V30.9138H73.6233Z" fill="black"/>
<path id="Vector_20" d="M81.9714 30.9138V31.3099H80.8513V34.2432H80.3965V31.3099H79.2764V30.9138H81.9714Z" fill="black"/>
<path id="Vector_21" d="M85.5515 30.9138H86.0063V34.2432H85.5515V30.9138Z" fill="black"/>
<path id="Vector_22" d="M92.5443 31.3907C92.7639 31.6846 92.8753 32.0621 92.8753 32.5201C92.8753 33.0182 92.7485 33.4298 92.4979 33.7609C92.2008 34.1476 91.78 34.3426 91.2323 34.3426C90.7187 34.3426 90.3165 34.1724 90.0256 33.8351C89.7626 33.5102 89.6326 33.0956 89.6326 32.5974C89.6326 32.1457 89.744 31.762 89.9668 31.4402C90.2546 31.0287 90.6785 30.8245 91.2416 30.8245C91.8264 30.8245 92.2627 31.0132 92.5443 31.3907ZM92.1482 33.5133C92.3246 33.2287 92.4143 32.9007 92.4143 32.5294C92.4143 32.1364 92.3122 31.8239 92.108 31.5825C91.9038 31.3443 91.6222 31.2236 91.2695 31.2236C90.926 31.2236 90.6444 31.3412 90.4278 31.5794C90.2112 31.8146 90.103 32.1642 90.103 32.6253C90.103 32.9935 90.1958 33.306 90.3814 33.5597C90.5671 33.8135 90.8703 33.9403 91.288 33.9403C91.681 33.9403 91.9687 33.798 92.1482 33.5133Z" fill="black"/>
<path id="Vector_23" d="M96.477 30.9138H97.0092L98.6708 33.6027V30.9138H99.1009V34.2432H98.5934L96.9071 31.5574V34.2432H96.477V30.9138Z" fill="black"/>
<path id="Vector_24" d="M103.185 33.1696C103.195 33.3584 103.238 33.5131 103.315 33.6306C103.461 33.8503 103.714 33.9617 104.076 33.9617C104.24 33.9617 104.389 33.937 104.522 33.8906C104.782 33.7977 104.912 33.6306 104.912 33.3862C104.912 33.2037 104.856 33.0768 104.748 32.9994C104.636 32.9252 104.463 32.8571 104.225 32.8014L103.789 32.6993C103.504 32.6343 103.303 32.5601 103.182 32.4796C102.978 32.3404 102.876 32.1331 102.876 31.8577C102.876 31.5575 102.978 31.3131 103.179 31.1213C103.38 30.9294 103.665 30.8335 104.036 30.8335C104.377 30.8335 104.664 30.917 104.903 31.0872C105.141 31.2543 105.258 31.5266 105.258 31.8948H104.834C104.813 31.7153 104.766 31.5792 104.695 31.4833C104.562 31.31 104.339 31.2234 104.024 31.2234C103.77 31.2234 103.584 31.2791 103.473 31.3904C103.362 31.5018 103.306 31.6318 103.306 31.7803C103.306 31.9443 103.371 32.0619 103.504 32.1392C103.591 32.1888 103.786 32.2475 104.089 32.3218L104.541 32.427C104.76 32.4796 104.927 32.5477 105.045 32.6374C105.249 32.7921 105.351 33.018 105.351 33.315C105.351 33.6832 105.221 33.9463 104.958 34.1072C104.698 34.265 104.392 34.3454 104.045 34.3454C103.643 34.3454 103.325 34.2402 103.099 34.0267C102.87 33.8163 102.758 33.5316 102.761 33.1727H103.185V33.1696Z" fill="black"/>
</g>
</g>
</svg>
