<svg width="33" height="74" viewBox="0 0 33 74" fill="none" xmlns="http://www.w3.org/2000/svg">
<path d="M16.2571 0.769135L18.1979 4.40821C18.5618 5.13602 19.047 5.62123 19.7749 6.34904C21.3518 7.92598 23.05 9.62421 24.3844 11.4437C27.6595 15.6893 29.843 20.5414 31.4199 25.7574C32.3903 29.0326 32.9968 32.3078 32.9968 35.4616C33.1181 45.1658 29.7217 53.7783 22.9287 60.8138C21.9583 61.7842 20.7453 62.876 19.2897 63.8464C18.5618 63.8464 18.3192 63.3612 18.0766 62.876C17.5914 62.0269 17.2275 60.9351 17.1062 59.9647C16.9849 58.7517 16.7423 57.5387 16.7423 56.3256V55.5978C16.621 55.4765 16.1358 0.890437 16.2571 0.769135Z" fill="#599636"/>
<path d="M16.2571 0.647845C16.2571 0.526543 16.1358 0.647845 16.1358 0.647845C16.1358 1.49696 16.0145 2.22478 15.408 2.83129C14.9228 3.5591 14.4376 4.04431 13.7097 4.52952C10.0707 7.56208 7.40201 11.2012 5.09727 15.3254C2.18601 20.784 0.609079 26.7279 0.12387 33.1569C0.00256731 35.3403 0.851682 43.4676 1.45819 45.651C3.39903 51.8375 6.9168 56.9322 11.405 61.1778C12.3754 62.1482 13.5884 63.2399 15.0441 64.2103C15.408 64.2103 15.408 63.8464 15.5293 63.7251C15.6506 63.2399 15.8932 62.7547 15.8932 62.1482C16.2571 60.086 16.3784 58.2665 16.7423 56.2044L16.2571 0.647845Z" fill="#6CAC48"/>
<path d="M18.3193 66.1511C18.3193 65.302 18.8045 64.4529 19.2897 63.7251C18.8045 63.6038 18.4406 63.2399 18.3193 62.7547C18.198 62.3908 17.8341 61.9056 17.8341 61.4203C17.3488 59.7221 17.1062 58.0239 16.9849 56.3256V55.3552C16.8636 55.4765 16.8636 56.9322 16.8636 57.0535C16.7423 58.9943 16.4997 60.6925 16.1358 62.3908C15.6506 63.1186 15.6506 63.7251 15.1654 64.4529C15.1654 64.4529 15.1654 64.5742 15.1654 64.8168C15.8932 66.879 16.0145 69.0624 16.1358 71.3671V72.2163C16.1358 73.1867 16.1358 72.9441 16.8636 73.1867C17.2275 73.308 17.5914 73.308 17.8341 73.5506C17.9554 73.5506 18.198 73.4293 18.198 73.1867L18.0767 71.8524V68.2133C17.9554 67.3642 18.0767 66.6363 18.3193 66.1511Z" fill="#C2BFBF"/>
</svg>
