<svg width="74" height="67" viewBox="0 0 74 67" fill="none" xmlns="http://www.w3.org/2000/svg">
<path d="M37.0048 39.7818C40.6631 39.7818 43.6287 36.8162 43.6287 33.1579C43.6287 29.4997 40.6631 26.5341 37.0048 26.5341C33.3466 26.5341 30.381 29.4997 30.381 33.1579C30.381 36.8162 33.3466 39.7818 37.0048 39.7818Z" fill="#00D8FF"/>
<path d="M37.0048 48.2309C27.7048 48.2309 19.5736 47.1337 13.4932 45.0522C5.17748 42.212 -0.000610352 37.6491 -0.000610352 33.158C-0.000610352 28.8309 4.78785 24.5757 12.7959 21.7764C19.3993 19.4796 27.9919 18.2082 36.9946 18.2082C45.8332 18.2082 54.313 19.4489 60.8753 21.7149C68.9655 24.5039 74 28.8822 74 33.158C74 37.6593 68.6476 42.2325 60.0345 45.083C53.9029 47.1132 45.7204 48.2309 37.0048 48.2309ZM37.0048 21.1407C28.443 21.1407 19.9735 22.3814 13.77 24.5449C6.28488 27.1493 2.94219 30.7484 2.94219 33.1477C2.94219 35.6496 6.54122 39.5665 14.4468 42.2735C20.2196 44.2524 28.0226 45.2983 37.0048 45.2983C45.4231 45.2983 53.2671 44.2319 59.1117 42.294C67.3249 39.5768 71.0675 35.6496 71.0675 33.158C71.0675 30.7484 67.6222 27.1391 59.932 24.4936C53.667 22.3301 45.5256 21.1407 37.0048 21.1407Z" fill="#00D8FF"/>
<path d="M21.973 66.103C20.6502 66.103 19.4711 65.8159 18.456 65.2417C14.7031 63.0781 13.4112 56.8132 14.9902 48.4667C16.2924 41.5967 19.4916 33.5271 23.9827 25.7241C28.402 18.0748 33.7134 11.3484 38.9428 6.78557C45.3923 1.16657 51.7086 -0.996952 55.4101 1.13581C59.3168 3.38136 60.5985 10.3026 58.7631 19.1925C57.4609 25.519 54.3438 33.158 49.986 40.7149C45.3411 48.764 40.327 55.2649 35.4873 59.4894C30.6065 63.7856 25.7463 66.103 21.973 66.103ZM52.0777 3.24806C49.5553 3.24806 45.5974 4.8989 40.891 9.00036C35.8974 13.3479 30.8014 19.8077 26.5461 27.1903C22.2703 34.6037 19.1122 42.5606 17.892 49.0204C16.4155 56.8029 17.851 61.4991 19.9325 62.6987C22.096 63.9497 27.2946 62.791 33.5801 57.2848C38.1737 53.2654 42.9827 47.0312 47.4636 39.2589C51.6676 31.9583 54.6719 24.6269 55.9126 18.608C57.6557 10.1283 56.1279 4.92966 53.9644 3.68897C53.4825 3.40187 52.8467 3.24806 52.0777 3.24806Z" fill="#00D8FF"/>
<path d="M52.047 66.1337C48.489 66.1337 43.9466 63.9702 39.2197 59.8995C33.9185 55.3366 28.5148 48.5385 24.0032 40.7457C19.5736 33.1067 16.4053 25.1396 15.0723 18.321C13.4317 9.92321 14.7032 3.37112 18.4047 1.23836C22.3011 -1.01744 28.9455 1.32039 35.7232 7.34954C40.5526 11.6356 45.6179 18.1569 49.986 25.7036C54.6411 33.7527 57.7685 41.3404 59.0092 47.6361C60.7216 56.2697 59.3578 63.0269 55.4717 65.2827C54.4873 65.8466 53.3287 66.1337 52.047 66.1337ZM21.8192 3.34036C21.0297 3.34036 20.3734 3.49417 19.8813 3.78127C17.7998 4.98095 16.4053 9.77966 17.9638 17.7673C19.2353 24.2681 22.2909 31.9173 26.5564 39.2794C30.8424 46.6826 36.1641 53.3884 41.1473 57.6847C47.156 62.8526 51.9342 63.9497 54.0157 62.75C56.1792 61.4991 57.7685 56.4133 56.1484 48.2206C54.959 42.2325 51.9547 34.9626 47.4636 27.1904C43.2493 19.9103 38.3891 13.6453 33.7955 9.56433C28.7814 5.10399 24.5057 3.34036 21.8192 3.34036Z" fill="#00D8FF"/>
</svg>
